#N canvas 1 100 913 390 10;
#X declare -path ./lib/sssad;
#X declare -path ./lib/sssad;
#X obj 30 25 zac.lumiere /OX_Head;
#N canvas 491 100 850 796 ObdwellaXHeadInit 0;
#X obj 234 572 send OSC_MESSAGES;
#X obj 114 499 list prepend;
#X obj 71 43 bng 15 250 50 0 empty empty empty 17 7 0 10 -262144 -1
-1;
#X obj 114 522 l2s /;
#X msg 114 132 File;
#X obj 234 539 list;
#X msg 114 109 Zpos;
#X msg 114 326 RenderOrder;
#X msg 114 369 Yscale;
#X msg 114 389 Xscale;
#X msg 114 409 Ypos;
#X msg 114 429 Xpos;
#X msg 114 225 Blue;
#X msg 114 184 Red;
#X msg 114 205 Green;
#X msg 114 305 modeAlpha;
#X msg 114 348 Shape;
#X msg 114 245 Rotate;
#X msg 114 284 Alpha;
#X msg 114 264 Activate;
#X obj 71 62 t b b b;
#X obj 56 115 t b b b;
#X obj 56 309 t b b b;
#X obj 56 352 t b b b;
#X obj 56 372 t b b b;
#X obj 56 392 t b b b;
#X obj 56 412 t b b b;
#X obj 17 331 t b b b;
#X obj 16 288 t b b b;
#X obj 56 267 t b b b;
#X obj 56 247 t b b b;
#X obj 56 228 t b b b;
#X obj 56 208 t b b b;
#X obj 56 188 t b b b;
#X obj 56 167 t b b b;
#X msg 255 245 0;
#X msg 255 284 1;
#X msg 255 184 1;
#X msg 114 449 ParentName;
#X msg 255 449 /Dummy;
#X msg 114 469 g*pos;
#X msg 255 469 0;
#X obj 56 432 t b b b;
#X obj 56 452 t b b b;
#X msg 255 264 1;
#X msg 255 205 1;
#X msg 255 225 1;
#X obj 71 22 r ObdwellaXInit;
#X msg 183 79 /OX_Head;
#X msg 255 109 -2.85;
#X msg 255 132 /home/woii/2013_Sebkha-ChottGalootFormula_ThingFish/ThingFishVideoDecorum/ObdwellaX/data/odwellax_tete.png
;
#X msg 255 429 -7;
#X msg 255 369 0.9;
#X msg 255 389 0.45;
#X msg 255 409 4.8;
#X msg 255 326 -15;
#X connect 1 0 3 0;
#X connect 2 0 20 0;
#X connect 3 0 5 0;
#X connect 4 0 1 0;
#X connect 5 0 0 0;
#X connect 6 0 1 0;
#X connect 7 0 1 0;
#X connect 8 0 1 0;
#X connect 9 0 1 0;
#X connect 10 0 1 0;
#X connect 11 0 1 0;
#X connect 12 0 1 0;
#X connect 13 0 1 0;
#X connect 14 0 1 0;
#X connect 15 0 1 0;
#X connect 17 0 1 0;
#X connect 18 0 1 0;
#X connect 19 0 1 0;
#X connect 20 0 6 0;
#X connect 20 0 21 0;
#X connect 20 1 49 0;
#X connect 20 2 48 0;
#X connect 21 0 34 0;
#X connect 21 1 4 0;
#X connect 21 2 50 0;
#X connect 22 0 23 0;
#X connect 22 1 7 0;
#X connect 22 2 55 0;
#X connect 23 0 24 0;
#X connect 23 1 8 0;
#X connect 23 2 52 0;
#X connect 24 0 25 0;
#X connect 24 1 9 0;
#X connect 24 2 53 0;
#X connect 25 0 26 0;
#X connect 25 1 10 0;
#X connect 25 2 54 0;
#X connect 26 0 42 0;
#X connect 26 1 11 0;
#X connect 26 2 51 0;
#X connect 27 1 16 0;
#X connect 28 1 15 0;
#X connect 29 0 22 0;
#X connect 29 1 18 0;
#X connect 29 2 36 0;
#X connect 30 0 29 0;
#X connect 30 1 19 0;
#X connect 30 2 44 0;
#X connect 31 0 30 0;
#X connect 31 1 17 0;
#X connect 31 2 35 0;
#X connect 32 0 31 0;
#X connect 32 1 12 0;
#X connect 32 2 46 0;
#X connect 33 0 32 0;
#X connect 33 1 14 0;
#X connect 33 2 45 0;
#X connect 34 0 33 0;
#X connect 34 1 13 0;
#X connect 34 2 37 0;
#X connect 35 0 5 1;
#X connect 36 0 5 1;
#X connect 37 0 5 1;
#X connect 38 0 1 0;
#X connect 39 0 5 1;
#X connect 40 0 1 0;
#X connect 41 0 5 1;
#X connect 42 0 43 0;
#X connect 42 1 38 0;
#X connect 42 2 39 0;
#X connect 43 1 40 0;
#X connect 43 2 41 0;
#X connect 44 0 5 1;
#X connect 45 0 5 1;
#X connect 46 0 5 1;
#X connect 47 0 2 0;
#X connect 48 0 1 1;
#X connect 49 0 5 1;
#X connect 50 0 5 1;
#X connect 51 0 5 1;
#X connect 52 0 5 1;
#X connect 53 0 5 1;
#X connect 54 0 5 1;
#X connect 55 0 5 1;
#X restore 336 24 pd ObdwellaXHeadInit;
#X obj 30 195 zac.lumiere /OX_Body;
#N canvas 491 100 850 796 ObdwellaXBodyInit 0;
#X obj 234 572 send OSC_MESSAGES;
#X obj 114 499 list prepend;
#X obj 71 43 bng 15 250 50 0 empty empty empty 17 7 0 10 -262144 -1
-1;
#X obj 114 522 l2s /;
#X msg 114 132 File;
#X obj 234 539 list;
#X msg 114 109 Zpos;
#X msg 114 326 RenderOrder;
#X msg 114 369 Yscale;
#X msg 114 389 Xscale;
#X msg 114 409 Ypos;
#X msg 114 429 Xpos;
#X msg 114 225 Blue;
#X msg 114 184 Red;
#X msg 114 205 Green;
#X msg 114 305 modeAlpha;
#X msg 114 348 Shape;
#X msg 114 245 Rotate;
#X msg 114 284 Alpha;
#X msg 114 264 Activate;
#X obj 71 62 t b b b;
#X obj 56 115 t b b b;
#X obj 56 309 t b b b;
#X obj 56 352 t b b b;
#X obj 56 372 t b b b;
#X obj 56 392 t b b b;
#X obj 56 412 t b b b;
#X obj 17 331 t b b b;
#X obj 16 288 t b b b;
#X obj 56 267 t b b b;
#X obj 56 247 t b b b;
#X obj 56 228 t b b b;
#X obj 56 208 t b b b;
#X obj 56 188 t b b b;
#X obj 56 167 t b b b;
#X msg 255 245 0;
#X msg 255 284 1;
#X msg 255 184 1;
#X msg 114 449 ParentName;
#X msg 255 449 /Dummy;
#X msg 114 469 g*pos;
#X msg 255 469 0;
#X obj 56 432 t b b b;
#X obj 56 452 t b b b;
#X msg 255 264 1;
#X msg 255 205 1;
#X msg 255 225 1;
#X obj 71 22 r ObdwellaXInit;
#X msg 255 326 -16;
#X msg 255 429 -7;
#X msg 183 79 /OX_Body;
#X msg 255 132 /home/woii/2013_Sebkha-ChottGalootFormula_ThingFish/ThingFishVideoDecorum/ObdwellaX/data/odwellax_corps.png
;
#X msg 255 109 -2.851;
#X msg 255 369 0.9;
#X msg 255 389 0.9;
#X msg 255 409 3.2;
#X connect 1 0 3 0;
#X connect 2 0 20 0;
#X connect 3 0 5 0;
#X connect 4 0 1 0;
#X connect 5 0 0 0;
#X connect 6 0 1 0;
#X connect 7 0 1 0;
#X connect 8 0 1 0;
#X connect 9 0 1 0;
#X connect 10 0 1 0;
#X connect 11 0 1 0;
#X connect 12 0 1 0;
#X connect 13 0 1 0;
#X connect 14 0 1 0;
#X connect 15 0 1 0;
#X connect 17 0 1 0;
#X connect 18 0 1 0;
#X connect 19 0 1 0;
#X connect 20 0 6 0;
#X connect 20 0 21 0;
#X connect 20 1 52 0;
#X connect 20 2 50 0;
#X connect 21 0 34 0;
#X connect 21 1 4 0;
#X connect 21 2 51 0;
#X connect 22 0 23 0;
#X connect 22 1 7 0;
#X connect 22 2 48 0;
#X connect 23 0 24 0;
#X connect 23 1 8 0;
#X connect 23 2 53 0;
#X connect 24 0 25 0;
#X connect 24 1 9 0;
#X connect 24 2 54 0;
#X connect 25 0 26 0;
#X connect 25 1 10 0;
#X connect 25 2 55 0;
#X connect 26 0 42 0;
#X connect 26 1 11 0;
#X connect 26 2 49 0;
#X connect 27 1 16 0;
#X connect 28 1 15 0;
#X connect 29 0 22 0;
#X connect 29 1 18 0;
#X connect 29 2 36 0;
#X connect 30 0 29 0;
#X connect 30 1 19 0;
#X connect 30 2 44 0;
#X connect 31 0 30 0;
#X connect 31 1 17 0;
#X connect 31 2 35 0;
#X connect 32 0 31 0;
#X connect 32 1 12 0;
#X connect 32 2 46 0;
#X connect 33 0 32 0;
#X connect 33 1 14 0;
#X connect 33 2 45 0;
#X connect 34 0 33 0;
#X connect 34 1 13 0;
#X connect 34 2 37 0;
#X connect 35 0 5 1;
#X connect 36 0 5 1;
#X connect 37 0 5 1;
#X connect 38 0 1 0;
#X connect 39 0 5 1;
#X connect 40 0 1 0;
#X connect 41 0 5 1;
#X connect 42 0 43 0;
#X connect 42 1 38 0;
#X connect 42 2 39 0;
#X connect 43 1 40 0;
#X connect 43 2 41 0;
#X connect 44 0 5 1;
#X connect 45 0 5 1;
#X connect 46 0 5 1;
#X connect 47 0 2 0;
#X connect 48 0 5 1;
#X connect 49 0 5 1;
#X connect 50 0 1 1;
#X connect 51 0 5 1;
#X connect 52 0 5 1;
#X connect 53 0 5 1;
#X connect 54 0 5 1;
#X connect 55 0 5 1;
#X restore 336 44 pd ObdwellaXBodyInit;
#N canvas 0 100 1440 800 TFHandHangsOX 1;
#X obj 624 768 s OSC_MESSAGES;
#X obj 1622 464 symbol;
#X msg 1622 394 /home/woii/2013_Sebkha-ChottGalootFormula_ThingFish/ThingFishVideoDecorum/ObdwellaX/data/2013_07_09_TF_Main_tenant_Odwella_X.png
;
#X msg 1383 557 1;
#X obj 1383 709 / 2;
#X msg 1230 751 /OX*/Xpos \$1;
#X obj 991 707 + 0.8;
#X msg 1109 751 /OX_Body/Ypos \$1;
#X msg 1622 751 /HandCour/File \$1;
#X msg 1383 668 /HandCour/Yscale \$1;
#X msg 1383 751 /HandCour/Xscale \$1;
#X msg 991 751 /HandCour/Ypos \$1;
#X msg 1109 781 /HandCour/Xpos \$1;
#X obj 82 34 r ObdwellaXDroppedToCurtains;
#X msg 1513 882 /HandCour/Zpos \$1;
#X obj 1109 658 line;
#X obj 991 675 + 1.6;
#X msg 1380 490 0;
#X msg 991 781 /OX_Head/Ypos \$1;
#X obj 1230 507 line;
#X obj 1109 524 + 0.75;
#X obj 1462 327 bng 15 250 50 0 empty empty empty 17 7 0 10 -262144
-1 -1;
#X msg 1513 751 /OX_Head/Zpos \$1;
#X msg 1513 831 /OX_Body/Zpos \$1;
#X msg 1513 441 -3.042;
#X msg 1513 412 -3.041;
#X msg 1513 480 -3.04;
#X msg 1109 399 3.5 300;
#X msg 624 687 /HandCour/Ypos \$1;
#X obj 791 670 line;
#X msg 936 675 set \$1;
#X obj 1462 541 line;
#X msg 1462 582 /HandCour/Rotate \$1;
#X msg 1462 609 /OX*/Rotate \$1;
#X msg 1462 453 0;
#X obj 1033 588 line;
#X msg 624 605 /OX_Head/Xpos \$1;
#X obj 954 619 line;
#X msg 624 636 /OX_Body/Xpos \$1;
#X obj 624 312 bng 15 250 50 0 empty empty empty 17 7 0 10 -262144
-1 -1;
#X msg 624 524 60 200;
#X msg 624 665 /OX_Head/Ypos \$1;
#X msg 624 709 /OX_Body/Ypos \$1;
#X obj 732 648 line;
#X obj 853 692 line;
#X msg 991 631 set \$1;
#X msg 1033 327 -2 200;
#X msg 954 327 -0.65 200;
#X msg 732 327 5.2 200;
#X msg 853 327 4.45 200;
#X msg 791 327 5.5 200;
#X obj 624 558 line;
#X msg 624 579 /HandCour/Xpos \$1;
#X msg 624 419 -1 200;
#X msg 1027 541 set \$1;
#X obj 1109 356 bng 15 250 50 0 empty empty empty 17 7 0 10 -262144
-1 -1;
#X msg 550 712 -2.8 100;
#X msg 550 839 -2.79 100;
#X msg 550 794 -2.81 100;
#X obj 1513 729 line;
#X obj 1513 810 line;
#X obj 1513 856 line;
#X obj 550 339 bng 15 250 50 0 empty empty empty 17 7 0 10 -262144
-1 -1;
#X obj 344 619 line;
#X msg 344 575 set \$1;
#X obj 344 763 + 0.75;
#X obj 354 371 bng 15 250 50 0 empty empty empty 17 7 0 10 -262144
-1 -1;
#X msg 550 541 -5.5 200;
#X msg 550 571 -6.5 200;
#X msg 550 602 -5.25 200;
#X obj 427 588 line;
#X msg 427 605 set \$1;
#X msg 424 524 0 100;
#X msg 344 490 -7.5 100;
#X msg 428 641 3.5 100;
#X obj 1435 217 r BringObdwellaXToCurtains;
#X obj 550 292 delay 200;
#X obj 1435 239 bng 15 250 50 0 empty empty empty 17 7 0 10 -262144
-1 -1;
#X obj 354 309 delay 205;
#X obj 1375 280 t b b;
#X obj 624 275 delay 305;
#X connect 1 0 8 0;
#X connect 2 0 1 0;
#X connect 3 0 4 0;
#X connect 3 0 9 0;
#X connect 4 0 10 0;
#X connect 5 0 0 0;
#X connect 6 0 11 0;
#X connect 7 0 0 0;
#X connect 8 0 0 0;
#X connect 9 0 0 0;
#X connect 10 0 0 0;
#X connect 11 0 0 0;
#X connect 12 0 0 0;
#X connect 14 0 0 0;
#X connect 15 0 7 0;
#X connect 15 0 6 0;
#X connect 15 0 16 0;
#X connect 15 0 30 0;
#X connect 16 0 18 0;
#X connect 16 0 45 0;
#X connect 17 0 15 0;
#X connect 17 0 19 0;
#X connect 17 0 37 0;
#X connect 17 0 35 0;
#X connect 18 0 0 0;
#X connect 19 0 5 0;
#X connect 19 0 20 0;
#X connect 20 0 12 0;
#X connect 20 0 54 0;
#X connect 21 0 24 0;
#X connect 21 0 25 0;
#X connect 21 0 26 0;
#X connect 21 0 17 0;
#X connect 21 0 3 0;
#X connect 21 0 2 0;
#X connect 21 0 34 0;
#X connect 22 0 0 0;
#X connect 23 0 0 0;
#X connect 24 0 60 0;
#X connect 25 0 59 0;
#X connect 26 0 61 0;
#X connect 27 0 15 0;
#X connect 28 0 0 0;
#X connect 29 0 28 0;
#X connect 30 0 29 0;
#X connect 30 0 44 0;
#X connect 31 0 32 0;
#X connect 31 0 33 0;
#X connect 32 0 0 0;
#X connect 33 0 0 0;
#X connect 34 0 31 0;
#X connect 35 0 36 0;
#X connect 35 0 71 0;
#X connect 36 0 0 0;
#X connect 37 0 38 0;
#X connect 38 0 0 0;
#X connect 39 0 46 0;
#X connect 39 0 47 0;
#X connect 39 0 40 0;
#X connect 39 0 50 0;
#X connect 39 0 48 0;
#X connect 39 0 49 0;
#X connect 39 0 53 0;
#X connect 40 0 31 0;
#X connect 41 0 0 0;
#X connect 42 0 0 0;
#X connect 43 0 41 0;
#X connect 44 0 42 0;
#X connect 45 0 43 0;
#X connect 46 0 35 0;
#X connect 47 0 37 0;
#X connect 48 0 43 0;
#X connect 49 0 44 0;
#X connect 50 0 29 0;
#X connect 51 0 52 0;
#X connect 51 0 64 0;
#X connect 52 0 0 0;
#X connect 53 0 51 0;
#X connect 54 0 51 0;
#X connect 55 0 27 0;
#X connect 56 0 59 0;
#X connect 57 0 61 0;
#X connect 58 0 60 0;
#X connect 59 0 22 0;
#X connect 60 0 23 0;
#X connect 61 0 14 0;
#X connect 62 0 56 0;
#X connect 62 0 58 0;
#X connect 62 0 57 0;
#X connect 62 0 69 0;
#X connect 62 0 68 0;
#X connect 62 0 67 0;
#X connect 63 0 65 0;
#X connect 63 0 38 0;
#X connect 64 0 63 0;
#X connect 65 0 12 0;
#X connect 66 0 73 0;
#X connect 66 0 72 0;
#X connect 66 0 74 0;
#X connect 67 0 51 0;
#X connect 68 0 35 0;
#X connect 69 0 37 0;
#X connect 70 0 36 0;
#X connect 71 0 70 0;
#X connect 72 0 31 0;
#X connect 73 0 63 0;
#X connect 73 0 70 0;
#X connect 74 0 15 0;
#X connect 75 0 77 0;
#X connect 76 0 62 0;
#X connect 76 0 78 0;
#X connect 77 0 79 0;
#X connect 78 0 66 0;
#X connect 79 0 55 0;
#X connect 79 0 80 0;
#X connect 79 1 21 0;
#X connect 80 0 39 0;
#X connect 80 0 76 0;
#X restore 702 52 pd TFHandHangsOX;
