#N canvas 1 100 913 390 10;
#X declare -path ./lib/sssad;
#X declare -path ./lib/sssad;
#X obj 30 25 zac.lumiere /OX_Head;
#N canvas 483 100 850 796 ObdwellaXHeadInit 0;
#X obj 234 572 send OSC_MESSAGES;
#X obj 114 499 list prepend;
#X obj 71 43 bng 15 250 50 0 empty empty empty 17 7 0 10 -262144 -1
-1;
#X obj 114 522 l2s /;
#X msg 114 132 File;
#X obj 234 539 list;
#X msg 114 109 Zpos;
#X msg 114 326 RenderOrder;
#X msg 114 369 Yscale;
#X msg 114 389 Xscale;
#X msg 114 409 Ypos;
#X msg 114 429 Xpos;
#X msg 114 225 Blue;
#X msg 114 184 Red;
#X msg 114 205 Green;
#X msg 114 305 modeAlpha;
#X msg 114 348 Shape;
#X msg 114 245 Rotate;
#X msg 114 284 Alpha;
#X msg 114 264 Activate;
#X obj 71 62 t b b b;
#X obj 56 115 t b b b;
#X obj 56 309 t b b b;
#X obj 56 352 t b b b;
#X obj 56 372 t b b b;
#X obj 56 392 t b b b;
#X obj 56 412 t b b b;
#X obj 17 331 t b b b;
#X obj 16 288 t b b b;
#X obj 56 267 t b b b;
#X obj 56 247 t b b b;
#X obj 56 228 t b b b;
#X obj 56 208 t b b b;
#X obj 56 188 t b b b;
#X obj 56 167 t b b b;
#X msg 255 245 0;
#X msg 255 284 1;
#X msg 255 184 1;
#X msg 114 449 ParentName;
#X msg 255 449 /Dummy;
#X msg 114 469 g*pos;
#X msg 255 469 0;
#X obj 56 432 t b b b;
#X obj 56 452 t b b b;
#X msg 255 205 1;
#X msg 255 225 1;
#X obj 71 22 r ObdwellaXInit;
#X msg 183 79 /OX_Head;
#X msg 255 109 -2.85;
#X msg 255 132 /home/woii/2013_Sebkha-ChottGalootFormula_ThingFish/ThingFishVideoDecorum/ObdwellaX/data/odwellax_tete.png
;
#X msg 255 429 -7;
#X msg 255 369 0.9;
#X msg 255 389 0.45;
#X msg 255 409 4.8;
#X msg 255 326 -15;
#X msg 255 264 0;
#X connect 1 0 3 0;
#X connect 2 0 20 0;
#X connect 3 0 5 0;
#X connect 4 0 1 0;
#X connect 5 0 0 0;
#X connect 6 0 1 0;
#X connect 7 0 1 0;
#X connect 8 0 1 0;
#X connect 9 0 1 0;
#X connect 10 0 1 0;
#X connect 11 0 1 0;
#X connect 12 0 1 0;
#X connect 13 0 1 0;
#X connect 14 0 1 0;
#X connect 15 0 1 0;
#X connect 17 0 1 0;
#X connect 18 0 1 0;
#X connect 19 0 1 0;
#X connect 20 0 6 0;
#X connect 20 0 21 0;
#X connect 20 1 48 0;
#X connect 20 2 47 0;
#X connect 21 0 34 0;
#X connect 21 1 4 0;
#X connect 21 2 49 0;
#X connect 22 0 23 0;
#X connect 22 1 7 0;
#X connect 22 2 54 0;
#X connect 23 0 24 0;
#X connect 23 1 8 0;
#X connect 23 2 51 0;
#X connect 24 0 25 0;
#X connect 24 1 9 0;
#X connect 24 2 52 0;
#X connect 25 0 26 0;
#X connect 25 1 10 0;
#X connect 25 2 53 0;
#X connect 26 0 42 0;
#X connect 26 1 11 0;
#X connect 26 2 50 0;
#X connect 27 1 16 0;
#X connect 28 1 15 0;
#X connect 29 0 22 0;
#X connect 29 1 18 0;
#X connect 29 2 36 0;
#X connect 30 0 29 0;
#X connect 30 1 19 0;
#X connect 30 2 55 0;
#X connect 31 0 30 0;
#X connect 31 1 17 0;
#X connect 31 2 35 0;
#X connect 32 0 31 0;
#X connect 32 1 12 0;
#X connect 32 2 45 0;
#X connect 33 0 32 0;
#X connect 33 1 14 0;
#X connect 33 2 44 0;
#X connect 34 0 33 0;
#X connect 34 1 13 0;
#X connect 34 2 37 0;
#X connect 35 0 5 1;
#X connect 36 0 5 1;
#X connect 37 0 5 1;
#X connect 38 0 1 0;
#X connect 39 0 5 1;
#X connect 40 0 1 0;
#X connect 41 0 5 1;
#X connect 42 0 43 0;
#X connect 42 1 38 0;
#X connect 42 2 39 0;
#X connect 43 1 40 0;
#X connect 43 2 41 0;
#X connect 44 0 5 1;
#X connect 45 0 5 1;
#X connect 46 0 2 0;
#X connect 47 0 1 1;
#X connect 48 0 5 1;
#X connect 49 0 5 1;
#X connect 50 0 5 1;
#X connect 51 0 5 1;
#X connect 52 0 5 1;
#X connect 53 0 5 1;
#X connect 54 0 5 1;
#X connect 55 0 5 1;
#X restore 336 24 pd ObdwellaXHeadInit;
#X obj 30 195 zac.lumiere /OX_Body;
#N canvas 489 100 850 796 ObdwellaXBodyInit 0;
#X obj 234 572 send OSC_MESSAGES;
#X obj 114 499 list prepend;
#X obj 71 43 bng 15 250 50 0 empty empty empty 17 7 0 10 -262144 -1
-1;
#X obj 114 522 l2s /;
#X msg 114 132 File;
#X obj 234 539 list;
#X msg 114 109 Zpos;
#X msg 114 326 RenderOrder;
#X msg 114 369 Yscale;
#X msg 114 389 Xscale;
#X msg 114 409 Ypos;
#X msg 114 429 Xpos;
#X msg 114 225 Blue;
#X msg 114 184 Red;
#X msg 114 205 Green;
#X msg 114 305 modeAlpha;
#X msg 114 348 Shape;
#X msg 114 245 Rotate;
#X msg 114 284 Alpha;
#X msg 114 264 Activate;
#X obj 71 62 t b b b;
#X obj 56 115 t b b b;
#X obj 56 309 t b b b;
#X obj 56 352 t b b b;
#X obj 56 372 t b b b;
#X obj 56 392 t b b b;
#X obj 56 412 t b b b;
#X obj 17 331 t b b b;
#X obj 16 288 t b b b;
#X obj 56 267 t b b b;
#X obj 56 247 t b b b;
#X obj 56 228 t b b b;
#X obj 56 208 t b b b;
#X obj 56 188 t b b b;
#X obj 56 167 t b b b;
#X msg 255 245 0;
#X msg 255 284 1;
#X msg 255 184 1;
#X msg 114 449 ParentName;
#X msg 255 449 /Dummy;
#X msg 114 469 g*pos;
#X msg 255 469 0;
#X obj 56 432 t b b b;
#X obj 56 452 t b b b;
#X msg 255 205 1;
#X msg 255 225 1;
#X obj 71 22 r ObdwellaXInit;
#X msg 255 326 -16;
#X msg 255 429 -7;
#X msg 183 79 /OX_Body;
#X msg 255 132 /home/woii/2013_Sebkha-ChottGalootFormula_ThingFish/ThingFishVideoDecorum/ObdwellaX/data/odwellax_corps.png
;
#X msg 255 109 -2.851;
#X msg 255 369 0.9;
#X msg 255 389 0.9;
#X msg 255 409 3.2;
#X msg 255 264 0;
#X connect 1 0 3 0;
#X connect 2 0 20 0;
#X connect 3 0 5 0;
#X connect 4 0 1 0;
#X connect 5 0 0 0;
#X connect 6 0 1 0;
#X connect 7 0 1 0;
#X connect 8 0 1 0;
#X connect 9 0 1 0;
#X connect 10 0 1 0;
#X connect 11 0 1 0;
#X connect 12 0 1 0;
#X connect 13 0 1 0;
#X connect 14 0 1 0;
#X connect 15 0 1 0;
#X connect 17 0 1 0;
#X connect 18 0 1 0;
#X connect 19 0 1 0;
#X connect 20 0 6 0;
#X connect 20 0 21 0;
#X connect 20 1 51 0;
#X connect 20 2 49 0;
#X connect 21 0 34 0;
#X connect 21 1 4 0;
#X connect 21 2 50 0;
#X connect 22 0 23 0;
#X connect 22 1 7 0;
#X connect 22 2 47 0;
#X connect 23 0 24 0;
#X connect 23 1 8 0;
#X connect 23 2 52 0;
#X connect 24 0 25 0;
#X connect 24 1 9 0;
#X connect 24 2 53 0;
#X connect 25 0 26 0;
#X connect 25 1 10 0;
#X connect 25 2 54 0;
#X connect 26 0 42 0;
#X connect 26 1 11 0;
#X connect 26 2 48 0;
#X connect 27 1 16 0;
#X connect 28 1 15 0;
#X connect 29 0 22 0;
#X connect 29 1 18 0;
#X connect 29 2 36 0;
#X connect 30 0 29 0;
#X connect 30 1 19 0;
#X connect 30 2 55 0;
#X connect 31 0 30 0;
#X connect 31 1 17 0;
#X connect 31 2 35 0;
#X connect 32 0 31 0;
#X connect 32 1 12 0;
#X connect 32 2 45 0;
#X connect 33 0 32 0;
#X connect 33 1 14 0;
#X connect 33 2 44 0;
#X connect 34 0 33 0;
#X connect 34 1 13 0;
#X connect 34 2 37 0;
#X connect 35 0 5 1;
#X connect 36 0 5 1;
#X connect 37 0 5 1;
#X connect 38 0 1 0;
#X connect 39 0 5 1;
#X connect 40 0 1 0;
#X connect 41 0 5 1;
#X connect 42 0 43 0;
#X connect 42 1 38 0;
#X connect 42 2 39 0;
#X connect 43 1 40 0;
#X connect 43 2 41 0;
#X connect 44 0 5 1;
#X connect 45 0 5 1;
#X connect 46 0 2 0;
#X connect 47 0 5 1;
#X connect 48 0 5 1;
#X connect 49 0 1 1;
#X connect 50 0 5 1;
#X connect 51 0 5 1;
#X connect 52 0 5 1;
#X connect 53 0 5 1;
#X connect 54 0 5 1;
#X connect 55 0 5 1;
#X restore 336 44 pd ObdwellaXBodyInit;
#N canvas 0 100 1440 800 TFHandHangsOX 0;
#X obj 624 768 s OSC_MESSAGES;
#X obj 1622 464 symbol;
#X msg 1622 394 /home/woii/2013_Sebkha-ChottGalootFormula_ThingFish/ThingFishVideoDecorum/ObdwellaX/data/2013_07_09_TF_Main_tenant_Odwella_X.png
;
#X msg 1383 557 1;
#X obj 1383 709 / 2;
#X msg 1230 751 /OX*/Xpos \$1;
#X obj 991 707 + 0.8;
#X msg 1109 751 /OX_Body/Ypos \$1;
#X msg 1622 751 /HandCour/File \$1;
#X msg 1383 668 /HandCour/Yscale \$1;
#X msg 1383 751 /HandCour/Xscale \$1;
#X msg 991 751 /HandCour/Ypos \$1;
#X msg 1109 781 /HandCour/Xpos \$1;
#X msg 1513 882 /HandCour/Zpos \$1;
#X obj 1109 658 line;
#X obj 991 675 + 1.6;
#X msg 1380 490 0;
#X msg 991 781 /OX_Head/Ypos \$1;
#X obj 1230 507 line;
#X obj 1109 524 + 0.75;
#X obj 1462 327 bng 15 250 50 0 empty empty empty 17 7 0 10 -262144
-1 -1;
#X msg 1513 751 /OX_Head/Zpos \$1;
#X msg 1513 831 /OX_Body/Zpos \$1;
#X msg 1513 441 -3.042;
#X msg 1513 412 -3.041;
#X msg 1513 480 -3.04;
#X msg 624 687 /HandCour/Ypos \$1;
#X obj 791 670 line;
#X msg 936 675 set \$1;
#X obj 1462 541 line;
#X msg 1462 582 /HandCour/Rotate \$1;
#X msg 1462 609 /OX*/Rotate \$1;
#X msg 1462 453 0;
#X obj 1033 588 line;
#X msg 624 605 /OX_Head/Xpos \$1;
#X obj 954 619 line;
#X msg 624 636 /OX_Body/Xpos \$1;
#X obj 624 312 bng 15 250 50 0 empty empty empty 17 7 0 10 -262144
-1 -1;
#X msg 624 524 60 200;
#X msg 624 665 /OX_Head/Ypos \$1;
#X msg 624 709 /OX_Body/Ypos \$1;
#X obj 732 648 line;
#X obj 853 692 line;
#X msg 991 631 set \$1;
#X msg 1033 327 -2 200;
#X msg 954 327 -0.65 200;
#X msg 732 327 5.2 200;
#X msg 853 327 4.45 200;
#X msg 791 327 5.5 200;
#X obj 624 558 line;
#X msg 624 579 /HandCour/Xpos \$1;
#X msg 624 419 -1 200;
#X msg 1027 541 set \$1;
#X obj 1109 356 bng 15 250 50 0 empty empty empty 17 7 0 10 -262144
-1 -1;
#X msg 550 712 -2.8 100;
#X msg 550 839 -2.79 100;
#X msg 550 794 -2.81 100;
#X obj 1513 729 line;
#X obj 1513 810 line;
#X obj 1513 856 line;
#X obj 550 339 bng 15 250 50 0 empty empty empty 17 7 0 10 -262144
-1 -1;
#X obj 344 619 line;
#X msg 344 575 set \$1;
#X obj 344 763 + 0.75;
#X obj 354 371 bng 15 250 50 0 empty empty empty 17 7 0 10 -262144
-1 -1;
#X msg 550 541 -5.5 200;
#X msg 550 571 -6.5 200;
#X msg 550 602 -5.25 200;
#X obj 427 588 line;
#X msg 427 605 set \$1;
#X msg 424 524 0 100;
#X msg 344 490 -7.5 100;
#X msg 428 641 3.5 100;
#X obj 555 31 r BringObdwellaXToCurtains;
#X obj 1435 239 bng 15 250 50 0 empty empty empty 17 7 0 10 -262144
-1 -1;
#X obj 354 309 delay 205;
#X obj 1375 280 t b b;
#X obj 354 802 delay 100;
#X obj 1272 416 s OSC_MESSAGES;
#X msg 1272 366 /OX*/Activate 1;
#X msg 1272 386 /HandCour/Activate 1;
#X msg 1109 399 3.5 500;
#X obj 624 275 delay 505;
#X obj 550 292 delay 300;
#X msg 354 839 -15 2500;
#X connect 1 0 8 0;
#X connect 2 0 1 0;
#X connect 3 0 4 0;
#X connect 3 0 9 0;
#X connect 4 0 10 0;
#X connect 5 0 0 0;
#X connect 6 0 11 0;
#X connect 7 0 0 0;
#X connect 8 0 0 0;
#X connect 9 0 0 0;
#X connect 10 0 0 0;
#X connect 11 0 0 0;
#X connect 12 0 0 0;
#X connect 13 0 0 0;
#X connect 14 0 7 0;
#X connect 14 0 6 0;
#X connect 14 0 15 0;
#X connect 14 0 28 0;
#X connect 15 0 17 0;
#X connect 15 0 43 0;
#X connect 16 0 14 0;
#X connect 16 0 18 0;
#X connect 16 0 35 0;
#X connect 16 0 33 0;
#X connect 17 0 0 0;
#X connect 18 0 5 0;
#X connect 18 0 19 0;
#X connect 19 0 12 0;
#X connect 19 0 52 0;
#X connect 20 0 23 0;
#X connect 20 0 24 0;
#X connect 20 0 25 0;
#X connect 20 0 16 0;
#X connect 20 0 3 0;
#X connect 20 0 2 0;
#X connect 20 0 32 0;
#X connect 21 0 0 0;
#X connect 22 0 0 0;
#X connect 23 0 58 0;
#X connect 24 0 57 0;
#X connect 25 0 59 0;
#X connect 26 0 0 0;
#X connect 27 0 26 0;
#X connect 28 0 27 0;
#X connect 28 0 42 0;
#X connect 29 0 30 0;
#X connect 29 0 31 0;
#X connect 30 0 0 0;
#X connect 31 0 0 0;
#X connect 32 0 29 0;
#X connect 33 0 34 0;
#X connect 33 0 69 0;
#X connect 34 0 0 0;
#X connect 35 0 36 0;
#X connect 36 0 0 0;
#X connect 37 0 44 0;
#X connect 37 0 45 0;
#X connect 37 0 38 0;
#X connect 37 0 48 0;
#X connect 37 0 46 0;
#X connect 37 0 47 0;
#X connect 37 0 51 0;
#X connect 38 0 29 0;
#X connect 39 0 0 0;
#X connect 40 0 0 0;
#X connect 41 0 39 0;
#X connect 42 0 40 0;
#X connect 43 0 41 0;
#X connect 44 0 33 0;
#X connect 45 0 35 0;
#X connect 46 0 41 0;
#X connect 47 0 42 0;
#X connect 48 0 27 0;
#X connect 49 0 50 0;
#X connect 49 0 62 0;
#X connect 50 0 0 0;
#X connect 51 0 49 0;
#X connect 52 0 49 0;
#X connect 53 0 81 0;
#X connect 54 0 57 0;
#X connect 55 0 59 0;
#X connect 56 0 58 0;
#X connect 57 0 21 0;
#X connect 58 0 22 0;
#X connect 59 0 13 0;
#X connect 60 0 54 0;
#X connect 60 0 56 0;
#X connect 60 0 55 0;
#X connect 60 0 67 0;
#X connect 60 0 66 0;
#X connect 60 0 65 0;
#X connect 61 0 63 0;
#X connect 61 0 36 0;
#X connect 62 0 61 0;
#X connect 63 0 12 0;
#X connect 64 0 71 0;
#X connect 64 0 70 0;
#X connect 64 0 72 0;
#X connect 64 0 77 0;
#X connect 65 0 49 0;
#X connect 66 0 33 0;
#X connect 67 0 35 0;
#X connect 68 0 34 0;
#X connect 69 0 68 0;
#X connect 70 0 29 0;
#X connect 71 0 61 0;
#X connect 71 0 68 0;
#X connect 72 0 14 0;
#X connect 73 0 74 0;
#X connect 74 0 76 0;
#X connect 75 0 64 0;
#X connect 76 0 53 0;
#X connect 76 0 79 0;
#X connect 76 0 80 0;
#X connect 76 0 82 0;
#X connect 76 1 20 0;
#X connect 77 0 84 0;
#X connect 79 0 78 0;
#X connect 80 0 78 0;
#X connect 81 0 14 0;
#X connect 82 0 37 0;
#X connect 82 0 83 0;
#X connect 83 0 60 0;
#X connect 83 0 75 0;
#X connect 84 0 59 0;
#X restore 702 52 pd TFHandHangsOX;
#X obj 437 183 loadbang;
#X obj 437 218 s ObdwellaXInit;
#N canvas 489 308 794 581 ObdwellaXMoves 0;
#X obj 69 41 r ObdwellaXMoves;
#X msg 69 226 /OX_Head/Rotate \$1;
#X obj 69 259 s OSC_MESSAGES;
#X obj 69 64 bng 15 250 50 0 empty empty empty 17 7 0 10 -262144 -1
-1;
#X obj 200 41 r ObdwellaXStopsMoving;
#X msg 200 68 stop;
#X obj 69 85 metro 4000;
#X obj 69 122 random 10;
#X obj 69 201 line;
#X msg 69 178 \$1 500;
#X obj 69 151 - 8;
#N canvas 242 257 1091 517 OXKidnapped 0;
#X obj -262 9 r OXKidnapped;
#X obj -262 38 bng 15 250 50 0 empty empty empty 17 7 0 10 -262144
-1 -1;
#X obj 109 399 s OSC_MESSAGES;
#X obj -228 270 line;
#X msg -228 294 /HandJardin/Ypos \$1;
#X obj 109 234 line;
#X msg 109 275 /HandJardin/Xpos \$1;
#X msg 109 191 -7 100;
#X msg 289 284 /OX*/Xpos \$1;
#X msg 289 231 -18 100;
#X obj 109 70 bng 15 250 50 0 empty empty empty 17 7 0 10 -262144 -1
-1;
#X obj 289 259 line;
#X obj 289 182 delay 100;
#X obj -255 92 t b b;
#X obj -228 132 v /HandJardin/Rotate;
#X obj -228 343 line;
#X msg -255 326 90 300;
#X msg -228 382 /HandJardin/Rotate \$1;
#X obj -228 220 v /HandJardin/Ypos;
#X msg -255 253 4 300;
#X obj 289 109 v /OX_Body/Xpos;
#X obj 109 109 v /HandJardin/Xpos;
#X obj 39 53 delay 1000;
#X obj 28 170 delay 105;
#X msg 28 217 -6.5 50;
#X msg 289 356 /OX_Head/File /home/woii/2013_Sebkha-ChottGalootFormula_ThingFish/ThingFishVideoDecorum/ObdwellaX/data/odwellax_bobo.png
;
#X connect 0 0 1 0;
#X connect 1 0 13 0;
#X connect 1 0 22 0;
#X connect 3 0 4 0;
#X connect 4 0 2 0;
#X connect 5 0 6 0;
#X connect 6 0 2 0;
#X connect 7 0 5 0;
#X connect 8 0 2 0;
#X connect 9 0 11 0;
#X connect 10 0 7 0;
#X connect 10 0 12 0;
#X connect 10 0 23 0;
#X connect 11 0 8 0;
#X connect 12 0 9 0;
#X connect 12 0 25 0;
#X connect 13 0 16 0;
#X connect 13 0 19 0;
#X connect 13 1 14 0;
#X connect 13 1 18 0;
#X connect 13 1 20 0;
#X connect 13 1 21 0;
#X connect 14 0 15 0;
#X connect 15 0 17 0;
#X connect 16 0 15 0;
#X connect 17 0 2 0;
#X connect 18 0 3 0;
#X connect 19 0 3 0;
#X connect 20 0 11 0;
#X connect 21 0 5 0;
#X connect 22 0 10 0;
#X connect 23 0 24 0;
#X connect 24 0 5 0;
#X connect 25 0 2 0;
#X restore 512 47 pd OXKidnapped;
#N canvas 0 100 1440 800 OXBashedAndFucked 1;
#X obj -262 38 bng 15 250 50 0 empty empty empty 17 7 0 10 -262144
-1 -1;
#X obj 109 399 s OSC_MESSAGES;
#X obj -228 270 line;
#X obj 109 234 line;
#X msg 109 275 /HandJardin/Xpos \$1;
#X obj 109 70 bng 15 250 50 0 empty empty empty 17 7 0 10 -262144 -1
-1;
#X obj 568 259 line;
#X obj -255 92 t b b;
#X obj -228 132 v /HandJardin/Rotate;
#X obj -228 343 line;
#X msg -255 326 90 300;
#X obj -228 220 v /HandJardin/Ypos;
#X obj 109 109 v /HandJardin/Xpos;
#X msg -255 253 5 300;
#X msg 28 217 -7.5 50;
#X msg 109 191 -8.5 500;
#X obj 188 187 delay 50;
#X msg 188 217 -8.5 50;
#X obj 28 194 t b b;
#X msg 55 311 /HandJardin/Zpos -2.6;
#X obj 359 234 line;
#X obj 359 70 bng 15 250 50 0 empty empty empty 17 7 0 10 -262144 -1
-1;
#X msg 278 217 -7.5 50;
#X obj 438 187 delay 50;
#X obj 278 194 t b b;
#X msg 305 311 /HandCour/Zpos -2.6;
#X msg 359 275 /HandCour/Xpos \$1;
#X obj 359 109 v /HandCour/Xpos;
#X msg -228 294 /Hand*/Ypos \$1;
#X msg -228 382 /HandJardin/Rotate \$1;
#X msg -255 363 -90 300;
#X msg -228 402 /HandCour/Rotate \$1;
#X msg 438 217 -6.3 50;
#X msg 359 191 -6.3 500;
#X obj 28 170 delay 1000;
#X obj 278 170 delay 1000;
#X obj 568 135 delay 100;
#X msg 568 203 0.2;
#X msg 568 301 /OX_Head/Xscale \$1;
#X obj 653 179 delay 400;
#X msg 643 231 0.45 75;
#X obj -232 514 r OXFucked;
#X obj -262 9 r OXBashedAndFucked;
#X obj 758 236 delay 500;
#X obj 758 273 s OXFucked;
#X msg -151 557 -8 100;
#X msg -75 558 -6.8 100;
#X obj -214 700 delay 300;
#X obj -238 578 delay 200;
#X msg -140 665 -80 200;
#X msg -200 665 80 200;
#X obj -246 438 line;
#X obj 78 690 line;
#X msg 82 749 /OX_Head/Ypos \$1;
#X msg 211 753 /OX_Body/Ypos \$1;
#X obj 177 702 - 1.6;
#X msg 39 661 5.2;
#X obj -43 700 delay 25;
#X msg 14 697 12 200;
#X msg -210 735 100 50;
#X msg -150 735 -100 50;
#X msg -80 731 5.1 50;
#X msg -126 611 4.5 200;
#X obj 420 532 delay 300;
#X msg 492 564 0 400;
#X msg 651 563 -1.437 300;
#X msg 581 562 2.9 300;
#X msg 731 563 1.437 300;
#N canvas 485 100 850 796 ObdwellaXBodyFuck 0;
#X obj 234 572 send OSC_MESSAGES;
#X obj 114 499 list prepend;
#X obj 71 43 bng 15 250 50 0 empty empty empty 17 7 0 10 -262144 -1
-1;
#X obj 114 522 l2s /;
#X msg 114 132 File;
#X obj 234 539 list;
#X msg 114 109 Zpos;
#X msg 114 326 RenderOrder;
#X msg 114 369 Yscale;
#X msg 114 389 Xscale;
#X msg 114 409 Ypos;
#X msg 114 429 Xpos;
#X msg 114 225 Blue;
#X msg 114 184 Red;
#X msg 114 205 Green;
#X msg 114 305 modeAlpha;
#X msg 114 348 Shape;
#X msg 114 245 Rotate;
#X msg 114 284 Alpha;
#X msg 114 264 Activate;
#X obj 71 62 t b b b;
#X obj 56 115 t b b b;
#X obj 56 309 t b b b;
#X obj 56 352 t b b b;
#X obj 56 372 t b b b;
#X obj 56 392 t b b b;
#X obj 56 412 t b b b;
#X obj 17 331 t b b b;
#X obj 16 288 t b b b;
#X obj 56 267 t b b b;
#X obj 56 247 t b b b;
#X obj 56 228 t b b b;
#X obj 56 208 t b b b;
#X obj 56 188 t b b b;
#X obj 56 167 t b b b;
#X msg 255 245 0;
#X msg 255 284 1;
#X msg 255 184 1;
#X msg 114 449 ParentName;
#X msg 255 449 /Dummy;
#X msg 114 469 g*pos;
#X msg 255 469 0;
#X obj 56 432 t b b b;
#X obj 56 452 t b b b;
#X msg 255 205 1;
#X msg 255 225 1;
#X msg 255 326 -16;
#X msg 255 429 -7;
#X msg 183 79 /OX_Body;
#X obj 71 22 r ObdwellaXFuck;
#X msg 255 132 /home/woii/2013_Sebkha-ChottGalootFormula_ThingFish/ThingFishVideoDecorum/ObdwellaX/data/scene12_position1.png
;
#X msg 255 264 1;
#X msg 255 109 -3.1;
#X msg 255 369 1.75;
#X msg 255 389 2.5;
#X msg 295 172 /OX_Body/AddFile /home/woii/2013_Sebkha-ChottGalootFormula_ThingFish/ThingFishVideoDecorum/ObdwellaX/data/scene12_position2.png
;
#X msg 255 409 12;
#X connect 1 0 3 0;
#X connect 2 0 20 0;
#X connect 3 0 5 0;
#X connect 4 0 1 0;
#X connect 5 0 0 0;
#X connect 6 0 1 0;
#X connect 7 0 1 0;
#X connect 8 0 1 0;
#X connect 9 0 1 0;
#X connect 10 0 1 0;
#X connect 11 0 1 0;
#X connect 12 0 1 0;
#X connect 13 0 1 0;
#X connect 14 0 1 0;
#X connect 15 0 1 0;
#X connect 17 0 1 0;
#X connect 18 0 1 0;
#X connect 19 0 1 0;
#X connect 20 0 6 0;
#X connect 20 0 21 0;
#X connect 20 0 55 0;
#X connect 20 1 52 0;
#X connect 20 2 48 0;
#X connect 21 0 34 0;
#X connect 21 1 4 0;
#X connect 21 2 50 0;
#X connect 22 0 23 0;
#X connect 22 1 7 0;
#X connect 22 2 46 0;
#X connect 23 0 24 0;
#X connect 23 1 8 0;
#X connect 23 2 53 0;
#X connect 24 0 25 0;
#X connect 24 1 9 0;
#X connect 24 2 54 0;
#X connect 25 0 26 0;
#X connect 25 1 10 0;
#X connect 25 2 56 0;
#X connect 26 0 42 0;
#X connect 26 1 11 0;
#X connect 26 2 47 0;
#X connect 27 1 16 0;
#X connect 28 1 15 0;
#X connect 29 0 22 0;
#X connect 29 1 18 0;
#X connect 29 2 36 0;
#X connect 30 0 29 0;
#X connect 30 1 19 0;
#X connect 30 2 51 0;
#X connect 31 0 30 0;
#X connect 31 1 17 0;
#X connect 31 2 35 0;
#X connect 32 0 31 0;
#X connect 32 1 12 0;
#X connect 32 2 45 0;
#X connect 33 0 32 0;
#X connect 33 1 14 0;
#X connect 33 2 44 0;
#X connect 34 0 33 0;
#X connect 34 1 13 0;
#X connect 34 2 37 0;
#X connect 35 0 5 1;
#X connect 36 0 5 1;
#X connect 37 0 5 1;
#X connect 38 0 1 0;
#X connect 39 0 5 1;
#X connect 40 0 1 0;
#X connect 41 0 5 1;
#X connect 42 0 43 0;
#X connect 42 1 38 0;
#X connect 42 2 39 0;
#X connect 43 1 40 0;
#X connect 43 2 41 0;
#X connect 44 0 5 1;
#X connect 45 0 5 1;
#X connect 46 0 5 1;
#X connect 47 0 5 1;
#X connect 48 0 1 1;
#X connect 49 0 2 0;
#X connect 50 0 5 1;
#X connect 51 0 5 1;
#X connect 52 0 5 1;
#X connect 53 0 5 1;
#X connect 54 0 5 1;
#X connect 55 0 0 0;
#X connect 56 0 5 1;
#X restore 920 552 pd ObdwellaXBodyFuck;
#X obj 615 601 s ObdwellaXFuck;
#X obj 432 632 delay 500;
#X msg 611 637 /OX_Head/Activate 0;
#X msg 628 688 3;
#X msg 680 691 4;
#X obj 758 690 delay 50;
#X msg 432 668 5.9 200;
#X obj 516 661 bng 15 250 50 0 empty empty empty 17 7 0 10 -262144
-1 -1;
#X obj 910 622 r ObdwellaXStopsFucking;
#X msg 835 651 stop;
#X msg 607 724 /OX_Body/ShapeIndex \$1;
#X obj 527 681 metro 400;
#X connect 0 0 7 0;
#X connect 2 0 28 0;
#X connect 3 0 4 0;
#X connect 4 0 1 0;
#X connect 5 0 15 0;
#X connect 5 0 34 0;
#X connect 6 0 38 0;
#X connect 7 0 10 0;
#X connect 7 0 13 0;
#X connect 7 0 5 0;
#X connect 7 0 21 0;
#X connect 7 0 30 0;
#X connect 7 1 8 0;
#X connect 7 1 11 0;
#X connect 7 1 12 0;
#X connect 7 1 27 0;
#X connect 8 0 9 0;
#X connect 9 0 29 0;
#X connect 10 0 9 0;
#X connect 11 0 2 0;
#X connect 12 0 3 0;
#X connect 13 0 2 0;
#X connect 14 0 3 0;
#X connect 15 0 3 0;
#X connect 16 0 17 0;
#X connect 17 0 3 0;
#X connect 18 0 14 0;
#X connect 18 1 19 0;
#X connect 19 0 1 0;
#X connect 20 0 26 0;
#X connect 21 0 33 0;
#X connect 21 0 35 0;
#X connect 22 0 20 0;
#X connect 23 0 32 0;
#X connect 24 0 22 0;
#X connect 24 1 25 0;
#X connect 25 0 1 0;
#X connect 26 0 1 0;
#X connect 27 0 20 0;
#X connect 28 0 1 0;
#X connect 29 0 1 0;
#X connect 30 0 51 0;
#X connect 31 0 1 0;
#X connect 32 0 20 0;
#X connect 33 0 20 0;
#X connect 34 0 16 0;
#X connect 34 0 18 0;
#X connect 35 0 23 0;
#X connect 35 0 24 0;
#X connect 35 0 36 0;
#X connect 36 0 37 0;
#X connect 36 0 39 0;
#X connect 37 0 6 0;
#X connect 38 0 1 0;
#X connect 39 0 40 0;
#X connect 39 0 43 0;
#X connect 40 0 6 0;
#X connect 41 0 45 0;
#X connect 41 0 46 0;
#X connect 41 0 48 0;
#X connect 41 0 56 0;
#X connect 42 0 0 0;
#X connect 43 0 44 0;
#X connect 45 0 3 0;
#X connect 46 0 20 0;
#X connect 47 0 59 0;
#X connect 47 0 60 0;
#X connect 47 0 61 0;
#X connect 47 0 57 0;
#X connect 48 0 62 0;
#X connect 48 0 47 0;
#X connect 48 0 50 0;
#X connect 48 0 49 0;
#X connect 49 0 51 0;
#X connect 50 0 9 0;
#X connect 51 0 31 0;
#X connect 52 0 53 0;
#X connect 52 0 55 0;
#X connect 53 0 1 0;
#X connect 54 0 1 0;
#X connect 55 0 54 0;
#X connect 56 0 52 0;
#X connect 57 0 58 0;
#X connect 57 0 63 0;
#X connect 58 0 52 0;
#X connect 59 0 9 0;
#X connect 60 0 51 0;
#X connect 61 0 2 0;
#X connect 62 0 2 0;
#X connect 63 0 64 0;
#X connect 63 0 66 0;
#X connect 63 0 65 0;
#X connect 63 0 67 0;
#X connect 63 0 69 0;
#X connect 63 0 70 0;
#X connect 64 0 9 0;
#X connect 64 0 51 0;
#X connect 65 0 3 0;
#X connect 66 0 2 0;
#X connect 67 0 20 0;
#X connect 70 0 75 0;
#X connect 70 0 71 0;
#X connect 70 0 76 0;
#X connect 71 0 1 0;
#X connect 72 0 79 0;
#X connect 73 0 79 0;
#X connect 74 0 73 0;
#X connect 75 0 52 0;
#X connect 76 0 80 0;
#X connect 77 0 78 0;
#X connect 78 0 80 0;
#X connect 79 0 1 0;
#X connect 80 0 72 0;
#X connect 80 0 74 0;
#X restore 512 67 pd OXBashedAndFucked;
#X connect 0 0 3 0;
#X connect 1 0 2 0;
#X connect 3 0 6 0;
#X connect 4 0 5 0;
#X connect 5 0 6 0;
#X connect 6 0 7 0;
#X connect 7 0 10 0;
#X connect 8 0 1 0;
#X connect 9 0 8 0;
#X connect 10 0 9 0;
#X restore 699 90 pd ObdwellaXMoves;
#X connect 5 0 6 0;
