#N canvas 1 100 1425 800 10;
#X obj 35 -97 bng 100 250 50 0 MuddClubInitOpening MuddClubInitOpening
Init_Opening 0 -6 0 20 -262144 -258113 -1;
#X obj 1755 -157 tgl 100 0 TFSpeaks TFSpeaks TFSpeaks 0 -3 0 30 -228856
-1 -1 0 1;
#X obj 1755 -37 tgl 100 0 ObdwellaXMoves ObdwellaXMoves OXMoves 0 -3
0 30 -228856 -1 -1 0 1;
#X obj 1755 83 tgl 100 0 italianMoves italianMoves FZMoves 0 -3 0 30
-228856 -1 -1 0 1;
#X obj 195 -97 bng 100 250 50 0 MuddClubQRNArrives MuddClubQRNArrives
QRN_Arrives 0 -6 0 20 -262144 -258113 -1;
#X obj 595 -97 bng 100 250 50 0 MuddClubOrgy MuddClubOrgy Orgy 0 -6
0 20 -262144 -258113 -1;
#X text 11 -168 8 MUDD CLUB CONDUITE;
#X obj 209 52 hsl 200 50 0 200 0 0 MuddClubAutoDestructRatio MuddClubAutoDestructRatio
MuddClubAutoDestructRatio -2 -8 0 10 -262144 -1 -1 0 1;
#X obj 345 -97 bng 100 250 50 0 MuddClubChutes MuddClubChutes Chutes_&_Chretiens
0 -6 0 20 -262144 -258113 -1;
#X obj 755 -97 bng 100 250 50 0 MuddClubScrollToEconomicWorship MuddClubScrollToEconomicWorship
ScrollToMeek 0 -6 0 20 -262144 -258113 -1;
#N canvas 1 274 1425 800 OSCConduite 1;
#X obj 262 244 packOSC;
#X obj 83 261 s OSCConduite;
#X obj 262 96 r MuddClubInitOpening;
#X msg 262 127 send /Conduite \$1 MuddClubInitOpening;
#X obj 542 96 r MuddClubQRNArrives;
#X msg 542 127 send /Conduite \$1 MuddClubQRNArrives;
#X obj 852 96 r MuddClubChutes;
#X msg 852 127 send /Conduite \$1 MuddClubChutes;
#X obj 1072 96 r MuddClubOrgy;
#X msg 1072 127 send /Conduite \$1 MuddClubOrgy;
#X msg 342 227 send /Conduite \$1 MuddClubAutoDestructRatio;
#X obj 342 196 r MuddClubAutoDestructRatio;
#X msg 1082 227 send /Conduite \$1 MuddClubScrollToEconomicWorship
;
#X obj 1082 196 r MuddClubScrollToEconomicWorship;
#X connect 0 0 1 0;
#X connect 2 0 3 0;
#X connect 3 0 0 0;
#X connect 4 0 5 0;
#X connect 5 0 0 0;
#X connect 6 0 7 0;
#X connect 7 0 0 0;
#X connect 8 0 9 0;
#X connect 9 0 0 0;
#X connect 10 0 0 0;
#X connect 11 0 10 0;
#X connect 12 0 0 0;
#X connect 13 0 12 0;
#X restore 62 396 pd OSCConduite;
#X coords 0 800 1 799 0 0 0;
