#N canvas 1 100 1425 800 10;
#X obj 1755 -157 tgl 100 0 TFSpeaks TFSpeaks TFSpeaks 0 -3 0 30 -228856
-1 -1 0 1;
#X obj 195 -97 bng 100 250 50 0 TheMeekTFWelcome DjAndEPInitTheMeekTFWelcome
TheMeek_TF_Welcome 0 -6 0 20 -262144 -258113 -1;
#X obj 1755 -37 tgl 100 0 ObdwellaXMoves ObdwellaXMoves OXMoves 0 -3
0 30 -228856 -1 -1 0 1;
#X obj 1755 83 tgl 100 0 italianMoves italianMoves FZMoves 0 -3 0 30
-228856 -1 -1 0 1;
#X text 11 -168 9 THE MEEK SHALL INHERIT NOTHING CONDUITE;
#X obj 25 -97 bng 100 250 50 0 MuddClubScrollToEconomicWorship MuddClubScrollToEconomicWorship
ScrollToMeek 0 -6 0 20 -262144 -258113 -1;
#X obj 425 -97 bng 100 250 50 0 EconomicWorshipScrollToAlladinHotel
EconomicWorshipScrollToAlladinhotel ScrollToClowns 0 -6 0 20 -262144
-258113 -1;
#N canvas 1 272 1425 800 OSCConduite 1;
#X obj 262 244 packOSC;
#X obj 83 261 s OSCConduite;
#X obj 262 96 r TheMeekTFWelcome;
#X msg 262 127 send /Conduite \$1 TheMeekTFWelcome;
#X obj 542 96 r EconomicWorshipScrollToAlladinHotel;
#X msg 542 127 send /Conduite \$1 EconomicWorshipScrollToAlladinHotel
;
#X connect 0 0 1 0;
#X connect 2 0 3 0;
#X connect 3 0 0 0;
#X connect 4 0 5 0;
#X connect 5 0 0 0;
#X restore 72 406 pd OSCConduite;
#X coords 0 800 1 799 0 0 0;
