#N canvas 1 100 1425 796 10;
#X obj 1755 -161 tgl 100 0 TFSpeaks TFSpeaks TFSpeaks 0 -3 0 30 -228856
-1 -1 0 1;
#X obj 1755 -41 tgl 100 0 ObdwellaXMoves ObdwellaXMoves OXMoves 0 -3
0 30 -228856 -1 -1 0 1;
#X obj 1755 79 tgl 100 0 italianMoves italianMoves FZMoves 0 -3 0 30
-228856 -1 -1 0 1;
#X obj 25 -101 bng 100 250 50 0 EconomicWorshipScrollToAlladinHotel
EconomicWorshipScrollToAlladinhotel ScrollToClowns 0 -6 0 20 -262144
-258113 -1;
#X text 11 -172 10 CLOWNS ON VELVET CONDUITE;
#X obj 205 -101 bng 100 250 50 0 ClownsTFThassRight ClownsTFThassRight
Clowns_TF_Thass_Right 0 -6 0 20 -262144 -258113 -1;
#X obj 475 -101 bng 100 250 50 0 ClownsTFLesMeet ClownsTFLesMeet Clowns_TF_Les_Meet
0 -6 0 20 -262144 -258113 -1;
#N canvas -18 413 1425 796 OSCConduite 0;
#X obj 262 244 packOSC;
#X obj 83 261 s OSCConduite;
#X obj 262 96 r ClownsTFThassRight;
#X msg 262 127 send /Conduite \$1 ClownsTFThassRight;
#X msg 573 127 send /Conduite \$1 ClownsTFLesMeet;
#X obj 573 97 r ClownsTFLesMeet;
#X connect 0 0 1 0;
#X connect 2 0 3 0;
#X connect 3 0 0 0;
#X connect 4 0 0 0;
#X connect 5 0 4 0;
#X restore 82 412 pd OSCConduite;
#X coords 0 796 1 795 0 0 0;
