#N canvas 1 100 1425 796 10;
#X obj 1755 -161 tgl 100 0 TFSpeaks TFSpeaks TFSpeaks 0 -3 0 30 -228856
-1 -1 0 1;
#X obj 1755 -41 tgl 100 0 ObdwellaXMoves ObdwellaXMoves OXMoves 0 -3
0 30 -228856 -1 -1 0 1;
#X obj 1755 79 tgl 100 0 italianMoves italianMoves FZMoves 0 -3 0 30
-228856 -1 -1 0 1;
#X obj 25 -101 bng 100 250 50 0 HesSoGayBegins HesSoGayBegins HesSoGay_Begins
0 -6 0 20 -262144 -258113 -1;
#X obj 245 -101 bng 100 250 50 0 HesSoGayOpening HesSoGayOpening HesSoGayOpening
0 -6 0 20 -262144 -258113 -1;
#X text 11 -172 12 HE'S SO GAY CONDUITE;
#X obj 665 -101 tgl 100 0 BrownMosesMoonWalks BrownMosesMoonWalks BM_MoonWalks
0 -3 0 30 -228856 -1 -1 0 1;
#X obj 905 -101 tgl 100 0 MNOnStage MNOnStage MN_OnStage 0 -3 0 30
-228856 -1 -1 0 1;
#X obj 729 48 hsl 200 50 10000 500 0 0 MNTempoGroups MNTempoGroups
MN_Tempo_Groups -2 -8 0 10 -262144 -1 -1 0 1;
#X obj 729 118 hsl 200 50 1000 300 0 0 MNTempoMembres MNTempoMembres
MN_Tempo_Membres -2 -8 0 10 -262144 -1 -1 0 1;
#X obj 455 -101 bng 100 250 50 0 brownMosesComesInFromTheCeiling brownMosesComesInFromTheCeiling
BM_Comes 0 -6 0 20 -262144 -258113 -1;
#X obj 1105 -101 bng 100 250 50 0 HesSoGayClosing HesSoGayClosing HesSoGayClosing
0 -6 0 20 -262144 -258113 -1;
#N canvas 1 396 1425 796 OSCConduite 0;
#X obj 262 244 packOSC;
#X obj 83 261 s OSCConduite;
#X obj 262 96 r ClownsTFThassRight;
#X msg 262 127 send /Conduite \$1 ClownsTFThassRight;
#X msg 573 127 send /Conduite \$1 ClownsTFLesMeet;
#X obj 573 97 r ClownsTFLesMeet;
#X connect 0 0 1 0;
#X connect 2 0 3 0;
#X connect 3 0 0 0;
#X connect 4 0 0 0;
#X connect 5 0 4 0;
#X restore 92 422 pd OSCConduite;
#X coords 0 796 1 795 0 0 0;
