#N canvas 1 100 1425 796 10;
#X obj 1755 -161 tgl 100 0 TFSpeaks TFSpeaks TFSpeaks 0 -3 0 30 -228856
-1 -1 0 1;
#X obj 1755 -41 tgl 100 0 ObdwellaXMoves ObdwellaXMoves OXMoves 0 -3
0 30 -228856 -1 -1 0 1;
#X obj 1755 79 tgl 100 0 italianMoves italianMoves FZMoves 0 -3 0 30
-228856 -1 -1 0 1;
#X obj 25 -101 bng 100 250 50 0 HesSoGayBegins HesSoGayBegins HesSoGay_Begins
0 -6 0 20 -262144 -258113 -1;
#X obj 245 -101 bng 100 250 50 0 HesSoGayOpening HesSoGayOpening HesSoGayOpening
0 -6 0 20 -262144 -258113 -1;
#X text 11 -172 12 HE'S SO GAY CONDUITE;
#X obj 665 -101 tgl 100 0 BrownMosesMoonWalks BrownMosesMoonWalks BM_MoonWalks
0 -3 0 30 -228856 -1 -1 0 1;
#X obj 905 -101 tgl 100 0 MNOnStage MNOnStage MN_OnStage 0 -3 0 30
-228856 -1 -1 0 1;
#X obj 729 48 hsl 200 50 10000 500 0 0 MNTempoGroups MNTempoGroups
MN_Tempo_Groups -2 -8 0 10 -262144 -1 -1 0 1;
#X obj 729 118 hsl 200 50 1000 300 0 0 MNTempoMembres MNTempoMembres
MN_Tempo_Membres -2 -8 0 10 -262144 -1 -1 0 1;
#X obj 455 -101 bng 100 250 50 0 brownMosesComesInFromTheCeiling brownMosesComesInFromTheCeiling
BM_Comes 0 -6 0 20 -262144 -258113 -1;
#X obj 1105 -101 bng 100 250 50 0 HesSoGayClosing HesSoGayClosing HesSoGayClosing
0 -6 0 20 -262144 -258113 -1;
#N canvas 114 308 1425 346 OSCConduite 1;
#X obj 262 244 packOSC;
#X obj 83 261 s OSCConduite;
#X obj 262 96 r HesSoGayBegins;
#X msg 262 127 send /Conduite \$1 HesSoGayBegins;
#X obj 483 97 r HesSoGayOpening;
#X msg 483 127 send /Conduite \$1 HesSoGayOpening;
#X obj 713 97 r brownMosesComesInFromTheCeiling;
#X msg 713 127 send /Conduite \$1 brownMosesComesInFromTheCeiling;
#X obj 1033 97 r BrownMosesMoonWalks;
#X msg 1033 127 send /Conduite \$1 BrownMosesMoonWalks;
#X obj 1273 97 r MNOnStage;
#X msg 1273 127 send /Conduite \$1 MNOnStage;
#X obj 1454 97 r HesSoGayClosing;
#X msg 1454 127 send /Conduite \$1 HesSoGayClosing;
#X obj 1043 197 r MNTempoGroups;
#X msg 1043 228 send /Conduite \$1 MNTempoGroups;
#X obj 1043 267 r MNTempoMembres;
#X msg 1043 298 send /Conduite \$1 MNTempoMembres;
#X connect 0 0 1 0;
#X connect 2 0 3 0;
#X connect 3 0 0 0;
#X connect 4 0 5 0;
#X connect 5 0 0 0;
#X connect 6 0 7 0;
#X connect 7 0 0 0;
#X connect 8 0 9 0;
#X connect 9 0 0 0;
#X connect 10 0 11 0;
#X connect 11 0 0 0;
#X connect 12 0 13 0;
#X connect 13 0 0 0;
#X connect 14 0 15 0;
#X connect 15 0 0 0;
#X connect 16 0 17 0;
#X connect 17 0 0 0;
#X restore 92 422 pd OSCConduite;
#X coords 0 796 1 795 0 0 0;
