#N canvas 52 100 1425 796 10;
#X obj 1755 -161 tgl 100 0 TFSpeaks TFSpeaks TFSpeaks 0 -3 0 30 -228856
-1 -1 0 1;
#X obj 1755 -41 tgl 100 0 ObdwellaXMoves ObdwellaXMoves OXMoves 0 -3
0 30 -228856 -1 -1 0 1;
#X obj 1755 79 tgl 100 0 italianMoves italianMoves FZMoves 0 -3 0 30
-228856 -1 -1 0 1;
#X obj 25 -101 bng 100 250 50 0 CrabGrassBabyInit CrabGrassBabyInit
Init 0 -6 0 20 -262144 -258113 -1;
#X obj 155 -101 bng 100 250 50 0 CrabGrassBabySpeaks CrabGrassBabySpeaks
CrabGrassBaby_Speaks 0 -6 0 20 -262144 -258113 -1;
#X text 11 -172 15 CRAB GRASS BABY CONDUITE;
#X obj 415 -101 bng 100 250 50 0 CrabGrassBabyPoopedMyPants CrabGrassBabyPoopedMyPants
Pooped_My_Pants 0 -6 0 20 -262144 -258113 -1;
#X obj 625 -101 bng 100 250 50 0 CrabGrassBabyCockOnceInAWhile CrabGrassBabyCockOnceInAWhile
Cock_Once_In_A_While 0 -6 0 20 -262144 -258113 -1;
#X obj 895 -101 bng 100 250 50 0 CrabGrassBabyGagMeWithAVolvo CrabGrassBabyGagMeWithAVolvo
Gag_Me_With_A_Volvo 0 -6 0 20 -262144 -258113 -1;
#X obj 1155 -101 bng 100 250 50 0 CrabGrassBabyPecker CrabGrassBabyPecker
Pecker 0 -6 0 20 -262144 -258113 -1;
#X obj 1285 -101 bng 100 250 50 0 CrabGrassBabyThisBoy CrabGrassBabyThisBoy
This_Boy 0 -6 0 20 -262144 -258113 -1;
#X obj 1415 -101 bng 100 250 50 0 StickItOutInit StickItOutInit ScrollTo_Stick_It_Out
0 -6 0 20 -262144 -258113 -1;
#N canvas -35 251 1425 346 OSCConduite 0;
#X obj 262 244 packOSC;
#X obj 83 261 s OSCConduite;
#X obj 262 96 r CrabGrassBabyInit;
#X msg 262 127 send /Conduite \$1 CrabGrassBabyInit;
#X obj 483 97 r CrabGrassBabySpeaks;
#X msg 483 127 send /Conduite \$1 CrabGrassBabySpeaks;
#X obj 723 97 r CrabGrassBabyPoopedMyPants;
#X msg 723 127 send /Conduite \$1 CrabGrassBabyPoopedMyPants;
#X obj 1005 97 r CrabGrassBabyCockOnceInAWhile;
#X msg 1005 127 send /Conduite \$1 CrabGrassBabyCockOnceInAWhile;
#X obj 1305 97 r CrabGrassBabyGagMeWithAVolvo;
#X msg 1305 127 send /Conduite \$1 CrabGrassBabyGagMeWithAVolvo;
#X obj 1604 97 r CrabGrassBabyPecker;
#X msg 1604 127 send /Conduite \$1 CrabGrassBabyPecker;
#X obj 1853 97 r CrabGrassBabyThisBoy;
#X msg 1853 128 send /Conduite \$1 CrabGrassBabyThisBoy;
#X obj 2113 97 r StickItOutInit;
#X msg 2113 128 send /Conduite \$1 StickItOutInit;
#X connect 0 0 1 0;
#X connect 2 0 3 0;
#X connect 3 0 0 0;
#X connect 4 0 5 0;
#X connect 5 0 0 0;
#X connect 6 0 7 0;
#X connect 7 0 0 0;
#X connect 8 0 9 0;
#X connect 9 0 0 0;
#X connect 10 0 11 0;
#X connect 11 0 0 0;
#X connect 12 0 13 0;
#X connect 13 0 0 0;
#X connect 14 0 15 0;
#X connect 15 0 0 0;
#X connect 16 0 17 0;
#X connect 17 0 0 0;
#X restore 112 442 pd OSCConduite;
#X coords 0 796 1 795 0 0 0;
