#N canvas 5 100 1425 796 10;
#X obj 1755 -161 tgl 100 0 TFSpeaks TFSpeaks TFSpeaks 0 -3 0 30 -228856
-1 -1 0 1;
#X obj 1755 -41 tgl 100 0 ObdwellaXMoves ObdwellaXMoves OXMoves 0 -3
0 30 -228856 -1 -1 0 1;
#X obj 1755 79 tgl 100 0 italianMoves italianMoves FZMoves 0 -3 0 30
-228856 -1 -1 0 1;
#X obj 25 -101 bng 100 250 50 0 BriefcaseBoogieScrollToBrownMoses BriefcaseBoogieScrollToBrownMoses
ScrollTo_BrownMoses 0 -6 0 20 -262144 -258113 -1;
#X text 11 -172 19 BROWN MOSES CONDUITE;
#X obj 275 -101 bng 100 250 50 0 BrownMosesTerminated BrownMosesTerminated
BrownMoses_Terminated 0 -6 0 20 -262144 -258113 -1;
#N canvas 1 473 1425 346 OSCConduite 1;
#X obj 262 244 packOSC;
#X obj 83 261 s OSCConduite;
#X obj 262 97 r BrownMosesTerminated;
#X msg 262 127 send /Conduite \$1 BrownMosesTerminated;
#X connect 0 0 1 0;
#X connect 2 0 3 0;
#X connect 3 0 0 0;
#X restore 142 472 pd OSCConduite;
#X coords 0 796 1 795 0 0 0;
