#N canvas 191 209 1234 550 10;
#X obj 97 72 bng 15 250 50 0 empty empty empty 17 7 0 10 -262144 -1
-1;
#X obj 154 598 send OSC_MESSAGES;
#X msg 171 279 -4.02;
#X obj 171 459 line;
#X obj 154 306 line;
#X obj 356 104 delay 200;
#X msg 583 201 -3.026;
#X msg 774 203 -3.027;
#X msg 982 206 -3.028;
#X obj 583 233 line;
#X obj 774 237 line;
#X obj 982 239 line;
#X msg 982 121 -3.024 150;
#X msg 774 121 -3.023 150;
#X msg 583 121 -3.022 150;
#X obj 1077 121 t b b;
#X msg 1156 154 34;
#X msg 1090 151 300;
#X obj 477 525 line;
#X obj 477 554 mod 360;
#X obj 685 521 line;
#X obj 685 554 mod 360;
#X obj 1328 138 delay 150;
#X obj 1288 160 t b b;
#X obj 1288 231 random 200;
#X obj 1320 211 metro 1300;
#X msg 1402 162 stop;
#X obj 154 87 t b b b b;
#X msg 171 367 -0.744;
#X msg 1255 121 -1.14 150;
#X msg 477 495 -90;
#X msg 685 495 12.3 150;
#X msg 617 495 0 150;
#X obj 97 44 r openDoor3;
#X obj 205 191 s StopMovingDoor2;
#X obj 205 134 s AnnieInit;
#X msg 358 198 /DunjonDoor2/Child/[X-Y]pos 1;
#X msg 774 279 /DunjonDoor2Cadre/Zpos \$1;
#X msg 583 279 /DunjonDoor2/Zpos \$1;
#X msg 171 484 /DunjonDoor2Cadre/Ypos \$1;
#N canvas 0 100 1440 800 annieWalks 0;
#X obj 36 61 bng 15 250 50 0 empty empty empty 17 7 0 10 -262144 -1
-1;
#X floatatom 87 79 5 0 0 0 - - -;
#X obj 36 103 metro 500;
#X obj 139 142 / 2;
#X obj 36 83 t b b;
#X msg 271 86 stop;
#X obj 95 230 line;
#X obj 95 254 mod 360;
#X obj 192 120 delay 250;
#X obj 85 186 list;
#X obj 192 213 list;
#X obj 95 314 send OSC_MESSAGES;
#X obj 409 142 / 2;
#X obj 365 230 line;
#X obj 365 254 mod 360;
#X obj 462 120 delay 250;
#X obj 355 186 list;
#X obj 462 213 list;
#X floatatom 430 55 5 0 0 0 - - -;
#X msg 358 50 0;
#X obj 358 71 -;
#X msg 192 100 -34;
#X msg 63 143 34;
#X msg 333 143 -34;
#X msg 462 75 set \$1;
#X msg 462 100 34;
#X msg 358 95 set \$1;
#X obj 405 71 bng 15 250 50 0 empty empty empty 17 7 0 10 -262144 -1
-1;
#X obj 36 467 +;
#X msg 93 473 set \$1;
#X obj 271 424 random 10;
#X obj 271 397 metro 100;
#X obj 36 662 send OSC_MESSAGES;
#X obj 322 365 / 5;
#X obj 377 441 - 5;
#X obj 377 472 mod 360;
#X obj 90 388 bng 15 250 50 0 empty empty empty 17 7 0 10 -262144 -1
-1;
#X obj 271 450 / 500;
#X obj 467 471 mod 360;
#X obj 467 441 / 5;
#X obj 585 458 + 19.3;
#X floatatom 232 491 5 0 0 0 - - -;
#X obj 36 28 r annieWalks;
#X obj 87 55 r annieWalkingSpeed;
#X obj 271 30 r annieStopsWalking;
#X obj 430 26 r annieWalkingAngle;
#X obj 36 421 v /DunjonDoor2Cadre/Yscale;
#X msg 36 500 /DunjonDoor2Cadre/Yscale \$1;
#X msg 377 499 /DunjonDoor2/Rotate \$1;
#X msg 585 527 /Zombies_Annie_BrasFond/Rotate \$1;
#X msg 377 521 /Zombies_Annie_Bras/Rotate \$1;
#X msg 467 645 /DunjonDoor2Cadre/Rotate \$1;
#X msg 365 278 /Zombies_Annie_Jambe2/Rotate \$1;
#X msg 95 278 /Zombies_Annie_Jambe1/Rotate \$1;
#X connect 0 0 4 0;
#X connect 0 0 31 0;
#X connect 0 0 46 0;
#X connect 1 0 2 1;
#X connect 1 0 3 0;
#X connect 1 0 12 0;
#X connect 1 0 33 0;
#X connect 2 0 8 0;
#X connect 2 0 22 0;
#X connect 2 0 23 0;
#X connect 2 0 15 0;
#X connect 3 0 9 1;
#X connect 3 0 10 1;
#X connect 3 0 8 1;
#X connect 4 0 2 0;
#X connect 4 1 22 0;
#X connect 5 0 2 0;
#X connect 5 0 31 0;
#X connect 5 0 41 0;
#X connect 6 0 7 0;
#X connect 7 0 53 0;
#X connect 8 0 21 0;
#X connect 9 0 6 0;
#X connect 10 0 6 0;
#X connect 12 0 16 1;
#X connect 12 0 17 1;
#X connect 12 0 15 1;
#X connect 13 0 14 0;
#X connect 14 0 52 0;
#X connect 15 0 25 0;
#X connect 16 0 13 0;
#X connect 17 0 13 0;
#X connect 18 0 20 1;
#X connect 18 0 24 0;
#X connect 18 0 27 0;
#X connect 19 0 20 0;
#X connect 20 0 26 0;
#X connect 21 0 10 0;
#X connect 22 0 9 0;
#X connect 23 0 16 0;
#X connect 24 0 25 0;
#X connect 24 0 22 0;
#X connect 25 0 17 0;
#X connect 26 0 23 0;
#X connect 26 0 21 0;
#X connect 27 0 19 0;
#X connect 28 0 47 0;
#X connect 29 0 41 0;
#X connect 30 0 34 0;
#X connect 30 0 37 0;
#X connect 30 0 39 0;
#X connect 31 0 30 0;
#X connect 33 0 31 1;
#X connect 34 0 35 0;
#X connect 35 0 48 0;
#X connect 35 0 50 0;
#X connect 36 0 46 0;
#X connect 37 0 28 1;
#X connect 38 0 51 0;
#X connect 39 0 38 0;
#X connect 39 0 40 0;
#X connect 40 0 49 0;
#X connect 41 0 28 0;
#X connect 42 0 0 0;
#X connect 43 0 1 0;
#X connect 44 0 5 0;
#X connect 45 0 18 0;
#X connect 46 0 29 0;
#X connect 46 0 28 0;
#X connect 47 0 32 0;
#X connect 48 0 32 0;
#X connect 49 0 32 0;
#X connect 50 0 32 0;
#X connect 51 0 32 0;
#X connect 52 0 11 0;
#X connect 53 0 11 0;
#X restore 1068 471 pd annieWalks;
#N canvas 0 100 1440 800 annieWalksAround 1;
#X obj 221 196 *;
#X obj 132 82 bng 15 250 50 0 empty empty empty 17 7 0 10 -262144 -1
-1;
#X obj 165 291 list;
#X obj 165 352 line;
#X obj 132 108 t b b;
#X obj 95 369 sel 1;
#X obj 95 315 bng 15 250 50 0 empty empty empty 17 7 0 10 -262144 -1
-1;
#X obj 54 262 spigot;
#X msg 44 68 0;
#X msg 86 68 1;
#X obj 165 450 send OSC_MESSAGES;
#X floatatom 204 383 5 0 0 0 - - -;
#X floatatom 314 223 5 0 0 0 - - -;
#X obj 41 294 delay 5;
#X obj 206 325 print;
#X obj 218 248 + 100;
#X obj 353 360 <;
#X obj 132 132 random 16;
#X obj 163 196 - 8;
#X obj 314 171 v /DunjonDoor2Cadre/Xpos;
#X obj 229 105 r annieWalkingSpeed;
#X obj 233 39 r annieWalksAround;
#X obj 30 36 r annieStopsWalkingAround;
#X msg 165 411 /DunjonDoor2Cadre/Xpos \$1;
#X msg 353 546 /DunjonDoor2*/Flip \$1;
#X msg 353 566 /Zombies_Annie*/Flip \$1;
#X obj 490 407 sel 1;
#X msg 520 467 /DunjonDoor2/Xpos \$1;
#X msg 559 446 -0.177181;
#X msg 520 444 0.1;
#X connect 0 0 15 0;
#X connect 1 0 4 0;
#X connect 2 0 3 0;
#X connect 2 0 14 0;
#X connect 3 0 23 0;
#X connect 3 0 5 0;
#X connect 3 0 11 0;
#X connect 4 0 17 0;
#X connect 4 1 19 0;
#X connect 5 0 6 0;
#X connect 6 0 13 0;
#X connect 7 0 4 0;
#X connect 8 0 7 1;
#X connect 9 0 7 1;
#X connect 12 0 16 1;
#X connect 13 0 7 0;
#X connect 15 0 2 1;
#X connect 16 0 24 0;
#X connect 16 0 25 0;
#X connect 16 0 26 0;
#X connect 17 0 0 0;
#X connect 17 0 18 0;
#X connect 18 0 2 0;
#X connect 18 0 5 1;
#X connect 18 0 16 0;
#X connect 19 0 3 0;
#X connect 19 0 12 0;
#X connect 20 0 0 1;
#X connect 21 0 1 0;
#X connect 21 0 9 0;
#X connect 22 0 8 0;
#X connect 23 0 10 0;
#X connect 24 0 10 0;
#X connect 25 0 10 0;
#X connect 26 0 29 0;
#X connect 26 1 28 0;
#X connect 27 0 10 0;
#X connect 28 0 27 0;
#X connect 29 0 27 0;
#X restore 1050 529 pd annieWalksAround;
#X msg 358 218 /Zombies_Annie*/Child/[X-Y]pos 1;
#X msg 358 308 /DunjonDoor2/ParentName /DunjonDoor2Cadre;
#X msg 358 328 /Zombies_Annie*/ParentName /DunjonDoor2Cadre;
#X obj 1090 181 s annieWalkingSpeed;
#X obj 1077 237 s annieWalks;
#X obj 1156 211 s annieWalkingAngle;
#X obj 1326 185 s annieWalksAround;
#X msg 154 336 /DunjonDoor2Cadre/Xpos \$1;
#X obj 154 222 s annieActivate;
#X msg 982 279 /Zombies_Annie_Bras/Zpos \$1;
#X msg 981 306 /Zombies_Annie_BrasFond/Zpos \$1;
#X msg 1198 278 /Zombies_Annie_Jambe1/Zpos \$1;
#X msg 1198 304 /Zombies_Annie_Jambe2/Zpos \$1;
#X msg 477 581 /Zombies_Annie_Bras/Rotate \$1;
#X msg 685 581 /Zombies_Annie_BrasFond/Rotate \$1;
#X obj 1288 255 + 100;
#X connect 0 0 27 0;
#X connect 2 0 4 0;
#X connect 3 0 39 0;
#X connect 4 0 49 0;
#X connect 5 0 12 0;
#X connect 5 0 13 0;
#X connect 5 0 14 0;
#X connect 5 0 15 0;
#X connect 5 0 29 0;
#X connect 6 0 9 0;
#X connect 7 0 10 0;
#X connect 8 0 11 0;
#X connect 9 0 38 0;
#X connect 9 0 52 0;
#X connect 10 0 37 0;
#X connect 11 0 51 0;
#X connect 11 0 53 0;
#X connect 11 0 54 0;
#X connect 12 0 11 0;
#X connect 13 0 10 0;
#X connect 14 0 9 0;
#X connect 15 0 31 0;
#X connect 15 0 32 0;
#X connect 15 0 46 0;
#X connect 15 1 16 0;
#X connect 15 1 17 0;
#X connect 15 1 22 0;
#X connect 16 0 47 0;
#X connect 17 0 45 0;
#X connect 18 0 19 0;
#X connect 19 0 55 0;
#X connect 20 0 21 0;
#X connect 21 0 56 0;
#X connect 22 0 23 0;
#X connect 23 0 25 0;
#X connect 23 1 48 0;
#X connect 24 0 57 0;
#X connect 25 0 24 0;
#X connect 26 0 25 1;
#X connect 27 0 5 0;
#X connect 27 0 50 0;
#X connect 27 1 28 0;
#X connect 27 1 2 0;
#X connect 27 2 6 0;
#X connect 27 2 7 0;
#X connect 27 2 8 0;
#X connect 27 2 30 0;
#X connect 27 2 36 0;
#X connect 27 2 42 0;
#X connect 27 2 43 0;
#X connect 27 2 44 0;
#X connect 27 3 34 0;
#X connect 27 3 35 0;
#X connect 28 0 3 0;
#X connect 29 0 3 0;
#X connect 30 0 18 0;
#X connect 30 0 20 0;
#X connect 31 0 20 0;
#X connect 32 0 18 0;
#X connect 33 0 0 0;
#X connect 36 0 1 0;
#X connect 37 0 1 0;
#X connect 38 0 1 0;
#X connect 39 0 1 0;
#X connect 42 0 1 0;
#X connect 43 0 1 0;
#X connect 44 0 1 0;
#X connect 49 0 1 0;
#X connect 51 0 1 0;
#X connect 52 0 1 0;
#X connect 53 0 1 0;
#X connect 54 0 1 0;
#X connect 55 0 1 0;
#X connect 56 0 1 0;
#X connect 57 0 45 0;
