#N canvas 21 100 1398 764 10;
#X obj 107 82 bng 15 250 50 0 empty empty empty 17 7 0 10 -262144 -1
-1;
#X obj 164 608 send OSC_MESSAGES;
#X msg 181 289 -4.02;
#X obj 181 469 line;
#X obj 164 316 line;
#X obj 366 114 delay 200;
#X msg 784 213 -3.027;
#X obj 593 243 line;
#X obj 784 247 line;
#X obj 992 249 line;
#X msg 784 131 -3.023 150;
#X obj 1087 131 t b b;
#X msg 1166 164 34;
#X msg 1100 161 300;
#X obj 487 535 line;
#X obj 487 564 mod 360;
#X obj 1338 148 delay 150;
#X obj 1298 170 t b b;
#X obj 1298 241 random 200;
#X obj 1330 221 metro 1300;
#X msg 1412 172 stop;
#X obj 164 97 t b b b b;
#X msg 181 377 -0.744;
#X msg 1265 131 -1.14 150;
#X msg 487 505 -90;
#X msg 627 505 0 150;
#X obj 1298 265 + 100;
#X obj 107 54 r openDoor4;
#X obj 215 144 s ChienInit;
#X obj 164 232 s chienActivate;
#X obj 215 201 s StopMovingDoor3;
#X msg 368 208 /DunjonDoor3/Child/[X-Y]pos 1;
#X msg 368 228 /Zombies_Chien*/Child/[X-Y]pos 1;
#X msg 164 346 /DunjonDoor3Cadre/Xpos \$1;
#X msg 181 494 /DunjonDoor3Cadre/Ypos \$1;
#X msg 593 289 /DunjonDoor3/Zpos \$1;
#X msg 784 289 /DunjonDoor3Cadre/Zpos \$1;
#X msg 1208 288 /Zombies_Chien_PatteArriere1/Zpos \$1;
#X obj 1087 247 s chienWalks;
#X obj 1100 191 s chienWalkingSpeed;
#X obj 1166 221 s chienWalkingAngle;
#X obj 1336 195 s chienWalksAround;
#N canvas 0 100 1440 800 chienWalks 0;
#X obj 36 61 bng 15 250 50 0 empty empty empty 17 7 0 10 -262144 -1
-1;
#X floatatom 87 79 5 0 0 0 - - -;
#X obj 36 103 metro 500;
#X obj 139 142 / 2;
#X obj 36 83 t b b;
#X msg 271 86 stop;
#X obj 95 230 line;
#X obj 95 254 mod 360;
#X obj 192 120 delay 250;
#X obj 85 186 list;
#X obj 192 213 list;
#X obj 95 314 send OSC_MESSAGES;
#X obj 409 142 / 2;
#X obj 365 230 line;
#X obj 365 254 mod 360;
#X obj 462 120 delay 250;
#X obj 355 186 list;
#X obj 462 213 list;
#X floatatom 430 55 5 0 0 0 - - -;
#X msg 358 50 0;
#X obj 358 71 -;
#X msg 192 100 -34;
#X msg 63 143 34;
#X msg 333 143 -34;
#X msg 462 75 set \$1;
#X msg 462 100 34;
#X msg 358 95 set \$1;
#X obj 405 71 bng 15 250 50 0 empty empty empty 17 7 0 10 -262144 -1
-1;
#X obj 36 467 +;
#X msg 93 473 set \$1;
#X obj 271 424 random 10;
#X obj 271 397 metro 100;
#X obj 36 662 send OSC_MESSAGES;
#X obj 322 365 / 5;
#X obj 377 441 - 5;
#X obj 377 472 mod 360;
#X obj 90 388 bng 15 250 50 0 empty empty empty 17 7 0 10 -262144 -1
-1;
#X obj 271 450 / 500;
#X obj 467 471 mod 360;
#X obj 467 441 / 5;
#X floatatom 232 491 5 0 0 0 - - -;
#X obj 36 28 r chienWalks;
#X obj 87 55 r chienWalkingSpeed;
#X obj 271 30 r chienStopsWalking;
#X obj 430 26 r chienWalkingAngle;
#X obj 36 421 v /DunjonDoor3Cadre/Yscale;
#X msg 36 500 /DunjonDoor3Cadre/Yscale \$1;
#X msg 467 645 /DunjonDoor3Cadre/Rotate \$1;
#X msg 377 499 /DunjonDoor3/Rotate \$1;
#X msg 95 278 /Zombies_Chien_PatteAvant1/Rotate \$1;
#X msg 365 278 /Zombies_Chien_PatteArriere1/Rotate \$1;
#X connect 0 0 4 0;
#X connect 0 0 31 0;
#X connect 0 0 45 0;
#X connect 1 0 2 1;
#X connect 1 0 3 0;
#X connect 1 0 12 0;
#X connect 1 0 33 0;
#X connect 2 0 8 0;
#X connect 2 0 22 0;
#X connect 2 0 23 0;
#X connect 2 0 15 0;
#X connect 3 0 9 1;
#X connect 3 0 10 1;
#X connect 3 0 8 1;
#X connect 4 0 2 0;
#X connect 4 1 22 0;
#X connect 5 0 2 0;
#X connect 5 0 31 0;
#X connect 5 0 40 0;
#X connect 6 0 7 0;
#X connect 7 0 49 0;
#X connect 8 0 21 0;
#X connect 9 0 6 0;
#X connect 10 0 6 0;
#X connect 12 0 16 1;
#X connect 12 0 17 1;
#X connect 12 0 15 1;
#X connect 13 0 14 0;
#X connect 14 0 50 0;
#X connect 15 0 25 0;
#X connect 16 0 13 0;
#X connect 17 0 13 0;
#X connect 18 0 20 1;
#X connect 18 0 24 0;
#X connect 18 0 27 0;
#X connect 19 0 20 0;
#X connect 20 0 26 0;
#X connect 21 0 10 0;
#X connect 22 0 9 0;
#X connect 23 0 16 0;
#X connect 24 0 25 0;
#X connect 24 0 22 0;
#X connect 25 0 17 0;
#X connect 26 0 23 0;
#X connect 26 0 21 0;
#X connect 27 0 19 0;
#X connect 28 0 46 0;
#X connect 29 0 40 0;
#X connect 30 0 34 0;
#X connect 30 0 37 0;
#X connect 30 0 39 0;
#X connect 31 0 30 0;
#X connect 33 0 31 1;
#X connect 34 0 35 0;
#X connect 35 0 48 0;
#X connect 36 0 45 0;
#X connect 37 0 28 1;
#X connect 38 0 47 0;
#X connect 39 0 38 0;
#X connect 40 0 28 0;
#X connect 41 0 0 0;
#X connect 42 0 1 0;
#X connect 43 0 5 0;
#X connect 44 0 18 0;
#X connect 45 0 29 0;
#X connect 45 0 28 0;
#X connect 46 0 32 0;
#X connect 47 0 32 0;
#X connect 48 0 32 0;
#X connect 49 0 11 0;
#X connect 50 0 11 0;
#X restore 1078 481 pd chienWalks;
#N canvas 0 100 1440 800 chienWalksAround 1;
#X obj 221 196 *;
#X obj 132 82 bng 15 250 50 0 empty empty empty 17 7 0 10 -262144 -1
-1;
#X obj 165 291 list;
#X obj 165 352 line;
#X obj 132 108 t b b;
#X obj 95 369 sel 1;
#X obj 95 315 bng 15 250 50 0 empty empty empty 17 7 0 10 -262144 -1
-1;
#X obj 54 262 spigot;
#X msg 44 68 0;
#X msg 86 68 1;
#X obj 165 450 send OSC_MESSAGES;
#X floatatom 204 383 5 0 0 0 - - -;
#X floatatom 314 223 5 0 0 0 - - -;
#X obj 41 294 delay 5;
#X obj 206 325 print;
#X obj 218 248 + 100;
#X obj 353 360 <;
#X obj 132 132 random 16;
#X obj 163 196 - 8;
#X obj 30 36 r chienStopsWalkingAround;
#X obj 233 39 r chienWalksAround;
#X obj 229 105 r chienWalkingSpeed;
#X obj 314 171 v /DunjonDoor3Cadre/Xpos;
#X msg 165 411 /DunjonDoor3Cadre/Xpos \$1;
#X msg 353 546 /DunjonDoor3*/Flip \$1;
#X msg 353 566 /Zombies_Chien*/Flip \$1;
#X obj 484 377 sel 1;
#X msg 558 450 -0.555705;
#X msg 646 450 0.555705;
#X msg 558 475 /Zombies_Chien_PatteArriere1/Xpos \$1;
#X msg 797 475 /DunjonDoor3/Xpos \$1;
#X msg 797 450 -0.835369;
#X msg 881 450 0.835369;
#X connect 0 0 15 0;
#X connect 1 0 4 0;
#X connect 2 0 3 0;
#X connect 2 0 14 0;
#X connect 3 0 23 0;
#X connect 3 0 5 0;
#X connect 3 0 11 0;
#X connect 4 0 17 0;
#X connect 4 1 22 0;
#X connect 5 0 6 0;
#X connect 6 0 13 0;
#X connect 7 0 4 0;
#X connect 8 0 7 1;
#X connect 9 0 7 1;
#X connect 12 0 16 1;
#X connect 13 0 7 0;
#X connect 15 0 2 1;
#X connect 16 0 24 0;
#X connect 16 0 25 0;
#X connect 16 0 26 0;
#X connect 17 0 0 0;
#X connect 17 0 18 0;
#X connect 18 0 2 0;
#X connect 18 0 5 1;
#X connect 18 0 16 0;
#X connect 19 0 8 0;
#X connect 20 0 1 0;
#X connect 20 0 9 0;
#X connect 21 0 0 1;
#X connect 22 0 3 0;
#X connect 22 0 12 0;
#X connect 23 0 10 0;
#X connect 24 0 10 0;
#X connect 25 0 10 0;
#X connect 26 0 32 0;
#X connect 26 0 28 0;
#X connect 26 1 31 0;
#X connect 26 1 27 0;
#X connect 27 0 29 0;
#X connect 28 0 29 0;
#X connect 29 0 10 0;
#X connect 30 0 10 0;
#X connect 31 0 30 0;
#X connect 32 0 30 0;
#X restore 1060 539 pd chienWalksAround;
#X msg 1208 314 /Zombies_Chien_PatteAvant1/Zpos \$1;
#X msg 368 318 /DunjonDoor3/ParentName /DunjonDoor3Cadre;
#X msg 368 338 /Zombies_Chien*/ParentName /DunjonDoor3Cadre;
#X msg 992 131 -3.022 150;
#X msg 992 216 -3.026;
#X msg 593 211 -3.028;
#X msg 593 131 -3.024 150;
#X msg 487 591 /DunjonDoor3/Rotate \$1;
#X connect 0 0 21 0;
#X connect 2 0 4 0;
#X connect 3 0 34 0;
#X connect 4 0 33 0;
#X connect 5 0 47 0;
#X connect 5 0 10 0;
#X connect 5 0 50 0;
#X connect 5 0 11 0;
#X connect 5 0 23 0;
#X connect 6 0 8 0;
#X connect 7 0 35 0;
#X connect 8 0 36 0;
#X connect 9 0 37 0;
#X connect 9 0 44 0;
#X connect 10 0 8 0;
#X connect 11 0 25 0;
#X connect 11 0 38 0;
#X connect 11 1 12 0;
#X connect 11 1 13 0;
#X connect 11 1 16 0;
#X connect 12 0 40 0;
#X connect 13 0 39 0;
#X connect 14 0 15 0;
#X connect 15 0 51 0;
#X connect 16 0 17 0;
#X connect 17 0 19 0;
#X connect 17 1 41 0;
#X connect 18 0 26 0;
#X connect 19 0 18 0;
#X connect 20 0 19 1;
#X connect 21 0 5 0;
#X connect 21 0 29 0;
#X connect 21 1 22 0;
#X connect 21 1 2 0;
#X connect 21 2 49 0;
#X connect 21 2 6 0;
#X connect 21 2 48 0;
#X connect 21 2 24 0;
#X connect 21 2 31 0;
#X connect 21 2 32 0;
#X connect 21 2 45 0;
#X connect 21 2 46 0;
#X connect 21 3 28 0;
#X connect 21 3 30 0;
#X connect 22 0 3 0;
#X connect 23 0 3 0;
#X connect 24 0 14 0;
#X connect 25 0 14 0;
#X connect 26 0 39 0;
#X connect 27 0 0 0;
#X connect 31 0 1 0;
#X connect 32 0 1 0;
#X connect 33 0 1 0;
#X connect 34 0 1 0;
#X connect 35 0 1 0;
#X connect 36 0 1 0;
#X connect 37 0 1 0;
#X connect 44 0 1 0;
#X connect 45 0 1 0;
#X connect 46 0 1 0;
#X connect 47 0 9 0;
#X connect 48 0 9 0;
#X connect 49 0 7 0;
#X connect 50 0 7 0;
#X connect 51 0 1 0;
