#N canvas 42 100 1377 719 10;
#X obj 87 62 bng 15 250 50 0 empty empty empty 17 7 0 10 -262144 -1
-1;
#X obj 144 588 send OSC_MESSAGES;
#X msg 161 269 -4.02;
#X obj 161 449 line;
#X obj 144 296 line;
#X obj 346 94 delay 200;
#X msg 573 191 -3.026;
#X msg 764 193 -3.027;
#X msg 972 196 -3.028;
#X obj 573 223 line;
#X obj 764 227 line;
#X obj 972 229 line;
#X msg 972 111 -3.024 150;
#X msg 764 111 -3.023 150;
#X msg 573 111 -3.022 150;
#X obj 1067 111 t b b;
#X msg 1146 144 34;
#X msg 1080 141 300;
#X obj 467 515 line;
#X obj 467 544 mod 360;
#X obj 675 511 line;
#X obj 675 544 mod 360;
#X obj 1318 128 delay 150;
#X obj 1278 150 t b b;
#X obj 1278 221 random 200;
#X obj 1310 201 metro 1300;
#X msg 1392 152 stop;
#X obj 144 77 t b b b b;
#X msg 161 357 -0.744;
#X msg 1245 111 -1.14 150;
#X obj 195 124 s CowboyInit;
#X obj 144 212 s cowboyActivate;
#X obj 87 34 r openDoor2;
#X msg 144 326 /DunjonDoor1Cadre/Xpos \$1;
#X msg 161 474 /DunjonDoor1Cadre/Ypos \$1;
#X msg 764 269 /DunjonDoor1Cadre/Zpos \$1;
#X msg 573 269 /DunjonDoor1/Zpos \$1;
#X msg 348 188 /DunjonDoor1/Child/[X-Y]pos 1;
#X msg 348 208 /EvilPrince_Bulle*/Child/[X-Y]pos 1;
#X msg 348 228 /Assiette_Bush/Child/[X-Y]pos 1;
#X msg 348 318 /EvilPrince_Bulle*/ParentName /DunjonDoor1Cadre;
#X msg 348 298 /DunjonDoor1/ParentName /DunjonDoor1Cadre;
#X msg 348 338 /Assiette_Bush/ParentName /DunjonDoor1Cadre;
#X msg 972 269 /EvilPrince_BullePotium/Zpos \$1;
#X msg 971 296 /Assiette_Bush/Zpos \$1;
#X msg 1188 268 /EvilPrince_Bulle/Zpos \$1;
#X msg 1188 294 /EvilPrince_BulleContent/Zpos \$1;
#X msg 467 571 /EvilPrince_BullePotium/Rotate \$1;
#X msg 675 571 /Assiette_Bush/Rotate \$1;
#X msg 467 485 -90;
#X obj 1278 245 + 400;
#X obj 1080 171 s cowboyWalkingSpeed;
#X obj 1146 201 s cowboyWalkingAngle;
#X obj 1067 227 s cowboyWalks;
#N canvas 0 100 1440 800 cowboyWalks 0;
#X obj 36 61 bng 15 250 50 0 empty empty empty 17 7 0 10 -262144 -1
-1;
#X floatatom 87 79 5 0 0 0 - - -;
#X obj 36 103 metro 500;
#X obj 139 142 / 2;
#X obj 36 83 t b b;
#X msg 271 86 stop;
#X obj 95 230 line;
#X obj 95 254 mod 360;
#X obj 192 120 delay 250;
#X obj 85 186 list;
#X obj 192 213 list;
#X obj 95 314 send OSC_MESSAGES;
#X obj 409 142 / 2;
#X obj 365 230 line;
#X obj 365 254 mod 360;
#X obj 462 120 delay 250;
#X obj 355 186 list;
#X obj 462 213 list;
#X floatatom 430 55 5 0 0 0 - - -;
#X msg 358 50 0;
#X obj 358 71 -;
#X msg 192 100 -34;
#X msg 63 143 34;
#X msg 333 143 -34;
#X msg 462 75 set \$1;
#X msg 462 100 34;
#X msg 358 95 set \$1;
#X obj 405 71 bng 15 250 50 0 empty empty empty 17 7 0 10 -262144 -1
-1;
#X obj 36 467 +;
#X msg 93 473 set \$1;
#X obj 271 424 random 10;
#X obj 271 397 metro 100;
#X obj 36 662 send OSC_MESSAGES;
#X obj 322 365 / 5;
#X obj 377 441 - 5;
#X obj 377 472 mod 360;
#X obj 90 388 bng 15 250 50 0 empty empty empty 17 7 0 10 -262144 -1
-1;
#X obj 271 450 / 500;
#X obj 467 471 mod 360;
#X obj 467 441 / 5;
#X obj 585 458 + 19.3;
#X floatatom 232 491 5 0 0 0 - - -;
#X obj 36 28 r cowboyWalks;
#X obj 87 55 r cowboyWalkingSpeed;
#X obj 271 30 r cowboyStopsWalking;
#X obj 430 26 r cowboyWalkingAngle;
#X msg 95 278 /EvilPrince_Bulle/Rotate \$1;
#X msg 365 278 /EvilPrince_BulleContent/Rotate \$1;
#X obj 36 421 v /DunjonDoor1Cadre/Yscale;
#X msg 467 645 /DunjonDoor1Cadre/Rotate \$1;
#X msg 377 499 /DunjonDoor1/Rotate \$1;
#X msg 377 521 /EvilPrince_BullePotium/Rotate \$1;
#X msg 585 527 /Assiette_Bush/Rotate \$1;
#X msg 1077 494 /EvilPrince_Bulle/Yscale \$1;
#X msg 1077 514 /EvilPrince_BulleContent/Yscale \$1;
#X msg 1077 534 /EvilPrince_BullePotium/Yscale \$1;
#X msg 1077 554 /Assiette_Bush/Yscale \$1;
#X msg 36 500 /DunjonDoor1Cadre/Yscale \$1;
#X connect 0 0 4 0;
#X connect 0 0 31 0;
#X connect 0 0 48 0;
#X connect 1 0 2 1;
#X connect 1 0 3 0;
#X connect 1 0 12 0;
#X connect 1 0 33 0;
#X connect 2 0 8 0;
#X connect 2 0 22 0;
#X connect 2 0 23 0;
#X connect 2 0 15 0;
#X connect 3 0 9 1;
#X connect 3 0 10 1;
#X connect 3 0 8 1;
#X connect 4 0 2 0;
#X connect 4 1 22 0;
#X connect 5 0 2 0;
#X connect 5 0 31 0;
#X connect 5 0 41 0;
#X connect 6 0 7 0;
#X connect 7 0 46 0;
#X connect 8 0 21 0;
#X connect 9 0 6 0;
#X connect 10 0 6 0;
#X connect 12 0 16 1;
#X connect 12 0 17 1;
#X connect 12 0 15 1;
#X connect 13 0 14 0;
#X connect 14 0 47 0;
#X connect 15 0 25 0;
#X connect 16 0 13 0;
#X connect 17 0 13 0;
#X connect 18 0 20 1;
#X connect 18 0 24 0;
#X connect 18 0 27 0;
#X connect 19 0 20 0;
#X connect 20 0 26 0;
#X connect 21 0 10 0;
#X connect 22 0 9 0;
#X connect 23 0 16 0;
#X connect 24 0 25 0;
#X connect 24 0 22 0;
#X connect 25 0 17 0;
#X connect 26 0 23 0;
#X connect 26 0 21 0;
#X connect 27 0 19 0;
#X connect 28 0 57 0;
#X connect 29 0 41 0;
#X connect 30 0 34 0;
#X connect 30 0 37 0;
#X connect 30 0 39 0;
#X connect 31 0 30 0;
#X connect 33 0 31 1;
#X connect 34 0 35 0;
#X connect 35 0 50 0;
#X connect 35 0 51 0;
#X connect 36 0 48 0;
#X connect 37 0 28 1;
#X connect 38 0 49 0;
#X connect 39 0 38 0;
#X connect 39 0 40 0;
#X connect 40 0 52 0;
#X connect 41 0 28 0;
#X connect 42 0 0 0;
#X connect 43 0 1 0;
#X connect 44 0 5 0;
#X connect 45 0 18 0;
#X connect 46 0 11 0;
#X connect 47 0 11 0;
#X connect 48 0 29 0;
#X connect 48 0 28 0;
#X connect 49 0 32 0;
#X connect 50 0 32 0;
#X connect 51 0 32 0;
#X connect 52 0 32 0;
#X connect 57 0 32 0;
#X restore 1058 461 pd cowboyWalks;
#N canvas 0 100 1440 800 cowboyWalksAround 1;
#X obj 221 196 *;
#X obj 132 82 bng 15 250 50 0 empty empty empty 17 7 0 10 -262144 -1
-1;
#X obj 165 291 list;
#X obj 165 352 line;
#X obj 132 108 t b b;
#X obj 95 369 sel 1;
#X obj 95 315 bng 15 250 50 0 empty empty empty 17 7 0 10 -262144 -1
-1;
#X obj 54 262 spigot;
#X msg 44 68 0;
#X msg 86 68 1;
#X obj 165 450 send OSC_MESSAGES;
#X floatatom 204 383 5 0 0 0 - - -;
#X floatatom 314 223 5 0 0 0 - - -;
#X obj 41 294 delay 5;
#X obj 218 248 + 100;
#X obj 353 360 <;
#X obj 132 132 random 16;
#X obj 163 196 - 8;
#X obj 30 36 r cowboyStopsWalkingAround;
#X obj 233 39 r cowboyWalksAround;
#X obj 229 105 r cowboyWalkingSpeed;
#X obj 314 171 v /DunjonDoor1Cadre/Xpos;
#X msg 353 546 /DunjonDoor1*/Flip \$1;
#X msg 353 566 /EvilPrince_Bulle*/Flip \$1;
#X msg 353 586 /Assiette_Bush/Flip \$1;
#X msg 165 411 /DunjonDoor1Cadre/Xpos \$1;
#X connect 0 0 14 0;
#X connect 1 0 4 0;
#X connect 2 0 3 0;
#X connect 3 0 25 0;
#X connect 3 0 5 0;
#X connect 3 0 11 0;
#X connect 4 0 16 0;
#X connect 4 1 21 0;
#X connect 5 0 6 0;
#X connect 6 0 13 0;
#X connect 7 0 4 0;
#X connect 8 0 7 1;
#X connect 9 0 7 1;
#X connect 12 0 15 1;
#X connect 13 0 7 0;
#X connect 14 0 2 1;
#X connect 15 0 22 0;
#X connect 15 0 23 0;
#X connect 15 0 24 0;
#X connect 16 0 0 0;
#X connect 16 0 17 0;
#X connect 17 0 2 0;
#X connect 17 0 5 1;
#X connect 17 0 15 0;
#X connect 18 0 8 0;
#X connect 19 0 1 0;
#X connect 19 0 9 0;
#X connect 20 0 0 1;
#X connect 21 0 3 0;
#X connect 21 0 12 0;
#X connect 22 0 10 0;
#X connect 23 0 10 0;
#X connect 24 0 10 0;
#X connect 25 0 10 0;
#X restore 1040 519 pd cowboyWalksAround;
#X obj 1316 175 s cowboyWalksAround;
#X msg 675 485 12.3 150;
#X msg 607 485 0 150;
#X obj 195 181 s StopMovingDoor1;
#X connect 0 0 27 0;
#X connect 2 0 4 0;
#X connect 3 0 34 0;
#X connect 4 0 33 0;
#X connect 5 0 12 0;
#X connect 5 0 13 0;
#X connect 5 0 14 0;
#X connect 5 0 15 0;
#X connect 5 0 29 0;
#X connect 6 0 9 0;
#X connect 7 0 10 0;
#X connect 8 0 11 0;
#X connect 9 0 36 0;
#X connect 9 0 44 0;
#X connect 10 0 35 0;
#X connect 11 0 43 0;
#X connect 11 0 45 0;
#X connect 11 0 46 0;
#X connect 12 0 11 0;
#X connect 13 0 10 0;
#X connect 14 0 9 0;
#X connect 15 0 57 0;
#X connect 15 0 58 0;
#X connect 15 0 53 0;
#X connect 15 1 16 0;
#X connect 15 1 17 0;
#X connect 15 1 22 0;
#X connect 16 0 52 0;
#X connect 17 0 51 0;
#X connect 18 0 19 0;
#X connect 19 0 47 0;
#X connect 20 0 21 0;
#X connect 21 0 48 0;
#X connect 22 0 23 0;
#X connect 23 0 25 0;
#X connect 23 1 56 0;
#X connect 24 0 50 0;
#X connect 25 0 24 0;
#X connect 26 0 25 1;
#X connect 27 0 5 0;
#X connect 27 0 31 0;
#X connect 27 1 28 0;
#X connect 27 1 2 0;
#X connect 27 2 6 0;
#X connect 27 2 7 0;
#X connect 27 2 8 0;
#X connect 27 2 49 0;
#X connect 27 2 37 0;
#X connect 27 2 38 0;
#X connect 27 2 39 0;
#X connect 27 2 41 0;
#X connect 27 2 40 0;
#X connect 27 2 42 0;
#X connect 27 3 30 0;
#X connect 27 3 59 0;
#X connect 28 0 3 0;
#X connect 29 0 3 0;
#X connect 32 0 0 0;
#X connect 33 0 1 0;
#X connect 34 0 1 0;
#X connect 35 0 1 0;
#X connect 36 0 1 0;
#X connect 37 0 1 0;
#X connect 38 0 1 0;
#X connect 39 0 1 0;
#X connect 40 0 1 0;
#X connect 41 0 1 0;
#X connect 42 0 1 0;
#X connect 43 0 1 0;
#X connect 44 0 1 0;
#X connect 45 0 1 0;
#X connect 46 0 1 0;
#X connect 47 0 1 0;
#X connect 48 0 1 0;
#X connect 49 0 18 0;
#X connect 49 0 20 0;
#X connect 50 0 51 0;
#X connect 57 0 20 0;
#X connect 58 0 18 0;
