#N canvas 0 100 1440 800 10;
#X declare -path ./lib/sssad;
#X declare -path ./lib/sssad;
#X declare -path ./lib/sssad;
#X obj 613 465 zac.lumiere /Zombies_HelloDolly_Robe /HelloDollyContainer
;
#X obj 922 281 zac.lumiere /Zombies_HelloDolly_Bras /HelloDollyContainer
;
#X obj 291 277 zac.lumiere /Zombies_HelloDolly_BrasFond /HelloDollyContainer
;
#X msg 24 296 1;
#X msg 156 296 0;
#X obj 24 404 send OSC_MESSAGES;
#X msg 24 333 /Zombies_HelloDolly*/Activate \$1;
#N canvas 561 100 850 796 DollyTeteInit 0;
#X obj 234 522 send OSC_MESSAGES;
#X obj 114 449 list prepend;
#X obj 71 43 bng 15 250 50 0 empty empty empty 17 7 0 10 -262144 -1
-1;
#X obj 114 472 l2s /;
#X msg 114 132 File;
#X obj 234 489 list;
#X msg 114 109 Zpos;
#X msg 114 326 RenderOrder;
#X msg 114 369 Yscale;
#X msg 114 389 Xscale;
#X msg 114 409 Ypos;
#X msg 114 429 Xpos;
#X msg 114 225 Blue;
#X msg 114 184 Red;
#X msg 114 205 Green;
#X msg 114 305 modeAlpha;
#X msg 114 348 Shape;
#X msg 114 245 Rotate;
#X msg 114 284 Alpha;
#X msg 114 264 Activate;
#X obj 71 62 t b b b;
#X obj 56 115 t b b b;
#X obj 56 309 t b b b;
#X obj 56 352 t b b b;
#X obj 56 372 t b b b;
#X obj 56 392 t b b b;
#X obj 56 412 t b b b;
#X obj 17 331 t b b b;
#X obj 16 288 t b b b;
#X obj 56 267 t b b b;
#X obj 56 247 t b b b;
#X obj 56 228 t b b b;
#X obj 56 208 t b b b;
#X obj 56 188 t b b b;
#X obj 56 167 t b b b;
#X msg 255 245 0;
#X msg 255 284 1;
#X msg 255 225 1;
#X msg 255 184 1;
#X msg 255 109 -3.019;
#X msg 255 205 1;
#X msg 255 264 0;
#X msg 255 326 -22;
#X msg 183 79 /DunjonDoor4;
#X msg 255 132 /home/woii/2013_Sebkha-ChottGalootFormula_ThingFish/ThingFishVideoDecorum/Zombies/data/2013_07_01_Zombies_Hello_Doly_Tete_Articulée/2013_07_01_Zombies_Hello_Doly_Tete.png
;
#X obj 71 22 r DollyInit;
#X msg 255 369 1.2;
#X msg 255 389 1.2;
#X msg 255 409 0.5;
#X msg 255 429 0;
#X connect 1 0 3 0;
#X connect 2 0 20 0;
#X connect 3 0 5 0;
#X connect 4 0 1 0;
#X connect 5 0 0 0;
#X connect 6 0 1 0;
#X connect 7 0 1 0;
#X connect 8 0 1 0;
#X connect 9 0 1 0;
#X connect 10 0 1 0;
#X connect 11 0 1 0;
#X connect 12 0 1 0;
#X connect 13 0 1 0;
#X connect 14 0 1 0;
#X connect 15 0 1 0;
#X connect 17 0 1 0;
#X connect 18 0 1 0;
#X connect 19 0 1 0;
#X connect 20 0 6 0;
#X connect 20 0 21 0;
#X connect 20 1 39 0;
#X connect 20 2 43 0;
#X connect 21 0 34 0;
#X connect 21 1 4 0;
#X connect 21 2 44 0;
#X connect 22 0 23 0;
#X connect 22 1 7 0;
#X connect 22 2 42 0;
#X connect 23 0 24 0;
#X connect 23 1 8 0;
#X connect 23 2 46 0;
#X connect 24 0 25 0;
#X connect 24 1 9 0;
#X connect 24 2 47 0;
#X connect 25 0 26 0;
#X connect 25 1 10 0;
#X connect 25 2 48 0;
#X connect 26 1 11 0;
#X connect 26 2 49 0;
#X connect 27 1 16 0;
#X connect 28 1 15 0;
#X connect 29 0 22 0;
#X connect 29 1 18 0;
#X connect 29 2 36 0;
#X connect 30 0 29 0;
#X connect 30 1 19 0;
#X connect 30 2 41 0;
#X connect 31 0 30 0;
#X connect 31 1 17 0;
#X connect 31 2 35 0;
#X connect 32 0 31 0;
#X connect 32 1 12 0;
#X connect 32 2 37 0;
#X connect 33 0 32 0;
#X connect 33 1 14 0;
#X connect 33 2 40 0;
#X connect 34 0 33 0;
#X connect 34 1 13 0;
#X connect 34 2 38 0;
#X connect 35 0 5 1;
#X connect 36 0 5 1;
#X connect 37 0 5 1;
#X connect 38 0 5 1;
#X connect 39 0 5 1;
#X connect 40 0 5 1;
#X connect 41 0 5 1;
#X connect 42 0 5 1;
#X connect 43 0 1 1;
#X connect 44 0 5 1;
#X connect 45 0 2 0;
#X connect 46 0 5 1;
#X connect 47 0 5 1;
#X connect 48 0 5 1;
#X connect 49 0 5 1;
#X restore 300 515 pd DollyTeteInit;
#N canvas 557 100 850 796 DollyCorpsInit 0;
#X obj 234 522 send OSC_MESSAGES;
#X obj 114 449 list prepend;
#X obj 71 43 bng 15 250 50 0 empty empty empty 17 7 0 10 -262144 -1
-1;
#X obj 114 472 l2s /;
#X msg 114 132 File;
#X obj 234 489 list;
#X msg 114 109 Zpos;
#X msg 114 326 RenderOrder;
#X msg 114 369 Yscale;
#X msg 114 389 Xscale;
#X msg 114 409 Ypos;
#X msg 114 429 Xpos;
#X msg 114 225 Blue;
#X msg 114 184 Red;
#X msg 114 205 Green;
#X msg 114 305 modeAlpha;
#X msg 114 348 Shape;
#X msg 114 245 Rotate;
#X msg 114 284 Alpha;
#X msg 114 264 Activate;
#X obj 71 62 t b b b;
#X obj 56 115 t b b b;
#X obj 56 309 t b b b;
#X obj 56 352 t b b b;
#X obj 56 372 t b b b;
#X obj 56 392 t b b b;
#X obj 56 412 t b b b;
#X obj 17 331 t b b b;
#X obj 16 288 t b b b;
#X obj 56 267 t b b b;
#X obj 56 247 t b b b;
#X obj 56 228 t b b b;
#X obj 56 208 t b b b;
#X obj 56 188 t b b b;
#X obj 56 167 t b b b;
#X msg 255 245 0;
#X msg 255 284 1;
#X msg 255 225 1;
#X msg 255 184 1;
#X msg 255 205 1;
#X msg 255 264 0;
#X msg 255 409 0;
#X obj 71 22 r DollyInit;
#X msg 183 79 /DunjonDoor4Cadre;
#X msg 255 132 /home/woii/2013_Sebkha-ChottGalootFormula_ThingFish/ThingFishVideoDecorum/Zombies/data/2013_07_01_Zombies_Hello_Doly_Tete_Articulée/2013_07_01_Zombies_Hello_Doly_Buste.png
;
#X msg 255 109 -3.02;
#X msg 255 326 -23;
#X msg 255 369 0.5;
#X msg 255 389 0.3;
#X msg 255 429 0;
#X connect 1 0 3 0;
#X connect 2 0 20 0;
#X connect 3 0 5 0;
#X connect 4 0 1 0;
#X connect 5 0 0 0;
#X connect 6 0 1 0;
#X connect 7 0 1 0;
#X connect 8 0 1 0;
#X connect 9 0 1 0;
#X connect 10 0 1 0;
#X connect 11 0 1 0;
#X connect 12 0 1 0;
#X connect 13 0 1 0;
#X connect 14 0 1 0;
#X connect 15 0 1 0;
#X connect 17 0 1 0;
#X connect 18 0 1 0;
#X connect 19 0 1 0;
#X connect 20 0 6 0;
#X connect 20 0 21 0;
#X connect 20 1 45 0;
#X connect 20 2 43 0;
#X connect 21 0 34 0;
#X connect 21 1 4 0;
#X connect 21 2 44 0;
#X connect 22 0 23 0;
#X connect 22 1 7 0;
#X connect 22 2 46 0;
#X connect 23 0 24 0;
#X connect 23 1 8 0;
#X connect 23 2 47 0;
#X connect 24 0 25 0;
#X connect 24 1 9 0;
#X connect 24 2 48 0;
#X connect 25 0 26 0;
#X connect 25 1 10 0;
#X connect 25 2 41 0;
#X connect 26 1 11 0;
#X connect 26 2 49 0;
#X connect 27 1 16 0;
#X connect 28 1 15 0;
#X connect 29 0 22 0;
#X connect 29 1 18 0;
#X connect 29 2 36 0;
#X connect 30 0 29 0;
#X connect 30 1 19 0;
#X connect 30 2 40 0;
#X connect 31 0 30 0;
#X connect 31 1 17 0;
#X connect 31 2 35 0;
#X connect 32 0 31 0;
#X connect 32 1 12 0;
#X connect 32 2 37 0;
#X connect 33 0 32 0;
#X connect 33 1 14 0;
#X connect 33 2 39 0;
#X connect 34 0 33 0;
#X connect 34 1 13 0;
#X connect 34 2 38 0;
#X connect 35 0 5 1;
#X connect 36 0 5 1;
#X connect 37 0 5 1;
#X connect 38 0 5 1;
#X connect 39 0 5 1;
#X connect 40 0 5 1;
#X connect 41 0 5 1;
#X connect 42 0 2 0;
#X connect 43 0 1 1;
#X connect 44 0 5 1;
#X connect 45 0 5 1;
#X connect 46 0 5 1;
#X connect 47 0 5 1;
#X connect 48 0 5 1;
#X connect 49 0 5 1;
#X restore 300 535 pd DollyCorpsInit;
#N canvas 577 100 850 796 DollyBrasInit 0;
#X obj 234 522 send OSC_MESSAGES;
#X obj 114 449 list prepend;
#X obj 71 43 bng 15 250 50 0 empty empty empty 17 7 0 10 -262144 -1
-1;
#X obj 114 472 l2s /;
#X msg 114 132 File;
#X obj 234 489 list;
#X msg 114 109 Zpos;
#X msg 114 326 RenderOrder;
#X msg 114 369 Yscale;
#X msg 114 389 Xscale;
#X msg 114 409 Ypos;
#X msg 114 429 Xpos;
#X msg 114 225 Blue;
#X msg 114 184 Red;
#X msg 114 205 Green;
#X msg 114 305 modeAlpha;
#X msg 114 348 Shape;
#X msg 114 245 Rotate;
#X msg 114 284 Alpha;
#X msg 114 264 Activate;
#X obj 71 62 t b b b;
#X obj 56 115 t b b b;
#X obj 56 309 t b b b;
#X obj 56 352 t b b b;
#X obj 56 372 t b b b;
#X obj 56 392 t b b b;
#X obj 56 412 t b b b;
#X obj 17 331 t b b b;
#X obj 16 288 t b b b;
#X obj 56 267 t b b b;
#X obj 56 247 t b b b;
#X obj 56 228 t b b b;
#X obj 56 208 t b b b;
#X obj 56 188 t b b b;
#X obj 56 167 t b b b;
#X msg 255 245 0;
#X msg 255 284 1;
#X msg 255 225 1;
#X msg 255 184 1;
#X msg 255 109 -3.019;
#X msg 255 205 1;
#X msg 255 264 0;
#X msg 255 326 -22;
#X obj 71 22 r DollyInit;
#X msg 255 132 /home/woii/2013_Sebkha-ChottGalootFormula_ThingFish/ThingFishVideoDecorum/Zombies/data/2013_07_01_Zombies_Hello_Doly_Tete_Articulée/2013_07_01_Zombies_Hello_Doly_Bras.png
;
#X msg 183 79 /Zombies_HelloDolly_Bras;
#X msg 255 389 0.8;
#X msg 255 369 1.2;
#X msg 255 429 0.62;
#X msg 255 409 0.35;
#X connect 1 0 3 0;
#X connect 2 0 20 0;
#X connect 3 0 5 0;
#X connect 4 0 1 0;
#X connect 5 0 0 0;
#X connect 6 0 1 0;
#X connect 7 0 1 0;
#X connect 8 0 1 0;
#X connect 9 0 1 0;
#X connect 10 0 1 0;
#X connect 11 0 1 0;
#X connect 12 0 1 0;
#X connect 13 0 1 0;
#X connect 14 0 1 0;
#X connect 15 0 1 0;
#X connect 17 0 1 0;
#X connect 18 0 1 0;
#X connect 19 0 1 0;
#X connect 20 0 6 0;
#X connect 20 0 21 0;
#X connect 20 1 39 0;
#X connect 20 2 45 0;
#X connect 21 0 34 0;
#X connect 21 1 4 0;
#X connect 21 2 44 0;
#X connect 22 0 23 0;
#X connect 22 1 7 0;
#X connect 22 2 42 0;
#X connect 23 0 24 0;
#X connect 23 1 8 0;
#X connect 23 2 47 0;
#X connect 24 0 25 0;
#X connect 24 1 9 0;
#X connect 24 2 46 0;
#X connect 25 0 26 0;
#X connect 25 1 10 0;
#X connect 25 2 49 0;
#X connect 26 1 11 0;
#X connect 26 2 48 0;
#X connect 27 1 16 0;
#X connect 28 1 15 0;
#X connect 29 0 22 0;
#X connect 29 1 18 0;
#X connect 29 2 36 0;
#X connect 30 0 29 0;
#X connect 30 1 19 0;
#X connect 30 2 41 0;
#X connect 31 0 30 0;
#X connect 31 1 17 0;
#X connect 31 2 35 0;
#X connect 32 0 31 0;
#X connect 32 1 12 0;
#X connect 32 2 37 0;
#X connect 33 0 32 0;
#X connect 33 1 14 0;
#X connect 33 2 40 0;
#X connect 34 0 33 0;
#X connect 34 1 13 0;
#X connect 34 2 38 0;
#X connect 35 0 5 1;
#X connect 36 0 5 1;
#X connect 37 0 5 1;
#X connect 38 0 5 1;
#X connect 39 0 5 1;
#X connect 40 0 5 1;
#X connect 41 0 5 1;
#X connect 42 0 5 1;
#X connect 43 0 2 0;
#X connect 44 0 5 1;
#X connect 45 0 1 1;
#X connect 46 0 5 1;
#X connect 47 0 5 1;
#X connect 48 0 5 1;
#X connect 49 0 5 1;
#X restore 300 555 pd DollyBrasInit;
#X msg 24 368 /DunjonDoor4*/Activate \$1;
#N canvas 573 100 850 796 DollyBrasFondInit 0;
#X obj 234 522 send OSC_MESSAGES;
#X obj 114 449 list prepend;
#X obj 71 43 bng 15 250 50 0 empty empty empty 17 7 0 10 -262144 -1
-1;
#X obj 114 472 l2s /;
#X msg 114 132 File;
#X obj 234 489 list;
#X msg 114 109 Zpos;
#X msg 114 326 RenderOrder;
#X msg 114 369 Yscale;
#X msg 114 389 Xscale;
#X msg 114 409 Ypos;
#X msg 114 429 Xpos;
#X msg 114 225 Blue;
#X msg 114 184 Red;
#X msg 114 205 Green;
#X msg 114 305 modeAlpha;
#X msg 114 348 Shape;
#X msg 114 245 Rotate;
#X msg 114 284 Alpha;
#X msg 114 264 Activate;
#X obj 71 62 t b b b;
#X obj 56 115 t b b b;
#X obj 56 309 t b b b;
#X obj 56 352 t b b b;
#X obj 56 372 t b b b;
#X obj 56 392 t b b b;
#X obj 56 412 t b b b;
#X obj 17 331 t b b b;
#X obj 16 288 t b b b;
#X obj 56 267 t b b b;
#X obj 56 247 t b b b;
#X obj 56 228 t b b b;
#X obj 56 208 t b b b;
#X obj 56 188 t b b b;
#X obj 56 167 t b b b;
#X msg 255 284 1;
#X msg 255 225 1;
#X msg 255 184 1;
#X msg 255 205 1;
#X msg 255 264 0;
#X obj 71 22 r DollyInit;
#X msg 255 132 /home/woii/2013_Sebkha-ChottGalootFormula_ThingFish/ThingFishVideoDecorum/Zombies/data/2013_07_01_Zombies_Hello_Doly_Tete_Articulée/2013_07_01_Zombies_Hello_Doly_Bras.png
;
#X msg 255 369 1.2;
#X msg 255 109 -3.021;
#X msg 255 326 -24;
#X msg 255 245 340.671;
#X msg 183 79 /Zombies_HelloDolly_BrasFond;
#X msg 255 389 0.8;
#X msg 255 409 0.15;
#X msg 255 429 0.62;
#X connect 1 0 3 0;
#X connect 2 0 20 0;
#X connect 3 0 5 0;
#X connect 4 0 1 0;
#X connect 5 0 0 0;
#X connect 6 0 1 0;
#X connect 7 0 1 0;
#X connect 8 0 1 0;
#X connect 9 0 1 0;
#X connect 10 0 1 0;
#X connect 11 0 1 0;
#X connect 12 0 1 0;
#X connect 13 0 1 0;
#X connect 14 0 1 0;
#X connect 15 0 1 0;
#X connect 17 0 1 0;
#X connect 18 0 1 0;
#X connect 19 0 1 0;
#X connect 20 0 6 0;
#X connect 20 0 21 0;
#X connect 20 1 43 0;
#X connect 20 2 46 0;
#X connect 21 0 34 0;
#X connect 21 1 4 0;
#X connect 21 2 41 0;
#X connect 22 0 23 0;
#X connect 22 1 7 0;
#X connect 22 2 44 0;
#X connect 23 0 24 0;
#X connect 23 1 8 0;
#X connect 23 2 42 0;
#X connect 24 0 25 0;
#X connect 24 1 9 0;
#X connect 24 2 47 0;
#X connect 25 0 26 0;
#X connect 25 1 10 0;
#X connect 25 2 48 0;
#X connect 26 1 11 0;
#X connect 26 2 49 0;
#X connect 27 1 16 0;
#X connect 28 1 15 0;
#X connect 29 0 22 0;
#X connect 29 1 18 0;
#X connect 29 2 35 0;
#X connect 30 0 29 0;
#X connect 30 1 19 0;
#X connect 30 2 39 0;
#X connect 31 0 30 0;
#X connect 31 1 17 0;
#X connect 31 2 45 0;
#X connect 32 0 31 0;
#X connect 32 1 12 0;
#X connect 32 2 36 0;
#X connect 33 0 32 0;
#X connect 33 1 14 0;
#X connect 33 2 38 0;
#X connect 34 0 33 0;
#X connect 34 1 13 0;
#X connect 34 2 37 0;
#X connect 35 0 5 1;
#X connect 36 0 5 1;
#X connect 37 0 5 1;
#X connect 38 0 5 1;
#X connect 39 0 5 1;
#X connect 40 0 2 0;
#X connect 41 0 5 1;
#X connect 42 0 5 1;
#X connect 43 0 5 1;
#X connect 44 0 5 1;
#X connect 45 0 5 1;
#X connect 46 0 1 1;
#X connect 47 0 5 1;
#X connect 48 0 5 1;
#X connect 49 0 5 1;
#X restore 300 575 pd DollyBrasFondInit;
#N canvas 565 100 850 796 DollyRobeInit 1;
#X obj 234 522 send OSC_MESSAGES;
#X obj 114 449 list prepend;
#X obj 71 43 bng 15 250 50 0 empty empty empty 17 7 0 10 -262144 -1
-1;
#X obj 114 472 l2s /;
#X msg 114 132 File;
#X obj 234 489 list;
#X msg 114 109 Zpos;
#X msg 114 326 RenderOrder;
#X msg 114 369 Yscale;
#X msg 114 389 Xscale;
#X msg 114 409 Ypos;
#X msg 114 429 Xpos;
#X msg 114 225 Blue;
#X msg 114 184 Red;
#X msg 114 205 Green;
#X msg 114 305 modeAlpha;
#X msg 114 348 Shape;
#X msg 114 245 Rotate;
#X msg 114 284 Alpha;
#X msg 114 264 Activate;
#X obj 71 62 t b b b;
#X obj 56 115 t b b b;
#X obj 56 309 t b b b;
#X obj 56 352 t b b b;
#X obj 56 372 t b b b;
#X obj 56 392 t b b b;
#X obj 56 412 t b b b;
#X obj 17 331 t b b b;
#X obj 16 288 t b b b;
#X obj 56 267 t b b b;
#X obj 56 247 t b b b;
#X obj 56 228 t b b b;
#X obj 56 208 t b b b;
#X obj 56 188 t b b b;
#X obj 56 167 t b b b;
#X msg 255 284 1;
#X msg 255 225 1;
#X msg 255 184 1;
#X msg 255 205 1;
#X msg 255 264 0;
#X obj 71 22 r DollyInit;
#X msg 255 109 -3.019;
#X msg 255 132 /home/woii/2013_Sebkha-ChottGalootFormula_ThingFish/ThingFishVideoDecorum/Zombies/data/2013_07_01_Zombies_Hello_Doly_Tete_Articulée/2013_07_01_Zombies_Hello_Doly_robe.png
;
#X msg 255 245 0;
#X msg 255 326 -22;
#X msg 255 369 1.5;
#X msg 255 389 1;
#X msg 183 79 /Zombies_HelloDolly_Robe;
#X msg 255 409 -0.70812;
#X msg 255 429 -0.121544;
#X connect 1 0 3 0;
#X connect 2 0 20 0;
#X connect 3 0 5 0;
#X connect 4 0 1 0;
#X connect 5 0 0 0;
#X connect 6 0 1 0;
#X connect 7 0 1 0;
#X connect 8 0 1 0;
#X connect 9 0 1 0;
#X connect 10 0 1 0;
#X connect 11 0 1 0;
#X connect 12 0 1 0;
#X connect 13 0 1 0;
#X connect 14 0 1 0;
#X connect 15 0 1 0;
#X connect 17 0 1 0;
#X connect 18 0 1 0;
#X connect 19 0 1 0;
#X connect 20 0 6 0;
#X connect 20 0 21 0;
#X connect 20 1 41 0;
#X connect 20 2 47 0;
#X connect 21 0 34 0;
#X connect 21 1 4 0;
#X connect 21 2 42 0;
#X connect 22 0 23 0;
#X connect 22 1 7 0;
#X connect 22 2 44 0;
#X connect 23 0 24 0;
#X connect 23 1 8 0;
#X connect 23 2 45 0;
#X connect 24 0 25 0;
#X connect 24 1 9 0;
#X connect 24 2 46 0;
#X connect 25 0 26 0;
#X connect 25 1 10 0;
#X connect 25 2 48 0;
#X connect 26 1 11 0;
#X connect 26 2 49 0;
#X connect 27 1 16 0;
#X connect 28 1 15 0;
#X connect 29 0 22 0;
#X connect 29 1 18 0;
#X connect 29 2 35 0;
#X connect 30 0 29 0;
#X connect 30 1 19 0;
#X connect 30 2 39 0;
#X connect 31 0 30 0;
#X connect 31 1 17 0;
#X connect 31 2 43 0;
#X connect 32 0 31 0;
#X connect 32 1 12 0;
#X connect 32 2 36 0;
#X connect 33 0 32 0;
#X connect 33 1 14 0;
#X connect 33 2 38 0;
#X connect 34 0 33 0;
#X connect 34 1 13 0;
#X connect 34 2 37 0;
#X connect 35 0 5 1;
#X connect 36 0 5 1;
#X connect 37 0 5 1;
#X connect 38 0 5 1;
#X connect 39 0 5 1;
#X connect 40 0 2 0;
#X connect 41 0 5 1;
#X connect 42 0 5 1;
#X connect 43 0 5 1;
#X connect 44 0 5 1;
#X connect 45 0 5 1;
#X connect 46 0 5 1;
#X connect 47 0 1 1;
#X connect 48 0 5 1;
#X connect 49 0 5 1;
#X restore 300 595 pd DollyRobeInit;
#X obj 134 576 dollyMoves;
#X obj 156 267 r dollyDeActivate;
#X obj 24 266 r dollyActivate;
#X obj 242 672 bng 15 250 50 0 empty empty empty 17 7 0 10 -262144
-1 -1;
#X obj 252 722 s DollyInit;
#X msg 450 687 /DunjonDoor4Cadre/ParentName /Dummy;
#X msg 457 719 /DunjonDoor4Cadre/gXpos 0;
#X connect 3 0 6 0;
#X connect 3 0 10 0;
#X connect 4 0 6 0;
#X connect 4 0 10 0;
#X connect 6 0 5 0;
#X connect 10 0 5 0;
#X connect 14 0 4 0;
#X connect 15 0 3 0;
#X connect 16 0 17 0;
#X connect 16 0 3 0;
#X connect 18 0 5 0;
#X connect 19 0 5 0;
