#N canvas 0 100 1440 800 10;
#X obj 77 52 bng 15 250 50 0 empty empty empty 17 7 0 10 -262144 -1
-1;
#X obj 134 578 send OSC_MESSAGES;
#X msg 151 259 -4.02;
#X obj 151 439 line;
#X obj 134 286 line;
#X obj 336 84 delay 200;
#X msg 563 181 -3.026;
#X msg 754 183 -3.027;
#X msg 962 186 -3.028;
#X obj 77 24 r openDoor1;
#X obj 563 213 line;
#X obj 754 217 line;
#X obj 962 219 line;
#X msg 962 101 -3.024 150;
#X msg 754 101 -3.023 150;
#X msg 563 101 -3.022 150;
#N canvas 0 100 1440 800 peterPanWalks 0;
#X obj 36 28 r peterPanWalks;
#X obj 36 61 bng 15 250 50 0 empty empty empty 17 7 0 10 -262144 -1
-1;
#X obj 87 55 r peterPanWalkingSpeed;
#X floatatom 87 79 5 0 0 0 - - -;
#X obj 36 103 metro 500;
#X obj 139 142 / 2;
#X obj 36 83 t b b;
#X obj 271 30 r peterPanStopsWalking;
#X msg 271 86 stop;
#X obj 95 230 line;
#X obj 95 254 mod 360;
#X obj 192 120 delay 250;
#X obj 85 186 list;
#X obj 192 213 list;
#X obj 95 314 send OSC_MESSAGES;
#X obj 409 142 / 2;
#X obj 365 230 line;
#X obj 365 254 mod 360;
#X obj 462 120 delay 250;
#X obj 355 186 list;
#X obj 462 213 list;
#X obj 430 26 r peterPanWalkingAngle;
#X floatatom 430 55 5 0 0 0 - - -;
#X msg 358 50 0;
#X obj 358 71 -;
#X msg 192 100 -34;
#X msg 63 143 34;
#X msg 333 143 -34;
#X msg 462 75 set \$1;
#X msg 462 100 34;
#X msg 358 95 set \$1;
#X obj 405 71 bng 15 250 50 0 empty empty empty 17 7 0 10 -262144 -1
-1;
#X obj 36 467 +;
#X msg 93 473 set \$1;
#X obj 271 424 random 10;
#X obj 271 397 metro 100;
#X obj 36 662 send OSC_MESSAGES;
#X obj 322 365 / 5;
#X obj 377 441 - 5;
#X obj 377 472 mod 360;
#X obj 90 388 bng 15 250 50 0 empty empty empty 17 7 0 10 -262144 -1
-1;
#X obj 271 450 / 500;
#X obj 467 471 mod 360;
#X obj 467 441 / 5;
#X obj 585 458 + 19.3;
#X floatatom 232 491 5 0 0 0 - - -;
#X msg 95 278 /EvilPrince_Tete/Rotate \$1;
#X msg 365 278 /EvilPrince_Corps/Rotate \$1;
#X obj 36 421 v /Prison_Barreaux/Yscale;
#X msg 377 499 /PrisonPrisonniers/Rotate \$1;
#X msg 377 521 /EvilPrince_BrasCour/Rotate \$1;
#X msg 585 527 /EvilPrince_Aura/Rotate \$1;
#X msg 467 645 /Prison_Barreaux/Rotate \$1;
#X msg 36 500 /Prison*/Yscale \$1;
#X msg 36 520 /EvilPrince_BrasCour/Yscale \$1;
#X msg 36 540 /EvilPrince_Aura/Yscale \$1;
#X msg 36 560 /EvilPrince_Tete/Yscale \$1;
#X msg 36 580 /EvilPrince_Corps/Yscale \$1;
#X connect 0 0 1 0;
#X connect 1 0 6 0;
#X connect 1 0 35 0;
#X connect 1 0 48 0;
#X connect 2 0 3 0;
#X connect 3 0 4 1;
#X connect 3 0 5 0;
#X connect 3 0 15 0;
#X connect 3 0 37 0;
#X connect 4 0 11 0;
#X connect 4 0 26 0;
#X connect 4 0 27 0;
#X connect 4 0 18 0;
#X connect 5 0 12 1;
#X connect 5 0 13 1;
#X connect 5 0 11 1;
#X connect 6 0 4 0;
#X connect 6 1 26 0;
#X connect 7 0 8 0;
#X connect 8 0 4 0;
#X connect 8 0 35 0;
#X connect 8 0 45 0;
#X connect 9 0 10 0;
#X connect 10 0 46 0;
#X connect 11 0 25 0;
#X connect 12 0 9 0;
#X connect 13 0 9 0;
#X connect 15 0 19 1;
#X connect 15 0 20 1;
#X connect 15 0 18 1;
#X connect 16 0 17 0;
#X connect 17 0 47 0;
#X connect 18 0 29 0;
#X connect 19 0 16 0;
#X connect 20 0 16 0;
#X connect 21 0 22 0;
#X connect 22 0 24 1;
#X connect 22 0 28 0;
#X connect 22 0 31 0;
#X connect 23 0 24 0;
#X connect 24 0 30 0;
#X connect 25 0 13 0;
#X connect 26 0 12 0;
#X connect 27 0 19 0;
#X connect 28 0 29 0;
#X connect 28 0 26 0;
#X connect 29 0 20 0;
#X connect 30 0 27 0;
#X connect 30 0 25 0;
#X connect 31 0 23 0;
#X connect 32 0 53 0;
#X connect 32 0 55 0;
#X connect 32 0 56 0;
#X connect 32 0 57 0;
#X connect 32 0 54 0;
#X connect 33 0 45 0;
#X connect 34 0 38 0;
#X connect 34 0 41 0;
#X connect 34 0 43 0;
#X connect 35 0 34 0;
#X connect 37 0 35 1;
#X connect 38 0 39 0;
#X connect 39 0 49 0;
#X connect 39 0 50 0;
#X connect 40 0 48 0;
#X connect 41 0 32 1;
#X connect 42 0 52 0;
#X connect 43 0 42 0;
#X connect 43 0 44 0;
#X connect 44 0 51 0;
#X connect 45 0 32 0;
#X connect 46 0 14 0;
#X connect 47 0 14 0;
#X connect 48 0 33 0;
#X connect 48 0 32 0;
#X connect 49 0 36 0;
#X connect 50 0 36 0;
#X connect 51 0 36 0;
#X connect 52 0 36 0;
#X connect 53 0 36 0;
#X connect 54 0 36 0;
#X connect 55 0 36 0;
#X connect 56 0 36 0;
#X connect 57 0 36 0;
#X restore 1048 451 pd peterPanWalks;
#X obj 1057 101 t b b;
#X msg 1136 134 34;
#X obj 1070 161 s peterPanWalkingSpeed;
#X obj 1136 191 s peterPanWalkingAngle;
#X obj 1057 217 s peterPanWalks;
#X msg 1070 131 300;
#X msg 597 475 0 150;
#X msg 665 475 19.3 150;
#X obj 457 505 line;
#X obj 457 534 mod 360;
#X obj 665 501 line;
#X obj 665 534 mod 360;
#X msg 457 475 -80;
#N canvas 0 100 1440 800 peterPanWalksAround 0;
#X obj 229 105 r peterPanWalkingSpeed;
#X obj 221 196 *;
#X obj 132 82 bng 15 250 50 0 empty empty empty 17 7 0 10 -262144 -1
-1;
#X obj 165 291 list;
#X obj 165 352 line;
#X obj 132 108 t b b;
#X obj 95 369 sel 1;
#X obj 95 315 bng 15 250 50 0 empty empty empty 17 7 0 10 -262144 -1
-1;
#X obj 30 36 r peterPanStopsWalkingAround;
#X obj 54 262 spigot;
#X msg 44 68 0;
#X obj 233 39 r peterPanWalksAround;
#X msg 86 68 1;
#X obj 165 450 send OSC_MESSAGES;
#X floatatom 204 383 5 0 0 0 - - -;
#X floatatom 314 223 5 0 0 0 - - -;
#X obj 41 294 delay 5;
#X obj 218 248 + 100;
#X obj 353 360 <;
#X obj 132 132 random 16;
#X obj 163 196 - 8;
#X obj 431 377 sel 1;
#X msg 353 546 /Prison*/Flip \$1;
#X msg 353 566 /EvilPrince_BrasCour/Flip \$1;
#X msg 353 586 /EvilPrince_Aura/Flip \$1;
#X msg 353 606 /EvilPrince_Tete/Flip \$1;
#X msg 353 626 /EvilPrince_Corps/Flip \$1;
#X msg 574 486 /EvilPrince_BrasCour/Xpos \$1;
#X msg 574 506 /EvilPrince_Aura/Xpos \$1;
#X msg 574 526 /EvilPrince_Tete/Xpos \$1;
#X msg 574 546 /EvilPrince_Corps/Xpos \$1;
#X msg 511 420 -0.17;
#X msg 574 428 0.2;
#X msg 165 411 /Prison_Prisonniers/Xpos \$1;
#X msg 574 466 /Prison_Barreaux/Xpos \$1;
#X msg 739 433 /Prison_Barreaux/Xpos \$1;
#X msg 674 413 0.1;
#X msg 738 412 -0.1;
#X obj 314 171 v /Prison_Prisonniers/Xpos;
#X obj 30 168 s peterPanStopsWalking;
#X connect 0 0 1 1;
#X connect 1 0 17 0;
#X connect 2 0 5 0;
#X connect 3 0 4 0;
#X connect 4 0 33 0;
#X connect 4 0 6 0;
#X connect 4 0 14 0;
#X connect 5 0 19 0;
#X connect 5 1 38 0;
#X connect 6 0 7 0;
#X connect 7 0 16 0;
#X connect 8 0 10 0;
#X connect 8 0 39 0;
#X connect 9 0 5 0;
#X connect 10 0 9 1;
#X connect 11 0 2 0;
#X connect 11 0 12 0;
#X connect 12 0 9 1;
#X connect 15 0 18 1;
#X connect 16 0 9 0;
#X connect 17 0 3 1;
#X connect 18 0 21 0;
#X connect 18 0 22 0;
#X connect 18 0 23 0;
#X connect 18 0 24 0;
#X connect 18 0 25 0;
#X connect 18 0 26 0;
#X connect 19 0 1 0;
#X connect 19 0 20 0;
#X connect 20 0 3 0;
#X connect 20 0 6 1;
#X connect 20 0 18 0;
#X connect 21 0 37 0;
#X connect 21 0 31 0;
#X connect 21 1 36 0;
#X connect 21 1 32 0;
#X connect 22 0 13 0;
#X connect 23 0 13 0;
#X connect 24 0 13 0;
#X connect 25 0 13 0;
#X connect 26 0 13 0;
#X connect 27 0 13 0;
#X connect 28 0 13 0;
#X connect 29 0 13 0;
#X connect 30 0 13 0;
#X connect 31 0 34 0;
#X connect 31 0 27 0;
#X connect 31 0 28 0;
#X connect 31 0 29 0;
#X connect 31 0 30 0;
#X connect 32 0 34 0;
#X connect 32 0 27 0;
#X connect 32 0 28 0;
#X connect 32 0 29 0;
#X connect 32 0 30 0;
#X connect 33 0 13 0;
#X connect 35 0 13 0;
#X connect 36 0 35 0;
#X connect 37 0 35 0;
#X connect 38 0 4 0;
#X connect 38 0 15 0;
#X restore 1030 509 pd peterPanWalksAround;
#X obj 1308 118 delay 150;
#X obj 1306 165 s peterPanWalksAround;
#X obj 1268 140 t b b;
#X obj 1268 211 random 200;
#X obj 1268 235 + 200;
#X obj 1300 191 metro 1300;
#X msg 1382 142 stop;
#X obj 197 32 s PeterPanInit;
#X obj 134 202 s peterPanActivate;
#X msg 962 259 /EvilPrince_Aura/Zpos \$1;
#X msg 961 286 /EvilPrince_BrasCour/Zpos \$1;
#X msg 1178 258 /EvilPrince_Tete/Zpos \$1;
#X msg 1178 284 /EvilPrince_Corps/Zpos \$1;
#X msg 457 561 /EvilPrince_BrasCour/Rotate \$1;
#X msg 665 561 /EvilPrince_Aura/Rotate \$1;
#X msg 338 198 /EvilPrince_Tete/Child/[X-Y]pos 1;
#X msg 338 218 /EvilPrince_BrasCour/Child/[X-Y]pos 1;
#X msg 338 238 /EvilPrince_Aura/Child/[X-Y]pos 1;
#X msg 338 258 /EvilPrince_Corps/Child/[X-Y]pos 1;
#X msg 338 178 /Prison_Barreaux/Child/[X-Y]pos 1;
#X msg 338 288 /Prison_Barreaux/ParentName /Prison_Prisonniers;
#X msg 338 308 /EvilPrince_Tete/ParentName /Prison_Prisonniers;
#X msg 338 328 /EvilPrince_BrasCour/ParentName /Prison_Prisonniers
;
#X msg 338 348 /EvilPrince_Aura/ParentName /Prison_Prisonniers;
#X msg 338 368 /EvilPrince_Corps/ParentName /Prison_Prisonniers;
#X msg 563 259 /Prison_Barreaux/Zpos \$1;
#X msg 754 259 /Prison_Prisonniers/Zpos \$1;
#X msg 134 316 /Prison_Prisonniers/Xpos \$1;
#X msg 151 464 /Prison_Prisonniers/Ypos \$1;
#X msg 151 347 -0.744;
#X msg 1235 101 -1.14 150;
#X obj 134 67 t b b b b b;
#X obj 330 36 spigot;
#X obj 330 62 s PeterPanMammified;
#X obj 363 10 r ZombiesMammified;
#X connect 0 0 62 0;
#X connect 2 0 4 0;
#X connect 3 0 59 0;
#X connect 4 0 58 0;
#X connect 5 0 13 0;
#X connect 5 0 14 0;
#X connect 5 0 15 0;
#X connect 5 0 17 0;
#X connect 5 0 61 0;
#X connect 6 0 10 0;
#X connect 7 0 11 0;
#X connect 8 0 12 0;
#X connect 9 0 0 0;
#X connect 10 0 56 0;
#X connect 10 0 41 0;
#X connect 11 0 57 0;
#X connect 12 0 40 0;
#X connect 12 0 42 0;
#X connect 12 0 43 0;
#X connect 13 0 12 0;
#X connect 14 0 11 0;
#X connect 15 0 10 0;
#X connect 17 0 21 0;
#X connect 17 0 24 0;
#X connect 17 0 23 0;
#X connect 17 1 18 0;
#X connect 17 1 22 0;
#X connect 17 1 31 0;
#X connect 18 0 20 0;
#X connect 22 0 19 0;
#X connect 23 0 25 0;
#X connect 24 0 27 0;
#X connect 25 0 26 0;
#X connect 26 0 44 0;
#X connect 27 0 28 0;
#X connect 28 0 45 0;
#X connect 29 0 25 0;
#X connect 29 0 27 0;
#X connect 31 0 33 0;
#X connect 33 0 36 0;
#X connect 33 1 32 0;
#X connect 34 0 35 0;
#X connect 35 0 19 0;
#X connect 36 0 34 0;
#X connect 37 0 36 1;
#X connect 40 0 1 0;
#X connect 41 0 1 0;
#X connect 42 0 1 0;
#X connect 43 0 1 0;
#X connect 44 0 1 0;
#X connect 45 0 1 0;
#X connect 46 0 1 0;
#X connect 47 0 1 0;
#X connect 48 0 1 0;
#X connect 49 0 1 0;
#X connect 50 0 1 0;
#X connect 51 0 1 0;
#X connect 52 0 1 0;
#X connect 53 0 1 0;
#X connect 54 0 1 0;
#X connect 55 0 1 0;
#X connect 56 0 1 0;
#X connect 57 0 1 0;
#X connect 58 0 1 0;
#X connect 59 0 1 0;
#X connect 60 0 3 0;
#X connect 61 0 3 0;
#X connect 62 0 5 0;
#X connect 62 0 39 0;
#X connect 62 1 60 0;
#X connect 62 1 2 0;
#X connect 62 2 6 0;
#X connect 62 2 7 0;
#X connect 62 2 8 0;
#X connect 62 2 29 0;
#X connect 62 2 50 0;
#X connect 62 2 46 0;
#X connect 62 2 47 0;
#X connect 62 2 48 0;
#X connect 62 2 49 0;
#X connect 62 2 51 0;
#X connect 62 2 52 0;
#X connect 62 2 53 0;
#X connect 62 2 54 0;
#X connect 62 2 55 0;
#X connect 62 3 63 0;
#X connect 62 4 38 0;
#X connect 63 0 64 0;
#X connect 65 0 63 1;
