#N canvas 0 100 1440 800 10;
#X obj 77 52 bng 15 250 50 0 empty empty empty 17 7 0 10 -262144 -1
-1;
#X obj 134 578 send OSC_MESSAGES;
#X msg 309 259 /Zombies_PeterPan_*/Child/*pos 1;
#X msg 307 290 /PeterPanContainer/Parent/*pos 1;
#X msg 153 269 -4.02;
#X msg 134 316 /PeterPanContainer/Xpos \$1;
#X msg 153 347 0.056;
#X msg 153 464 /PeterPanContainer/Ypos \$1;
#X obj 153 439 line;
#X obj 134 286 line;
#X obj 134 67 t b b b;
#X msg 134 159 /Zombies_PeterPan_*/Activate 1;
#X obj 336 84 delay 200;
#X msg 563 259 /Zombies_PeterPan_Tete/Zpos \$1;
#X msg 754 259 /Zombies_PeterPan_Corps/Zpos \$1;
#X msg 961 286 /Zombies_PeterPan_Bras/Zpos \$1;
#X msg 962 259 /Zombies_PeterPan_BrasFond/Zpos \$1;
#X msg 1178 258 /Zombies_PeterPan_Jambe1/Zpos \$1;
#X msg 1178 284 /Zombies_PeterPan_Jambe2/Zpos \$1;
#X msg 563 181 -3.026;
#X msg 754 183 -3.027;
#X msg 962 186 -3.028;
#X obj 77 24 r openDoor1;
#X obj 563 213 line;
#X obj 754 217 line;
#X obj 962 219 line;
#X msg 962 101 -3.024 150;
#X msg 754 101 -3.023 150;
#X msg 563 101 -3.022 150;
#N canvas 0 100 1440 800 peterPanWalks 1;
#X obj 36 28 r peterPanWalks;
#X obj 36 61 bng 15 250 50 0 empty empty empty 17 7 0 10 -262144 -1
-1;
#X obj 87 55 r peterPanWalkingSpeed;
#X floatatom 87 79 5 0 0 0 - - -;
#X obj 36 103 metro 500;
#X obj 139 142 / 2;
#X obj 36 83 t b b;
#X obj 271 30 r peterPanStopsWalking;
#X msg 271 86 stop;
#X obj 95 230 line;
#X obj 95 254 mod 360;
#X obj 192 120 delay 250;
#X obj 85 186 list;
#X obj 192 213 list;
#X msg 95 278 /Zombies_PeterPan_Jambe1/Rotate \$1;
#X obj 95 314 send OSC_MESSAGES;
#X obj 409 142 / 2;
#X obj 365 230 line;
#X obj 365 254 mod 360;
#X obj 462 120 delay 250;
#X obj 355 186 list;
#X obj 462 213 list;
#X msg 365 278 /Zombies_PeterPan_Jambe2/Rotate \$1;
#X obj 430 26 r peterPanWalkingAngle;
#X floatatom 430 55 5 0 0 0 - - -;
#X msg 358 50 0;
#X obj 358 71 -;
#X msg 192 100 -34;
#X msg 63 143 34;
#X msg 333 143 -34;
#X msg 462 75 set \$1;
#X msg 462 100 34;
#X msg 358 95 set \$1;
#X obj 405 71 bng 15 250 50 0 empty empty empty 17 7 0 10 -262144 -1
-1;
#X obj 36 467 +;
#X msg 93 473 set \$1;
#X obj 271 424 random 10;
#X obj 271 397 metro 100;
#X obj 36 571 send OSC_MESSAGES;
#X obj 322 365 / 5;
#X obj 377 441 - 5;
#X msg 377 499 /Zombies_PeterPan_Tete/Rotate \$1;
#X obj 377 472 mod 360;
#X obj 90 388 bng 15 250 50 0 empty empty empty 17 7 0 10 -262144 -1
-1;
#X obj 36 421 v /Zombies_PeterPan_Corps/Yscale;
#X msg 36 524 /Zombies_PeterPan_*/Yscale \$1;
#X obj 271 450 / 500;
#X obj 467 471 mod 360;
#X msg 467 554 /Zombies_PeterPan_Corps/Rotate \$1;
#X obj 467 441 / 5;
#X msg 377 521 /Zombies_PeterPan_Bras/Rotate \$1;
#X obj 585 458 + 19.3;
#X msg 585 527 /Zombies_PeterPan_BrasFond/Rotate \$1;
#X floatatom 232 491 5 0 0 0 - - -;
#X connect 0 0 1 0;
#X connect 1 0 6 0;
#X connect 1 0 37 0;
#X connect 1 0 44 0;
#X connect 2 0 3 0;
#X connect 3 0 4 1;
#X connect 3 0 5 0;
#X connect 3 0 16 0;
#X connect 3 0 39 0;
#X connect 4 0 11 0;
#X connect 4 0 28 0;
#X connect 4 0 29 0;
#X connect 4 0 19 0;
#X connect 5 0 12 1;
#X connect 5 0 13 1;
#X connect 5 0 11 1;
#X connect 6 0 4 0;
#X connect 6 1 28 0;
#X connect 7 0 8 0;
#X connect 8 0 4 0;
#X connect 8 0 37 0;
#X connect 8 0 53 0;
#X connect 9 0 10 0;
#X connect 10 0 14 0;
#X connect 11 0 27 0;
#X connect 12 0 9 0;
#X connect 13 0 9 0;
#X connect 14 0 15 0;
#X connect 16 0 20 1;
#X connect 16 0 21 1;
#X connect 16 0 19 1;
#X connect 17 0 18 0;
#X connect 18 0 22 0;
#X connect 19 0 31 0;
#X connect 20 0 17 0;
#X connect 21 0 17 0;
#X connect 22 0 15 0;
#X connect 23 0 24 0;
#X connect 24 0 26 1;
#X connect 24 0 30 0;
#X connect 24 0 33 0;
#X connect 25 0 26 0;
#X connect 26 0 32 0;
#X connect 27 0 13 0;
#X connect 28 0 12 0;
#X connect 29 0 20 0;
#X connect 30 0 31 0;
#X connect 30 0 28 0;
#X connect 31 0 21 0;
#X connect 32 0 29 0;
#X connect 32 0 27 0;
#X connect 33 0 25 0;
#X connect 34 0 45 0;
#X connect 35 0 53 0;
#X connect 36 0 40 0;
#X connect 36 0 46 0;
#X connect 36 0 49 0;
#X connect 37 0 36 0;
#X connect 39 0 37 1;
#X connect 40 0 42 0;
#X connect 41 0 38 0;
#X connect 42 0 41 0;
#X connect 42 0 50 0;
#X connect 43 0 44 0;
#X connect 44 0 35 0;
#X connect 44 0 34 0;
#X connect 45 0 38 0;
#X connect 46 0 34 1;
#X connect 47 0 48 0;
#X connect 48 0 38 0;
#X connect 49 0 47 0;
#X connect 49 0 51 0;
#X connect 50 0 38 0;
#X connect 51 0 52 0;
#X connect 52 0 38 0;
#X connect 53 0 34 0;
#X restore 1048 451 pd peterPanWalks;
#X obj 1057 101 t b b;
#X msg 1136 134 34;
#X obj 1070 161 s peterPanWalkingSpeed;
#X obj 1136 191 s peterPanWalkingAngle;
#X obj 1057 217 s peterPanWalks;
#X msg 1070 131 300;
#X msg 597 475 0 150;
#X msg 665 475 19.3 150;
#X obj 457 505 line;
#X obj 457 534 mod 360;
#X msg 457 561 /Zombies_PeterPan_Bras/Rotate \$1;
#X obj 665 501 line;
#X obj 665 534 mod 360;
#X msg 665 561 /Zombies_PeterPan_BrasFond/Rotate \$1;
#X msg 457 475 -80;
#X msg 1235 101 -0.04 150;
#X connect 0 0 10 0;
#X connect 2 0 1 0;
#X connect 3 0 1 0;
#X connect 4 0 9 0;
#X connect 5 0 1 0;
#X connect 6 0 8 0;
#X connect 7 0 1 0;
#X connect 8 0 7 0;
#X connect 9 0 5 0;
#X connect 10 0 11 0;
#X connect 10 0 12 0;
#X connect 10 1 6 0;
#X connect 10 1 4 0;
#X connect 10 2 2 0;
#X connect 10 2 3 0;
#X connect 10 2 19 0;
#X connect 10 2 20 0;
#X connect 10 2 21 0;
#X connect 10 2 44 0;
#X connect 11 0 1 0;
#X connect 12 0 26 0;
#X connect 12 0 27 0;
#X connect 12 0 28 0;
#X connect 12 0 30 0;
#X connect 12 0 45 0;
#X connect 13 0 1 0;
#X connect 14 0 1 0;
#X connect 15 0 1 0;
#X connect 16 0 1 0;
#X connect 17 0 1 0;
#X connect 18 0 1 0;
#X connect 19 0 23 0;
#X connect 20 0 24 0;
#X connect 21 0 25 0;
#X connect 22 0 0 0;
#X connect 23 0 13 0;
#X connect 23 0 15 0;
#X connect 24 0 14 0;
#X connect 25 0 16 0;
#X connect 25 0 17 0;
#X connect 25 0 18 0;
#X connect 26 0 25 0;
#X connect 27 0 24 0;
#X connect 28 0 23 0;
#X connect 30 0 34 0;
#X connect 30 0 37 0;
#X connect 30 0 36 0;
#X connect 30 1 31 0;
#X connect 30 1 35 0;
#X connect 31 0 33 0;
#X connect 35 0 32 0;
#X connect 36 0 38 0;
#X connect 37 0 41 0;
#X connect 38 0 39 0;
#X connect 39 0 40 0;
#X connect 40 0 1 0;
#X connect 41 0 42 0;
#X connect 42 0 43 0;
#X connect 43 0 1 0;
#X connect 44 0 38 0;
#X connect 44 0 41 0;
#X connect 45 0 8 0;
