#N canvas 1 100 865 557 10;
#X declare -path ./lib/sssad;
#X declare -path ./lib/sssad;
#X declare -path ./lib/sssad;
#X declare -path ./lib/sssad;
#X declare -path ./lib/sssad;
#X declare -path ./lib/sssad;
#X declare -path ./lib/sssad;
#X declare -path ./lib/sssad;
#X declare -path ./lib/sssad;
#X obj 364 66 peterPanMain;
#X obj 370 115 helloDollyMain;
#X obj 374 162 annieMain;
#X obj 384 201 cowboyMain;
#X obj 382 263 chienMain;
#X obj 624 345 r ZombiesStopWalking;
#X obj 624 382 bng 15 250 50 0 empty empty empty 17 7 0 10 -262144
-1 -1;
#X obj 624 418 s peterPanStopsWalkingAround;
#X obj 624 458 s annieStopsWalkingAround;
#X obj 624 478 s cowboyStopsWalkingAround;
#X obj 624 498 s chienStopsWalkingAround;
#X obj 624 438 s dollyStopsWalkingAround;
#X connect 5 0 6 0;
#X connect 6 0 7 0;
#X connect 6 0 8 0;
#X connect 6 0 9 0;
#X connect 6 0 10 0;
#X connect 6 0 11 0;
