#N canvas 0 48 1920 1031 10;
#X declare -path ./lib/sssad;
#X declare -path ./lib/sssad;
#X declare -path ./lib/sssad;
#X declare -path ./lib/sssad;
#X declare -path ./lib/sssad;
#X declare -path ./lib/sssad;
#X declare -path ./lib/sssad;
#X declare -path ./lib/sssad;
#X declare -path ./lib/sssad;
#X declare -path ./lib/sssad;
#X declare -path ./lib/sssad;
#X declare -path ./lib/sssad;
#X declare -path ./lib/sssad;
#X declare -path ./lib/sssad;
#X declare -path ./lib/sssad;
#X obj 7 -54 zac.lumiere /Cochon;
#X obj 7 120 zac.lumiere /CochonLights;
#X obj 7 297 zac.lumiere /Djbebe;
#X obj 30 512 zac.lumiere /Tube;
#X obj 518 -77 zac.lumiere /CuveGaloot;
#X obj 517 98 zac.lumiere /CuveGalootContent;
#X obj 528 315 zac.lumiere /CuveGalootContent2;
#X obj 947 -135 zac.lumiere /Djventilo;
#X obj 963 85 zac.lumiere /DjventiloPales;
#X msg 930 531 2.8;
#X obj 794 556 random 10;
#X obj 910 609 +;
#X msg 774 488 bang;
#X msg 910 639 /CuveGalootContent/Yscale \$1;
#X obj 775 517 metro 100;
#X obj 1125 630 send OSC_MESSAGES;
#X msg 1084 606 /CuveGalootContent2/Yscale \$1;
#X obj 817 582 / 200;
#X obj 893 564 random 10;
#X obj 964 584 / 800;
#X msg 886 488 stop;
#X obj 1015 601 +;
#X obj 857 534 metro 100;
#X obj 501 651 send OSC_MESSAGES;
#X msg 414 624 /DjventiloPales/Rotate \$1;
#X msg 419 482 bang;
#X obj 482 586 line;
#X msg 421 555 0;
#X obj 456 552 delay 5;
#X obj 406 456 r DunjonBang;
#X obj 773 467 r DunjonBang;
#X msg 477 489 stop;
#X msg 1212 568 /Djbebe/Ypos \$1;
#X msg 1074 493 0.1;
#X obj 1090 529 +;
#X msg 601 536 0.57;
#X obj 609 587 +;
#X msg 655 611 /CochonLights/Alpha \$1;
#X obj 671 577 / 70;
#X obj 108 -123 dunjonDoors;
#X obj 1105 293 r DunjonBang;
#X obj 1273 536 send OSC_MESSAGES;
#X msg 1273 354 /Tube/Activate \$1;
#X msg 1273 373 /Cochon/Activate \$1;
#X msg 1273 393 /CochonLights/Activate \$1;
#X msg 1273 413 /Djbebe/Activate \$1;
#X msg 1273 452 /CuveGalootContent/Activate \$1;
#X msg 1273 472 /CuveGalootContent2/Activate \$1;
#X msg 1273 491 /Djventilo/Activate \$1;
#X msg 1273 511 /DjventiloPales/Activate \$1;
#X msg 1273 432 /CuveGaloot/Activate \$1;
#X msg 1110 319 1;
#X obj 1523 300 r DunjonBangOff;
#X msg 1528 334 0;
#X obj 438 522 metro 1000;
#X msg 504 554 360 1000;
#X connect 9 0 11 1;
#X connect 9 0 21 1;
#X connect 10 0 17 0;
#X connect 10 0 38 0;
#X connect 11 0 13 0;
#X connect 12 0 14 0;
#X connect 12 0 9 0;
#X connect 12 0 22 0;
#X connect 12 0 33 0;
#X connect 12 0 35 0;
#X connect 13 0 15 0;
#X connect 14 0 10 0;
#X connect 16 0 15 0;
#X connect 17 0 11 0;
#X connect 18 0 19 0;
#X connect 19 0 21 0;
#X connect 19 0 34 0;
#X connect 20 0 14 0;
#X connect 20 0 22 0;
#X connect 21 0 16 0;
#X connect 22 0 18 0;
#X connect 24 0 23 0;
#X connect 25 0 54 0;
#X connect 26 0 24 0;
#X connect 27 0 26 0;
#X connect 28 0 55 0;
#X connect 29 0 25 0;
#X connect 30 0 12 0;
#X connect 31 0 54 0;
#X connect 32 0 15 0;
#X connect 33 0 34 1;
#X connect 34 0 32 0;
#X connect 35 0 36 1;
#X connect 36 0 37 0;
#X connect 37 0 23 0;
#X connect 38 0 36 0;
#X connect 40 0 51 0;
#X connect 42 0 41 0;
#X connect 43 0 41 0;
#X connect 44 0 41 0;
#X connect 45 0 41 0;
#X connect 46 0 41 0;
#X connect 47 0 41 0;
#X connect 48 0 41 0;
#X connect 49 0 41 0;
#X connect 50 0 41 0;
#X connect 51 0 42 0;
#X connect 51 0 43 0;
#X connect 51 0 44 0;
#X connect 51 0 45 0;
#X connect 51 0 50 0;
#X connect 51 0 46 0;
#X connect 51 0 47 0;
#X connect 51 0 48 0;
#X connect 51 0 49 0;
#X connect 52 0 53 0;
#X connect 52 0 20 0;
#X connect 52 0 31 0;
#X connect 53 0 42 0;
#X connect 53 0 43 0;
#X connect 53 0 44 0;
#X connect 53 0 45 0;
#X connect 53 0 50 0;
#X connect 53 0 46 0;
#X connect 53 0 47 0;
#X connect 53 0 48 0;
#X connect 53 0 49 0;
#X connect 54 0 27 0;
#X connect 54 0 28 0;
#X connect 55 0 26 0;
