#N canvas 0 100 1440 800 10;
#X obj 527 280 line;
#X msg 677 214 \$1 400;
#X obj 774 143 delay 400;
#X msg 774 212 0;
#X obj 828 188 delay 5;
#X obj 527 608 send OSC_MESSAGES;
#X msg 873 281 1;
#X floatatom 629 205 5 0 0 0 - - -;
#X obj 754 775 send OSC_MESSAGES;
#X obj 449 0 r DunjonCineticPissOff;
#X obj 1080 567 send OSC_MESSAGES;
#X obj 605 34 bng 15 250 50 0 empty empty empty 17 7 0 10 -262144 -1
-1;
#X obj 837 9 t b b b b b;
#X obj 707 165 + 20;
#X msg 1009 58 /Cochon/Child/Xpos 1;
#X msg 1010 78 /CochonLights/Child/Xpos 1;
#X msg 1010 98 /Djbebe/Child/Xpos 1;
#X msg 1010 117 /CuveGaloot/Child/Xpos 1;
#X msg 1009 137 /CuveGalootContent/Child/Xpos 1;
#X msg 1010 157 /CuveGalootContent2/Child/Xpos 1;
#X msg 1010 176 /Djventilo/Child/Xpos 1;
#X msg 1010 196 /DjventiloPales/Child/Xpos 1;
#X msg 1010 215 /WashMachine/Child/Xpos 1;
#X msg 1010 235 /WashMachineButtons/Child/Xpos 1;
#X msg 1031 267 /Tube/Child/Xpos 1;
#X msg 1122 313 /DunjonContainer/Parent/Xpos 1;
#X obj 629 75 value /DunjonContainer/Xpos;
#X msg 527 353 /DunjonContainer/Xpos \$1;
#X msg 774 351 /Cochon/Activate \$1;
#X msg 774 372 /CochonLights/Activate \$1;
#X msg 774 392 /Djbebe/Activate \$1;
#X msg 775 411 /CuveGaloot/Activate \$1;
#X msg 773 431 /CuveGalootContent/Activate \$1;
#X msg 774 451 /CuveGalootContent2/Activate \$1;
#X msg 819 474 /Djventilo/Activate \$1;
#X msg 774 490 /DjventiloPales/Activate \$1;
#X msg 768 512 /WashMachine/Activate \$1;
#X msg 774 529 /WashMachineButtons/Activate \$1;
#X msg 775 553 /Tube/Activate \$1;
#X msg 888 565 /DunjonDoor1/Activate \$1;
#X msg 888 584 /DunjonDoor1Cadre/Activate \$1;
#X msg 888 604 /DunjonDoor2/Activate \$1;
#X msg 888 624 /DunjonDoor2Cadre/Activate \$1;
#X msg 888 643 /DunjonDoor3/Activate \$1;
#X msg 888 663 /DunjonDoor3Cadre/Activate \$1;
#X msg 888 683 /DunjonDoor4/Activate \$1;
#X msg 888 703 /DunjonDoor4Cadre/Activate \$1;
#X msg 888 722 /DunjonDoor5/Activate \$1;
#X msg 888 742 /DunjonDoor5Cadre/Activate \$1;
#X msg 1112 361 /DunjonDoor1/Child/Xpos 1;
#X msg 1125 380 /DunjonDoor1Cadre/Child/Xpos 1;
#X msg 1112 400 /DunjonDoor2/Child/Xpos 1;
#X msg 1112 420 /DunjonDoor2Cadre/Child/Xpos 1;
#X msg 1112 439 /DunjonDoor3/Child/Xpos 1;
#X msg 1112 459 /DunjonDoor3Cadre/Child/Xpos 1;
#X msg 1112 479 /DunjonDoor4/Child/Xpos 1;
#X msg 1112 499 /DunjonDoor4Cadre/Child/Xpos 1;
#X msg 1113 518 /DunjonDoor5/Child/Xpos 1;
#X msg 1112 538 /DunjonDoor5Cadre/Child/Xpos 1;
#X obj 666 298 s DunjonBangOff;
#X connect 0 0 27 0;
#X connect 1 0 0 0;
#X connect 2 0 3 0;
#X connect 2 0 4 0;
#X connect 2 0 59 0;
#X connect 3 0 28 0;
#X connect 3 0 29 0;
#X connect 3 0 30 0;
#X connect 3 0 31 0;
#X connect 3 0 32 0;
#X connect 3 0 33 0;
#X connect 3 0 34 0;
#X connect 3 0 35 0;
#X connect 3 0 36 0;
#X connect 3 0 37 0;
#X connect 3 0 38 0;
#X connect 3 0 39 0;
#X connect 3 0 40 0;
#X connect 3 0 41 0;
#X connect 3 0 42 0;
#X connect 3 0 43 0;
#X connect 3 0 44 0;
#X connect 3 0 45 0;
#X connect 3 0 46 0;
#X connect 3 0 47 0;
#X connect 3 0 48 0;
#X connect 4 0 7 0;
#X connect 6 0 28 0;
#X connect 6 0 29 0;
#X connect 6 0 30 0;
#X connect 6 0 31 0;
#X connect 6 0 32 0;
#X connect 6 0 33 0;
#X connect 6 0 34 0;
#X connect 6 0 35 0;
#X connect 6 0 36 0;
#X connect 6 0 37 0;
#X connect 6 0 38 0;
#X connect 7 0 0 0;
#X connect 9 0 11 0;
#X connect 11 0 12 0;
#X connect 12 2 2 0;
#X connect 12 3 26 0;
#X connect 12 4 14 0;
#X connect 12 4 15 0;
#X connect 12 4 16 0;
#X connect 12 4 17 0;
#X connect 12 4 18 0;
#X connect 12 4 19 0;
#X connect 12 4 20 0;
#X connect 12 4 21 0;
#X connect 12 4 22 0;
#X connect 12 4 23 0;
#X connect 12 4 24 0;
#X connect 12 4 25 0;
#X connect 12 4 49 0;
#X connect 12 4 50 0;
#X connect 12 4 51 0;
#X connect 12 4 52 0;
#X connect 12 4 53 0;
#X connect 12 4 54 0;
#X connect 12 4 55 0;
#X connect 12 4 56 0;
#X connect 12 4 57 0;
#X connect 12 4 58 0;
#X connect 13 0 1 0;
#X connect 14 0 10 0;
#X connect 15 0 10 0;
#X connect 16 0 10 0;
#X connect 17 0 10 0;
#X connect 18 0 10 0;
#X connect 19 0 10 0;
#X connect 20 0 10 0;
#X connect 21 0 10 0;
#X connect 22 0 10 0;
#X connect 23 0 10 0;
#X connect 24 0 10 0;
#X connect 25 0 10 0;
#X connect 26 0 7 0;
#X connect 26 0 13 0;
#X connect 27 0 5 0;
#X connect 28 0 8 0;
#X connect 29 0 8 0;
#X connect 30 0 8 0;
#X connect 31 0 8 0;
#X connect 32 0 8 0;
#X connect 33 0 8 0;
#X connect 34 0 8 0;
#X connect 35 0 8 0;
#X connect 36 0 8 0;
#X connect 37 0 8 0;
#X connect 38 0 8 0;
#X connect 39 0 8 0;
#X connect 40 0 8 0;
#X connect 41 0 8 0;
#X connect 42 0 8 0;
#X connect 43 0 8 0;
#X connect 44 0 8 0;
#X connect 45 0 8 0;
#X connect 46 0 8 0;
#X connect 47 0 8 0;
#X connect 48 0 8 0;
#X connect 49 0 10 0;
#X connect 50 0 10 0;
#X connect 51 0 10 0;
#X connect 52 0 10 0;
#X connect 53 0 10 0;
#X connect 54 0 10 0;
#X connect 55 0 10 0;
#X connect 56 0 10 0;
#X connect 57 0 10 0;
#X connect 58 0 10 0;
