#N canvas 1 100 1438 759 10;
#X obj 216 677 line;
#X obj 150 636 +;
#X msg 150 610 1.5;
#X floatatom 216 636 5 0 0 0 - - -;
#X msg 216 610 0;
#X msg 150 660 \$1 300;
#X obj 268 677 line;
#X msg 327 652 1 150;
#X msg 268 610 1;
#X msg 268 652 1.5 150;
#X msg 388 538 stop;
#X obj 327 593 metro 900;
#X msg 268 539 bang;
#X obj 228 974 send OSC_MESSAGES;
#X msg 41 715 /DunjonDoor1/Xpos \$1;
#X msg 41 736 /DunjonDoor1Cadre/Xpos \$1;
#X msg 87 821 /DunjonDoor3/Xpos \$1;
#X msg 87 842 /DunjonDoor3Cadre/Xpos \$1;
#X msg 41 778 /DunjonDoor2/Xpos \$1;
#X msg 41 799 /DunjonDoor2Cadre/Xpos \$1;
#X msg 268 763 /DunjonDoor1/Ypos \$1;
#X msg 268 784 /DunjonDoor1Cadre/Ypos \$1;
#X msg 268 805 /DunjonDoor2/Ypos \$1;
#X msg 268 826 /DunjonDoor2Cadre/Ypos \$1;
#X msg 268 847 /DunjonDoor3/Ypos \$1;
#X msg 268 868 /DunjonDoor3Cadre/Ypos \$1;
#X obj 327 626 delay 150;
#X obj 59 561 comment 0 10 helvetica ? 0 0 0 0 Déplacement vers cour
;
#X msg 268 889 /DunjonDoor4/Ypos \$1;
#X msg 268 910 /DunjonDoor4Cadre/Ypos \$1;
#X msg 268 931 /DunjonDoor5/Ypos \$1;
#X msg 268 952 /DunjonDoor5Cadre/Ypos \$1;
#X obj 41 694 - 4;
#X obj 41 757 - 2;
#X obj 42 847 + 2;
#X obj 42 910 + 4;
#X msg 42 868 /DunjonDoor4/Xpos \$1;
#X msg 42 889 /DunjonDoor4Cadre/Xpos \$1;
#X msg 42 931 /DunjonDoor5/Xpos \$1;
#X msg 42 952 /DunjonDoor5Cadre/Xpos \$1;
#X obj 388 694 sel 12;
#X obj 592 145 * 2;
#X obj 421 110 hsl 128 15 0 127 0 0 empty empty empty -2 -8 0 10 -262144
-1 -1 0 1;
#X obj 418 128 / 64;
#X obj 592 383 send OSC_MESSAGES;
#X msg 418 170 /DunjonDoor1/Xscale \$1;
#X msg 418 190 /DunjonDoor1Cadre/Xscale \$1;
#X msg 418 210 /DunjonDoor2/Xscale \$1;
#X msg 418 230 /DunjonDoor2Cadre/Xscale \$1;
#X msg 418 250 /DunjonDoor3/Xscale \$1;
#X msg 418 270 /DunjonDoor3Cadre/Xscale \$1;
#X msg 418 290 /DunjonDoor4/Xscale \$1;
#X msg 418 310 /DunjonDoor4Cadre/Xscale \$1;
#X msg 418 330 /DunjonDoor5/Xscale \$1;
#X msg 418 350 /DunjonDoor5Cadre/Xscale \$1;
#X msg 592 170 /DunjonDoor1/Yscale \$1;
#X msg 592 190 /DunjonDoor1Cadre/Yscale \$1;
#X msg 592 210 /DunjonDoor2/Yscale \$1;
#X msg 592 230 /DunjonDoor2Cadre/Yscale \$1;
#X msg 592 250 /DunjonDoor3/Yscale \$1;
#X msg 592 270 /DunjonDoor3Cadre/Yscale \$1;
#X msg 592 290 /DunjonDoor4/Yscale \$1;
#X msg 592 310 /DunjonDoor4Cadre/Yscale \$1;
#X msg 592 330 /DunjonDoor5/Yscale \$1;
#X msg 592 350 /DunjonDoor5Cadre/Yscale \$1;
#X obj 544 73 comment 0 10 helvetica ? 0 0 0 0 Echelle;
#X obj 450 26 r doorsDoubleScale;
#X obj 492 54 r doorsSimpleScale;
#X obj 418 587 s doorsSimpleScale;
#X msg 418 87 32;
#X msg 418 62 64;
#X obj 727 800 send OSC_MESSAGES;
#X msg 727 600 /DunjonDoor1/Zpos \$1;
#X msg 727 620 /DunjonDoor1Cadre/Zpos \$1;
#X msg 727 640 /DunjonDoor2/Zpos \$1;
#X msg 727 660 /DunjonDoor2Cadre/Zpos \$1;
#X msg 727 680 /DunjonDoor3/Zpos \$1;
#X msg 727 700 /DunjonDoor3Cadre/Zpos \$1;
#X msg 727 720 /DunjonDoor4/Zpos \$1;
#X msg 727 760 /DunjonDoor5/Zpos \$1;
#X msg 727 780 /DunjonDoor5Cadre/Zpos \$1;
#X msg 727 580 -3.025;
#X obj 606 580 s doorsDoubleScale;
#X msg 606 548 bang;
#X msg 727 740 /DunjonDoor4Cadre/Zpos \$1;
#X obj -35 711 s door1Xpos;
#X obj -35 774 s door2Xpos;
#X obj -35 864 s door4Xpos;
#X obj -35 927 s door5Xpos;
#X obj -35 824 s door3Xpos;
#X obj 970 577 r door2Xpos;
#X obj 955 604 +;
#X msg 955 625 /DunjonDoor2/Xpos \$1;
#X msg 955 646 /DunjonDoor2Cadre/Xpos \$1;
#X obj 955 699 +;
#X msg 955 720 /DunjonDoor3/Xpos \$1;
#X msg 955 741 /DunjonDoor3Cadre/Xpos \$1;
#X obj 970 672 r door3Xpos;
#X obj 955 796 +;
#X obj 955 891 +;
#X obj 970 769 r door4Xpos;
#X msg 955 817 /DunjonDoor4/Xpos \$1;
#X msg 955 838 /DunjonDoor4Cadre/Xpos \$1;
#X obj 970 864 r door5Xpos;
#X msg 955 912 /DunjonDoor5/Xpos \$1;
#X msg 955 933 /DunjonDoor5Cadre/Xpos \$1;
#X obj 955 974 send OSC_MESSAGES;
#X msg 922 587 2;
#X msg 922 682 4;
#X msg 922 779 6;
#X msg 922 874 8;
#X obj 55 141 hsl 128 15 0 127 0 0 empty empty empty -2 -8 0 10 -262144
-1 -1 0 1;
#X obj 52 181 / 64;
#X obj 52 417 send OSC_MESSAGES;
#X obj 178 104 comment 0 10 helvetica ? 0 0 0 0 Ypos;
#X msg 52 201 /DunjonDoor1/Ypos \$1;
#X msg 52 221 /DunjonDoor1Cadre/Ypos \$1;
#X msg 52 241 /DunjonDoor2/Ypos \$1;
#X msg 52 261 /DunjonDoor2Cadre/Ypos \$1;
#X msg 52 281 /DunjonDoor3/Ypos \$1;
#X msg 52 301 /DunjonDoor3Cadre/Ypos \$1;
#X msg 52 321 /DunjonDoor4/Ypos \$1;
#X msg 52 341 /DunjonDoor4Cadre/Ypos \$1;
#X msg 52 361 /DunjonDoor5/Ypos \$1;
#X msg 52 381 /DunjonDoor5Cadre/Ypos \$1;
#X obj 52 160 - 64;
#X msg 52 118 0;
#X msg 52 93 127;
#X obj 98 28 r doorsLointain;
#X obj 97 60 r doorsProche;
#X obj 606 604 s doorsProche;
#X obj 1409 695 line;
#X floatatom 1409 654 5 0 0 0 - - -;
#X msg 1343 678 \$1 300;
#X obj 1461 695 line;
#X msg 1656 556 stop;
#X obj 1421 992 send OSC_MESSAGES;
#X msg 1234 733 /DunjonDoor1/Xpos \$1;
#X msg 1234 754 /DunjonDoor1Cadre/Xpos \$1;
#X msg 1280 839 /DunjonDoor3/Xpos \$1;
#X msg 1280 860 /DunjonDoor3Cadre/Xpos \$1;
#X msg 1234 796 /DunjonDoor2/Xpos \$1;
#X msg 1234 817 /DunjonDoor2Cadre/Xpos \$1;
#X msg 1461 781 /DunjonDoor1/Ypos \$1;
#X msg 1461 802 /DunjonDoor1Cadre/Ypos \$1;
#X msg 1461 823 /DunjonDoor2/Ypos \$1;
#X msg 1461 844 /DunjonDoor2Cadre/Ypos \$1;
#X msg 1461 865 /DunjonDoor3/Ypos \$1;
#X msg 1461 886 /DunjonDoor3Cadre/Ypos \$1;
#X obj 1520 644 delay 150;
#X msg 1461 907 /DunjonDoor4/Ypos \$1;
#X msg 1461 928 /DunjonDoor4Cadre/Ypos \$1;
#X msg 1461 949 /DunjonDoor5/Ypos \$1;
#X msg 1461 970 /DunjonDoor5Cadre/Ypos \$1;
#X msg 1235 886 /DunjonDoor4/Xpos \$1;
#X msg 1235 907 /DunjonDoor4Cadre/Xpos \$1;
#X msg 1235 949 /DunjonDoor5/Xpos \$1;
#X msg 1235 970 /DunjonDoor5Cadre/Xpos \$1;
#X obj 1158 729 s door1Xpos;
#X obj 1158 792 s door2Xpos;
#X obj 1158 882 s door4Xpos;
#X obj 1158 945 s door5Xpos;
#X obj 1158 842 s door3Xpos;
#X msg 1461 670 0.8 150;
#X msg 1520 670 0 150;
#X msg 1461 628 0;
#X obj 1234 712 - 8;
#X obj 1234 775 - 4;
#X obj 1235 865 + 4;
#X obj 1235 928 + 8;
#X obj 1343 654 +;
#X msg 1343 628 -2;
#X obj 979 545 delay 5;
#X obj 1656 712 sel -18;
#X msg 1154 577 16;
#X obj 1520 611 metro 1200;
#X obj 1656 746 s openDoor1;
#X obj 1135 158 line;
#X obj 1135 231 send OSC_MESSAGES;
#X msg 1135 73 -4;
#X obj 1197 47 delay 5;
#X msg 1197 141 -2.4 200;
#X obj 1268 158 line;
#X obj 1268 231 send OSC_MESSAGES;
#X obj 1342 47 delay 5;
#X msg 1268 73 -2.4;
#X msg 1342 141 -4 200;
#X obj 1728 746 delay 1000;
#X obj 1728 766 s closeDoor1;
#X obj 1728 715 delay 200;
#X msg 1690 690 -3;
#X obj 1690 668 delay 5;
#X obj 1419 158 line;
#X obj 1419 231 send OSC_MESSAGES;
#X msg 1419 73 -4;
#X obj 1481 47 delay 5;
#X msg 1481 141 -2.4 200;
#X obj 1552 158 line;
#X obj 1552 231 send OSC_MESSAGES;
#X obj 1626 47 delay 5;
#X msg 1552 73 -2.4;
#X msg 1626 141 -4 200;
#X obj 1135 403 line;
#X obj 1135 476 send OSC_MESSAGES;
#X msg 1135 318 -4;
#X obj 1197 292 delay 5;
#X msg 1197 386 -2.4 200;
#X obj 1268 403 line;
#X obj 1268 476 send OSC_MESSAGES;
#X obj 1342 292 delay 5;
#X msg 1268 318 -2.4;
#X msg 1342 386 -4 200;
#X obj 1419 403 line;
#X obj 1419 476 send OSC_MESSAGES;
#X msg 1419 318 -4;
#X obj 1481 292 delay 5;
#X msg 1481 386 -2.4 200;
#X obj 1552 403 line;
#X obj 1552 476 send OSC_MESSAGES;
#X obj 1626 292 delay 5;
#X msg 1552 318 -2.4;
#X msg 1626 386 -4 200;
#X obj 862 8 r openDoor1;
#X obj 862 158 line;
#X msg 862 198 /DunjonDoor1/Xpos \$1;
#X obj 862 231 send OSC_MESSAGES;
#X msg 862 73 -4;
#X obj 924 47 delay 5;
#X msg 924 141 -2.4 200;
#X obj 995 158 line;
#X msg 995 198 /DunjonDoor1/Xpos \$1;
#X obj 995 231 send OSC_MESSAGES;
#X obj 1069 47 delay 5;
#X obj 995 8 r closeDoor1;
#X msg 995 73 -2.4;
#X msg 1069 141 -4 200;
#X obj 1135 8 r openDoor2;
#X obj 1268 8 r closeDoor2;
#X obj 1419 8 r openDoor3;
#X obj 1552 8 r closeDoor3;
#X obj 1135 253 r openDoor4;
#X obj 1268 253 r closeDoor4;
#X obj 1419 253 r openDoor5;
#X obj 1552 253 r closeDoor5;
#X msg 1135 443 /DunjonDoor4/Xpos \$1;
#X msg 1135 198 /DunjonDoor2/Xpos \$1;
#X msg 1268 198 /DunjonDoor2/Xpos \$1;
#X msg 1268 443 /DunjonDoor4/Xpos \$1;
#X msg 1419 443 /DunjonDoor5/Xpos \$1;
#X msg 1552 443 /DunjonDoor5/Xpos \$1;
#X msg 1552 198 /DunjonDoor3/Xpos \$1;
#X msg 1419 198 /DunjonDoor3/Xpos \$1;
#X obj 1717 818 delay 1000;
#X obj 1717 787 delay 200;
#X msg 1678 784 -3;
#X obj 1645 801 sel -4;
#X obj 1678 767 delay 5;
#X obj 1645 818 s openDoor2;
#X obj 1717 838 s closeDoor2;
#X obj 1656 729 sel -4;
#X msg 1765 636 -4;
#X obj 1707 891 delay 1000;
#X obj 1707 860 delay 200;
#X msg 1668 856 -3;
#X obj 1668 839 delay 5;
#X obj 1696 963 delay 1000;
#X obj 1696 932 delay 200;
#X msg 1657 929 -3;
#X obj 1624 946 sel -4;
#X obj 1657 912 delay 5;
#X obj 1635 874 sel -4;
#X obj 1635 891 s openDoor3;
#X obj 1707 911 s closeDoor3;
#X obj 1624 963 s openDoor4;
#X obj 1696 983 s closeDoor4;
#X obj 1696 1056 delay 1000;
#X obj 1696 1025 delay 200;
#X msg 1657 1022 -3;
#X obj 1624 1039 sel -4;
#X obj 1657 1005 delay 5;
#X obj 1624 1056 s openDoor5;
#X obj 1696 1076 s closeDoor5;
#X obj 238 496 r dunjonDoorsMoveCour;
#X obj 603 516 r dunjonDoorsMoveJardin;
#X obj 100 499 r DunjonBang;
#X connect 0 0 16 0;
#X connect 0 0 17 0;
#X connect 0 0 32 0;
#X connect 0 0 33 0;
#X connect 0 0 34 0;
#X connect 0 0 35 0;
#X connect 0 0 40 0;
#X connect 0 0 89 0;
#X connect 1 0 3 0;
#X connect 1 0 5 0;
#X connect 2 0 1 0;
#X connect 3 0 1 1;
#X connect 4 0 3 0;
#X connect 4 0 0 0;
#X connect 5 0 0 0;
#X connect 6 0 24 0;
#X connect 6 0 25 0;
#X connect 6 0 20 0;
#X connect 6 0 21 0;
#X connect 6 0 22 0;
#X connect 6 0 23 0;
#X connect 6 0 28 0;
#X connect 6 0 29 0;
#X connect 6 0 30 0;
#X connect 6 0 31 0;
#X connect 7 0 6 0;
#X connect 8 0 6 0;
#X connect 9 0 6 0;
#X connect 10 0 11 0;
#X connect 11 0 9 0;
#X connect 11 0 2 0;
#X connect 11 0 26 0;
#X connect 12 0 8 0;
#X connect 12 0 4 0;
#X connect 12 0 11 0;
#X connect 12 0 68 0;
#X connect 14 0 13 0;
#X connect 15 0 13 0;
#X connect 16 0 13 0;
#X connect 17 0 13 0;
#X connect 18 0 13 0;
#X connect 19 0 13 0;
#X connect 20 0 13 0;
#X connect 21 0 13 0;
#X connect 22 0 13 0;
#X connect 23 0 13 0;
#X connect 24 0 13 0;
#X connect 25 0 13 0;
#X connect 26 0 7 0;
#X connect 28 0 13 0;
#X connect 29 0 13 0;
#X connect 30 0 13 0;
#X connect 31 0 13 0;
#X connect 32 0 14 0;
#X connect 32 0 15 0;
#X connect 32 0 85 0;
#X connect 33 0 18 0;
#X connect 33 0 19 0;
#X connect 33 0 86 0;
#X connect 34 0 36 0;
#X connect 34 0 37 0;
#X connect 34 0 87 0;
#X connect 35 0 38 0;
#X connect 35 0 39 0;
#X connect 35 0 88 0;
#X connect 36 0 13 0;
#X connect 37 0 13 0;
#X connect 38 0 13 0;
#X connect 39 0 13 0;
#X connect 40 0 10 0;
#X connect 41 0 55 0;
#X connect 41 0 56 0;
#X connect 41 0 57 0;
#X connect 41 0 58 0;
#X connect 41 0 59 0;
#X connect 41 0 62 0;
#X connect 41 0 63 0;
#X connect 41 0 64 0;
#X connect 41 0 60 0;
#X connect 41 0 61 0;
#X connect 42 0 43 0;
#X connect 43 0 41 0;
#X connect 43 0 45 0;
#X connect 43 0 46 0;
#X connect 43 0 47 0;
#X connect 43 0 48 0;
#X connect 43 0 49 0;
#X connect 43 0 50 0;
#X connect 43 0 51 0;
#X connect 43 0 52 0;
#X connect 43 0 53 0;
#X connect 43 0 54 0;
#X connect 45 0 44 0;
#X connect 46 0 44 0;
#X connect 47 0 44 0;
#X connect 48 0 44 0;
#X connect 49 0 44 0;
#X connect 50 0 44 0;
#X connect 51 0 44 0;
#X connect 52 0 44 0;
#X connect 53 0 44 0;
#X connect 54 0 44 0;
#X connect 55 0 44 0;
#X connect 56 0 44 0;
#X connect 57 0 44 0;
#X connect 58 0 44 0;
#X connect 59 0 44 0;
#X connect 60 0 44 0;
#X connect 61 0 44 0;
#X connect 62 0 44 0;
#X connect 63 0 44 0;
#X connect 64 0 44 0;
#X connect 66 0 70 0;
#X connect 67 0 69 0;
#X connect 69 0 42 0;
#X connect 70 0 42 0;
#X connect 72 0 71 0;
#X connect 73 0 71 0;
#X connect 74 0 71 0;
#X connect 75 0 71 0;
#X connect 76 0 71 0;
#X connect 77 0 71 0;
#X connect 78 0 71 0;
#X connect 79 0 71 0;
#X connect 80 0 71 0;
#X connect 81 0 72 0;
#X connect 81 0 73 0;
#X connect 81 0 74 0;
#X connect 81 0 75 0;
#X connect 81 0 76 0;
#X connect 81 0 77 0;
#X connect 81 0 78 0;
#X connect 81 0 84 0;
#X connect 81 0 79 0;
#X connect 81 0 80 0;
#X connect 83 0 82 0;
#X connect 83 0 81 0;
#X connect 83 0 107 0;
#X connect 83 0 108 0;
#X connect 83 0 109 0;
#X connect 83 0 110 0;
#X connect 83 0 130 0;
#X connect 83 0 172 0;
#X connect 84 0 71 0;
#X connect 90 0 91 1;
#X connect 91 0 92 0;
#X connect 91 0 93 0;
#X connect 92 0 106 0;
#X connect 93 0 106 0;
#X connect 94 0 95 0;
#X connect 94 0 96 0;
#X connect 95 0 106 0;
#X connect 96 0 106 0;
#X connect 97 0 94 1;
#X connect 98 0 101 0;
#X connect 98 0 102 0;
#X connect 99 0 104 0;
#X connect 99 0 105 0;
#X connect 100 0 98 1;
#X connect 101 0 106 0;
#X connect 102 0 106 0;
#X connect 103 0 99 1;
#X connect 104 0 106 0;
#X connect 105 0 106 0;
#X connect 107 0 91 0;
#X connect 108 0 94 0;
#X connect 109 0 98 0;
#X connect 110 0 99 0;
#X connect 111 0 125 0;
#X connect 112 0 115 0;
#X connect 112 0 116 0;
#X connect 112 0 117 0;
#X connect 112 0 118 0;
#X connect 112 0 119 0;
#X connect 112 0 120 0;
#X connect 112 0 121 0;
#X connect 112 0 122 0;
#X connect 112 0 123 0;
#X connect 112 0 124 0;
#X connect 115 0 113 0;
#X connect 116 0 113 0;
#X connect 117 0 113 0;
#X connect 118 0 113 0;
#X connect 119 0 113 0;
#X connect 120 0 113 0;
#X connect 121 0 113 0;
#X connect 122 0 113 0;
#X connect 123 0 113 0;
#X connect 124 0 113 0;
#X connect 125 0 112 0;
#X connect 126 0 111 0;
#X connect 127 0 111 0;
#X connect 128 0 127 0;
#X connect 129 0 126 0;
#X connect 131 0 139 0;
#X connect 131 0 140 0;
#X connect 131 0 162 0;
#X connect 131 0 166 0;
#X connect 131 0 167 0;
#X connect 131 0 168 0;
#X connect 131 0 169 0;
#X connect 131 0 173 0;
#X connect 131 0 270 0;
#X connect 132 0 170 1;
#X connect 133 0 131 0;
#X connect 134 0 147 0;
#X connect 134 0 148 0;
#X connect 134 0 143 0;
#X connect 134 0 144 0;
#X connect 134 0 145 0;
#X connect 134 0 146 0;
#X connect 134 0 150 0;
#X connect 134 0 151 0;
#X connect 134 0 152 0;
#X connect 134 0 153 0;
#X connect 135 0 175 0;
#X connect 137 0 136 0;
#X connect 138 0 136 0;
#X connect 139 0 136 0;
#X connect 140 0 136 0;
#X connect 141 0 136 0;
#X connect 142 0 136 0;
#X connect 143 0 136 0;
#X connect 144 0 136 0;
#X connect 145 0 136 0;
#X connect 146 0 136 0;
#X connect 147 0 136 0;
#X connect 148 0 136 0;
#X connect 149 0 164 0;
#X connect 150 0 136 0;
#X connect 151 0 136 0;
#X connect 152 0 136 0;
#X connect 153 0 136 0;
#X connect 154 0 136 0;
#X connect 155 0 136 0;
#X connect 156 0 136 0;
#X connect 157 0 136 0;
#X connect 163 0 134 0;
#X connect 164 0 134 0;
#X connect 165 0 134 0;
#X connect 166 0 137 0;
#X connect 166 0 138 0;
#X connect 166 0 158 0;
#X connect 166 0 259 0;
#X connect 167 0 141 0;
#X connect 167 0 142 0;
#X connect 167 0 159 0;
#X connect 167 0 255 0;
#X connect 168 0 154 0;
#X connect 168 0 155 0;
#X connect 168 0 160 0;
#X connect 168 0 268 0;
#X connect 169 0 156 0;
#X connect 169 0 157 0;
#X connect 169 0 161 0;
#X connect 169 0 278 0;
#X connect 170 0 132 0;
#X connect 170 0 133 0;
#X connect 171 0 170 0;
#X connect 172 0 174 0;
#X connect 172 0 175 0;
#X connect 173 0 135 0;
#X connect 174 0 132 0;
#X connect 174 0 131 0;
#X connect 175 0 163 0;
#X connect 175 0 171 0;
#X connect 175 0 149 0;
#X connect 177 0 245 0;
#X connect 179 0 177 0;
#X connect 180 0 181 0;
#X connect 181 0 177 0;
#X connect 182 0 246 0;
#X connect 184 0 186 0;
#X connect 185 0 182 0;
#X connect 186 0 182 0;
#X connect 187 0 188 0;
#X connect 187 0 189 0;
#X connect 189 0 175 0;
#X connect 190 0 259 1;
#X connect 191 0 190 0;
#X connect 192 0 251 0;
#X connect 194 0 192 0;
#X connect 195 0 196 0;
#X connect 196 0 192 0;
#X connect 197 0 250 0;
#X connect 199 0 201 0;
#X connect 200 0 197 0;
#X connect 201 0 197 0;
#X connect 202 0 244 0;
#X connect 204 0 202 0;
#X connect 205 0 206 0;
#X connect 206 0 202 0;
#X connect 207 0 247 0;
#X connect 209 0 211 0;
#X connect 210 0 207 0;
#X connect 211 0 207 0;
#X connect 212 0 248 0;
#X connect 214 0 212 0;
#X connect 215 0 216 0;
#X connect 216 0 212 0;
#X connect 217 0 249 0;
#X connect 219 0 221 0;
#X connect 220 0 217 0;
#X connect 221 0 217 0;
#X connect 222 0 226 0;
#X connect 222 0 227 0;
#X connect 223 0 224 0;
#X connect 224 0 225 0;
#X connect 226 0 223 0;
#X connect 227 0 228 0;
#X connect 228 0 223 0;
#X connect 229 0 230 0;
#X connect 230 0 231 0;
#X connect 232 0 235 0;
#X connect 233 0 234 0;
#X connect 233 0 232 0;
#X connect 234 0 229 0;
#X connect 235 0 229 0;
#X connect 236 0 179 0;
#X connect 236 0 180 0;
#X connect 237 0 185 0;
#X connect 237 0 184 0;
#X connect 238 0 194 0;
#X connect 238 0 195 0;
#X connect 239 0 200 0;
#X connect 239 0 199 0;
#X connect 240 0 204 0;
#X connect 240 0 205 0;
#X connect 241 0 210 0;
#X connect 241 0 209 0;
#X connect 242 0 214 0;
#X connect 242 0 215 0;
#X connect 243 0 220 0;
#X connect 243 0 219 0;
#X connect 244 0 203 0;
#X connect 245 0 178 0;
#X connect 246 0 183 0;
#X connect 247 0 208 0;
#X connect 248 0 213 0;
#X connect 249 0 218 0;
#X connect 250 0 198 0;
#X connect 251 0 193 0;
#X connect 252 0 253 0;
#X connect 252 0 258 0;
#X connect 253 0 175 0;
#X connect 254 0 255 1;
#X connect 255 0 252 0;
#X connect 255 0 256 0;
#X connect 255 0 257 0;
#X connect 255 0 135 0;
#X connect 256 0 254 0;
#X connect 259 0 135 0;
#X connect 259 0 176 0;
#X connect 259 0 187 0;
#X connect 259 0 191 0;
#X connect 260 0 259 1;
#X connect 260 0 255 1;
#X connect 260 0 270 1;
#X connect 260 0 268 1;
#X connect 260 0 278 1;
#X connect 261 0 262 0;
#X connect 261 0 272 0;
#X connect 262 0 175 0;
#X connect 263 0 270 1;
#X connect 264 0 263 0;
#X connect 265 0 266 0;
#X connect 265 0 274 0;
#X connect 266 0 175 0;
#X connect 267 0 268 1;
#X connect 268 0 265 0;
#X connect 268 0 269 0;
#X connect 268 0 273 0;
#X connect 268 0 135 0;
#X connect 269 0 267 0;
#X connect 270 0 261 0;
#X connect 270 0 264 0;
#X connect 270 0 271 0;
#X connect 270 0 135 0;
#X connect 275 0 276 0;
#X connect 275 0 281 0;
#X connect 276 0 175 0;
#X connect 277 0 278 1;
#X connect 278 0 275 0;
#X connect 278 0 279 0;
#X connect 278 0 280 0;
#X connect 278 0 135 0;
#X connect 279 0 277 0;
#X connect 282 0 12 0;
#X connect 283 0 83 0;
#X connect 284 0 4 0;
