#N canvas 0 47 1920 1031 10;
#X obj 216 677 line;
#X obj 150 636 +;
#X msg 150 610 1.5;
#X floatatom 216 636 5 0 0 0 - - -;
#X msg 216 610 0;
#X msg 150 660 \$1 300;
#X obj 268 677 line;
#X msg 327 652 1 150;
#X msg 268 610 1;
#X msg 268 652 1.5 150;
#X msg 388 538 stop;
#X obj 327 593 metro 900;
#X msg 268 539 bang;
#X obj 228 974 send OSC_MESSAGES;
#X msg 41 715 /DunjonDoor1/Xpos \$1;
#X msg 41 736 /DunjonDoor1Cadre/Xpos \$1;
#X msg 87 821 /DunjonDoor3/Xpos \$1;
#X msg 87 842 /DunjonDoor3Cadre/Xpos \$1;
#X msg 41 778 /DunjonDoor2/Xpos \$1;
#X msg 41 799 /DunjonDoor2Cadre/Xpos \$1;
#X msg 268 763 /DunjonDoor1/Ypos \$1;
#X msg 268 784 /DunjonDoor1Cadre/Ypos \$1;
#X msg 268 805 /DunjonDoor2/Ypos \$1;
#X msg 268 826 /DunjonDoor2Cadre/Ypos \$1;
#X msg 268 847 /DunjonDoor3/Ypos \$1;
#X msg 268 868 /DunjonDoor3Cadre/Ypos \$1;
#X obj 327 626 delay 150;
#X obj 388 694 sel 10.5;
#X obj 59 561 comment 0 10 helvetica ? 0 0 0 0 Déplacement vers cour
;
#X msg 268 889 /DunjonDoor4/Ypos \$1;
#X msg 268 910 /DunjonDoor4Cadre/Ypos \$1;
#X msg 268 931 /DunjonDoor5/Ypos \$1;
#X msg 268 952 /DunjonDoor5Cadre/Ypos \$1;
#X obj 41 694 - 4;
#X obj 41 757 - 2;
#X obj 42 847 + 2;
#X obj 42 910 + 4;
#X msg 42 868 /DunjonDoor4/Xpos \$1;
#X msg 42 889 /DunjonDoor4Cadre/Xpos \$1;
#X msg 42 931 /DunjonDoor5/Xpos \$1;
#X msg 42 952 /DunjonDoor5Cadre/Xpos \$1;
#X connect 0 0 16 0;
#X connect 0 0 17 0;
#X connect 0 0 27 0;
#X connect 0 0 33 0;
#X connect 0 0 34 0;
#X connect 0 0 35 0;
#X connect 0 0 36 0;
#X connect 1 0 3 0;
#X connect 1 0 5 0;
#X connect 2 0 1 0;
#X connect 3 0 1 1;
#X connect 4 0 3 0;
#X connect 4 0 0 0;
#X connect 5 0 0 0;
#X connect 6 0 24 0;
#X connect 6 0 25 0;
#X connect 6 0 20 0;
#X connect 6 0 21 0;
#X connect 6 0 22 0;
#X connect 6 0 23 0;
#X connect 6 0 29 0;
#X connect 6 0 30 0;
#X connect 6 0 31 0;
#X connect 6 0 32 0;
#X connect 7 0 6 0;
#X connect 8 0 6 0;
#X connect 9 0 6 0;
#X connect 10 0 11 0;
#X connect 11 0 9 0;
#X connect 11 0 2 0;
#X connect 11 0 26 0;
#X connect 12 0 8 0;
#X connect 12 0 4 0;
#X connect 12 0 11 0;
#X connect 14 0 13 0;
#X connect 15 0 13 0;
#X connect 16 0 13 0;
#X connect 17 0 13 0;
#X connect 18 0 13 0;
#X connect 19 0 13 0;
#X connect 20 0 13 0;
#X connect 21 0 13 0;
#X connect 22 0 13 0;
#X connect 23 0 13 0;
#X connect 24 0 13 0;
#X connect 25 0 13 0;
#X connect 26 0 7 0;
#X connect 27 0 10 0;
#X connect 29 0 13 0;
#X connect 30 0 13 0;
#X connect 31 0 13 0;
#X connect 32 0 13 0;
#X connect 33 0 14 0;
#X connect 33 0 15 0;
#X connect 34 0 18 0;
#X connect 34 0 19 0;
#X connect 35 0 37 0;
#X connect 35 0 38 0;
#X connect 36 0 39 0;
#X connect 36 0 40 0;
#X connect 37 0 13 0;
#X connect 38 0 13 0;
#X connect 39 0 13 0;
#X connect 40 0 13 0;
