#N canvas 0 100 1440 800 10;
#X declare -path ./lib/sssad;
#X declare -path ./lib/sssad;
#X declare -path ./lib/sssad;
#X declare -path ./lib/sssad;
#X declare -path ./lib/sssad;
#X declare -path ./lib/sssad;
#X declare -path ./lib/sssad;
#X declare -path ./lib/sssad;
#X declare -path ./lib/sssad;
#X declare -path ./lib/sssad;
#X obj 50 54 zac.lumiere /DunjonDoor1 /DunjonContainer;
#X obj 51 242 zac.lumiere /DunjonDoor1Cadre /DunjonContainer;
#X obj 45 711 r DunjonBang;
#X obj 213 980 send OSC_MESSAGES;
#X msg 50 737 1;
#X obj 463 718 r DunjonBangOff;
#X msg 468 752 0;
#X msg 213 772 /DunjonDoor1/Activate \$1;
#X msg 213 791 /DunjonDoor1Cadre/Activate \$1;
#X obj 256 55 zac.lumiere /DunjonDoor2 /DunjonContainer;
#X obj 257 243 zac.lumiere /DunjonDoor2Cadre /DunjonContainer;
#X msg 213 811 /DunjonDoor2/Activate \$1;
#X msg 213 831 /DunjonDoor2Cadre/Activate \$1;
#X obj 484 55 zac.lumiere /DunjonDoor3 /DunjonContainer;
#X obj 485 243 zac.lumiere /DunjonDoor3Cadre /DunjonContainer;
#X msg 213 850 /DunjonDoor3/Activate \$1;
#X msg 213 870 /DunjonDoor3Cadre/Activate \$1;
#X obj 631 528 dunjonDoorsMove;
#X obj 702 53 zac.lumiere /DunjonDoor4 /DunjonContainer;
#X obj 930 53 zac.lumiere /DunjonDoor5 /DunjonContainer;
#X obj 703 241 zac.lumiere /DunjonDoor4Cadre /DunjonContainer;
#X obj 931 241 zac.lumiere /DunjonDoor5Cadre /DunjonContainer;
#X msg 213 890 /DunjonDoor4/Activate \$1;
#X msg 213 910 /DunjonDoor4Cadre/Activate \$1;
#X msg 213 929 /DunjonDoor5/Activate \$1;
#X msg 213 949 /DunjonDoor5Cadre/Activate \$1;
#X connect 2 0 4 0;
#X connect 4 0 7 0;
#X connect 4 0 8 0;
#X connect 4 0 11 0;
#X connect 4 0 12 0;
#X connect 4 0 15 0;
#X connect 4 0 16 0;
#X connect 4 0 22 0;
#X connect 4 0 23 0;
#X connect 4 0 24 0;
#X connect 4 0 25 0;
#X connect 5 0 6 0;
#X connect 6 0 7 0;
#X connect 6 0 8 0;
#X connect 6 0 11 0;
#X connect 6 0 12 0;
#X connect 6 0 15 0;
#X connect 6 0 16 0;
#X connect 6 0 22 0;
#X connect 6 0 23 0;
#X connect 6 0 24 0;
#X connect 6 0 25 0;
#X connect 7 0 3 0;
#X connect 8 0 3 0;
#X connect 11 0 3 0;
#X connect 12 0 3 0;
#X connect 15 0 3 0;
#X connect 16 0 3 0;
#X connect 22 0 3 0;
#X connect 23 0 3 0;
#X connect 24 0 3 0;
#X connect 25 0 3 0;
