#N canvas 0 94 1580 811 10;
#X obj 527 280 line;
#X msg 677 214 \$1 400;
#X obj 774 143 delay 400;
#X msg 774 212 0;
#X obj 828 188 delay 5;
#X obj 527 608 send OSC_MESSAGES;
#X msg 873 281 1;
#X floatatom 629 205 5 0 0 0 - - -;
#X obj 774 775 send OSC_MESSAGES;
#X obj 449 0 r DunjonCineticPissOff;
#X obj 1080 567 send OSC_MESSAGES;
#X obj 605 34 bng 15 250 50 0 empty empty empty 17 7 0 10 -262144 -1
-1;
#X obj 837 9 t b b b b b;
#X obj 707 165 + 20;
#X msg 1080 73 /Cochon/Child/Xpos 1;
#X msg 1080 93 /CochonLights/Child/Xpos 1;
#X msg 1080 113 /Djbebe/Child/Xpos 1;
#X msg 1080 132 /CuveGaloot/Child/Xpos 1;
#X msg 1080 152 /CuveGalootContent/Child/Xpos 1;
#X msg 1080 172 /CuveGalootContent2/Child/Xpos 1;
#X msg 1080 191 /Djventilo/Child/Xpos 1;
#X msg 1080 211 /DjventiloPales/Child/Xpos 1;
#X msg 1080 230 /WashMachine/Child/Xpos 1;
#X msg 1080 250 /WashMachineButtons/Child/Xpos 1;
#X msg 1080 282 /Tube/Child/Xpos 1;
#X msg 774 351 /Cochon/Activate \$1;
#X msg 774 372 /CochonLights/Activate \$1;
#X msg 774 392 /Djbebe/Activate \$1;
#X msg 774 411 /CuveGaloot/Activate \$1;
#X msg 774 431 /CuveGalootContent/Activate \$1;
#X msg 774 451 /CuveGalootContent2/Activate \$1;
#X msg 774 470 /Djventilo/Activate \$1;
#X msg 774 490 /DjventiloPales/Activate \$1;
#X msg 774 510 /WashMachine/Activate \$1;
#X msg 774 529 /WashMachineButtons/Activate \$1;
#X msg 774 553 /Tube/Activate \$1;
#X obj 666 298 s DunjonBangOff;
#X msg 774 574 /DunjonDoor*/Activate \$1;
#X msg 1080 376 /DunjonDoor*/Child/Xpos 1;
#X obj 900 327 s DummyScrollToCourParent;
#X obj 629 75 value /DummyScrollToCour/Xpos;
#X msg 1330 420 /DunjonDoor*/ParentName /DummyScrollToCour;
#X msg 1330 26 bang;
#X msg 1330 219 /Cochon/ParentName /DummyScrollToCour;
#X msg 1330 239 /CochonLights/ParentName /DummyScrollToCour;
#X msg 1330 259 /Djbebe/ParentName /DummyScrollToCour;
#X msg 1330 278 /CuveGaloot/ParentName /DummyScrollToCour;
#X msg 1330 298 /CuveGalootContent/ParentName /DummyScrollToCour;
#X msg 1330 318 /CuveGalootContent2/ParentName /DummyScrollToCour;
#X msg 1330 337 /Djventilo/ParentName /DummyScrollToCour;
#X msg 1330 357 /DjventiloPales/ParentName /DummyScrollToCour;
#X msg 1330 376 /WashMachine/ParentName /DummyScrollToCour;
#X msg 1330 396 /WashMachineButtons/ParentName /DummyScrollToCour;
#X msg 527 353 /DummyScrollToCour/Xpos \$1;
#X obj 190 205 delay 100;
#X msg 190 249 /Cochon/ParentName /Dummy;
#X msg 190 269 /CochonLights/ParentName /Dummy;
#X msg 190 289 /Djbebe/ParentName /Dummy;
#X msg 190 308 /CuveGaloot/ParentName /Dummy;
#X msg 190 328 /CuveGalootContent/ParentName /Dummy;
#X msg 190 348 /CuveGalootContent2/ParentName /Dummy;
#X msg 190 367 /Djventilo/ParentName /Dummy;
#X msg 190 387 /DjventiloPales/ParentName /Dummy;
#X msg 190 406 /WashMachine/ParentName /Dummy;
#X msg 190 426 /WashMachineButtons/ParentName /Dummy;
#X msg 190 450 /DunjonDoor*/ParentName /Dummy;
#X msg 1330 440 /Tube/ParentName /DummyScrollToCour;
#X msg 190 470 /Tube/ParentName /Dummy;
#X connect 0 0 53 0;
#X connect 1 0 0 0;
#X connect 2 0 3 0;
#X connect 2 0 4 0;
#X connect 2 0 36 0;
#X connect 3 0 25 0;
#X connect 3 0 26 0;
#X connect 3 0 27 0;
#X connect 3 0 28 0;
#X connect 3 0 29 0;
#X connect 3 0 30 0;
#X connect 3 0 31 0;
#X connect 3 0 32 0;
#X connect 3 0 33 0;
#X connect 3 0 34 0;
#X connect 3 0 35 0;
#X connect 3 0 37 0;
#X connect 4 0 7 0;
#X connect 4 0 54 0;
#X connect 6 0 25 0;
#X connect 6 0 26 0;
#X connect 6 0 27 0;
#X connect 6 0 28 0;
#X connect 6 0 29 0;
#X connect 6 0 30 0;
#X connect 6 0 31 0;
#X connect 6 0 32 0;
#X connect 6 0 33 0;
#X connect 6 0 34 0;
#X connect 6 0 35 0;
#X connect 6 0 37 0;
#X connect 7 0 0 0;
#X connect 9 0 11 0;
#X connect 11 0 12 0;
#X connect 12 2 2 0;
#X connect 12 3 40 0;
#X connect 12 4 14 0;
#X connect 12 4 15 0;
#X connect 12 4 16 0;
#X connect 12 4 17 0;
#X connect 12 4 18 0;
#X connect 12 4 19 0;
#X connect 12 4 20 0;
#X connect 12 4 21 0;
#X connect 12 4 22 0;
#X connect 12 4 23 0;
#X connect 12 4 24 0;
#X connect 12 4 38 0;
#X connect 12 4 39 0;
#X connect 12 4 42 0;
#X connect 13 0 1 0;
#X connect 14 0 10 0;
#X connect 15 0 10 0;
#X connect 16 0 10 0;
#X connect 17 0 10 0;
#X connect 18 0 10 0;
#X connect 19 0 10 0;
#X connect 20 0 10 0;
#X connect 21 0 10 0;
#X connect 22 0 10 0;
#X connect 23 0 10 0;
#X connect 24 0 10 0;
#X connect 25 0 8 0;
#X connect 26 0 8 0;
#X connect 27 0 8 0;
#X connect 28 0 8 0;
#X connect 29 0 8 0;
#X connect 30 0 8 0;
#X connect 31 0 8 0;
#X connect 32 0 8 0;
#X connect 33 0 8 0;
#X connect 34 0 8 0;
#X connect 35 0 8 0;
#X connect 37 0 8 0;
#X connect 38 0 10 0;
#X connect 40 0 7 0;
#X connect 40 0 13 0;
#X connect 41 0 10 0;
#X connect 42 0 43 0;
#X connect 42 0 44 0;
#X connect 42 0 45 0;
#X connect 42 0 46 0;
#X connect 42 0 47 0;
#X connect 42 0 48 0;
#X connect 42 0 49 0;
#X connect 42 0 50 0;
#X connect 42 0 51 0;
#X connect 42 0 52 0;
#X connect 42 0 41 0;
#X connect 42 0 66 0;
#X connect 43 0 10 0;
#X connect 44 0 10 0;
#X connect 45 0 10 0;
#X connect 46 0 10 0;
#X connect 47 0 10 0;
#X connect 48 0 10 0;
#X connect 49 0 10 0;
#X connect 50 0 10 0;
#X connect 51 0 10 0;
#X connect 52 0 10 0;
#X connect 53 0 5 0;
#X connect 54 0 55 0;
#X connect 54 0 56 0;
#X connect 54 0 57 0;
#X connect 54 0 58 0;
#X connect 54 0 59 0;
#X connect 54 0 60 0;
#X connect 54 0 61 0;
#X connect 54 0 62 0;
#X connect 54 0 63 0;
#X connect 54 0 64 0;
#X connect 54 0 65 0;
#X connect 54 0 67 0;
#X connect 55 0 5 0;
#X connect 56 0 5 0;
#X connect 57 0 5 0;
#X connect 58 0 5 0;
#X connect 59 0 5 0;
#X connect 60 0 5 0;
#X connect 61 0 5 0;
#X connect 62 0 5 0;
#X connect 63 0 5 0;
#X connect 64 0 5 0;
#X connect 65 0 5 0;
#X connect 66 0 10 0;
#X connect 67 0 5 0;
