#N canvas 0 46 1920 1031 10;
#X declare -path ./lib/sssad;
#X declare -path ./lib/sssad;
#X declare -path ./lib/sssad;
#X declare -path ./lib/sssad;
#X declare -path ./lib/sssad;
#X declare -path ./lib/sssad;
#X obj 50 54 zac.lumiere /DunjonDoor1;
#X obj 51 242 zac.lumiere /DunjonDoor1Cadre;
#X obj 45 711 r DunjonBang;
#X obj 213 954 send OSC_MESSAGES;
#X msg 50 737 1;
#X obj 463 718 r DunjonBangOff;
#X msg 468 752 0;
#X msg 213 772 /DunjonDoor1/Activate \$1;
#X msg 213 791 /DunjonDoor1Cadre/Activate \$1;
#X obj 296 57 zac.lumiere /DunjonDoor2;
#X obj 297 245 zac.lumiere /DunjonDoor2Cadre;
#X msg 213 811 /DunjonDoor2/Activate \$1;
#X msg 213 831 /DunjonDoor2Cadre/Activate \$1;
#X obj 525 56 zac.lumiere /DunjonDoor3;
#X obj 526 244 zac.lumiere /DunjonDoor3Cadre;
#X msg 213 850 /DunjonDoor3/Activate \$1;
#X msg 213 870 /DunjonDoor3Cadre/Activate \$1;
#X connect 2 0 4 0;
#X connect 4 0 7 0;
#X connect 4 0 8 0;
#X connect 4 0 11 0;
#X connect 4 0 12 0;
#X connect 4 0 15 0;
#X connect 4 0 16 0;
#X connect 5 0 6 0;
#X connect 6 0 7 0;
#X connect 6 0 8 0;
#X connect 6 0 11 0;
#X connect 6 0 12 0;
#X connect 6 0 15 0;
#X connect 6 0 16 0;
#X connect 7 0 3 0;
#X connect 8 0 3 0;
#X connect 11 0 3 0;
#X connect 12 0 3 0;
#X connect 15 0 3 0;
#X connect 16 0 3 0;
