#N canvas 0 99 1440 800 10;
#X declare -path ./lib/sssad;
#X declare -path ./lib/sssad;
#X declare -path ./lib/sssad;
#X declare -path ./lib/sssad;
#X declare -path ./lib/sssad;
#X declare -path ./lib/sssad;
#X declare -path ./lib/sssad;
#X declare -path ./lib/sssad;
#X declare -path ./lib/sssad;
#X declare -path ./lib/sssad;
#X declare -path ./lib/sssad;
#X declare -path ./lib/sssad;
#X declare -path ./lib/sssad;
#X declare -path ./lib/sssad;
#X declare -path ./lib/sssad;
#X declare -path ./lib/sssad;
#X declare -path ./lib/sssad;
#X declare -path ./lib/sssad;
#X declare -path ./lib/sssad;
#X declare -path ./lib/sssad;
#X declare -path ./lib/sssad;
#X declare -path ./lib/sssad;
#X obj 7 -54 zac.lumiere /Cochon /DunjonContainer;
#X obj 7 120 zac.lumiere /CochonLights /DunjonContainer;
#X obj 7 297 zac.lumiere /Djbebe /DunjonContainer;
#X obj 30 512 zac.lumiere /Tube /DunjonContainer;
#X obj 518 -77 zac.lumiere /CuveGaloot /DunjonContainer;
#X obj 517 98 zac.lumiere /CuveGalootContent /DunjonContainer;
#X obj 528 315 zac.lumiere /CuveGalootContent2 /DunjonContainer;
#X obj 947 -135 zac.lumiere /Djventilo /DunjonContainer;
#X obj 963 85 zac.lumiere /DjventiloPales /DunjonContainer;
#X msg 930 531 2.8;
#X obj 794 556 random 10;
#X obj 910 609 +;
#X msg 774 488 bang;
#X msg 910 639 /CuveGalootContent/Yscale \$1;
#X obj 775 517 metro 100;
#X obj 1125 630 send OSC_MESSAGES;
#X msg 1084 606 /CuveGalootContent2/Yscale \$1;
#X obj 817 582 / 200;
#X obj 893 564 random 10;
#X obj 964 584 / 800;
#X msg 886 488 stop;
#X obj 1015 601 +;
#X obj 857 534 metro 100;
#X obj 501 651 send OSC_MESSAGES;
#X msg 414 624 /DjventiloPales/Rotate \$1;
#X msg 419 482 bang;
#X obj 482 586 line;
#X msg 421 555 0;
#X obj 456 552 delay 5;
#X obj 406 456 r DunjonBang;
#X obj 773 467 r DunjonBang;
#X msg 477 489 stop;
#X msg 1131 568 /Djbebe/Ypos \$1;
#X msg 1074 493 0.1;
#X obj 1090 529 +;
#X msg 601 536 0.57;
#X obj 609 587 +;
#X msg 655 611 /CochonLights/Alpha \$1;
#X obj 671 577 / 70;
#X obj 108 -123 dunjonDoors;
#X obj 1105 293 r DunjonBang;
#X obj 1273 578 send OSC_MESSAGES;
#X msg 1273 354 /Tube/Activate \$1;
#X msg 1273 373 /Cochon/Activate \$1;
#X msg 1273 393 /CochonLights/Activate \$1;
#X msg 1273 413 /Djbebe/Activate \$1;
#X msg 1273 452 /CuveGalootContent/Activate \$1;
#X msg 1273 472 /CuveGalootContent2/Activate \$1;
#X msg 1273 491 /Djventilo/Activate \$1;
#X msg 1273 511 /DjventiloPales/Activate \$1;
#X msg 1273 432 /CuveGaloot/Activate \$1;
#X msg 1110 319 1;
#X obj 1523 300 r DunjonBangOff;
#X msg 1528 334 0;
#X obj 438 522 metro 1000;
#X msg 504 554 360 1000;
#X obj 1332 -131 zac.lumiere /WashMachine /DunjonContainer;
#X obj 1333 77 zac.lumiere /WashMachineButtons /DunjonContainer;
#X msg 1273 530 /WashMachine/Activate \$1;
#X msg 1273 550 /WashMachineButtons/Activate \$1;
#X obj 225 -93 dunjonMoves;
#X obj 267 -57 zac.lumiere /DunjonContainer;
#N canvas 411 234 874 496 DunjonInit 1;
#N canvas 529 170 850 819 CochonInit 0;
#X obj 234 522 send OSC_MESSAGES;
#X obj 114 449 list prepend;
#X obj 71 43 bng 15 250 50 0 empty empty empty 17 7 0 10 -262144 -1
-1;
#X obj 114 472 l2s /;
#X msg 114 132 File;
#X obj 234 489 list;
#X msg 114 109 Zpos;
#X msg 114 326 RenderOrder;
#X msg 114 369 Yscale;
#X msg 114 389 Xscale;
#X msg 114 409 Ypos;
#X msg 114 429 Xpos;
#X msg 114 225 Blue;
#X msg 114 184 Red;
#X msg 114 205 Green;
#X msg 114 305 modeAlpha;
#X msg 114 348 Shape;
#X msg 114 245 Rotate;
#X msg 114 284 Alpha;
#X msg 114 264 Activate;
#X obj 71 62 t b b b;
#X obj 56 115 t b b b;
#X obj 56 309 t b b b;
#X obj 56 352 t b b b;
#X obj 56 372 t b b b;
#X obj 56 392 t b b b;
#X obj 56 412 t b b b;
#X obj 17 331 t b b b;
#X obj 16 288 t b b b;
#X obj 56 267 t b b b;
#X obj 56 247 t b b b;
#X obj 56 228 t b b b;
#X obj 56 208 t b b b;
#X obj 56 188 t b b b;
#X obj 56 167 t b b b;
#X msg 255 245 0;
#X msg 255 284 1;
#X msg 255 225 1;
#X msg 255 184 1;
#X msg 255 205 1;
#X msg 183 79 /Cochon;
#X obj 71 22 r DunjonInit;
#X msg 255 109 -3.01;
#X msg 255 132 /home/woii/2013_Sebkha-ChottGalootFormula_ThingFish/ThingFishVideoDecorum/Dunjon/data/2013_06_20_Donjon_Aquarium_Cochon.png
;
#X msg 255 326 -25;
#X msg 255 264 1;
#X msg 255 369 1.4;
#X msg 255 389 1.5;
#X msg 255 409 -1.67969;
#X msg 255 429 -0.453125;
#X connect 1 0 3 0;
#X connect 2 0 20 0;
#X connect 3 0 5 0;
#X connect 4 0 1 0;
#X connect 5 0 0 0;
#X connect 6 0 1 0;
#X connect 7 0 1 0;
#X connect 8 0 1 0;
#X connect 9 0 1 0;
#X connect 10 0 1 0;
#X connect 11 0 1 0;
#X connect 12 0 1 0;
#X connect 13 0 1 0;
#X connect 14 0 1 0;
#X connect 15 0 1 0;
#X connect 17 0 1 0;
#X connect 18 0 1 0;
#X connect 19 0 1 0;
#X connect 20 0 6 0;
#X connect 20 0 21 0;
#X connect 20 1 42 0;
#X connect 20 2 40 0;
#X connect 21 0 34 0;
#X connect 21 1 4 0;
#X connect 21 2 43 0;
#X connect 22 0 23 0;
#X connect 22 1 7 0;
#X connect 22 2 44 0;
#X connect 23 0 24 0;
#X connect 23 1 8 0;
#X connect 23 2 46 0;
#X connect 24 0 25 0;
#X connect 24 1 9 0;
#X connect 24 2 47 0;
#X connect 25 0 26 0;
#X connect 25 1 10 0;
#X connect 25 2 48 0;
#X connect 26 1 11 0;
#X connect 26 2 49 0;
#X connect 27 1 16 0;
#X connect 28 1 15 0;
#X connect 29 0 22 0;
#X connect 29 1 18 0;
#X connect 29 2 36 0;
#X connect 30 0 29 0;
#X connect 30 1 19 0;
#X connect 30 2 45 0;
#X connect 31 0 30 0;
#X connect 31 1 17 0;
#X connect 31 2 35 0;
#X connect 32 0 31 0;
#X connect 32 1 12 0;
#X connect 32 2 37 0;
#X connect 33 0 32 0;
#X connect 33 1 14 0;
#X connect 33 2 39 0;
#X connect 34 0 33 0;
#X connect 34 1 13 0;
#X connect 34 2 38 0;
#X connect 35 0 5 1;
#X connect 36 0 5 1;
#X connect 37 0 5 1;
#X connect 38 0 5 1;
#X connect 39 0 5 1;
#X connect 40 0 1 1;
#X connect 41 0 2 0;
#X connect 42 0 5 1;
#X connect 43 0 5 1;
#X connect 44 0 5 1;
#X connect 45 0 5 1;
#X connect 46 0 5 1;
#X connect 47 0 5 1;
#X connect 48 0 5 1;
#X connect 49 0 5 1;
#X restore 15 25 pd CochonInit;
#N canvas 529 170 850 819 CochonLightsInit 0;
#X obj 234 522 send OSC_MESSAGES;
#X obj 114 449 list prepend;
#X obj 71 43 bng 15 250 50 0 empty empty empty 17 7 0 10 -262144 -1
-1;
#X obj 114 472 l2s /;
#X msg 114 132 File;
#X obj 234 489 list;
#X msg 114 109 Zpos;
#X msg 114 326 RenderOrder;
#X msg 114 369 Yscale;
#X msg 114 389 Xscale;
#X msg 114 409 Ypos;
#X msg 114 429 Xpos;
#X msg 114 225 Blue;
#X msg 114 184 Red;
#X msg 114 205 Green;
#X msg 114 305 modeAlpha;
#X msg 114 348 Shape;
#X msg 114 245 Rotate;
#X msg 114 284 Alpha;
#X msg 114 264 Activate;
#X obj 71 62 t b b b;
#X obj 56 115 t b b b;
#X obj 56 309 t b b b;
#X obj 56 352 t b b b;
#X obj 56 372 t b b b;
#X obj 56 392 t b b b;
#X obj 56 412 t b b b;
#X obj 17 331 t b b b;
#X obj 16 288 t b b b;
#X obj 56 267 t b b b;
#X obj 56 247 t b b b;
#X obj 56 228 t b b b;
#X obj 56 208 t b b b;
#X obj 56 188 t b b b;
#X obj 56 167 t b b b;
#X msg 255 245 0;
#X obj 71 22 r DunjonInit;
#X msg 255 109 -3.01;
#X msg 255 326 -25;
#X msg 255 264 1;
#X msg 255 369 1.4;
#X msg 255 389 1.5;
#X msg 255 409 -1.67969;
#X msg 255 429 -0.453125;
#X msg 183 79 /CochonLights;
#X msg 255 184 1;
#X msg 255 225 0.134228;
#X msg 255 205 0.147651;
#X msg 255 284 0.698571;
#X msg 255 132 /home/woii/2013_Sebkha-ChottGalootFormula_ThingFish/ThingFishVideoDecorum/Dunjon/data/2013_06_20_Donjon_Aquarium_Cochon_lumieres.png
;
#X connect 1 0 3 0;
#X connect 2 0 20 0;
#X connect 3 0 5 0;
#X connect 4 0 1 0;
#X connect 5 0 0 0;
#X connect 6 0 1 0;
#X connect 7 0 1 0;
#X connect 8 0 1 0;
#X connect 9 0 1 0;
#X connect 10 0 1 0;
#X connect 11 0 1 0;
#X connect 12 0 1 0;
#X connect 13 0 1 0;
#X connect 14 0 1 0;
#X connect 15 0 1 0;
#X connect 17 0 1 0;
#X connect 18 0 1 0;
#X connect 19 0 1 0;
#X connect 20 0 6 0;
#X connect 20 0 21 0;
#X connect 20 1 37 0;
#X connect 20 2 44 0;
#X connect 21 0 34 0;
#X connect 21 1 4 0;
#X connect 21 2 49 0;
#X connect 22 0 23 0;
#X connect 22 1 7 0;
#X connect 22 2 38 0;
#X connect 23 0 24 0;
#X connect 23 1 8 0;
#X connect 23 2 40 0;
#X connect 24 0 25 0;
#X connect 24 1 9 0;
#X connect 24 2 41 0;
#X connect 25 0 26 0;
#X connect 25 1 10 0;
#X connect 25 2 42 0;
#X connect 26 1 11 0;
#X connect 26 2 43 0;
#X connect 27 1 16 0;
#X connect 28 1 15 0;
#X connect 29 0 22 0;
#X connect 29 1 18 0;
#X connect 29 2 48 0;
#X connect 30 0 29 0;
#X connect 30 1 19 0;
#X connect 30 2 39 0;
#X connect 31 0 30 0;
#X connect 31 1 17 0;
#X connect 31 2 35 0;
#X connect 32 0 31 0;
#X connect 32 1 12 0;
#X connect 32 2 46 0;
#X connect 33 0 32 0;
#X connect 33 1 14 0;
#X connect 33 2 47 0;
#X connect 34 0 33 0;
#X connect 34 1 13 0;
#X connect 34 2 45 0;
#X connect 35 0 5 1;
#X connect 36 0 2 0;
#X connect 37 0 5 1;
#X connect 38 0 5 1;
#X connect 39 0 5 1;
#X connect 40 0 5 1;
#X connect 41 0 5 1;
#X connect 42 0 5 1;
#X connect 43 0 5 1;
#X connect 44 0 1 1;
#X connect 45 0 5 1;
#X connect 46 0 5 1;
#X connect 47 0 5 1;
#X connect 48 0 5 1;
#X connect 49 0 5 1;
#X restore 15 45 pd CochonLightsInit;
#N canvas 529 170 850 819 WashMachineInit 0;
#X obj 234 522 send OSC_MESSAGES;
#X obj 114 449 list prepend;
#X obj 71 43 bng 15 250 50 0 empty empty empty 17 7 0 10 -262144 -1
-1;
#X obj 114 472 l2s /;
#X msg 114 132 File;
#X obj 234 489 list;
#X msg 114 109 Zpos;
#X msg 114 326 RenderOrder;
#X msg 114 369 Yscale;
#X msg 114 389 Xscale;
#X msg 114 409 Ypos;
#X msg 114 429 Xpos;
#X msg 114 225 Blue;
#X msg 114 184 Red;
#X msg 114 205 Green;
#X msg 114 305 modeAlpha;
#X msg 114 348 Shape;
#X msg 114 245 Rotate;
#X msg 114 284 Alpha;
#X msg 114 264 Activate;
#X obj 71 62 t b b b;
#X obj 56 115 t b b b;
#X obj 56 309 t b b b;
#X obj 56 352 t b b b;
#X obj 56 372 t b b b;
#X obj 56 392 t b b b;
#X obj 56 412 t b b b;
#X obj 17 331 t b b b;
#X obj 16 288 t b b b;
#X obj 56 267 t b b b;
#X obj 56 247 t b b b;
#X obj 56 228 t b b b;
#X obj 56 208 t b b b;
#X obj 56 188 t b b b;
#X obj 56 167 t b b b;
#X msg 255 245 0;
#X obj 71 22 r DunjonInit;
#X msg 255 264 1;
#X msg 255 184 1;
#X msg 255 109 -3.02;
#X msg 183 79 /WashMachine;
#X msg 255 132 /home/woii/2013_Sebkha-ChottGalootFormula_ThingFish/ThingFishVideoDecorum/Dunjon/data/2013_06_20_Donjon_Machine_a_laver.png
;
#X msg 255 205 1;
#X msg 255 225 1;
#X msg 255 326 -26;
#X msg 255 284 1;
#X msg 255 369 2.3;
#X msg 255 389 2.4;
#X msg 255 409 -0.9;
#X msg 255 429 1.95;
#X connect 1 0 3 0;
#X connect 2 0 20 0;
#X connect 3 0 5 0;
#X connect 4 0 1 0;
#X connect 5 0 0 0;
#X connect 6 0 1 0;
#X connect 7 0 1 0;
#X connect 8 0 1 0;
#X connect 9 0 1 0;
#X connect 10 0 1 0;
#X connect 11 0 1 0;
#X connect 12 0 1 0;
#X connect 13 0 1 0;
#X connect 14 0 1 0;
#X connect 15 0 1 0;
#X connect 17 0 1 0;
#X connect 18 0 1 0;
#X connect 19 0 1 0;
#X connect 20 0 6 0;
#X connect 20 0 21 0;
#X connect 20 1 39 0;
#X connect 20 2 40 0;
#X connect 21 0 34 0;
#X connect 21 1 4 0;
#X connect 21 2 41 0;
#X connect 22 0 23 0;
#X connect 22 1 7 0;
#X connect 22 2 44 0;
#X connect 23 0 24 0;
#X connect 23 1 8 0;
#X connect 23 2 46 0;
#X connect 24 0 25 0;
#X connect 24 1 9 0;
#X connect 24 2 47 0;
#X connect 25 0 26 0;
#X connect 25 1 10 0;
#X connect 25 2 48 0;
#X connect 26 1 11 0;
#X connect 26 2 49 0;
#X connect 27 1 16 0;
#X connect 28 1 15 0;
#X connect 29 0 22 0;
#X connect 29 1 18 0;
#X connect 29 2 45 0;
#X connect 30 0 29 0;
#X connect 30 1 19 0;
#X connect 30 2 37 0;
#X connect 31 0 30 0;
#X connect 31 1 17 0;
#X connect 31 2 35 0;
#X connect 32 0 31 0;
#X connect 32 1 12 0;
#X connect 32 2 43 0;
#X connect 33 0 32 0;
#X connect 33 1 14 0;
#X connect 33 2 42 0;
#X connect 34 0 33 0;
#X connect 34 1 13 0;
#X connect 34 2 38 0;
#X connect 35 0 5 1;
#X connect 36 0 2 0;
#X connect 37 0 5 1;
#X connect 38 0 5 1;
#X connect 39 0 5 1;
#X connect 40 0 1 1;
#X connect 41 0 5 1;
#X connect 42 0 5 1;
#X connect 43 0 5 1;
#X connect 44 0 5 1;
#X connect 45 0 5 1;
#X connect 46 0 5 1;
#X connect 47 0 5 1;
#X connect 48 0 5 1;
#X connect 49 0 5 1;
#X restore 15 65 pd WashMachineInit;
#N canvas 529 169 850 819 DjbebeInit 0;
#X obj 234 522 send OSC_MESSAGES;
#X obj 114 449 list prepend;
#X obj 71 43 bng 15 250 50 0 empty empty empty 17 7 0 10 -262144 -1
-1;
#X obj 114 472 l2s /;
#X msg 114 132 File;
#X obj 234 489 list;
#X msg 114 109 Zpos;
#X msg 114 326 RenderOrder;
#X msg 114 369 Yscale;
#X msg 114 389 Xscale;
#X msg 114 409 Ypos;
#X msg 114 429 Xpos;
#X msg 114 225 Blue;
#X msg 114 184 Red;
#X msg 114 205 Green;
#X msg 114 305 modeAlpha;
#X msg 114 348 Shape;
#X msg 114 245 Rotate;
#X msg 114 284 Alpha;
#X msg 114 264 Activate;
#X obj 71 62 t b b b;
#X obj 56 115 t b b b;
#X obj 56 309 t b b b;
#X obj 56 352 t b b b;
#X obj 56 372 t b b b;
#X obj 56 392 t b b b;
#X obj 56 412 t b b b;
#X obj 17 331 t b b b;
#X obj 16 288 t b b b;
#X obj 56 267 t b b b;
#X obj 56 247 t b b b;
#X obj 56 228 t b b b;
#X obj 56 208 t b b b;
#X obj 56 188 t b b b;
#X obj 56 167 t b b b;
#X msg 255 245 0;
#X obj 71 22 r DunjonInit;
#X msg 255 264 1;
#X msg 255 184 1;
#X msg 255 109 -3.02;
#X msg 255 205 1;
#X msg 255 225 1;
#X msg 255 284 1;
#X msg 183 79 /Djbebe;
#X msg 255 132 /home/woii/2013_Sebkha-ChottGalootFormula_ThingFish/ThingFishVideoDecorum/Dunjon/data/2013_06_20_Donjon_Bebe.png
;
#X msg 255 326 -25;
#X msg 255 369 1.20187;
#X msg 255 389 1.9;
#X msg 255 409 0.10625;
#X msg 255 429 2.41406;
#X connect 1 0 3 0;
#X connect 2 0 20 0;
#X connect 3 0 5 0;
#X connect 4 0 1 0;
#X connect 5 0 0 0;
#X connect 6 0 1 0;
#X connect 7 0 1 0;
#X connect 8 0 1 0;
#X connect 9 0 1 0;
#X connect 10 0 1 0;
#X connect 11 0 1 0;
#X connect 12 0 1 0;
#X connect 13 0 1 0;
#X connect 14 0 1 0;
#X connect 15 0 1 0;
#X connect 17 0 1 0;
#X connect 18 0 1 0;
#X connect 19 0 1 0;
#X connect 20 0 6 0;
#X connect 20 0 21 0;
#X connect 20 1 39 0;
#X connect 20 2 43 0;
#X connect 21 0 34 0;
#X connect 21 1 4 0;
#X connect 21 2 44 0;
#X connect 22 0 23 0;
#X connect 22 1 7 0;
#X connect 22 2 45 0;
#X connect 23 0 24 0;
#X connect 23 1 8 0;
#X connect 23 2 46 0;
#X connect 24 0 25 0;
#X connect 24 1 9 0;
#X connect 24 2 47 0;
#X connect 25 0 26 0;
#X connect 25 1 10 0;
#X connect 25 2 48 0;
#X connect 26 1 11 0;
#X connect 26 2 49 0;
#X connect 27 1 16 0;
#X connect 28 1 15 0;
#X connect 29 0 22 0;
#X connect 29 1 18 0;
#X connect 29 2 42 0;
#X connect 30 0 29 0;
#X connect 30 1 19 0;
#X connect 30 2 37 0;
#X connect 31 0 30 0;
#X connect 31 1 17 0;
#X connect 31 2 35 0;
#X connect 32 0 31 0;
#X connect 32 1 12 0;
#X connect 32 2 41 0;
#X connect 33 0 32 0;
#X connect 33 1 14 0;
#X connect 33 2 40 0;
#X connect 34 0 33 0;
#X connect 34 1 13 0;
#X connect 34 2 38 0;
#X connect 35 0 5 1;
#X connect 36 0 2 0;
#X connect 37 0 5 1;
#X connect 38 0 5 1;
#X connect 39 0 5 1;
#X connect 40 0 5 1;
#X connect 41 0 5 1;
#X connect 42 0 5 1;
#X connect 43 0 1 1;
#X connect 44 0 5 1;
#X connect 45 0 5 1;
#X connect 46 0 5 1;
#X connect 47 0 5 1;
#X connect 48 0 5 1;
#X connect 49 0 5 1;
#X restore 15 85 pd DjbebeInit;
#N canvas 529 168 850 819 TubeInit 0;
#X obj 234 522 send OSC_MESSAGES;
#X obj 114 449 list prepend;
#X obj 71 43 bng 15 250 50 0 empty empty empty 17 7 0 10 -262144 -1
-1;
#X obj 114 472 l2s /;
#X msg 114 132 File;
#X obj 234 489 list;
#X msg 114 109 Zpos;
#X msg 114 326 RenderOrder;
#X msg 114 369 Yscale;
#X msg 114 389 Xscale;
#X msg 114 409 Ypos;
#X msg 114 429 Xpos;
#X msg 114 225 Blue;
#X msg 114 184 Red;
#X msg 114 205 Green;
#X msg 114 305 modeAlpha;
#X msg 114 348 Shape;
#X msg 114 245 Rotate;
#X msg 114 284 Alpha;
#X msg 114 264 Activate;
#X obj 71 62 t b b b;
#X obj 56 115 t b b b;
#X obj 56 309 t b b b;
#X obj 56 352 t b b b;
#X obj 56 372 t b b b;
#X obj 56 392 t b b b;
#X obj 56 412 t b b b;
#X obj 17 331 t b b b;
#X obj 16 288 t b b b;
#X obj 56 267 t b b b;
#X obj 56 247 t b b b;
#X obj 56 228 t b b b;
#X obj 56 208 t b b b;
#X obj 56 188 t b b b;
#X obj 56 167 t b b b;
#X obj 71 22 r DunjonInit;
#X msg 255 264 1;
#X msg 255 184 1;
#X msg 255 205 1;
#X msg 255 225 1;
#X msg 255 284 1;
#X msg 255 326 -25;
#X msg 183 79 /Tube;
#X msg 255 132 /home/woii/2013_Sebkha-ChottGalootFormula_ThingFish/ThingFishVideoDecorum/Dunjon/data/2013_06_20_Donjon_Crochet_tube_a_essais.png
;
#X msg 255 109 -3.039;
#X msg 255 245 180;
#X msg 255 369 0.8;
#X msg 255 389 0.8;
#X msg 255 409 1.77344;
#X msg 255 429 -5.02344;
#X connect 1 0 3 0;
#X connect 2 0 20 0;
#X connect 3 0 5 0;
#X connect 4 0 1 0;
#X connect 5 0 0 0;
#X connect 6 0 1 0;
#X connect 7 0 1 0;
#X connect 8 0 1 0;
#X connect 9 0 1 0;
#X connect 10 0 1 0;
#X connect 11 0 1 0;
#X connect 12 0 1 0;
#X connect 13 0 1 0;
#X connect 14 0 1 0;
#X connect 15 0 1 0;
#X connect 17 0 1 0;
#X connect 18 0 1 0;
#X connect 19 0 1 0;
#X connect 20 0 6 0;
#X connect 20 0 21 0;
#X connect 20 1 44 0;
#X connect 20 2 42 0;
#X connect 21 0 34 0;
#X connect 21 1 4 0;
#X connect 21 2 43 0;
#X connect 22 0 23 0;
#X connect 22 1 7 0;
#X connect 22 2 41 0;
#X connect 23 0 24 0;
#X connect 23 1 8 0;
#X connect 23 2 46 0;
#X connect 24 0 25 0;
#X connect 24 1 9 0;
#X connect 24 2 47 0;
#X connect 25 0 26 0;
#X connect 25 1 10 0;
#X connect 25 2 48 0;
#X connect 26 1 11 0;
#X connect 26 2 49 0;
#X connect 27 1 16 0;
#X connect 28 1 15 0;
#X connect 29 0 22 0;
#X connect 29 1 18 0;
#X connect 29 2 40 0;
#X connect 30 0 29 0;
#X connect 30 1 19 0;
#X connect 30 2 36 0;
#X connect 31 0 30 0;
#X connect 31 1 17 0;
#X connect 31 2 45 0;
#X connect 32 0 31 0;
#X connect 32 1 12 0;
#X connect 32 2 39 0;
#X connect 33 0 32 0;
#X connect 33 1 14 0;
#X connect 33 2 38 0;
#X connect 34 0 33 0;
#X connect 34 1 13 0;
#X connect 34 2 37 0;
#X connect 35 0 2 0;
#X connect 36 0 5 1;
#X connect 37 0 5 1;
#X connect 38 0 5 1;
#X connect 39 0 5 1;
#X connect 40 0 5 1;
#X connect 41 0 5 1;
#X connect 42 0 1 1;
#X connect 43 0 5 1;
#X connect 44 0 5 1;
#X connect 45 0 5 1;
#X connect 46 0 5 1;
#X connect 47 0 5 1;
#X connect 48 0 5 1;
#X connect 49 0 5 1;
#X restore 15 105 pd TubeInit;
#N canvas 529 164 850 819 CuveGalootInit 1;
#X obj 234 522 send OSC_MESSAGES;
#X obj 114 449 list prepend;
#X obj 71 43 bng 15 250 50 0 empty empty empty 17 7 0 10 -262144 -1
-1;
#X obj 114 472 l2s /;
#X msg 114 132 File;
#X obj 234 489 list;
#X msg 114 109 Zpos;
#X msg 114 326 RenderOrder;
#X msg 114 369 Yscale;
#X msg 114 389 Xscale;
#X msg 114 409 Ypos;
#X msg 114 429 Xpos;
#X msg 114 225 Blue;
#X msg 114 184 Red;
#X msg 114 205 Green;
#X msg 114 305 modeAlpha;
#X msg 114 348 Shape;
#X msg 114 245 Rotate;
#X msg 114 284 Alpha;
#X msg 114 264 Activate;
#X obj 71 62 t b b b;
#X obj 56 115 t b b b;
#X obj 56 309 t b b b;
#X obj 56 352 t b b b;
#X obj 56 372 t b b b;
#X obj 56 392 t b b b;
#X obj 56 412 t b b b;
#X obj 17 331 t b b b;
#X obj 16 288 t b b b;
#X obj 56 267 t b b b;
#X obj 56 247 t b b b;
#X obj 56 228 t b b b;
#X obj 56 208 t b b b;
#X obj 56 188 t b b b;
#X obj 56 167 t b b b;
#X obj 71 22 r DunjonInit;
#X msg 255 264 1;
#X msg 255 184 1;
#X msg 255 205 1;
#X msg 255 225 1;
#X msg 255 284 1;
#X msg 255 326 -25;
#X msg 183 79 /CuveGaloot;
#X msg 255 132 /home/woii/2013_Sebkha-ChottGalootFormula_ThingFish/ThingFishVideoDecorum/Dunjon/data/2013_06_20_Donjon_Cuve.png
;
#X msg 255 109 -3.011;
#X msg 255 369 2.8;
#X msg 255 389 3.40582;
#X msg 255 409 -0.351562;
#X msg 255 429 2.76562;
#X msg 255 245 0;
#X connect 1 0 3 0;
#X connect 2 0 20 0;
#X connect 3 0 5 0;
#X connect 4 0 1 0;
#X connect 5 0 0 0;
#X connect 6 0 1 0;
#X connect 7 0 1 0;
#X connect 8 0 1 0;
#X connect 9 0 1 0;
#X connect 10 0 1 0;
#X connect 11 0 1 0;
#X connect 12 0 1 0;
#X connect 13 0 1 0;
#X connect 14 0 1 0;
#X connect 15 0 1 0;
#X connect 17 0 1 0;
#X connect 18 0 1 0;
#X connect 19 0 1 0;
#X connect 20 0 6 0;
#X connect 20 0 21 0;
#X connect 20 1 44 0;
#X connect 20 2 42 0;
#X connect 21 0 34 0;
#X connect 21 1 4 0;
#X connect 21 2 43 0;
#X connect 22 0 23 0;
#X connect 22 1 7 0;
#X connect 22 2 41 0;
#X connect 23 0 24 0;
#X connect 23 1 8 0;
#X connect 23 2 45 0;
#X connect 24 0 25 0;
#X connect 24 1 9 0;
#X connect 24 2 46 0;
#X connect 25 0 26 0;
#X connect 25 1 10 0;
#X connect 25 2 47 0;
#X connect 26 1 11 0;
#X connect 26 2 48 0;
#X connect 27 1 16 0;
#X connect 28 1 15 0;
#X connect 29 0 22 0;
#X connect 29 1 18 0;
#X connect 29 2 40 0;
#X connect 30 0 29 0;
#X connect 30 1 19 0;
#X connect 30 2 36 0;
#X connect 31 0 30 0;
#X connect 31 1 17 0;
#X connect 31 2 49 0;
#X connect 32 0 31 0;
#X connect 32 1 12 0;
#X connect 32 2 39 0;
#X connect 33 0 32 0;
#X connect 33 1 14 0;
#X connect 33 2 38 0;
#X connect 34 0 33 0;
#X connect 34 1 13 0;
#X connect 34 2 37 0;
#X connect 35 0 2 0;
#X connect 36 0 5 1;
#X connect 37 0 5 1;
#X connect 38 0 5 1;
#X connect 39 0 5 1;
#X connect 40 0 5 1;
#X connect 41 0 5 1;
#X connect 42 0 1 1;
#X connect 43 0 5 1;
#X connect 44 0 5 1;
#X connect 45 0 5 1;
#X connect 46 0 5 1;
#X connect 47 0 5 1;
#X connect 48 0 5 1;
#X connect 49 0 5 1;
#X restore 15 125 pd CuveGalootInit;
#N canvas 529 163 850 819 CuveGalootContentInit 0;
#X obj 234 522 send OSC_MESSAGES;
#X obj 114 449 list prepend;
#X obj 71 43 bng 15 250 50 0 empty empty empty 17 7 0 10 -262144 -1
-1;
#X obj 114 472 l2s /;
#X msg 114 132 File;
#X obj 234 489 list;
#X msg 114 109 Zpos;
#X msg 114 326 RenderOrder;
#X msg 114 369 Yscale;
#X msg 114 389 Xscale;
#X msg 114 409 Ypos;
#X msg 114 429 Xpos;
#X msg 114 225 Blue;
#X msg 114 184 Red;
#X msg 114 205 Green;
#X msg 114 305 modeAlpha;
#X msg 114 348 Shape;
#X msg 114 245 Rotate;
#X msg 114 284 Alpha;
#X msg 114 264 Activate;
#X obj 71 62 t b b b;
#X obj 56 115 t b b b;
#X obj 56 309 t b b b;
#X obj 56 352 t b b b;
#X obj 56 372 t b b b;
#X obj 56 392 t b b b;
#X obj 56 412 t b b b;
#X obj 17 331 t b b b;
#X obj 16 288 t b b b;
#X obj 56 267 t b b b;
#X obj 56 247 t b b b;
#X obj 56 228 t b b b;
#X obj 56 208 t b b b;
#X obj 56 188 t b b b;
#X obj 56 167 t b b b;
#X obj 71 22 r DunjonInit;
#X msg 255 264 1;
#X msg 255 184 1;
#X msg 255 205 1;
#X msg 255 284 1;
#X msg 255 326 -25;
#X msg 255 389 3.40582;
#X msg 255 409 -0.351562;
#X msg 255 429 2.76562;
#X msg 183 79 /CuveGalootContent;
#X msg 255 132 /home/woii/2013_Sebkha-ChottGalootFormula_ThingFish/ThingFishVideoDecorum/Dunjon/data/2013_06_20_Donjon_Cuve_Galoot_Colognuh.png
;
#X msg 255 109 -3.01;
#X msg 255 245 0;
#X msg 255 369 2.8;
#X msg 255 225 1;
#X connect 1 0 3 0;
#X connect 2 0 20 0;
#X connect 3 0 5 0;
#X connect 4 0 1 0;
#X connect 5 0 0 0;
#X connect 6 0 1 0;
#X connect 7 0 1 0;
#X connect 8 0 1 0;
#X connect 9 0 1 0;
#X connect 10 0 1 0;
#X connect 11 0 1 0;
#X connect 12 0 1 0;
#X connect 13 0 1 0;
#X connect 14 0 1 0;
#X connect 15 0 1 0;
#X connect 17 0 1 0;
#X connect 18 0 1 0;
#X connect 19 0 1 0;
#X connect 20 0 6 0;
#X connect 20 0 21 0;
#X connect 20 1 46 0;
#X connect 20 2 44 0;
#X connect 21 0 34 0;
#X connect 21 1 4 0;
#X connect 21 2 45 0;
#X connect 22 0 23 0;
#X connect 22 1 7 0;
#X connect 22 2 40 0;
#X connect 23 0 24 0;
#X connect 23 1 8 0;
#X connect 23 2 48 0;
#X connect 24 0 25 0;
#X connect 24 1 9 0;
#X connect 24 2 41 0;
#X connect 25 0 26 0;
#X connect 25 1 10 0;
#X connect 25 2 42 0;
#X connect 26 1 11 0;
#X connect 26 2 43 0;
#X connect 27 1 16 0;
#X connect 28 1 15 0;
#X connect 29 0 22 0;
#X connect 29 1 18 0;
#X connect 29 2 39 0;
#X connect 30 0 29 0;
#X connect 30 1 19 0;
#X connect 30 2 36 0;
#X connect 31 0 30 0;
#X connect 31 1 17 0;
#X connect 31 2 47 0;
#X connect 32 0 31 0;
#X connect 32 1 12 0;
#X connect 32 2 49 0;
#X connect 33 0 32 0;
#X connect 33 1 14 0;
#X connect 33 2 38 0;
#X connect 34 0 33 0;
#X connect 34 1 13 0;
#X connect 34 2 37 0;
#X connect 35 0 2 0;
#X connect 36 0 5 1;
#X connect 37 0 5 1;
#X connect 38 0 5 1;
#X connect 39 0 5 1;
#X connect 40 0 5 1;
#X connect 41 0 5 1;
#X connect 42 0 5 1;
#X connect 43 0 5 1;
#X connect 44 0 1 1;
#X connect 45 0 5 1;
#X connect 46 0 5 1;
#X connect 47 0 5 1;
#X connect 48 0 5 1;
#X connect 49 0 5 1;
#X restore 15 145 pd CuveGalootContentInit;
#N canvas 529 164 850 819 CuveGalootContent2Init 0;
#X obj 234 522 send OSC_MESSAGES;
#X obj 114 449 list prepend;
#X obj 71 43 bng 15 250 50 0 empty empty empty 17 7 0 10 -262144 -1
-1;
#X obj 114 472 l2s /;
#X msg 114 132 File;
#X obj 234 489 list;
#X msg 114 109 Zpos;
#X msg 114 326 RenderOrder;
#X msg 114 369 Yscale;
#X msg 114 389 Xscale;
#X msg 114 409 Ypos;
#X msg 114 429 Xpos;
#X msg 114 225 Blue;
#X msg 114 184 Red;
#X msg 114 205 Green;
#X msg 114 305 modeAlpha;
#X msg 114 348 Shape;
#X msg 114 245 Rotate;
#X msg 114 284 Alpha;
#X msg 114 264 Activate;
#X obj 71 62 t b b b;
#X obj 56 115 t b b b;
#X obj 56 309 t b b b;
#X obj 56 352 t b b b;
#X obj 56 372 t b b b;
#X obj 56 392 t b b b;
#X obj 56 412 t b b b;
#X obj 17 331 t b b b;
#X obj 16 288 t b b b;
#X obj 56 267 t b b b;
#X obj 56 247 t b b b;
#X obj 56 228 t b b b;
#X obj 56 208 t b b b;
#X obj 56 188 t b b b;
#X obj 56 167 t b b b;
#X obj 71 22 r DunjonInit;
#X msg 255 264 1;
#X msg 255 184 1;
#X msg 255 205 1;
#X msg 255 284 1;
#X msg 255 326 -25;
#X msg 255 389 3.40582;
#X msg 255 409 -0.351562;
#X msg 255 429 2.76562;
#X msg 255 109 -3.01;
#X msg 255 245 0;
#X msg 183 79 /CuveGalootContent2;
#X msg 255 132 /home/woii/2013_Sebkha-ChottGalootFormula_ThingFish/ThingFishVideoDecorum/Dunjon/data/2013_06_20_Donjon_Cuve_Galoot_Colognuh2.png
;
#X msg 255 369 2.8;
#X msg 255 225 1;
#X connect 1 0 3 0;
#X connect 2 0 20 0;
#X connect 3 0 5 0;
#X connect 4 0 1 0;
#X connect 5 0 0 0;
#X connect 6 0 1 0;
#X connect 7 0 1 0;
#X connect 8 0 1 0;
#X connect 9 0 1 0;
#X connect 10 0 1 0;
#X connect 11 0 1 0;
#X connect 12 0 1 0;
#X connect 13 0 1 0;
#X connect 14 0 1 0;
#X connect 15 0 1 0;
#X connect 17 0 1 0;
#X connect 18 0 1 0;
#X connect 19 0 1 0;
#X connect 20 0 6 0;
#X connect 20 0 21 0;
#X connect 20 1 44 0;
#X connect 20 2 46 0;
#X connect 21 0 34 0;
#X connect 21 1 4 0;
#X connect 21 2 47 0;
#X connect 22 0 23 0;
#X connect 22 1 7 0;
#X connect 22 2 40 0;
#X connect 23 0 24 0;
#X connect 23 1 8 0;
#X connect 23 2 48 0;
#X connect 24 0 25 0;
#X connect 24 1 9 0;
#X connect 24 2 41 0;
#X connect 25 0 26 0;
#X connect 25 1 10 0;
#X connect 25 2 42 0;
#X connect 26 1 11 0;
#X connect 26 2 43 0;
#X connect 27 1 16 0;
#X connect 28 1 15 0;
#X connect 29 0 22 0;
#X connect 29 1 18 0;
#X connect 29 2 39 0;
#X connect 30 0 29 0;
#X connect 30 1 19 0;
#X connect 30 2 36 0;
#X connect 31 0 30 0;
#X connect 31 1 17 0;
#X connect 31 2 45 0;
#X connect 32 0 31 0;
#X connect 32 1 12 0;
#X connect 32 2 49 0;
#X connect 33 0 32 0;
#X connect 33 1 14 0;
#X connect 33 2 38 0;
#X connect 34 0 33 0;
#X connect 34 1 13 0;
#X connect 34 2 37 0;
#X connect 35 0 2 0;
#X connect 36 0 5 1;
#X connect 37 0 5 1;
#X connect 38 0 5 1;
#X connect 39 0 5 1;
#X connect 40 0 5 1;
#X connect 41 0 5 1;
#X connect 42 0 5 1;
#X connect 43 0 5 1;
#X connect 44 0 5 1;
#X connect 45 0 5 1;
#X connect 46 0 1 1;
#X connect 47 0 5 1;
#X connect 48 0 5 1;
#X connect 49 0 5 1;
#X restore 15 165 pd CuveGalootContent2Init;
#N canvas 529 164 850 819 DjventiloInit 0;
#X obj 234 522 send OSC_MESSAGES;
#X obj 114 449 list prepend;
#X obj 71 43 bng 15 250 50 0 empty empty empty 17 7 0 10 -262144 -1
-1;
#X obj 114 472 l2s /;
#X msg 114 132 File;
#X obj 234 489 list;
#X msg 114 109 Zpos;
#X msg 114 326 RenderOrder;
#X msg 114 369 Yscale;
#X msg 114 389 Xscale;
#X msg 114 409 Ypos;
#X msg 114 429 Xpos;
#X msg 114 225 Blue;
#X msg 114 184 Red;
#X msg 114 205 Green;
#X msg 114 305 modeAlpha;
#X msg 114 348 Shape;
#X msg 114 245 Rotate;
#X msg 114 284 Alpha;
#X msg 114 264 Activate;
#X obj 71 62 t b b b;
#X obj 56 115 t b b b;
#X obj 56 309 t b b b;
#X obj 56 352 t b b b;
#X obj 56 372 t b b b;
#X obj 56 392 t b b b;
#X obj 56 412 t b b b;
#X obj 17 331 t b b b;
#X obj 16 288 t b b b;
#X obj 56 267 t b b b;
#X obj 56 247 t b b b;
#X obj 56 228 t b b b;
#X obj 56 208 t b b b;
#X obj 56 188 t b b b;
#X obj 56 167 t b b b;
#X obj 71 22 r DunjonInit;
#X msg 255 264 1;
#X msg 255 184 1;
#X msg 255 205 1;
#X msg 255 284 1;
#X msg 255 326 -25;
#X msg 255 225 0;
#X msg 255 245 0;
#X msg 255 132 /home/woii/2013_Sebkha-ChottGalootFormula_ThingFish/ThingFishVideoDecorum/Dunjon/data/2013_06_20_Donjon_Ventilo.png
;
#X msg 255 109 -3.011;
#X msg 255 369 0.385294;
#X msg 255 389 0.448248;
#X msg 255 409 1.23438;
#X msg 255 429 -0.554687;
#X msg 183 79 /Djventilo;
#X connect 1 0 3 0;
#X connect 2 0 20 0;
#X connect 3 0 5 0;
#X connect 4 0 1 0;
#X connect 5 0 0 0;
#X connect 6 0 1 0;
#X connect 7 0 1 0;
#X connect 8 0 1 0;
#X connect 9 0 1 0;
#X connect 10 0 1 0;
#X connect 11 0 1 0;
#X connect 12 0 1 0;
#X connect 13 0 1 0;
#X connect 14 0 1 0;
#X connect 15 0 1 0;
#X connect 17 0 1 0;
#X connect 18 0 1 0;
#X connect 19 0 1 0;
#X connect 20 0 6 0;
#X connect 20 0 21 0;
#X connect 20 1 44 0;
#X connect 20 2 49 0;
#X connect 21 0 34 0;
#X connect 21 1 4 0;
#X connect 21 2 43 0;
#X connect 22 0 23 0;
#X connect 22 1 7 0;
#X connect 22 2 40 0;
#X connect 23 0 24 0;
#X connect 23 1 8 0;
#X connect 23 2 45 0;
#X connect 24 0 25 0;
#X connect 24 1 9 0;
#X connect 24 2 46 0;
#X connect 25 0 26 0;
#X connect 25 1 10 0;
#X connect 25 2 47 0;
#X connect 26 1 11 0;
#X connect 26 2 48 0;
#X connect 27 1 16 0;
#X connect 28 1 15 0;
#X connect 29 0 22 0;
#X connect 29 1 18 0;
#X connect 29 2 39 0;
#X connect 30 0 29 0;
#X connect 30 1 19 0;
#X connect 30 2 36 0;
#X connect 31 0 30 0;
#X connect 31 1 17 0;
#X connect 31 2 42 0;
#X connect 32 0 31 0;
#X connect 32 1 12 0;
#X connect 32 2 41 0;
#X connect 33 0 32 0;
#X connect 33 1 14 0;
#X connect 33 2 38 0;
#X connect 34 0 33 0;
#X connect 34 1 13 0;
#X connect 34 2 37 0;
#X connect 35 0 2 0;
#X connect 36 0 5 1;
#X connect 37 0 5 1;
#X connect 38 0 5 1;
#X connect 39 0 5 1;
#X connect 40 0 5 1;
#X connect 41 0 5 1;
#X connect 42 0 5 1;
#X connect 43 0 5 1;
#X connect 44 0 5 1;
#X connect 45 0 5 1;
#X connect 46 0 5 1;
#X connect 47 0 5 1;
#X connect 48 0 5 1;
#X connect 49 0 1 1;
#X restore 15 185 pd DjventiloInit;
#N canvas 529 162 850 819 DjventiloPalesInit 0;
#X obj 234 522 send OSC_MESSAGES;
#X obj 114 449 list prepend;
#X obj 71 43 bng 15 250 50 0 empty empty empty 17 7 0 10 -262144 -1
-1;
#X obj 114 472 l2s /;
#X msg 114 132 File;
#X obj 234 489 list;
#X msg 114 109 Zpos;
#X msg 114 326 RenderOrder;
#X msg 114 369 Yscale;
#X msg 114 389 Xscale;
#X msg 114 409 Ypos;
#X msg 114 429 Xpos;
#X msg 114 225 Blue;
#X msg 114 184 Red;
#X msg 114 205 Green;
#X msg 114 305 modeAlpha;
#X msg 114 348 Shape;
#X msg 114 245 Rotate;
#X msg 114 284 Alpha;
#X msg 114 264 Activate;
#X obj 71 62 t b b b;
#X obj 56 115 t b b b;
#X obj 56 309 t b b b;
#X obj 56 352 t b b b;
#X obj 56 372 t b b b;
#X obj 56 392 t b b b;
#X obj 56 412 t b b b;
#X obj 17 331 t b b b;
#X obj 16 288 t b b b;
#X obj 56 267 t b b b;
#X obj 56 247 t b b b;
#X obj 56 228 t b b b;
#X obj 56 208 t b b b;
#X obj 56 188 t b b b;
#X obj 56 167 t b b b;
#X obj 71 22 r DunjonInit;
#X msg 255 264 1;
#X msg 255 184 1;
#X msg 255 205 1;
#X msg 255 284 1;
#X msg 255 326 -25;
#X msg 183 79 /DjventiloPales;
#X msg 255 132 /home/woii/2013_Sebkha-ChottGalootFormula_ThingFish/ThingFishVideoDecorum/Dunjon/data/2013_06_20_Donjon_Ventilo_ailerons.png
;
#X msg 255 109 -3.01;
#X msg 255 245 360;
#X msg 255 369 0.5;
#X msg 255 389 0.5;
#X msg 255 409 1.23;
#X msg 255 429 -0.55;
#X msg 255 225 1;
#X connect 1 0 3 0;
#X connect 2 0 20 0;
#X connect 3 0 5 0;
#X connect 4 0 1 0;
#X connect 5 0 0 0;
#X connect 6 0 1 0;
#X connect 7 0 1 0;
#X connect 8 0 1 0;
#X connect 9 0 1 0;
#X connect 10 0 1 0;
#X connect 11 0 1 0;
#X connect 12 0 1 0;
#X connect 13 0 1 0;
#X connect 14 0 1 0;
#X connect 15 0 1 0;
#X connect 17 0 1 0;
#X connect 18 0 1 0;
#X connect 19 0 1 0;
#X connect 20 0 6 0;
#X connect 20 0 21 0;
#X connect 20 1 43 0;
#X connect 20 2 41 0;
#X connect 21 0 34 0;
#X connect 21 1 4 0;
#X connect 21 2 42 0;
#X connect 22 0 23 0;
#X connect 22 1 7 0;
#X connect 22 2 40 0;
#X connect 23 0 24 0;
#X connect 23 1 8 0;
#X connect 23 2 45 0;
#X connect 24 0 25 0;
#X connect 24 1 9 0;
#X connect 24 2 46 0;
#X connect 25 0 26 0;
#X connect 25 1 10 0;
#X connect 25 2 47 0;
#X connect 26 1 11 0;
#X connect 26 2 48 0;
#X connect 27 1 16 0;
#X connect 28 1 15 0;
#X connect 29 0 22 0;
#X connect 29 1 18 0;
#X connect 29 2 39 0;
#X connect 30 0 29 0;
#X connect 30 1 19 0;
#X connect 30 2 36 0;
#X connect 31 0 30 0;
#X connect 31 1 17 0;
#X connect 31 2 44 0;
#X connect 32 0 31 0;
#X connect 32 1 12 0;
#X connect 32 2 49 0;
#X connect 33 0 32 0;
#X connect 33 1 14 0;
#X connect 33 2 38 0;
#X connect 34 0 33 0;
#X connect 34 1 13 0;
#X connect 34 2 37 0;
#X connect 35 0 2 0;
#X connect 36 0 5 1;
#X connect 37 0 5 1;
#X connect 38 0 5 1;
#X connect 39 0 5 1;
#X connect 40 0 5 1;
#X connect 41 0 1 1;
#X connect 42 0 5 1;
#X connect 43 0 5 1;
#X connect 44 0 5 1;
#X connect 45 0 5 1;
#X connect 46 0 5 1;
#X connect 47 0 5 1;
#X connect 48 0 5 1;
#X connect 49 0 5 1;
#X restore 15 205 pd DjventiloPalesInit;
#N canvas 529 160 850 819 DunjonDoorsInit 0;
#X obj 234 562 send OSC_MESSAGES;
#X obj 114 489 list prepend;
#X obj 71 43 bng 15 250 50 0 empty empty empty 17 7 0 10 -262144 -1
-1;
#X obj 114 512 l2s /;
#X msg 114 172 File;
#X obj 234 529 list;
#X msg 114 149 Zpos;
#X msg 114 366 RenderOrder;
#X msg 114 409 Yscale;
#X msg 114 429 Xscale;
#X msg 114 449 Ypos;
#X msg 114 469 Xpos;
#X msg 114 265 Blue;
#X msg 114 224 Red;
#X msg 114 245 Green;
#X msg 114 345 modeAlpha;
#X msg 114 388 Shape;
#X msg 114 285 Rotate;
#X msg 114 324 Alpha;
#X msg 114 304 Activate;
#X obj 71 102 t b b b;
#X obj 56 155 t b b b;
#X obj 56 349 t b b b;
#X obj 56 392 t b b b;
#X obj 56 412 t b b b;
#X obj 56 432 t b b b;
#X obj 56 452 t b b b;
#X obj 17 371 t b b b;
#X obj 16 328 t b b b;
#X obj 56 307 t b b b;
#X obj 56 287 t b b b;
#X obj 56 268 t b b b;
#X obj 56 248 t b b b;
#X obj 56 228 t b b b;
#X obj 56 207 t b b b;
#X obj 71 22 r DunjonInit;
#X msg 255 304 1;
#X msg 255 245 1;
#X msg 255 324 1;
#X msg 255 366 -25;
#X msg 255 429 0.5;
#X msg 255 149 -3.025;
#X msg 255 409 1;
#X msg 255 285 0;
#X msg 255 449 1;
#X msg 255 469 -4;
#X obj 824 562 send OSC_MESSAGES;
#X obj 704 489 list prepend;
#X obj 704 512 l2s /;
#X msg 704 172 File;
#X obj 824 529 list;
#X msg 704 149 Zpos;
#X msg 704 366 RenderOrder;
#X msg 704 409 Yscale;
#X msg 704 429 Xscale;
#X msg 704 449 Ypos;
#X msg 704 469 Xpos;
#X msg 704 265 Blue;
#X msg 704 224 Red;
#X msg 704 245 Green;
#X msg 704 345 modeAlpha;
#X msg 704 388 Shape;
#X msg 704 285 Rotate;
#X msg 704 324 Alpha;
#X msg 704 304 Activate;
#X obj 661 102 t b b b;
#X obj 646 155 t b b b;
#X obj 646 349 t b b b;
#X obj 646 392 t b b b;
#X obj 646 412 t b b b;
#X obj 646 432 t b b b;
#X obj 646 452 t b b b;
#X obj 607 371 t b b b;
#X obj 606 328 t b b b;
#X obj 646 307 t b b b;
#X obj 646 287 t b b b;
#X obj 646 268 t b b b;
#X obj 646 248 t b b b;
#X obj 646 228 t b b b;
#X obj 646 207 t b b b;
#X msg 845 304 1;
#X msg 845 224 1;
#X msg 845 245 1;
#X msg 845 324 1;
#X msg 845 366 -25;
#X msg 845 429 0.5;
#X msg 773 119 /DunjonDoor*;
#X msg 845 172 /home/woii/2013_Sebkha-ChottGalootFormula_ThingFish/ThingFishVideoDecorum/Dunjon/data/2013_06_20_Donjon_Porte.png
;
#X msg 845 149 -3.025;
#X msg 845 409 1;
#X msg 845 285 0;
#X msg 845 265 1;
#X msg 845 449 1;
#X msg 845 469 -4;
#X obj 71 70 t b b b;
#X msg 183 119 /DunjonDoor*Cadre;
#X msg 255 172 /home/woii/2013_Sebkha-ChottGalootFormula_ThingFish/ThingFishVideoDecorum/Dunjon/data/2013_06_20_Donjon_Porte_Cadre.png
;
#X msg 255 265 0.798658;
#X msg 255 224 0.912752;
#X msg 252 659 /DunjonDoor3*/Xpos 0;
#X msg 72 659 /DunjonDoor2*/Xpos -2;
#X msg 72 679 /DunjonDoor2*/Red 1;
#X msg 72 699 /DunjonDoor2*/Green 1;
#X msg 72 719 /DunjonDoor2*/Blue 0.516779;
#X msg 252 679 /DunjonDoor3*/Red 1;
#X msg 252 699 /DunjonDoor3*/Green 1;
#X msg 252 719 /DunjonDoor3*/Blue 0.516779;
#X msg 432 659 /DunjonDoor4*/Xpos 2;
#X msg 432 679 /DunjonDoor4*/Red 1;
#X msg 612 659 /DunjonDoor5*/Xpos 4;
#X msg 612 679 /DunjonDoor5*/Red 1;
#X msg 612 719 /DunjonDoor5*/Blue 0.516779;
#X msg 612 699 /DunjonDoor5*/Green 0.0134228;
#X msg 432 719 /DunjonDoor4*/Blue 1;
#X msg 432 699 /DunjonDoor4*/Green 0.590604;
#X obj 72 638 bng 15 250 50 0 empty empty empty 17 7 0 10 -262144 -1
-1;
#X obj 72 768 s OSC_MESSAGES;
#X connect 1 0 3 0;
#X connect 2 0 94 0;
#X connect 3 0 5 0;
#X connect 4 0 1 0;
#X connect 5 0 0 0;
#X connect 6 0 1 0;
#X connect 7 0 1 0;
#X connect 8 0 1 0;
#X connect 9 0 1 0;
#X connect 10 0 1 0;
#X connect 11 0 1 0;
#X connect 12 0 1 0;
#X connect 13 0 1 0;
#X connect 14 0 1 0;
#X connect 15 0 1 0;
#X connect 17 0 1 0;
#X connect 18 0 1 0;
#X connect 19 0 1 0;
#X connect 20 0 6 0;
#X connect 20 0 21 0;
#X connect 20 1 41 0;
#X connect 20 2 95 0;
#X connect 21 0 34 0;
#X connect 21 1 4 0;
#X connect 21 2 96 0;
#X connect 22 0 23 0;
#X connect 22 1 7 0;
#X connect 22 2 39 0;
#X connect 23 0 24 0;
#X connect 23 1 8 0;
#X connect 23 2 42 0;
#X connect 24 0 25 0;
#X connect 24 1 9 0;
#X connect 24 2 40 0;
#X connect 25 0 26 0;
#X connect 25 1 10 0;
#X connect 25 2 44 0;
#X connect 26 1 11 0;
#X connect 26 2 45 0;
#X connect 27 1 16 0;
#X connect 28 1 15 0;
#X connect 29 0 22 0;
#X connect 29 1 18 0;
#X connect 29 2 38 0;
#X connect 30 0 29 0;
#X connect 30 1 19 0;
#X connect 30 2 36 0;
#X connect 31 0 30 0;
#X connect 31 1 17 0;
#X connect 31 2 43 0;
#X connect 32 0 31 0;
#X connect 32 1 12 0;
#X connect 32 2 97 0;
#X connect 33 0 32 0;
#X connect 33 1 14 0;
#X connect 33 2 37 0;
#X connect 34 0 33 0;
#X connect 34 1 13 0;
#X connect 34 2 98 0;
#X connect 35 0 2 0;
#X connect 36 0 5 1;
#X connect 37 0 5 1;
#X connect 38 0 5 1;
#X connect 39 0 5 1;
#X connect 40 0 5 1;
#X connect 41 0 5 1;
#X connect 42 0 5 1;
#X connect 43 0 5 1;
#X connect 44 0 5 1;
#X connect 45 0 5 1;
#X connect 47 0 48 0;
#X connect 48 0 50 0;
#X connect 49 0 47 0;
#X connect 50 0 46 0;
#X connect 51 0 47 0;
#X connect 52 0 47 0;
#X connect 53 0 47 0;
#X connect 54 0 47 0;
#X connect 55 0 47 0;
#X connect 56 0 47 0;
#X connect 57 0 47 0;
#X connect 58 0 47 0;
#X connect 59 0 47 0;
#X connect 60 0 47 0;
#X connect 62 0 47 0;
#X connect 63 0 47 0;
#X connect 64 0 47 0;
#X connect 65 0 51 0;
#X connect 65 0 66 0;
#X connect 65 1 88 0;
#X connect 65 2 86 0;
#X connect 66 0 79 0;
#X connect 66 1 49 0;
#X connect 66 2 87 0;
#X connect 67 0 68 0;
#X connect 67 1 52 0;
#X connect 67 2 84 0;
#X connect 68 0 69 0;
#X connect 68 1 53 0;
#X connect 68 2 89 0;
#X connect 69 0 70 0;
#X connect 69 1 54 0;
#X connect 69 2 85 0;
#X connect 70 0 71 0;
#X connect 70 1 55 0;
#X connect 70 2 92 0;
#X connect 71 1 56 0;
#X connect 71 2 93 0;
#X connect 72 1 61 0;
#X connect 73 1 60 0;
#X connect 74 0 67 0;
#X connect 74 1 63 0;
#X connect 74 2 83 0;
#X connect 75 0 74 0;
#X connect 75 1 64 0;
#X connect 75 2 80 0;
#X connect 76 0 75 0;
#X connect 76 1 62 0;
#X connect 76 2 90 0;
#X connect 77 0 76 0;
#X connect 77 1 57 0;
#X connect 77 2 91 0;
#X connect 78 0 77 0;
#X connect 78 1 59 0;
#X connect 78 2 82 0;
#X connect 79 0 78 0;
#X connect 79 1 58 0;
#X connect 79 2 81 0;
#X connect 80 0 50 1;
#X connect 81 0 50 1;
#X connect 82 0 50 1;
#X connect 83 0 50 1;
#X connect 84 0 50 1;
#X connect 85 0 50 1;
#X connect 86 0 47 1;
#X connect 87 0 50 1;
#X connect 88 0 50 1;
#X connect 89 0 50 1;
#X connect 90 0 50 1;
#X connect 91 0 50 1;
#X connect 92 0 50 1;
#X connect 93 0 50 1;
#X connect 94 0 115 0;
#X connect 94 1 20 0;
#X connect 94 2 65 0;
#X connect 95 0 1 1;
#X connect 96 0 5 1;
#X connect 97 0 5 1;
#X connect 98 0 5 1;
#X connect 99 0 116 0;
#X connect 100 0 116 0;
#X connect 101 0 116 0;
#X connect 102 0 116 0;
#X connect 103 0 116 0;
#X connect 104 0 116 0;
#X connect 105 0 116 0;
#X connect 106 0 116 0;
#X connect 107 0 116 0;
#X connect 108 0 116 0;
#X connect 109 0 116 0;
#X connect 110 0 116 0;
#X connect 111 0 116 0;
#X connect 112 0 116 0;
#X connect 113 0 116 0;
#X connect 114 0 116 0;
#X connect 115 0 100 0;
#X connect 115 0 101 0;
#X connect 115 0 102 0;
#X connect 115 0 103 0;
#X connect 115 0 99 0;
#X connect 115 0 104 0;
#X connect 115 0 105 0;
#X connect 115 0 106 0;
#X connect 115 0 107 0;
#X connect 115 0 108 0;
#X connect 115 0 114 0;
#X connect 115 0 113 0;
#X connect 115 0 109 0;
#X connect 115 0 110 0;
#X connect 115 0 112 0;
#X connect 115 0 111 0;
#X restore 15 255 pd DunjonDoorsInit;
#X restore 342 -123 pd DunjonInit;
#X connect 9 0 11 1;
#X connect 9 0 21 1;
#X connect 10 0 17 0;
#X connect 10 0 38 0;
#X connect 11 0 13 0;
#X connect 12 0 14 0;
#X connect 12 0 9 0;
#X connect 12 0 22 0;
#X connect 12 0 33 0;
#X connect 12 0 35 0;
#X connect 13 0 15 0;
#X connect 14 0 10 0;
#X connect 16 0 15 0;
#X connect 17 0 11 0;
#X connect 18 0 19 0;
#X connect 19 0 21 0;
#X connect 19 0 34 0;
#X connect 20 0 14 0;
#X connect 20 0 22 0;
#X connect 21 0 16 0;
#X connect 22 0 18 0;
#X connect 24 0 23 0;
#X connect 25 0 54 0;
#X connect 26 0 24 0;
#X connect 27 0 26 0;
#X connect 28 0 55 0;
#X connect 29 0 25 0;
#X connect 30 0 12 0;
#X connect 31 0 54 0;
#X connect 32 0 15 0;
#X connect 33 0 34 1;
#X connect 34 0 32 0;
#X connect 35 0 36 1;
#X connect 36 0 37 0;
#X connect 37 0 23 0;
#X connect 38 0 36 0;
#X connect 40 0 51 0;
#X connect 42 0 41 0;
#X connect 43 0 41 0;
#X connect 44 0 41 0;
#X connect 45 0 41 0;
#X connect 46 0 41 0;
#X connect 47 0 41 0;
#X connect 48 0 41 0;
#X connect 49 0 41 0;
#X connect 50 0 41 0;
#X connect 51 0 42 0;
#X connect 51 0 43 0;
#X connect 51 0 44 0;
#X connect 51 0 45 0;
#X connect 51 0 50 0;
#X connect 51 0 46 0;
#X connect 51 0 47 0;
#X connect 51 0 48 0;
#X connect 51 0 49 0;
#X connect 51 0 58 0;
#X connect 51 0 59 0;
#X connect 52 0 53 0;
#X connect 52 0 20 0;
#X connect 52 0 31 0;
#X connect 52 0 59 0;
#X connect 53 0 42 0;
#X connect 53 0 43 0;
#X connect 53 0 44 0;
#X connect 53 0 45 0;
#X connect 53 0 50 0;
#X connect 53 0 46 0;
#X connect 53 0 47 0;
#X connect 53 0 48 0;
#X connect 53 0 49 0;
#X connect 53 0 58 0;
#X connect 54 0 27 0;
#X connect 54 0 28 0;
#X connect 55 0 26 0;
#X connect 58 0 41 0;
#X connect 59 0 41 0;
