#N canvas 0 -1 1440 845 10;
#X declare -path ./lib/sssad;
#X declare -path ./lib/sssad;
#X obj 50 54 zac.lumiere /DunjonDoor1;
#X obj 85 314 zac.lumiere /DunjonDoor1Cadre;
#X obj 1115 303 r DunjonBang;
#X obj 1283 546 send OSC_MESSAGES;
#X msg 1283 403 /CochonLights/Activate \$1;
#X msg 1283 423 /Djbebe/Activate \$1;
#X msg 1283 462 /CuveGalootContent/Activate \$1;
#X msg 1283 482 /CuveGalootContent2/Activate \$1;
#X msg 1283 501 /Djventilo/Activate \$1;
#X msg 1283 521 /DjventiloPales/Activate \$1;
#X msg 1283 442 /CuveGaloot/Activate \$1;
#X msg 1120 329 1;
#X obj 1533 310 r DunjonBangOff;
#X msg 1538 344 0;
#X msg 1283 364 /DunjonDoor1/Activate \$1;
#X msg 1283 383 /DunjonDoor1Cadre/Activate \$1;
#X connect 2 0 11 0;
#X connect 4 0 3 0;
#X connect 5 0 3 0;
#X connect 6 0 3 0;
#X connect 7 0 3 0;
#X connect 8 0 3 0;
#X connect 9 0 3 0;
#X connect 10 0 3 0;
#X connect 11 0 14 0;
#X connect 11 0 15 0;
#X connect 11 0 4 0;
#X connect 11 0 5 0;
#X connect 11 0 10 0;
#X connect 11 0 6 0;
#X connect 11 0 7 0;
#X connect 11 0 8 0;
#X connect 11 0 9 0;
#X connect 12 0 13 0;
#X connect 13 0 14 0;
#X connect 13 0 15 0;
#X connect 13 0 4 0;
#X connect 13 0 5 0;
#X connect 13 0 10 0;
#X connect 13 0 6 0;
#X connect 13 0 7 0;
#X connect 13 0 8 0;
#X connect 13 0 9 0;
#X connect 14 0 3 0;
#X connect 15 0 3 0;
