#N canvas 247 156 1425 796 10;
#X obj 418 83 s TFOut;
#X obj 590 110 s TFSpeaks;
#X obj 42 200 s TFOpensCurtains;
#X obj 402 68 bng 15 250 50 0 empty empty empty 17 7 0 10 -262144 -1
-1;
#X obj 574 95 bng 15 250 50 0 empty empty empty 17 7 0 10 -262144 -1
-1;
#X obj 105 152 bng 15 250 50 0 empty empty empty 17 7 0 10 -262144
-1 -1;
#X obj 26 185 bng 15 250 50 0 empty empty empty 17 7 0 10 -262144 -1
-1;
#X obj 225 385 s DunjonCineticPissOff;
#X obj 26 353 bng 15 250 50 0 empty empty empty 17 7 0 10 -262144 -1
-1;
#X obj 364 385 s evilPrinceMovesCour;
#X obj 497 385 s prisonComesInFromJardin;
#X obj 200 167 s evilPrinceInit;
#X obj 103 368 s HandCineticScroll;
#X obj 42 368 delay 200;
#X obj 41 233 s apparitionBulleHomoBlack;
#X obj 42 266 s finalSolutium;
#X obj 26 218 bng 15 250 50 0 empty empty empty 17 7 0 10 -262144 -1
-1;
#X obj 26 251 bng 15 250 50 0 empty empty empty 17 7 0 10 -262144 -1
-1;
#X obj 27 283 bng 15 250 50 0 empty empty empty 17 7 0 10 -262144 -1
-1;
#X obj 44 330 s allumageIdee;
#X obj 28 315 bng 15 250 50 0 empty empty empty 17 7 0 10 -262144 -1
-1;
#X obj 43 298 s disparitionBulleHomoBlack;
#X obj 24 430 bng 15 250 50 0 empty empty empty 17 7 0 10 -262144 -1
-1;
#X obj 25 464 bng 15 250 50 0 empty empty empty 17 7 0 10 -262144 -1
-1;
#X obj 43 479 s assiettesScrollingToJardin;
#X obj 40 445 s tapisRoulantComesInFromCour;
#X obj 26 537 bng 15 250 50 0 empty empty empty 17 7 0 10 -262144 -1
-1;
#X obj 47 552 delay 200;
#X obj 116 552 s HandCineticScroll;
#X obj 242 569 s prisonGetsOutToCour;
#X obj 44 517 s tapisRoulantGetsOutToCour;
#X obj 551 569 s musiciansArentPlaying;
#X obj 248 649 s homoBlackComeInFromJardin;
#X obj 30 652 bng 15 250 50 0 empty empty empty 17 7 0 10 -262144 -1
-1;
#X obj 47 667 s homoBlackDie;
#X obj 28 803 bng 15 250 50 0 empty empty empty 17 7 0 10 -262144 -1
-1;
#X obj 48 818 s TFIn;
#X obj 699 569 s compteReboursComesInFromJardin;
#X obj 901 569 s comtoiseBalance;
#X obj 1084 586 s teleFlies;
#X obj 30 617 bng 15 250 50 0 empty empty empty 17 7 0 10 -262144 -1
-1;
#X obj 51 632 delay 200;
#X obj 120 632 s HandCineticScroll;
#X obj 728 649 s teleStopsFlying;
#X obj 595 649 s comtoiseStopBalance;
#X obj 419 649 s compteReboursGetsOutToCour;
#X obj 28 584 bng 15 250 50 0 empty empty empty 17 7 0 10 -262144 -1
-1;
#X obj 29 846 bng 15 250 50 0 empty empty empty 17 7 0 10 -262144 -1
-1;
#X obj 30 688 bng 15 250 50 0 empty empty empty 17 7 0 10 -262144 -1
-1;
#X obj 248 719 s homoBlackGetOutToCour;
#X obj 51 702 delay 200;
#X obj 120 702 s HandCineticScroll;
#X obj 30 905 bng 15 250 50 0 empty empty empty 17 7 0 10 -262144 -1
-1;
#X obj 62 920 s evilPrinceOff;
#X obj 107 818 s TFMutes;
#X obj 43 407 s PrisonSceneComingIn;
#X obj 24 392 bng 15 250 50 0 empty empty empty 17 7 0 10 -262144 -1
-1;
#X obj 25 502 bng 15 250 50 0 empty empty empty 17 7 0 10 -262144 -1
-1;
#X obj 1013 569 delay 405;
#X obj 121 167 s DunjonInit;
#X obj 24 36 bng 15 250 50 0 empty empty empty 17 7 0 10 -262144 -1
-1;
#X obj 40 51 s BringObdwellaXToCurtains;
#X obj 50 861 s HCourCloseCurtain;
#X obj 402 719 s MorphoComesInFromJardin;
#X obj 184 920 s DeactivateAll;
#X obj 30 768 s MorphoUgly;
#X obj 130 768 s MorphoMeanAndUgly;
#X obj 270 768 s MorphoMammyNun;
#X obj 30 748 bng 15 250 50 0 empty empty empty 17 7 0 10 -262144 -1
-1;
#X obj 130 748 bng 15 250 50 0 empty empty empty 17 7 0 10 -262144
-1 -1;
#X obj 270 748 bng 15 250 50 0 empty empty empty 17 7 0 10 -262144
-1 -1;
#X obj 116 599 s JetBallonFoot;
#X obj 24 11 r OXAndTF;
#X obj 287 51 delay 5000;
#X obj 26 135 r DjAndEPInit;
#X obj 866 32 cnv 15 350 150 empty empty empty 20 12 0 14 -233017 -66577
0;
#X obj 883 46 bng 15 250 50 0 TFPrologueOnceUponATime TFPrologueOnceUponATime
TF_Prologue_Once_Upon_A_Time 17 7 0 10 -262144 -1 -1;
#X obj 966 86 tgl 15 0 TFSpeaks TFSpeaks TFSpeaks 17 7 0 10 -262144
-1 -1 0 1;
#X obj 995 61 delay 25000;
#X msg 1079 78 0;
#X obj 1079 106 s TFSpeaks;
#X obj 995 150 s apparitionBulleHomoBlack;
#X obj 866 202 cnv 15 350 150 empty empty empty 20 12 0 14 -233017
-66577 0;
#X obj 883 216 bng 15 250 50 0 TFPrologueDeCocksucker TFPrologueDeCocksucker
TF_Prologue_De_CockSucker 17 7 0 10 -262144 -1 -1;
#X obj 966 256 tgl 15 0 TFSpeaks TFSpeaks TFSpeaks 17 7 0 10 -262144
-1 -1 0 1;
#X msg 1081 262 0;
#X obj 1083 290 s TFSpeaks;
#X obj 1027 320 s finalSolutium;
#X obj 995 235 delay 10000;
#X obj 1075 235 delay 14500;
#X obj 866 372 cnv 15 350 150 empty empty empty 20 12 0 14 -233017
-66577 0;
#X obj 883 386 bng 15 250 50 0 TFPrologueWellHe TFPrologueWellHe TF_Prologue_Well_He_Were_Sure
17 7 0 10 -262144 -1 -1;
#X obj 966 426 tgl 15 0 TFSpeaks TFSpeaks TFSpeaks 17 7 0 10 -262144
-1 -1 0 1;
#X msg 1145 428 0;
#X obj 1145 456 s TFSpeaks;
#X obj 1145 401 delay 14500;
#X obj 1035 496 s disparitionBulleHomoBlack;
#X obj 1035 401 delay 2500;
#X obj 925 401 delay 9000;
#X obj 925 496 s allumageIdee;
#X connect 3 0 0 0;
#X connect 4 0 1 0;
#X connect 5 0 11 0;
#X connect 5 0 59 0;
#X connect 6 0 2 0;
#X connect 8 0 12 0;
#X connect 8 0 13 0;
#X connect 13 0 7 0;
#X connect 13 0 9 0;
#X connect 13 0 10 0;
#X connect 16 0 14 0;
#X connect 17 0 15 0;
#X connect 18 0 21 0;
#X connect 20 0 19 0;
#X connect 22 0 25 0;
#X connect 23 0 24 0;
#X connect 26 0 27 0;
#X connect 26 0 28 0;
#X connect 27 0 29 0;
#X connect 27 0 31 0;
#X connect 27 0 37 0;
#X connect 27 0 38 0;
#X connect 27 0 58 0;
#X connect 33 0 34 0;
#X connect 35 0 36 0;
#X connect 35 0 54 0;
#X connect 40 0 41 0;
#X connect 40 0 42 0;
#X connect 41 0 32 0;
#X connect 41 0 43 0;
#X connect 41 0 44 0;
#X connect 41 0 45 0;
#X connect 46 0 71 0;
#X connect 47 0 62 0;
#X connect 48 0 50 0;
#X connect 48 0 51 0;
#X connect 50 0 49 0;
#X connect 50 0 63 0;
#X connect 52 0 53 0;
#X connect 52 0 64 0;
#X connect 56 0 55 0;
#X connect 57 0 30 0;
#X connect 58 0 39 0;
#X connect 60 0 61 0;
#X connect 60 0 73 0;
#X connect 68 0 65 0;
#X connect 69 0 66 0;
#X connect 70 0 67 0;
#X connect 72 0 60 0;
#X connect 73 0 3 0;
#X connect 74 0 5 0;
#X connect 76 0 77 0;
#X connect 76 0 78 0;
#X connect 78 0 79 0;
#X connect 78 0 81 0;
#X connect 79 0 80 0;
#X connect 83 0 84 0;
#X connect 83 0 88 0;
#X connect 83 0 89 0;
#X connect 85 0 86 0;
#X connect 88 0 87 0;
#X connect 89 0 85 0;
#X connect 91 0 92 0;
#X connect 91 0 95 0;
#X connect 91 0 98 0;
#X connect 91 0 97 0;
#X connect 93 0 94 0;
#X connect 95 0 93 0;
#X connect 97 0 96 0;
#X connect 98 0 99 0;
#X coords 0 0 24 1 0 0 0;
