#N canvas 0 100 1920 980 10;
#X obj 418 83 s TFOut;
#X obj 590 110 s TFSpeaks;
#X obj 42 200 s TFOpensCurtains;
#X obj 402 68 bng 15 250 50 0 empty empty empty 17 7 0 10 -262144 -1
-1;
#X obj 574 95 bng 15 250 50 0 empty empty empty 17 7 0 10 -262144 -1
-1;
#X obj 105 152 bng 15 250 50 0 empty empty empty 17 7 0 10 -262144
-1 -1;
#X obj 26 185 bng 15 250 50 0 empty empty empty 17 7 0 10 -262144 -1
-1;
#X obj 225 385 s DunjonCineticPissOff;
#X obj 26 353 bng 15 250 50 0 empty empty empty 17 7 0 10 -262144 -1
-1;
#X obj 364 385 s evilPrinceMovesCour;
#X obj 497 385 s prisonComesInFromJardin;
#X obj 200 167 s evilPrinceInit;
#X obj 103 368 s HandCineticScroll;
#X obj 42 368 delay 200;
#X obj 41 233 s apparitionBulleHomoBlack;
#X obj 42 266 s finalSolutium;
#X obj 26 218 bng 15 250 50 0 empty empty empty 17 7 0 10 -262144 -1
-1;
#X obj 26 251 bng 15 250 50 0 empty empty empty 17 7 0 10 -262144 -1
-1;
#X obj 27 283 bng 15 250 50 0 empty empty empty 17 7 0 10 -262144 -1
-1;
#X obj 44 330 s allumageIdee;
#X obj 28 315 bng 15 250 50 0 empty empty empty 17 7 0 10 -262144 -1
-1;
#X obj 43 298 s disparitionBulleHomoBlack;
#X obj 24 430 bng 15 250 50 0 empty empty empty 17 7 0 10 -262144 -1
-1;
#X obj 25 464 bng 15 250 50 0 empty empty empty 17 7 0 10 -262144 -1
-1;
#X obj 43 479 s assiettesScrollingToJardin;
#X obj 40 445 s tapisRoulantComesInFromCour;
#X obj 26 537 bng 15 250 50 0 empty empty empty 17 7 0 10 -262144 -1
-1;
#X obj 47 552 delay 200;
#X obj 116 552 s HandCineticScroll;
#X obj 72 569 s prisonGetsOutToCour;
#X obj 44 517 s tapisRoulantGetsOutToCour;
#X obj 211 569 s musiciansArentPlaying;
#X obj 248 649 s homoBlackComeInFromJardin;
#X obj 30 652 bng 15 250 50 0 empty empty empty 17 7 0 10 -262144 -1
-1;
#X obj 47 667 s homoBlackDie;
#X obj 28 803 bng 15 250 50 0 empty empty empty 17 7 0 10 -262144 -1
-1;
#X obj 48 818 s TFIn;
#X obj 359 569 s compteReboursComesInFromJardin;
#X obj 561 569 s comtoiseBalance;
#X obj 744 586 s teleFlies;
#X obj 30 617 bng 15 250 50 0 empty empty empty 17 7 0 10 -262144 -1
-1;
#X obj 51 632 delay 200;
#X obj 120 632 s HandCineticScroll;
#X obj 728 649 s teleStopsFlying;
#X obj 595 649 s comtoiseStopBalance;
#X obj 419 649 s compteReboursGetsOutToCour;
#X obj 28 584 bng 15 250 50 0 empty empty empty 17 7 0 10 -262144 -1
-1;
#X obj 29 846 bng 15 250 50 0 empty empty empty 17 7 0 10 -262144 -1
-1;
#X obj 30 688 bng 15 250 50 0 empty empty empty 17 7 0 10 -262144 -1
-1;
#X obj 248 719 s homoBlackGetOutToCour;
#X obj 51 702 delay 200;
#X obj 120 702 s HandCineticScroll;
#X obj 30 905 bng 15 250 50 0 empty empty empty 17 7 0 10 -262144 -1
-1;
#X obj 62 920 s evilPrinceOff;
#X obj 107 818 s TFMutes;
#X obj 43 407 s PrisonSceneComingIn;
#X obj 24 392 bng 15 250 50 0 empty empty empty 17 7 0 10 -262144 -1
-1;
#X obj 25 502 bng 15 250 50 0 empty empty empty 17 7 0 10 -262144 -1
-1;
#X obj 673 569 delay 405;
#X obj 121 167 s DunjonInit;
#X obj 24 36 bng 15 250 50 0 empty empty empty 17 7 0 10 -262144 -1
-1;
#X obj 40 51 s BringObdwellaXToCurtains;
#X obj 50 861 s HCourCloseCurtain;
#X obj 402 719 s MorphoComesInFromJardin;
#X obj 184 920 s DeactivateAll;
#X obj 30 768 s MorphoUgly;
#X obj 130 768 s MorphoMeanAndUgly;
#X obj 270 768 s MorphoMammyNun;
#X obj 30 748 bng 15 250 50 0 empty empty empty 17 7 0 10 -262144 -1
-1;
#X obj 130 748 bng 15 250 50 0 empty empty empty 17 7 0 10 -262144
-1 -1;
#X obj 270 748 bng 15 250 50 0 empty empty empty 17 7 0 10 -262144
-1 -1;
#X obj 116 599 s JetBallonFoot;
#X obj 24 11 r OXAndTF;
#X obj 287 51 delay 5000;
#X obj 26 135 r DjAndEPInit;
#X obj 866 12 cnv 15 350 150 empty empty empty 20 12 0 14 -233017 -66577
0;
#X obj 883 26 bng 15 250 50 0 PrologueTFOnceUponATime PrologueTFOnceUponATime
Prologue_TF_Once_Upon_A_Time 17 7 0 10 -262144 -1 -1;
#X obj 966 66 tgl 15 0 TFSpeaks TFSpeaks TFSpeaks 17 7 0 10 -262144
-1 -1 0 1;
#X obj 995 41 delay 25000;
#X msg 1079 58 0;
#X obj 1079 86 s TFSpeaks;
#X obj 995 130 s apparitionBulleHomoBlack;
#X obj 866 182 cnv 15 350 150 empty empty empty 20 12 0 14 -233017
-66577 0;
#X obj 883 196 bng 15 250 50 0 PrologueTFDeCocksucker PrologueTFDeCocksucker
Prologue_TF_De_CockSucker 17 7 0 10 -262144 -1 -1;
#X obj 966 236 tgl 15 0 TFSpeaks TFSpeaks TFSpeaks 17 7 0 10 -262144
-1 -1 0 1;
#X msg 1081 242 0;
#X obj 1083 270 s TFSpeaks;
#X obj 1027 300 s finalSolutium;
#X obj 995 215 delay 10000;
#X obj 1075 215 delay 14500;
#X obj 866 352 cnv 15 350 150 empty empty empty 20 12 0 14 -233017
-66577 0;
#X obj 883 366 bng 15 250 50 0 PrologueTFWellHe PrologueTFWellHe Prologue_TF_Well_He_Were_Sure
17 7 0 10 -262144 -1 -1;
#X obj 966 406 tgl 15 0 TFSpeaks TFSpeaks TFSpeaks 17 7 0 10 -262144
-1 -1 0 1;
#X msg 1145 408 0;
#X obj 1145 436 s TFSpeaks;
#X obj 1145 381 delay 14500;
#X obj 1035 476 s disparitionBulleHomoBlack;
#X obj 1035 381 delay 2500;
#X obj 925 381 delay 9000;
#X obj 925 476 s allumageIdee;
#X obj 866 522 cnv 15 350 150 empty empty empty 20 12 0 14 -233017
-66577 0;
#X obj 883 536 bng 15 250 50 0 PrologueTFShotlyDen PrologueTFShotlyDen
Prologue_TF_Shotly_Den_After 17 7 0 10 -262144 -1 -1;
#X obj 1065 575 tgl 15 0 TFSpeaks TFSpeaks TFSpeaks 17 7 0 10 -262144
-1 -1 0 1;
#X msg 1141 578 0;
#X obj 1141 606 s TFSpeaks;
#X obj 1224 545 cnv 15 225 110 empty empty empty 20 12 0 14 -261682
-66577 0;
#X obj 1243 593 s DunjonCineticPissOff;
#X obj 1227 551 bng 15 250 50 0 PrologueScrollToPrison PrologueScrollToPrison
Prologue_Scroll_To_Prison 17 7 0 10 -262144 -1 -1;
#X obj 1243 613 s evilPrinceMovesCour;
#X obj 1243 633 s prisonComesInFromJardin;
#X obj 1304 566 s HandCineticScroll;
#X obj 1243 566 delay 200;
#X obj 1065 551 delay 500;
#X obj 883 586 delay 7000;
#X obj 968 603 s PrisonSceneComingIn;
#X obj 1141 551 delay 21500;
#X obj 866 692 cnv 15 350 150 empty empty empty 20 12 0 14 -233017
-66577 0;
#X obj 883 706 bng 15 250 50 0 PrologueTFSoHeah PrologueTFSoHeah Prologue_TF_So_Heah_Dey_Come
17 7 0 10 -262144 -1 -1;
#X obj 1065 745 tgl 15 0 TFSpeaks TFSpeaks TFSpeaks 17 7 0 10 -262144
-1 -1 0 1;
#X msg 1143 748 0;
#X obj 1143 776 s TFSpeaks;
#X obj 883 731 s tapisRoulantComesInFromCour;
#X obj 883 756 delay 600;
#X obj 968 773 s assiettesScrollingToJardin;
#X obj 1143 721 delay 5000;
#X obj 866 862 cnv 15 350 150 empty empty empty 20 12 0 14 -233017
-66577 0;
#X obj 883 876 bng 15 250 50 0 PrologueTFDenDey PrologueTFDenDey Prologue_TF_Den_Dey_Wen_Up
17 7 0 10 -262144 -1 -1;
#X obj 1065 915 tgl 15 0 TFSpeaks TFSpeaks TFSpeaks 17 7 0 10 -262144
-1 -1 0 1;
#X msg 1143 918 0;
#X obj 1143 946 s TFSpeaks;
#X obj 883 926 delay 600;
#X obj 1143 891 delay 5000;
#X obj 883 901 s tapisRoulantGetsOutToCour;
#X obj 1472 937 cnv 15 230 170 empty empty empty 20 12 0 14 -261682
-66577 0;
#X obj 1479 943 bng 15 250 50 0 PrologueScrollToWardenOffice PrologueScrollToWardenOffice
Prologue_Scroll_To_Warden_Office 17 7 0 10 -262144 -1 -1;
#X obj 1500 958 delay 200;
#X obj 1569 958 s HandCineticScroll;
#X obj 1500 985 s prisonGetsOutToCour;
#X obj 1500 1005 s musiciansArentPlaying;
#X obj 1500 1025 s compteReboursComesInFromJardin;
#X obj 1500 1045 s comtoiseBalance;
#X obj 1571 1082 s teleFlies;
#X obj 1500 1065 delay 405;
#X obj 883 946 delay 11000;
#X obj 970 963 s JetBallonFoot;
#X obj 866 1032 cnv 15 350 150 empty empty empty 20 12 0 14 -233017
-66577 0;
#X obj 883 1046 bng 15 250 50 0 PrologueTFNextThing PrologueTFNextThing
Prologue_TF_Next_Thing_You_Know 17 7 0 10 -262144 -1 -1;
#X obj 1065 1085 tgl 15 0 TFSpeaks TFSpeaks TFSpeaks 17 7 0 10 -262144
-1 -1 0 1;
#X msg 1141 1088 0;
#X obj 1141 1116 s TFSpeaks;
#X obj 1224 1055 cnv 15 225 110 empty empty empty 20 12 0 14 -261682
-66577 0;
#X obj 1227 1061 bng 15 250 50 0 PrologueScrollToHomoBlack PrologueScrollToHomoBlack
Prologue_Scroll_To_Homo_Black 17 7 0 10 -262144 -1 -1;
#X obj 1304 1076 s HandCineticScroll;
#X obj 1243 1076 delay 200;
#X obj 1065 1061 delay 500;
#X obj 1243 1101 s homoBlackComeInFromJardin;
#X obj 1243 1142 s comtoiseStopBalance;
#X obj 1243 1121 s compteReboursGetsOutToCour;
#X obj 968 1113 s homoBlackDie;
#X obj 883 1096 delay 3500;
#X obj 1141 1061 delay 10500;
#X obj 866 1202 cnv 15 350 250 empty empty empty 20 12 0 14 -233017
-66577 0;
#X obj 883 1216 bng 15 250 50 0 PrologueTFButNot PrologueTFButNot Prologue_TF_But_Not_De_Boys
17 7 0 10 -262144 -1 -1;
#X obj 1038 1255 tgl 15 0 TFSpeaks TFSpeaks TFSpeaks 17 7 0 10 -262144
-1 -1 0 1;
#X msg 1101 1258 0;
#X obj 1101 1286 s TFSpeaks;
#X obj 1224 1225 cnv 15 225 110 empty empty empty 20 12 0 14 -261682
-66577 0;
#X obj 1227 1231 bng 15 250 50 0 PrologueScrollToMorpho PrologueScrollToMorpho
Prologue_Scroll_To_Morpho 17 7 0 10 -262144 -1 -1;
#X obj 1304 1246 s HandCineticScroll;
#X obj 1243 1246 delay 200;
#X obj 1038 1231 delay 500;
#X obj 1227 1274 s homoBlackGetOutToCour;
#X obj 1227 1294 s MorphoComesInFromJardin;
#X obj 1101 1231 delay 26500;
#X obj 883 1246 delay 11500;
#X obj 958 1263 s MorphoUgly;
#X obj 883 1266 delay 16000;
#X obj 958 1283 s MorphoMeanAndUgly;
#X obj 958 1303 s MorphoMammyNun;
#X obj 883 1286 delay 26000;
#X obj 1101 1313 s TFIn;
#X obj 1101 1342 delay 1000;
#X obj 1101 1368 s HCourCloseCurtain;
#X obj 890 1412 s evilPrinceOff;
#X obj 1004 1412 s DeactivateAll;
#X obj 1101 1395 delay 600;
#X connect 3 0 0 0;
#X connect 4 0 1 0;
#X connect 5 0 11 0;
#X connect 5 0 59 0;
#X connect 6 0 2 0;
#X connect 8 0 12 0;
#X connect 8 0 13 0;
#X connect 13 0 7 0;
#X connect 13 0 9 0;
#X connect 13 0 10 0;
#X connect 16 0 14 0;
#X connect 17 0 15 0;
#X connect 18 0 21 0;
#X connect 20 0 19 0;
#X connect 22 0 25 0;
#X connect 23 0 24 0;
#X connect 26 0 27 0;
#X connect 26 0 28 0;
#X connect 27 0 29 0;
#X connect 27 0 31 0;
#X connect 27 0 37 0;
#X connect 27 0 38 0;
#X connect 27 0 58 0;
#X connect 33 0 34 0;
#X connect 35 0 36 0;
#X connect 35 0 54 0;
#X connect 40 0 41 0;
#X connect 40 0 42 0;
#X connect 41 0 32 0;
#X connect 41 0 43 0;
#X connect 41 0 44 0;
#X connect 41 0 45 0;
#X connect 46 0 71 0;
#X connect 47 0 62 0;
#X connect 48 0 50 0;
#X connect 48 0 51 0;
#X connect 50 0 49 0;
#X connect 50 0 63 0;
#X connect 52 0 53 0;
#X connect 52 0 64 0;
#X connect 56 0 55 0;
#X connect 57 0 30 0;
#X connect 58 0 39 0;
#X connect 60 0 61 0;
#X connect 60 0 73 0;
#X connect 68 0 65 0;
#X connect 69 0 66 0;
#X connect 70 0 67 0;
#X connect 72 0 60 0;
#X connect 73 0 3 0;
#X connect 74 0 5 0;
#X connect 76 0 77 0;
#X connect 76 0 78 0;
#X connect 78 0 79 0;
#X connect 78 0 81 0;
#X connect 79 0 80 0;
#X connect 83 0 84 0;
#X connect 83 0 88 0;
#X connect 83 0 89 0;
#X connect 85 0 86 0;
#X connect 88 0 87 0;
#X connect 89 0 85 0;
#X connect 91 0 92 0;
#X connect 91 0 95 0;
#X connect 91 0 98 0;
#X connect 91 0 97 0;
#X connect 93 0 94 0;
#X connect 95 0 93 0;
#X connect 97 0 96 0;
#X connect 98 0 99 0;
#X connect 101 0 112 0;
#X connect 101 0 113 0;
#X connect 101 0 115 0;
#X connect 101 0 107 0;
#X connect 103 0 104 0;
#X connect 107 0 110 0;
#X connect 107 0 111 0;
#X connect 111 0 106 0;
#X connect 111 0 108 0;
#X connect 111 0 109 0;
#X connect 112 0 102 0;
#X connect 113 0 114 0;
#X connect 115 0 103 0;
#X connect 117 0 118 0;
#X connect 117 0 121 0;
#X connect 117 0 122 0;
#X connect 117 0 124 0;
#X connect 119 0 120 0;
#X connect 122 0 123 0;
#X connect 124 0 119 0;
#X connect 126 0 127 0;
#X connect 126 0 130 0;
#X connect 126 0 131 0;
#X connect 126 0 132 0;
#X connect 126 0 143 0;
#X connect 128 0 129 0;
#X connect 130 0 134 0;
#X connect 131 0 128 0;
#X connect 134 0 135 0;
#X connect 134 0 136 0;
#X connect 135 0 137 0;
#X connect 135 0 138 0;
#X connect 135 0 139 0;
#X connect 135 0 140 0;
#X connect 135 0 142 0;
#X connect 142 0 141 0;
#X connect 143 0 144 0;
#X connect 146 0 154 0;
#X connect 146 0 151 0;
#X connect 146 0 159 0;
#X connect 146 0 160 0;
#X connect 148 0 149 0;
#X connect 151 0 152 0;
#X connect 151 0 153 0;
#X connect 153 0 155 0;
#X connect 153 0 157 0;
#X connect 153 0 156 0;
#X connect 154 0 147 0;
#X connect 159 0 158 0;
#X connect 160 0 148 0;
#X connect 162 0 170 0;
#X connect 162 0 167 0;
#X connect 162 0 173 0;
#X connect 162 0 174 0;
#X connect 162 0 176 0;
#X connect 162 0 179 0;
#X connect 164 0 165 0;
#X connect 167 0 168 0;
#X connect 167 0 169 0;
#X connect 167 0 171 0;
#X connect 167 0 172 0;
#X connect 170 0 163 0;
#X connect 173 0 164 0;
#X connect 173 0 180 0;
#X connect 173 0 181 0;
#X connect 173 0 182 0;
#X connect 173 0 185 0;
#X connect 174 0 175 0;
#X connect 176 0 177 0;
#X connect 179 0 178 0;
#X connect 185 0 183 0;
#X connect 185 0 184 0;
#X coords 0 0 24 1 0 0 0;
