#N canvas 0 100 1440 800 10;
#X obj 161 62 s MNInPlace;
#X obj 66 47 bng 15 250 50 0 empty empty empty 17 7 0 10 -262144 -1
-1;
#X obj 288 62 delay 150;
#X obj 288 96 s MNDance;
#X obj 83 96 s TFOut;
#X obj 83 129 s TFSpeaks;
#X obj 83 165 s TFOpensCurtains;
#X obj 67 81 bng 15 250 50 0 empty empty empty 17 7 0 10 -262144 -1
-1;
#X obj 67 114 bng 15 250 50 0 empty empty empty 17 7 0 10 -262144 -1
-1;
#X obj 67 150 bng 15 250 50 0 empty empty empty 17 7 0 10 -262144 -1
-1;
#X obj 72 197 bng 15 250 50 0 empty empty empty 17 7 0 10 -262144 -1
-1;
#X obj 103 212 s MNPee;
#X obj 79 257 s MNStopDancing;
#X obj 179 257 s MNStopPeeing;
#X obj 50 242 bng 15 250 50 0 empty empty empty 17 7 0 10 -262144 -1
-1;
#X obj 404 23 cnv 15 225 120 empty empty empty 20 12 0 14 -233017 -66577
0;
#X obj 441 52 s MNInPlace;
#X obj 416 37 bng 15 250 50 0 TheMammyNunsInit TheMammyNunsInit The_Mammy_Nuns_Init
17 7 0 10 -262144 -1 -1;
#X obj 416 70 delay 150;
#X obj 528 87 s MNDance;
#X obj 525 121 s CurtainsOpened;
#X obj 416 104 delay 500;
#X obj 404 253 cnv 15 225 150 empty empty empty 20 12 0 14 -233017
-66577 0;
#X obj 416 267 bng 15 250 50 0 TheMammyNunsStop TheMammyNunsStop The_Mammy_Nuns_Stop
17 7 0 10 -262144 -1 -1;
#X obj 441 282 s CurtainsClosed;
#X obj 416 327 s MNStopDancing;
#X obj 416 347 s MNStopPeeing;
#X obj 415 371 s DeactivateAll;
#X obj 416 300 delay 3000;
#X connect 1 0 0 0;
#X connect 1 0 2 0;
#X connect 2 0 3 0;
#X connect 7 0 4 0;
#X connect 8 0 5 0;
#X connect 9 0 6 0;
#X connect 10 0 11 0;
#X connect 14 0 12 0;
#X connect 14 0 13 0;
#X connect 17 0 16 0;
#X connect 17 0 18 0;
#X connect 18 0 19 0;
#X connect 18 0 21 0;
#X connect 21 0 20 0;
#X connect 23 0 24 0;
#X connect 23 0 28 0;
#X connect 28 0 25 0;
#X connect 28 0 26 0;
#X connect 28 0 27 0;
