#N canvas 1 1260 1438 800 10;
#X obj 50 31 s TFOut;
#X obj 51 130 s TFSpeaks;
#X obj 51 97 s TFOpensCurtains;
#X obj 34 16 bng 15 250 50 0 empty empty empty 17 7 0 10 -262144 -1
-1;
#X obj 35 115 bng 15 250 50 0 empty empty empty 17 7 0 10 -262144 -1
-1;
#X obj 34 49 bng 15 250 50 0 empty empty empty 17 7 0 10 -262144 -1
-1;
#X obj 35 82 bng 15 250 50 0 empty empty empty 17 7 0 10 -262144 -1
-1;
#X obj 35 180 bng 15 250 50 0 empty empty empty 17 7 0 10 -262144 -1
-1;
#X obj 51 195 s dunjonDoorsMoveJardin;
#X obj 35 147 bng 15 250 50 0 empty empty empty 17 7 0 10 -262144 -1
-1;
#X obj 51 162 s dunjonDoorsMoveCour;
#X obj 50 64 s DunjonInit;
#X obj 44 384 s ZombiesStopWalking;
#X obj 26 369 bng 15 250 50 0 empty empty empty 17 7 0 10 -262144 -1
-1;
#X obj 26 409 bng 15 250 50 0 empty empty empty 17 7 0 10 -262144 -1
-1;
#X obj 44 424 s DeactivateAll;
#X obj 174 384 s DunjonBangOff;
#X obj 29 236 bng 15 250 50 0 empty empty empty 17 7 0 10 -262144 -1
-1;
#X obj 49 251 s TFIn;
#X obj 30 279 bng 15 250 50 0 empty empty empty 17 7 0 10 -262144 -1
-1;
#X obj 108 251 s TFMutes;
#X obj 51 294 s HCourCloseCurtain;
#X obj 366 16 cnv 15 240 100 empty empty empty 20 12 0 14 -233017 -66577
0;
#X obj 374 68 s TFOut;
#X obj 374 23 bng 15 250 50 0 TorchumTFOut TorchumTFOut Torchum_TF_Out
17 7 0 10 -262144 -1 -1;
#X obj 393 38 s DunjonInit;
#X obj 367 133 cnv 15 240 100 empty empty empty 20 12 0 14 -233017
-66577 0;
#X obj 375 167 s TFOpensCurtains;
#X obj 528 209 s TFSpeaks;
#X obj 375 142 bng 15 250 50 0 TorchumTFOpensCurtains TorchumTFOpensCurtains
Torchum_TF_Opens_Curtains_and_Speaks 17 7 0 10 -262144 -1 -1;
#X msg 528 182 0;
#X obj 375 205 tgl 15 0 TFSpeaks TFSpeaks TFSpeaks 17 7 0 10 -262144
-1 -1 0 1;
#X obj 528 157 delay 29500;
#X obj 367 253 cnv 15 240 100 empty empty empty 20 12 0 14 -233017
-66577 0;
#X obj 528 329 s TFSpeaks;
#X obj 375 262 bng 15 250 50 0 TorchumTFOneMoGin TorchumTFOneMoGin
Torchum_TF_One_Mo_Gin 17 7 0 10 -262144 -1 -1;
#X msg 528 302 0;
#X obj 375 325 tgl 15 0 TFSpeaks TFSpeaks TFSpeaks 17 7 0 10 -262144
-1 -1 0 1;
#X obj 528 277 delay 3500;
#X obj 367 373 cnv 15 240 100 empty empty empty 20 12 0 14 -233017
-66577 0;
#X obj 528 449 s TFSpeaks;
#X obj 375 382 bng 15 250 50 0 TorchumTFSmellsTrubba TorchumTFSmellsTrubba
Torchum_TF_SmellsTrubba 17 7 0 10 -262144 -1 -1;
#X msg 528 422 0;
#X obj 375 445 tgl 15 0 TFSpeaks TFSpeaks TFSpeaks 17 7 0 10 -262144
-1 -1 0 1;
#X obj 528 397 delay 15700;
#X obj 367 613 cnv 15 240 100 empty empty empty 20 12 0 14 -233017
-66577 0;
#X obj 528 689 s TFSpeaks;
#X obj 375 622 bng 15 250 50 0 TorchumTFDoYosef TorchumTFDoYosef Torchum_TF_Do_Yosef
17 7 0 10 -262144 -1 -1;
#X msg 528 662 0;
#X obj 375 685 tgl 15 0 TFSpeaks TFSpeaks TFSpeaks 17 7 0 10 -262144
-1 -1 0 1;
#X obj 528 637 delay 15700;
#X obj 367 493 cnv 15 240 100 empty empty empty 20 12 0 14 -233017
-66577 0;
#X obj 375 502 bng 15 250 50 0 TorchumDunjonDoorsMove TorchumDunjonDoorsMove
Torchum_DunjonDoorsMove 17 7 0 10 -262144 -1 -1;
#X obj 375 536 s dunjonDoorsMoveCour;
#X obj 458 569 s dunjonDoorsMoveJardin;
#X obj 458 517 delay 8000;
#X obj 370 733 cnv 15 240 100 empty empty empty 20 12 0 14 -233017
-66577 0;
#X obj 380 771 s DaThingFishFacePlunges;
#X obj 380 745 tgl 15 0 TorchumTFPlungesMoves TorchumTFPlungesMoves
Torchum_TF_Plunges_And_Moves 17 7 0 10 -262144 -1 -1 0 1;
#X obj 380 805 s TFPlungingLooksAround;
#X connect 3 0 0 0;
#X connect 4 0 1 0;
#X connect 5 0 11 0;
#X connect 6 0 2 0;
#X connect 7 0 8 0;
#X connect 9 0 10 0;
#X connect 13 0 12 0;
#X connect 13 0 16 0;
#X connect 14 0 15 0;
#X connect 17 0 18 0;
#X connect 17 0 20 0;
#X connect 19 0 21 0;
#X connect 24 0 25 0;
#X connect 24 0 23 0;
#X connect 29 0 27 0;
#X connect 29 0 31 0;
#X connect 29 0 32 0;
#X connect 30 0 28 0;
#X connect 32 0 30 0;
#X connect 35 0 37 0;
#X connect 35 0 38 0;
#X connect 36 0 34 0;
#X connect 38 0 36 0;
#X connect 41 0 43 0;
#X connect 41 0 44 0;
#X connect 42 0 40 0;
#X connect 44 0 42 0;
#X connect 47 0 49 0;
#X connect 47 0 50 0;
#X connect 48 0 46 0;
#X connect 50 0 48 0;
#X connect 52 0 53 0;
#X connect 52 0 55 0;
#X connect 55 0 54 0;
#X connect 58 0 57 0;
#X connect 58 0 59 0;
