#N canvas 0 100 1440 800 10;
#X obj 50 31 s TFOut;
#X obj 51 130 s TFSpeaks;
#X obj 51 97 s TFOpensCurtains;
#X obj 34 16 bng 15 250 50 0 empty empty empty 17 7 0 10 -262144 -1
-1;
#X obj 35 115 bng 15 250 50 0 empty empty empty 17 7 0 10 -262144 -1
-1;
#X obj 34 49 bng 15 250 50 0 empty empty empty 17 7 0 10 -262144 -1
-1;
#X obj 35 82 bng 15 250 50 0 empty empty empty 17 7 0 10 -262144 -1
-1;
#X obj 35 180 bng 15 250 50 0 empty empty empty 17 7 0 10 -262144 -1
-1;
#X obj 51 195 s dunjonDoorsMoveJardin;
#X obj 35 147 bng 15 250 50 0 empty empty empty 17 7 0 10 -262144 -1
-1;
#X obj 51 162 s dunjonDoorsMoveCour;
#X obj 50 64 s DunjonInit;
#X obj 44 384 s ZombiesStopWalking;
#X obj 26 369 bng 15 250 50 0 empty empty empty 17 7 0 10 -262144 -1
-1;
#X obj 26 409 bng 15 250 50 0 empty empty empty 17 7 0 10 -262144 -1
-1;
#X obj 44 424 s DeactivateAll;
#X obj 174 384 s DunjonBangOff;
#X obj 29 236 bng 15 250 50 0 empty empty empty 17 7 0 10 -262144 -1
-1;
#X obj 49 251 s TFIn;
#X obj 30 279 bng 15 250 50 0 empty empty empty 17 7 0 10 -262144 -1
-1;
#X obj 108 251 s TFMutes;
#X obj 51 294 s HCourCloseCurtain;
#X connect 3 0 0 0;
#X connect 4 0 1 0;
#X connect 5 0 11 0;
#X connect 6 0 2 0;
#X connect 7 0 8 0;
#X connect 9 0 10 0;
#X connect 13 0 12 0;
#X connect 13 0 16 0;
#X connect 14 0 15 0;
#X connect 17 0 18 0;
#X connect 17 0 20 0;
#X connect 19 0 21 0;
