#N canvas 0 100 1440 800 10;
#X obj 445 23 cnv 15 240 280 empty empty empty 20 12 0 14 -257985 -66577
0;
#X obj 455 31 tgl 15 0 empty ThatEPTFPointsHR That_Evil_Prince_TF_Points_HR
17 7 0 10 -262144 -1 -1 0 1;
#X obj 455 73 s HandJardinPointerActivate;
#X obj 455 187 s HandJardinPointerAngle;
#X msg 510 164 -0.56;
#X obj 510 220 s HandJardinPointerXPosition;
#X obj 455 127 s DaThingFishFacePlunges;
#X obj 455 274 s TFLooksInAParticularDirection;
#X obj 455 215 delay 10;
#X obj 746 113 cnv 15 170 180 empty empty empty 20 12 0 14 -261682
-66577 0;
#X obj 758 259 hsl 128 15 0 127 0 0 empty ThatEPTFLooksHRAngle That_EP_TF_Looks_HR_Angle
-2 -8 0 10 -262144 -1 -1 3000 1;
#X msg 455 168 50;
#X msg 455 235 30;
#X obj 755 202 / -0.75;
#X obj 755 170 + 90;
#X obj 528 252 s ThatEPTFLooksHRAngle;
#X obj 455 147 sel 1;
#X obj 40 22 cnv 15 240 130 empty empty empty 20 12 0 14 -233017 -66577
0;
#X obj 49 31 bng 15 250 50 0 ThatEPTFDontYouWhiteFolks ThatEPTFDontYouWhiteFolks
That_EP_TF_Dont_You_White_Folks 17 7 0 10 -262144 -1 -1;
#X obj 49 127 tgl 15 0 ThatEPTFPointsHR empty That_EP_TF_Points_HR
17 7 0 10 -262144 -1 -1 0 1;
#X msg 149 82 0;
#X obj 149 46 delay 9999;
#X obj 40 172 cnv 15 240 130 empty empty empty 20 12 0 14 -233017 -66577
0;
#X obj 49 181 bng 15 250 50 0 ThatEPTFDadDereId ThatEPTFDadDereId That_EP_TF_Dad_Dere_Id
17 7 0 10 -262144 -1 -1;
#X obj 49 277 tgl 15 0 TFSpeaks empty TFSpeaks 17 7 0 10 -262144 -1
-1 0 1;
#X msg 149 232 0;
#X obj 149 196 delay 9999;
#X obj 40 322 cnv 15 260 360 empty empty empty 20 12 0 14 -233017 -66577
0;
#X obj 49 331 bng 15 250 50 0 ThatEPTFStraightenUp ThatEPTFStraightenUp
That_EP_TF_Straighten_Up 17 7 0 10 -262144 -1 -1;
#X obj 49 427 tgl 15 0 ThatEPTFPointsHR empty That_EP_TF_Points_HR
17 7 0 10 -262144 -1 -1 0 1;
#X msg 149 382 0;
#X obj 149 346 delay 9999;
#X obj 149 488 s TFIn;
#X obj 149 543 s HCourCloseCurtain;
#X obj 50 615 s DeactivateAll;
#X obj 149 517 delay 2000;
#X obj 149 570 delay 3000;
#X obj 149 465 delay 50;
#X obj 176 627 s DunjonBangOff;
#X obj 149 598 t b b;
#X obj 175 655 s ZombiesStopWalking;
#X connect 1 0 2 0;
#X connect 1 0 6 0;
#X connect 1 0 16 0;
#X connect 4 0 5 0;
#X connect 8 0 12 0;
#X connect 10 0 13 0;
#X connect 10 0 7 0;
#X connect 11 0 3 0;
#X connect 12 0 7 0;
#X connect 12 0 15 0;
#X connect 13 0 14 0;
#X connect 14 0 3 0;
#X connect 16 0 11 0;
#X connect 16 0 8 0;
#X connect 16 0 4 0;
#X connect 18 0 19 0;
#X connect 18 0 21 0;
#X connect 20 0 19 0;
#X connect 21 0 20 0;
#X connect 23 0 24 0;
#X connect 23 0 26 0;
#X connect 25 0 24 0;
#X connect 26 0 25 0;
#X connect 28 0 29 0;
#X connect 28 0 31 0;
#X connect 30 0 29 0;
#X connect 31 0 30 0;
#X connect 31 0 37 0;
#X connect 35 0 33 0;
#X connect 35 0 36 0;
#X connect 36 0 39 0;
#X connect 37 0 32 0;
#X connect 37 0 35 0;
#X connect 39 0 34 0;
#X connect 39 1 38 0;
#X connect 39 1 40 0;
