#N canvas 0 100 1440 800 10;
#X obj 165 99 s economicWorshipComesInFromjardin;
#X obj 191 59 s muddClubGetsOutToCour;
#X obj 165 44 bng 15 250 50 0 empty empty empty 17 7 0 10 -262144 -1
-1;
#X obj 47 145 s economicWorshipOn;
#X obj 23 130 bng 15 250 50 0 empty empty empty 17 7 0 10 -262144 -1
-1;
#X obj 13 12 bng 15 250 50 0 empty empty empty 17 7 0 10 -262144 -1
-1;
#X obj 90 27 s HandCineticScroll;
#X obj 29 27 delay 200;
#X obj 49 243 cnv 15 250 230 empty empty empty 20 12 0 14 -233017 -66577
0;
#X obj 53 449 s economicWorshipComesInFromjardin;
#X obj 79 409 s muddClubGetsOutToCour;
#X obj 53 394 bng 15 250 50 0 empty empty empty 17 7 0 10 -262144 -1
-1;
#X obj 53 252 bng 15 250 50 0 empty MuddClubScrollToEconomicWorship
MuddClub_Scroll_To_Economic_Worship 17 7 0 10 -262144 -1 -1;
#X obj 114 357 s HandCineticScroll;
#X obj 53 357 delay 200;
#X obj 53 281 bng 15 250 50 0 TFOut empty TF_Out 17 7 0 10 -262144
-1 -1;
#X obj 53 313 delay 7000;
#X obj 49 493 cnv 15 260 120 empty empty empty 20 12 0 14 -233017 -66577
0;
#X obj 53 502 bng 15 250 50 0 empty TheMeekTFWelcome TheMeek_TF_Welcome
17 7 0 10 -262144 -1 -1;
#X obj 53 562 tgl 15 0 TFSpeaks empty TFSpeaks 17 7 0 10 -262144 -1
-1 0 1;
#X obj 187 517 delay 6100;
#X msg 187 545 0;
#X obj 187 575 s economicWorshipOn;
#X connect 2 0 1 0;
#X connect 2 0 0 0;
#X connect 4 0 3 0;
#X connect 5 0 6 0;
#X connect 5 0 7 0;
#X connect 7 0 2 0;
#X connect 11 0 10 0;
#X connect 11 0 9 0;
#X connect 12 0 15 0;
#X connect 12 0 16 0;
#X connect 14 0 11 0;
#X connect 16 0 14 0;
#X connect 16 0 13 0;
#X connect 18 0 19 0;
#X connect 18 0 20 0;
#X connect 20 0 21 0;
#X connect 20 0 22 0;
#X connect 21 0 19 0;
