#N canvas 0 100 1440 800 10;
#X obj 243 92 s economicWorshipGetsOutToCour;
#X obj 77 40 s economicWorshipOff;
#X obj 39 25 bng 15 250 50 0 empty empty empty 17 7 0 10 -262144 -1
-1;
#X obj 70 126 s lightChambre1;
#X obj 88 178 s lightChambre2;
#X obj 36 163 bng 15 250 50 0 empty empty empty 17 7 0 10 -262144 -1
-1;
#X obj 38 111 bng 15 250 50 0 empty empty empty 17 7 0 10 -262144 -1
-1;
#X obj 440 92 s alladinHotelComesInFromJardin;
#X obj 39 60 bng 15 250 50 0 empty empty empty 17 7 0 10 -262144 -1
-1;
#X obj 116 75 s HandCineticScroll;
#X obj 55 75 delay 200;
#X obj 76 493 s DeactivateAll;
#X obj 15 478 bng 15 250 50 0 empty empty empty 17 7 0 10 -262144 -1
-1;
#X obj 76 439 s stopAlladinHotel;
#X obj 17 422 bng 15 250 50 0 empty empty empty 17 7 0 10 -262144 -1
-1;
#X obj 30 281 bng 15 250 50 0 empty empty empty 17 7 0 10 -262144 -1
-1;
#X obj 50 296 s TFIn;
#X obj 31 324 bng 15 250 50 0 empty empty empty 17 7 0 10 -262144 -1
-1;
#X obj 109 296 s TFMutes;
#X obj 52 339 s HCourCloseCurtain;
#X connect 2 0 1 0;
#X connect 5 0 4 0;
#X connect 6 0 3 0;
#X connect 8 0 9 0;
#X connect 8 0 10 0;
#X connect 10 0 0 0;
#X connect 10 0 7 0;
#X connect 12 0 11 0;
#X connect 14 0 13 0;
#X connect 15 0 16 0;
#X connect 15 0 18 0;
#X connect 17 0 19 0;
