#N canvas 0 100 1440 800 10;
#X obj 243 92 s economicWorshipGetsOutToCour;
#X obj 77 40 s economicWorshipOff;
#X obj 39 25 bng 15 250 50 0 empty empty empty 17 7 0 10 -262144 -1
-1;
#X obj 88 178 s lightChambre2;
#X obj 36 163 bng 15 250 50 0 empty empty empty 17 7 0 10 -262144 -1
-1;
#X obj 38 111 bng 15 250 50 0 empty empty empty 17 7 0 10 -262144 -1
-1;
#X obj 440 92 s alladinHotelComesInFromJardin;
#X obj 39 60 bng 15 250 50 0 empty empty empty 17 7 0 10 -262144 -1
-1;
#X obj 116 75 s HandCineticScroll;
#X obj 55 75 delay 200;
#X obj 76 493 s DeactivateAll;
#X obj 15 478 bng 15 250 50 0 empty empty empty 17 7 0 10 -262144 -1
-1;
#X obj 76 439 s stopAlladinHotel;
#X obj 17 422 bng 15 250 50 0 empty empty empty 17 7 0 10 -262144 -1
-1;
#X obj 30 281 bng 15 250 50 0 empty empty empty 17 7 0 10 -262144 -1
-1;
#X obj 50 296 s TFIn;
#X obj 31 324 bng 15 250 50 0 empty empty empty 17 7 0 10 -262144 -1
-1;
#X obj 109 296 s TFMutes;
#X obj 52 339 s HCourCloseCurtain;
#X obj 337 232 cnv 15 500 300 empty empty empty 20 12 0 14 -233017
-66577 0;
#X obj 347 239 bng 15 250 50 0 empty ClownsTFThassRight Clowns_TF_Thass_Right
17 7 0 10 -262144 -1 -1;
#X obj 347 493 tgl 15 0 TFSpeaks empty TFSpeaks 17 7 0 10 -262144 -1
-1 0 1;
#X obj 374 254 delay 7500;
#X msg 347 271 0;
#X obj 442 254 delay 14500;
#X obj 519 254 delay 20700;
#X obj 595 254 delay 32800;
#X obj 672 254 delay 40800;
#X obj 749 254 delay 61400;
#X obj 347 299 delay 9500;
#X obj 347 328 delay 15700;
#X obj 347 359 delay 20700;
#X obj 347 395 delay 33500;
#X obj 347 429 delay 41700;
#X obj 70 126 s lightChambre1;
#X obj 425 316 s lightChambre1;
#X obj 425 412 s lightChambre2;
#X obj 337 552 cnv 15 200 100 empty empty empty 20 12 0 14 -233017
-66577 0;
#X obj 347 559 bng 15 250 50 0 empty ClownsTFLesMeet Clowns_TF_Les_Meet
17 7 0 10 -262144 -1 -1;
#X obj 347 613 tgl 15 0 TFSpeaks empty TFSpeaks 17 7 0 10 -262144 -1
-1 0 1;
#X msg 347 591 0;
#X obj 374 574 delay 14000;
#X obj 374 636 delay 1000;
#X obj 374 660 s TFIn;
#X obj 374 681 delay 2000;
#X obj 374 708 s HCourCloseCurtain;
#X obj 374 793 s DeactivateAll;
#X obj 374 729 delay 3500;
#X obj 374 763 s stopAlladinHotel;
#X obj 831 281 noteout;
#X msg 831 254 14 127 11;
#X obj 551 601 noteout;
#X msg 551 574 15 127 11;
#X connect 2 0 1 0;
#X connect 4 0 3 0;
#X connect 5 0 34 0;
#X connect 7 0 8 0;
#X connect 7 0 9 0;
#X connect 9 0 0 0;
#X connect 9 0 6 0;
#X connect 11 0 10 0;
#X connect 13 0 12 0;
#X connect 14 0 15 0;
#X connect 14 0 17 0;
#X connect 16 0 18 0;
#X connect 20 0 21 0;
#X connect 20 0 22 0;
#X connect 20 0 24 0;
#X connect 20 0 25 0;
#X connect 20 0 26 0;
#X connect 20 0 27 0;
#X connect 20 0 28 0;
#X connect 20 0 29 0;
#X connect 20 0 30 0;
#X connect 20 0 31 0;
#X connect 20 0 32 0;
#X connect 20 0 33 0;
#X connect 20 0 50 0;
#X connect 22 0 23 0;
#X connect 23 0 21 0;
#X connect 24 0 23 0;
#X connect 25 0 23 0;
#X connect 26 0 23 0;
#X connect 27 0 23 0;
#X connect 28 0 23 0;
#X connect 29 0 21 0;
#X connect 29 0 35 0;
#X connect 30 0 21 0;
#X connect 31 0 21 0;
#X connect 32 0 21 0;
#X connect 32 0 36 0;
#X connect 33 0 21 0;
#X connect 38 0 39 0;
#X connect 38 0 41 0;
#X connect 38 0 52 0;
#X connect 40 0 39 0;
#X connect 41 0 40 0;
#X connect 41 0 42 0;
#X connect 42 0 43 0;
#X connect 42 0 44 0;
#X connect 44 0 45 0;
#X connect 44 0 47 0;
#X connect 47 0 46 0;
#X connect 47 0 48 0;
#X connect 50 0 49 0;
#X connect 52 0 51 0;
