#N canvas 0 100 1440 800 10;
#X obj 43 122 s harryComesInFromJardinProche;
#X obj 22 107 bng 15 250 50 0 empty empty empty 17 7 0 10 -262144 -1
-1;
#X obj 22 147 bng 15 250 50 0 empty empty empty 17 7 0 10 -262144 -1
-1;
#X obj 22 -13 bng 15 250 50 0 empty empty empty 17 7 0 10 -262144 -1
-1;
#X obj 43 2 s HesSoGayInit;
#X obj 22 27 bng 15 250 50 0 empty empty empty 17 7 0 10 -262144 -1
-1;
#X obj 22 67 bng 15 250 50 0 empty empty empty 17 7 0 10 -262144 -1
-1;
#X obj 43 42 s nuagesOnMove;
#X obj 43 82 s allumageFond;
#X obj 22 187 bng 15 250 50 0 empty empty empty 17 7 0 10 -262144 -1
-1;
#X obj 43 202 s brownMosesComesInFromTheCeiling;
#X obj 43 162 s TFOpensCurtains;
#X obj 48 273 s MNGroupsMove;
#X obj 17 257 bng 15 250 50 0 empty empty empty 17 7 0 10 -262144 -1
-1;
#X obj 74 233 s MammyNunsVPInit;
#X obj 19 229 bng 15 250 50 0 empty empty empty 17 7 0 10 -262144 -1
-1;
#X obj 292 194 s BrownMosesMoonWalks;
#X obj 292 214 s BrownMosesGetsBack;
#X obj 279 178 bng 15 250 50 0 empty empty empty 17 7 0 10 -262144
-1 -1;
#X obj 275 203 bng 15 250 50 0 empty empty empty 17 7 0 10 -262144
-1 -1;
#X obj 274 273 s MNTempoPieds;
#X obj 274 303 s MNTempoHands;
#X obj 274 333 s MNTempoHats;
#X obj 275 390 s MNTempoGroups;
#X obj 278 367 hsl 128 15 10000 500 0 0 empty MNTempoGroups MN_Tempo_Groups
-2 -8 0 10 -262144 -1 -1 7653 1;
#X obj 277 250 hsl 128 15 1000 300 0 0 empty MNTempoMembres MN_Tempo_Membres
-2 -8 0 10 -262144 -1 -1 8935 1;
#X obj 47 512 bng 15 250 50 0 empty empty empty 17 7 0 10 -262144 -1
-1;
#X obj 103 545 s HesSoGayOff;
#X obj 55 590 s DeactivateAll;
#X obj 19 580 bng 15 250 50 0 empty empty empty 17 7 0 10 -262144 -1
-1;
#X obj 20 366 bng 15 250 50 0 empty empty empty 17 7 0 10 -262144 -1
-1;
#X obj 40 381 s TFIn;
#X obj 21 409 bng 15 250 50 0 empty empty empty 17 7 0 10 -262144 -1
-1;
#X obj 99 381 s TFMutes;
#X obj 42 424 s HCourCloseCurtain;
#X obj 475 -5 cnv 15 250 200 empty empty empty 20 12 0 14 -233017 -66577
0;
#X obj 484 1 bng 15 250 50 0 empty HesSoGayBegins HesSoGayOpening 17
7 0 10 -262144 -1 -1;
#X obj 484 142 s harryComesInFromJardinProche;
#X obj 484 22 s HesSoGayInit;
#X obj 484 62 s nuagesOnMove;
#X obj 484 102 s allumageFond;
#X obj 475 215 cnv 15 250 80 empty empty empty 20 12 0 14 -233017 -66577
0;
#X obj 484 221 bng 15 250 50 0 empty HesSoGayOpening HesSoGay_Opening
17 7 0 10 -262144 -1 -1;
#X obj 484 250 s CurtainsOpened;
#X obj 484 169 s MammyNunsVPInit;
#X obj 476 313 cnv 15 100 60 empty empty empty 20 12 0 14 -233017 -66577
0;
#X obj 485 324 tgl 15 0 empty MNOnStage MN_OnStage 17 7 0 10 -262144
-1 -1 1 1;
#X obj 485 348 s MNGroupsMove;
#X obj 475 395 cnv 15 250 80 empty empty empty 20 12 0 14 -233017 -66577
0;
#X obj 484 401 bng 15 250 50 0 empty HesSoGayClosing HesSoGay_Closing
17 7 0 10 -262144 -1 -1;
#X obj 484 430 s CurtainsClosed;
#X obj 484 456 delay 3500;
#X obj 484 486 s HesSoGayOff;
#X obj 484 512 s DeactivateAll;
#X connect 1 0 0 0;
#X connect 2 0 11 0;
#X connect 3 0 4 0;
#X connect 5 0 7 0;
#X connect 6 0 8 0;
#X connect 9 0 10 0;
#X connect 13 0 12 0;
#X connect 15 0 14 0;
#X connect 18 0 16 0;
#X connect 19 0 17 0;
#X connect 24 0 23 0;
#X connect 25 0 20 0;
#X connect 25 0 21 0;
#X connect 25 0 22 0;
#X connect 26 0 27 0;
#X connect 29 0 28 0;
#X connect 30 0 31 0;
#X connect 30 0 33 0;
#X connect 32 0 34 0;
#X connect 36 0 38 0;
#X connect 36 0 39 0;
#X connect 36 0 40 0;
#X connect 36 0 37 0;
#X connect 36 0 44 0;
#X connect 42 0 43 0;
#X connect 46 0 47 0;
#X connect 49 0 50 0;
#X connect 49 0 51 0;
#X connect 51 0 52 0;
#X connect 51 0 53 0;
