#N canvas 7 100 1425 796 10;
#X obj 71 260 s MonteeBulleEtron;
#X obj 71 280 s MonteeBullesGlacePhallusTetine;
#X obj 71 330 s MonteeBulleVolvo;
#X obj 71 233 s MonteePremieresBullesVides;
#X obj 56 218 bng 15 250 50 0 empty empty empty 17 7 0 10 -262144 -1
-1;
#X obj 41 255 bng 15 250 50 0 empty empty empty 17 7 0 10 -262144 -1
-1;
#X obj 35 282 bng 15 250 50 0 empty empty empty 17 7 0 10 -262144 -1
-1;
#X obj 30 339 bng 15 250 50 0 empty empty empty 17 7 0 10 -262144 -1
-1;
#X obj 93 485 bng 15 250 50 0 empty empty empty 17 7 0 10 -262144 -1
-1;
#X obj 93 537 s StopMonteePremieresBullesVides;
#X obj 93 557 s StopMonteeTroisiemesBullesVides;
#X obj 40 369 bng 15 250 50 0 empty empty empty 17 7 0 10 -262144 -1
-1;
#X obj 81 360 s MonteeBullesClochettes;
#X obj 50 32 bng 15 250 50 0 empty empty empty 17 7 0 10 -262144 -1
-1;
#X obj 88 47 s NativiteInit;
#X obj 73 145 s TFOpensCurtains;
#X obj 57 130 bng 15 250 50 0 empty empty empty 17 7 0 10 -262144 -1
-1;
#X obj 92 74 s GirafeMoves;
#X obj 55 59 bng 15 250 50 0 empty empty empty 17 7 0 10 -262144 -1
-1;
#X obj 248 233 s CGBMoves;
#X obj 93 591 s GirafeStopsMoving;
#X obj 93 624 s CGBStopsMoving;
#X obj 93 652 s StopMonteeBullesClochettes;
#X obj 507 517 bng 15 250 50 0 empty empty empty 17 7 0 10 -262144
-1 -1;
#X obj 371 500 s HandCineticScroll;
#X obj 310 500 delay 200;
#X obj 533 532 s NativiteGetsOutToCour;
#X obj 507 572 s DriveInComesInFromJardin;
#X obj 96 113 s TFOut;
#X obj 56 98 bng 15 250 50 0 empty empty empty 17 7 0 10 -262144 -1
-1;
#X obj 78 187 s TFPushesItalianInHisHome;
#X obj 52 172 bng 15 250 50 0 empty empty empty 17 7 0 10 -262144 -1
-1;
#X obj 171 445 s TFPushesItalianBackUpstairs;
#X obj 93 445 delay 2500;
#X obj 45 430 bng 15 250 50 0 empty empty empty 17 7 0 10 -262144 -1
-1;
#X obj 745 16 cnv 15 200 250 empty empty empty 20 12 0 14 -233017 -66577
0;
#X obj 751 23 bng 15 250 50 0 empty CrabGrassBabyInit CrabGrassBabyInit
17 7 0 10 -262144 -1 -1;
#X obj 751 52 bng 15 250 50 0 OXAndTF empty OX_&_TF 17 7 0 10 -262144
-1 -1;
#X obj 751 163 s TFOpensCurtains;
#X obj 751 75 s NativiteInit;
#X obj 751 103 s GirafeMoves;
#X obj 751 126 delay 8000;
#X obj 752 230 s TFPushesItalianInHisHome;
#X obj 752 192 delay 4000;
#X obj 745 286 cnv 15 200 100 empty empty empty 20 12 0 14 -233017
-66577 0;
#X obj 751 293 bng 15 250 50 0 empty CrabGrassBabySpeaks CrabGrassBaby_Speaks
17 7 0 10 -262144 -1 -1;
#X obj 751 313 s MonteePremieresBullesVides;
#X obj 751 344 s CGBMoves;
#X obj 745 406 cnv 15 200 70 empty empty empty 20 12 0 14 -233017 -66577
0;
#X obj 751 413 bng 15 250 50 0 empty CrabGrassBabyPoopedMyPants CrabGrassBaby_Pooped_My_Pants
17 7 0 10 -262144 -1 -1;
#X obj 751 433 s MonteeBulleEtron;
#X obj 745 496 cnv 15 250 75 empty empty empty 20 12 0 14 -233017 -66577
0;
#X obj 751 503 bng 15 250 50 0 empty CrabGrassBabyCockOnceInAWhile
CrabGrassBaby_Cock_Once_In_A_While 17 7 0 10 -262144 -1 -1;
#X obj 751 523 s MonteeBullesGlacePhallusTetine;
#X obj 745 593 cnv 15 250 70 empty empty empty 20 12 0 14 -233017 -66577
0;
#X obj 751 600 bng 15 250 50 0 empty CrabGrassBabyGagMeWithAVolvo CrabGrassBaby_Gag_Me_With_A_Volvo
17 7 0 10 -262144 -1 -1;
#X obj 751 620 s MonteeBulleVolvo;
#X obj 745 683 cnv 15 250 70 empty empty empty 20 12 0 14 -233017 -66577
0;
#X obj 751 690 bng 15 250 50 0 empty CrabGrassBabyPecker CrabGrassBaby_Pecker
17 7 0 10 -262144 -1 -1;
#X obj 751 710 s MonteeBullesClochettes;
#X obj 745 773 cnv 15 250 70 empty empty empty 20 12 0 14 -233017 -66577
0;
#X obj 751 780 bng 15 250 50 0 empty CrabGrassBabyThisBoy CrabGrassBaby_ThisBoy
17 7 0 10 -262144 -1 -1;
#X obj 1010 772 cnv 15 240 280 empty empty empty 20 12 0 14 -257985
-66577 0;
#X obj 1020 780 tgl 15 0 empty CrabGrassBabyTFpointsMammy CrabGrassBaby_TF_points_Mammy
17 7 0 10 -262144 -1 -1 0 1;
#X obj 1020 822 s HandJardinPointerActivate;
#X obj 1020 936 s HandJardinPointerAngle;
#X obj 1075 969 s HandJardinPointerXPosition;
#X obj 1020 964 delay 10;
#X obj 1311 862 cnv 15 170 180 empty empty empty 20 12 0 14 -261682
-66577 0;
#X obj 1323 1008 hsl 128 15 -180 180 0 0 empty CrabGrassBabyTFLooksMammyAngle
CrabGrassBaby_TF_Looks_Mammy_Angle -2 -8 0 10 -262144 -1 -1 5292 1
;
#X msg 1020 917 50;
#X obj 1320 951 / -0.75;
#X obj 1320 919 + 90;
#X obj 1020 896 sel 1;
#X obj 1093 1001 s CrabGrassBabyTFLooksMammyAngle;
#X obj 751 869 tgl 15 0 CrabGrassBabyTFpointsMammy empty CrabGrassBaby_TF_points_Mammy
17 7 0 10 -262144 -1 -1 0 1;
#X msg 1020 984 -30;
#X msg 1075 913 -3.56;
#X obj 751 826 tgl 15 0 TFSpeaks empty TFSpeaks 17 7 0 10 -262144 -1
-1 0 1;
#X msg 874 809 0;
#X msg 874 852 0;
#X obj 753 912 bng 15 250 50 0 TFHandsClap empty TFHandsClap 17 7 0
10 -262144 -1 -1;
#X obj 872 794 delay;
#X obj 878 833 delay;
#X obj 750 850 delay;
#X obj 753 891 delay;
#X obj 753 942 bng 15 250 50 0 TFIn empty TFIn 17 7 0 10 -262144 -1
-1;
#X obj 745 1093 cnv 15 260 150 empty empty empty 20 12 0 14 -233017
-66577 0;
#X obj 751 1100 bng 15 250 50 0 empty StickItOutInit Stick_It_Out_Init
17 7 0 10 -262144 -1 -1;
#X obj 751 1133 bng 15 250 50 0 TFOut empty TFOut 17 7 0 10 -262144
-1 -1;
#X obj 1010 1092 cnv 15 460 280 empty empty empty 20 12 0 14 -257985
-66577 0;
#X obj 1068 1155 bng 15 250 50 0 empty empty empty 17 7 0 10 -262144
-1 -1;
#X obj 1068 1207 s StopMonteePremieresBullesVides;
#X obj 1068 1227 s StopMonteeTroisiemesBullesVides;
#X obj 1068 1261 s GirafeStopsMoving;
#X obj 1068 1294 s CGBStopsMoving;
#X obj 1068 1322 s StopMonteeBullesClochettes;
#X obj 1292 1187 bng 15 250 50 0 empty empty empty 17 7 0 10 -262144
-1 -1;
#X obj 1156 1170 s HandCineticScroll;
#X obj 1095 1170 delay 200;
#X obj 1318 1202 s NativiteGetsOutToCour;
#X obj 1292 1242 s DriveInComesInFromJardin;
#X obj 1146 1115 s TFPushesItalianBackUpstairs;
#X obj 1068 1115 delay 2500;
#X obj 1020 1100 bng 15 250 50 0 empty CrabGrassBabyScrollToStickItOut
Crab_Grass_Baby_Scroll_To_Stick_It_Out 17 7 0 10 -262144 -1 -1;
#X obj 751 1177 delay 3000;
#X obj 751 1206 bng 15 250 50 0 CrabGrassBabyScrollToStickItOut empty
Crab_Grass_Baby_Scroll_To_Stick_It_Out 17 7 0 10 -262144 -1 -1;
#X connect 4 0 3 0;
#X connect 4 0 19 0;
#X connect 5 0 0 0;
#X connect 6 0 1 0;
#X connect 7 0 2 0;
#X connect 8 0 10 0;
#X connect 8 0 20 0;
#X connect 8 0 21 0;
#X connect 8 0 22 0;
#X connect 8 0 9 0;
#X connect 8 0 25 0;
#X connect 8 0 24 0;
#X connect 11 0 12 0;
#X connect 13 0 14 0;
#X connect 16 0 15 0;
#X connect 18 0 17 0;
#X connect 23 0 26 0;
#X connect 23 0 27 0;
#X connect 25 0 23 0;
#X connect 29 0 28 0;
#X connect 31 0 30 0;
#X connect 33 0 8 0;
#X connect 34 0 33 0;
#X connect 34 0 32 0;
#X connect 36 0 37 0;
#X connect 36 0 39 0;
#X connect 36 0 40 0;
#X connect 36 0 41 0;
#X connect 41 0 38 0;
#X connect 41 0 43 0;
#X connect 43 0 42 0;
#X connect 45 0 46 0;
#X connect 45 0 47 0;
#X connect 49 0 50 0;
#X connect 52 0 53 0;
#X connect 55 0 56 0;
#X connect 58 0 59 0;
#X connect 61 0 78 0;
#X connect 63 0 64 0;
#X connect 63 0 73 0;
#X connect 67 0 76 0;
#X connect 69 0 71 0;
#X connect 70 0 65 0;
#X connect 71 0 72 0;
#X connect 72 0 65 0;
#X connect 73 0 70 0;
#X connect 73 0 67 0;
#X connect 73 0 77 0;
#X connect 76 0 74 0;
#X connect 77 0 66 0;
#X connect 79 0 78 0;
#X connect 80 0 75 0;
#X connect 88 0 89 0;
#X connect 88 0 105 0;
#X connect 91 0 93 0;
#X connect 91 0 94 0;
#X connect 91 0 95 0;
#X connect 91 0 96 0;
#X connect 91 0 92 0;
#X connect 91 0 99 0;
#X connect 91 0 98 0;
#X connect 97 0 100 0;
#X connect 97 0 101 0;
#X connect 99 0 97 0;
#X connect 103 0 91 0;
#X connect 104 0 103 0;
#X connect 104 0 102 0;
#X connect 105 0 106 0;
