#N canvas 542 406 450 300 10;
#X obj 50 24 s ArriveeDriveInPeople;
#X obj 25 9 bng 15 250 50 0 empty empty empty 17 7 0 10 -262144 -1
-1;
#X obj 30 56 bng 15 250 50 0 empty empty empty 17 7 0 10 -262144 -1
-1;
#X obj 78 71 s ArriveeTaureau;
#X obj 200 71 delay 500;
#X obj 279 88 s TaureauABasculeOn;
#X obj 404 88 s QRNKiffs;
#X connect 1 0 0 0;
#X connect 2 0 3 0;
#X connect 2 0 4 0;
#X connect 4 0 5 0;
#X connect 4 0 6 0;
