#N canvas 0 100 1440 800 10;
#X obj 50 24 s ArriveeDriveInPeople;
#X obj 25 9 bng 15 250 50 0 empty empty empty 17 7 0 10 -262144 -1
-1;
#X obj 30 56 bng 15 250 50 0 empty empty empty 17 7 0 10 -262144 -1
-1;
#X obj 78 71 s ArriveeTaureau;
#X obj 200 71 delay 500;
#X obj 279 88 s TaureauABasculeOn;
#X obj 404 88 s QRNKiffs;
#X obj 534 52 cnv 15 250 150 empty empty empty 20 12 0 14 -233017 -66577
0;
#X obj 543 60 bng 15 250 50 0 empty StickItOutMagischesSchwein Stick_It_Out_Magisches_Schwein
17 7 0 10 -262144 -1 -1;
#X obj 543 88 s ArriveeTaureau;
#X obj 665 75 delay 500;
#X obj 665 112 s TaureauABasculeOn;
#X obj 665 138 s QRNKiffs;
#X connect 1 0 0 0;
#X connect 2 0 3 0;
#X connect 2 0 4 0;
#X connect 4 0 5 0;
#X connect 4 0 6 0;
#X connect 8 0 9 0;
#X connect 8 0 10 0;
#X connect 10 0 11 0;
#X connect 10 0 12 0;
