#N canvas 7 100 1425 796 10;
#X obj 20 19 bng 15 250 50 0 empty empty empty 17 7 0 10 -262144 -1
-1;
#X obj 434 51 bng 15 250 50 0 empty empty empty 17 7 0 10 -262144 -1
-1;
#X obj 298 34 s HandCineticScroll;
#X obj 237 34 delay 200;
#X obj 20 57 s DriveInGetsOutToCour;
#X obj 464 66 s NativiteComesInFromJardinWithoutCGB;
#X obj 603 34 s TruckLightningStops;
#X obj 482 34 s DriveInHarryStops;
#X obj 161 189 s GirafeStopsMoving;
#X obj 170 166 bng 15 250 50 0 empty empty empty 17 7 0 10 -262144
-1 -1;
#X obj 26 114 bng 15 250 50 0 empty empty empty 17 7 0 10 -262144 -1
-1;
#X obj 81 129 s OXKidnapped;
#X obj 465 149 cnv 15 380 250 empty empty empty 20 12 0 14 -233017
-66577 0;
#X obj 477 157 bng 15 250 50 0 empty BriefcaseBoogieInit Briefcase_Boogie_Init
17 7 0 10 -262144 -1 -1;
#X obj 598 250 bng 15 250 50 0 empty empty empty 17 7 0 10 -262144
-1 -1;
#X obj 477 217 s HandCineticScroll;
#X obj 598 172 delay 200;
#X obj 598 306 s DriveInGetsOutToCour;
#X obj 598 278 s NativiteComesInFromJardinWithoutCGB;
#X obj 598 204 s TruckLightningStops;
#X obj 598 227 s DriveInHarryStops;
#X obj 598 373 s TFPushesItalianInHisHome;
#X obj 598 335 delay 700;
#X obj 855 419 cnv 15 240 280 empty empty empty 20 12 0 14 -257985
-66577 0;
#X obj 865 427 tgl 15 0 empty BriefcaseBoogieTFPointsH BriefcaseBoogie_TF_Points_H
17 7 0 10 -262144 -1 -1 0 1;
#X obj 865 469 s HandJardinPointerActivate;
#X obj 865 583 s HandJardinPointerAngle;
#X msg 920 560 -0.56;
#X obj 920 616 s HandJardinPointerXPosition;
#X obj 865 523 s DaThingFishFacePlunges;
#X obj 865 670 s TFLooksInAParticularDirection;
#X obj 865 611 delay 10;
#X obj 1156 509 cnv 15 170 180 empty empty empty 20 12 0 14 -261682
-66577 0;
#X obj 1168 655 hsl 128 15 0 127 0 0 empty BriefcaseBoogieTFLooksHAngle
BriefcaseBoogie_TF_Looks_H_Angle -2 -8 0 10 -262144 -1 -1 3000 1;
#X msg 865 564 50;
#X msg 865 631 30;
#X obj 1165 598 / -0.75;
#X obj 1165 566 + 90;
#X obj 865 543 sel 1;
#X obj 938 648 s BriefcaseBoogieTFLooksHAngle;
#X obj 465 419 cnv 15 200 70 empty empty empty 20 12 0 14 -233017 -66577
0;
#X obj 477 427 bng 15 250 50 0 empty BriefcaseBoogieTFOoohLawd Briefcase_Boogie_OoohLawd
17 7 0 10 -262144 -1 -1;
#X obj 477 478 tgl 15 0 BriefcaseBoogieTFPointsH empty BriefcaseBoogie_TF_Points_H
17 7 0 10 -262144 -1 -1 0 1;
#X obj 465 509 cnv 15 200 70 empty empty empty 20 12 0 14 -233017 -66577
0;
#X obj 477 517 bng 15 250 50 0 empty BriefcaseBoogieTFYallMake Briefcase_Boogie_YallMake
17 7 0 10 -262144 -1 -1;
#X obj 477 568 tgl 15 0 BriefcaseBoogieTFPointsH empty BriefcaseBoogie_TF_Points_H
17 7 0 10 -262144 -1 -1 0 1;
#X obj 466 598 cnv 15 230 100 empty empty empty 20 12 0 14 -233017
-66577 0;
#X obj 476 635 s DaThingFishFaceNostrilsWideOpen;
#X obj 476 607 tgl 15 0 empty BriefcaseBoogieRubberMammy BriefcaseBoogie_Rubber_Mammy
17 7 0 10 -262144 -1 -1 0 1;
#X obj 476 655 s DaThingFishFaceEyesWideOpen;
#X obj 466 718 cnv 15 230 100 empty empty empty 20 12 0 14 -233017
-66577 0;
#X obj 476 730 bng 15 250 50 0 empty BriefcaseBoogieTFSisterO BriefcaseBoogie_TF_Sister_O
17 7 0 10 -262144 -1 -1;
#X obj 716 745 delay 15200;
#X msg 476 762 1;
#X obj 476 801 tgl 15 0 DaThingFishFaceProfileStillSpeaking empty DaThingFishFaceProfileStillSpeaking
17 7 0 10 -262144 -1 -1 1 1;
#X obj 867 823 cnv 15 100 60 empty empty empty 20 12 0 14 -257985 -66577
0;
#X obj 886 829 tgl 15 0 empty BriefcaseBoogieTFRonde BriefcaseBoogie_TF_Ronde
17 7 0 10 -262144 -1 -1 0 1;
#X msg 915 978 0;
#X msg 884 981 1;
#X msg 985 958 0;
#X msg 954 961 1;
#X obj 954 994 tgl 15 0 BriefcaseBoogieRubberMammy empty BriefcaseBoogie_Rubber_Mammy
17 7 0 10 -262144 -1 -1 0 1;
#X obj 1026 974 tgl 15 0 TFHidingEyes empty TF_Hiding_Eyes 17 7 0 10
-262144 -1 -1 0 1;
#X msg 1055 948 0;
#X msg 1024 951 1;
#X msg 1126 909 stop;
#X obj 1102 952 s TFIn;
#X obj 1159 961 delay 2500;
#X obj 1165 986 s TFOut;
#X obj 955 934 sel 0;
#X obj 1026 924 sel 1;
#X obj 1092 879 sel 2;
#X obj 835 918 delay 600;
#X obj 816 1005 s DaThingFishFacePlunges;
#X obj 816 1039 s TFPlungingLooksAround;
#X obj 818 957 delay 500;
#X obj 1036 1044 tgl 15 0 BriefcaseBoogieSisterO empty SisterO 17 7
0 10 -262144 -1 -1 0 1;
#X msg 1065 1018 0;
#X msg 1034 1021 1;
#X obj 1036 994 sel 3;
#X obj 886 880 random 4;
#X obj 886 850 metro 6000;
#X obj 1156 936 delay 4000;
#X obj 761 970 sel 0;
#X obj 465 959 cnv 15 200 70 empty empty empty 20 12 0 14 -233017 -66577
0;
#X obj 477 967 bng 15 250 50 0 empty BriefcaseBoogieTFObdwellaIsYou
Briefcase_Boogie_Obdwella_Is_You 17 7 0 10 -262144 -1 -1;
#X obj 477 1022 tgl 15 0 BriefcaseBoogieTFPointsH empty BriefcaseBoogie_TF_Points_H
17 7 0 10 -262144 -1 -1 0 1;
#X msg 750 189 /Djbebe/RenderOrder -17;
#X obj 750 224 s OSC_MESSAGES;
#X obj 476 688 s AgreementsInit;
#X obj 476 672 sel 1;
#X obj 465 1049 cnv 15 200 70 empty empty empty 20 12 0 14 -233017
-66577 0;
#X obj 477 1057 bng 15 250 50 0 empty BriefcaseBoogieTFGirl Briefcase_Boogie_TFGirl
17 7 0 10 -262144 -1 -1;
#X obj 477 1172 tgl 15 0 BriefcaseBoogieTFPointsR empty BriefcaseBoogie_TF_Points_R
17 7 0 10 -262144 -1 -1 0 1;
#X obj 855 1089 cnv 15 240 280 empty empty empty 20 12 0 14 -257985
-66577 0;
#X obj 865 1097 tgl 15 0 empty BriefcaseBoogieTFPointsR BriefcaseBoogie_TF_Points_R
17 7 0 10 -262144 -1 -1 0 1;
#X obj 865 1139 s HandJardinPointerActivate;
#X obj 865 1253 s HandJardinPointerAngle;
#X obj 920 1286 s HandJardinPointerXPosition;
#X obj 865 1193 s DaThingFishFacePlunges;
#X obj 865 1340 s TFLooksInAParticularDirection;
#X obj 865 1281 delay 10;
#X obj 1156 1179 cnv 15 170 180 empty empty empty 20 12 0 14 -261682
-66577 0;
#X obj 1168 1325 hsl 128 15 -180 180 0 0 empty BriefcaseBoogieTFLooksRAngle
BriefcaseBoogie_TF_Looks_R_Angle -2 -8 0 10 -262144 -1 -1 5292 1;
#X obj 1165 1268 / -0.75;
#X obj 1165 1236 + 90;
#X obj 865 1213 sel 1;
#X obj 938 1318 s BriefcaseBoogieTFLooksRAngle;
#X msg 865 1301 -30;
#X msg 865 1234 90;
#X msg 920 1230 -3;
#X msg 555 1130 0;
#X obj 555 1203 delay 2000;
#X msg 605 1072 0;
#X obj 555 1237 bng 15 250 50 0 StyloIsFalling empty Stylo_Is_Falling
17 7 0 10 -262144 -1 -1;
#X obj 605 1133 s BriefcaseBoogieTFRonde;
#X obj 555 1278 delay 10000;
#X obj 555 1303 bng 15 250 50 0 TFOutWithPen empty TF_Out_With_Pen
17 7 0 10 -262144 -1 -1;
#X obj 474 1366 cnv 15 300 250 empty empty empty 20 12 0 14 -233017
-66577 0;
#X obj 485 1485 bng 15 250 50 0 empty empty empty 17 7 0 10 -262144
-1 -1;
#X obj 485 1571 s GirafeStopsMoving;
#X obj 592 1547 bng 15 250 50 0 empty empty empty 17 7 0 10 -262144
-1 -1;
#X obj 653 1500 s HandCineticScroll;
#X obj 592 1500 delay 200;
#X obj 618 1562 s NativiteGetsOutToCour;
#X obj 563 1445 s TFPushesItalianBackUpstairs;
#X obj 485 1455 delay 2500;
#X obj 485 1430 bng 15 250 50 0 empty empty empty 17 7 0 10 -262144
-1 -1;
#X obj 488 1395 bng 15 250 50 0 TFOut empty TFOut 17 7 0 10 -262144
-1 -1;
#X obj 580 1390 delay 3500;
#X obj 488 1375 bng 15 250 50 0 empty BriefcaseBoogieScrollToBrownMoses
Briefcase_Boogie_ScrollTo_Brown_Moses 17 7 0 10 -262144 -1 -1;
#X obj 592 1602 s CeneComesInFromJardin;
#X obj 717 469 noteout;
#X msg 717 442 17 127 11;
#X obj 624 442 delay 10500;
#X msg 624 461 0;
#X obj 717 559 noteout;
#X msg 624 551 0;
#X msg 717 532 18 127 11;
#X obj 624 532 delay 4100;
#X obj 797 772 noteout;
#X msg 797 745 19 127 11;
#X obj 512 771 s DaThingFishFaceGetsBackStraightStillSpeaking;
#X msg 716 792 0;
#X obj 716 819 tgl 15 0 TFSpeaks empty TFSpeaks 17 7 0 10 -262144 -1
-1 0 1;
#X obj 512 745 delay 2800;
#X obj 677 1009 noteout;
#X msg 677 982 20 127 11;
#X obj 528 982 delay 18500;
#X msg 528 1005 0;
#X obj 757 1130 noteout;
#X msg 757 1103 21 127 11;
#X obj 555 1103 delay 2500;
#X obj 477 1086 delay 4000;
#X connect 0 0 3 0;
#X connect 0 0 2 0;
#X connect 0 0 4 0;
#X connect 0 0 7 0;
#X connect 0 0 6 0;
#X connect 1 0 5 0;
#X connect 3 0 1 0;
#X connect 9 0 8 0;
#X connect 10 0 11 0;
#X connect 13 0 16 0;
#X connect 13 0 15 0;
#X connect 14 0 18 0;
#X connect 16 0 14 0;
#X connect 16 0 20 0;
#X connect 16 0 19 0;
#X connect 16 0 17 0;
#X connect 16 0 22 0;
#X connect 16 0 87 0;
#X connect 22 0 21 0;
#X connect 24 0 25 0;
#X connect 24 0 29 0;
#X connect 24 0 38 0;
#X connect 27 0 28 0;
#X connect 31 0 35 0;
#X connect 33 0 36 0;
#X connect 33 0 30 0;
#X connect 34 0 26 0;
#X connect 35 0 30 0;
#X connect 35 0 39 0;
#X connect 36 0 37 0;
#X connect 37 0 26 0;
#X connect 38 0 34 0;
#X connect 38 0 31 0;
#X connect 38 0 27 0;
#X connect 41 0 42 0;
#X connect 41 0 133 0;
#X connect 41 0 134 0;
#X connect 44 0 45 0;
#X connect 44 0 138 0;
#X connect 44 0 139 0;
#X connect 48 0 47 0;
#X connect 48 0 49 0;
#X connect 48 0 90 0;
#X connect 51 0 52 0;
#X connect 51 0 53 0;
#X connect 51 0 141 0;
#X connect 51 0 145 0;
#X connect 52 0 143 0;
#X connect 53 0 54 0;
#X connect 56 0 81 0;
#X connect 56 0 83 0;
#X connect 57 0 73 0;
#X connect 57 0 74 0;
#X connect 58 0 73 0;
#X connect 58 0 74 0;
#X connect 59 0 61 0;
#X connect 60 0 61 0;
#X connect 63 0 62 0;
#X connect 64 0 62 0;
#X connect 65 0 81 0;
#X connect 67 0 68 0;
#X connect 69 0 60 0;
#X connect 69 0 72 0;
#X connect 69 1 59 0;
#X connect 70 0 64 0;
#X connect 70 0 72 0;
#X connect 70 1 63 0;
#X connect 71 0 65 0;
#X connect 71 0 66 0;
#X connect 71 0 67 0;
#X connect 71 0 82 0;
#X connect 72 0 59 0;
#X connect 72 0 63 0;
#X connect 72 0 75 0;
#X connect 75 0 58 0;
#X connect 77 0 76 0;
#X connect 78 0 76 0;
#X connect 79 0 78 0;
#X connect 79 1 77 0;
#X connect 80 0 69 0;
#X connect 80 0 70 0;
#X connect 80 0 71 0;
#X connect 80 0 79 0;
#X connect 81 0 57 0;
#X connect 81 0 80 0;
#X connect 82 0 81 0;
#X connect 83 0 57 0;
#X connect 85 0 86 0;
#X connect 85 0 147 0;
#X connect 85 0 148 0;
#X connect 87 0 88 0;
#X connect 90 0 89 0;
#X connect 92 0 113 0;
#X connect 92 0 153 0;
#X connect 95 0 96 0;
#X connect 95 0 99 0;
#X connect 95 0 106 0;
#X connect 101 0 108 0;
#X connect 103 0 104 0;
#X connect 103 0 100 0;
#X connect 104 0 105 0;
#X connect 105 0 97 0;
#X connect 106 0 109 0;
#X connect 106 0 101 0;
#X connect 106 0 110 0;
#X connect 108 0 100 0;
#X connect 108 0 107 0;
#X connect 109 0 97 0;
#X connect 110 0 98 0;
#X connect 111 0 93 0;
#X connect 112 0 114 0;
#X connect 112 0 116 0;
#X connect 113 0 115 0;
#X connect 116 0 117 0;
#X connect 119 0 120 0;
#X connect 119 0 123 0;
#X connect 119 0 122 0;
#X connect 121 0 124 0;
#X connect 121 0 131 0;
#X connect 123 0 121 0;
#X connect 126 0 119 0;
#X connect 127 0 126 0;
#X connect 127 0 125 0;
#X connect 129 0 127 0;
#X connect 130 0 128 0;
#X connect 130 0 129 0;
#X connect 133 0 132 0;
#X connect 134 0 135 0;
#X connect 135 0 42 0;
#X connect 137 0 45 0;
#X connect 138 0 136 0;
#X connect 139 0 137 0;
#X connect 141 0 140 0;
#X connect 143 0 144 0;
#X connect 145 0 142 0;
#X connect 147 0 146 0;
#X connect 148 0 149 0;
#X connect 149 0 86 0;
#X connect 151 0 150 0;
#X connect 152 0 111 0;
#X connect 152 0 112 0;
#X connect 153 0 93 0;
#X connect 153 0 152 0;
#X connect 153 0 151 0;
