#N canvas 1 100 954 573 10;
#X obj 61 66 s TFOpensCurtains;
#X obj 44 18 bng 15 250 50 0 empty empty empty 17 7 0 10 -262144 -1
-1;
#X obj 45 51 bng 15 250 50 0 empty empty empty 17 7 0 10 -262144 -1
-1;
#X obj 60 33 s DunjonInit;
#X obj 43 152 bng 15 250 50 0 empty empty empty 17 7 0 10 -262144 -1
-1;
#X obj 59 167 s dunjonDoorsMoveJardin;
#X obj 43 119 bng 15 250 50 0 empty empty empty 17 7 0 10 -262144 -1
-1;
#X obj 59 134 s dunjonDoorsMoveCour;
#X obj 216 134 s ZombiesMammified;
#X connect 1 0 3 0;
#X connect 2 0 0 0;
#X connect 4 0 5 0;
#X connect 6 0 7 0;
#X connect 6 0 8 0;
