#N canvas 7 100 1425 796 10;
#X obj 40 21 s TFOut;
#X obj 40 54 s TFSpeaks;
#X obj 42 120 s TFOpensCurtains;
#X obj 41 87 s DunjonBang;
#X obj 24 6 bng 15 250 50 0 empty empty empty 17 7 0 10 -262144 -1
-1;
#X obj 24 39 bng 15 250 50 0 empty empty empty 17 7 0 10 -262144 -1
-1;
#X obj 25 72 bng 15 250 50 0 empty empty empty 17 7 0 10 -262144 -1
-1;
#X obj 26 105 bng 15 250 50 0 empty empty empty 17 7 0 10 -262144 -1
-1;
#X obj 225 305 s DunjonCineticPissOff;
#X obj 26 273 bng 15 250 50 0 empty empty empty 17 7 0 10 -262144 -1
-1;
#X obj 364 305 s evilPrinceMovesCour;
#X obj 497 305 s prisonComesInFromJardin;
#X obj 120 87 s evilPrinceInit;
#X obj 103 288 s HandCineticScroll;
#X obj 42 288 delay 200;
#X obj 655 305 s musiciansArePlaying;
#X obj 41 153 s apparitionBulleHomoBlack;
#X obj 42 186 s finalSolutium;
#X obj 26 138 bng 15 250 50 0 empty empty empty 17 7 0 10 -262144 -1
-1;
#X obj 26 171 bng 15 250 50 0 empty empty empty 17 7 0 10 -262144 -1
-1;
#X obj 27 203 bng 15 250 50 0 empty empty empty 17 7 0 10 -262144 -1
-1;
#X obj 44 250 s allumageIdee;
#X obj 28 235 bng 15 250 50 0 empty empty empty 17 7 0 10 -262144 -1
-1;
#X obj 333 259 s extinctionIdee;
#X obj 317 244 bng 15 250 50 0 empty empty empty 17 7 0 10 -262144
-1 -1;
#X obj 43 218 s disparitionBulleHomoBlack;
#X obj 24 320 bng 15 250 50 0 empty empty empty 17 7 0 10 -262144 -1
-1;
#X obj 25 354 bng 15 250 50 0 empty empty empty 17 7 0 10 -262144 -1
-1;
#X obj 43 369 s assiettesScrollingToJardin;
#X obj 40 335 s tapisRoulantComesInFromCour;
#X obj 26 387 bng 15 250 50 0 empty empty empty 17 7 0 10 -262144 -1
-1;
#X obj 47 402 delay 200;
#X obj 116 402 s HandCineticScroll;
#X obj 242 419 s prisonGetsOutToCour;
#X obj 379 419 s tapisRoulantGetsOutToCour;
#X obj 551 419 s musiciansArentPlaying;
#X obj 699 419 s homoBlackComeInFromJardin;
#X connect 4 0 0 0;
#X connect 5 0 1 0;
#X connect 6 0 3 0;
#X connect 6 0 12 0;
#X connect 7 0 2 0;
#X connect 9 0 13 0;
#X connect 9 0 14 0;
#X connect 14 0 8 0;
#X connect 14 0 10 0;
#X connect 14 0 11 0;
#X connect 14 0 15 0;
#X connect 18 0 16 0;
#X connect 19 0 17 0;
#X connect 20 0 25 0;
#X connect 22 0 21 0;
#X connect 24 0 23 0;
#X connect 26 0 29 0;
#X connect 27 0 28 0;
#X connect 30 0 31 0;
#X connect 30 0 32 0;
#X connect 31 0 33 0;
#X connect 31 0 34 0;
#X connect 31 0 35 0;
#X connect 31 0 36 0;
