#N canvas 1 100 1438 759 10;
#X declare -path ./lib/sssad;
#X declare -path ./lib/sssad;
#X declare -path ./lib/sssad;
#X declare -path ./lib/sssad;
#X declare -path ./lib/sssad;
#X declare -path ./lib/sssad;
#X declare -path ./lib/sssad;
#X declare -path ./lib/sssad;
#X declare -path ./lib/sssad;
#X declare -path ./lib/sssad;
#X declare -path ./lib/sssad;
#X declare -path ./lib/sssad;
#X declare -path ./lib/sssad;
#X declare -path ./lib/sssad;
#X declare -path ./lib/sssad;
#X declare -path ./lib/sssad;
#X declare -path ./lib/sssad;
#X declare -path ./lib/sssad;
#X declare -path ./lib/sssad;
#X declare -path ./lib/sssad;
#X declare -path ./lib/sssad;
#X declare -path ./lib/sssad;
#X declare -path ./lib/sssad;
#X declare -path ./lib/sssad;
#X declare -path ./lib/sssad;
#X declare -path ./lib/sssad;
#X declare -path ./lib/sssad;
#X declare -path ./lib/sssad;
#X declare -path ./lib/sssad;
#X declare -path ./lib/sssad;
#X declare -path ./lib/sssad;
#X declare -path ./lib/sssad;
#X declare -path ./lib/sssad;
#X declare -path ./lib/sssad;
#X declare -path ./lib/sssad;
#X declare -path ./lib/sssad;
#X declare -path ./lib/sssad;
#X declare -path ./lib/sssad;
#X declare -path ./lib/sssad;
#X declare -path ./lib/sssad;
#X declare -path ./lib/sssad;
#X declare -path ./lib/sssad;
#X declare -path ./lib/sssad;
#X declare -path ./lib/sssad;
#X declare -path ./lib/sssad;
#X declare -path ./lib/sssad;
#X declare -path ./lib/sssad;
#X declare -path ./lib/sssad;
#X declare -path ./lib/sssad;
#X declare -path ./lib/sssad;
#X declare -path ./lib/sssad;
#X declare -path ./lib/sssad;
#X declare -path ./lib/sssad;
#X declare -path ./lib/sssad;
#X declare -path ./lib/sssad;
#X declare -path ./lib/sssad;
#X declare -path ./lib/sssad;
#X declare -path ./lib/sssad;
#X declare -path ./lib/sssad;
#X declare -path ./lib/sssad;
#X declare -path ./lib/sssad;
#X declare -path ./lib/sssad;
#X declare -path ./lib/sssad;
#X declare -path ./lib/sssad;
#X declare -path ./lib/sssad;
#X declare -path ./lib/sssad;
#X declare -path ./lib/sssad;
#X declare -path ./lib/sssad;
#X declare -path ./lib/sssad;
#X declare -path ./lib/sssad;
#X declare -path ./lib/sssad;
#X declare -path ./lib/sssad;
#X declare -path ./lib/sssad;
#X declare -path ./lib/sssad;
#X declare -path ./lib/sssad;
#X declare -path ./lib/sssad;
#X declare -path ./lib/sssad;
#X declare -path ./lib/sssad;
#X declare -path ./lib/sssad;
#X declare -path ./lib/sssad;
#X declare -path ./lib/sssad;
#X declare -path ./lib/sssad;
#X declare -path ./lib/sssad;
#X declare -path ./lib/sssad;
#X declare -path ./lib/sssad;
#X declare -path ./lib/sssad;
#X declare -path ./lib/sssad;
#X declare -path ./lib/sssad;
#X declare -path ./lib/sssad;
#X declare -path ./lib/sssad;
#X declare -path ./lib/sssad;
#X declare -path ./lib/sssad;
#X declare -path ./lib/sssad;
#X declare -path ./lib/sssad;
#X declare -path ./lib/sssad;
#X declare -path ./lib/sssad;
#X declare -path ./lib/sssad;
#X declare -path ./lib/sssad;
#X declare -path ./lib/sssad;
#X declare -path ./lib/sssad;
#X declare -path ./lib/sssad;
#X declare -path ./lib/sssad;
#X declare -path ./lib/sssad;
#X declare -path ./lib/sssad;
#X declare -path ./lib/sssad;
#X declare -path ./lib/sssad;
#X declare -path ./lib/sssad;
#X declare -path ./lib/sssad;
#X declare -path ./lib/sssad;
#X declare -path ./lib/sssad;
#X declare -path ./lib/sssad;
#X declare -path ./lib/sssad;
#X declare -path ./lib/sssad;
#X declare -path ./lib/sssad;
#X declare -path ./lib/sssad;
#X declare -path ./lib/sssad;
#X declare -path ./lib/sssad;
#X declare -path ./lib/sssad;
#X declare -path ./lib/sssad;
#X declare -path ./lib/sssad;
#X declare -path ./lib/sssad;
#X declare -path ./lib/sssad;
#X declare -path ./lib/sssad;
#X declare -path ./lib/sssad;
#X declare -path ./lib/sssad;
#X declare -path ./lib/sssad;
#X declare -path ./lib/sssad;
#X declare -path ./lib/sssad;
#X declare -path ./lib/sssad;
#X declare -path ./lib/sssad;
#X declare -path ./lib/sssad;
#X declare -path ./lib/sssad;
#X declare -path ./lib/sssad;
#X declare -path ./lib/sssad;
#X declare -path ./lib/sssad;
#X declare -path ./lib/sssad;
#X declare -path ./lib/sssad;
#X declare -path ./lib/sssad;
#X declare -path ./lib/sssad;
#X declare -path ./lib/sssad;
#X declare -path ./lib/sssad;
#X declare -path ./lib/sssad;
#X declare -path ./lib/sssad;
#X declare -path ./lib/sssad;
#X declare -path ./lib/sssad;
#X declare -path ./lib/sssad;
#X obj -273 -77 zac.mouse;
#X obj -433 -263 zac.videoprojecteur /mainVP;
#X obj -319 -26 Curtains/curtainsMain;
#X obj -275 -264 zac.sauvegarde /file;
#X obj -272 -104 send OSC_MESSAGES;
#X obj -272 -176 loadbang;
#X msg -272 -154 /file/Load /home/woii/2013_Sebkha-ChottGalootFormula_ThingFish/ThingFishVideoDecorum/main.initosc
;
#X obj 384 168 zac.lumiere /fond;
#X obj -319 -2 DaThingFish/DaThingFishFace/daThingFishMain;
#X obj -382 111 s TFOut;
#X msg -382 84 bang TFOut Debut;
#X msg 112 99 bang TFSpeaks;
#X msg 245 98 bang TFMutes;
#X obj 112 137 s TFSpeaks;
#X obj 245 136 s TFMutes;
#X obj 140 235 s TFSpeechSpeed;
#X obj 143 203 hsl 128 15 10 20 0 0 empty empty empty -2 -8 0 10 -262144
-1 -1 7620 1;
#X obj 140 159 loadbang;
#X msg 140 180 16;
#X obj -318 22 Dunjon/dunjonMain;
#X msg -570 255 bang CurtainsOpened;
#X obj -570 291 s CurtainsOpened;
#X obj -575 383 s CurtainsClosed;
#X msg -575 337 bang CurtainsClosed;
#X msg -383 151 bang DunjonBang;
#X obj -383 182 s DunjonBang;
#X msg -383 295 bang DunjonBangOff;
#X obj -383 329 s DunjonBangOff;
#X obj -38 -2 Italien/italienMain;
#X obj -318 47 MammyNuns/mammyNunsMain;
#X obj -382 265 s DunjonCineticPissOff;
#X obj -221 223 s HandCineticScroll;
#X msg -382 206 bang DunjonCineticPissOff;
#X obj -382 240 delay 200;
#X obj -143 31 Prison/prisonMain;
#X obj 3 33 EvilPrince/mainEvilPrince;
#X obj -217 257 s evilPrinceMovesCour;
#X obj -76 257 s prisonComesInFromJardin;
#X obj -200 168 s evilPrinceInit;
#X obj 484 -255 01_Prologue;
#X obj 121 1 HomoBlack/homoBlackMain;
#X obj 484 -230 05_Torchum;
#X obj 226 36 Zombies/zombiesMain;
#X connect 5 0 6 0;
#X connect 6 0 4 0;
#X connect 10 0 9 0;
#X connect 11 0 13 0;
#X connect 12 0 14 0;
#X connect 16 0 15 0;
#X connect 17 0 18 0;
#X connect 18 0 16 0;
#X connect 20 0 21 0;
#X connect 23 0 22 0;
#X connect 24 0 25 0;
#X connect 24 0 38 0;
#X connect 26 0 27 0;
#X connect 32 0 31 0;
#X connect 32 0 33 0;
#X connect 33 0 30 0;
#X connect 33 0 36 0;
#X connect 33 0 37 0;
