#N canvas 1 100 1438 796 10;
#X declare -path ./lib/sssad;
#X declare -path ./lib/sssad;
#X declare -path ./lib/sssad;
#X declare -path ./lib/sssad;
#X declare -path ./lib/sssad;
#X declare -path ./lib/sssad;
#X declare -path ./lib/sssad;
#X declare -path ./lib/sssad;
#X declare -path ./lib/sssad;
#X declare -path ./lib/sssad;
#X declare -path ./lib/sssad;
#X declare -path ./lib/sssad;
#X declare -path ./lib/sssad;
#X declare -path ./lib/sssad;
#X declare -path ./lib/sssad;
#X declare -path ./lib/sssad;
#X declare -path ./lib/sssad;
#X declare -path ./lib/sssad;
#X declare -path ./lib/sssad;
#X declare -path ./lib/sssad;
#X declare -path ./lib/sssad;
#X declare -path ./lib/sssad;
#X declare -path ./lib/sssad;
#X declare -path ./lib/sssad;
#X declare -path ./lib/sssad;
#X declare -path ./lib/sssad;
#X declare -path ./lib/sssad;
#X declare -path ./lib/sssad;
#X declare -path ./lib/sssad;
#X declare -path ./lib/sssad;
#X declare -path ./lib/sssad;
#X declare -path ./lib/sssad;
#X declare -path ./lib/sssad;
#X declare -path ./lib/sssad;
#X declare -path ./lib/sssad;
#X declare -path ./lib/sssad;
#X declare -path ./lib/sssad;
#X declare -path ./lib/sssad;
#X declare -path ./lib/sssad;
#X declare -path ./lib/sssad;
#X declare -path ./lib/sssad;
#X declare -path ./lib/sssad;
#X declare -path ./lib/sssad;
#X declare -path ./lib/sssad;
#X declare -path ./lib/sssad;
#X declare -path ./lib/sssad;
#X declare -path ./lib/sssad;
#X declare -path ./lib/sssad;
#X declare -path ./lib/sssad;
#X declare -path ./lib/sssad;
#X declare -path ./lib/sssad;
#X declare -path ./lib/sssad;
#X declare -path ./lib/sssad;
#X declare -path ./lib/sssad;
#X declare -path ./lib/sssad;
#X declare -path ./lib/sssad;
#X declare -path ./lib/sssad;
#X declare -path ./lib/sssad;
#X declare -path ./lib/sssad;
#X declare -path ./lib/sssad;
#X declare -path ./lib/sssad;
#X obj -273 -77 zac.mouse;
#X obj -433 -263 zac.videoprojecteur /mainVP;
#X obj -319 14 Curtains/curtainsMain;
#X obj -275 -264 zac.sauvegarde /file;
#X obj -272 -104 send OSC_MESSAGES;
#X obj -272 -176 loadbang;
#X msg -272 -154 /file/Load /home/woii/2013_Sebkha-ChottGalootFormula_ThingFish/ThingFishVideoDecorum/main.initosc
;
#X obj 516 146 zac.lumiere /fond;
#X obj -319 38 DaThingFish/DaThingFishFace/daThingFishMain;
#X obj -382 151 s TFOut;
#X msg -382 124 bang TFOut Debut;
#X msg 112 139 bang TFSpeaks;
#X msg 245 138 bang TFMutes;
#X obj 112 177 s TFSpeaks;
#X obj 245 176 s TFMutes;
#X obj 140 275 s TFSpeechSpeed;
#X obj 143 243 hsl 128 15 10 20 0 0 empty empty empty -2 -8 0 10 -262144
-1 -1 7620 1;
#X obj 140 199 loadbang;
#X msg 140 220 16;
#X obj -318 62 Dunjon/dunjonMain;
#X msg -530 255 bang CurtainsOpened;
#X obj -530 291 s CurtainsOpened;
#X obj -535 383 s CurtainsClosed;
#X msg -535 337 bang CurtainsClosed;
#X msg -383 191 bang DunjonBang;
#X obj -383 222 s DunjonBang;
#X msg -383 335 bang DunjonBangOff;
#X obj -383 369 s DunjonBangOff;
#X obj -54 38 Italien/italienMain;
#X obj -318 87 MammyNuns/mammyNunsMain;
#X obj -382 305 s DunjonCineticPissOff;
#X obj -221 263 s HandCineticScroll;
#X msg -382 246 bang DunjonCineticPissOff;
#X obj -382 280 delay 200;
#X obj -207 61 Prison/prisonMain;
#X obj -97 61 EvilPrince/mainEvilPrince;
#X obj -217 297 s evilPrinceMovesCour;
#X obj -76 297 s prisonComesInFromJardin;
#X obj -200 208 s evilPrinceInit;
#X obj 484 -255 01_Prologue;
#X obj 66 38 HomoBlack/homoBlackMain;
#X obj 484 -190 05_Torchum;
#X obj 60 61 Zombies/zombiesMain;
#N canvas 491 100 937 770 Dummies 0;
#X obj 47 210 zac.lumiere /DummyScrollFromjardin;
#X obj 47 40 zac.lumiere /DummyScrollToCour;
#X obj 85 422 loadbang;
#X obj 85 451 bng 15 250 50 0 empty empty empty 17 7 0 10 -262144 -1
-1;
#X msg 85 475 /DummyScroll*/Activate 0;
#X obj 85 502 s OSC_MESSAGES;
#X obj 370 39 r DummyScrollToCourParent;
#X msg 397 121 /DummyScrollToCour/Xpos 0;
#X obj 370 64 bng 15 250 50 0 empty empty empty 17 7 0 10 -262144 -1
-1;
#X obj 370 92 t b b;
#X msg 370 148 /DummyScrollToCour/Parent/Xpos 1;
#X obj 397 197 s OSC_MESSAGES;
#X obj 370 254 bng 15 250 50 0 empty empty empty 17 7 0 10 -262144
-1 -1;
#X obj 370 282 t b b;
#X obj 397 387 s OSC_MESSAGES;
#X obj 370 229 r DummyScrollFromJardinParent;
#X msg 397 311 /DummyScrollFromJardin/Xpos 0;
#X msg 370 338 /DummyScrollFromJardin/Parent/Xpos 1;
#X connect 2 0 3 0;
#X connect 3 0 4 0;
#X connect 4 0 5 0;
#X connect 6 0 8 0;
#X connect 7 0 11 0;
#X connect 8 0 9 0;
#X connect 9 0 10 0;
#X connect 9 1 7 0;
#X connect 10 0 11 0;
#X connect 12 0 13 0;
#X connect 13 0 17 0;
#X connect 13 1 16 0;
#X connect 15 0 12 0;
#X connect 16 0 14 0;
#X connect 17 0 14 0;
#X restore 469 328 pd Dummies;
#X obj 182 61 MuddClub/muddClubMain;
#X obj 316 61 EconomicWorship/economicWorshipMain;
#X obj 485 -95 10_ClownsOnVelvet;
#X obj 485 -145 08_MuddClub;
#X obj 485 -120 09_TheMeek;
#X obj 211 38 AlladinHotel/alladinHotelMain;
#X obj 393 38 HesSoGay/hesSoGayMain;
#X obj 486 -72 12_HesSoGay;
#X obj 527 38 Nativite/nativiteMain;
#X obj 536 61 DriveIn/driveInMain;
#X obj 662 38 Cene/ceneMain;
#N canvas 0 100 1440 800 DeactivateAll 0;
#X msg -71 51 /DunjonDoor*/Activate 0;
#X msg -71 71 /CuveGaloot*/Activate 0;
#X msg -71 91 /Assiette_*/Activate 0;
#X msg -71 111 /Prison_*/Activate 0;
#X msg -71 131 /EvilPrince_*/Activate 0;
#X msg -71 151 /Dj*/Activate 0;
#X msg -71 171 /Tube*/Activate 0;
#X msg -71 191 /WashMachine*/Activate 0;
#X msg -71 31 /Cochon*/Activate 0;
#X obj -71 7 r DeactivateAll;
#X obj -71 774 s OSC_MESSAGES;
#X msg 239 24 /Cochon*/ParentName /Dummy;
#X msg 239 44 /DunjonDoor*/ParentName /Dummy;
#X msg 239 64 /CuveGaloot*/ParentName /Dummy;
#X msg 239 84 /Assiette_*/ParentName /Dummy;
#X msg 239 104 /Prison_*/ParentName /Dummy;
#X msg 239 124 /EvilPrince_*/ParentName /Dummy;
#X msg 239 144 /Dj*/ParentName /Dummy;
#X msg 239 164 /Tube*/ParentName /Dummy;
#X msg 239 184 /WashMachine*/ParentName /Dummy;
#X msg 488 54 /Cochon*/Child/* 0;
#X msg 488 74 /DunjonDoor*/Child/* 0;
#X msg 488 94 /CuveGaloot*/Child/* 0;
#X msg 488 114 /Assiette_*/Child/* 0;
#X msg 488 134 /Prison_*/Child/* 0;
#X msg 488 154 /EvilPrince_*/Child/* 0;
#X msg 488 174 /Dj*/Child/* 0;
#X msg 488 194 /Tube*/Child/* 0;
#X msg 488 214 /WashMachine*/Child/* 0;
#X msg -71 211 /Zombies_Annie*/Activate 0;
#X msg -71 231 /Zombies_Cowboy*/Activate 0;
#X msg -71 251 /Zombies_Chien*/Activate 0;
#X msg 239 204 /Zombies_Annie*/ParentName /Dummy;
#X msg 239 224 //Zombies_Cowboy*/ParentName /Dummy;
#X msg 239 244 /Zombies_Chien*/ParentName /Dummy;
#X msg 488 234 /Zombies_Annie*/Child/* 0;
#X msg 488 254 /Zombies_Cowboy*/Child/* 0;
#X msg 488 274 /Zombies_Chien*/Child/* 0;
#X obj 488 24 t b b;
#X msg 958 54 /Cochon*/g*pos 0;
#X msg 958 74 /DunjonDoor*/g*pos 0;
#X msg 958 94 /CuveGaloot*/g*pos 0;
#X msg 958 114 /Assiette_*/g*pos 0;
#X msg 958 134 /Prison_*/g*pos 0;
#X msg 958 154 /EvilPrince_*/g*pos 0;
#X msg 958 174 /Dj*/g*pos 0;
#X msg 958 194 /Tube*/g*pos 0;
#X msg 958 214 /WashMachine*/g*pos 0;
#X msg 958 234 /Zombies_Annie*/g*pos 0;
#X msg 958 254 /Zombies_Cowboy*/g*pos 0;
#X msg 958 274 /Zombies_Chien*/g*pos 0;
#X msg 958 294 /Zombies_HelloDolly*/g*pos 0;
#X msg 488 294 /Zombies_HelloDolly*/Child/*pos 0;
#X msg 239 264 /Zombies_HelloDolly*/ParentName /Dummy;
#X msg -71 272 /Zombies_HelloDolly*/Activate 0;
#X connect 0 0 10 0;
#X connect 1 0 10 0;
#X connect 2 0 10 0;
#X connect 3 0 10 0;
#X connect 4 0 10 0;
#X connect 5 0 10 0;
#X connect 6 0 10 0;
#X connect 7 0 10 0;
#X connect 8 0 10 0;
#X connect 9 0 8 0;
#X connect 9 0 0 0;
#X connect 9 0 1 0;
#X connect 9 0 2 0;
#X connect 9 0 3 0;
#X connect 9 0 4 0;
#X connect 9 0 5 0;
#X connect 9 0 6 0;
#X connect 9 0 7 0;
#X connect 9 0 11 0;
#X connect 9 0 12 0;
#X connect 9 0 13 0;
#X connect 9 0 14 0;
#X connect 9 0 15 0;
#X connect 9 0 16 0;
#X connect 9 0 17 0;
#X connect 9 0 18 0;
#X connect 9 0 19 0;
#X connect 9 0 29 0;
#X connect 9 0 30 0;
#X connect 9 0 31 0;
#X connect 9 0 32 0;
#X connect 9 0 33 0;
#X connect 9 0 34 0;
#X connect 9 0 38 0;
#X connect 9 0 53 0;
#X connect 9 0 54 0;
#X connect 11 0 10 0;
#X connect 12 0 10 0;
#X connect 13 0 10 0;
#X connect 14 0 10 0;
#X connect 15 0 10 0;
#X connect 16 0 10 0;
#X connect 17 0 10 0;
#X connect 18 0 10 0;
#X connect 19 0 10 0;
#X connect 20 0 10 0;
#X connect 21 0 10 0;
#X connect 22 0 10 0;
#X connect 23 0 10 0;
#X connect 24 0 10 0;
#X connect 25 0 10 0;
#X connect 26 0 10 0;
#X connect 27 0 10 0;
#X connect 28 0 10 0;
#X connect 29 0 10 0;
#X connect 30 0 10 0;
#X connect 31 0 10 0;
#X connect 32 0 10 0;
#X connect 33 0 10 0;
#X connect 34 0 10 0;
#X connect 35 0 10 0;
#X connect 36 0 10 0;
#X connect 37 0 10 0;
#X connect 38 0 20 0;
#X connect 38 0 21 0;
#X connect 38 0 22 0;
#X connect 38 0 23 0;
#X connect 38 0 24 0;
#X connect 38 0 25 0;
#X connect 38 0 26 0;
#X connect 38 0 27 0;
#X connect 38 0 28 0;
#X connect 38 0 35 0;
#X connect 38 0 36 0;
#X connect 38 0 37 0;
#X connect 38 0 52 0;
#X connect 38 1 39 0;
#X connect 38 1 40 0;
#X connect 38 1 41 0;
#X connect 38 1 42 0;
#X connect 38 1 43 0;
#X connect 38 1 44 0;
#X connect 38 1 45 0;
#X connect 38 1 46 0;
#X connect 38 1 47 0;
#X connect 38 1 48 0;
#X connect 38 1 49 0;
#X connect 38 1 50 0;
#X connect 38 1 51 0;
#X connect 39 0 10 0;
#X connect 40 0 10 0;
#X connect 41 0 10 0;
#X connect 42 0 10 0;
#X connect 43 0 10 0;
#X connect 44 0 10 0;
#X connect 45 0 10 0;
#X connect 46 0 10 0;
#X connect 47 0 10 0;
#X connect 48 0 10 0;
#X connect 49 0 10 0;
#X connect 50 0 10 0;
#X connect 51 0 10 0;
#X connect 52 0 10 0;
#X connect 53 0 10 0;
#X connect 54 0 10 0;
#X restore 550 328 pd DeactivateAll;
#X obj 616 -258 15_CrabGrassBaby;
#X obj 616 -235 17_StickItOut;
#X obj 616 -213 18_BriefcaseBoogie;
#X obj 616 -166 20_Wistful;
#X obj 616 -190 19_BrownMoses;
#X obj -185 14 ObdwellaX/obdwellaXMain;
#X obj 662 61 BriefcaseBoogie/briefcaseBoogieMain;
#X obj 484 -233 02_MammyNuns;
#X obj -168 87 Morpho/morphoMain;
#X obj -28 -84 dumpOSC 12345;
#X obj -28 -53 s OSC_MESSAGES;
#X obj 484 -167 06_ThatEvilPrince;
#X obj 484 -213 04_GalootUpdate;
#X connect 5 0 6 0;
#X connect 6 0 4 0;
#X connect 10 0 9 0;
#X connect 11 0 13 0;
#X connect 12 0 14 0;
#X connect 16 0 15 0;
#X connect 17 0 18 0;
#X connect 18 0 16 0;
#X connect 20 0 21 0;
#X connect 23 0 22 0;
#X connect 24 0 25 0;
#X connect 24 0 38 0;
#X connect 26 0 27 0;
#X connect 32 0 31 0;
#X connect 32 0 33 0;
#X connect 33 0 30 0;
#X connect 33 0 36 0;
#X connect 33 0 37 0;
#X connect 65 0 66 0;
