#N canvas 1 100 1438 759 10;
#X declare -path ./lib/sssad;
#X declare -path ./lib/sssad;
#X declare -path ./lib/sssad;
#X declare -path ./lib/sssad;
#X declare -path ./lib/sssad;
#X declare -path ./lib/sssad;
#X declare -path ./lib/sssad;
#X declare -path ./lib/sssad;
#X declare -path ./lib/sssad;
#X declare -path ./lib/sssad;
#X declare -path ./lib/sssad;
#X declare -path ./lib/sssad;
#X declare -path ./lib/sssad;
#X declare -path ./lib/sssad;
#X declare -path ./lib/sssad;
#X declare -path ./lib/sssad;
#X declare -path ./lib/sssad;
#X declare -path ./lib/sssad;
#X declare -path ./lib/sssad;
#X declare -path ./lib/sssad;
#X declare -path ./lib/sssad;
#X declare -path ./lib/sssad;
#X declare -path ./lib/sssad;
#X declare -path ./lib/sssad;
#X declare -path ./lib/sssad;
#X declare -path ./lib/sssad;
#X declare -path ./lib/sssad;
#X declare -path ./lib/sssad;
#X declare -path ./lib/sssad;
#X declare -path ./lib/sssad;
#X declare -path ./lib/sssad;
#X declare -path ./lib/sssad;
#X declare -path ./lib/sssad;
#X declare -path ./lib/sssad;
#X declare -path ./lib/sssad;
#X declare -path ./lib/sssad;
#X declare -path ./lib/sssad;
#X declare -path ./lib/sssad;
#X declare -path ./lib/sssad;
#X declare -path ./lib/sssad;
#X declare -path ./lib/sssad;
#X declare -path ./lib/sssad;
#X declare -path ./lib/sssad;
#X declare -path ./lib/sssad;
#X declare -path ./lib/sssad;
#X declare -path ./lib/sssad;
#X declare -path ./lib/sssad;
#X declare -path ./lib/sssad;
#X declare -path ./lib/sssad;
#X declare -path ./lib/sssad;
#X declare -path ./lib/sssad;
#X declare -path ./lib/sssad;
#X declare -path ./lib/sssad;
#X declare -path ./lib/sssad;
#X declare -path ./lib/sssad;
#X declare -path ./lib/sssad;
#X declare -path ./lib/sssad;
#X declare -path ./lib/sssad;
#X declare -path ./lib/sssad;
#X declare -path ./lib/sssad;
#X declare -path ./lib/sssad;
#X declare -path ./lib/sssad;
#X declare -path ./lib/sssad;
#X declare -path ./lib/sssad;
#X declare -path ./lib/sssad;
#X declare -path ./lib/sssad;
#X declare -path ./lib/sssad;
#X declare -path ./lib/sssad;
#X declare -path ./lib/sssad;
#X declare -path ./lib/sssad;
#X declare -path ./lib/sssad;
#X declare -path ./lib/sssad;
#X declare -path ./lib/sssad;
#X declare -path ./lib/sssad;
#X declare -path ./lib/sssad;
#X declare -path ./lib/sssad;
#X declare -path ./lib/sssad;
#X declare -path ./lib/sssad;
#X declare -path ./lib/sssad;
#X declare -path ./lib/sssad;
#X declare -path ./lib/sssad;
#X declare -path ./lib/sssad;
#X declare -path ./lib/sssad;
#X obj -273 -77 zac.mouse;
#X obj -433 -263 zac.videoprojecteur /mainVP;
#X obj -319 -26 Curtains/curtainsMain;
#X obj -275 -264 zac.sauvegarde /file;
#X obj -272 -104 send OSC_MESSAGES;
#X obj -272 -176 loadbang;
#X msg -272 -154 /file/Load /home/woii/2013_Sebkha-ChottGalootFormula_ThingFish/ThingFishVideoDecorum/main.initosc
;
#X obj 384 168 zac.lumiere /fond;
#X obj -319 -2 DaThingFish/DaThingFishFace/daThingFishMain;
#X obj -382 111 s TFOut;
#X msg -382 84 bang TFOut Debut;
#X msg 112 99 bang TFSpeaks;
#X msg 245 98 bang TFMutes;
#X obj 112 137 s TFSpeaks;
#X obj 245 136 s TFMutes;
#X obj 140 235 s TFSpeechSpeed;
#X obj 143 203 hsl 128 15 10 20 0 0 empty empty empty -2 -8 0 10 -262144
-1 -1 7620 1;
#X obj 140 159 loadbang;
#X msg 140 180 16;
#X obj -318 22 Dunjon/dunjonMain;
#X msg -570 255 bang CurtainsOpened;
#X obj -570 291 s CurtainsOpened;
#X obj -575 383 s CurtainsClosed;
#X msg -575 337 bang CurtainsClosed;
#X msg -383 151 bang DunjonBang;
#X obj -383 182 s DunjonBang;
#X msg -383 295 bang DunjonBangOff;
#X obj -383 329 s DunjonBangOff;
#X obj -54 -2 Italien/italienMain;
#X obj -318 47 MammyNuns/mammyNunsMain;
#X obj -382 265 s DunjonCineticPissOff;
#X obj -221 223 s HandCineticScroll;
#X msg -382 206 bang DunjonCineticPissOff;
#X obj -382 240 delay 200;
#X obj -207 21 Prison/prisonMain;
#X obj -97 21 EvilPrince/mainEvilPrince;
#X obj -217 257 s evilPrinceMovesCour;
#X obj -76 257 s prisonComesInFromJardin;
#X obj -200 168 s evilPrinceInit;
#X obj 484 -255 01_Prologue;
#X obj 66 -2 HomoBlack/homoBlackMain;
#X obj 484 -230 05_Torchum;
#X obj 60 21 Zombies/zombiesMain;
#N canvas 491 100 937 770 Dummies 0;
#X obj 47 210 zac.lumiere /DummyScrollFromjardin;
#X obj 47 40 zac.lumiere /DummyScrollToCour;
#X obj 85 422 loadbang;
#X obj 85 451 bng 15 250 50 0 empty empty empty 17 7 0 10 -262144 -1
-1;
#X msg 85 475 /DummyScroll*/Activate 0;
#X obj 85 502 s OSC_MESSAGES;
#X obj 370 39 r DummyScrollToCourParent;
#X msg 397 121 /DummyScrollToCour/Xpos 0;
#X obj 370 64 bng 15 250 50 0 empty empty empty 17 7 0 10 -262144 -1
-1;
#X obj 370 92 t b b;
#X msg 370 148 /DummyScrollToCour/Parent/Xpos 1;
#X obj 397 197 s OSC_MESSAGES;
#X obj 370 254 bng 15 250 50 0 empty empty empty 17 7 0 10 -262144
-1 -1;
#X obj 370 282 t b b;
#X obj 397 387 s OSC_MESSAGES;
#X obj 370 229 r DummyScrollFromJardinParent;
#X msg 397 311 /DummyScrollFromJardin/Xpos 0;
#X msg 370 338 /DummyScrollFromJardin/Parent/Xpos 1;
#X connect 2 0 3 0;
#X connect 3 0 4 0;
#X connect 4 0 5 0;
#X connect 6 0 8 0;
#X connect 7 0 11 0;
#X connect 8 0 9 0;
#X connect 9 0 10 0;
#X connect 9 1 7 0;
#X connect 10 0 11 0;
#X connect 12 0 13 0;
#X connect 13 0 17 0;
#X connect 13 1 16 0;
#X connect 15 0 12 0;
#X connect 16 0 14 0;
#X connect 17 0 14 0;
#X restore 472 -47 pd Dummies;
#X obj 182 21 MuddClub/muddClubMain;
#X connect 5 0 6 0;
#X connect 6 0 4 0;
#X connect 10 0 9 0;
#X connect 11 0 13 0;
#X connect 12 0 14 0;
#X connect 16 0 15 0;
#X connect 17 0 18 0;
#X connect 18 0 16 0;
#X connect 20 0 21 0;
#X connect 23 0 22 0;
#X connect 24 0 25 0;
#X connect 24 0 38 0;
#X connect 26 0 27 0;
#X connect 32 0 31 0;
#X connect 32 0 33 0;
#X connect 33 0 30 0;
#X connect 33 0 36 0;
#X connect 33 0 37 0;
