#N canvas 0 0 1440 845 10;
#X obj 230 369 send OSC_MESSAGES;
#X obj 230 128 line;
#X msg 71 87 5.05 2000;
#X msg 71 24 -5 2000;
#X obj 230 65 line;
#X obj 230 197 line;
#X msg 230 152 /RideauJardin/Xpos \$1;
#X msg 230 221 /RideauJardin/Xscale \$1;
#X msg 71 156 10.4 2000;
#X msg 71 1 bang;
#X msg 230 89 /RideauCour/Xpos \$1;
#X msg 230 263 /RideauCour/Xscale \$1;
#X msg 407 11 bang;
#X msg 407 166 2.5 2000;
#X msg 407 34 2.78 2000;
#X msg 407 97 -2.7 2000;
#X connect 1 0 6 0;
#X connect 2 0 1 0;
#X connect 3 0 4 0;
#X connect 4 0 10 0;
#X connect 5 0 7 0;
#X connect 5 0 11 0;
#X connect 6 0 0 0;
#X connect 7 0 0 0;
#X connect 8 0 5 0;
#X connect 9 0 3 0;
#X connect 9 0 2 0;
#X connect 9 0 8 0;
#X connect 10 0 0 0;
#X connect 11 0 0 0;
#X connect 12 0 14 0;
#X connect 12 0 15 0;
#X connect 12 0 13 0;
#X connect 13 0 5 0;
#X connect 14 0 4 0;
#X connect 15 0 1 0;
