#N canvas 0 0 1438 841 10;
#X obj 230 369 send OSC_MESSAGES;
#X obj 230 128 line;
#X obj 230 65 line;
#X obj 230 197 line;
#X msg 230 152 /RideauJardin/Xpos \$1;
#X msg 230 221 /RideauJardin/Xscale \$1;
#X msg 71 1 bang;
#X msg 230 89 /RideauCour/Xpos \$1;
#X msg 230 263 /RideauCour/Xscale \$1;
#X msg 407 11 bang;
#X msg 71 156 17 2000;
#X msg 71 87 8.26 2000;
#X msg 71 24 -8.26 2000;
#X msg 152 1 bang;
#X obj 150 -23 loadbang;
#X msg 407 166 5.5 2000;
#X msg 407 34 3.2 2000;
#X msg 407 97 -3.2 2000;
#X msg 155 21 -8.26;
#X msg 152 87 8.26;
#X msg 152 156 17;
#X connect 1 0 4 0;
#X connect 2 0 7 0;
#X connect 3 0 5 0;
#X connect 3 0 8 0;
#X connect 4 0 0 0;
#X connect 5 0 0 0;
#X connect 6 0 12 0;
#X connect 6 0 11 0;
#X connect 6 0 10 0;
#X connect 7 0 0 0;
#X connect 8 0 0 0;
#X connect 9 0 16 0;
#X connect 9 0 17 0;
#X connect 9 0 15 0;
#X connect 10 0 3 0;
#X connect 11 0 1 0;
#X connect 12 0 2 0;
#X connect 13 0 18 0;
#X connect 13 0 19 0;
#X connect 13 0 20 0;
#X connect 14 0 13 0;
#X connect 15 0 3 0;
#X connect 16 0 2 0;
#X connect 17 0 1 0;
#X connect 18 0 2 0;
#X connect 19 0 1 0;
#X connect 20 0 3 0;
