#N canvas 434 359 1438 841 10;
#X obj 230 369 send OSC_MESSAGES;
#X obj 230 128 line;
#X obj 230 65 line;
#X obj 230 197 line;
#X msg 230 152 /RideauJardin/Xpos \$1;
#X msg 230 221 /RideauJardin/Xscale \$1;
#X msg 71 1 bang;
#X msg 230 89 /RideauCour/Xpos \$1;
#X msg 230 263 /RideauCour/Xscale \$1;
#X msg 407 11 bang;
#X msg 71 156 17 2000;
#X msg 71 87 8.26 2000;
#X msg 71 24 -8.26 2000;
#X msg 152 1 bang;
#X obj 150 -23 loadbang;
#X msg 407 166 5.5 2000;
#X msg 407 34 3.2 2000;
#X msg 407 97 -3.2 2000;
#X msg 155 21 -8.26;
#X msg 152 87 8.26;
#X msg 152 156 17;
#X obj 81 -53 r CurtainsClosed;
#X obj 476 -28 r CurtainsOpened;
#X msg 1017 72 10;
#X msg 816 66 -10;
#X obj 1017 188 line;
#X obj 819 187 line;
#X msg 818 260 /ThiFiHandJardinRideau/Xpos \$1;
#X obj 857 319 send OSC_MESSAGES;
#X msg 700 100 /ThiFiHandJardinRideau/Activate 1;
#X msg 896 -28 bang;
#X obj 868 51 delay 5;
#X msg 1054 100 /ThiFiHandCourRideau/Activate 1;
#X msg 917 235 /ThiFiHandCourRideau/Xpos \$1;
#X msg 659 160 -6.2 2000;
#X obj 696 242 sel -0.5;
#X msg 698 343 -0.4;
#X msg 1072 169 6.2 2000;
#X msg 753 430 /ThiFiHandJardinRideau/Xscale \$1;
#X msg 586 98 0.76;
#X obj 534 212 line;
#X obj 580 173 delay 120;
#X msg 760 456 /ThiFiHandCourRideau/Xscale \$1;
#X obj 525 348 delay 2000;
#X msg 526 388 0.76 200;
#X msg 592 445 -10 300;
#X obj 519 424 delay 150;
#X msg 555 492 10 300;
#X msg 593 213 0.7 150;
#X msg 652 39 -0.42;
#X msg 859 131 -0.42 500;
#X msg 940 99 0.56 500;
#X connect 1 0 4 0;
#X connect 2 0 7 0;
#X connect 3 0 5 0;
#X connect 3 0 8 0;
#X connect 4 0 0 0;
#X connect 5 0 0 0;
#X connect 6 0 12 0;
#X connect 6 0 11 0;
#X connect 6 0 10 0;
#X connect 7 0 0 0;
#X connect 8 0 0 0;
#X connect 9 0 16 0;
#X connect 9 0 17 0;
#X connect 9 0 15 0;
#X connect 10 0 3 0;
#X connect 11 0 1 0;
#X connect 12 0 2 0;
#X connect 13 0 18 0;
#X connect 13 0 19 0;
#X connect 13 0 20 0;
#X connect 14 0 13 0;
#X connect 15 0 3 0;
#X connect 16 0 2 0;
#X connect 17 0 1 0;
#X connect 18 0 2 0;
#X connect 19 0 1 0;
#X connect 20 0 3 0;
#X connect 21 0 6 0;
#X connect 22 0 30 0;
#X connect 23 0 25 0;
#X connect 24 0 26 0;
#X connect 25 0 33 0;
#X connect 26 0 27 0;
#X connect 26 0 35 0;
#X connect 27 0 28 0;
#X connect 29 0 28 0;
#X connect 30 0 24 0;
#X connect 30 0 29 0;
#X connect 30 0 31 0;
#X connect 30 0 23 0;
#X connect 30 0 32 0;
#X connect 30 0 49 0;
#X connect 30 0 39 0;
#X connect 31 0 50 0;
#X connect 31 0 51 0;
#X connect 32 0 28 0;
#X connect 33 0 28 0;
#X connect 34 0 26 0;
#X connect 35 0 36 0;
#X connect 35 0 48 0;
#X connect 35 0 41 0;
#X connect 36 0 35 1;
#X connect 37 0 25 0;
#X connect 38 0 28 0;
#X connect 39 0 40 0;
#X connect 40 0 38 0;
#X connect 40 0 42 0;
#X connect 41 0 9 0;
#X connect 41 0 34 0;
#X connect 41 0 37 0;
#X connect 41 0 43 0;
#X connect 42 0 28 0;
#X connect 43 0 44 0;
#X connect 43 0 46 0;
#X connect 44 0 40 0;
#X connect 45 0 26 0;
#X connect 46 0 45 0;
#X connect 46 0 47 0;
#X connect 47 0 25 0;
#X connect 48 0 40 0;
#X connect 49 0 35 1;
#X connect 50 0 26 0;
#X connect 51 0 25 0;
