#N canvas 7 100 1425 796 10;
#X obj 230 369 send OSC_MESSAGES;
#X obj 230 128 line;
#X obj 230 65 line;
#X obj 230 197 line;
#X msg 230 152 /RideauJardin/Xpos \$1;
#X msg 230 221 /RideauJardin/Xscale \$1;
#X msg 71 1 bang;
#X msg 230 89 /RideauCour/Xpos \$1;
#X msg 230 263 /RideauCour/Xscale \$1;
#X msg 407 11 bang;
#X msg 152 1 bang;
#X obj 150 -23 loadbang;
#X msg 407 166 5.5 2000;
#X obj 81 -53 r CurtainsClosed;
#X obj 476 -45 r CurtainsOpened;
#X msg 1017 72 10;
#X msg 816 66 -10;
#X obj 1017 188 line;
#X obj 819 187 line;
#X msg 818 260 /ThiFiHandJardinRideau/Xpos \$1;
#X obj 857 319 send OSC_MESSAGES;
#X msg 700 100 /ThiFiHandJardinRideau/Activate 1;
#X msg 896 -28 bang;
#X obj 868 51 delay 5;
#X msg 1054 100 /ThiFiHandCourRideau/Activate 1;
#X msg 917 235 /ThiFiHandCourRideau/Xpos \$1;
#X obj 696 242 sel -0.5;
#X msg 699 290 -0.4;
#X msg 760 342 /ThiFiHandJardinRideau/Xscale \$1;
#X msg 586 98 0.76;
#X obj 534 212 line;
#X obj 580 173 delay 120;
#X msg 767 368 /ThiFiHandCourRideau/Xscale \$1;
#X obj 532 260 delay 2000;
#X msg 533 300 0.76 200;
#X msg 599 357 -10 300;
#X obj 526 336 delay 150;
#X msg 562 404 10 300;
#X msg 593 213 0.7 150;
#X msg 652 39 -0.42;
#X msg 859 131 -0.42 500;
#X msg 940 99 0.56 500;
#X obj 675 381 sel -10;
#X msg 996 7 1;
#X msg 776 429 0;
#X msg 71 87 8.7 2000;
#X msg 152 87 8.7;
#X msg 71 24 -8.7 2000;
#X msg 155 21 -8.7;
#X msg 71 156 18 2000;
#X msg 152 156 18;
#X msg 407 34 3.8 2000;
#X msg 407 97 -3.8 2000;
#X msg 659 160 -6.8 2000;
#X msg 1072 169 6.8 2000;
#X msg 134 616 /HandJardin/Xpos \$1;
#X obj 134 577 line;
#X obj 196 711 send OSC_MESSAGES;
#X obj 296 572 line;
#X msg 296 609 /HandJardin/Rotate \$1;
#X obj 3 577 line;
#X msg 3 616 /HandJardin/Ypos \$1;
#X msg 207 539 0;
#X msg 296 542 90 500;
#X msg 134 545 0 500;
#X msg 3 545 0 500;
#X msg 93 545 -1.43;
#X msg 46 545 2.9;
#X obj 16 471 bng 15 250 50 0 empty empty empty 17 7 0 10 -262144 -1
-1;
#X obj 59 486 t b b;
#X obj 134 425 t b b;
#X msg 134 473 -6.8 2000;
#X msg 4 653 2.9 500;
#X msg 136 653 -1.43 500;
#X msg 295 653 0 500;
#X obj 797 577 line;
#X obj 859 711 send OSC_MESSAGES;
#X obj 959 572 line;
#X obj 666 577 line;
#X msg 797 503 0 500;
#X msg 666 503 0 500;
#X msg 709 503 2.9;
#X msg 666 653 2.9 500;
#X msg 666 616 /HandCour/Ypos \$1;
#X msg 959 609 /HandCour/Rotate \$1;
#X msg 959 503 270 500;
#X msg 870 503 360;
#X msg 1031 502 6.8 2000;
#X msg 797 653 1.437 500;
#X msg 756 503 1.437;
#X msg 797 616 /HandCour/Xpos \$1;
#X msg 959 653 360 500;
#X obj 16 441 r TFOpensCurtains;
#N canvas 863 100 556 796 HJardinRideauActivate 0;
#X obj 51 2 r HJardinRideauActivate;
#X obj 214 502 send OSC_MESSAGES;
#X obj 94 429 list prepend;
#X obj 51 23 bng 15 250 50 0 empty empty empty 17 7 0 10 -262144 -1
-1;
#X msg 163 59 /HandJardin;
#X obj 94 452 l2s /;
#X msg 235 112 /home/woii/2013_Sebkha-ChottGalootFormula_ThingFish/ThingFishVideoDecorum/DaThingFish/DaThingFishFace/data/2013_06_25_TF_Main_tire_rideau_jardin.png
;
#X msg 94 112 File;
#X obj 214 469 list;
#X msg 235 89 -2.8;
#X msg 94 89 Zpos;
#X msg 235 306 -19;
#X msg 235 349 0.76;
#X msg 235 369 0.76;
#X msg 235 389 0;
#X msg 94 306 RenderOrder;
#X msg 94 349 Yscale;
#X msg 94 369 Xscale;
#X msg 94 389 Ypos;
#X msg 94 409 Xpos;
#X msg 94 205 Blue;
#X msg 94 164 Red;
#X msg 94 185 Green;
#X msg 94 285 modeAlpha;
#X msg 94 328 Shape;
#X msg 94 225 Rotate;
#X msg 94 264 Alpha;
#X msg 94 244 Activate;
#X obj 51 42 t b b b;
#X obj 36 95 t b b b;
#X obj 36 289 t b b b;
#X obj 36 332 t b b b;
#X obj 36 352 t b b b;
#X obj 36 372 t b b b;
#X obj 36 392 t b b b;
#X obj -3 311 t b b b;
#X obj -4 268 t b b b;
#X obj -4 247 t b b b;
#X obj 36 227 t b b b;
#X obj 36 208 t b b b;
#X obj -3 188 t b b b;
#X obj -3 168 t b b b;
#X obj -3 147 t b b b;
#X msg 235 225 0;
#X msg 235 244 1;
#X msg 235 409 -0.42;
#X msg 268 184 ShapeIndex;
#X msg 352 184 4;
#X connect 0 0 3 0;
#X connect 2 0 5 0;
#X connect 3 0 28 0;
#X connect 4 0 2 1;
#X connect 5 0 8 0;
#X connect 6 0 8 1;
#X connect 7 0 2 0;
#X connect 8 0 1 0;
#X connect 9 0 8 1;
#X connect 10 0 2 0;
#X connect 11 0 8 1;
#X connect 12 0 8 1;
#X connect 13 0 8 1;
#X connect 14 0 8 1;
#X connect 15 0 2 0;
#X connect 16 0 2 0;
#X connect 17 0 2 0;
#X connect 18 0 2 0;
#X connect 19 0 2 0;
#X connect 20 0 2 0;
#X connect 21 0 2 0;
#X connect 22 0 2 0;
#X connect 23 0 2 0;
#X connect 25 0 2 0;
#X connect 26 0 2 0;
#X connect 27 0 2 0;
#X connect 28 0 10 0;
#X connect 28 0 29 0;
#X connect 28 1 9 0;
#X connect 28 2 4 0;
#X connect 29 0 30 0;
#X connect 29 0 39 0;
#X connect 29 0 38 0;
#X connect 29 1 46 0;
#X connect 29 2 47 0;
#X connect 30 0 31 0;
#X connect 30 1 15 0;
#X connect 30 2 11 0;
#X connect 31 0 32 0;
#X connect 31 1 16 0;
#X connect 31 2 12 0;
#X connect 32 0 33 0;
#X connect 32 1 17 0;
#X connect 32 2 13 0;
#X connect 33 0 34 0;
#X connect 33 1 18 0;
#X connect 33 2 14 0;
#X connect 34 1 19 0;
#X connect 34 2 45 0;
#X connect 35 1 24 0;
#X connect 36 1 23 0;
#X connect 37 1 26 0;
#X connect 38 1 27 0;
#X connect 38 2 44 0;
#X connect 39 1 25 0;
#X connect 39 2 43 0;
#X connect 40 1 20 0;
#X connect 41 1 22 0;
#X connect 42 1 21 0;
#X connect 43 0 8 1;
#X connect 44 0 8 1;
#X connect 45 0 8 1;
#X connect 46 0 2 0;
#X connect 47 0 8 1;
#X restore 1148 442 pd HJardinRideauActivate;
#X obj 173 442 s HJardinRideauActivate;
#N canvas 859 100 556 796 Back2HJardinUsual 0;
#X obj 214 502 send OSC_MESSAGES;
#X obj 94 429 list prepend;
#X obj 51 23 bng 15 250 50 0 empty empty empty 17 7 0 10 -262144 -1
-1;
#X msg 163 59 /HandJardin;
#X obj 94 452 l2s /;
#X msg 94 112 File;
#X obj 214 469 list;
#X msg 235 89 -2.8;
#X msg 94 89 Zpos;
#X msg 235 306 -19;
#X msg 235 389 0;
#X msg 94 306 RenderOrder;
#X msg 94 349 Yscale;
#X msg 94 369 Xscale;
#X msg 94 389 Ypos;
#X msg 94 409 Xpos;
#X msg 94 205 Blue;
#X msg 94 164 Red;
#X msg 94 185 Green;
#X msg 94 285 modeAlpha;
#X msg 94 328 Shape;
#X msg 94 225 Rotate;
#X msg 94 264 Alpha;
#X msg 94 244 Activate;
#X obj 51 42 t b b b;
#X obj 36 95 t b b b;
#X obj 36 289 t b b b;
#X obj 36 332 t b b b;
#X obj 36 352 t b b b;
#X obj 36 372 t b b b;
#X obj 36 392 t b b b;
#X obj -3 311 t b b b;
#X obj -4 268 t b b b;
#X obj -4 247 t b b b;
#X obj 36 227 t b b b;
#X obj 36 208 t b b b;
#X obj -3 188 t b b b;
#X obj -3 168 t b b b;
#X obj -3 147 t b b b;
#X msg 235 244 1;
#X obj 51 2 r Back2HJardinUsual;
#X msg 235 112 /home/woii/2013_Sebkha-ChottGalootFormula_ThingFish/ThingFishVideoDecorum/DaThingFish/DaThingFishFace/data/handJardin.png
;
#X msg 235 225 90;
#X msg 235 369 0.76;
#X msg 235 349 0.52;
#X msg 235 409 -6.8;
#X msg 278 194 ShapeIndex;
#X msg 362 194 3;
#X connect 1 0 4 0;
#X connect 2 0 24 0;
#X connect 3 0 1 1;
#X connect 4 0 6 0;
#X connect 5 0 1 0;
#X connect 6 0 0 0;
#X connect 7 0 6 1;
#X connect 8 0 1 0;
#X connect 9 0 6 1;
#X connect 10 0 6 1;
#X connect 11 0 1 0;
#X connect 12 0 1 0;
#X connect 13 0 1 0;
#X connect 14 0 1 0;
#X connect 15 0 1 0;
#X connect 16 0 1 0;
#X connect 17 0 1 0;
#X connect 18 0 1 0;
#X connect 19 0 1 0;
#X connect 21 0 1 0;
#X connect 22 0 1 0;
#X connect 23 0 1 0;
#X connect 24 0 8 0;
#X connect 24 0 25 0;
#X connect 24 1 7 0;
#X connect 24 2 3 0;
#X connect 25 0 26 0;
#X connect 25 0 35 0;
#X connect 25 0 34 0;
#X connect 25 1 46 0;
#X connect 25 2 47 0;
#X connect 26 0 27 0;
#X connect 26 1 11 0;
#X connect 26 2 9 0;
#X connect 27 0 28 0;
#X connect 27 1 12 0;
#X connect 27 2 44 0;
#X connect 28 0 29 0;
#X connect 28 1 13 0;
#X connect 28 2 43 0;
#X connect 29 0 30 0;
#X connect 29 1 14 0;
#X connect 29 2 10 0;
#X connect 30 1 15 0;
#X connect 30 2 45 0;
#X connect 31 1 20 0;
#X connect 32 1 19 0;
#X connect 33 1 22 0;
#X connect 34 1 23 0;
#X connect 34 2 39 0;
#X connect 35 1 21 0;
#X connect 35 2 42 0;
#X connect 36 1 16 0;
#X connect 37 1 18 0;
#X connect 38 1 17 0;
#X connect 39 0 6 1;
#X connect 40 0 2 0;
#X connect 41 0 6 1;
#X connect 42 0 6 1;
#X connect 43 0 6 1;
#X connect 44 0 6 1;
#X connect 45 0 6 1;
#X connect 46 0 1 0;
#X connect 47 0 6 1;
#X restore 1148 468 pd Back2HJardinUsual;
#X obj 464 687 s Back2HJardinUsual;
#X obj 59 408 delay 502;
#X obj 464 636 delay 2005;
#N canvas 865 100 556 796 HCourRideauActivate 0;
#X obj 214 502 send OSC_MESSAGES;
#X obj 94 429 list prepend;
#X obj 51 23 bng 15 250 50 0 empty empty empty 17 7 0 10 -262144 -1
-1;
#X obj 94 452 l2s /;
#X msg 94 112 File;
#X obj 214 469 list;
#X msg 235 89 -2.8;
#X msg 94 89 Zpos;
#X msg 235 306 -19;
#X msg 235 349 0.76;
#X msg 235 369 0.76;
#X msg 235 389 0;
#X msg 94 306 RenderOrder;
#X msg 94 349 Yscale;
#X msg 94 369 Xscale;
#X msg 94 389 Ypos;
#X msg 94 409 Xpos;
#X msg 94 205 Blue;
#X msg 94 164 Red;
#X msg 94 185 Green;
#X msg 94 285 modeAlpha;
#X msg 94 328 Shape;
#X msg 94 225 Rotate;
#X msg 94 264 Alpha;
#X msg 94 244 Activate;
#X obj 51 42 t b b b;
#X obj 36 95 t b b b;
#X obj 36 289 t b b b;
#X obj 36 332 t b b b;
#X obj 36 352 t b b b;
#X obj 36 372 t b b b;
#X obj 36 392 t b b b;
#X obj -3 311 t b b b;
#X obj -4 268 t b b b;
#X obj -4 247 t b b b;
#X obj 36 227 t b b b;
#X obj 36 208 t b b b;
#X obj -3 188 t b b b;
#X obj -3 168 t b b b;
#X obj -3 147 t b b b;
#X msg 235 225 0;
#X msg 235 244 1;
#X obj 51 2 r HCourRideauActivate;
#X msg 235 409 0.42;
#X msg 235 112 /home/woii/2013_Sebkha-ChottGalootFormula_ThingFish/ThingFishVideoDecorum/DaThingFish/DaThingFishFace/data/2013_06_25_TF_Main_tire_rideau_cour.png
;
#X msg 163 59 /HandCour;
#X msg 288 204 ShapeIndex;
#X msg 372 204 4;
#X connect 1 0 3 0;
#X connect 2 0 25 0;
#X connect 3 0 5 0;
#X connect 4 0 1 0;
#X connect 5 0 0 0;
#X connect 6 0 5 1;
#X connect 7 0 1 0;
#X connect 8 0 5 1;
#X connect 9 0 5 1;
#X connect 10 0 5 1;
#X connect 11 0 5 1;
#X connect 12 0 1 0;
#X connect 13 0 1 0;
#X connect 14 0 1 0;
#X connect 15 0 1 0;
#X connect 16 0 1 0;
#X connect 17 0 1 0;
#X connect 18 0 1 0;
#X connect 19 0 1 0;
#X connect 20 0 1 0;
#X connect 22 0 1 0;
#X connect 23 0 1 0;
#X connect 24 0 1 0;
#X connect 25 0 7 0;
#X connect 25 0 26 0;
#X connect 25 1 6 0;
#X connect 25 2 45 0;
#X connect 26 0 27 0;
#X connect 26 0 36 0;
#X connect 26 0 35 0;
#X connect 26 1 46 0;
#X connect 26 2 47 0;
#X connect 27 0 28 0;
#X connect 27 1 12 0;
#X connect 27 2 8 0;
#X connect 28 0 29 0;
#X connect 28 1 13 0;
#X connect 28 2 9 0;
#X connect 29 0 30 0;
#X connect 29 1 14 0;
#X connect 29 2 10 0;
#X connect 30 0 31 0;
#X connect 30 1 15 0;
#X connect 30 2 11 0;
#X connect 31 1 16 0;
#X connect 31 2 43 0;
#X connect 32 1 21 0;
#X connect 33 1 20 0;
#X connect 34 1 23 0;
#X connect 35 1 24 0;
#X connect 35 2 41 0;
#X connect 36 1 22 0;
#X connect 36 2 40 0;
#X connect 37 1 17 0;
#X connect 38 1 19 0;
#X connect 39 1 18 0;
#X connect 40 0 5 1;
#X connect 41 0 5 1;
#X connect 42 0 2 0;
#X connect 43 0 5 1;
#X connect 44 0 5 1;
#X connect 45 0 1 1;
#X connect 46 0 1 0;
#X connect 47 0 5 1;
#X restore 1149 497 pd HCourRideauActivate;
#N canvas 859 100 556 796 Back2HCourUsual 1;
#X obj 214 502 send OSC_MESSAGES;
#X obj 94 429 list prepend;
#X obj 51 23 bng 15 250 50 0 empty empty empty 17 7 0 10 -262144 -1
-1;
#X obj 94 452 l2s /;
#X msg 94 112 File;
#X obj 214 469 list;
#X msg 235 89 -2.8;
#X msg 94 89 Zpos;
#X msg 235 306 -19;
#X msg 235 389 0;
#X msg 94 306 RenderOrder;
#X msg 94 349 Yscale;
#X msg 94 369 Xscale;
#X msg 94 389 Ypos;
#X msg 94 409 Xpos;
#X msg 94 205 Blue;
#X msg 94 164 Red;
#X msg 94 185 Green;
#X msg 94 285 modeAlpha;
#X msg 94 328 Shape;
#X msg 94 225 Rotate;
#X msg 94 264 Alpha;
#X msg 94 244 Activate;
#X obj 51 42 t b b b;
#X obj 36 95 t b b b;
#X obj 36 289 t b b b;
#X obj 36 332 t b b b;
#X obj 36 352 t b b b;
#X obj 36 372 t b b b;
#X obj 36 392 t b b b;
#X obj -3 311 t b b b;
#X obj -4 268 t b b b;
#X obj -4 247 t b b b;
#X obj 36 227 t b b b;
#X obj 36 208 t b b b;
#X obj -3 188 t b b b;
#X obj -3 168 t b b b;
#X obj -3 147 t b b b;
#X msg 235 244 1;
#X msg 235 225 90;
#X msg 235 369 0.76;
#X msg 235 349 0.52;
#X msg 235 409 6.8;
#X msg 235 112 /home/woii/2013_Sebkha-ChottGalootFormula_ThingFish/ThingFishVideoDecorum/DaThingFish/DaThingFishFace/data/handCour.png
;
#X msg 163 59 /HandCour;
#X msg 298 214 ShapeIndex;
#X msg 382 214 3;
#X obj 51 2 r Back2HCourUsual;
#X connect 1 0 3 0;
#X connect 2 0 23 0;
#X connect 3 0 5 0;
#X connect 4 0 1 0;
#X connect 5 0 0 0;
#X connect 6 0 5 1;
#X connect 7 0 1 0;
#X connect 8 0 5 1;
#X connect 9 0 5 1;
#X connect 10 0 1 0;
#X connect 11 0 1 0;
#X connect 12 0 1 0;
#X connect 13 0 1 0;
#X connect 14 0 1 0;
#X connect 15 0 1 0;
#X connect 16 0 1 0;
#X connect 17 0 1 0;
#X connect 18 0 1 0;
#X connect 20 0 1 0;
#X connect 21 0 1 0;
#X connect 22 0 1 0;
#X connect 23 0 7 0;
#X connect 23 0 24 0;
#X connect 23 1 6 0;
#X connect 23 2 44 0;
#X connect 24 0 25 0;
#X connect 24 0 34 0;
#X connect 24 0 33 0;
#X connect 24 1 45 0;
#X connect 24 2 46 0;
#X connect 25 0 26 0;
#X connect 25 1 10 0;
#X connect 25 2 8 0;
#X connect 26 0 27 0;
#X connect 26 1 11 0;
#X connect 26 2 41 0;
#X connect 27 0 28 0;
#X connect 27 1 12 0;
#X connect 27 2 40 0;
#X connect 28 0 29 0;
#X connect 28 1 13 0;
#X connect 28 2 9 0;
#X connect 29 1 14 0;
#X connect 29 2 42 0;
#X connect 30 1 19 0;
#X connect 31 1 18 0;
#X connect 32 1 21 0;
#X connect 33 1 22 0;
#X connect 33 2 38 0;
#X connect 34 1 20 0;
#X connect 34 2 39 0;
#X connect 35 1 15 0;
#X connect 36 1 17 0;
#X connect 37 1 16 0;
#X connect 38 0 5 1;
#X connect 39 0 5 1;
#X connect 40 0 5 1;
#X connect 41 0 5 1;
#X connect 42 0 5 1;
#X connect 43 0 5 1;
#X connect 44 0 1 1;
#X connect 45 0 1 0;
#X connect 46 0 5 1;
#X connect 47 0 2 0;
#X restore 1149 523 pd Back2HCourUsual;
#X obj 319 442 s HCourRideauActivate;
#X obj 464 705 s Back2HCourUsual;
#X connect 1 0 4 0;
#X connect 2 0 7 0;
#X connect 3 0 5 0;
#X connect 3 0 8 0;
#X connect 4 0 0 0;
#X connect 5 0 0 0;
#X connect 6 0 47 0;
#X connect 6 0 45 0;
#X connect 6 0 49 0;
#X connect 7 0 0 0;
#X connect 8 0 0 0;
#X connect 9 0 51 0;
#X connect 9 0 52 0;
#X connect 9 0 12 0;
#X connect 10 0 48 0;
#X connect 10 0 46 0;
#X connect 10 0 50 0;
#X connect 11 0 10 0;
#X connect 12 0 3 0;
#X connect 13 0 6 0;
#X connect 14 0 22 0;
#X connect 15 0 17 0;
#X connect 16 0 18 0;
#X connect 17 0 25 0;
#X connect 18 0 19 0;
#X connect 18 0 26 0;
#X connect 19 0 20 0;
#X connect 21 0 20 0;
#X connect 22 0 16 0;
#X connect 22 0 23 0;
#X connect 22 0 15 0;
#X connect 22 0 39 0;
#X connect 22 0 29 0;
#X connect 22 0 43 0;
#X connect 23 0 40 0;
#X connect 23 0 41 0;
#X connect 24 0 20 0;
#X connect 25 0 20 0;
#X connect 26 0 27 0;
#X connect 26 0 38 0;
#X connect 26 0 31 0;
#X connect 27 0 26 1;
#X connect 28 0 20 0;
#X connect 29 0 30 0;
#X connect 30 0 28 0;
#X connect 30 0 32 0;
#X connect 31 0 9 0;
#X connect 31 0 53 0;
#X connect 31 0 54 0;
#X connect 31 0 33 0;
#X connect 32 0 20 0;
#X connect 33 0 34 0;
#X connect 33 0 36 0;
#X connect 34 0 30 0;
#X connect 35 0 18 0;
#X connect 35 0 42 0;
#X connect 36 0 35 0;
#X connect 36 0 37 0;
#X connect 37 0 17 0;
#X connect 38 0 30 0;
#X connect 39 0 26 1;
#X connect 40 0 18 0;
#X connect 41 0 17 0;
#X connect 42 0 44 0;
#X connect 43 0 24 0;
#X connect 43 0 21 0;
#X connect 44 0 24 0;
#X connect 44 0 21 0;
#X connect 45 0 1 0;
#X connect 46 0 1 0;
#X connect 47 0 2 0;
#X connect 48 0 2 0;
#X connect 49 0 3 0;
#X connect 50 0 3 0;
#X connect 51 0 2 0;
#X connect 52 0 1 0;
#X connect 53 0 18 0;
#X connect 54 0 17 0;
#X connect 55 0 57 0;
#X connect 56 0 55 0;
#X connect 58 0 59 0;
#X connect 59 0 57 0;
#X connect 60 0 61 0;
#X connect 61 0 57 0;
#X connect 62 0 58 0;
#X connect 63 0 58 0;
#X connect 64 0 56 0;
#X connect 65 0 60 0;
#X connect 66 0 56 0;
#X connect 67 0 60 0;
#X connect 68 0 69 0;
#X connect 69 0 65 0;
#X connect 69 0 64 0;
#X connect 69 0 63 0;
#X connect 69 0 80 0;
#X connect 69 0 89 0;
#X connect 69 0 85 0;
#X connect 69 0 79 0;
#X connect 69 0 97 0;
#X connect 69 1 66 0;
#X connect 69 1 62 0;
#X connect 69 1 67 0;
#X connect 69 1 81 0;
#X connect 69 1 89 0;
#X connect 69 1 86 0;
#X connect 70 0 71 0;
#X connect 70 0 9 0;
#X connect 70 0 87 0;
#X connect 70 0 98 0;
#X connect 70 1 94 0;
#X connect 70 1 101 0;
#X connect 71 0 56 0;
#X connect 72 0 60 0;
#X connect 73 0 56 0;
#X connect 74 0 58 0;
#X connect 75 0 90 0;
#X connect 77 0 84 0;
#X connect 78 0 83 0;
#X connect 79 0 75 0;
#X connect 80 0 78 0;
#X connect 81 0 78 0;
#X connect 82 0 78 0;
#X connect 83 0 76 0;
#X connect 84 0 76 0;
#X connect 85 0 77 0;
#X connect 86 0 77 0;
#X connect 87 0 75 0;
#X connect 88 0 75 0;
#X connect 89 0 75 0;
#X connect 90 0 76 0;
#X connect 91 0 77 0;
#X connect 92 0 68 0;
#X connect 97 0 70 0;
#X connect 98 0 72 0;
#X connect 98 0 73 0;
#X connect 98 0 74 0;
#X connect 98 0 82 0;
#X connect 98 0 88 0;
#X connect 98 0 91 0;
#X connect 98 0 96 0;
#X connect 98 0 102 0;
