#N canvas 0 100 1440 800 10;
#X obj 71 40 r nuagesOnMove;
#X obj 71 70 bng 15 250 50 0 empty empty empty 17 7 0 10 -262144 -1
-1;
#X obj 107 296 random 3;
#X obj 107 320 + 1;
#X msg 107 348 /DunjonDoor\$1;
#X msg 389 361 Xscale;
#X msg 441 361 Xpos;
#X msg 481 361 Ypos;
#X obj 107 378 list;
#X obj 107 408 l2s /;
#X obj 512 300 random 100;
#X obj 658 300 random 100;
#X obj 582 378 / 100;
#X obj 151 586 s OSC_MESSAGES;
#X obj 38 454 line;
#X obj 128 454 line;
#X obj 218 454 line;
#X obj 278 161 t b b b b b b b b b b;
#X msg 127 75 stop;
#X obj 281 138 bng 15 250 50 0 empty empty empty 17 7 0 10 -262144
-1 -1;
#X obj 38 514 list prepend;
#X obj 658 382 / 3000;
#X obj 128 514 list prepend;
#X obj 218 514 list prepend;
#X obj 197 296 random 3;
#X obj 197 320 + 1;
#X msg 197 348 /DunjonDoor\$1;
#X obj 197 378 list;
#X obj 197 408 l2s /;
#X obj 287 296 random 3;
#X obj 287 320 + 1;
#X msg 287 348 /DunjonDoor\$1;
#X obj 287 378 list;
#X obj 287 408 l2s /;
#X obj 777 320 + 1;
#X msg 1059 361 Xscale;
#X msg 1111 361 Xpos;
#X msg 1151 361 Ypos;
#X obj 777 378 list;
#X obj 777 408 l2s /;
#X obj 1182 300 random 100;
#X obj 1328 300 random 100;
#X obj 1252 378 / 100;
#X obj 821 586 s OSC_MESSAGES;
#X obj 708 454 line;
#X obj 798 454 line;
#X obj 888 454 line;
#X obj 948 161 t b b b b b b b b b b;
#X obj 951 138 bng 15 250 50 0 empty empty empty 17 7 0 10 -262144
-1 -1;
#X obj 708 514 list prepend;
#X obj 1328 382 / 3000;
#X obj 798 514 list prepend;
#X obj 888 514 list prepend;
#X obj 867 320 + 1;
#X obj 867 378 list;
#X obj 867 408 l2s /;
#X obj 957 320 + 1;
#X obj 957 378 list;
#X obj 957 408 l2s /;
#X msg 777 348 /DunjonDoor\$1Cadre;
#X msg 867 348 /DunjonDoor\$1Cadre;
#X msg 957 348 /DunjonDoor\$1Cadre;
#X obj 512 380 / 50;
#X obj 1182 380 / 50;
#X obj 71 121 metro 10000;
#X msg 401 437 10000;
#X msg 1071 437 10000;
#X obj 1328 437 + 1;
#X obj 658 437 + 1;
#X obj 1182 437 + 3;
#X obj 512 437 + 3;
#X obj 582 300 random 1400;
#X obj 582 437 - 7;
#X obj 1252 300 random 1400;
#X obj 1252 437 - 7;
#X obj 957 296 random 2;
#X obj 777 296 random 3;
#X obj 867 296 random 3;
#X obj 65 641 metro 150;
#X msg 65 698 0.2 75;
#X msg 152 741 /WashMachine/Green \$1;
#X obj 152 715 line;
#X obj 65 666 delay 75;
#X obj 454 758 s OSC_MESSAGES;
#X obj 65 613 r allumageFond;
#X obj 187 635 bng 15 250 50 0 empty empty empty 17 7 0 10 -262144
-1 -1;
#X msg 152 683 0 75;
#X obj 320 697 line;
#X obj 383 658 delay 75;
#X msg 320 658 0.7 75;
#X msg 320 741 /WashMachine/Blue \$1;
#X msg 383 680 0.5 75;
#N canvas 392 164 450 300 BrownMosesMoves 0;
#N canvas 709 288 670 414 BrownMosesComesInFromTheCeiling 0;
#X obj 49 21 r brownMosesComesInFromTheCeiling;
#X obj 49 51 bng 15 250 50 0 empty empty empty 17 7 0 10 -262144 -1
-1;
#X msg 143 102 /DunjonDoor[4-5]*/ParentName /Djbebe;
#X msg 371 102 /DunjonDoor[4-5]*/Child/[X-Y]pos 1;
#X msg 49 239 /Djbebe/Ypos \$1;
#X msg 68 187 18;
#X msg 49 147 -1.5 2000;
#X obj 49 271 s OSC_MESSAGES;
#X obj 49 204 line;
#X obj 234 226 s BrownMosesComesInit;
#X obj 49 85 t b b b b;
#X obj 49 352 s BrownMosesFliesAround;
#X obj 49 312 delay 4000;
#X connect 0 0 1 0;
#X connect 1 0 10 0;
#X connect 2 0 7 0;
#X connect 3 0 7 0;
#X connect 4 0 7 0;
#X connect 5 0 8 0;
#X connect 6 0 8 0;
#X connect 8 0 4 0;
#X connect 10 0 6 0;
#X connect 10 0 12 0;
#X connect 10 1 5 0;
#X connect 10 2 2 0;
#X connect 10 2 3 0;
#X connect 10 3 9 0;
#X connect 12 0 11 0;
#X restore 60 21 pd BrownMosesComesInFromTheCeiling;
#N canvas 0 100 1440 800 BrownMosesFliesAround 0;
#X obj 178 47 bng 15 250 50 0 empty empty empty 17 7 0 10 -262144 -1
-1;
#X obj 178 106 metro 100;
#X obj 293 400 send OSC_MESSAGES;
#X obj 178 72 t b b;
#X obj 190 249 +;
#X obj 137 169 random 10;
#X obj 178 135 t b b;
#X obj 241 246 sel 1;
#X obj 190 216 spigot;
#X obj 190 320 line;
#X msg 95 177 0;
#X msg 229 46 stop;
#X msg 241 279 0;
#X msg 278 279 1;
#X obj 137 199 / 100;
#X obj 361 246 sel 1;
#X obj 310 216 spigot;
#X msg 361 279 0;
#X msg 398 279 1;
#X obj 310 249 -;
#X obj 37 30 r BrownMosesFliesAround;
#X obj 227 26 r BrownMosesStopsFlyingAround;
#X msg 293 89 /DunjonDoor[4-5]/Child/[X-Y]pos 1;
#X obj 205 168 v /Djbebe/Xpos;
#X msg 190 351 /Djbebe/Xpos \$1;
#X msg 530 383 /Djbebe/Ypos \$1;
#X obj 510 249 +;
#X obj 457 169 random 10;
#X obj 498 135 t b b;
#X obj 561 246 sel 1;
#X obj 510 216 spigot;
#X obj 510 320 line;
#X msg 415 177 0;
#X msg 561 279 0;
#X msg 598 279 1;
#X obj 457 199 / 100;
#X obj 681 246 sel 1;
#X obj 630 216 spigot;
#X msg 681 279 0;
#X msg 718 279 1;
#X obj 630 249 -;
#X obj 525 168 v /Djbebe/Ypos;
#X msg 510 351 /Djbebe/Ypos \$1;
#X obj 561 216 > 1.2;
#X obj 681 216 < -0.8;
#X obj 241 216 > 3.2;
#X obj 361 216 < -3.2;
#X obj 413 43 s BrownMosesFlyingWingsStop;
#X obj 31 112 s BrownMosesFlyingWings;
#X msg 364 303 100;
#X connect 0 0 3 0;
#X connect 0 0 48 0;
#X connect 1 0 6 0;
#X connect 1 0 28 0;
#X connect 3 0 1 0;
#X connect 3 0 18 0;
#X connect 3 0 39 0;
#X connect 3 1 22 0;
#X connect 3 1 10 0;
#X connect 3 1 32 0;
#X connect 4 0 9 0;
#X connect 5 0 14 0;
#X connect 6 0 5 0;
#X connect 6 1 23 0;
#X connect 6 1 49 0;
#X connect 7 0 12 0;
#X connect 7 0 13 0;
#X connect 8 0 4 0;
#X connect 9 0 24 0;
#X connect 10 0 9 0;
#X connect 11 0 10 0;
#X connect 11 0 1 0;
#X connect 11 0 32 0;
#X connect 12 0 8 1;
#X connect 13 0 16 1;
#X connect 14 0 8 0;
#X connect 14 0 16 0;
#X connect 15 0 17 0;
#X connect 15 0 18 0;
#X connect 16 0 19 1;
#X connect 17 0 16 1;
#X connect 18 0 8 1;
#X connect 19 0 9 0;
#X connect 20 0 0 0;
#X connect 21 0 11 0;
#X connect 21 0 47 0;
#X connect 22 0 2 0;
#X connect 23 0 4 1;
#X connect 23 0 19 0;
#X connect 23 0 45 0;
#X connect 23 0 46 0;
#X connect 24 0 2 0;
#X connect 25 0 2 0;
#X connect 26 0 31 0;
#X connect 27 0 35 0;
#X connect 28 0 27 0;
#X connect 28 1 41 0;
#X connect 28 1 49 0;
#X connect 29 0 33 0;
#X connect 29 0 34 0;
#X connect 30 0 26 0;
#X connect 31 0 42 0;
#X connect 32 0 31 0;
#X connect 33 0 30 1;
#X connect 34 0 37 1;
#X connect 35 0 30 0;
#X connect 35 0 37 0;
#X connect 36 0 38 0;
#X connect 36 0 39 0;
#X connect 37 0 40 1;
#X connect 38 0 37 1;
#X connect 39 0 30 1;
#X connect 40 0 31 0;
#X connect 41 0 26 1;
#X connect 41 0 40 0;
#X connect 41 0 43 0;
#X connect 41 0 44 0;
#X connect 42 0 25 0;
#X connect 43 0 29 0;
#X connect 44 0 36 0;
#X connect 45 0 7 0;
#X connect 46 0 15 0;
#X connect 49 0 31 1;
#X connect 49 0 9 1;
#X restore 59 50 pd BrownMosesFliesAround;
#N canvas 195 134 1117 632 BrownMosesFlyingWings 0;
#X obj 46 27 r BrownMosesFlyingWings;
#X obj 46 56 bng 15 250 50 0 empty empty empty 17 7 0 10 -262144 -1
-1;
#X obj 82 113 metro 200;
#X obj 133 66 r FlyingWingsSpeed;
#X obj 69 303 s OSC_MESSAGES;
#X msg 200 167 200;
#X msg 200 136 set \$1;
#X msg 200 116 200;
#X obj 235 99 loadbang;
#X msg 36 221 0;
#X msg 69 266 /DunjonDoor5/Rotate \$1;
#X obj 69 238 line;
#X obj 82 150 delay 100;
#X obj 36 150 t b b;
#X msg 82 80 stop;
#X obj 82 173 t b b;
#X msg 226 218 0;
#X obj 259 235 line;
#X msg 259 286 /DunjonDoor5Cadre/Rotate \$1;
#X obj 159 133 / 2;
#X obj 259 262 mod 360;
#X msg 445 194 -80;
#X msg 525 205 -110;
#X msg 513 178 90;
#X obj 444 266 +;
#X obj 584 272 +;
#X obj 430 230 *;
#X obj 510 240 *;
#X msg 259 190 25.1;
#X msg 69 193 42.8;
#X obj 585 188 loadbang;
#X obj 442 146 hsl 128 15 0 1 0 0 empty empty empty -2 -8 0 10 -262144
-1 -1 7493 1;
#X msg 584 306 set \$1;
#X msg 444 294 set \$1;
#X obj 439 92 random 101;
#X obj 439 119 / 100;
#X obj 439 71 metro 700;
#X obj 364 82 * 3;
#X obj 226 21 r BrownMosesFlyingWingsStop;
#X obj 241 310 random 31;
#X obj 241 332 - 15;
#X msg 241 427 /Djbebe/Rotate \$1;
#X obj 241 380 line;
#X obj 241 404 mod 360;
#X obj 241 358 / 10;
#X obj 709 303 s OSC_MESSAGES;
#X msg 840 146 set \$1;
#X obj 875 99 loadbang;
#X obj 709 238 line;
#X obj 676 150 t b b;
#X obj 722 173 t b b;
#X obj 899 238 line;
#X obj 799 133 / 2;
#X obj 899 262 mod 360;
#X msg 899 190 48.2;
#X obj 722 113 metro 700;
#X msg 840 116 700;
#X obj 722 150 delay 350;
#X msg 840 167 350;
#X msg 709 266 /DunjonDoor4/Rotate \$1;
#X msg 899 286 /DunjonDoor4Cadre/Rotate \$1;
#X msg 709 193 -48.2;
#X msg 676 221 30;
#X msg 866 221 -30;
#X msg 777 221 0;
#X connect 0 0 1 0;
#X connect 1 0 2 0;
#X connect 1 0 36 0;
#X connect 1 0 55 0;
#X connect 2 0 13 0;
#X connect 2 0 12 0;
#X connect 2 0 39 0;
#X connect 3 0 2 1;
#X connect 3 0 37 0;
#X connect 5 0 11 1;
#X connect 5 0 17 1;
#X connect 5 0 42 1;
#X connect 6 0 5 0;
#X connect 7 0 6 0;
#X connect 7 0 19 0;
#X connect 8 0 7 0;
#X connect 9 0 11 0;
#X connect 10 0 4 0;
#X connect 11 0 10 0;
#X connect 12 0 15 0;
#X connect 13 0 9 0;
#X connect 13 0 16 0;
#X connect 13 1 5 0;
#X connect 14 0 2 0;
#X connect 14 0 36 0;
#X connect 14 0 55 0;
#X connect 14 0 9 0;
#X connect 14 0 16 0;
#X connect 14 0 64 0;
#X connect 15 0 29 0;
#X connect 15 0 28 0;
#X connect 15 1 5 0;
#X connect 16 0 17 0;
#X connect 17 0 20 0;
#X connect 18 0 4 0;
#X connect 19 0 12 1;
#X connect 20 0 18 0;
#X connect 21 0 26 1;
#X connect 22 0 27 1;
#X connect 23 0 24 1;
#X connect 23 0 25 1;
#X connect 24 0 33 0;
#X connect 25 0 32 0;
#X connect 26 0 24 0;
#X connect 27 0 25 0;
#X connect 28 0 17 0;
#X connect 29 0 11 0;
#X connect 30 0 22 0;
#X connect 30 0 21 0;
#X connect 30 0 23 0;
#X connect 31 0 26 0;
#X connect 31 0 27 0;
#X connect 32 0 28 0;
#X connect 33 0 29 0;
#X connect 34 0 35 0;
#X connect 35 0 31 0;
#X connect 36 0 34 0;
#X connect 37 0 36 1;
#X connect 37 0 55 1;
#X connect 38 0 14 0;
#X connect 39 0 40 0;
#X connect 40 0 44 0;
#X connect 41 0 4 0;
#X connect 42 0 43 0;
#X connect 43 0 41 0;
#X connect 44 0 42 0;
#X connect 46 0 58 0;
#X connect 47 0 56 0;
#X connect 48 0 59 0;
#X connect 49 0 62 0;
#X connect 49 0 63 0;
#X connect 49 1 58 0;
#X connect 50 0 61 0;
#X connect 50 0 54 0;
#X connect 50 1 58 0;
#X connect 51 0 53 0;
#X connect 52 0 57 1;
#X connect 52 0 46 0;
#X connect 53 0 60 0;
#X connect 54 0 51 0;
#X connect 55 0 49 0;
#X connect 55 0 57 0;
#X connect 56 0 52 0;
#X connect 57 0 50 0;
#X connect 58 0 51 1;
#X connect 58 0 48 1;
#X connect 59 0 45 0;
#X connect 60 0 45 0;
#X connect 61 0 48 0;
#X connect 62 0 48 0;
#X connect 63 0 51 0;
#X connect 64 0 51 0;
#X connect 64 0 48 0;
#X restore 60 98 pd BrownMosesFlyingWings;
#X restore 1152 629 pd BrownMosesMoves;
#N canvas 476 286 450 300 HarryMoves 0;
#N canvas 707 286 670 414 HarryComesInFromJardinProche 0;
#X obj 49 51 bng 15 250 50 0 empty empty empty 17 7 0 10 -262144 -1
-1;
#X obj 49 281 s OSC_MESSAGES;
#X obj 49 214 line;
#X msg 143 102 /EvilPrince_*/ParentName /EvilPrince_Corps;
#X msg 143 132 /EvilPrince_Corps/ParentName /Dummy;
#X obj 112 50 s HarryInit;
#X obj 49 85 t b b b b b;
#X msg 49 249 /EvilPrince_Corps/Ypos \$1;
#X obj 49 21 r harryComesInFromJardinProche;
#X msg 64 197 -5;
#X obj 49 352 s HarryFliesAround;
#X obj 49 312 delay 800;
#X obj 219 214 line;
#X msg 219 249 /EvilPrince_Corps/Xpos \$1;
#X obj 389 214 line;
#X msg 234 197 -8;
#X msg 389 157 -3 800;
#X msg 49 157 0 800;
#X msg 219 157 0 800;
#X msg 414 102 /EvilPrince_*/Child/[X-Y]pos 1;
#X msg 414 132 /EvilPrince_Corps/Child/[X-Y]pos 0;
#X msg 389 249 /EvilPrince_*/Zpos \$1;
#X msg 404 197 2;
#X connect 0 0 6 0;
#X connect 2 0 7 0;
#X connect 3 0 1 0;
#X connect 4 0 1 0;
#X connect 6 0 17 0;
#X connect 6 0 11 0;
#X connect 6 0 18 0;
#X connect 6 0 16 0;
#X connect 6 1 9 0;
#X connect 6 1 22 0;
#X connect 6 1 15 0;
#X connect 6 2 4 0;
#X connect 6 2 20 0;
#X connect 6 3 3 0;
#X connect 6 3 19 0;
#X connect 6 4 5 0;
#X connect 7 0 1 0;
#X connect 8 0 0 0;
#X connect 9 0 2 0;
#X connect 11 0 10 0;
#X connect 12 0 13 0;
#X connect 13 0 1 0;
#X connect 14 0 21 0;
#X connect 15 0 12 0;
#X connect 16 0 14 0;
#X connect 17 0 2 0;
#X connect 18 0 12 0;
#X connect 19 0 1 0;
#X connect 20 0 1 0;
#X connect 21 0 1 0;
#X connect 22 0 14 0;
#X restore 70 31 pd HarryComesInFromJardinProche;
#N canvas 0 100 1440 800 HarryFliesAround 0;
#X obj 178 47 bng 15 250 50 0 empty empty empty 17 7 0 10 -262144 -1
-1;
#X obj 293 400 send OSC_MESSAGES;
#X obj 190 249 +;
#X obj 178 135 t b b;
#X obj 241 246 sel 1;
#X obj 190 216 spigot;
#X obj 190 320 line;
#X msg 95 177 0;
#X msg 229 46 stop;
#X msg 241 279 0;
#X msg 278 279 1;
#X obj 137 199 / 100;
#X obj 361 246 sel 1;
#X obj 310 216 spigot;
#X msg 361 279 0;
#X msg 398 279 1;
#X obj 310 249 -;
#X obj 510 249 +;
#X obj 498 123 t b b;
#X obj 561 246 sel 1;
#X obj 510 216 spigot;
#X msg 415 177 0;
#X msg 561 279 0;
#X msg 598 279 1;
#X obj 751 246 sel 1;
#X obj 700 216 spigot;
#X msg 751 279 0;
#X msg 788 279 1;
#X obj 700 249 -;
#X obj 561 216 > 1.2;
#X obj 37 30 r HarryFliesAround;
#X obj 227 26 r HarryStopsFlyingAround;
#X obj 413 43 s HarryFlyingWingsStop;
#X obj 31 112 s HarryFlyingWings;
#X msg 293 89 /EvilPrince_*/Child/[X-Y]pos 1;
#X obj 178 72 t b b b;
#X msg 493 89 /EvilPrince_Corps/Child/[X-Y]pos 0;
#X obj 205 168 v /EvilPrince_Corps/Xpos;
#X msg 190 351 /EvilPrince_Corps/Xpos \$1;
#X obj 525 168 v /EvilPrince_Corps/Ypos;
#X msg 510 351 /EvilPrince_Corps/Ypos \$1;
#X obj 241 216 > 8;
#X obj 361 216 < -8;
#X obj 510 320 line;
#X obj 777 448 list;
#X obj 816 353 t b b;
#X msg 741 363 set \$1;
#X msg 749 397 -0.666668;
#X obj 67 448 list;
#X obj 106 353 t b b;
#X msg 31 363 set \$1;
#X msg 39 397 -1.09999;
#X msg 364 303 100;
#X msg 102 408 100;
#X msg 812 408 100;
#X obj 178 106 metro 150;
#X obj 137 169 random 150;
#X obj 457 169 random 150;
#X obj 751 216 < -0.5;
#X obj 894 116 t b b;
#X obj 925 221 / 100;
#X obj 904 169 random 501;
#X msg 932 344 /EvilPrince_*/Zpos \$1;
#X obj 997 312 line;
#X msg 1016 204 -3;
#X floatatom 1081 326 5 0 0 0 - - -;
#X obj 925 265 - 3;
#X obj 800 105 metro 5000;
#X msg 931 302 \$1 5000;
#X obj 457 199 / 150;
#X obj 422 23 bng 15 250 50 0 empty empty empty 17 7 0 10 -262144 -1
-1;
#X connect 0 0 33 0;
#X connect 0 0 35 0;
#X connect 0 0 67 0;
#X connect 0 0 64 0;
#X connect 2 0 50 0;
#X connect 2 0 49 0;
#X connect 3 0 56 0;
#X connect 3 1 52 0;
#X connect 3 1 37 0;
#X connect 4 0 9 0;
#X connect 4 0 10 0;
#X connect 5 0 2 0;
#X connect 6 0 38 0;
#X connect 7 0 6 0;
#X connect 8 0 7 0;
#X connect 8 0 21 0;
#X connect 8 0 55 0;
#X connect 8 0 67 0;
#X connect 9 0 5 1;
#X connect 10 0 13 1;
#X connect 11 0 5 0;
#X connect 11 0 13 0;
#X connect 12 0 14 0;
#X connect 12 0 15 0;
#X connect 13 0 16 1;
#X connect 14 0 13 1;
#X connect 15 0 5 1;
#X connect 16 0 6 0;
#X connect 17 0 46 0;
#X connect 17 0 45 0;
#X connect 18 0 57 0;
#X connect 18 1 52 0;
#X connect 18 1 39 0;
#X connect 19 0 22 0;
#X connect 19 0 23 0;
#X connect 20 0 17 0;
#X connect 21 0 43 0;
#X connect 22 0 20 1;
#X connect 23 0 25 1;
#X connect 24 0 26 0;
#X connect 24 0 27 0;
#X connect 25 0 28 1;
#X connect 26 0 25 1;
#X connect 27 0 20 1;
#X connect 28 0 43 0;
#X connect 29 0 19 0;
#X connect 30 0 0 0;
#X connect 31 0 8 0;
#X connect 31 0 70 0;
#X connect 34 0 1 0;
#X connect 35 0 15 0;
#X connect 35 0 27 0;
#X connect 35 0 55 0;
#X connect 35 1 7 0;
#X connect 35 1 21 0;
#X connect 35 1 36 0;
#X connect 35 2 34 0;
#X connect 36 0 1 0;
#X connect 37 0 2 1;
#X connect 37 0 41 0;
#X connect 37 0 42 0;
#X connect 37 0 16 0;
#X connect 38 0 1 0;
#X connect 39 0 17 1;
#X connect 39 0 29 0;
#X connect 39 0 28 0;
#X connect 39 0 58 0;
#X connect 40 0 1 0;
#X connect 41 0 4 0;
#X connect 42 0 12 0;
#X connect 43 0 40 0;
#X connect 44 0 43 0;
#X connect 45 0 47 0;
#X connect 45 1 54 0;
#X connect 46 0 47 0;
#X connect 47 0 44 0;
#X connect 48 0 6 0;
#X connect 49 0 51 0;
#X connect 49 1 53 0;
#X connect 50 0 51 0;
#X connect 51 0 48 0;
#X connect 52 0 6 1;
#X connect 52 0 43 1;
#X connect 53 0 48 1;
#X connect 54 0 44 1;
#X connect 55 0 3 0;
#X connect 55 0 18 0;
#X connect 56 0 11 0;
#X connect 57 0 69 0;
#X connect 58 0 24 0;
#X connect 59 0 61 0;
#X connect 60 0 66 0;
#X connect 61 0 60 0;
#X connect 62 0 1 0;
#X connect 63 0 62 0;
#X connect 63 0 65 0;
#X connect 64 0 63 0;
#X connect 66 0 68 0;
#X connect 67 0 59 0;
#X connect 68 0 63 0;
#X connect 69 0 20 0;
#X connect 69 0 25 0;
#X connect 70 0 32 0;
#X restore 69 60 pd HarryFliesAround;
#N canvas 191 130 1117 632 HarryFlyingWings 0;
#X obj 46 56 bng 15 250 50 0 empty empty empty 17 7 0 10 -262144 -1
-1;
#X obj 82 113 metro 200;
#X obj 69 303 s OSC_MESSAGES;
#X msg 200 167 200;
#X msg 200 136 set \$1;
#X msg 200 116 200;
#X obj 235 99 loadbang;
#X msg 36 221 0;
#X obj 69 238 line;
#X obj 82 150 delay 100;
#X obj 36 150 t b b;
#X msg 82 80 stop;
#X obj 82 173 t b b;
#X msg 226 218 0;
#X obj 259 235 line;
#X obj 159 133 / 2;
#X obj 259 262 mod 360;
#X obj 444 266 +;
#X obj 584 272 +;
#X obj 430 230 *;
#X obj 510 240 *;
#X msg 259 190 54.4;
#X msg 69 193 59;
#X obj 585 188 loadbang;
#X obj 442 146 hsl 128 15 0 1 0 0 empty empty empty -2 -8 0 10 -262144
-1 -1 5842 1;
#X msg 584 306 set \$1;
#X msg 444 294 set \$1;
#X obj 439 92 random 101;
#X obj 439 119 / 100;
#X obj 439 71 metro 700;
#X obj 364 82 * 3;
#X obj 241 310 random 31;
#X obj 241 332 - 15;
#X msg 241 427 /Djbebe/Rotate \$1;
#X obj 241 380 line;
#X obj 241 404 mod 360;
#X obj 241 358 / 10;
#X obj 709 303 s OSC_MESSAGES;
#X msg 840 146 set \$1;
#X obj 875 99 loadbang;
#X obj 709 238 line;
#X obj 676 150 t b b;
#X obj 722 173 t b b;
#X obj 899 238 line;
#X obj 799 133 / 2;
#X obj 899 262 mod 360;
#X msg 899 190 48.2;
#X msg 709 193 -48.2;
#X msg 676 221 30;
#X msg 866 221 -30;
#X msg 777 221 0;
#X obj 46 27 r HarryFlyingWings;
#X obj 226 21 r HarryFlyingWingsStop;
#X obj 133 66 r HarryFlyingWingsSpeed;
#X msg 69 266 /EvilPrince_BrasCour/Rotate \$1;
#X msg 259 286 /EvilPrince_Aura/Rotate \$1;
#X msg 525 205 -60;
#X msg 445 194 -50;
#X msg 513 178 92;
#X msg 709 266 /EvilPrince_Bulle/Rotate \$1;
#X msg 899 286 /EvilPrince_BulleContent/Rotate \$1;
#X msg 465 166 set \$1;
#X obj 497 122 * 2;
#X obj 722 112 metro 400;
#X obj 722 150 delay 200;
#X msg 840 167 200;
#X msg 840 116 400;
#X connect 0 0 1 0;
#X connect 0 0 29 0;
#X connect 0 0 63 0;
#X connect 1 0 10 0;
#X connect 1 0 9 0;
#X connect 1 0 31 0;
#X connect 3 0 8 1;
#X connect 3 0 14 1;
#X connect 3 0 34 1;
#X connect 4 0 3 0;
#X connect 5 0 4 0;
#X connect 5 0 15 0;
#X connect 6 0 5 0;
#X connect 7 0 8 0;
#X connect 8 0 54 0;
#X connect 9 0 12 0;
#X connect 10 0 7 0;
#X connect 10 0 13 0;
#X connect 10 1 3 0;
#X connect 11 0 1 0;
#X connect 11 0 29 0;
#X connect 11 0 7 0;
#X connect 11 0 13 0;
#X connect 11 0 50 0;
#X connect 11 0 63 0;
#X connect 12 0 22 0;
#X connect 12 0 21 0;
#X connect 12 1 3 0;
#X connect 13 0 14 0;
#X connect 14 0 16 0;
#X connect 15 0 9 1;
#X connect 16 0 55 0;
#X connect 17 0 26 0;
#X connect 18 0 25 0;
#X connect 19 0 17 0;
#X connect 20 0 18 0;
#X connect 21 0 14 0;
#X connect 22 0 8 0;
#X connect 23 0 56 0;
#X connect 23 0 57 0;
#X connect 23 0 58 0;
#X connect 24 0 19 0;
#X connect 24 0 20 0;
#X connect 25 0 21 0;
#X connect 26 0 22 0;
#X connect 27 0 28 0;
#X connect 27 0 62 0;
#X connect 28 0 24 0;
#X connect 29 0 27 0;
#X connect 30 0 29 1;
#X connect 30 0 63 1;
#X connect 31 0 32 0;
#X connect 32 0 36 0;
#X connect 33 0 2 0;
#X connect 34 0 35 0;
#X connect 35 0 33 0;
#X connect 36 0 34 0;
#X connect 38 0 65 0;
#X connect 39 0 66 0;
#X connect 40 0 59 0;
#X connect 41 0 48 0;
#X connect 41 0 49 0;
#X connect 41 1 65 0;
#X connect 42 0 47 0;
#X connect 42 0 46 0;
#X connect 42 1 65 0;
#X connect 43 0 45 0;
#X connect 44 0 38 0;
#X connect 44 0 64 1;
#X connect 45 0 60 0;
#X connect 46 0 43 0;
#X connect 47 0 40 0;
#X connect 48 0 40 0;
#X connect 49 0 43 0;
#X connect 50 0 43 0;
#X connect 50 0 40 0;
#X connect 51 0 0 0;
#X connect 52 0 11 0;
#X connect 53 0 1 1;
#X connect 53 0 30 0;
#X connect 54 0 2 0;
#X connect 55 0 2 0;
#X connect 56 0 20 1;
#X connect 57 0 19 1;
#X connect 58 0 17 1;
#X connect 58 0 18 1;
#X connect 59 0 37 0;
#X connect 60 0 37 0;
#X connect 61 0 58 0;
#X connect 62 0 61 0;
#X connect 63 0 41 0;
#X connect 63 0 64 0;
#X connect 64 0 42 0;
#X connect 65 0 43 1;
#X connect 65 0 40 1;
#X connect 66 0 44 0;
#X restore 70 108 pd HarryFlyingWings;
#X restore 1152 655 pd HarryMoves;
#N canvas 440 218 559 493 MNGroupMove 0;
#X obj 208 40 r MNGroupsMove;
#N canvas 495 323 649 511 MNGroup1Move 0;
#N canvas 464 267 815 589 PiedsMove 0;
#X obj 41 80 bng 15 250 50 0 empty empty empty 17 7 0 10 -262144 -1
-1;
#X obj 41 132 metro 1000;
#X obj 98 91 r MNTempoPieds;
#X obj 41 53 r MNGroup1PiedsMove;
#X msg 208 81 stop;
#X obj 208 58 r MNGroup1PiedsStop;
#X obj 325 149 delay 500;
#X obj 88 207 delay 250;
#X obj 41 343 line;
#X msg 41 371 /Prison_Barreaux/Ypos \$1;
#X msg 325 369 /Prison_Prisonniers/Ypos \$1;
#X obj 189 132 / 2;
#X obj 257 134 / 4;
#X msg 150 309 set \$1;
#X obj 150 164 / 8;
#X msg 115 326 49.2126;
#X obj 41 190 t b b;
#X obj 88 241 t b b;
#X obj 41 399 s OSC_MESSAGES;
#X msg 88 285 -2;
#X msg 41 256 -1.7;
#X obj 372 207 delay 250;
#X obj 325 343 line;
#X msg 434 309 set \$1;
#X msg 399 326 49.2126;
#X obj 325 190 t b b;
#X obj 372 241 t b b;
#X msg 372 285 -2;
#X msg 325 256 -1.7;
#X obj 325 396 s OSC_MESSAGES;
#X connect 0 0 1 0;
#X connect 0 0 19 0;
#X connect 1 0 16 0;
#X connect 1 0 6 0;
#X connect 2 0 1 1;
#X connect 2 0 11 0;
#X connect 2 0 12 0;
#X connect 2 0 14 0;
#X connect 3 0 0 0;
#X connect 4 0 1 0;
#X connect 5 0 4 0;
#X connect 6 0 25 0;
#X connect 7 0 17 0;
#X connect 8 0 9 0;
#X connect 9 0 18 0;
#X connect 10 0 29 0;
#X connect 11 0 6 1;
#X connect 12 0 7 1;
#X connect 12 0 21 1;
#X connect 13 0 15 0;
#X connect 14 0 13 0;
#X connect 14 0 23 0;
#X connect 15 0 8 1;
#X connect 16 0 20 0;
#X connect 16 0 7 0;
#X connect 16 1 15 0;
#X connect 17 0 19 0;
#X connect 17 1 15 0;
#X connect 19 0 8 0;
#X connect 20 0 8 0;
#X connect 21 0 26 0;
#X connect 22 0 10 0;
#X connect 23 0 24 0;
#X connect 24 0 22 1;
#X connect 25 0 28 0;
#X connect 25 0 21 0;
#X connect 25 1 24 0;
#X connect 26 0 27 0;
#X connect 26 1 24 0;
#X connect 27 0 22 0;
#X connect 28 0 22 0;
#X restore 40 43 pd PiedsMove;
#N canvas 464 267 815 626 HandsMove 0;
#X obj 41 80 bng 15 250 50 0 empty empty empty 17 7 0 10 -262144 -1
-1;
#X obj 41 132 metro 1000;
#X msg 208 81 stop;
#X obj 325 149 delay 500;
#X obj 88 207 delay 250;
#X obj 41 343 line;
#X obj 189 132 / 2;
#X obj 257 134 / 4;
#X msg 150 309 set \$1;
#X obj 150 164 / 8;
#X msg 115 326 49.2126;
#X obj 41 190 t b b;
#X obj 88 241 t b b;
#X obj 41 399 s OSC_MESSAGES;
#X msg 88 285 -2;
#X msg 41 256 -1.7;
#X obj 372 207 delay 250;
#X obj 325 343 line;
#X msg 434 309 set \$1;
#X msg 399 326 49.2126;
#X obj 325 190 t b b;
#X obj 372 241 t b b;
#X msg 372 285 -2;
#X msg 325 256 -1.7;
#X obj 325 396 s OSC_MESSAGES;
#X obj 208 58 r MNGroup1HandsStop;
#X obj 98 91 r MNTempoHands;
#X msg 41 371 /Assiette_Bush/Ypos \$1;
#X msg 325 369 /Assiette_Gail/Ypos \$1;
#X msg 41 576 /Assiette_Bush/Rotate \$1;
#X obj 41 497 / 100;
#X obj 41 605 s OSC_MESSAGES;
#X obj 41 523 line;
#X obj 41 448 random 1001;
#X obj 41 474 - 500;
#X obj 41 551 mod 360;
#X obj 323 497 / 100;
#X obj 323 605 s OSC_MESSAGES;
#X obj 323 523 line;
#X obj 323 448 random 1001;
#X obj 323 474 - 500;
#X obj 323 551 mod 360;
#X msg 323 576 /Assiette_Gail/Rotate \$1;
#X obj 41 53 r MNGroup1HandsMove;
#X connect 0 0 1 0;
#X connect 0 0 14 0;
#X connect 1 0 11 0;
#X connect 1 0 3 0;
#X connect 2 0 1 0;
#X connect 3 0 20 0;
#X connect 4 0 12 0;
#X connect 5 0 27 0;
#X connect 6 0 3 1;
#X connect 7 0 4 1;
#X connect 7 0 16 1;
#X connect 8 0 10 0;
#X connect 9 0 8 0;
#X connect 9 0 18 0;
#X connect 10 0 5 1;
#X connect 10 0 32 1;
#X connect 11 0 15 0;
#X connect 11 0 4 0;
#X connect 11 0 33 0;
#X connect 11 1 10 0;
#X connect 12 0 14 0;
#X connect 12 1 10 0;
#X connect 14 0 5 0;
#X connect 15 0 5 0;
#X connect 16 0 21 0;
#X connect 17 0 28 0;
#X connect 18 0 19 0;
#X connect 19 0 17 1;
#X connect 19 0 38 1;
#X connect 20 0 23 0;
#X connect 20 0 16 0;
#X connect 20 0 39 0;
#X connect 20 1 19 0;
#X connect 21 0 22 0;
#X connect 21 1 19 0;
#X connect 22 0 17 0;
#X connect 23 0 17 0;
#X connect 25 0 2 0;
#X connect 26 0 1 1;
#X connect 26 0 6 0;
#X connect 26 0 7 0;
#X connect 26 0 9 0;
#X connect 27 0 13 0;
#X connect 28 0 24 0;
#X connect 29 0 31 0;
#X connect 30 0 32 0;
#X connect 32 0 35 0;
#X connect 33 0 34 0;
#X connect 34 0 30 0;
#X connect 35 0 29 0;
#X connect 36 0 38 0;
#X connect 38 0 41 0;
#X connect 39 0 40 0;
#X connect 40 0 36 0;
#X connect 41 0 42 0;
#X connect 42 0 37 0;
#X connect 43 0 0 0;
#X restore 40 63 pd HandsMove;
#N canvas 447 199 815 626 HatsMove 0;
#X obj 41 80 bng 15 250 50 0 empty empty empty 17 7 0 10 -262144 -1
-1;
#X msg 208 81 stop;
#X obj 41 343 line;
#X obj 257 134 / 4;
#X msg 150 309 set \$1;
#X obj 150 164 / 8;
#X msg 115 326 49.2126;
#X obj 41 190 t b b;
#X obj 88 241 t b b;
#X obj 41 399 s OSC_MESSAGES;
#X msg 88 285 -2;
#X obj 41 497 / 100;
#X obj 41 605 s OSC_MESSAGES;
#X obj 41 523 line;
#X obj 41 551 mod 360;
#X obj 208 58 r MNGroup1HatsStop;
#X obj 98 91 r MNTempoHats;
#X msg 41 256 -1.9;
#X msg 41 371 /CochonLights/Ypos \$1;
#X obj 41 448 random 501;
#X obj 41 474 - 250;
#X msg 41 576 /Cochon*/Rotate \$1;
#X obj 41 132 metro 500;
#X obj 88 207 delay 250;
#X obj 41 53 r MNGroup1HatsMove;
#X connect 0 0 10 0;
#X connect 0 0 22 0;
#X connect 1 0 22 0;
#X connect 2 0 18 0;
#X connect 3 0 23 1;
#X connect 4 0 6 0;
#X connect 5 0 4 0;
#X connect 6 0 2 1;
#X connect 6 0 13 1;
#X connect 7 0 17 0;
#X connect 7 0 19 0;
#X connect 7 0 23 0;
#X connect 7 1 6 0;
#X connect 8 0 10 0;
#X connect 8 1 6 0;
#X connect 10 0 2 0;
#X connect 11 0 13 0;
#X connect 13 0 14 0;
#X connect 14 0 21 0;
#X connect 15 0 1 0;
#X connect 16 0 3 0;
#X connect 16 0 5 0;
#X connect 16 0 22 1;
#X connect 17 0 2 0;
#X connect 18 0 9 0;
#X connect 19 0 20 0;
#X connect 20 0 11 0;
#X connect 21 0 12 0;
#X connect 22 0 7 0;
#X connect 23 0 8 0;
#X connect 24 0 0 0;
#X restore 40 83 pd HatsMove;
#N canvas 437 189 815 626 GroupMove 0;
#X obj 41 80 bng 15 250 50 0 empty empty empty 17 7 0 10 -262144 -1
-1;
#X msg 208 81 stop;
#X obj 41 343 line;
#X msg 150 309 set \$1;
#X obj 150 164 / 8;
#X obj 41 190 t b b;
#X obj 98 91 r MNTempoGroups;
#X obj 41 53 r MNGroup1GroupMove;
#X obj 208 58 r MNGroup1GroupStop;
#X obj 41 132 metro 10000;
#X msg 115 326 1062.99;
#X msg 88 285 0;
#X obj 41 294 / 100;
#X msg 41 371 /Cochon*/Xpos \$1;
#X msg 41 391 /Prison_*/Xpos \$1;
#X msg 41 411 /Assiette_*/Xpos \$1;
#X obj 41 446 s OSC_MESSAGES;
#X obj 341 102 r MNTempoPieds;
#X obj 439 119 / 2;
#X msg 290 303 /Cochon*/gYpos \$1;
#X msg 290 323 /Prison_*/gYpos \$1;
#X msg 290 343 /Assiette_*/gYpos \$1;
#X obj 290 365 s OSC_MESSAGES;
#X obj 290 279 line;
#X msg 439 173 set \$1;
#X obj 290 135 metro 500;
#X obj 290 158 t b b;
#X obj 290 187 delay 125;
#X obj 290 37 bng 15 250 50 0 empty empty empty 17 7 0 10 -262144 -1
-1;
#X obj 290 10 r MNGroup1PiedsMove;
#X msg 457 38 stop;
#X obj 457 15 r MNGroup1PiedsStop;
#X msg 439 262 196.85;
#X obj 492 119 / 4;
#X msg 420 234 0;
#X obj 367 216 t b b;
#X obj 367 190 delay 375;
#X msg 540 181 /Cochon*/Child/Ypos \$1;
#X msg 540 201 /Prison_*/Child/Ypos \$1;
#X msg 540 221 /Assiette_*/Child/Ypos \$1;
#X msg 540 271 /Prison_*/ParentName /Dummy;
#X msg 540 251 /Cochon*/ParentName /Dummy;
#X msg 540 291 /Assiette_*/ParentName /Dummy;
#X obj 542 94 t b b;
#X msg 585 144 1;
#X obj 450 367 bng 15 250 50 0 empty empty empty 17 7 0 10 -262144
-1 -1;
#X obj 488 372 bng 15 250 50 0 empty empty empty 17 7 0 10 -262144
-1 -1;
#X msg 290 220 0.1;
#X obj 41 250 - 550;
#X obj 41 221 random 1101;
#X connect 0 0 9 0;
#X connect 1 0 9 0;
#X connect 2 0 13 0;
#X connect 2 0 14 0;
#X connect 2 0 15 0;
#X connect 3 0 10 0;
#X connect 4 0 3 0;
#X connect 5 0 49 0;
#X connect 5 1 10 0;
#X connect 6 0 4 0;
#X connect 6 0 9 1;
#X connect 7 0 0 0;
#X connect 8 0 1 0;
#X connect 9 0 5 0;
#X connect 10 0 2 1;
#X connect 11 0 2 0;
#X connect 12 0 2 0;
#X connect 13 0 16 0;
#X connect 14 0 16 0;
#X connect 15 0 16 0;
#X connect 17 0 25 1;
#X connect 17 0 18 0;
#X connect 18 0 24 0;
#X connect 19 0 22 0;
#X connect 20 0 22 0;
#X connect 21 0 22 0;
#X connect 23 0 19 0;
#X connect 23 0 20 0;
#X connect 23 0 21 0;
#X connect 24 0 32 0;
#X connect 25 0 26 0;
#X connect 25 0 36 0;
#X connect 26 0 27 0;
#X connect 26 1 32 0;
#X connect 27 0 47 0;
#X connect 27 0 45 0;
#X connect 28 0 25 0;
#X connect 28 0 43 0;
#X connect 29 0 28 0;
#X connect 30 0 25 0;
#X connect 31 0 30 0;
#X connect 32 0 23 1;
#X connect 34 0 23 0;
#X connect 35 0 34 0;
#X connect 35 0 46 0;
#X connect 35 1 32 0;
#X connect 36 0 35 0;
#X connect 37 0 22 0;
#X connect 38 0 22 0;
#X connect 39 0 22 0;
#X connect 40 0 22 0;
#X connect 41 0 22 0;
#X connect 42 0 22 0;
#X connect 43 0 44 0;
#X connect 43 1 41 0;
#X connect 43 1 40 0;
#X connect 43 1 42 0;
#X connect 44 0 37 0;
#X connect 44 0 38 0;
#X connect 44 0 39 0;
#X connect 47 0 23 0;
#X connect 48 0 12 0;
#X connect 49 0 48 0;
#X restore 40 103 pd GroupMove;
#X restore 34 81 pd MNGroup1Move;
#N canvas 744 266 649 511 MNGroup2Move 0;
#N canvas 460 263 815 589 PiedsMove 0;
#X obj 41 80 bng 15 250 50 0 empty empty empty 17 7 0 10 -262144 -1
-1;
#X obj 98 91 r MNTempoPieds;
#X msg 208 81 stop;
#X obj 88 207 delay 250;
#X obj 41 343 line;
#X obj 189 132 / 2;
#X obj 257 134 / 4;
#X msg 150 309 set \$1;
#X obj 150 164 / 8;
#X msg 115 326 49.2126;
#X obj 41 190 t b b;
#X obj 88 241 t b b;
#X obj 41 399 s OSC_MESSAGES;
#X msg 88 285 -2;
#X msg 41 256 -1.7;
#X obj 208 58 r MNGroup2PiedsStop;
#X obj 41 53 r MNGroup2PiedsMove;
#X msg 41 371 /CuveGalootContent/Ypos \$1;
#X obj 41 132 metro 500;
#X connect 0 0 13 0;
#X connect 0 0 18 0;
#X connect 1 0 5 0;
#X connect 1 0 6 0;
#X connect 1 0 8 0;
#X connect 2 0 18 0;
#X connect 3 0 11 0;
#X connect 4 0 17 0;
#X connect 5 0 18 1;
#X connect 6 0 3 1;
#X connect 7 0 9 0;
#X connect 8 0 7 0;
#X connect 9 0 4 1;
#X connect 10 0 14 0;
#X connect 10 0 3 0;
#X connect 10 1 9 0;
#X connect 11 0 13 0;
#X connect 11 1 9 0;
#X connect 13 0 4 0;
#X connect 14 0 4 0;
#X connect 15 0 2 0;
#X connect 16 0 0 0;
#X connect 17 0 12 0;
#X connect 18 0 10 0;
#X restore 40 43 pd PiedsMove;
#N canvas 460 263 815 626 HandsMove 0;
#X obj 41 80 bng 15 250 50 0 empty empty empty 17 7 0 10 -262144 -1
-1;
#X obj 41 132 metro 1000;
#X msg 208 81 stop;
#X obj 325 149 delay 500;
#X obj 88 207 delay 250;
#X obj 41 343 line;
#X obj 189 132 / 2;
#X obj 257 134 / 4;
#X msg 150 309 set \$1;
#X obj 150 164 / 8;
#X msg 115 326 49.2126;
#X obj 41 190 t b b;
#X obj 88 241 t b b;
#X obj 41 399 s OSC_MESSAGES;
#X msg 88 285 -2;
#X msg 41 256 -1.7;
#X obj 372 207 delay 250;
#X obj 325 343 line;
#X msg 434 309 set \$1;
#X msg 399 326 49.2126;
#X obj 325 190 t b b;
#X obj 372 241 t b b;
#X msg 372 285 -2;
#X msg 325 256 -1.7;
#X obj 325 396 s OSC_MESSAGES;
#X obj 98 91 r MNTempoHands;
#X obj 41 497 / 100;
#X obj 41 605 s OSC_MESSAGES;
#X obj 41 523 line;
#X obj 41 448 random 1001;
#X obj 41 474 - 500;
#X obj 41 551 mod 360;
#X obj 323 497 / 100;
#X obj 323 605 s OSC_MESSAGES;
#X obj 323 523 line;
#X obj 323 448 random 1001;
#X obj 323 474 - 500;
#X obj 323 551 mod 360;
#X msg 41 576 /CuveGalootContent2/Rotate \$1;
#X msg 323 576 /DjventiloPales/Rotate \$1;
#X msg 325 369 /DjventiloPales/Ypos \$1;
#X msg 41 371 /CuveGalootContent2/Ypos \$1;
#X obj 208 58 r MNGroup2HandsStop;
#X obj 41 53 r MNGroup2HandsMove;
#X connect 0 0 1 0;
#X connect 0 0 14 0;
#X connect 1 0 11 0;
#X connect 1 0 3 0;
#X connect 2 0 1 0;
#X connect 3 0 20 0;
#X connect 4 0 12 0;
#X connect 5 0 41 0;
#X connect 6 0 3 1;
#X connect 7 0 4 1;
#X connect 7 0 16 1;
#X connect 8 0 10 0;
#X connect 9 0 8 0;
#X connect 9 0 18 0;
#X connect 10 0 5 1;
#X connect 10 0 28 1;
#X connect 11 0 15 0;
#X connect 11 0 4 0;
#X connect 11 0 29 0;
#X connect 11 1 10 0;
#X connect 12 0 14 0;
#X connect 12 1 10 0;
#X connect 14 0 5 0;
#X connect 15 0 5 0;
#X connect 16 0 21 0;
#X connect 17 0 40 0;
#X connect 18 0 19 0;
#X connect 19 0 17 1;
#X connect 19 0 34 1;
#X connect 20 0 23 0;
#X connect 20 0 16 0;
#X connect 20 0 35 0;
#X connect 20 1 19 0;
#X connect 21 0 22 0;
#X connect 21 1 19 0;
#X connect 22 0 17 0;
#X connect 23 0 17 0;
#X connect 25 0 1 1;
#X connect 25 0 6 0;
#X connect 25 0 7 0;
#X connect 25 0 9 0;
#X connect 26 0 28 0;
#X connect 28 0 31 0;
#X connect 29 0 30 0;
#X connect 30 0 26 0;
#X connect 31 0 38 0;
#X connect 32 0 34 0;
#X connect 34 0 37 0;
#X connect 35 0 36 0;
#X connect 36 0 32 0;
#X connect 37 0 39 0;
#X connect 38 0 27 0;
#X connect 39 0 33 0;
#X connect 40 0 24 0;
#X connect 41 0 13 0;
#X connect 42 0 2 0;
#X connect 43 0 0 0;
#X restore 40 63 pd HandsMove;
#N canvas 441 193 815 626 HatsMove 0;
#X obj 41 80 bng 15 250 50 0 empty empty empty 17 7 0 10 -262144 -1
-1;
#X msg 208 81 stop;
#X obj 41 343 line;
#X obj 257 134 / 4;
#X msg 150 309 set \$1;
#X obj 150 164 / 8;
#X msg 115 326 49.2126;
#X obj 41 190 t b b;
#X obj 88 241 t b b;
#X obj 41 399 s OSC_MESSAGES;
#X msg 88 285 -2;
#X obj 41 497 / 100;
#X obj 41 615 s OSC_MESSAGES;
#X obj 41 523 line;
#X obj 41 551 mod 360;
#X obj 98 91 r MNTempoHats;
#X msg 41 256 -1.9;
#X obj 41 448 random 501;
#X obj 41 474 - 250;
#X obj 41 132 metro 500;
#X obj 88 207 delay 250;
#X msg 41 576 /CuveGaloot/Rotate \$1;
#X msg 41 596 /Tube/Rotate \$1;
#X msg 41 371 /CuveGaloot/Ypos \$1;
#X obj 208 58 r MNGroup2HatsStop;
#X obj 41 53 r MNGroup2HatsMove;
#X connect 0 0 10 0;
#X connect 0 0 19 0;
#X connect 1 0 19 0;
#X connect 2 0 23 0;
#X connect 3 0 20 1;
#X connect 4 0 6 0;
#X connect 5 0 4 0;
#X connect 6 0 2 1;
#X connect 6 0 13 1;
#X connect 7 0 16 0;
#X connect 7 0 17 0;
#X connect 7 0 20 0;
#X connect 7 1 6 0;
#X connect 8 0 10 0;
#X connect 8 1 6 0;
#X connect 10 0 2 0;
#X connect 11 0 13 0;
#X connect 13 0 14 0;
#X connect 14 0 21 0;
#X connect 14 0 22 0;
#X connect 14 0 12 0;
#X connect 15 0 3 0;
#X connect 15 0 5 0;
#X connect 15 0 19 1;
#X connect 16 0 2 0;
#X connect 17 0 18 0;
#X connect 18 0 11 0;
#X connect 19 0 7 0;
#X connect 20 0 8 0;
#X connect 21 0 12 0;
#X connect 23 0 9 0;
#X connect 24 0 1 0;
#X connect 25 0 0 0;
#X restore 40 83 pd HatsMove;
#N canvas 437 189 815 626 GroupMove 0;
#X obj 41 80 bng 15 250 50 0 empty empty empty 17 7 0 10 -262144 -1
-1;
#X msg 208 81 stop;
#X obj 41 343 line;
#X msg 150 309 set \$1;
#X obj 150 164 / 8;
#X obj 41 190 t b b;
#X obj 98 91 r MNTempoGroups;
#X obj 41 132 metro 10000;
#X msg 115 326 1062.99;
#X msg 88 285 0;
#X obj 41 294 / 100;
#X obj 41 446 s OSC_MESSAGES;
#X obj 341 102 r MNTempoPieds;
#X obj 439 119 / 2;
#X obj 290 365 s OSC_MESSAGES;
#X obj 290 279 line;
#X msg 439 173 set \$1;
#X obj 290 135 metro 500;
#X obj 290 158 t b b;
#X obj 290 187 delay 125;
#X obj 290 37 bng 15 250 50 0 empty empty empty 17 7 0 10 -262144 -1
-1;
#X msg 457 38 stop;
#X msg 439 262 196.85;
#X obj 492 119 / 4;
#X msg 420 234 0;
#X obj 367 216 t b b;
#X obj 367 190 delay 375;
#X obj 542 94 t b b;
#X msg 585 144 1;
#X obj 450 367 bng 15 250 50 0 empty empty empty 17 7 0 10 -262144
-1 -1;
#X obj 488 372 bng 15 250 50 0 empty empty empty 17 7 0 10 -262144
-1 -1;
#X msg 290 220 0.1;
#X msg 540 181 /Tube/Child/Ypos \$1;
#X msg 540 201 /CuveGaloot*/Child/Ypos \$1;
#X msg 540 221 /DjventiloPales/Child/Ypos \$1;
#X msg 540 251 /Tube/ParentName /Dummy;
#X msg 540 271 /CuveGaloot*/ParentName /Dummy;
#X msg 540 291 /DjventiloPales/ParentName /Dummy;
#X msg 290 303 /Tube/gYpos \$1;
#X msg 290 323 /CuveGaloot*/gYpos \$1;
#X obj 208 58 r MNGroup2GroupStop;
#X obj 290 10 r MNGroup2PiedsMove;
#X obj 457 15 r MNGroup2PiedsStop;
#X obj 41 53 r MNGroup2GroupMove;
#X msg 290 343 /DjventiloPales/gYpos \$1;
#X msg 41 371 /Tube/Xpos \$1;
#X msg 41 391 /CuveGaloot*/Xpos \$1;
#X msg 41 411 /DjventiloPales/Xpos \$1;
#X obj 41 221 random 1001;
#X obj 41 250 - 500;
#X connect 0 0 7 0;
#X connect 1 0 7 0;
#X connect 2 0 45 0;
#X connect 2 0 46 0;
#X connect 2 0 47 0;
#X connect 3 0 8 0;
#X connect 4 0 3 0;
#X connect 5 0 48 0;
#X connect 5 1 8 0;
#X connect 6 0 4 0;
#X connect 6 0 7 1;
#X connect 7 0 5 0;
#X connect 8 0 2 1;
#X connect 9 0 2 0;
#X connect 10 0 2 0;
#X connect 12 0 17 1;
#X connect 12 0 13 0;
#X connect 13 0 16 0;
#X connect 15 0 38 0;
#X connect 15 0 39 0;
#X connect 15 0 44 0;
#X connect 16 0 22 0;
#X connect 17 0 18 0;
#X connect 17 0 26 0;
#X connect 18 0 19 0;
#X connect 18 1 22 0;
#X connect 19 0 31 0;
#X connect 19 0 29 0;
#X connect 20 0 17 0;
#X connect 20 0 27 0;
#X connect 21 0 17 0;
#X connect 22 0 15 1;
#X connect 24 0 15 0;
#X connect 25 0 24 0;
#X connect 25 0 30 0;
#X connect 25 1 22 0;
#X connect 26 0 25 0;
#X connect 27 0 28 0;
#X connect 27 1 35 0;
#X connect 27 1 36 0;
#X connect 27 1 37 0;
#X connect 28 0 32 0;
#X connect 28 0 33 0;
#X connect 28 0 34 0;
#X connect 31 0 15 0;
#X connect 32 0 14 0;
#X connect 33 0 14 0;
#X connect 34 0 14 0;
#X connect 35 0 14 0;
#X connect 36 0 14 0;
#X connect 37 0 14 0;
#X connect 38 0 14 0;
#X connect 39 0 14 0;
#X connect 40 0 1 0;
#X connect 41 0 20 0;
#X connect 42 0 21 0;
#X connect 43 0 0 0;
#X connect 44 0 14 0;
#X connect 45 0 11 0;
#X connect 46 0 11 0;
#X connect 47 0 11 0;
#X connect 48 0 49 0;
#X connect 49 0 10 0;
#X restore 40 103 pd GroupMove;
#X restore 34 111 pd MNGroup2Move;
#X obj 208 170 s MNGroup2PiedsMove;
#X obj 208 190 s MNGroup2HandsMove;
#X obj 208 210 s MNGroup2HatsMove;
#X obj 208 230 s MNGroup2GroupMove;
#X obj 208 80 s MNGroup1PiedsMove;
#X obj 208 100 s MNGroup1HandsMove;
#X obj 208 120 s MNGroup1HatsMove;
#X obj 208 140 s MNGroup1GroupMove;
#X obj 33 173 s MNTempoPieds;
#X obj 33 203 s MNTempoHands;
#X obj 33 233 s MNTempoHats;
#X obj 100 351 s MNTempoGroups;
#X obj 103 328 hsl 128 15 10000 500 0 0 empty empty empty -2 -8 0 10
-262144 -1 -1 2000 1;
#X obj 36 150 hsl 128 15 1000 300 0 0 empty empty empty -2 -8 0 10
-262144 -1 -1 11000 1;
#X obj 376 89 bng 15 250 50 0 empty empty empty 17 7 0 10 -262144 -1
-1;
#X obj 376 123 s MNGroupsMove;
#X connect 0 0 7 0;
#X connect 0 0 8 0;
#X connect 0 0 9 0;
#X connect 0 0 10 0;
#X connect 0 0 3 0;
#X connect 0 0 4 0;
#X connect 0 0 5 0;
#X connect 0 0 6 0;
#X connect 15 0 14 0;
#X connect 16 0 11 0;
#X connect 16 0 12 0;
#X connect 16 0 13 0;
#X connect 17 0 18 0;
#X restore 1154 701 pd MNGroupMove;
#X connect 0 0 1 0;
#X connect 1 0 64 0;
#X connect 2 0 3 0;
#X connect 3 0 4 0;
#X connect 4 0 8 0;
#X connect 5 0 8 1;
#X connect 6 0 27 1;
#X connect 7 0 32 1;
#X connect 8 0 9 0;
#X connect 9 0 20 1;
#X connect 10 0 62 0;
#X connect 11 0 21 0;
#X connect 12 0 72 0;
#X connect 14 0 20 0;
#X connect 15 0 22 0;
#X connect 16 0 23 0;
#X connect 17 0 2 0;
#X connect 17 1 5 0;
#X connect 17 2 10 0;
#X connect 17 3 24 0;
#X connect 17 4 6 0;
#X connect 17 5 71 0;
#X connect 17 6 29 0;
#X connect 17 7 7 0;
#X connect 17 8 11 0;
#X connect 17 9 65 0;
#X connect 18 0 64 0;
#X connect 19 0 17 0;
#X connect 20 0 13 0;
#X connect 21 0 68 0;
#X connect 22 0 13 0;
#X connect 23 0 13 0;
#X connect 24 0 25 0;
#X connect 25 0 26 0;
#X connect 26 0 27 0;
#X connect 27 0 28 0;
#X connect 28 0 22 1;
#X connect 29 0 30 0;
#X connect 30 0 31 0;
#X connect 31 0 32 0;
#X connect 32 0 33 0;
#X connect 33 0 23 1;
#X connect 34 0 59 0;
#X connect 35 0 38 1;
#X connect 36 0 54 1;
#X connect 37 0 57 1;
#X connect 38 0 39 0;
#X connect 39 0 49 1;
#X connect 40 0 63 0;
#X connect 41 0 50 0;
#X connect 42 0 74 0;
#X connect 44 0 49 0;
#X connect 45 0 51 0;
#X connect 46 0 52 0;
#X connect 47 0 76 0;
#X connect 47 1 35 0;
#X connect 47 2 40 0;
#X connect 47 3 77 0;
#X connect 47 4 36 0;
#X connect 47 5 73 0;
#X connect 47 6 75 0;
#X connect 47 7 37 0;
#X connect 47 8 41 0;
#X connect 47 9 66 0;
#X connect 48 0 47 0;
#X connect 49 0 43 0;
#X connect 50 0 67 0;
#X connect 51 0 43 0;
#X connect 52 0 43 0;
#X connect 53 0 60 0;
#X connect 54 0 55 0;
#X connect 55 0 51 1;
#X connect 56 0 61 0;
#X connect 57 0 58 0;
#X connect 58 0 52 1;
#X connect 59 0 38 0;
#X connect 60 0 54 0;
#X connect 61 0 57 0;
#X connect 62 0 70 0;
#X connect 63 0 69 0;
#X connect 64 0 19 0;
#X connect 64 0 48 0;
#X connect 65 0 14 1;
#X connect 65 0 15 1;
#X connect 65 0 16 1;
#X connect 66 0 44 1;
#X connect 66 0 45 1;
#X connect 66 0 46 1;
#X connect 67 0 46 0;
#X connect 68 0 16 0;
#X connect 69 0 44 0;
#X connect 70 0 14 0;
#X connect 71 0 12 0;
#X connect 72 0 15 0;
#X connect 73 0 42 0;
#X connect 74 0 45 0;
#X connect 75 0 56 0;
#X connect 76 0 34 0;
#X connect 77 0 53 0;
#X connect 78 0 79 0;
#X connect 78 0 82 0;
#X connect 78 0 89 0;
#X connect 78 0 88 0;
#X connect 79 0 81 0;
#X connect 80 0 83 0;
#X connect 81 0 80 0;
#X connect 82 0 86 0;
#X connect 84 0 85 0;
#X connect 85 0 78 0;
#X connect 86 0 81 0;
#X connect 87 0 90 0;
#X connect 88 0 91 0;
#X connect 89 0 87 0;
#X connect 90 0 83 0;
#X connect 91 0 87 0;
