#N canvas 0 100 1440 800 10;
#X obj 71 40 r nuagesOnMove;
#X obj 71 70 bng 15 250 50 0 empty empty empty 17 7 0 10 -262144 -1
-1;
#X obj 107 296 random 3;
#X obj 107 320 + 1;
#X msg 107 348 /DunjonDoor\$1;
#X msg 389 361 Xscale;
#X msg 441 361 Xpos;
#X msg 481 361 Ypos;
#X obj 107 378 list;
#X obj 107 408 l2s /;
#X obj 512 300 random 100;
#X obj 658 300 random 100;
#X obj 582 378 / 100;
#X obj 151 586 s OSC_MESSAGES;
#X obj 38 454 line;
#X obj 128 454 line;
#X obj 218 454 line;
#X obj 278 161 t b b b b b b b b b b;
#X msg 127 75 stop;
#X obj 281 138 bng 15 250 50 0 empty empty empty 17 7 0 10 -262144
-1 -1;
#X obj 38 514 list prepend;
#X obj 658 382 / 3000;
#X obj 128 514 list prepend;
#X obj 218 514 list prepend;
#X obj 197 296 random 3;
#X obj 197 320 + 1;
#X msg 197 348 /DunjonDoor\$1;
#X obj 197 378 list;
#X obj 197 408 l2s /;
#X obj 287 296 random 3;
#X obj 287 320 + 1;
#X msg 287 348 /DunjonDoor\$1;
#X obj 287 378 list;
#X obj 287 408 l2s /;
#X obj 777 320 + 1;
#X msg 1059 361 Xscale;
#X msg 1111 361 Xpos;
#X msg 1151 361 Ypos;
#X obj 777 378 list;
#X obj 777 408 l2s /;
#X obj 1182 300 random 100;
#X obj 1328 300 random 100;
#X obj 1252 378 / 100;
#X obj 821 586 s OSC_MESSAGES;
#X obj 708 454 line;
#X obj 798 454 line;
#X obj 888 454 line;
#X obj 948 161 t b b b b b b b b b b;
#X obj 951 138 bng 15 250 50 0 empty empty empty 17 7 0 10 -262144
-1 -1;
#X obj 708 514 list prepend;
#X obj 1328 382 / 3000;
#X obj 798 514 list prepend;
#X obj 888 514 list prepend;
#X obj 867 320 + 1;
#X obj 867 378 list;
#X obj 867 408 l2s /;
#X obj 957 320 + 1;
#X obj 957 378 list;
#X obj 957 408 l2s /;
#X msg 777 348 /DunjonDoor\$1Cadre;
#X msg 867 348 /DunjonDoor\$1Cadre;
#X msg 957 348 /DunjonDoor\$1Cadre;
#X obj 512 380 / 50;
#X obj 1182 380 / 50;
#X obj 71 121 metro 10000;
#X msg 401 437 10000;
#X msg 1071 437 10000;
#X obj 1328 437 + 1;
#X obj 658 437 + 1;
#X obj 1182 437 + 3;
#X obj 512 437 + 3;
#X obj 582 300 random 1400;
#X obj 582 437 - 7;
#X obj 1252 300 random 1400;
#X obj 1252 437 - 7;
#X obj 957 296 random 2;
#X obj 777 296 random 3;
#X obj 867 296 random 3;
#X obj 65 641 metro 150;
#X msg 65 698 0.2 75;
#X msg 152 741 /WashMachine/Green \$1;
#X obj 152 715 line;
#X obj 65 666 delay 75;
#X obj 454 758 s OSC_MESSAGES;
#X obj 65 613 r allumageFond;
#X obj 187 635 bng 15 250 50 0 empty empty empty 17 7 0 10 -262144
-1 -1;
#X msg 152 683 0 75;
#X obj 320 697 line;
#X obj 383 658 delay 75;
#X msg 320 658 0.7 75;
#X msg 320 741 /WashMachine/Blue \$1;
#X msg 383 680 0.5 75;
#X connect 0 0 1 0;
#X connect 1 0 64 0;
#X connect 2 0 3 0;
#X connect 3 0 4 0;
#X connect 4 0 8 0;
#X connect 5 0 8 1;
#X connect 6 0 27 1;
#X connect 7 0 32 1;
#X connect 8 0 9 0;
#X connect 9 0 20 1;
#X connect 10 0 62 0;
#X connect 11 0 21 0;
#X connect 12 0 72 0;
#X connect 14 0 20 0;
#X connect 15 0 22 0;
#X connect 16 0 23 0;
#X connect 17 0 2 0;
#X connect 17 1 5 0;
#X connect 17 2 10 0;
#X connect 17 3 24 0;
#X connect 17 4 6 0;
#X connect 17 5 71 0;
#X connect 17 6 29 0;
#X connect 17 7 7 0;
#X connect 17 8 11 0;
#X connect 17 9 65 0;
#X connect 18 0 64 0;
#X connect 19 0 17 0;
#X connect 20 0 13 0;
#X connect 21 0 68 0;
#X connect 22 0 13 0;
#X connect 23 0 13 0;
#X connect 24 0 25 0;
#X connect 25 0 26 0;
#X connect 26 0 27 0;
#X connect 27 0 28 0;
#X connect 28 0 22 1;
#X connect 29 0 30 0;
#X connect 30 0 31 0;
#X connect 31 0 32 0;
#X connect 32 0 33 0;
#X connect 33 0 23 1;
#X connect 34 0 59 0;
#X connect 35 0 38 1;
#X connect 36 0 54 1;
#X connect 37 0 57 1;
#X connect 38 0 39 0;
#X connect 39 0 49 1;
#X connect 40 0 63 0;
#X connect 41 0 50 0;
#X connect 42 0 74 0;
#X connect 44 0 49 0;
#X connect 45 0 51 0;
#X connect 46 0 52 0;
#X connect 47 0 76 0;
#X connect 47 1 35 0;
#X connect 47 2 40 0;
#X connect 47 3 77 0;
#X connect 47 4 36 0;
#X connect 47 5 73 0;
#X connect 47 6 75 0;
#X connect 47 7 37 0;
#X connect 47 8 41 0;
#X connect 47 9 66 0;
#X connect 48 0 47 0;
#X connect 49 0 43 0;
#X connect 50 0 67 0;
#X connect 51 0 43 0;
#X connect 52 0 43 0;
#X connect 53 0 60 0;
#X connect 54 0 55 0;
#X connect 55 0 51 1;
#X connect 56 0 61 0;
#X connect 57 0 58 0;
#X connect 58 0 52 1;
#X connect 59 0 38 0;
#X connect 60 0 54 0;
#X connect 61 0 57 0;
#X connect 62 0 70 0;
#X connect 63 0 69 0;
#X connect 64 0 19 0;
#X connect 64 0 48 0;
#X connect 65 0 14 1;
#X connect 65 0 15 1;
#X connect 65 0 16 1;
#X connect 66 0 44 1;
#X connect 66 0 45 1;
#X connect 66 0 46 1;
#X connect 67 0 46 0;
#X connect 68 0 16 0;
#X connect 69 0 44 0;
#X connect 70 0 14 0;
#X connect 71 0 12 0;
#X connect 72 0 15 0;
#X connect 73 0 42 0;
#X connect 74 0 45 0;
#X connect 75 0 56 0;
#X connect 76 0 34 0;
#X connect 77 0 53 0;
#X connect 78 0 79 0;
#X connect 78 0 82 0;
#X connect 78 0 89 0;
#X connect 78 0 88 0;
#X connect 79 0 81 0;
#X connect 80 0 83 0;
#X connect 81 0 80 0;
#X connect 82 0 86 0;
#X connect 84 0 85 0;
#X connect 85 0 78 0;
#X connect 86 0 81 0;
#X connect 87 0 90 0;
#X connect 88 0 91 0;
#X connect 89 0 87 0;
#X connect 90 0 83 0;
#X connect 91 0 87 0;
