#N canvas 0 100 1440 800 10;
#X obj 71 40 r nuagesOnMove;
#X obj 71 70 bng 15 250 50 0 empty empty empty 17 7 0 10 -262144 -1
-1;
#X obj 107 296 random 3;
#X obj 107 320 + 1;
#X msg 107 348 /DunjonDoor\$1;
#X msg 389 361 Xscale;
#X msg 441 361 Xpos;
#X msg 481 361 Ypos;
#X obj 107 378 list;
#X obj 107 408 l2s /;
#X obj 512 300 random 100;
#X obj 658 300 random 100;
#X obj 582 378 / 100;
#X obj 151 586 s OSC_MESSAGES;
#X obj 38 454 line;
#X obj 128 454 line;
#X obj 218 454 line;
#X obj 278 161 t b b b b b b b b b b;
#X msg 127 75 stop;
#X obj 281 138 bng 15 250 50 0 empty empty empty 17 7 0 10 -262144
-1 -1;
#X obj 38 514 list prepend;
#X obj 658 382 / 3000;
#X obj 128 514 list prepend;
#X obj 218 514 list prepend;
#X obj 197 296 random 3;
#X obj 197 320 + 1;
#X msg 197 348 /DunjonDoor\$1;
#X obj 197 378 list;
#X obj 197 408 l2s /;
#X obj 287 296 random 3;
#X obj 287 320 + 1;
#X msg 287 348 /DunjonDoor\$1;
#X obj 287 378 list;
#X obj 287 408 l2s /;
#X obj 777 320 + 1;
#X msg 1059 361 Xscale;
#X msg 1111 361 Xpos;
#X msg 1151 361 Ypos;
#X obj 777 378 list;
#X obj 777 408 l2s /;
#X obj 1182 300 random 100;
#X obj 1328 300 random 100;
#X obj 1252 378 / 100;
#X obj 821 586 s OSC_MESSAGES;
#X obj 708 454 line;
#X obj 798 454 line;
#X obj 888 454 line;
#X obj 948 161 t b b b b b b b b b b;
#X obj 951 138 bng 15 250 50 0 empty empty empty 17 7 0 10 -262144
-1 -1;
#X obj 708 514 list prepend;
#X obj 1328 382 / 3000;
#X obj 798 514 list prepend;
#X obj 888 514 list prepend;
#X obj 867 320 + 1;
#X obj 867 378 list;
#X obj 867 408 l2s /;
#X obj 957 320 + 1;
#X obj 957 378 list;
#X obj 957 408 l2s /;
#X msg 777 348 /DunjonDoor\$1Cadre;
#X msg 867 348 /DunjonDoor\$1Cadre;
#X msg 957 348 /DunjonDoor\$1Cadre;
#X obj 512 380 / 50;
#X obj 1182 380 / 50;
#X obj 71 121 metro 10000;
#X msg 401 437 10000;
#X msg 1071 437 10000;
#X obj 1328 437 + 1;
#X obj 658 437 + 1;
#X obj 1182 437 + 3;
#X obj 512 437 + 3;
#X obj 582 300 random 1400;
#X obj 582 437 - 7;
#X obj 1252 300 random 1400;
#X obj 1252 437 - 7;
#X obj 957 296 random 2;
#X obj 777 296 random 3;
#X obj 867 296 random 3;
#X obj 65 641 metro 150;
#X msg 65 698 0.2 75;
#X msg 152 741 /WashMachine/Green \$1;
#X obj 152 715 line;
#X obj 65 666 delay 75;
#X obj 454 758 s OSC_MESSAGES;
#X obj 65 613 r allumageFond;
#X obj 187 635 bng 15 250 50 0 empty empty empty 17 7 0 10 -262144
-1 -1;
#X msg 152 683 0 75;
#X obj 320 697 line;
#X obj 383 658 delay 75;
#X msg 320 658 0.7 75;
#X msg 320 741 /WashMachine/Blue \$1;
#X msg 383 680 0.5 75;
#N canvas 398 170 450 300 BrownMosesMoves 1;
#N canvas 713 292 670 414 BrownMosesComesInFromTheCeiling 0;
#X obj 49 21 r brownMosesComesInFromTheCeiling;
#X obj 49 51 bng 15 250 50 0 empty empty empty 17 7 0 10 -262144 -1
-1;
#X msg 143 102 /DunjonDoor[4-5]*/ParentName /Djbebe;
#X msg 371 102 /DunjonDoor[4-5]*/Child/[X-Y]pos 1;
#X msg 49 239 /Djbebe/Ypos \$1;
#X msg 68 187 18;
#X msg 49 147 -1.5 2000;
#X obj 49 271 s OSC_MESSAGES;
#X obj 49 204 line;
#X obj 49 312 delay 2000;
#X obj 234 226 s BrownMosesComesInit;
#X obj 49 85 t b b b b;
#X obj 49 352 s BrownMosesFliesAround;
#X connect 0 0 1 0;
#X connect 1 0 11 0;
#X connect 2 0 7 0;
#X connect 3 0 7 0;
#X connect 4 0 7 0;
#X connect 5 0 8 0;
#X connect 6 0 8 0;
#X connect 8 0 4 0;
#X connect 9 0 12 0;
#X connect 11 0 6 0;
#X connect 11 0 9 0;
#X connect 11 1 5 0;
#X connect 11 2 2 0;
#X connect 11 2 3 0;
#X connect 11 3 10 0;
#X restore 60 21 pd BrownMosesComesInFromTheCeiling;
#N canvas 0 100 1440 800 BrownMosesFliesAround 1;
#X obj 178 47 bng 15 250 50 0 empty empty empty 17 7 0 10 -262144 -1
-1;
#X obj 178 106 metro 100;
#X obj 293 400 send OSC_MESSAGES;
#X obj 178 72 t b b;
#X obj 190 249 +;
#X obj 137 169 random 10;
#X obj 178 135 t b b;
#X obj 241 246 sel 1;
#X obj 190 216 spigot;
#X obj 190 320 line;
#X msg 95 177 0;
#X msg 229 46 stop;
#X msg 241 279 0;
#X msg 278 279 1;
#X obj 137 199 / 100;
#X obj 361 246 sel 1;
#X obj 310 216 spigot;
#X msg 361 279 0;
#X msg 398 279 1;
#X obj 310 249 -;
#X obj 37 30 r BrownMosesFliesAround;
#X obj 227 26 r BrownMosesStopsFlyingAround;
#X msg 293 89 /DunjonDoor[4-5]/Child/[X-Y]pos 1;
#X obj 205 168 v /Djbebe/Xpos;
#X msg 190 351 /Djbebe/Xpos \$1;
#X msg 530 383 /Djbebe/Ypos \$1;
#X obj 510 249 +;
#X obj 457 169 random 10;
#X obj 498 135 t b b;
#X obj 561 246 sel 1;
#X obj 510 216 spigot;
#X obj 510 320 line;
#X msg 415 177 0;
#X msg 561 279 0;
#X msg 598 279 1;
#X obj 457 199 / 100;
#X obj 681 246 sel 1;
#X obj 630 216 spigot;
#X msg 681 279 0;
#X msg 718 279 1;
#X obj 630 249 -;
#X obj 525 168 v /Djbebe/Ypos;
#X msg 510 351 /Djbebe/Ypos \$1;
#X obj 561 216 > 1.2;
#X obj 681 216 < -0.8;
#X obj 241 216 > 3.2;
#X obj 361 216 < -3.2;
#X obj 413 43 s BrownMosesFlyingWingsStop;
#X obj 31 112 s BrownMosesFlyingWings;
#X msg 364 303 100;
#X connect 0 0 3 0;
#X connect 0 0 48 0;
#X connect 1 0 6 0;
#X connect 1 0 28 0;
#X connect 3 0 1 0;
#X connect 3 0 18 0;
#X connect 3 0 39 0;
#X connect 3 1 22 0;
#X connect 3 1 10 0;
#X connect 3 1 32 0;
#X connect 4 0 9 0;
#X connect 5 0 14 0;
#X connect 6 0 5 0;
#X connect 6 1 23 0;
#X connect 6 1 49 0;
#X connect 7 0 12 0;
#X connect 7 0 13 0;
#X connect 8 0 4 0;
#X connect 9 0 24 0;
#X connect 10 0 9 0;
#X connect 11 0 10 0;
#X connect 11 0 1 0;
#X connect 11 0 32 0;
#X connect 12 0 8 1;
#X connect 13 0 16 1;
#X connect 14 0 8 0;
#X connect 14 0 16 0;
#X connect 15 0 17 0;
#X connect 15 0 18 0;
#X connect 16 0 19 1;
#X connect 17 0 16 1;
#X connect 18 0 8 1;
#X connect 19 0 9 0;
#X connect 20 0 0 0;
#X connect 21 0 11 0;
#X connect 21 0 47 0;
#X connect 22 0 2 0;
#X connect 23 0 4 1;
#X connect 23 0 19 0;
#X connect 23 0 45 0;
#X connect 23 0 46 0;
#X connect 24 0 2 0;
#X connect 25 0 2 0;
#X connect 26 0 31 0;
#X connect 27 0 35 0;
#X connect 28 0 27 0;
#X connect 28 1 41 0;
#X connect 28 1 49 0;
#X connect 29 0 33 0;
#X connect 29 0 34 0;
#X connect 30 0 26 0;
#X connect 31 0 42 0;
#X connect 32 0 31 0;
#X connect 33 0 30 1;
#X connect 34 0 37 1;
#X connect 35 0 30 0;
#X connect 35 0 37 0;
#X connect 36 0 38 0;
#X connect 36 0 39 0;
#X connect 37 0 40 1;
#X connect 38 0 37 1;
#X connect 39 0 30 1;
#X connect 40 0 31 0;
#X connect 41 0 26 1;
#X connect 41 0 40 0;
#X connect 41 0 43 0;
#X connect 41 0 44 0;
#X connect 42 0 25 0;
#X connect 43 0 29 0;
#X connect 44 0 36 0;
#X connect 45 0 7 0;
#X connect 46 0 15 0;
#X connect 49 0 31 1;
#X connect 49 0 9 1;
#X restore 59 50 pd BrownMosesFliesAround;
#N canvas 195 134 1117 632 BrownMosesFlyingWings 0;
#X obj 46 27 r BrownMosesFlyingWings;
#X obj 46 56 bng 15 250 50 0 empty empty empty 17 7 0 10 -262144 -1
-1;
#X obj 82 113 metro 200;
#X obj 133 66 r FlyingWingsSpeed;
#X obj 69 303 s OSC_MESSAGES;
#X msg 200 167 200;
#X msg 200 136 set \$1;
#X msg 200 116 200;
#X obj 235 99 loadbang;
#X msg 36 221 0;
#X msg 69 266 /DunjonDoor5/Rotate \$1;
#X obj 69 238 line;
#X obj 82 150 delay 100;
#X obj 36 150 t b b;
#X msg 82 80 stop;
#X obj 82 173 t b b;
#X msg 226 218 0;
#X obj 259 235 line;
#X msg 259 286 /DunjonDoor5Cadre/Rotate \$1;
#X obj 159 133 / 2;
#X obj 259 262 mod 360;
#X msg 445 194 -80;
#X msg 525 205 -110;
#X msg 513 178 90;
#X obj 444 266 +;
#X obj 584 272 +;
#X obj 430 230 *;
#X obj 510 240 *;
#X msg 259 190 19.6;
#X msg 69 193 38.8;
#X obj 585 188 loadbang;
#X obj 442 146 hsl 128 15 0 1 0 0 empty empty empty -2 -8 0 10 -262144
-1 -1 8128 1;
#X msg 584 306 set \$1;
#X msg 444 294 set \$1;
#X obj 439 92 random 101;
#X obj 439 119 / 100;
#X obj 439 71 metro 700;
#X obj 364 82 * 3;
#X obj 226 21 r BrownMosesFlyingWingsStop;
#X obj 241 310 random 31;
#X obj 241 332 - 15;
#X msg 241 427 /Djbebe/Rotate \$1;
#X obj 241 380 line;
#X obj 241 404 mod 360;
#X obj 241 358 / 10;
#X obj 709 303 s OSC_MESSAGES;
#X msg 840 146 set \$1;
#X obj 875 99 loadbang;
#X obj 709 238 line;
#X obj 676 150 t b b;
#X obj 722 173 t b b;
#X obj 899 238 line;
#X obj 799 133 / 2;
#X obj 899 262 mod 360;
#X msg 899 190 48.2;
#X obj 722 113 metro 700;
#X msg 840 116 700;
#X obj 722 150 delay 350;
#X msg 840 167 350;
#X msg 709 266 /DunjonDoor4/Rotate \$1;
#X msg 899 286 /DunjonDoor4Cadre/Rotate \$1;
#X msg 709 193 -48.2;
#X msg 676 221 30;
#X msg 866 221 -30;
#X msg 777 221 0;
#X connect 0 0 1 0;
#X connect 1 0 2 0;
#X connect 1 0 36 0;
#X connect 1 0 55 0;
#X connect 2 0 13 0;
#X connect 2 0 12 0;
#X connect 2 0 39 0;
#X connect 3 0 2 1;
#X connect 3 0 37 0;
#X connect 5 0 11 1;
#X connect 5 0 17 1;
#X connect 5 0 42 1;
#X connect 6 0 5 0;
#X connect 7 0 6 0;
#X connect 7 0 19 0;
#X connect 8 0 7 0;
#X connect 9 0 11 0;
#X connect 10 0 4 0;
#X connect 11 0 10 0;
#X connect 12 0 15 0;
#X connect 13 0 9 0;
#X connect 13 0 16 0;
#X connect 13 1 5 0;
#X connect 14 0 2 0;
#X connect 14 0 36 0;
#X connect 14 0 55 0;
#X connect 14 0 9 0;
#X connect 14 0 16 0;
#X connect 14 0 64 0;
#X connect 15 0 29 0;
#X connect 15 0 28 0;
#X connect 15 1 5 0;
#X connect 16 0 17 0;
#X connect 17 0 20 0;
#X connect 18 0 4 0;
#X connect 19 0 12 1;
#X connect 20 0 18 0;
#X connect 21 0 26 1;
#X connect 22 0 27 1;
#X connect 23 0 24 1;
#X connect 23 0 25 1;
#X connect 24 0 33 0;
#X connect 25 0 32 0;
#X connect 26 0 24 0;
#X connect 27 0 25 0;
#X connect 28 0 17 0;
#X connect 29 0 11 0;
#X connect 30 0 22 0;
#X connect 30 0 21 0;
#X connect 30 0 23 0;
#X connect 31 0 26 0;
#X connect 31 0 27 0;
#X connect 32 0 28 0;
#X connect 33 0 29 0;
#X connect 34 0 35 0;
#X connect 35 0 31 0;
#X connect 36 0 34 0;
#X connect 37 0 36 1;
#X connect 37 0 55 1;
#X connect 38 0 14 0;
#X connect 39 0 40 0;
#X connect 40 0 44 0;
#X connect 41 0 4 0;
#X connect 42 0 43 0;
#X connect 43 0 41 0;
#X connect 44 0 42 0;
#X connect 46 0 58 0;
#X connect 47 0 56 0;
#X connect 48 0 59 0;
#X connect 49 0 62 0;
#X connect 49 0 63 0;
#X connect 49 1 58 0;
#X connect 50 0 61 0;
#X connect 50 0 54 0;
#X connect 50 1 58 0;
#X connect 51 0 53 0;
#X connect 52 0 57 1;
#X connect 52 0 46 0;
#X connect 53 0 60 0;
#X connect 54 0 51 0;
#X connect 55 0 49 0;
#X connect 55 0 57 0;
#X connect 56 0 52 0;
#X connect 57 0 50 0;
#X connect 58 0 51 1;
#X connect 58 0 48 1;
#X connect 59 0 45 0;
#X connect 60 0 45 0;
#X connect 61 0 48 0;
#X connect 62 0 48 0;
#X connect 63 0 51 0;
#X connect 64 0 51 0;
#X connect 64 0 48 0;
#X restore 60 98 pd BrownMosesFlyingWings;
#X restore 1152 629 pd BrownMosesMoves;
#X connect 0 0 1 0;
#X connect 1 0 64 0;
#X connect 2 0 3 0;
#X connect 3 0 4 0;
#X connect 4 0 8 0;
#X connect 5 0 8 1;
#X connect 6 0 27 1;
#X connect 7 0 32 1;
#X connect 8 0 9 0;
#X connect 9 0 20 1;
#X connect 10 0 62 0;
#X connect 11 0 21 0;
#X connect 12 0 72 0;
#X connect 14 0 20 0;
#X connect 15 0 22 0;
#X connect 16 0 23 0;
#X connect 17 0 2 0;
#X connect 17 1 5 0;
#X connect 17 2 10 0;
#X connect 17 3 24 0;
#X connect 17 4 6 0;
#X connect 17 5 71 0;
#X connect 17 6 29 0;
#X connect 17 7 7 0;
#X connect 17 8 11 0;
#X connect 17 9 65 0;
#X connect 18 0 64 0;
#X connect 19 0 17 0;
#X connect 20 0 13 0;
#X connect 21 0 68 0;
#X connect 22 0 13 0;
#X connect 23 0 13 0;
#X connect 24 0 25 0;
#X connect 25 0 26 0;
#X connect 26 0 27 0;
#X connect 27 0 28 0;
#X connect 28 0 22 1;
#X connect 29 0 30 0;
#X connect 30 0 31 0;
#X connect 31 0 32 0;
#X connect 32 0 33 0;
#X connect 33 0 23 1;
#X connect 34 0 59 0;
#X connect 35 0 38 1;
#X connect 36 0 54 1;
#X connect 37 0 57 1;
#X connect 38 0 39 0;
#X connect 39 0 49 1;
#X connect 40 0 63 0;
#X connect 41 0 50 0;
#X connect 42 0 74 0;
#X connect 44 0 49 0;
#X connect 45 0 51 0;
#X connect 46 0 52 0;
#X connect 47 0 76 0;
#X connect 47 1 35 0;
#X connect 47 2 40 0;
#X connect 47 3 77 0;
#X connect 47 4 36 0;
#X connect 47 5 73 0;
#X connect 47 6 75 0;
#X connect 47 7 37 0;
#X connect 47 8 41 0;
#X connect 47 9 66 0;
#X connect 48 0 47 0;
#X connect 49 0 43 0;
#X connect 50 0 67 0;
#X connect 51 0 43 0;
#X connect 52 0 43 0;
#X connect 53 0 60 0;
#X connect 54 0 55 0;
#X connect 55 0 51 1;
#X connect 56 0 61 0;
#X connect 57 0 58 0;
#X connect 58 0 52 1;
#X connect 59 0 38 0;
#X connect 60 0 54 0;
#X connect 61 0 57 0;
#X connect 62 0 70 0;
#X connect 63 0 69 0;
#X connect 64 0 19 0;
#X connect 64 0 48 0;
#X connect 65 0 14 1;
#X connect 65 0 15 1;
#X connect 65 0 16 1;
#X connect 66 0 44 1;
#X connect 66 0 45 1;
#X connect 66 0 46 1;
#X connect 67 0 46 0;
#X connect 68 0 16 0;
#X connect 69 0 44 0;
#X connect 70 0 14 0;
#X connect 71 0 12 0;
#X connect 72 0 15 0;
#X connect 73 0 42 0;
#X connect 74 0 45 0;
#X connect 75 0 56 0;
#X connect 76 0 34 0;
#X connect 77 0 53 0;
#X connect 78 0 79 0;
#X connect 78 0 82 0;
#X connect 78 0 89 0;
#X connect 78 0 88 0;
#X connect 79 0 81 0;
#X connect 80 0 83 0;
#X connect 81 0 80 0;
#X connect 82 0 86 0;
#X connect 84 0 85 0;
#X connect 85 0 78 0;
#X connect 86 0 81 0;
#X connect 87 0 90 0;
#X connect 88 0 91 0;
#X connect 89 0 87 0;
#X connect 90 0 83 0;
#X connect 91 0 87 0;
