#N canvas 0 100 1440 800 10;
#X obj 67 45 r muddClubUsersDancing;
#X obj 207 45 r muddClubUsersStopDancing;
#X msg 67 191 /CuveGaloot/ShapeIndex \$1;
#X msg 67 153 4;
#X msg 200 158 3;
#X obj 67 218 s OSC_MESSAGES;
#X obj 67 70 bng 15 250 50 0 empty empty empty 17 7 0 10 -262144 -1
-1;
#X msg 207 68 stop;
#X obj 200 128 delay 200;
#X obj 270 81 r tempoDance;
#X obj 270 111 / 2;
#X obj 67 111 metro 400;
#X msg 67 419 /CuveGaloot/Xpos \$1;
#X obj 67 383 line;
#X obj 67 282 t b b;
#X msg 67 299 0.7;
#X msg 67 333 \$1 2000;
#X obj -12 282 delay 2000;
#X obj 358 134 r jumpHighness;
#X obj 358 380 line;
#X obj 270 172 * 4;
#X obj 513 83 loadbang;
#X msg 513 112 400;
#X obj 513 143 s tempoDance;
#X msg 358 423 /CuveGaloot/Ypos \$1;
#X msg 358 329 -0.9;
#X msg 308 363 200;
#X msg 358 301 0.26;
#X floatatom 543 232 5 0 0 0 - - -;
#X obj 543 321 s jumpHighness;
#X obj 543 260 - 90;
#X obj 543 285 / 100;
#X obj 516 172 t b b;
#X obj 281 247 t b b;
#X msg 270 338 set \$1;
#X msg 358 166 set \$1;
#X obj 460 189 bng 15 250 50 0 empty empty empty 17 7 0 10 -262144
-1 -1;
#X obj 308 276 bng 15 250 50 0 empty empty empty 17 7 0 10 -262144
-1 -1;
#X obj 380 230 delay 1600;
#X obj 516 359 delay 200;
#X msg 690 168 20;
#X msg 725 168 -20;
#X obj 796 118 delay 200;
#X obj 800 84 r tempoDance;
#X obj 906 101 / 2;
#X msg 690 274 /Djbebe/Rotate \$1;
#X obj 690 240 line;
#X msg 906 148 set \$1;
#X msg 823 223 200;
#X obj 796 151 t b b;
#X obj 690 120 t b b;
#X obj 90 133 s dancerMetro;
#X obj 690 81 r dancerMetro;
#X obj 690 312 s OSC_MESSAGES;
#X msg 67 449 /Djbebe/Xpos \$1;
#X msg 144 361 0;
#X obj 160 378 -;
#X obj 175 346 bng 15 250 50 0 empty empty empty 17 7 0 10 -262144
-1 -1;
#X obj 201 432 line;
#X msg 201 395 \$1 700;
#X obj 1228 207 r tempoDance;
#X obj 1006 68 r muddClubUsersDancing;
#X obj 1006 124 t b b;
#X msg 1092 141 /CuveGalootContent2/ParentName /CuveGalootContent;
#X msg 1092 179 /CuveGalootContent2/Child/[X-Y]pos 1;
#X obj 1092 626 s OSC_MESSAGES;
#X msg 1006 296 -1.6;
#X msg 1052 296 5.5;
#X msg 1260 464 /CuveGalootContent/Xpos \$1;
#X obj 1006 433 line;
#X obj 1182 447 line;
#X msg 1006 463 /CuveGalootContent/Ypos \$1;
#X msg 1228 332 set \$1;
#X msg 1228 368 150.376;
#X obj 1136 352 random 100;
#X obj 1136 376 - 50;
#X obj 1182 393 +;
#X obj 1006 401 +;
#X obj 1136 279 delay 200;
#X obj 1228 297 / 2;
#X obj 1136 248 metro 400;
#X obj 1021 369 / 200;
#X floatatom 1267 427 5 0 0 0 - - -;
#X obj 1136 401 / 400;
#X obj 971 435 line;
#X obj 1228 231 / 1.33;
#X msg 971 296 1.8;
#X msg 971 493 /CuveGalootContent/Yscale \$1;
#X msg 971 369 1.7;
#N canvas 0 100 1440 800 QRNarrivee 0;
#X msg 80 153 0;
#X obj 125 102 metro 150;
#X msg 80 183 1;
#X msg 80 217 /DjventiloPales/Flip \$1;
#X obj 125 49 bng 15 250 50 0 empty empty empty 17 7 0 10 -262144 -1
-1;
#X msg 206 47 stop;
#X obj 308 64 t b b;
#X msg 335 113 -10;
#X msg 335 190 /DjventiloPales/Xpos \$1;
#X obj 335 155 line;
#X obj 335 90 delay 1500;
#X msg 80 248 /DunjonDoor1/Flip \$1;
#X msg 335 221 /DunjonDoor1/Xpos \$1;
#X obj 125 17 r QNRarrivee;
#X obj 80 346 s OSC_MESSAGES;
#X obj 167 166 delay 75;
#X msg 283 138 -5 1500;
#X connect 0 0 3 0;
#X connect 0 0 11 0;
#X connect 1 0 0 0;
#X connect 1 0 15 0;
#X connect 2 0 3 0;
#X connect 2 0 11 0;
#X connect 3 0 14 0;
#X connect 4 0 1 0;
#X connect 4 0 6 0;
#X connect 5 0 1 0;
#X connect 6 0 16 0;
#X connect 6 1 7 0;
#X connect 6 1 10 0;
#X connect 7 0 9 0;
#X connect 8 0 14 0;
#X connect 9 0 8 0;
#X connect 9 0 12 0;
#X connect 10 0 5 0;
#X connect 11 0 14 0;
#X connect 12 0 14 0;
#X connect 13 0 4 0;
#X connect 15 0 2 0;
#X connect 16 0 9 0;
#X restore 87 541 pd QRNarrivee;
#X obj 175 316 - 1;
#X obj 112 299 random 4;
#N canvas 0 100 1440 800 QRNdrague 0;
#X obj 194 75 bng 15 250 50 0 empty empty empty 17 7 0 10 -262144 -1
-1;
#X obj 125 17 r QNRdrague;
#X msg 194 122 /DunjonDoor2/Activate 0;
#X obj 194 687 s OSC_MESSAGES;
#X obj 437 129 metro 400;
#X obj 437 202 v /CuveGaloot/Xpos;
#X obj 360 375 line;
#X msg 550 283 set \$1;
#X msg 550 358 400;
#X msg 360 435 /DjventiloPales/Xpos \$1;
#X obj 488 71 r tempoDance;
#X obj 437 288 - 4.2;
#X msg 360 454 /DunjonDoor1*/Xpos \$1;
#X msg 360 474 /DunjonDoor2/Xpos \$1;
#X obj 600 406 / 2;
#X obj 687 423 delay 200;
#X msg 194 142 /DunjonDoor2/Flip 1;
#X msg 650 473 0;
#X msg 687 473 1;
#X msg 650 515 /DjventiloPales/Flip \$1;
#X msg 650 534 /DunjonDoor1/Flip \$1;
#X obj 320 438 line;
#X obj 397 265 v /CuveGaloot/Ypos;
#X msg 650 603 /DunjonDoor1Cadre/Activate \$1;
#X msg 650 623 /DunjonDoor2/Activate \$1;
#X obj 650 556 - 1;
#X obj 650 580 mod 2;
#X obj 194 192 s QNRPaupiereInit;
#X msg 194 228 /DunjonDoor1Cadre/Child/Ypos 1;
#X msg 915 479 50;
#X msg 915 440 set \$1;
#X obj 846 545 line;
#X obj 796 462 t b b;
#X msg 846 670 /DunjonDoor1Cadre/gYpos \$1;
#X obj 974 479 delay 50;
#X obj 974 508 t b b;
#X msg 974 528 0;
#X obj 799 423 / 4;
#X obj 974 566 delay 50;
#X msg 846 479 0.3;
#X msg 320 498 /DjventiloPales/Ypos \$1;
#X msg 320 517 /DunjonDoor1*/Ypos \$1;
#X msg 320 537 /DunjonDoor2/Ypos \$1;
#X obj 320 376 - 0.4;
#X connect 0 0 2 0;
#X connect 0 0 4 0;
#X connect 0 0 16 0;
#X connect 0 0 27 0;
#X connect 0 0 28 0;
#X connect 1 0 0 0;
#X connect 2 0 3 0;
#X connect 4 0 5 0;
#X connect 4 0 8 0;
#X connect 4 0 15 0;
#X connect 4 0 17 0;
#X connect 4 0 32 0;
#X connect 4 0 22 0;
#X connect 5 0 11 0;
#X connect 6 0 9 0;
#X connect 6 0 12 0;
#X connect 6 0 13 0;
#X connect 7 0 8 0;
#X connect 8 0 6 1;
#X connect 8 0 14 0;
#X connect 8 0 21 1;
#X connect 9 0 3 0;
#X connect 10 0 4 1;
#X connect 10 0 7 0;
#X connect 11 0 6 0;
#X connect 12 0 3 0;
#X connect 13 0 3 0;
#X connect 14 0 15 1;
#X connect 14 0 37 0;
#X connect 15 0 18 0;
#X connect 16 0 3 0;
#X connect 17 0 19 0;
#X connect 17 0 20 0;
#X connect 17 0 24 0;
#X connect 17 0 25 0;
#X connect 18 0 19 0;
#X connect 18 0 20 0;
#X connect 18 0 24 0;
#X connect 18 0 25 0;
#X connect 19 0 3 0;
#X connect 20 0 3 0;
#X connect 21 0 40 0;
#X connect 21 0 41 0;
#X connect 21 0 42 0;
#X connect 22 0 43 0;
#X connect 23 0 3 0;
#X connect 24 0 3 0;
#X connect 25 0 26 0;
#X connect 26 0 23 0;
#X connect 28 0 3 0;
#X connect 29 0 31 1;
#X connect 30 0 29 0;
#X connect 31 0 33 0;
#X connect 32 0 39 0;
#X connect 32 0 34 0;
#X connect 32 1 29 0;
#X connect 33 0 3 0;
#X connect 34 0 35 0;
#X connect 35 0 36 0;
#X connect 35 0 38 0;
#X connect 35 1 29 0;
#X connect 36 0 31 0;
#X connect 37 0 30 0;
#X connect 37 0 34 1;
#X connect 37 0 38 1;
#X connect 38 0 32 0;
#X connect 39 0 31 0;
#X connect 40 0 3 0;
#X connect 41 0 3 0;
#X connect 42 0 3 0;
#X connect 43 0 21 0;
#X restore 87 581 pd QRNdrague;
#N canvas 0 100 1440 800 QRNdecouvre 0;
#X msg 125 153 0;
#X msg 125 183 1;
#X obj 125 49 bng 15 250 50 0 empty empty empty 17 7 0 10 -262144 -1
-1;
#X obj 125 346 s OSC_MESSAGES;
#X obj 125 17 r QNRdecouvre;
#X msg 125 217 /DjventiloPales/Flip 0;
#X msg 125 248 /DunjonDoor1/Flip 0;
#X obj 215 121 s QNRGoleInit;
#X obj 215 64 delay 20;
#X connect 0 0 5 0;
#X connect 0 0 6 0;
#X connect 1 0 5 0;
#X connect 1 0 6 0;
#X connect 2 0 0 0;
#X connect 2 0 8 0;
#X connect 4 0 2 0;
#X connect 5 0 3 0;
#X connect 6 0 3 0;
#X connect 8 0 7 0;
#X restore 87 561 pd QRNdecouvre;
#X obj 459 610 line;
#X msg 582 504 -0.5;
#X msg 516 494 0.26;
#X obj 582 439 delay 200;
#X obj 582 473 t b b;
#X msg 459 634 /CochonLights/Ypos \$1;
#X obj 516 380 delay 200;
#X obj 496 552 + 0.4;
#N canvas 675 388 450 300 Chutes 1;
#X obj 116 52 r ChuteTabouret;
#X obj 66 95 bng 15 250 50 0 empty empty empty 17 7 0 10 -262144 -1
-1;
#X msg 66 154 -2.4;
#X obj 91 185 line;
#X obj 234 181 line;
#X msg 267 211 /DunjonDoor2Cadre/Rotate \$1;
#X msg 91 212 /DunjonDoor2Cadre/Ypos \$1;
#X obj 91 261 s OSC_MESSAGES;
#X msg 163 164 0;
#X obj 234 95 bng 15 250 50 0 empty empty empty 17 7 0 10 -262144 -1
-1;
#X msg 284 244 /DunjonDoor2Cadre/Xpos \$1;
#X msg 91 110 -2.9;
#X msg 234 125 90;
#X msg 284 162 -4;
#X msg 284 126 -4.8;
#X obj 116 78 t b b;
#X connect 0 0 15 0;
#X connect 1 0 8 0;
#X connect 1 0 2 0;
#X connect 1 0 13 0;
#X connect 2 0 3 0;
#X connect 3 0 6 0;
#X connect 4 0 5 0;
#X connect 5 0 7 0;
#X connect 6 0 7 0;
#X connect 8 0 4 0;
#X connect 9 0 11 0;
#X connect 9 0 12 0;
#X connect 9 0 14 0;
#X connect 10 0 7 0;
#X connect 11 0 3 0;
#X connect 12 0 4 0;
#X connect 13 0 10 0;
#X connect 14 0 10 0;
#X connect 15 0 9 0;
#X connect 15 1 1 0;
#X restore 104 648 pd Chutes;
#X connect 0 0 6 0;
#X connect 1 0 7 0;
#X connect 2 0 5 0;
#X connect 3 0 2 0;
#X connect 4 0 2 0;
#X connect 6 0 11 0;
#X connect 6 0 14 0;
#X connect 6 0 15 0;
#X connect 6 0 32 0;
#X connect 7 0 11 0;
#X connect 8 0 4 0;
#X connect 9 0 10 0;
#X connect 9 0 11 1;
#X connect 9 0 20 0;
#X connect 10 0 8 1;
#X connect 10 0 34 0;
#X connect 11 0 3 0;
#X connect 11 0 8 0;
#X connect 11 0 51 0;
#X connect 12 0 5 0;
#X connect 13 0 12 0;
#X connect 14 0 17 0;
#X connect 14 0 91 0;
#X connect 15 0 13 0;
#X connect 16 0 13 0;
#X connect 17 0 14 0;
#X connect 18 0 35 0;
#X connect 19 0 24 0;
#X connect 20 0 38 1;
#X connect 21 0 22 0;
#X connect 22 0 23 0;
#X connect 24 0 5 0;
#X connect 25 0 19 0;
#X connect 26 0 19 1;
#X connect 26 0 39 1;
#X connect 26 0 94 1;
#X connect 26 0 100 1;
#X connect 26 0 97 1;
#X connect 27 0 19 0;
#X connect 28 0 30 0;
#X connect 30 0 31 0;
#X connect 31 0 29 0;
#X connect 32 0 25 0;
#X connect 32 0 36 0;
#X connect 32 0 38 0;
#X connect 32 1 28 0;
#X connect 32 1 26 0;
#X connect 33 0 27 0;
#X connect 33 1 26 0;
#X connect 33 1 37 0;
#X connect 33 1 39 0;
#X connect 34 0 26 0;
#X connect 35 0 27 0;
#X connect 35 0 96 0;
#X connect 38 0 33 0;
#X connect 39 0 32 0;
#X connect 39 0 100 0;
#X connect 40 0 46 0;
#X connect 41 0 46 0;
#X connect 42 0 49 0;
#X connect 43 0 44 0;
#X connect 44 0 42 1;
#X connect 44 0 47 0;
#X connect 45 0 53 0;
#X connect 46 0 45 0;
#X connect 47 0 48 0;
#X connect 48 0 46 1;
#X connect 49 0 41 0;
#X connect 49 1 48 0;
#X connect 50 0 40 0;
#X connect 50 1 48 0;
#X connect 52 0 50 0;
#X connect 52 0 42 0;
#X connect 54 0 5 0;
#X connect 55 0 56 0;
#X connect 56 0 59 0;
#X connect 57 0 55 0;
#X connect 58 0 54 0;
#X connect 59 0 58 0;
#X connect 60 0 85 0;
#X connect 61 0 62 0;
#X connect 62 0 66 0;
#X connect 62 0 67 0;
#X connect 62 0 80 0;
#X connect 62 0 86 0;
#X connect 62 1 63 0;
#X connect 62 1 64 0;
#X connect 63 0 65 0;
#X connect 64 0 65 0;
#X connect 66 0 69 0;
#X connect 66 0 77 1;
#X connect 67 0 70 0;
#X connect 67 0 76 1;
#X connect 68 0 65 0;
#X connect 69 0 71 0;
#X connect 70 0 68 0;
#X connect 71 0 65 0;
#X connect 72 0 73 0;
#X connect 73 0 70 1;
#X connect 73 0 69 1;
#X connect 73 0 84 1;
#X connect 74 0 75 0;
#X connect 74 0 81 0;
#X connect 74 0 88 0;
#X connect 75 0 83 0;
#X connect 76 0 70 0;
#X connect 77 0 69 0;
#X connect 78 0 66 0;
#X connect 78 0 67 0;
#X connect 78 0 73 0;
#X connect 78 0 86 0;
#X connect 79 0 78 1;
#X connect 79 0 72 0;
#X connect 80 0 74 0;
#X connect 80 0 73 0;
#X connect 80 0 78 0;
#X connect 81 0 77 0;
#X connect 83 0 76 0;
#X connect 84 0 87 0;
#X connect 85 0 79 0;
#X connect 85 0 80 1;
#X connect 86 0 84 0;
#X connect 87 0 65 0;
#X connect 88 0 84 0;
#X connect 90 0 16 0;
#X connect 90 0 57 0;
#X connect 90 0 56 1;
#X connect 91 0 90 0;
#X connect 94 0 99 0;
#X connect 95 0 94 0;
#X connect 96 0 101 0;
#X connect 97 0 98 0;
#X connect 98 0 95 0;
#X connect 98 1 26 0;
#X connect 99 0 5 0;
#X connect 100 0 97 0;
#X connect 100 0 96 0;
#X connect 101 0 94 0;
