#N canvas 4 100 1414 706 10;
#N canvas 563 100 850 796 MuddClubPlan4Init 0;
#X obj 234 572 send OSC_MESSAGES;
#X obj 114 499 list prepend;
#X obj 71 43 bng 15 250 50 0 empty empty empty 17 7 0 10 -262144 -1
-1;
#X obj 114 522 l2s /;
#X msg 114 132 File;
#X obj 234 539 list;
#X msg 114 109 Zpos;
#X msg 114 326 RenderOrder;
#X msg 114 369 Yscale;
#X msg 114 389 Xscale;
#X msg 114 409 Ypos;
#X msg 114 429 Xpos;
#X msg 114 225 Blue;
#X msg 114 184 Red;
#X msg 114 205 Green;
#X msg 114 305 modeAlpha;
#X msg 114 348 Shape;
#X msg 114 245 Rotate;
#X msg 114 284 Alpha;
#X msg 114 264 Activate;
#X obj 71 62 t b b b;
#X obj 56 115 t b b b;
#X obj 56 309 t b b b;
#X obj 56 352 t b b b;
#X obj 56 372 t b b b;
#X obj 56 392 t b b b;
#X obj 56 412 t b b b;
#X obj 17 331 t b b b;
#X obj 16 288 t b b b;
#X obj 56 267 t b b b;
#X obj 56 247 t b b b;
#X obj 56 228 t b b b;
#X obj 56 208 t b b b;
#X obj 56 188 t b b b;
#X obj 56 167 t b b b;
#X msg 255 245 0;
#X msg 255 284 1;
#X msg 255 225 1;
#X msg 255 184 1;
#X msg 255 205 1;
#X msg 183 79 /Cochon;
#X msg 114 449 ParentName;
#X msg 255 449 /Dummy;
#X msg 114 469 g*pos;
#X msg 255 469 0;
#X obj 56 432 t b b b;
#X obj 56 452 t b b b;
#X msg 255 132 /home/woii/2013_Sebkha-ChottGalootFormula_ThingFish/ThingFishVideoDecorum/MuddClub/data/2013_07_03_Mudd_Club_PLAN4.png
;
#X msg 255 264 1;
#X msg 255 389 8;
#X msg 255 429 0.7;
#X obj 71 22 r MuddClubInit;
#X msg 255 109 -3.04;
#X msg 255 326 -25;
#X msg 255 369 3.2;
#X msg 255 409 -0.5;
#X connect 1 0 3 0;
#X connect 2 0 20 0;
#X connect 3 0 5 0;
#X connect 4 0 1 0;
#X connect 5 0 0 0;
#X connect 6 0 1 0;
#X connect 7 0 1 0;
#X connect 8 0 1 0;
#X connect 9 0 1 0;
#X connect 10 0 1 0;
#X connect 11 0 1 0;
#X connect 12 0 1 0;
#X connect 13 0 1 0;
#X connect 14 0 1 0;
#X connect 15 0 1 0;
#X connect 17 0 1 0;
#X connect 18 0 1 0;
#X connect 19 0 1 0;
#X connect 20 0 6 0;
#X connect 20 0 21 0;
#X connect 20 1 52 0;
#X connect 20 2 40 0;
#X connect 21 0 34 0;
#X connect 21 1 4 0;
#X connect 21 2 47 0;
#X connect 22 0 23 0;
#X connect 22 1 7 0;
#X connect 22 2 53 0;
#X connect 23 0 24 0;
#X connect 23 1 8 0;
#X connect 23 2 54 0;
#X connect 24 0 25 0;
#X connect 24 1 9 0;
#X connect 24 2 49 0;
#X connect 25 0 26 0;
#X connect 25 1 10 0;
#X connect 25 2 55 0;
#X connect 26 0 45 0;
#X connect 26 1 11 0;
#X connect 26 2 50 0;
#X connect 27 1 16 0;
#X connect 28 1 15 0;
#X connect 29 0 22 0;
#X connect 29 1 18 0;
#X connect 29 2 36 0;
#X connect 30 0 29 0;
#X connect 30 1 19 0;
#X connect 30 2 48 0;
#X connect 31 0 30 0;
#X connect 31 1 17 0;
#X connect 31 2 35 0;
#X connect 32 0 31 0;
#X connect 32 1 12 0;
#X connect 32 2 37 0;
#X connect 33 0 32 0;
#X connect 33 1 14 0;
#X connect 33 2 39 0;
#X connect 34 0 33 0;
#X connect 34 1 13 0;
#X connect 34 2 38 0;
#X connect 35 0 5 1;
#X connect 36 0 5 1;
#X connect 37 0 5 1;
#X connect 38 0 5 1;
#X connect 39 0 5 1;
#X connect 40 0 1 1;
#X connect 41 0 1 0;
#X connect 42 0 5 1;
#X connect 43 0 1 0;
#X connect 44 0 5 1;
#X connect 45 0 46 0;
#X connect 45 1 41 0;
#X connect 45 2 42 0;
#X connect 46 1 43 0;
#X connect 46 2 44 0;
#X connect 47 0 5 1;
#X connect 48 0 5 1;
#X connect 49 0 5 1;
#X connect 50 0 5 1;
#X connect 51 0 2 0;
#X connect 52 0 5 1;
#X connect 53 0 5 1;
#X connect 54 0 5 1;
#X connect 55 0 5 1;
#X restore 207 48 pd MuddClubPlan4Init;
#N canvas 559 100 850 796 MuddClubPlan3Init 0;
#X obj 234 572 send OSC_MESSAGES;
#X obj 114 499 list prepend;
#X obj 71 43 bng 15 250 50 0 empty empty empty 17 7 0 10 -262144 -1
-1;
#X obj 114 522 l2s /;
#X msg 114 132 File;
#X obj 234 539 list;
#X msg 114 109 Zpos;
#X msg 114 326 RenderOrder;
#X msg 114 369 Yscale;
#X msg 114 389 Xscale;
#X msg 114 409 Ypos;
#X msg 114 429 Xpos;
#X msg 114 225 Blue;
#X msg 114 184 Red;
#X msg 114 205 Green;
#X msg 114 305 modeAlpha;
#X msg 114 348 Shape;
#X msg 114 245 Rotate;
#X msg 114 284 Alpha;
#X msg 114 264 Activate;
#X obj 71 62 t b b b;
#X obj 56 115 t b b b;
#X obj 56 309 t b b b;
#X obj 56 352 t b b b;
#X obj 56 372 t b b b;
#X obj 56 392 t b b b;
#X obj 56 412 t b b b;
#X obj 17 331 t b b b;
#X obj 16 288 t b b b;
#X obj 56 267 t b b b;
#X obj 56 247 t b b b;
#X obj 56 228 t b b b;
#X obj 56 208 t b b b;
#X obj 56 188 t b b b;
#X obj 56 167 t b b b;
#X msg 255 245 0;
#X msg 255 284 1;
#X msg 255 225 1;
#X msg 255 184 1;
#X msg 255 205 1;
#X msg 114 449 ParentName;
#X msg 255 449 /Dummy;
#X msg 114 469 g*pos;
#X msg 255 469 0;
#X obj 56 432 t b b b;
#X obj 56 452 t b b b;
#X msg 255 264 1;
#X msg 255 389 8;
#X msg 255 429 0.7;
#X obj 71 22 r MuddClubInit;
#X msg 255 132 /home/woii/2013_Sebkha-ChottGalootFormula_ThingFish/ThingFishVideoDecorum/MuddClub/data/2013_07_03_Mudd_Club_PLAN3_bar.png
;
#X msg 183 79 /CochonLights;
#X msg 255 109 -3.03999;
#X msg 255 326 -24;
#X msg 255 369 3.2;
#X msg 255 409 -0.5;
#X connect 1 0 3 0;
#X connect 2 0 20 0;
#X connect 3 0 5 0;
#X connect 4 0 1 0;
#X connect 5 0 0 0;
#X connect 6 0 1 0;
#X connect 7 0 1 0;
#X connect 8 0 1 0;
#X connect 9 0 1 0;
#X connect 10 0 1 0;
#X connect 11 0 1 0;
#X connect 12 0 1 0;
#X connect 13 0 1 0;
#X connect 14 0 1 0;
#X connect 15 0 1 0;
#X connect 17 0 1 0;
#X connect 18 0 1 0;
#X connect 19 0 1 0;
#X connect 20 0 6 0;
#X connect 20 0 21 0;
#X connect 20 1 52 0;
#X connect 20 2 51 0;
#X connect 21 0 34 0;
#X connect 21 1 4 0;
#X connect 21 2 50 0;
#X connect 22 0 23 0;
#X connect 22 1 7 0;
#X connect 22 2 53 0;
#X connect 23 0 24 0;
#X connect 23 1 8 0;
#X connect 23 2 54 0;
#X connect 24 0 25 0;
#X connect 24 1 9 0;
#X connect 24 2 47 0;
#X connect 25 0 26 0;
#X connect 25 1 10 0;
#X connect 25 2 55 0;
#X connect 26 0 44 0;
#X connect 26 1 11 0;
#X connect 26 2 48 0;
#X connect 27 1 16 0;
#X connect 28 1 15 0;
#X connect 29 0 22 0;
#X connect 29 1 18 0;
#X connect 29 2 36 0;
#X connect 30 0 29 0;
#X connect 30 1 19 0;
#X connect 30 2 46 0;
#X connect 31 0 30 0;
#X connect 31 1 17 0;
#X connect 31 2 35 0;
#X connect 32 0 31 0;
#X connect 32 1 12 0;
#X connect 32 2 37 0;
#X connect 33 0 32 0;
#X connect 33 1 14 0;
#X connect 33 2 39 0;
#X connect 34 0 33 0;
#X connect 34 1 13 0;
#X connect 34 2 38 0;
#X connect 35 0 5 1;
#X connect 36 0 5 1;
#X connect 37 0 5 1;
#X connect 38 0 5 1;
#X connect 39 0 5 1;
#X connect 40 0 1 0;
#X connect 41 0 5 1;
#X connect 42 0 1 0;
#X connect 43 0 5 1;
#X connect 44 0 45 0;
#X connect 44 1 40 0;
#X connect 44 2 41 0;
#X connect 45 1 42 0;
#X connect 45 2 43 0;
#X connect 46 0 5 1;
#X connect 47 0 5 1;
#X connect 48 0 5 1;
#X connect 49 0 2 0;
#X connect 50 0 5 1;
#X connect 51 0 1 1;
#X connect 52 0 5 1;
#X connect 53 0 5 1;
#X connect 54 0 5 1;
#X connect 55 0 5 1;
#X restore 207 68 pd MuddClubPlan3Init;
#N canvas 553 100 850 796 MuddClubPlan2Init 0;
#X obj 234 572 send OSC_MESSAGES;
#X obj 114 499 list prepend;
#X obj 71 43 bng 15 250 50 0 empty empty empty 17 7 0 10 -262144 -1
-1;
#X obj 114 522 l2s /;
#X msg 114 132 File;
#X obj 234 539 list;
#X msg 114 109 Zpos;
#X msg 114 326 RenderOrder;
#X msg 114 369 Yscale;
#X msg 114 389 Xscale;
#X msg 114 409 Ypos;
#X msg 114 429 Xpos;
#X msg 114 225 Blue;
#X msg 114 184 Red;
#X msg 114 205 Green;
#X msg 114 305 modeAlpha;
#X msg 114 348 Shape;
#X msg 114 245 Rotate;
#X msg 114 284 Alpha;
#X msg 114 264 Activate;
#X obj 71 62 t b b b;
#X obj 56 115 t b b b;
#X obj 56 309 t b b b;
#X obj 56 352 t b b b;
#X obj 56 372 t b b b;
#X obj 56 392 t b b b;
#X obj 56 412 t b b b;
#X obj 17 331 t b b b;
#X obj 16 288 t b b b;
#X obj 56 267 t b b b;
#X obj 56 247 t b b b;
#X obj 56 228 t b b b;
#X obj 56 208 t b b b;
#X obj 56 188 t b b b;
#X obj 56 167 t b b b;
#X msg 255 245 0;
#X msg 255 284 1;
#X msg 255 225 1;
#X msg 255 184 1;
#X msg 255 205 1;
#X msg 114 449 ParentName;
#X msg 255 449 /Dummy;
#X msg 114 469 g*pos;
#X msg 255 469 0;
#X obj 56 432 t b b b;
#X obj 56 452 t b b b;
#X msg 255 264 1;
#X msg 255 389 8;
#X msg 255 429 0.7;
#X obj 71 22 r MuddClubInit;
#X msg 183 79 /WashMachine;
#X msg 255 132 /home/woii/2013_Sebkha-ChottGalootFormula_ThingFish/ThingFishVideoDecorum/MuddClub/data/2013_07_03_Mudd_Club_PLAN2_neons.png
;
#X msg 255 369 3.2;
#X msg 255 409 -0.5;
#X msg 255 109 -3.03995;
#X msg 255 326 -22;
#X connect 1 0 3 0;
#X connect 2 0 20 0;
#X connect 3 0 5 0;
#X connect 4 0 1 0;
#X connect 5 0 0 0;
#X connect 6 0 1 0;
#X connect 7 0 1 0;
#X connect 8 0 1 0;
#X connect 9 0 1 0;
#X connect 10 0 1 0;
#X connect 11 0 1 0;
#X connect 12 0 1 0;
#X connect 13 0 1 0;
#X connect 14 0 1 0;
#X connect 15 0 1 0;
#X connect 17 0 1 0;
#X connect 18 0 1 0;
#X connect 19 0 1 0;
#X connect 20 0 6 0;
#X connect 20 0 21 0;
#X connect 20 1 54 0;
#X connect 20 2 50 0;
#X connect 21 0 34 0;
#X connect 21 1 4 0;
#X connect 21 2 51 0;
#X connect 22 0 23 0;
#X connect 22 1 7 0;
#X connect 22 2 55 0;
#X connect 23 0 24 0;
#X connect 23 1 8 0;
#X connect 23 2 52 0;
#X connect 24 0 25 0;
#X connect 24 1 9 0;
#X connect 24 2 47 0;
#X connect 25 0 26 0;
#X connect 25 1 10 0;
#X connect 25 2 53 0;
#X connect 26 0 44 0;
#X connect 26 1 11 0;
#X connect 26 2 48 0;
#X connect 27 1 16 0;
#X connect 28 1 15 0;
#X connect 29 0 22 0;
#X connect 29 1 18 0;
#X connect 29 2 36 0;
#X connect 30 0 29 0;
#X connect 30 1 19 0;
#X connect 30 2 46 0;
#X connect 31 0 30 0;
#X connect 31 1 17 0;
#X connect 31 2 35 0;
#X connect 32 0 31 0;
#X connect 32 1 12 0;
#X connect 32 2 37 0;
#X connect 33 0 32 0;
#X connect 33 1 14 0;
#X connect 33 2 39 0;
#X connect 34 0 33 0;
#X connect 34 1 13 0;
#X connect 34 2 38 0;
#X connect 35 0 5 1;
#X connect 36 0 5 1;
#X connect 37 0 5 1;
#X connect 38 0 5 1;
#X connect 39 0 5 1;
#X connect 40 0 1 0;
#X connect 41 0 5 1;
#X connect 42 0 1 0;
#X connect 43 0 5 1;
#X connect 44 0 45 0;
#X connect 44 1 40 0;
#X connect 44 2 41 0;
#X connect 45 1 42 0;
#X connect 45 2 43 0;
#X connect 46 0 5 1;
#X connect 47 0 5 1;
#X connect 48 0 5 1;
#X connect 49 0 2 0;
#X connect 50 0 1 1;
#X connect 51 0 5 1;
#X connect 52 0 5 1;
#X connect 53 0 5 1;
#X connect 54 0 5 1;
#X connect 55 0 5 1;
#X restore 207 88 pd MuddClubPlan2Init;
#X obj 281 445 bng 15 250 50 0 empty empty empty 17 7 0 10 -262144
-1 -1;
#X obj 281 477 s MuddClubInit;
#N canvas 547 100 850 796 MuddClubLustreInit 1;
#X obj 234 572 send OSC_MESSAGES;
#X obj 114 499 list prepend;
#X obj 71 43 bng 15 250 50 0 empty empty empty 17 7 0 10 -262144 -1
-1;
#X obj 114 522 l2s /;
#X msg 114 132 File;
#X obj 234 539 list;
#X msg 114 109 Zpos;
#X msg 114 326 RenderOrder;
#X msg 114 369 Yscale;
#X msg 114 389 Xscale;
#X msg 114 409 Ypos;
#X msg 114 429 Xpos;
#X msg 114 225 Blue;
#X msg 114 184 Red;
#X msg 114 205 Green;
#X msg 114 305 modeAlpha;
#X msg 114 348 Shape;
#X msg 114 245 Rotate;
#X msg 114 284 Alpha;
#X msg 114 264 Activate;
#X obj 71 62 t b b b;
#X obj 56 115 t b b b;
#X obj 56 309 t b b b;
#X obj 56 352 t b b b;
#X obj 56 372 t b b b;
#X obj 56 392 t b b b;
#X obj 56 412 t b b b;
#X obj 17 331 t b b b;
#X obj 16 288 t b b b;
#X obj 56 267 t b b b;
#X obj 56 247 t b b b;
#X obj 56 228 t b b b;
#X obj 56 208 t b b b;
#X obj 56 188 t b b b;
#X obj 56 167 t b b b;
#X msg 255 245 0;
#X msg 255 284 1;
#X msg 255 225 1;
#X msg 255 184 1;
#X msg 255 205 1;
#X msg 114 449 ParentName;
#X msg 255 449 /Dummy;
#X msg 114 469 g*pos;
#X msg 255 469 0;
#X obj 56 432 t b b b;
#X obj 56 452 t b b b;
#X msg 255 264 1;
#X msg 255 429 0.7;
#X obj 71 22 r MuddClubInit;
#X msg 255 132 /home/woii/2013_Sebkha-ChottGalootFormula_ThingFish/ThingFishVideoDecorum/MuddClub/data/2013_07_03_Mudd_Club_Lustre.png
;
#X msg 255 369 1;
#X msg 255 389 1;
#X msg 183 79 /Djbebe;
#X msg 255 109 -3.011;
#X msg 255 326 -19;
#X msg 255 409 1.55;
#X connect 1 0 3 0;
#X connect 2 0 20 0;
#X connect 3 0 5 0;
#X connect 4 0 1 0;
#X connect 5 0 0 0;
#X connect 6 0 1 0;
#X connect 7 0 1 0;
#X connect 8 0 1 0;
#X connect 9 0 1 0;
#X connect 10 0 1 0;
#X connect 11 0 1 0;
#X connect 12 0 1 0;
#X connect 13 0 1 0;
#X connect 14 0 1 0;
#X connect 15 0 1 0;
#X connect 17 0 1 0;
#X connect 18 0 1 0;
#X connect 19 0 1 0;
#X connect 20 0 6 0;
#X connect 20 0 21 0;
#X connect 20 1 53 0;
#X connect 20 2 52 0;
#X connect 21 0 34 0;
#X connect 21 1 4 0;
#X connect 21 2 49 0;
#X connect 22 0 23 0;
#X connect 22 1 7 0;
#X connect 22 2 54 0;
#X connect 23 0 24 0;
#X connect 23 1 8 0;
#X connect 23 2 50 0;
#X connect 24 0 25 0;
#X connect 24 1 9 0;
#X connect 24 2 51 0;
#X connect 25 0 26 0;
#X connect 25 1 10 0;
#X connect 25 2 55 0;
#X connect 26 0 44 0;
#X connect 26 1 11 0;
#X connect 26 2 47 0;
#X connect 27 1 16 0;
#X connect 28 1 15 0;
#X connect 29 0 22 0;
#X connect 29 1 18 0;
#X connect 29 2 36 0;
#X connect 30 0 29 0;
#X connect 30 1 19 0;
#X connect 30 2 46 0;
#X connect 31 0 30 0;
#X connect 31 1 17 0;
#X connect 31 2 35 0;
#X connect 32 0 31 0;
#X connect 32 1 12 0;
#X connect 32 2 37 0;
#X connect 33 0 32 0;
#X connect 33 1 14 0;
#X connect 33 2 39 0;
#X connect 34 0 33 0;
#X connect 34 1 13 0;
#X connect 34 2 38 0;
#X connect 35 0 5 1;
#X connect 36 0 5 1;
#X connect 37 0 5 1;
#X connect 38 0 5 1;
#X connect 39 0 5 1;
#X connect 40 0 1 0;
#X connect 41 0 5 1;
#X connect 42 0 1 0;
#X connect 43 0 5 1;
#X connect 44 0 45 0;
#X connect 44 1 40 0;
#X connect 44 2 41 0;
#X connect 45 1 42 0;
#X connect 45 2 43 0;
#X connect 46 0 5 1;
#X connect 47 0 5 1;
#X connect 48 0 2 0;
#X connect 49 0 5 1;
#X connect 50 0 5 1;
#X connect 51 0 5 1;
#X connect 52 0 1 1;
#X connect 53 0 5 1;
#X connect 54 0 5 1;
#X connect 55 0 5 1;
#X restore 207 108 pd MuddClubLustreInit;
#N canvas 555 100 850 796 MuddClubPosition1-2Init 1;
#X obj 234 612 send OSC_MESSAGES;
#X obj 114 539 list prepend;
#X obj 71 43 bng 15 250 50 0 empty empty empty 17 7 0 10 -262144 -1
-1;
#X obj 114 562 l2s /;
#X msg 114 132 File;
#X obj 234 579 list;
#X msg 114 109 Zpos;
#X msg 114 326 RenderOrder;
#X msg 114 369 Yscale;
#X msg 114 389 Xscale;
#X msg 114 409 Ypos;
#X msg 114 429 Xpos;
#X msg 114 225 Blue;
#X msg 114 184 Red;
#X msg 114 205 Green;
#X msg 114 305 modeAlpha;
#X msg 114 348 Shape;
#X msg 114 245 Rotate;
#X msg 114 284 Alpha;
#X msg 114 264 Activate;
#X obj 71 62 t b b b;
#X obj 56 115 t b b b;
#X obj 56 309 t b b b;
#X obj 56 352 t b b b;
#X obj 56 372 t b b b;
#X obj 56 392 t b b b;
#X obj 56 412 t b b b;
#X obj 17 331 t b b b;
#X obj 16 288 t b b b;
#X obj 56 267 t b b b;
#X obj 56 247 t b b b;
#X obj 56 228 t b b b;
#X obj 56 208 t b b b;
#X obj 56 188 t b b b;
#X obj 56 167 t b b b;
#X msg 255 245 0;
#X msg 255 284 1;
#X msg 255 225 1;
#X msg 255 184 1;
#X msg 255 205 1;
#X msg 114 449 ParentName;
#X msg 255 449 /Dummy;
#X msg 114 469 g*pos;
#X msg 255 469 0;
#X obj 56 432 t b b b;
#X obj 56 452 t b b b;
#X msg 255 264 1;
#X msg 255 429 0.7;
#X obj 71 22 r MuddClubInit;
#X msg 255 326 -23;
#X msg 183 79 /CuveGaloot;
#X msg 255 109 -3.035;
#X msg 255 132 /home/woii/2013_Sebkha-ChottGalootFormula_ThingFish/ThingFishVideoDecorum/MuddClub/data/2013_07_03_Mudd_Club_POSITION1.png
;
#X msg 255 369 2.7;
#X msg 255 389 6.9;
#X msg 255 409 -0.9;
#X msg 114 489 AddFile;
#X msg 255 489 /home/woii/2013_Sebkha-ChottGalootFormula_ThingFish/ThingFishVideoDecorum/MuddClub/data/2013_07_03_Mudd_Club_POSITION2.png
;
#X obj 56 472 t b b b;
#X connect 1 0 3 0;
#X connect 2 0 20 0;
#X connect 3 0 5 0;
#X connect 4 0 1 0;
#X connect 5 0 0 0;
#X connect 6 0 1 0;
#X connect 7 0 1 0;
#X connect 8 0 1 0;
#X connect 9 0 1 0;
#X connect 10 0 1 0;
#X connect 11 0 1 0;
#X connect 12 0 1 0;
#X connect 13 0 1 0;
#X connect 14 0 1 0;
#X connect 15 0 1 0;
#X connect 17 0 1 0;
#X connect 18 0 1 0;
#X connect 19 0 1 0;
#X connect 20 0 6 0;
#X connect 20 0 21 0;
#X connect 20 1 51 0;
#X connect 20 2 50 0;
#X connect 21 0 34 0;
#X connect 21 1 4 0;
#X connect 21 2 52 0;
#X connect 22 0 23 0;
#X connect 22 1 7 0;
#X connect 22 2 49 0;
#X connect 23 0 24 0;
#X connect 23 1 8 0;
#X connect 23 2 53 0;
#X connect 24 0 25 0;
#X connect 24 1 9 0;
#X connect 24 2 54 0;
#X connect 25 0 26 0;
#X connect 25 1 10 0;
#X connect 25 2 55 0;
#X connect 26 0 44 0;
#X connect 26 1 11 0;
#X connect 26 2 47 0;
#X connect 27 1 16 0;
#X connect 28 1 15 0;
#X connect 29 0 22 0;
#X connect 29 1 18 0;
#X connect 29 2 36 0;
#X connect 30 0 29 0;
#X connect 30 1 19 0;
#X connect 30 2 46 0;
#X connect 31 0 30 0;
#X connect 31 1 17 0;
#X connect 31 2 35 0;
#X connect 32 0 31 0;
#X connect 32 1 12 0;
#X connect 32 2 37 0;
#X connect 33 0 32 0;
#X connect 33 1 14 0;
#X connect 33 2 39 0;
#X connect 34 0 33 0;
#X connect 34 1 13 0;
#X connect 34 2 38 0;
#X connect 35 0 5 1;
#X connect 36 0 5 1;
#X connect 37 0 5 1;
#X connect 38 0 5 1;
#X connect 39 0 5 1;
#X connect 40 0 1 0;
#X connect 41 0 5 1;
#X connect 42 0 1 0;
#X connect 43 0 5 1;
#X connect 44 0 45 0;
#X connect 44 1 40 0;
#X connect 44 2 41 0;
#X connect 45 0 58 0;
#X connect 45 1 42 0;
#X connect 45 2 43 0;
#X connect 46 0 5 1;
#X connect 47 0 5 1;
#X connect 48 0 2 0;
#X connect 49 0 5 1;
#X connect 50 0 1 1;
#X connect 51 0 5 1;
#X connect 52 0 5 1;
#X connect 53 0 5 1;
#X connect 54 0 5 1;
#X connect 55 0 5 1;
#X connect 56 0 1 0;
#X connect 57 0 5 1;
#X connect 58 1 56 0;
#X connect 58 2 57 0;
#X restore 207 128 pd MuddClubPosition1-2Init;
#X msg 654 379 /CuveGaloot/ShapeIndex \$1;
#X msg 804 342 4;
#X msg 853 341 3;
#X obj 647 446 s OSC_MESSAGES;
#X obj 771 173 bng 15 250 50 0 empty empty empty 17 7 0 10 -262144
-1 -1;
#X msg 847 205 stop;
#X obj 794 265 metro 400;
#X obj 848 297 delay 200;
#N canvas 547 100 850 796 MuddClubPunkCorpsInit 0;
#X obj 234 572 send OSC_MESSAGES;
#X obj 114 499 list prepend;
#X obj 71 43 bng 15 250 50 0 empty empty empty 17 7 0 10 -262144 -1
-1;
#X obj 114 522 l2s /;
#X msg 114 132 File;
#X obj 234 539 list;
#X msg 114 109 Zpos;
#X msg 114 326 RenderOrder;
#X msg 114 369 Yscale;
#X msg 114 389 Xscale;
#X msg 114 409 Ypos;
#X msg 114 429 Xpos;
#X msg 114 225 Blue;
#X msg 114 184 Red;
#X msg 114 205 Green;
#X msg 114 305 modeAlpha;
#X msg 114 348 Shape;
#X msg 114 245 Rotate;
#X msg 114 284 Alpha;
#X msg 114 264 Activate;
#X obj 71 62 t b b b;
#X obj 56 115 t b b b;
#X obj 56 309 t b b b;
#X obj 56 352 t b b b;
#X obj 56 372 t b b b;
#X obj 56 392 t b b b;
#X obj 56 412 t b b b;
#X obj 17 331 t b b b;
#X obj 16 288 t b b b;
#X obj 56 267 t b b b;
#X obj 56 247 t b b b;
#X obj 56 228 t b b b;
#X obj 56 208 t b b b;
#X obj 56 188 t b b b;
#X obj 56 167 t b b b;
#X msg 255 245 0;
#X msg 255 284 1;
#X msg 255 225 1;
#X msg 255 184 1;
#X msg 255 205 1;
#X msg 114 449 ParentName;
#X msg 255 449 /Dummy;
#X msg 114 469 g*pos;
#X msg 255 469 0;
#X obj 56 432 t b b b;
#X obj 56 452 t b b b;
#X msg 255 264 1;
#X obj 71 22 r MuddClubInit;
#X msg 255 109 -3.03;
#X msg 255 132 /home/woii/2013_Sebkha-ChottGalootFormula_ThingFish/ThingFishVideoDecorum/MuddClub/data/2013_07_03_Mudd_Club_Punk_Corps.png
;
#X msg 183 79 /CuveGalootContent;
#X msg 255 369 1.7;
#X msg 255 389 0.7;
#X msg 255 429 5.5;
#X msg 255 409 -1.6;
#X msg 255 326 -20;
#X connect 1 0 3 0;
#X connect 2 0 20 0;
#X connect 3 0 5 0;
#X connect 4 0 1 0;
#X connect 5 0 0 0;
#X connect 6 0 1 0;
#X connect 7 0 1 0;
#X connect 8 0 1 0;
#X connect 9 0 1 0;
#X connect 10 0 1 0;
#X connect 11 0 1 0;
#X connect 12 0 1 0;
#X connect 13 0 1 0;
#X connect 14 0 1 0;
#X connect 15 0 1 0;
#X connect 17 0 1 0;
#X connect 18 0 1 0;
#X connect 19 0 1 0;
#X connect 20 0 6 0;
#X connect 20 0 21 0;
#X connect 20 1 48 0;
#X connect 20 2 50 0;
#X connect 21 0 34 0;
#X connect 21 1 4 0;
#X connect 21 2 49 0;
#X connect 22 0 23 0;
#X connect 22 1 7 0;
#X connect 22 2 55 0;
#X connect 23 0 24 0;
#X connect 23 1 8 0;
#X connect 23 2 51 0;
#X connect 24 0 25 0;
#X connect 24 1 9 0;
#X connect 24 2 52 0;
#X connect 25 0 26 0;
#X connect 25 1 10 0;
#X connect 25 2 54 0;
#X connect 26 0 44 0;
#X connect 26 1 11 0;
#X connect 26 2 53 0;
#X connect 27 1 16 0;
#X connect 28 1 15 0;
#X connect 29 0 22 0;
#X connect 29 1 18 0;
#X connect 29 2 36 0;
#X connect 30 0 29 0;
#X connect 30 1 19 0;
#X connect 30 2 46 0;
#X connect 31 0 30 0;
#X connect 31 1 17 0;
#X connect 31 2 35 0;
#X connect 32 0 31 0;
#X connect 32 1 12 0;
#X connect 32 2 37 0;
#X connect 33 0 32 0;
#X connect 33 1 14 0;
#X connect 33 2 39 0;
#X connect 34 0 33 0;
#X connect 34 1 13 0;
#X connect 34 2 38 0;
#X connect 35 0 5 1;
#X connect 36 0 5 1;
#X connect 37 0 5 1;
#X connect 38 0 5 1;
#X connect 39 0 5 1;
#X connect 40 0 1 0;
#X connect 41 0 5 1;
#X connect 42 0 1 0;
#X connect 43 0 5 1;
#X connect 44 0 45 0;
#X connect 44 1 40 0;
#X connect 44 2 41 0;
#X connect 45 1 42 0;
#X connect 45 2 43 0;
#X connect 46 0 5 1;
#X connect 47 0 2 0;
#X connect 48 0 5 1;
#X connect 49 0 5 1;
#X connect 50 0 1 1;
#X connect 51 0 5 1;
#X connect 52 0 5 1;
#X connect 53 0 5 1;
#X connect 54 0 5 1;
#X connect 55 0 5 1;
#X restore 207 148 pd MuddClubPunkCorpsInit;
#N canvas 547 100 850 796 MuddClubPunkCreteInit 0;
#X obj 234 572 send OSC_MESSAGES;
#X obj 114 499 list prepend;
#X obj 71 43 bng 15 250 50 0 empty empty empty 17 7 0 10 -262144 -1
-1;
#X obj 114 522 l2s /;
#X msg 114 132 File;
#X obj 234 539 list;
#X msg 114 109 Zpos;
#X msg 114 326 RenderOrder;
#X msg 114 369 Yscale;
#X msg 114 389 Xscale;
#X msg 114 409 Ypos;
#X msg 114 429 Xpos;
#X msg 114 225 Blue;
#X msg 114 184 Red;
#X msg 114 205 Green;
#X msg 114 305 modeAlpha;
#X msg 114 348 Shape;
#X msg 114 245 Rotate;
#X msg 114 284 Alpha;
#X msg 114 264 Activate;
#X obj 71 62 t b b b;
#X obj 56 115 t b b b;
#X obj 56 309 t b b b;
#X obj 56 352 t b b b;
#X obj 56 372 t b b b;
#X obj 56 392 t b b b;
#X obj 56 412 t b b b;
#X obj 17 331 t b b b;
#X obj 16 288 t b b b;
#X obj 56 267 t b b b;
#X obj 56 247 t b b b;
#X obj 56 228 t b b b;
#X obj 56 208 t b b b;
#X obj 56 188 t b b b;
#X obj 56 167 t b b b;
#X msg 255 245 0;
#X msg 255 284 1;
#X msg 255 225 1;
#X msg 255 184 1;
#X msg 255 205 1;
#X msg 114 449 ParentName;
#X msg 255 449 /Dummy;
#X msg 114 469 g*pos;
#X msg 255 469 0;
#X obj 56 432 t b b b;
#X obj 56 452 t b b b;
#X msg 255 264 1;
#X obj 71 22 r MuddClubInit;
#X msg 255 326 -19;
#X msg 183 79 /CuveGalootContent2;
#X msg 255 109 -3.029;
#X msg 255 132 /home/woii/2013_Sebkha-ChottGalootFormula_ThingFish/ThingFishVideoDecorum/MuddClub/data/2013_07_03_Mudd_Club_Punk_Crete.png
;
#X msg 255 389 0.6;
#X msg 255 369 0.5;
#X msg 255 429 5.1;
#X msg 255 409 -0.35;
#X connect 1 0 3 0;
#X connect 2 0 20 0;
#X connect 3 0 5 0;
#X connect 4 0 1 0;
#X connect 5 0 0 0;
#X connect 6 0 1 0;
#X connect 7 0 1 0;
#X connect 8 0 1 0;
#X connect 9 0 1 0;
#X connect 10 0 1 0;
#X connect 11 0 1 0;
#X connect 12 0 1 0;
#X connect 13 0 1 0;
#X connect 14 0 1 0;
#X connect 15 0 1 0;
#X connect 17 0 1 0;
#X connect 18 0 1 0;
#X connect 19 0 1 0;
#X connect 20 0 6 0;
#X connect 20 0 21 0;
#X connect 20 1 50 0;
#X connect 20 2 49 0;
#X connect 21 0 34 0;
#X connect 21 1 4 0;
#X connect 21 2 51 0;
#X connect 22 0 23 0;
#X connect 22 1 7 0;
#X connect 22 2 48 0;
#X connect 23 0 24 0;
#X connect 23 1 8 0;
#X connect 23 2 53 0;
#X connect 24 0 25 0;
#X connect 24 1 9 0;
#X connect 24 2 52 0;
#X connect 25 0 26 0;
#X connect 25 1 10 0;
#X connect 25 2 55 0;
#X connect 26 0 44 0;
#X connect 26 1 11 0;
#X connect 26 2 54 0;
#X connect 27 1 16 0;
#X connect 28 1 15 0;
#X connect 29 0 22 0;
#X connect 29 1 18 0;
#X connect 29 2 36 0;
#X connect 30 0 29 0;
#X connect 30 1 19 0;
#X connect 30 2 46 0;
#X connect 31 0 30 0;
#X connect 31 1 17 0;
#X connect 31 2 35 0;
#X connect 32 0 31 0;
#X connect 32 1 12 0;
#X connect 32 2 37 0;
#X connect 33 0 32 0;
#X connect 33 1 14 0;
#X connect 33 2 39 0;
#X connect 34 0 33 0;
#X connect 34 1 13 0;
#X connect 34 2 38 0;
#X connect 35 0 5 1;
#X connect 36 0 5 1;
#X connect 37 0 5 1;
#X connect 38 0 5 1;
#X connect 39 0 5 1;
#X connect 40 0 1 0;
#X connect 41 0 5 1;
#X connect 42 0 1 0;
#X connect 43 0 5 1;
#X connect 44 0 45 0;
#X connect 44 1 40 0;
#X connect 44 2 41 0;
#X connect 45 1 42 0;
#X connect 45 2 43 0;
#X connect 46 0 5 1;
#X connect 47 0 2 0;
#X connect 48 0 5 1;
#X connect 49 0 1 1;
#X connect 50 0 5 1;
#X connect 51 0 5 1;
#X connect 52 0 5 1;
#X connect 53 0 5 1;
#X connect 54 0 5 1;
#X connect 55 0 5 1;
#X restore 207 168 pd MuddClubPunkCreteInit;
#N canvas 539 100 850 796 MuddClubQNRCorpsInit 0;
#X obj 234 572 send OSC_MESSAGES;
#X obj 114 499 list prepend;
#X obj 71 43 bng 15 250 50 0 empty empty empty 17 7 0 10 -262144 -1
-1;
#X obj 114 522 l2s /;
#X msg 114 132 File;
#X obj 234 539 list;
#X msg 114 109 Zpos;
#X msg 114 326 RenderOrder;
#X msg 114 369 Yscale;
#X msg 114 389 Xscale;
#X msg 114 409 Ypos;
#X msg 114 429 Xpos;
#X msg 114 225 Blue;
#X msg 114 184 Red;
#X msg 114 205 Green;
#X msg 114 305 modeAlpha;
#X msg 114 348 Shape;
#X msg 114 245 Rotate;
#X msg 114 284 Alpha;
#X msg 114 264 Activate;
#X obj 71 62 t b b b;
#X obj 56 115 t b b b;
#X obj 56 309 t b b b;
#X obj 56 352 t b b b;
#X obj 56 372 t b b b;
#X obj 56 392 t b b b;
#X obj 56 412 t b b b;
#X obj 17 331 t b b b;
#X obj 16 288 t b b b;
#X obj 56 267 t b b b;
#X obj 56 247 t b b b;
#X obj 56 228 t b b b;
#X obj 56 208 t b b b;
#X obj 56 188 t b b b;
#X obj 56 167 t b b b;
#X msg 255 245 0;
#X msg 255 284 1;
#X msg 255 225 1;
#X msg 255 184 1;
#X msg 255 205 1;
#X msg 114 449 ParentName;
#X msg 255 449 /Dummy;
#X msg 114 469 g*pos;
#X msg 255 469 0;
#X obj 56 432 t b b b;
#X obj 56 452 t b b b;
#X msg 255 264 1;
#X obj 71 22 r MuddClubInit;
#X msg 255 326 -19;
#X msg 255 109 -3.029;
#X msg 183 79 /DjventiloPales;
#X msg 255 132 /home/woii/2013_Sebkha-ChottGalootFormula_ThingFish/ThingFishVideoDecorum/MuddClub/data/2013_07_03_Mudd_Club_QRdN_Corps.png
;
#X msg 255 389 0.8;
#X msg 255 369 2.1;
#X msg 255 409 -1.2;
#X msg 255 429 -10;
#X connect 1 0 3 0;
#X connect 2 0 20 0;
#X connect 3 0 5 0;
#X connect 4 0 1 0;
#X connect 5 0 0 0;
#X connect 6 0 1 0;
#X connect 7 0 1 0;
#X connect 8 0 1 0;
#X connect 9 0 1 0;
#X connect 10 0 1 0;
#X connect 11 0 1 0;
#X connect 12 0 1 0;
#X connect 13 0 1 0;
#X connect 14 0 1 0;
#X connect 15 0 1 0;
#X connect 17 0 1 0;
#X connect 18 0 1 0;
#X connect 19 0 1 0;
#X connect 20 0 6 0;
#X connect 20 0 21 0;
#X connect 20 1 49 0;
#X connect 20 2 50 0;
#X connect 21 0 34 0;
#X connect 21 1 4 0;
#X connect 21 2 51 0;
#X connect 22 0 23 0;
#X connect 22 1 7 0;
#X connect 22 2 48 0;
#X connect 23 0 24 0;
#X connect 23 1 8 0;
#X connect 23 2 53 0;
#X connect 24 0 25 0;
#X connect 24 1 9 0;
#X connect 24 2 52 0;
#X connect 25 0 26 0;
#X connect 25 1 10 0;
#X connect 25 2 54 0;
#X connect 26 0 44 0;
#X connect 26 1 11 0;
#X connect 26 2 55 0;
#X connect 27 1 16 0;
#X connect 28 1 15 0;
#X connect 29 0 22 0;
#X connect 29 1 18 0;
#X connect 29 2 36 0;
#X connect 30 0 29 0;
#X connect 30 1 19 0;
#X connect 30 2 46 0;
#X connect 31 0 30 0;
#X connect 31 1 17 0;
#X connect 31 2 35 0;
#X connect 32 0 31 0;
#X connect 32 1 12 0;
#X connect 32 2 37 0;
#X connect 33 0 32 0;
#X connect 33 1 14 0;
#X connect 33 2 39 0;
#X connect 34 0 33 0;
#X connect 34 1 13 0;
#X connect 34 2 38 0;
#X connect 35 0 5 1;
#X connect 36 0 5 1;
#X connect 37 0 5 1;
#X connect 38 0 5 1;
#X connect 39 0 5 1;
#X connect 40 0 1 0;
#X connect 41 0 5 1;
#X connect 42 0 1 0;
#X connect 43 0 5 1;
#X connect 44 0 45 0;
#X connect 44 1 40 0;
#X connect 44 2 41 0;
#X connect 45 1 42 0;
#X connect 45 2 43 0;
#X connect 46 0 5 1;
#X connect 47 0 2 0;
#X connect 48 0 5 1;
#X connect 49 0 5 1;
#X connect 50 0 1 1;
#X connect 51 0 5 1;
#X connect 52 0 5 1;
#X connect 53 0 5 1;
#X connect 54 0 5 1;
#X connect 55 0 5 1;
#X restore 207 188 pd MuddClubQNRCorpsInit;
#X msg 939 431 0;
#X obj 984 380 metro 150;
#X floatatom 1061 351 5 0 0 0 - - -;
#X obj 1053 408 / 2;
#X obj 1061 444 delay;
#X msg 993 461 1;
#X msg 939 495 /DjventiloPales/Flip \$1;
#X obj 984 327 bng 15 250 50 0 empty empty empty 17 7 0 10 -262144
-1 -1;
#X msg 1043 320 stop;
#X obj 1167 342 t b b;
#X msg 1197 391 -10;
#X msg 1121 416 -4 1500;
#X msg 1169 500 /DjventiloPales/Xpos \$1;
#X obj 1169 465 line;
#X obj 1255 408 delay 1500;
#N canvas 539 100 850 796 MuddClubQNRTeteInit 0;
#X obj 234 572 send OSC_MESSAGES;
#X obj 114 499 list prepend;
#X obj 71 43 bng 15 250 50 0 empty empty empty 17 7 0 10 -262144 -1
-1;
#X obj 114 522 l2s /;
#X msg 114 132 File;
#X obj 234 539 list;
#X msg 114 109 Zpos;
#X msg 114 326 RenderOrder;
#X msg 114 369 Yscale;
#X msg 114 389 Xscale;
#X msg 114 409 Ypos;
#X msg 114 429 Xpos;
#X msg 114 225 Blue;
#X msg 114 184 Red;
#X msg 114 205 Green;
#X msg 114 305 modeAlpha;
#X msg 114 348 Shape;
#X msg 114 245 Rotate;
#X msg 114 284 Alpha;
#X msg 114 264 Activate;
#X obj 71 62 t b b b;
#X obj 56 115 t b b b;
#X obj 56 309 t b b b;
#X obj 56 352 t b b b;
#X obj 56 372 t b b b;
#X obj 56 392 t b b b;
#X obj 56 412 t b b b;
#X obj 17 331 t b b b;
#X obj 16 288 t b b b;
#X obj 56 267 t b b b;
#X obj 56 247 t b b b;
#X obj 56 228 t b b b;
#X obj 56 208 t b b b;
#X obj 56 188 t b b b;
#X obj 56 167 t b b b;
#X msg 255 245 0;
#X msg 255 284 1;
#X msg 255 225 1;
#X msg 255 184 1;
#X msg 255 205 1;
#X msg 114 449 ParentName;
#X msg 255 449 /Dummy;
#X msg 114 469 g*pos;
#X msg 255 469 0;
#X obj 56 432 t b b b;
#X obj 56 452 t b b b;
#X msg 255 264 1;
#X obj 71 22 r MuddClubInit;
#X msg 255 389 0.8;
#X msg 255 369 2.1;
#X msg 255 409 -1.2;
#X msg 255 109 -3.028;
#X msg 183 79 /DunjonDoor1;
#X msg 255 132 /home/woii/2013_Sebkha-ChottGalootFormula_ThingFish/ThingFishVideoDecorum/MuddClub/data/2013_07_03_Mudd_Club_QRdN_Banane.png
;
#X msg 255 326 -18;
#X msg 255 429 -10;
#X connect 1 0 3 0;
#X connect 2 0 20 0;
#X connect 3 0 5 0;
#X connect 4 0 1 0;
#X connect 5 0 0 0;
#X connect 6 0 1 0;
#X connect 7 0 1 0;
#X connect 8 0 1 0;
#X connect 9 0 1 0;
#X connect 10 0 1 0;
#X connect 11 0 1 0;
#X connect 12 0 1 0;
#X connect 13 0 1 0;
#X connect 14 0 1 0;
#X connect 15 0 1 0;
#X connect 17 0 1 0;
#X connect 18 0 1 0;
#X connect 19 0 1 0;
#X connect 20 0 6 0;
#X connect 20 0 21 0;
#X connect 20 1 51 0;
#X connect 20 2 52 0;
#X connect 21 0 34 0;
#X connect 21 1 4 0;
#X connect 21 2 53 0;
#X connect 22 0 23 0;
#X connect 22 1 7 0;
#X connect 22 2 54 0;
#X connect 23 0 24 0;
#X connect 23 1 8 0;
#X connect 23 2 49 0;
#X connect 24 0 25 0;
#X connect 24 1 9 0;
#X connect 24 2 48 0;
#X connect 25 0 26 0;
#X connect 25 1 10 0;
#X connect 25 2 50 0;
#X connect 26 0 44 0;
#X connect 26 1 11 0;
#X connect 26 2 55 0;
#X connect 27 1 16 0;
#X connect 28 1 15 0;
#X connect 29 0 22 0;
#X connect 29 1 18 0;
#X connect 29 2 36 0;
#X connect 30 0 29 0;
#X connect 30 1 19 0;
#X connect 30 2 46 0;
#X connect 31 0 30 0;
#X connect 31 1 17 0;
#X connect 31 2 35 0;
#X connect 32 0 31 0;
#X connect 32 1 12 0;
#X connect 32 2 37 0;
#X connect 33 0 32 0;
#X connect 33 1 14 0;
#X connect 33 2 39 0;
#X connect 34 0 33 0;
#X connect 34 1 13 0;
#X connect 34 2 38 0;
#X connect 35 0 5 1;
#X connect 36 0 5 1;
#X connect 37 0 5 1;
#X connect 38 0 5 1;
#X connect 39 0 5 1;
#X connect 40 0 1 0;
#X connect 41 0 5 1;
#X connect 42 0 1 0;
#X connect 43 0 5 1;
#X connect 44 0 45 0;
#X connect 44 1 40 0;
#X connect 44 2 41 0;
#X connect 45 1 42 0;
#X connect 45 2 43 0;
#X connect 46 0 5 1;
#X connect 47 0 2 0;
#X connect 48 0 5 1;
#X connect 49 0 5 1;
#X connect 50 0 5 1;
#X connect 51 0 5 1;
#X connect 52 0 1 1;
#X connect 53 0 5 1;
#X connect 54 0 5 1;
#X connect 55 0 5 1;
#X restore 207 208 pd MuddClubQNRTeteInit;
#X msg 939 526 /DunjonDoor1/Flip \$1;
#X msg 1169 531 /DunjonDoor1/Xpos \$1;
#N canvas 533 100 850 796 MuddClubTabouretInit 0;
#X obj 234 572 send OSC_MESSAGES;
#X obj 114 499 list prepend;
#X obj 71 43 bng 15 250 50 0 empty empty empty 17 7 0 10 -262144 -1
-1;
#X obj 114 522 l2s /;
#X msg 114 132 File;
#X obj 234 539 list;
#X msg 114 109 Zpos;
#X msg 114 326 RenderOrder;
#X msg 114 369 Yscale;
#X msg 114 389 Xscale;
#X msg 114 409 Ypos;
#X msg 114 429 Xpos;
#X msg 114 225 Blue;
#X msg 114 184 Red;
#X msg 114 205 Green;
#X msg 114 305 modeAlpha;
#X msg 114 348 Shape;
#X msg 114 245 Rotate;
#X msg 114 284 Alpha;
#X msg 114 264 Activate;
#X obj 71 62 t b b b;
#X obj 56 115 t b b b;
#X obj 56 309 t b b b;
#X obj 56 352 t b b b;
#X obj 56 372 t b b b;
#X obj 56 392 t b b b;
#X obj 56 412 t b b b;
#X obj 17 331 t b b b;
#X obj 16 288 t b b b;
#X obj 56 267 t b b b;
#X obj 56 247 t b b b;
#X obj 56 228 t b b b;
#X obj 56 208 t b b b;
#X obj 56 188 t b b b;
#X obj 56 167 t b b b;
#X msg 255 245 0;
#X msg 255 284 1;
#X msg 255 225 1;
#X msg 255 184 1;
#X msg 255 205 1;
#X msg 114 449 ParentName;
#X msg 255 449 /Dummy;
#X msg 114 469 g*pos;
#X msg 255 469 0;
#X obj 56 432 t b b b;
#X obj 56 452 t b b b;
#X msg 255 264 1;
#X obj 71 22 r MuddClubInit;
#X msg 183 79 /DunjonDoor2Cadre;
#X msg 255 132 /home/woii/2013_Sebkha-ChottGalootFormula_ThingFish/ThingFishVideoDecorum/MuddClub/data/2013_07_03_Mudd_Club_Tabouret_devant.png
;
#X msg 255 369 0.8;
#X msg 255 389 0.4;
#X msg 255 429 -4;
#X msg 255 409 -2.4;
#X msg 255 109 -3.036;
#X msg 255 326 -21;
#X connect 1 0 3 0;
#X connect 2 0 20 0;
#X connect 3 0 5 0;
#X connect 4 0 1 0;
#X connect 5 0 0 0;
#X connect 6 0 1 0;
#X connect 7 0 1 0;
#X connect 8 0 1 0;
#X connect 9 0 1 0;
#X connect 10 0 1 0;
#X connect 11 0 1 0;
#X connect 12 0 1 0;
#X connect 13 0 1 0;
#X connect 14 0 1 0;
#X connect 15 0 1 0;
#X connect 17 0 1 0;
#X connect 18 0 1 0;
#X connect 19 0 1 0;
#X connect 20 0 6 0;
#X connect 20 0 21 0;
#X connect 20 1 54 0;
#X connect 20 2 48 0;
#X connect 21 0 34 0;
#X connect 21 1 4 0;
#X connect 21 2 49 0;
#X connect 22 0 23 0;
#X connect 22 1 7 0;
#X connect 22 2 55 0;
#X connect 23 0 24 0;
#X connect 23 1 8 0;
#X connect 23 2 50 0;
#X connect 24 0 25 0;
#X connect 24 1 9 0;
#X connect 24 2 51 0;
#X connect 25 0 26 0;
#X connect 25 1 10 0;
#X connect 25 2 53 0;
#X connect 26 0 44 0;
#X connect 26 1 11 0;
#X connect 26 2 52 0;
#X connect 27 1 16 0;
#X connect 28 1 15 0;
#X connect 29 0 22 0;
#X connect 29 1 18 0;
#X connect 29 2 36 0;
#X connect 30 0 29 0;
#X connect 30 1 19 0;
#X connect 30 2 46 0;
#X connect 31 0 30 0;
#X connect 31 1 17 0;
#X connect 31 2 35 0;
#X connect 32 0 31 0;
#X connect 32 1 12 0;
#X connect 32 2 37 0;
#X connect 33 0 32 0;
#X connect 33 1 14 0;
#X connect 33 2 39 0;
#X connect 34 0 33 0;
#X connect 34 1 13 0;
#X connect 34 2 38 0;
#X connect 35 0 5 1;
#X connect 36 0 5 1;
#X connect 37 0 5 1;
#X connect 38 0 5 1;
#X connect 39 0 5 1;
#X connect 40 0 1 0;
#X connect 41 0 5 1;
#X connect 42 0 1 0;
#X connect 43 0 5 1;
#X connect 44 0 45 0;
#X connect 44 1 40 0;
#X connect 44 2 41 0;
#X connect 45 1 42 0;
#X connect 45 2 43 0;
#X connect 46 0 5 1;
#X connect 47 0 2 0;
#X connect 48 0 1 1;
#X connect 49 0 5 1;
#X connect 50 0 5 1;
#X connect 51 0 5 1;
#X connect 52 0 5 1;
#X connect 53 0 5 1;
#X connect 54 0 5 1;
#X connect 55 0 5 1;
#X restore 207 228 pd MuddClubTabouretInit;
#X obj 471 50 muddClubMoves;
#X connect 3 0 4 0;
#X connect 7 0 10 0;
#X connect 8 0 7 0;
#X connect 9 0 7 0;
#X connect 11 0 13 0;
#X connect 12 0 13 0;
#X connect 13 0 8 0;
#X connect 13 0 14 0;
#X connect 14 0 9 0;
#X connect 18 0 24 0;
#X connect 18 0 34 0;
#X connect 19 0 18 0;
#X connect 19 0 22 0;
#X connect 20 0 19 1;
#X connect 20 0 21 0;
#X connect 21 0 22 1;
#X connect 22 0 23 0;
#X connect 23 0 24 0;
#X connect 23 0 34 0;
#X connect 24 0 10 0;
#X connect 25 0 19 0;
#X connect 25 0 27 0;
#X connect 26 0 19 0;
#X connect 27 0 29 0;
#X connect 27 1 28 0;
#X connect 27 1 32 0;
#X connect 28 0 31 0;
#X connect 29 0 31 0;
#X connect 30 0 10 0;
#X connect 31 0 30 0;
#X connect 31 0 35 0;
#X connect 32 0 26 0;
#X connect 34 0 10 0;
#X connect 35 0 10 0;
