#N canvas 0 100 1440 800 10;
#X obj 67 45 r muddClubUsersDancing;
#X obj 207 45 r muddClubUsersStopDancing;
#X msg 67 191 /CuveGaloot/ShapeIndex \$1;
#X msg 67 153 4;
#X msg 200 158 3;
#X obj 67 218 s OSC_MESSAGES;
#X obj 67 70 bng 15 250 50 0 empty empty empty 17 7 0 10 -262144 -1
-1;
#X msg 207 68 stop;
#X obj 200 128 delay 200;
#X obj 270 81 r tempoDance;
#X obj 270 111 / 2;
#X obj 67 111 metro 400;
#X msg 67 419 /CuveGaloot/Xpos \$1;
#X obj 67 383 line;
#X obj 67 282 t b b;
#X msg 67 299 0.7;
#X msg 67 333 \$1 2000;
#X obj -12 282 delay 2000;
#X obj 358 94 r jumpHighness;
#X obj 358 380 line;
#X obj 270 172 * 4;
#X obj 513 83 loadbang;
#X msg 513 112 400;
#X obj 513 143 s tempoDance;
#X msg 358 423 /CuveGaloot/Ypos \$1;
#X msg 358 329 -0.9;
#X msg 308 363 441.886;
#X msg 358 301 0.69;
#X obj 516 172 t b b;
#X obj 281 247 t b b;
#X msg 270 338 set \$1;
#X msg 358 166 set \$1;
#X obj 460 189 bng 15 250 50 0 empty empty empty 17 7 0 10 -262144
-1 -1;
#X obj 308 276 bng 15 250 50 0 empty empty empty 17 7 0 10 -262144
-1 -1;
#X obj 380 230 delay 1600;
#X obj 516 359 delay 200;
#X msg 690 168 20;
#X msg 725 168 -20;
#X obj 796 118 delay 200;
#X obj 800 84 r tempoDance;
#X obj 906 101 / 2;
#X msg 690 274 /Djbebe/Rotate \$1;
#X obj 690 240 line;
#X msg 906 148 set \$1;
#X msg 823 223 441.886;
#X obj 796 151 t b b;
#X obj 690 120 t b b;
#X obj 90 133 s dancerMetro;
#X obj 690 81 r dancerMetro;
#X obj 690 312 s OSC_MESSAGES;
#X msg 67 449 /Djbebe/Xpos \$1;
#X msg 144 361 0;
#X obj 160 378 -;
#X obj 175 346 bng 15 250 50 0 empty empty empty 17 7 0 10 -262144
-1 -1;
#X obj 201 432 line;
#X msg 201 395 \$1 700;
#X obj 1228 207 r tempoDance;
#X obj 1006 68 r muddClubUsersDancing;
#X obj 1006 124 t b b;
#X msg 1092 141 /CuveGalootContent2/ParentName /CuveGalootContent;
#X msg 1092 179 /CuveGalootContent2/Child/[X-Y]pos 1;
#X obj 1092 626 s OSC_MESSAGES;
#X msg 1006 296 -1.6;
#X msg 1052 296 5.5;
#X msg 1260 464 /CuveGalootContent/Xpos \$1;
#X obj 1006 433 line;
#X obj 1182 447 line;
#X msg 1006 463 /CuveGalootContent/Ypos \$1;
#X msg 1228 332 set \$1;
#X msg 1228 368 332.245;
#X obj 1136 352 random 100;
#X obj 1136 376 - 50;
#X obj 1182 393 +;
#X obj 1006 401 +;
#X obj 1136 279 delay 200;
#X obj 1228 297 / 2;
#X obj 1136 248 metro 400;
#X obj 1021 369 / 200;
#X obj 1136 401 / 400;
#X obj 971 435 line;
#X obj 1228 231 / 1.33;
#X msg 971 296 1.8;
#X msg 971 493 /CuveGalootContent/Yscale \$1;
#X msg 971 369 1.7;
#N canvas 0 100 1440 800 QRNarrivee 0;
#X msg 80 153 0;
#X obj 125 102 metro 150;
#X msg 80 183 1;
#X msg 80 217 /DjventiloPales/Flip \$1;
#X obj 125 49 bng 15 250 50 0 empty empty empty 17 7 0 10 -262144 -1
-1;
#X msg 206 47 stop;
#X obj 308 64 t b b;
#X msg 335 113 -10;
#X msg 335 190 /DjventiloPales/Xpos \$1;
#X obj 335 155 line;
#X obj 335 90 delay 1500;
#X msg 80 248 /DunjonDoor1/Flip \$1;
#X msg 335 221 /DunjonDoor1/Xpos \$1;
#X obj 125 17 r QNRarrivee;
#X obj 80 346 s OSC_MESSAGES;
#X obj 167 166 delay 75;
#X msg 283 138 -5 1500;
#X connect 0 0 3 0;
#X connect 0 0 11 0;
#X connect 1 0 0 0;
#X connect 1 0 15 0;
#X connect 2 0 3 0;
#X connect 2 0 11 0;
#X connect 3 0 14 0;
#X connect 4 0 1 0;
#X connect 4 0 6 0;
#X connect 5 0 1 0;
#X connect 6 0 16 0;
#X connect 6 1 7 0;
#X connect 6 1 10 0;
#X connect 7 0 9 0;
#X connect 8 0 14 0;
#X connect 9 0 8 0;
#X connect 9 0 12 0;
#X connect 10 0 5 0;
#X connect 11 0 14 0;
#X connect 12 0 14 0;
#X connect 13 0 4 0;
#X connect 15 0 2 0;
#X connect 16 0 9 0;
#X restore 87 541 pd QRNarrivee;
#X obj 175 316 - 1;
#X obj 112 299 random 4;
#N canvas 0 100 1440 800 QRNdrague 0;
#X obj 194 75 bng 15 250 50 0 empty empty empty 17 7 0 10 -262144 -1
-1;
#X obj 125 17 r QNRdrague;
#X msg 194 122 /DunjonDoor2/Activate 0;
#X obj 194 687 s OSC_MESSAGES;
#X obj 437 129 metro 400;
#X obj 437 202 v /CuveGaloot/Xpos;
#X obj 360 375 line;
#X msg 550 283 set \$1;
#X msg 550 358 883.772;
#X msg 360 435 /DjventiloPales/Xpos \$1;
#X obj 488 71 r tempoDance;
#X obj 437 288 - 4.2;
#X msg 360 454 /DunjonDoor1*/Xpos \$1;
#X msg 360 474 /DunjonDoor2/Xpos \$1;
#X obj 600 406 / 2;
#X obj 687 423 delay 200;
#X msg 194 142 /DunjonDoor2/Flip 1;
#X msg 650 473 0;
#X msg 687 473 1;
#X msg 650 515 /DjventiloPales/Flip \$1;
#X msg 650 534 /DunjonDoor1/Flip \$1;
#X obj 320 438 line;
#X obj 397 265 v /CuveGaloot/Ypos;
#X msg 650 603 /DunjonDoor1Cadre/Activate \$1;
#X msg 650 623 /DunjonDoor2/Activate \$1;
#X obj 650 556 - 1;
#X obj 650 580 mod 2;
#X obj 194 192 s QNRPaupiereInit;
#X msg 194 228 /DunjonDoor1Cadre/Child/Ypos 1;
#X msg 915 479 110.471;
#X msg 915 440 set \$1;
#X obj 846 545 line;
#X obj 796 462 t b b;
#X msg 846 670 /DunjonDoor1Cadre/gYpos \$1;
#X obj 974 479 delay 50;
#X obj 974 508 t b b;
#X msg 974 528 0;
#X obj 799 423 / 4;
#X obj 974 566 delay 50;
#X msg 846 479 0.3;
#X msg 320 498 /DjventiloPales/Ypos \$1;
#X msg 320 517 /DunjonDoor1*/Ypos \$1;
#X msg 320 537 /DunjonDoor2/Ypos \$1;
#X obj 320 376 - 0.4;
#X msg 403 70 stop;
#X obj 396 23 r QNRstopdrague;
#X msg 263 384 -1.2;
#X connect 0 0 2 0;
#X connect 0 0 4 0;
#X connect 0 0 16 0;
#X connect 0 0 27 0;
#X connect 0 0 28 0;
#X connect 1 0 0 0;
#X connect 2 0 3 0;
#X connect 4 0 5 0;
#X connect 4 0 8 0;
#X connect 4 0 15 0;
#X connect 4 0 17 0;
#X connect 4 0 32 0;
#X connect 4 0 22 0;
#X connect 5 0 11 0;
#X connect 6 0 9 0;
#X connect 6 0 12 0;
#X connect 6 0 13 0;
#X connect 7 0 8 0;
#X connect 8 0 6 1;
#X connect 8 0 14 0;
#X connect 8 0 21 1;
#X connect 9 0 3 0;
#X connect 10 0 4 1;
#X connect 10 0 7 0;
#X connect 11 0 6 0;
#X connect 12 0 3 0;
#X connect 13 0 3 0;
#X connect 14 0 15 1;
#X connect 14 0 37 0;
#X connect 15 0 18 0;
#X connect 16 0 3 0;
#X connect 17 0 19 0;
#X connect 17 0 20 0;
#X connect 17 0 24 0;
#X connect 17 0 25 0;
#X connect 18 0 19 0;
#X connect 18 0 20 0;
#X connect 18 0 24 0;
#X connect 18 0 25 0;
#X connect 19 0 3 0;
#X connect 20 0 3 0;
#X connect 21 0 40 0;
#X connect 21 0 41 0;
#X connect 21 0 42 0;
#X connect 22 0 43 0;
#X connect 23 0 3 0;
#X connect 24 0 3 0;
#X connect 25 0 26 0;
#X connect 26 0 23 0;
#X connect 28 0 3 0;
#X connect 29 0 31 1;
#X connect 30 0 29 0;
#X connect 31 0 33 0;
#X connect 32 0 39 0;
#X connect 32 0 34 0;
#X connect 32 1 29 0;
#X connect 33 0 3 0;
#X connect 34 0 35 0;
#X connect 35 0 36 0;
#X connect 35 0 38 0;
#X connect 35 1 29 0;
#X connect 36 0 31 0;
#X connect 37 0 30 0;
#X connect 37 0 34 1;
#X connect 37 0 38 1;
#X connect 38 0 32 0;
#X connect 39 0 31 0;
#X connect 40 0 3 0;
#X connect 41 0 3 0;
#X connect 42 0 3 0;
#X connect 43 0 21 0;
#X connect 44 0 4 0;
#X connect 44 0 39 0;
#X connect 44 0 18 0;
#X connect 44 0 6 0;
#X connect 44 0 46 0;
#X connect 45 0 44 0;
#X connect 46 0 21 0;
#X restore 87 581 pd QRNdrague;
#N canvas 0 100 1440 800 QRNdecouvre 0;
#X msg 125 153 0;
#X msg 125 183 1;
#X obj 125 49 bng 15 250 50 0 empty empty empty 17 7 0 10 -262144 -1
-1;
#X obj 125 346 s OSC_MESSAGES;
#X obj 125 17 r QNRdecouvre;
#X msg 125 217 /DjventiloPales/Flip 0;
#X msg 125 248 /DunjonDoor1/Flip 0;
#X obj 215 121 s QNRGoleInit;
#X obj 215 64 delay 20;
#X connect 0 0 5 0;
#X connect 0 0 6 0;
#X connect 1 0 5 0;
#X connect 1 0 6 0;
#X connect 2 0 0 0;
#X connect 2 0 8 0;
#X connect 4 0 2 0;
#X connect 5 0 3 0;
#X connect 6 0 3 0;
#X connect 8 0 7 0;
#X restore 87 561 pd QRNdecouvre;
#X obj 459 610 line;
#X msg 582 504 -0.5;
#X msg 516 494 0.69;
#X obj 582 439 delay 200;
#X obj 582 473 t b b;
#X msg 459 634 /CochonLights/Ypos \$1;
#X obj 516 380 delay 200;
#X obj 496 552 + 0.4;
#N canvas 117 100 1205 773 Chutes 0;
#X obj 116 52 r ChuteTabouret;
#X obj 66 95 bng 15 250 50 0 empty empty empty 17 7 0 10 -262144 -1
-1;
#X msg 66 154 -2.4;
#X obj 91 185 line;
#X obj 234 181 line;
#X msg 267 211 /DunjonDoor2Cadre/Rotate \$1;
#X msg 91 212 /DunjonDoor2Cadre/Ypos \$1;
#X obj 91 261 s OSC_MESSAGES;
#X msg 163 164 0;
#X obj 234 95 bng 15 250 50 0 empty empty empty 17 7 0 10 -262144 -1
-1;
#X msg 284 244 /DunjonDoor2Cadre/Xpos \$1;
#X msg 91 110 -2.9;
#X msg 234 125 90;
#X msg 284 162 -4;
#X msg 284 126 -4.8;
#X obj 116 78 t b b;
#X obj 571 11 r ChuteCrete;
#X obj 590 131 metro 300;
#X msg 584 202 0;
#X msg 507 204 360 300;
#X msg 523 276 /CuveGalootContent2/Rotate \$1;
#X obj 523 378 s OSC_MESSAGES;
#X obj 571 106 bng 15 250 50 0 empty empty empty 17 7 0 10 -262144
-1 -1;
#X obj 618 167 t b b;
#X obj 557 249 line;
#X obj 729 87 v /CuveGalootContent2/Xpos;
#X msg 729 249 /CuveGalootContent2/Xpos \$1;
#X obj 729 222 line;
#X msg 777 270 /CuveGalootContent2/Ypos \$1;
#X msg 797 115 set \$1;
#X msg 797 146 -0.4;
#X obj 729 129 delay 5;
#X obj 849 209 line;
#X msg 917 95 set \$1;
#X msg 917 126 1.25;
#X obj 849 109 delay 5;
#X obj 849 57 v /CuveGalootContent2/Ypos;
#X msg 849 172 \$1 300;
#X obj 849 143 + 2;
#X obj 915 155 delay 300;
#X msg 915 192 -2 900;
#X obj 771 28 bng 15 250 50 0 empty empty empty 17 7 0 10 -262144 -1
-1;
#X msg 549 510 /CuveGalootContent2/Xscale \$1;
#X msg 498 532 /CuveGalootContent2/Yscale \$1;
#X msg 498 486 0.6;
#X msg 549 486 0.5;
#X obj 268 567 -;
#X obj 238 454 bng 15 250 50 0 empty empty empty 17 7 0 10 -262144
-1 -1;
#X obj 268 469 t b b;
#X obj 268 538 v /DunjonDoor1/Xpos;
#X obj 295 504 v /CuveGalootContent/Xpos;
#X msg 965 492 /CuveGalootContent2/ParentName /Dummy;
#X obj 268 591 + 0.05;
#X msg 268 614 \$1 900;
#X msg 729 192 \$1 300;
#X obj 965 469 delay 900;
#X msg 748 469 2.2 900;
#X msg 825 360 stop;
#X obj 916 343 delay 800;
#X obj 729 163 - 2;
#X obj 598 60 s QNRstopdrague;
#X obj 571 36 t b b;
#X obj 374 602 s shareMyPunkXpos;
#X connect 0 0 15 0;
#X connect 1 0 8 0;
#X connect 1 0 2 0;
#X connect 1 0 13 0;
#X connect 2 0 3 0;
#X connect 3 0 6 0;
#X connect 4 0 5 0;
#X connect 5 0 7 0;
#X connect 6 0 7 0;
#X connect 8 0 4 0;
#X connect 9 0 11 0;
#X connect 9 0 12 0;
#X connect 9 0 14 0;
#X connect 10 0 7 0;
#X connect 11 0 3 0;
#X connect 12 0 4 0;
#X connect 13 0 10 0;
#X connect 14 0 10 0;
#X connect 15 0 9 0;
#X connect 15 1 1 0;
#X connect 16 0 61 0;
#X connect 17 0 23 0;
#X connect 18 0 24 0;
#X connect 19 0 24 0;
#X connect 20 0 21 0;
#X connect 22 0 17 0;
#X connect 23 0 19 0;
#X connect 23 1 18 0;
#X connect 24 0 20 0;
#X connect 25 0 29 0;
#X connect 25 0 27 0;
#X connect 25 0 31 0;
#X connect 26 0 21 0;
#X connect 27 0 26 0;
#X connect 28 0 21 0;
#X connect 29 0 30 0;
#X connect 30 0 59 0;
#X connect 31 0 30 0;
#X connect 32 0 28 0;
#X connect 33 0 34 0;
#X connect 34 0 38 0;
#X connect 35 0 34 0;
#X connect 35 0 39 0;
#X connect 36 0 33 0;
#X connect 36 0 32 0;
#X connect 36 0 35 0;
#X connect 37 0 32 0;
#X connect 38 0 37 0;
#X connect 39 0 47 0;
#X connect 39 0 58 0;
#X connect 40 0 32 0;
#X connect 41 0 25 0;
#X connect 41 0 36 0;
#X connect 42 0 21 0;
#X connect 43 0 21 0;
#X connect 44 0 43 0;
#X connect 45 0 42 0;
#X connect 46 0 52 0;
#X connect 47 0 48 0;
#X connect 47 0 56 0;
#X connect 47 0 55 0;
#X connect 48 0 49 0;
#X connect 48 1 44 0;
#X connect 48 1 45 0;
#X connect 48 1 50 0;
#X connect 49 0 46 0;
#X connect 50 0 46 1;
#X connect 50 0 62 0;
#X connect 51 0 21 0;
#X connect 52 0 53 0;
#X connect 53 0 27 0;
#X connect 54 0 27 0;
#X connect 55 0 51 0;
#X connect 56 0 32 0;
#X connect 57 0 17 0;
#X connect 58 0 57 0;
#X connect 58 0 18 0;
#X connect 59 0 54 0;
#X connect 61 0 41 0;
#X connect 61 0 22 0;
#X connect 61 1 60 0;
#X restore 88 609 pd Chutes;
#X obj 11 337 spigot;
#X msg 20 213 1;
#X msg -9 213 0;
#X obj 322 230 spigot;
#X obj 358 117 - 90;
#X obj 358 142 / 100;
#N canvas 316 430 859 361 ArriveeVideoChretiens 0;
#X obj 79 65 r ArriveeVideoChretiens;
#X obj 79 99 bng 15 250 50 0 empty empty empty 17 7 0 10 -262144 -1
-1;
#X obj 79 141 t b b;
#X msg 106 241 -10;
#X msg 106 264 -16;
#X msg 106 287 -17.235;
#X msg 424 318 /DunjonDoor3Cadre/Xpos \$1;
#X msg 501 295 /DunjonDoor4/Xpos \$1;
#X msg 341 341 /DunjonDoor3/Xpos \$1;
#X msg 341 158 -4.285 2000;
#X msg 424 158 -3.05 2000;
#X msg 501 158 2.95 2000;
#X obj 501 380 s OSC_MESSAGES;
#X obj 501 258 line;
#X obj 341 304 line;
#X obj 424 281 line;
#X connect 0 0 1 0;
#X connect 1 0 2 0;
#X connect 2 0 9 0;
#X connect 2 0 10 0;
#X connect 2 0 11 0;
#X connect 2 1 5 0;
#X connect 2 1 4 0;
#X connect 2 1 3 0;
#X connect 3 0 13 0;
#X connect 4 0 15 0;
#X connect 5 0 14 0;
#X connect 6 0 12 0;
#X connect 7 0 12 0;
#X connect 8 0 12 0;
#X connect 9 0 14 0;
#X connect 10 0 15 0;
#X connect 11 0 13 0;
#X connect 13 0 7 0;
#X connect 14 0 8 0;
#X connect 15 0 6 0;
#X restore 87 637 pd ArriveeVideoChretiens;
#N canvas 189 142 799 582 BaisePunkQNR 1;
#X obj 72 26 r BaisePunkQNR;
#X obj 131 49 bng 15 250 50 0 empty empty empty 17 7 0 10 -262144 -1
-1;
#X msg 207 250 /DjventiloPales/Xpos \$1;
#X msg 207 269 /DunjonDoor1*/Xpos \$1;
#X msg 207 289 /DunjonDoor2/Xpos \$1;
#X obj 189 102 v /DjventiloPales/Xpos;
#X obj 189 149 line;
#X obj 185 75 t b b;
#X obj 150 369 s OSC_MESSAGES;
#X obj 30 217 delay 2000;
#X obj 42 262 delay 2000;
#X msg 113 144 8 2000;
#X msg 117 198 7 2000;
#X msg 367 289 /DunjonDoor2/Zpos -3.031;
#X msg 367 269 /DunjonDoor1*/Zpos -3.031;
#X msg 367 250 /DjventiloPales/Zpos -3.031;
#X msg 121 236 6.4 500;
#X obj 376 333 s punkIsDancing;
#X obj 54 316 delay 500;
#X msg 577 249 /DjventiloPales/gYpos \$1;
#X msg 577 268 /DunjonDoor1*/gYpos \$1;
#X msg 577 288 /DunjonDoor2/gYpos \$1;
#X obj 573 123 metro 400;
#X obj 644 167 delay 200;
#X msg 573 202 0.15 100;
#X msg 708 140 0 100;
#X obj 708 219 line;
#X obj 475 176 t b b;
#X obj 606 45 r StopBaisePunkQNR;
#X msg 624 75 stop;
#X floatatom 747 247 5 0 0 0 - - -;
#X obj 507 410 bng 15 250 50 0 empty empty empty 17 7 0 10 -262144
-1 -1;
#X obj 507 446 s muddClubUsersStopDancing;
#X obj 607 167 bng 15 250 50 0 empty empty empty 17 7 0 10 -262144
-1 -1;
#X msg 575 327 /DjventiloPales/Child/Ypos 1;
#X msg 575 346 /DunjonDoor1*/Child/Ypos 1;
#X msg 575 366 /DunjonDoor2/Child/Ypos 1;
#X msg 196 439 /CuveGalootContent2/Xpos \$1;
#X obj 301 145 r shareMyPunkXpos;
#X obj 277 207 -;
#X floatatom 321 180 5 0 0 0 - - -;
#X connect 0 0 1 0;
#X connect 1 0 7 0;
#X connect 2 0 8 0;
#X connect 3 0 8 0;
#X connect 4 0 8 0;
#X connect 5 0 6 0;
#X connect 6 0 2 0;
#X connect 6 0 3 0;
#X connect 6 0 4 0;
#X connect 6 0 39 0;
#X connect 7 0 11 0;
#X connect 7 0 9 0;
#X connect 7 0 10 0;
#X connect 7 1 5 0;
#X connect 9 0 12 0;
#X connect 9 0 15 0;
#X connect 9 0 14 0;
#X connect 9 0 13 0;
#X connect 10 0 16 0;
#X connect 10 0 18 0;
#X connect 11 0 6 0;
#X connect 12 0 6 0;
#X connect 13 0 8 0;
#X connect 14 0 8 0;
#X connect 15 0 8 0;
#X connect 16 0 6 0;
#X connect 18 0 17 0;
#X connect 18 0 27 0;
#X connect 19 0 8 0;
#X connect 20 0 8 0;
#X connect 21 0 8 0;
#X connect 22 0 23 0;
#X connect 22 0 25 0;
#X connect 22 0 33 0;
#X connect 23 0 24 0;
#X connect 24 0 26 0;
#X connect 25 0 26 0;
#X connect 26 0 19 0;
#X connect 26 0 20 0;
#X connect 26 0 21 0;
#X connect 26 0 30 0;
#X connect 27 0 22 0;
#X connect 27 1 34 0;
#X connect 27 1 36 0;
#X connect 27 1 35 0;
#X connect 28 0 29 0;
#X connect 28 0 31 0;
#X connect 29 0 26 0;
#X connect 29 0 22 0;
#X connect 31 0 32 0;
#X connect 34 0 8 0;
#X connect 35 0 8 0;
#X connect 36 0 8 0;
#X connect 37 0 8 0;
#X connect 38 0 39 1;
#X connect 38 0 40 0;
#X connect 39 0 37 0;
#X restore 88 662 pd BaisePunkQNR;
#X obj 1162 69 r punkIsDancing;
#N canvas 0 100 1440 800 MuddClubGetsOutToCour 0;
#X obj 32 20 r muddClubGetsOutToCour;
#X obj 32 46 bng 15 250 50 0 empty empty empty 17 7 0 10 -262144 -1
-1;
#X msg 32 153 /CuveGaloot/Alpha \$1;
#X msg 32 177 /Djbebe/Alpha \$1;
#X msg 32 200 /CuveGalootContent/Alpha \$1;
#X msg 32 224 /CuveGalootContent2/Alpha \$1;
#X msg 32 248 /CochonLights/Alpha \$1;
#X msg 32 271 /Cochon/Alpha \$1;
#X msg 32 296 /WashMachine/Alpha \$1;
#X msg 32 324 /DjventiloPales/Alpha \$1;
#X msg 32 350 /DunjonDoor[1-4]*/Alpha \$1;
#X msg 32 377 /Tube \$1;
#X msg 84 98 1;
#X obj 32 67 t b b;
#X obj 32 127 line;
#X obj 32 416 s OSC_MESSAGES;
#X msg 32 98 0 1200;
#X obj 250 80 s StopBaisePunkQNR;
#X connect 0 0 1 0;
#X connect 1 0 13 0;
#X connect 1 0 17 0;
#X connect 2 0 15 0;
#X connect 3 0 15 0;
#X connect 4 0 15 0;
#X connect 5 0 15 0;
#X connect 6 0 15 0;
#X connect 7 0 15 0;
#X connect 8 0 15 0;
#X connect 9 0 15 0;
#X connect 10 0 15 0;
#X connect 11 0 15 0;
#X connect 12 0 14 0;
#X connect 13 0 16 0;
#X connect 13 1 12 0;
#X connect 14 0 2 0;
#X connect 14 0 3 0;
#X connect 14 0 4 0;
#X connect 14 0 5 0;
#X connect 14 0 6 0;
#X connect 14 0 7 0;
#X connect 14 0 8 0;
#X connect 14 0 9 0;
#X connect 14 0 10 0;
#X connect 14 0 11 0;
#X connect 16 0 14 0;
#X restore 92 722 pd MuddClubGetsOutToCour;
#X connect 0 0 6 0;
#X connect 1 0 7 0;
#X connect 2 0 5 0;
#X connect 3 0 2 0;
#X connect 4 0 2 0;
#X connect 6 0 11 0;
#X connect 6 0 14 0;
#X connect 6 0 15 0;
#X connect 6 0 28 0;
#X connect 6 0 99 0;
#X connect 7 0 11 0;
#X connect 7 0 100 0;
#X connect 7 0 76 0;
#X connect 7 0 13 0;
#X connect 7 0 19 0;
#X connect 7 0 79 0;
#X connect 7 0 65 0;
#X connect 8 0 4 0;
#X connect 9 0 10 0;
#X connect 9 0 11 1;
#X connect 9 0 20 0;
#X connect 10 0 8 1;
#X connect 10 0 30 0;
#X connect 11 0 3 0;
#X connect 11 0 8 0;
#X connect 11 0 47 0;
#X connect 12 0 5 0;
#X connect 13 0 12 0;
#X connect 14 0 17 0;
#X connect 14 0 86 0;
#X connect 15 0 13 0;
#X connect 16 0 13 0;
#X connect 17 0 98 0;
#X connect 18 0 102 0;
#X connect 19 0 24 0;
#X connect 20 0 34 1;
#X connect 21 0 22 0;
#X connect 22 0 23 0;
#X connect 24 0 5 0;
#X connect 25 0 19 0;
#X connect 26 0 19 1;
#X connect 26 0 35 1;
#X connect 26 0 89 1;
#X connect 26 0 95 1;
#X connect 26 0 92 1;
#X connect 27 0 19 0;
#X connect 28 0 25 0;
#X connect 28 0 32 0;
#X connect 28 0 34 0;
#X connect 28 1 26 0;
#X connect 29 0 27 0;
#X connect 29 1 26 0;
#X connect 29 1 33 0;
#X connect 29 1 35 0;
#X connect 30 0 26 0;
#X connect 31 0 27 0;
#X connect 31 0 91 0;
#X connect 34 0 101 0;
#X connect 35 0 28 0;
#X connect 35 0 95 0;
#X connect 36 0 42 0;
#X connect 37 0 42 0;
#X connect 38 0 45 0;
#X connect 39 0 40 0;
#X connect 40 0 38 1;
#X connect 40 0 43 0;
#X connect 41 0 49 0;
#X connect 42 0 41 0;
#X connect 43 0 44 0;
#X connect 44 0 42 1;
#X connect 45 0 37 0;
#X connect 45 1 44 0;
#X connect 46 0 36 0;
#X connect 46 1 44 0;
#X connect 48 0 46 0;
#X connect 48 0 38 0;
#X connect 50 0 5 0;
#X connect 51 0 52 0;
#X connect 52 0 55 0;
#X connect 53 0 51 0;
#X connect 54 0 50 0;
#X connect 55 0 54 0;
#X connect 56 0 80 0;
#X connect 57 0 58 0;
#X connect 58 0 62 0;
#X connect 58 0 63 0;
#X connect 58 0 76 0;
#X connect 58 0 81 0;
#X connect 58 1 59 0;
#X connect 58 1 60 0;
#X connect 59 0 61 0;
#X connect 60 0 61 0;
#X connect 62 0 65 0;
#X connect 62 0 73 1;
#X connect 63 0 66 0;
#X connect 63 0 72 1;
#X connect 64 0 61 0;
#X connect 65 0 67 0;
#X connect 66 0 64 0;
#X connect 67 0 61 0;
#X connect 68 0 69 0;
#X connect 69 0 66 1;
#X connect 69 0 65 1;
#X connect 69 0 79 1;
#X connect 70 0 71 0;
#X connect 70 0 77 0;
#X connect 70 0 83 0;
#X connect 71 0 78 0;
#X connect 72 0 66 0;
#X connect 73 0 65 0;
#X connect 74 0 62 0;
#X connect 74 0 63 0;
#X connect 74 0 69 0;
#X connect 74 0 81 0;
#X connect 75 0 74 1;
#X connect 75 0 68 0;
#X connect 76 0 70 0;
#X connect 76 0 69 0;
#X connect 76 0 74 0;
#X connect 77 0 73 0;
#X connect 78 0 72 0;
#X connect 79 0 82 0;
#X connect 80 0 75 0;
#X connect 80 0 76 1;
#X connect 81 0 79 0;
#X connect 82 0 61 0;
#X connect 83 0 79 0;
#X connect 85 0 16 0;
#X connect 85 0 53 0;
#X connect 85 0 52 1;
#X connect 86 0 85 0;
#X connect 89 0 94 0;
#X connect 90 0 89 0;
#X connect 91 0 96 0;
#X connect 92 0 93 0;
#X connect 93 0 90 0;
#X connect 93 1 26 0;
#X connect 94 0 5 0;
#X connect 95 0 92 0;
#X connect 95 0 91 0;
#X connect 96 0 89 0;
#X connect 98 0 14 0;
#X connect 99 0 98 1;
#X connect 99 0 101 1;
#X connect 100 0 98 1;
#X connect 100 0 101 1;
#X connect 101 0 29 0;
#X connect 102 0 103 0;
#X connect 103 0 31 0;
#X connect 106 0 76 0;
#X connect 106 0 63 0;
#X connect 106 0 62 0;
#X connect 106 0 81 0;
