#N canvas 151 264 790 631 10;
#X obj 155 62 r economicWorshipComesInFromjardin;
#X msg 131 157 -18;
#X obj 97 192 line;
#X msg 97 224 /DunjonDoor5*/Xpos \$1;
#X msg 269 224 /EvilPrince_Tete/Xpos \$1;
#X msg 54 155 0.5 400;
#X msg 97 245 /Prison_Barreaux/Xpos \$1;
#X obj 155 96 bng 15 250 50 0 empty empty empty 17 7 0 10 -262144 -1
-1;
#X obj 155 124 t b b;
#X msg 269 199 /Prison_Prisonniers/Xpos \$1;
#X obj 226 178 line;
#X msg 288 153 1.4 400;
#X msg 353 154 -16.6;
#X obj 99 279 s OSC_MESSAGES;
#X obj 407 141 s EconomicWorshipInit;
#X obj 126 342 r economicWorshipOn;
#X obj 126 368 bng 15 250 50 0 empty empty empty 17 7 0 10 -262144
-1 -1;
#X msg 126 469 /Cochon*/Alpha \$1;
#X msg 126 489 /WashMachine/Alpha \$1;
#X msg 126 509 /Djbebe/Alpha \$1;
#X msg 126 529 /Tube/Alpha \$1;
#X msg 126 421 1 1000;
#X obj 126 444 line;
#X obj 126 574 s OSC_MESSAGES;
#X obj 126 391 t b b;
#X obj 213 408 s EconomicWorshipOn;
#N canvas 558 264 453 546 ScintillageNeon 0;
#X obj 57 43 r ScintillageNeon;
#X obj 202 47 r ScintillageNeonOff;
#X obj 57 80 bng 15 250 50 0 empty empty empty 17 7 0 10 -262144 -1
-1;
#X msg 202 89 stop;
#X obj 57 122 metro 300;
#X msg 57 179 1;
#X msg 57 268 0.4 150;
#X msg 57 226 1 150;
#X msg 57 338 /Cochon*/Alpha \$1;
#X msg 57 358 /WashMachine/Alpha \$1;
#X msg 197 358 /Djbebe/Alpha \$1;
#X msg 57 398 /Tube/Alpha \$1;
#X obj 202 139 delay 150;
#X obj 57 480 s OSC_MESSAGES;
#X obj 57 303 line;
#X obj 197 287 line;
#X msg 197 249 0 150;
#X connect 0 0 2 0;
#X connect 1 0 3 0;
#X connect 2 0 5 0;
#X connect 2 0 4 0;
#X connect 3 0 4 0;
#X connect 4 0 6 0;
#X connect 4 0 12 0;
#X connect 4 0 16 0;
#X connect 5 0 14 0;
#X connect 5 0 15 0;
#X connect 6 0 14 0;
#X connect 7 0 14 0;
#X connect 7 0 15 0;
#X connect 8 0 13 0;
#X connect 9 0 13 0;
#X connect 10 0 13 0;
#X connect 11 0 13 0;
#X connect 12 0 7 0;
#X connect 14 0 8 0;
#X connect 14 0 9 0;
#X connect 14 0 11 0;
#X connect 15 0 10 0;
#X connect 16 0 15 0;
#X restore 529 377 pd ScintillageNeon;
#X obj 287 484 delay 1000;
#X obj 287 523 s ScintillageNeon;
#X connect 0 0 7 0;
#X connect 1 0 2 0;
#X connect 2 0 3 0;
#X connect 2 0 6 0;
#X connect 3 0 13 0;
#X connect 4 0 13 0;
#X connect 5 0 2 0;
#X connect 6 0 13 0;
#X connect 7 0 8 0;
#X connect 8 0 1 0;
#X connect 8 0 5 0;
#X connect 8 0 11 0;
#X connect 8 0 14 0;
#X connect 8 1 12 0;
#X connect 9 0 13 0;
#X connect 10 0 9 0;
#X connect 10 0 4 0;
#X connect 11 0 10 0;
#X connect 12 0 10 0;
#X connect 15 0 16 0;
#X connect 16 0 24 0;
#X connect 17 0 23 0;
#X connect 18 0 23 0;
#X connect 19 0 23 0;
#X connect 20 0 23 0;
#X connect 21 0 22 0;
#X connect 22 0 17 0;
#X connect 22 0 18 0;
#X connect 22 0 19 0;
#X connect 22 0 20 0;
#X connect 24 0 21 0;
#X connect 24 0 27 0;
#X connect 24 1 25 0;
#X connect 27 0 28 0;
