#N canvas 151 264 450 300 10;
#X obj 84 80 r economicWorshipComesInFromjardin;
#X msg 131 157 -18;
#X obj 97 192 line;
#X msg 97 224 /DunjonDoor5*/Xpos \$1;
#X msg 269 224 /EvilPrince_Tete/Xpos \$1;
#X msg 54 155 0.5 400;
#X msg 97 245 /Prison_Barreaux/Xpos \$1;
#X obj 103 113 bng 15 250 50 0 empty empty empty 17 7 0 10 -262144
-1 -1;
#X obj 155 124 t b b;
#X msg 269 199 /Prison_Prisonniers/Xpos \$1;
#X obj 226 178 line;
#X msg 288 153 1.4 400;
#X msg 353 154 -16.6;
#X obj 99 279 s OSC_MESSAGES;
#X connect 0 0 7 0;
#X connect 1 0 2 0;
#X connect 2 0 3 0;
#X connect 2 0 6 0;
#X connect 3 0 13 0;
#X connect 4 0 13 0;
#X connect 5 0 2 0;
#X connect 6 0 13 0;
#X connect 7 0 8 0;
#X connect 8 0 1 0;
#X connect 8 0 5 0;
#X connect 8 0 11 0;
#X connect 8 1 12 0;
#X connect 9 0 13 0;
#X connect 10 0 9 0;
#X connect 10 0 4 0;
#X connect 11 0 10 0;
#X connect 12 0 10 0;
