#N canvas 424 313 943 513 10;
#X obj 48 26 bng 15 250 50 0 empty empty empty 17 7 0 10 -262144 -1
-1;
#X obj 609 112 metro 500;
#X obj 66 87 metro 700;
#X msg 50 217 360 200;
#X msg 114 216 340 200;
#X obj 114 179 delay 200;
#X msg 39 133 360;
#X obj 57 268 line;
#X msg 46 324 /DunjonDoor3/Rotate \$1;
#X obj 56 385 s OSC_MESSAGES;
#X msg 123 50 stop;
#X msg 227 189 0.2;
#X msg 227 243 0.2 200;
#X msg 214 335 /CuveGalootContent/Yscale \$1;
#X obj 227 302 line;
#X msg 261 196 0.12 200;
#X msg 224 355 /CuveGalootContent/Ypos \$1;
#X msg 331 238 -2.351;
#X msg 382 271 -2.351 200;
#X obj 298 303 line;
#X msg 401 240 -2.4 200;
#X msg 465 339 /DunjonDoor2/*scale \$1;
#X msg 472 270 0.5 400;
#X msg 552 273 0;
#X obj 467 313 line;
#X obj 661 173 delay 250;
#X obj 623 260 line;
#X msg 628 293 /CuveGalootContent2/Xpos \$1;
#X msg 616 165 -2.25;
#X msg 614 213 -2.25 250;
#X msg 681 212 -2.35 250;
#X msg 643 365 /DunjonDoor1/Activate \$1;
#X obj 671 331 random 2;
#X msg 802 135 0;
#X msg 866 148 40 100;
#X msg 811 184 0 100;
#X obj 819 236 line;
#X msg 820 279 /DunjonDoor1Cadre/Rotate \$1;
#X obj 773 89 metro 6000;
#X obj 865 191 delay 2000;
#X connect 0 0 6 0;
#X connect 0 0 2 0;
#X connect 0 0 11 0;
#X connect 0 0 17 0;
#X connect 0 0 23 0;
#X connect 0 0 1 0;
#X connect 0 0 28 0;
#X connect 0 0 33 0;
#X connect 0 0 38 0;
#X connect 1 0 25 0;
#X connect 1 0 29 0;
#X connect 1 0 32 0;
#X connect 2 0 3 0;
#X connect 2 0 5 0;
#X connect 2 0 12 0;
#X connect 2 0 18 0;
#X connect 2 0 23 0;
#X connect 3 0 7 0;
#X connect 4 0 7 0;
#X connect 5 0 4 0;
#X connect 5 0 15 0;
#X connect 5 0 20 0;
#X connect 5 0 22 0;
#X connect 6 0 7 0;
#X connect 7 0 8 0;
#X connect 8 0 9 0;
#X connect 10 0 2 0;
#X connect 10 0 1 0;
#X connect 10 0 38 0;
#X connect 11 0 14 0;
#X connect 12 0 14 0;
#X connect 13 0 9 0;
#X connect 14 0 13 0;
#X connect 15 0 14 0;
#X connect 16 0 9 0;
#X connect 17 0 19 0;
#X connect 18 0 19 0;
#X connect 19 0 16 0;
#X connect 20 0 19 0;
#X connect 21 0 9 0;
#X connect 22 0 24 0;
#X connect 23 0 24 0;
#X connect 24 0 21 0;
#X connect 25 0 30 0;
#X connect 26 0 27 0;
#X connect 27 0 9 0;
#X connect 28 0 26 0;
#X connect 29 0 26 0;
#X connect 30 0 26 0;
#X connect 31 0 9 0;
#X connect 32 0 31 0;
#X connect 33 0 36 0;
#X connect 34 0 36 0;
#X connect 35 0 36 0;
#X connect 36 0 37 0;
#X connect 37 0 9 0;
#X connect 38 0 34 0;
#X connect 38 0 39 0;
#X connect 39 0 35 0;
