#N canvas 0 98 1440 800 10;
#X obj 68 84 bng 15 250 50 0 empty empty empty 17 7 0 10 -262144 -1
-1;
#X obj 68 53 r homoBlackComeInFromJardin;
#X obj 28 197 line;
#X obj 28 257 send OSC_MESSAGES;
#X obj 68 116 t b b b;
#X msg 290 133 /HomoBlack_*/Child/Xpos 1;
#X msg 300 167 /HomoBlackContainer/Parent/Xpos 1;
#X obj 578 57 r homoBlackDie;
#X obj 578 86 bng 15 250 50 0 empty empty empty 17 7 0 10 -262144 -1
-1;
#X obj 578 112 t b b;
#X msg 605 161 -0.2;
#X msg 676 129 2.8;
#X obj 605 185 line;
#X obj 676 230 line;
#X msg 543 213 0.16 300;
#X msg 578 139 -2.8 300;
#X obj 676 282 send OSC_MESSAGES;
#X obj 578 282 delay 300;
#X obj 605 375 line;
#X msg 578 347 18 3000;
#X msg 792 129 1;
#X msg 727 160 0 300;
#X obj 792 177 line;
#X obj 68 412 r homoBlackGetOutToCour;
#X obj 70 477 bng 15 250 50 0 empty empty empty 17 7 0 10 -262144 -1
-1;
#X obj 70 508 t b b b;
#X msg 89 554 18 400;
#X obj 70 580 delay 400;
#X obj 70 610 t b b;
#X msg 70 640 0;
#X msg 119 171 /Cochon/Activate 1;
#X msg 28 224 /Cochon*/Xpos \$1;
#X msg 14 173 -19.3423;
#X msg 55 169 -1.34228 400;
#X msg 97 640 /Cochon*/Activate 0;
#X msg 792 210 /Cochon/Green \$1;
#X msg 792 232 /Cochon/Blue \$1;
#X msg 676 251 /Cochon/Yscale \$1;
#X msg 605 411 /CochonLights/Ypos \$1;
#X msg 578 321 /CochonLights/Activate 1;
#X msg 605 209 /Cochon/Ypos \$1;
#X obj 315 210 s HomoBlackInit;
#X connect 0 0 4 0;
#X connect 1 0 0 0;
#X connect 2 0 31 0;
#X connect 4 0 33 0;
#X connect 4 0 30 0;
#X connect 4 1 32 0;
#X connect 4 2 5 0;
#X connect 4 2 6 0;
#X connect 4 2 41 0;
#X connect 7 0 8 0;
#X connect 8 0 9 0;
#X connect 9 0 14 0;
#X connect 9 0 15 0;
#X connect 9 0 17 0;
#X connect 9 0 21 0;
#X connect 9 1 10 0;
#X connect 9 1 11 0;
#X connect 9 1 20 0;
#X connect 10 0 12 0;
#X connect 10 0 18 0;
#X connect 11 0 13 0;
#X connect 12 0 40 0;
#X connect 13 0 37 0;
#X connect 14 0 13 0;
#X connect 15 0 12 0;
#X connect 17 0 39 0;
#X connect 17 0 19 0;
#X connect 18 0 38 0;
#X connect 19 0 18 0;
#X connect 20 0 22 0;
#X connect 21 0 22 0;
#X connect 22 0 35 0;
#X connect 22 0 36 0;
#X connect 23 0 24 0;
#X connect 24 0 25 0;
#X connect 25 0 27 0;
#X connect 25 1 26 0;
#X connect 26 0 2 0;
#X connect 27 0 28 0;
#X connect 28 0 29 0;
#X connect 28 0 11 0;
#X connect 28 0 20 0;
#X connect 28 0 10 0;
#X connect 28 1 34 0;
#X connect 29 0 2 0;
#X connect 30 0 3 0;
#X connect 31 0 3 0;
#X connect 32 0 2 0;
#X connect 33 0 2 0;
#X connect 34 0 3 0;
#X connect 35 0 16 0;
#X connect 36 0 16 0;
#X connect 37 0 16 0;
#X connect 38 0 16 0;
#X connect 39 0 16 0;
#X connect 40 0 16 0;
