#N canvas 0 100 1440 800 10;
#X obj 68 84 bng 15 250 50 0 empty empty empty 17 7 0 10 -262144 -1
-1;
#X obj 68 53 r homoBlackComeInFromJardin;
#X msg 14 173 -18;
#X obj 28 197 line;
#X obj 28 257 send OSC_MESSAGES;
#X msg 55 169 0 400;
#X obj 68 116 t b b b;
#X msg 290 133 /HomoBlack_*/Child/Xpos 1;
#X msg 300 167 /HomoBlackContainer/Parent/Xpos 1;
#X msg 28 224 /HomoBlackContainer/Xpos \$1;
#X msg 119 171 /HomoBlack_Main/Activate 1;
#X obj 578 57 r homoBlackDie;
#X obj 578 86 bng 15 250 50 0 empty empty empty 17 7 0 10 -262144 -1
-1;
#X obj 578 112 t b b;
#X msg 605 161 -0.2;
#X msg 676 129 2.8;
#X msg 605 209 /HomoBlack_Main/Ypos \$1;
#X msg 676 251 /HomoBlack_Main/Yscale \$1;
#X obj 605 185 line;
#X obj 676 230 line;
#X msg 543 213 0.16 300;
#X msg 578 139 -2.8 300;
#X obj 676 282 send OSC_MESSAGES;
#X obj 578 282 delay 300;
#X msg 578 321 /HomoBlack_Ames/Activate 1;
#X obj 605 375 line;
#X msg 605 411 /HomoBlack_Ames/Ypos \$1;
#X msg 578 347 18 3000;
#X msg 792 232 /HomoBlack_Main/Blue \$1;
#X msg 792 210 /HomoBlack_Main/Green \$1;
#X msg 792 129 1;
#X msg 727 160 0 300;
#X obj 792 177 line;
#X connect 0 0 6 0;
#X connect 1 0 0 0;
#X connect 2 0 3 0;
#X connect 3 0 9 0;
#X connect 5 0 3 0;
#X connect 6 0 5 0;
#X connect 6 0 10 0;
#X connect 6 1 2 0;
#X connect 6 2 7 0;
#X connect 6 2 8 0;
#X connect 7 0 4 0;
#X connect 8 0 4 0;
#X connect 9 0 4 0;
#X connect 10 0 4 0;
#X connect 11 0 12 0;
#X connect 12 0 13 0;
#X connect 13 0 20 0;
#X connect 13 0 21 0;
#X connect 13 0 23 0;
#X connect 13 0 31 0;
#X connect 13 1 14 0;
#X connect 13 1 15 0;
#X connect 13 1 30 0;
#X connect 14 0 18 0;
#X connect 14 0 25 0;
#X connect 15 0 19 0;
#X connect 16 0 22 0;
#X connect 17 0 22 0;
#X connect 18 0 16 0;
#X connect 19 0 17 0;
#X connect 20 0 19 0;
#X connect 21 0 18 0;
#X connect 23 0 24 0;
#X connect 23 0 27 0;
#X connect 24 0 22 0;
#X connect 25 0 26 0;
#X connect 26 0 22 0;
#X connect 27 0 25 0;
#X connect 28 0 22 0;
#X connect 29 0 22 0;
#X connect 30 0 32 0;
#X connect 31 0 32 0;
#X connect 32 0 29 0;
#X connect 32 0 28 0;
