#N canvas 0 93 1440 800 10;
#X obj 55 36 r apparitionBulleHomoBlack;
#X obj 40 196 line;
#X obj 126 204 line;
#X obj 215 212 line;
#X obj 295 216 line;
#X obj 343 216 line;
#X msg 201 130 500;
#X msg 125 170 2.2 \$1;
#X msg 234 174 2.82 \$1;
#X msg 42 241 /EvilPrince_Bulle/Xpos \$1;
#X msg 134 265 /EvilPrince_Bulle/Xscale \$1;
#X msg 271 302 /EvilPrince_Bulle/Yscale \$1;
#X msg 330 274 /EvilPrince_BulleContent/Xpos \$1;
#X msg 432 255 /EvilPrince_BulleContent/Xscale \$1;
#X msg 509 294 /EvilPrince_BulleContent/Yscale \$1;
#X msg 436 107 /EvilPrince_Bulle*/Activate 1;
#X obj 176 411 send OSC_MESSAGES;
#X obj 171 64 bng 15 250 50 0 empty empty empty 17 7 0 10 -262144 -1
-1;
#X msg 299 129 0.1;
#X msg 346 134 0.01;
#X obj 397 218 line;
#X msg 441 144 /EvilPrince_BullePotium/Activate 0;
#X obj 265 49 t b b b;
#X msg 348 163 0.7 \$1;
#X msg 91 115 2;
#X obj 840 50 r disparitionBulleHomoBlack;
#X obj 883 90 bng 15 250 50 0 empty empty empty 17 7 0 10 -262144 -1
-1;
#X obj 897 129 t b b;
#X msg 1027 146 1;
#X obj 881 257 send OSC_MESSAGES;
#X obj 902 190 line;
#X msg 890 213 /EvilPrince_Bulle*/Alpha \$1;
#X msg 834 146 0 200;
#X msg 825 260 0.1 200;
#X msg 435 82 /EvilPrince_Bulle*/Alpha 1;
#X msg 447 173 /EvilPrince_BulleContent/Zpos -1;
#X msg 42 113 0.264631;
#X msg 50 158 3.75463 \$1;
#X msg 298 165 4.55463 \$1;
#X msg 811 224 0.264631 200;
#X obj 1122 146 delay 205;
#X msg 1122 191 /EvilPrince_BulleContent/ParentName /Dummy;
#X msg 1122 211 /EvilPrince_BullePotium/ParentName /Dummy;
#X msg 1122 231 /EvilPrince_BulleContent/Xpos 0;
#X msg 1122 251 /EvilPrince_BullePotium/Xpos 0;
#X msg 1122 271 /EvilPrince_BulleContent/gXpos 0;
#X connect 0 0 17 0;
#X connect 1 0 9 0;
#X connect 2 0 10 0;
#X connect 3 0 11 0;
#X connect 4 0 12 0;
#X connect 5 0 13 0;
#X connect 6 0 37 0;
#X connect 6 0 38 0;
#X connect 6 0 23 0;
#X connect 6 0 7 0;
#X connect 6 0 8 0;
#X connect 7 0 2 0;
#X connect 8 0 3 0;
#X connect 9 0 16 0;
#X connect 10 0 16 0;
#X connect 11 0 16 0;
#X connect 12 0 16 0;
#X connect 13 0 16 0;
#X connect 14 0 16 0;
#X connect 15 0 16 0;
#X connect 17 0 22 0;
#X connect 18 0 3 0;
#X connect 18 0 2 0;
#X connect 19 0 5 0;
#X connect 19 0 20 0;
#X connect 20 0 14 0;
#X connect 21 0 16 0;
#X connect 22 0 6 0;
#X connect 22 1 36 0;
#X connect 22 1 18 0;
#X connect 22 1 19 0;
#X connect 22 1 21 0;
#X connect 22 1 24 0;
#X connect 22 2 15 0;
#X connect 22 2 34 0;
#X connect 22 2 35 0;
#X connect 23 0 5 0;
#X connect 23 0 20 0;
#X connect 24 0 4 0;
#X connect 25 0 26 0;
#X connect 26 0 27 0;
#X connect 27 0 32 0;
#X connect 27 0 39 0;
#X connect 27 0 33 0;
#X connect 27 0 40 0;
#X connect 27 1 28 0;
#X connect 28 0 30 0;
#X connect 30 0 31 0;
#X connect 31 0 29 0;
#X connect 32 0 30 0;
#X connect 33 0 2 0;
#X connect 34 0 16 0;
#X connect 35 0 16 0;
#X connect 36 0 1 0;
#X connect 37 0 1 0;
#X connect 38 0 4 0;
#X connect 39 0 1 0;
#X connect 40 0 41 0;
#X connect 40 0 42 0;
#X connect 40 0 43 0;
#X connect 40 0 44 0;
#X connect 40 0 45 0;
#X connect 41 0 29 0;
#X connect 42 0 29 0;
#X connect 43 0 29 0;
#X connect 44 0 29 0;
#X connect 45 0 29 0;
