#N canvas 1 100 1438 793 10;
#X declare -path ./lib/sssad;
#X declare -path ./lib/sssad;
#X declare -path ./lib/sssad;
#X declare -path ./lib/sssad;
#X declare -path ./lib/sssad;
#X declare -path ./lib/sssad;
#X declare -path ./lib/sssad;
#X declare -path ./lib/sssad;
#X declare -path ./lib/sssad;
#X obj 44 50 zac.lumiere /CompteReboursContainer;
#X obj 368 63 zac.lumiere /CompteRebours_ComtoiseContainer /CompteReboursContainer
;
#X obj 372 257 zac.lumiere /CompteRebours_Comtoise_Fond /CompteRebours_ComtoiseContainer
;
#X obj 373 430 zac.lumiere /CompteRebours_Comtoise_Corps /CompteRebours_ComtoiseContainer
;
#X obj 373 600 zac.lumiere /CompteRebours_Comtoise_Balancier /CompteRebours_ComtoiseContainer
;
#X obj 648 63 zac.lumiere /CompteRebours_TeleContainer /CompteReboursContainer
;
#X obj 652 257 zac.lumiere /CompteRebours_Tele_Corps /CompteRebours_ComtoiseContainer
;
#X obj 653 600 zac.lumiere /CompteRebours_Tele_Reflet /CompteRebours_ComtoiseContainer
;
#X obj 653 430 zac.lumiere /CompteRebours_Tele_Halo /CompteRebours_ComtoiseContainer
;
#X msg 103 290 0;
#X msg 177 294 1;
#X obj 177 262 r compteReboursActivate;
#X obj 103 236 r compteReboursDeActivate;
#X obj 107 375 send OSC_MESSAGES;
#X msg 124 320 /CompteRebours_Comtoise_*/Activate \$1;
#X msg 124 341 /CompteRebours_Tele_*/Activate \$1;
#X obj 1108 90 compteReboursMove;
#X connect 9 0 14 0;
#X connect 9 0 15 0;
#X connect 10 0 14 0;
#X connect 10 0 15 0;
#X connect 11 0 10 0;
#X connect 12 0 9 0;
#X connect 14 0 13 0;
#X connect 15 0 13 0;
