#N canvas 0 100 1440 800 10;
#X obj 111 85 metro 1000;
#X obj 111 114 t b b;
#X msg 266 307 /CompteRebours_Comtoise_Balancier/Rotate \$1;
#X obj 138 324 send OSC_MESSAGES;
#X msg 181 163 -4.3 250;
#X msg 266 163 12 250;
#X msg 138 233 /CompteRebours_Comtoise_Balancier/Xpos \$1;
#X obj 138 199 line;
#X obj 266 262 line;
#X msg 266 131 0;
#X msg 138 162 -4.5;
#X obj 346 131 delay 250;
#X msg 346 182 0 250;
#X msg 395 182 -4.5 250;
#X obj 487 148 delay 250;
#X msg 487 182 -12 250;
#X obj 266 285 mod 360;
#X msg 559 182 -4.7 250;
#X obj 623 165 delay 250;
#X obj 111 62 bng 15 250 50 0 empty empty empty 17 7 0 10 -262144 -1
-1;
#X msg 215 68 stop;
#X obj 111 19 r comtoiseBalance;
#X obj 215 43 r comtoiseStopBalance;
#X obj 821 34 bng 15 250 50 0 empty empty empty 17 7 0 10 -262144 -1
-1;
#X obj 821 93 metro 100;
#X msg 936 76 /CompteRebours_Tele_*/Child/*pos 1;
#X msg 936 105 /CompteRebours_TeleContainer/Parent/*pos 1;
#X obj 936 387 send OSC_MESSAGES;
#X obj 821 59 t b b;
#X obj 848 155 v /CompteRebours_TeleContainer/Xpos;
#X obj 833 236 +;
#X obj 780 156 random 10;
#X obj 821 122 t b b;
#X obj 884 233 sel 1;
#X obj 833 203 spigot;
#X msg 833 338 /CompteRebours_TeleContainer/Xpos \$1;
#X obj 833 307 line;
#X msg 738 164 0;
#X msg 872 33 stop;
#X msg 884 266 0;
#X msg 921 266 1;
#X obj 884 203 > 1.2;
#X obj 780 186 / 100;
#X obj 1004 233 sel 1;
#X obj 953 203 spigot;
#X msg 1004 266 0;
#X msg 1041 266 1;
#X obj 1004 203 < -1.2;
#X obj 953 236 -;
#X obj 1173 268 +;
#X obj 1120 188 random 10;
#X obj 1161 154 t b b;
#X obj 1224 265 sel 1;
#X obj 1173 235 spigot;
#X obj 1173 339 line;
#X msg 1078 164 0;
#X msg 1224 298 0;
#X msg 1261 298 1;
#X obj 1224 235 > 1.2;
#X obj 1120 218 / 100;
#X obj 1344 265 sel 1;
#X obj 1293 235 spigot;
#X msg 1344 298 0;
#X msg 1381 298 1;
#X obj 1293 268 -;
#X obj 1188 187 v /CompteRebours_TeleContainer/Ypos;
#X msg 1173 370 /CompteRebours_TeleContainer/Ypos \$1;
#X obj 1343 235 < -1;
#X msg 674 370 /CompteRebours_Tele_Halo/Alpha \$1;
#X msg 669 285 1;
#X obj 674 317 -;
#X obj 726 277 / 10;
#X obj 788 17 r teleFlies;
#X obj 870 13 r teleStopsFlying;
#X obj 117 463 r compteReboursComesInFromJardin;
#X obj 117 486 bng 15 250 50 0 empty empty empty 17 7 0 10 -262144
-1 -1;
#X msg 487 565 /CompteRebours_Comtoise*/Child/Xpos 1;
#X msg 487 595 /CompteRebours_ComtoiseContainer/Parent/Xpos 1;
#X msg 487 532 /CompteRebours_TeleContainer/Parent/Xpos 1;
#X msg 487 501 /CompteRebours_Tele*/Child/Xpos 1;
#X msg 487 623 /CompteReboursContainer/Parent/Xpos 1;
#X obj 487 666 send OSC_MESSAGES;
#X obj 147 501 t b b b;
#X obj 66 546 s compteReboursActivate;
#X msg 166 589 -18;
#X msg 73 601 0 400;
#X msg 166 649 /CompteRebours_*Container/Xpos \$1;
#X obj 166 618 line;
#X obj 843 481 bng 15 250 50 0 empty empty empty 17 7 0 10 -262144
-1 -1;
#X obj 873 496 t b b b;
#X obj 968 513 delay 400;
#X msg 873 600 18 400;
#X obj 976 549 t b b;
#X obj 1003 596 s compteReboursDeActivate;
#X msg 976 632 0;
#X obj 843 458 r compteReboursGetsOutToCour;
#X connect 0 0 1 0;
#X connect 1 0 4 0;
#X connect 1 0 5 0;
#X connect 1 0 11 0;
#X connect 1 1 10 0;
#X connect 1 1 9 0;
#X connect 2 0 3 0;
#X connect 4 0 7 0;
#X connect 5 0 8 0;
#X connect 6 0 3 0;
#X connect 7 0 6 0;
#X connect 8 0 16 0;
#X connect 9 0 8 0;
#X connect 10 0 7 0;
#X connect 11 0 12 0;
#X connect 11 0 13 0;
#X connect 11 0 14 0;
#X connect 12 0 8 0;
#X connect 13 0 7 0;
#X connect 14 0 15 0;
#X connect 14 0 17 0;
#X connect 14 0 18 0;
#X connect 15 0 8 0;
#X connect 16 0 2 0;
#X connect 17 0 7 0;
#X connect 18 0 12 0;
#X connect 18 0 13 0;
#X connect 19 0 0 0;
#X connect 20 0 0 0;
#X connect 20 0 9 0;
#X connect 20 0 10 0;
#X connect 21 0 19 0;
#X connect 22 0 20 0;
#X connect 23 0 28 0;
#X connect 24 0 32 0;
#X connect 24 0 51 0;
#X connect 25 0 27 0;
#X connect 26 0 27 0;
#X connect 28 0 24 0;
#X connect 28 0 46 0;
#X connect 28 0 63 0;
#X connect 28 1 25 0;
#X connect 28 1 26 0;
#X connect 28 1 37 0;
#X connect 28 1 55 0;
#X connect 28 1 69 0;
#X connect 29 0 30 1;
#X connect 29 0 41 0;
#X connect 29 0 47 0;
#X connect 29 0 48 0;
#X connect 30 0 36 0;
#X connect 31 0 42 0;
#X connect 31 0 71 0;
#X connect 32 0 31 0;
#X connect 32 0 70 0;
#X connect 32 1 29 0;
#X connect 33 0 39 0;
#X connect 33 0 40 0;
#X connect 34 0 30 0;
#X connect 35 0 27 0;
#X connect 36 0 35 0;
#X connect 37 0 36 0;
#X connect 38 0 37 0;
#X connect 38 0 24 0;
#X connect 38 0 55 0;
#X connect 39 0 34 1;
#X connect 40 0 44 1;
#X connect 41 0 33 0;
#X connect 42 0 34 0;
#X connect 42 0 44 0;
#X connect 43 0 45 0;
#X connect 43 0 46 0;
#X connect 44 0 48 1;
#X connect 45 0 44 1;
#X connect 46 0 34 1;
#X connect 47 0 43 0;
#X connect 48 0 36 0;
#X connect 49 0 54 0;
#X connect 50 0 59 0;
#X connect 51 0 50 0;
#X connect 51 1 65 0;
#X connect 52 0 56 0;
#X connect 52 0 57 0;
#X connect 53 0 49 0;
#X connect 54 0 66 0;
#X connect 55 0 54 0;
#X connect 56 0 53 1;
#X connect 57 0 61 1;
#X connect 58 0 52 0;
#X connect 59 0 53 0;
#X connect 59 0 61 0;
#X connect 60 0 62 0;
#X connect 60 0 63 0;
#X connect 61 0 64 1;
#X connect 62 0 61 1;
#X connect 63 0 53 1;
#X connect 64 0 54 0;
#X connect 65 0 49 1;
#X connect 65 0 58 0;
#X connect 65 0 64 0;
#X connect 65 0 67 0;
#X connect 66 0 27 0;
#X connect 67 0 60 0;
#X connect 68 0 27 0;
#X connect 69 0 70 0;
#X connect 70 0 68 0;
#X connect 71 0 70 1;
#X connect 72 0 23 0;
#X connect 73 0 38 0;
#X connect 74 0 75 0;
#X connect 75 0 82 0;
#X connect 76 0 81 0;
#X connect 77 0 81 0;
#X connect 78 0 81 0;
#X connect 79 0 81 0;
#X connect 80 0 81 0;
#X connect 82 0 83 0;
#X connect 82 0 85 0;
#X connect 82 1 84 0;
#X connect 82 2 79 0;
#X connect 82 2 78 0;
#X connect 82 2 76 0;
#X connect 82 2 77 0;
#X connect 82 2 80 0;
#X connect 84 0 87 0;
#X connect 85 0 87 0;
#X connect 86 0 81 0;
#X connect 87 0 86 0;
#X connect 88 0 89 0;
#X connect 89 0 91 0;
#X connect 89 1 90 0;
#X connect 89 2 79 0;
#X connect 89 2 78 0;
#X connect 89 2 76 0;
#X connect 89 2 77 0;
#X connect 89 2 80 0;
#X connect 91 0 87 0;
#X connect 92 0 94 0;
#X connect 92 1 93 0;
#X connect 94 0 86 0;
#X connect 95 0 88 0;
