#N canvas 0 97 1440 800 10;
#X obj 111 85 metro 1000;
#X obj 111 114 t b b;
#X obj 138 324 send OSC_MESSAGES;
#X msg 181 163 -4.3 250;
#X msg 266 163 12 250;
#X obj 138 199 line;
#X obj 266 262 line;
#X msg 266 131 0;
#X msg 138 162 -4.5;
#X obj 346 131 delay 250;
#X msg 346 182 0 250;
#X msg 395 182 -4.5 250;
#X obj 487 148 delay 250;
#X msg 487 182 -12 250;
#X obj 266 285 mod 360;
#X msg 559 182 -4.7 250;
#X obj 623 165 delay 250;
#X obj 111 62 bng 15 250 50 0 empty empty empty 17 7 0 10 -262144 -1
-1;
#X msg 215 68 stop;
#X obj 111 19 r comtoiseBalance;
#X obj 215 43 r comtoiseStopBalance;
#X obj 821 34 bng 15 250 50 0 empty empty empty 17 7 0 10 -262144 -1
-1;
#X obj 821 93 metro 100;
#X obj 936 387 send OSC_MESSAGES;
#X obj 821 59 t b b;
#X obj 833 236 +;
#X obj 780 156 random 10;
#X obj 821 122 t b b;
#X obj 884 233 sel 1;
#X obj 833 203 spigot;
#X obj 833 307 line;
#X msg 738 164 0;
#X msg 872 33 stop;
#X msg 884 266 0;
#X msg 921 266 1;
#X obj 884 203 > 1.2;
#X obj 780 186 / 100;
#X obj 1004 233 sel 1;
#X obj 953 203 spigot;
#X msg 1004 266 0;
#X msg 1041 266 1;
#X obj 1004 203 < -1.2;
#X obj 953 236 -;
#X obj 1173 268 +;
#X obj 1120 188 random 10;
#X obj 1161 154 t b b;
#X obj 1224 265 sel 1;
#X obj 1173 235 spigot;
#X obj 1173 339 line;
#X msg 1078 164 0;
#X msg 1224 298 0;
#X msg 1261 298 1;
#X obj 1224 235 > 1.2;
#X obj 1120 218 / 100;
#X obj 1344 265 sel 1;
#X obj 1293 235 spigot;
#X msg 1344 298 0;
#X msg 1381 298 1;
#X obj 1293 268 -;
#X obj 1343 235 < -1;
#X msg 669 285 1;
#X obj 674 317 -;
#X obj 726 277 / 10;
#X obj 788 17 r teleFlies;
#X obj 870 13 r teleStopsFlying;
#X obj 117 463 r compteReboursComesInFromJardin;
#X obj 117 486 bng 15 250 50 0 empty empty empty 17 7 0 10 -262144
-1 -1;
#X obj 487 666 send OSC_MESSAGES;
#X msg 166 589 -18;
#X msg 73 601 0 400;
#X obj 166 618 line;
#X obj 843 486 bng 15 250 50 0 empty empty empty 17 7 0 10 -262144
-1 -1;
#X obj 873 501 t b b b;
#X obj 968 518 delay 400;
#X msg 873 601 18 400;
#X obj 976 550 t b b;
#X obj 1003 597 s compteReboursDeActivate;
#X msg 976 632 0;
#X obj 843 463 r compteReboursGetsOutToCour;
#X obj 66 546 s compteReboursActivate;
#X obj 147 501 t b b b b;
#X obj 198 723 s CompteReboursInit;
#X msg 487 518 /DunjonDoor5*/Child/Xpos 1;
#X msg 487 573 /EvilPrince_BullePotium/Child/Xpos 1;
#X msg 237 541 /DunjonDoor5*/ParentName /EvilPrince_BulleContent;
#X msg 237 596 /EvilPrince_BullePotium/ParentName /EvilPrince_BulleContent
;
#X msg 166 649 /EvilPrince_BulleContent/Xpos \$1;
#X msg 674 370 /EvilPrince_BullePotium/Alpha \$1;
#X msg 1173 370 /EvilPrince_BulleContent/Ypos \$1;
#X msg 833 338 /EvilPrince_BulleContent/Xpos \$1;
#X obj 1188 187 v /EvilPrince_BulleContent/Ypos;
#X obj 848 155 v /EvilPrince_BulleContent/Xpos;
#X msg 936 76 /DunjonDoor5*/Child/*pos 0;
#X msg 138 233 /DunjonDoor5Cadre/Xpos \$1;
#X msg 266 307 /DunjonDoor5Cadre/Rotate \$1;
#X msg 936 100 /EvilPrince_BullePotium/Child/[X-Y]pos 1;
#X obj 1022 648 t b b;
#X msg 1022 687 /DunjonDoor5*/Child/[X-Y]pos 0;
#X msg 1227 665 /DunjonDoor5*/g[X-Y]pos 0;
#X msg 1118 722 /DunjonDoor5*/ParentName /Dummy;
#X obj 1227 795 s OSC_MESSAGES;
#X connect 0 0 1 0;
#X connect 1 0 3 0;
#X connect 1 0 4 0;
#X connect 1 0 9 0;
#X connect 1 1 8 0;
#X connect 1 1 7 0;
#X connect 3 0 5 0;
#X connect 4 0 6 0;
#X connect 5 0 93 0;
#X connect 6 0 14 0;
#X connect 7 0 6 0;
#X connect 8 0 5 0;
#X connect 9 0 10 0;
#X connect 9 0 11 0;
#X connect 9 0 12 0;
#X connect 10 0 6 0;
#X connect 11 0 5 0;
#X connect 12 0 13 0;
#X connect 12 0 15 0;
#X connect 12 0 16 0;
#X connect 13 0 6 0;
#X connect 14 0 94 0;
#X connect 15 0 5 0;
#X connect 16 0 10 0;
#X connect 16 0 11 0;
#X connect 17 0 0 0;
#X connect 18 0 0 0;
#X connect 18 0 7 0;
#X connect 18 0 8 0;
#X connect 19 0 17 0;
#X connect 20 0 18 0;
#X connect 21 0 24 0;
#X connect 22 0 27 0;
#X connect 22 0 45 0;
#X connect 24 0 22 0;
#X connect 24 0 40 0;
#X connect 24 0 57 0;
#X connect 24 1 92 0;
#X connect 24 1 31 0;
#X connect 24 1 49 0;
#X connect 24 1 60 0;
#X connect 24 1 95 0;
#X connect 25 0 30 0;
#X connect 26 0 36 0;
#X connect 26 0 62 0;
#X connect 27 0 26 0;
#X connect 27 0 61 0;
#X connect 27 1 91 0;
#X connect 28 0 33 0;
#X connect 28 0 34 0;
#X connect 29 0 25 0;
#X connect 30 0 89 0;
#X connect 31 0 30 0;
#X connect 32 0 31 0;
#X connect 32 0 22 0;
#X connect 32 0 49 0;
#X connect 33 0 29 1;
#X connect 34 0 38 1;
#X connect 35 0 28 0;
#X connect 36 0 29 0;
#X connect 36 0 38 0;
#X connect 37 0 39 0;
#X connect 37 0 40 0;
#X connect 38 0 42 1;
#X connect 39 0 38 1;
#X connect 40 0 29 1;
#X connect 41 0 37 0;
#X connect 42 0 30 0;
#X connect 43 0 48 0;
#X connect 44 0 53 0;
#X connect 45 0 44 0;
#X connect 45 1 90 0;
#X connect 46 0 50 0;
#X connect 46 0 51 0;
#X connect 47 0 43 0;
#X connect 48 0 88 0;
#X connect 49 0 48 0;
#X connect 50 0 47 1;
#X connect 51 0 55 1;
#X connect 52 0 46 0;
#X connect 53 0 47 0;
#X connect 53 0 55 0;
#X connect 54 0 56 0;
#X connect 54 0 57 0;
#X connect 55 0 58 1;
#X connect 56 0 55 1;
#X connect 57 0 47 1;
#X connect 58 0 48 0;
#X connect 59 0 54 0;
#X connect 60 0 61 0;
#X connect 61 0 87 0;
#X connect 62 0 61 1;
#X connect 63 0 21 0;
#X connect 64 0 32 0;
#X connect 65 0 66 0;
#X connect 66 0 80 0;
#X connect 68 0 70 0;
#X connect 69 0 70 0;
#X connect 70 0 86 0;
#X connect 71 0 72 0;
#X connect 72 0 74 0;
#X connect 72 1 73 0;
#X connect 72 2 82 0;
#X connect 72 2 83 0;
#X connect 74 0 70 0;
#X connect 75 0 77 0;
#X connect 75 1 76 0;
#X connect 77 0 86 0;
#X connect 78 0 71 0;
#X connect 80 0 69 0;
#X connect 80 0 79 0;
#X connect 80 1 68 0;
#X connect 80 2 82 0;
#X connect 80 2 83 0;
#X connect 80 3 81 0;
#X connect 80 3 84 0;
#X connect 80 3 85 0;
#X connect 82 0 67 0;
#X connect 83 0 67 0;
#X connect 84 0 67 0;
#X connect 85 0 67 0;
#X connect 86 0 67 0;
#X connect 87 0 23 0;
#X connect 88 0 23 0;
#X connect 89 0 23 0;
#X connect 90 0 43 1;
#X connect 90 0 52 0;
#X connect 90 0 58 0;
#X connect 90 0 59 0;
#X connect 91 0 25 1;
#X connect 91 0 35 0;
#X connect 91 0 41 0;
#X connect 91 0 42 0;
#X connect 92 0 23 0;
#X connect 93 0 2 0;
#X connect 94 0 2 0;
#X connect 95 0 23 0;
#X connect 96 0 97 0;
#X connect 96 1 98 0;
#X connect 96 1 99 0;
#X connect 97 0 100 0;
#X connect 98 0 100 0;
#X connect 99 0 100 0;
