#N canvas 249 292 450 300 10;
#X msg 66 61 -5.1;
#X obj 276 -13 loadbang;
#X msg 128 61 4.83 400;
#X obj 68 183 send OSC_MESSAGES;
#X msg 86 155 /EvilPrinceContainer/Xpos \$1;
#X obj 128 12 bng 15 250 50 0 empty empty empty 17 7 0 10 -262144 -1
-1;
#X obj 128 32 t b b;
#X obj 146 119 line;
#X obj 128 -21 r evilPrinceMovesCour;
#X obj 31 -14 r DunjonBang;
#X msg 249 89 /EvilPrince_*/Child/Xpos 1;
#X obj 276 23 t b b;
#X msg 247 117 /EvilPrinceContainer/Parent/Xpos 1;
#X connect 0 0 7 0;
#X connect 1 0 11 0;
#X connect 2 0 7 0;
#X connect 4 0 3 0;
#X connect 5 0 6 0;
#X connect 6 0 2 0;
#X connect 6 1 0 0;
#X connect 7 0 4 0;
#X connect 8 0 5 0;
#X connect 9 0 0 0;
#X connect 10 0 3 0;
#X connect 11 0 0 0;
#X connect 11 1 10 0;
#X connect 11 1 12 0;
#X connect 12 0 3 0;
