#N canvas 0 99 1440 800 10;
#X msg 66 61 -5.1;
#X obj 276 -13 loadbang;
#X msg 128 61 4.83 400;
#X obj 68 183 send OSC_MESSAGES;
#X obj 128 12 bng 15 250 50 0 empty empty empty 17 7 0 10 -262144 -1
-1;
#X obj 128 32 t b b;
#X obj 146 119 line;
#X obj 128 -21 r evilPrinceMovesCour;
#X obj 31 -14 r DunjonBang;
#X obj 636 1 r evilPrinceDeception;
#X obj 636 30 bng 15 250 50 0 empty empty empty 17 7 0 10 -262144 -1
-1;
#X msg 636 148 /EvilPrince_Bouche/File /home/woii/2013_Sebkha-ChottGalootFormula_ThingFish/ThingFishVideoDecorum/EvilPrince/data/2013_06_28_Evil_Prince_def2_Grimace.png
;
#X obj 636 248 send OSC_MESSAGES;
#X obj 761 45 s EP_BrasCour;
#X obj 276 23 t b;
#X msg 86 155 /EvilPrince_Corps/Xpos \$1;
#X connect 0 0 6 0;
#X connect 1 0 14 0;
#X connect 2 0 6 0;
#X connect 4 0 5 0;
#X connect 5 0 2 0;
#X connect 5 1 0 0;
#X connect 6 0 15 0;
#X connect 7 0 4 0;
#X connect 8 0 0 0;
#X connect 9 0 10 0;
#X connect 10 0 11 0;
#X connect 10 0 13 0;
#X connect 11 0 12 0;
#X connect 14 0 0 0;
#X connect 15 0 3 0;
