#N canvas 288 204 894 545 10;
#X msg 117 91 /EvilPrince_BrasCourFiole/Activate 1;
#X msg 117 119 /EvilPrince_BrasCour/Activate 0;
#X obj 117 17 r finalSolutium;
#X obj 117 45 bng 15 250 50 0 empty empty empty 17 7 0 10 -262144 -1
-1;
#X obj 117 185 send OSC_MESSAGES;
#X obj 406 60 delay 300;
#X obj 406 97 t b b b;
#X obj 406 239 line;
#X obj 406 357 send OSC_MESSAGES;
#X msg 425 263 /EvilPrince_BullePotium/Activate 1;
#X msg 406 292 /EvilPrince_BullePotium/Zpos \$1;
#X obj 294 249 line;
#X msg 294 319 /EvilPrince_BulleContent/Zpos \$1;
#X msg 294 197 -1;
#X msg 445 129 -2.9;
#X msg 670 193 -2.9 200;
#X obj 645 86 delay 250;
#X obj 350 181 delay 30;
#X msg 406 149 -1.01 30;
#X msg 351 202 0 50;
#X msg 314 221 3 50;
#X connect 0 0 4 0;
#X connect 1 0 4 0;
#X connect 2 0 3 0;
#X connect 3 0 0 0;
#X connect 3 0 1 0;
#X connect 3 0 5 0;
#X connect 5 0 6 0;
#X connect 5 0 16 0;
#X connect 6 0 18 0;
#X connect 6 0 17 0;
#X connect 6 1 9 0;
#X connect 6 2 14 0;
#X connect 6 2 13 0;
#X connect 7 0 10 0;
#X connect 9 0 8 0;
#X connect 10 0 8 0;
#X connect 11 0 12 0;
#X connect 12 0 8 0;
#X connect 13 0 11 0;
#X connect 14 0 7 0;
#X connect 15 0 7 0;
#X connect 16 0 15 0;
#X connect 17 0 20 0;
#X connect 17 0 19 0;
#X connect 18 0 7 0;
#X connect 19 0 7 0;
#X connect 20 0 11 0;
