#N canvas 0 95 1440 800 10;
#X declare -path ./lib/sssad;
#X declare -path ./lib/sssad;
#X declare -path ./lib/sssad;
#X declare -path ./lib/sssad;
#X declare -path ./lib/sssad;
#X declare -path ./lib/sssad;
#X declare -path ./lib/sssad;
#X declare -path ./lib/sssad;
#X declare -path ./lib/sssad;
#X declare -path ./lib/sssad;
#X declare -path ./lib/sssad;
#X declare -path ./lib/sssad;
#X declare -path ./lib/sssad;
#X declare -path ./lib/sssad;
#X declare -path ./lib/sssad;
#X declare -path ./lib/sssad;
#X declare -path ./lib/sssad;
#X declare -path ./lib/sssad;
#X declare -path ./lib/sssad;
#X declare -path ./lib/sssad;
#X obj 58 57 zac.lumiere /EvilPrinceContainer;
#X obj 491 228 zac.lumiere /EvilPrince_Corps /EvilPrinceContainer;
#X obj 498 30 zac.lumiere /EvilPrince_Tete /EvilPrinceContainer;
#X obj 196 303 zac.lumiere /EvilPrince_BrasJardin /EvilPrinceContainer
;
#X obj 806 390 zac.lumiere /EvilPrince_BrasCour /EvilPrinceContainer
;
#X msg 219 547 /EvilPrince_*/Activate \$1;
#X msg 195 512 0;
#X msg 239 520 1;
#X obj 311 656 send OSC_MESSAGES;
#X obj 421 576 zac.lumiere /EvilPrince_Aura /EvilPrinceContainer;
#X obj 105 717 evilPrinceMoves;
#X obj 73 487 r evilPrinceInit;
#X obj 803 1 zac.lumiere /EvilPrince_Bulle /EvilPrinceContainer;
#X msg 41 594 /EvilPrince_Bulle/Activate 0;
#X obj 756 203 zac.lumiere /EvilPrince_BulleContent /EvilPrinceContainer
;
#X msg 41 625 /EvilPrince_BulleContent/Activate 0;
#X obj 1207 18 apparitionBulle;
#X obj 1074 205 zac.lumiere /EvilPrince_BullePotium /EvilPrinceContainer
;
#X msg 44 661 /EvilPrince_BullePotium/Activate 0;
#X obj 1217 75 finalSolutium;
#X obj 1111 400 zac.lumiere /EvilPrince_Idee /EvilPrinceContainer;
#X obj 504 416 zac.lumiere /EvilPrince_Bouche /EvilPrinceContainer
;
#X msg 137 693 /EvilPrince_Idee/Activate 0;
#X msg 72 686 /EvilPrince_Bouche/Activate 0;
#X obj 1210 113 allumageIdee;
#X obj 1151 50 compteRebours;
#X obj 226 486 r evilPrinceOff;
#N canvas 739 99 690 651 EP_BrasCourFiole 0;
#X obj 224 512 send OSC_MESSAGES;
#X obj 104 439 list prepend;
#X obj 61 33 bng 15 250 50 0 empty empty empty 17 7 0 10 -262144 -1
-1;
#X obj 104 462 l2s /;
#X msg 104 122 File;
#X obj 224 479 list;
#X msg 104 99 Zpos;
#X msg 104 316 RenderOrder;
#X msg 104 359 Yscale;
#X msg 104 379 Xscale;
#X msg 104 399 Ypos;
#X msg 104 419 Xpos;
#X msg 104 215 Blue;
#X msg 104 174 Red;
#X msg 104 195 Green;
#X msg 104 295 modeAlpha;
#X msg 104 338 Shape;
#X msg 104 235 Rotate;
#X msg 104 274 Alpha;
#X msg 104 254 Activate;
#X obj 61 52 t b b b;
#X obj 46 105 t b b b;
#X obj 46 299 t b b b;
#X obj 46 342 t b b b;
#X obj 46 362 t b b b;
#X obj 46 382 t b b b;
#X obj 46 402 t b b b;
#X obj 7 321 t b b b;
#X obj 6 278 t b b b;
#X obj 46 257 t b b b;
#X obj 46 237 t b b b;
#X obj 46 218 t b b b;
#X obj 7 198 t b b b;
#X obj 7 178 t b b b;
#X obj 7 157 t b b b;
#X msg 245 235 0;
#X msg 245 254 1;
#X msg 173 69 /EvilPrince_BrasCour;
#X msg 245 99 -3.01001;
#X msg 245 122 /home/woii/2013_Sebkha-ChottGalootFormula_ThingFish/ThingFishVideoDecorum/EvilPrince/data/2013_07_29_Evil_Prince_main_fiole.png
;
#X msg 245 316 -24;
#X msg 245 359 0.4;
#X msg 245 379 0.15;
#X msg 245 399 -0.673826;
#X obj 61 12 r EP_BrasCourFiole;
#X msg 245 274 1;
#X msg 245 419 0.681881;
#X connect 1 0 3 0;
#X connect 2 0 20 0;
#X connect 3 0 5 0;
#X connect 4 0 1 0;
#X connect 5 0 0 0;
#X connect 6 0 1 0;
#X connect 7 0 1 0;
#X connect 8 0 1 0;
#X connect 9 0 1 0;
#X connect 10 0 1 0;
#X connect 11 0 1 0;
#X connect 12 0 1 0;
#X connect 13 0 1 0;
#X connect 14 0 1 0;
#X connect 15 0 1 0;
#X connect 17 0 1 0;
#X connect 18 0 1 0;
#X connect 19 0 1 0;
#X connect 20 0 6 0;
#X connect 20 0 21 0;
#X connect 20 1 38 0;
#X connect 20 2 37 0;
#X connect 21 0 31 0;
#X connect 21 1 4 0;
#X connect 21 2 39 0;
#X connect 22 0 23 0;
#X connect 22 1 7 0;
#X connect 22 2 40 0;
#X connect 23 0 24 0;
#X connect 23 1 8 0;
#X connect 23 2 41 0;
#X connect 24 0 25 0;
#X connect 24 1 9 0;
#X connect 24 2 42 0;
#X connect 25 0 26 0;
#X connect 25 1 10 0;
#X connect 25 2 43 0;
#X connect 26 1 11 0;
#X connect 26 2 46 0;
#X connect 27 1 16 0;
#X connect 28 1 15 0;
#X connect 29 0 22 0;
#X connect 29 1 18 0;
#X connect 29 2 45 0;
#X connect 30 0 29 0;
#X connect 30 1 19 0;
#X connect 30 2 36 0;
#X connect 31 0 30 0;
#X connect 31 1 17 0;
#X connect 31 2 35 0;
#X connect 32 1 12 0;
#X connect 33 1 14 0;
#X connect 34 1 13 0;
#X connect 35 0 5 1;
#X connect 36 0 5 1;
#X connect 37 0 1 1;
#X connect 38 0 5 1;
#X connect 39 0 5 1;
#X connect 40 0 5 1;
#X connect 41 0 5 1;
#X connect 42 0 5 1;
#X connect 43 0 5 1;
#X connect 44 0 2 0;
#X connect 45 0 5 1;
#X connect 46 0 5 1;
#X restore 1205 619 pd EP_BrasCourFiole;
#N canvas 983 98 450 796 EP_BrasCour 0;
#X obj 234 522 send OSC_MESSAGES;
#X obj 114 449 list prepend;
#X obj 71 43 bng 15 250 50 0 empty empty empty 17 7 0 10 -262144 -1
-1;
#X obj 114 472 l2s /;
#X msg 114 132 File;
#X obj 234 489 list;
#X msg 114 109 Zpos;
#X msg 114 326 RenderOrder;
#X msg 114 369 Yscale;
#X msg 114 389 Xscale;
#X msg 114 409 Ypos;
#X msg 114 429 Xpos;
#X msg 114 225 Blue;
#X msg 114 184 Red;
#X msg 114 205 Green;
#X msg 114 305 modeAlpha;
#X msg 114 348 Shape;
#X msg 114 245 Rotate;
#X msg 114 284 Alpha;
#X msg 114 264 Activate;
#X obj 71 62 t b b b;
#X obj 56 115 t b b b;
#X obj 56 309 t b b b;
#X obj 56 352 t b b b;
#X obj 56 372 t b b b;
#X obj 56 392 t b b b;
#X obj 56 412 t b b b;
#X obj 17 331 t b b b;
#X obj 16 288 t b b b;
#X obj 56 267 t b b b;
#X obj 56 247 t b b b;
#X obj 56 228 t b b b;
#X obj 17 208 t b b b;
#X obj 17 188 t b b b;
#X obj 17 167 t b b b;
#X msg 255 245 0;
#X msg 255 264 1;
#X msg 183 79 /EvilPrince_BrasCour;
#X obj 71 22 r EP_BrasCour;
#X msg 255 109 -3.01001;
#X msg 255 132 /home/orl/2013_Sebkha-ChottGalootFormula_ThingFish/ThingFishVideoDecorum/EvilPrince/data/2013_07_29_Evil_Prince_avantbras_cour_poche.png
;
#X msg 255 284 0.718121;
#X msg 255 326 -24;
#X msg 255 369 0.3;
#X msg 255 389 0.35;
#X msg 255 409 -0.942282;
#X msg 255 429 0.440271;
#X connect 1 0 3 0;
#X connect 2 0 20 0;
#X connect 3 0 5 0;
#X connect 4 0 1 0;
#X connect 5 0 0 0;
#X connect 6 0 1 0;
#X connect 7 0 1 0;
#X connect 8 0 1 0;
#X connect 9 0 1 0;
#X connect 10 0 1 0;
#X connect 11 0 1 0;
#X connect 12 0 1 0;
#X connect 13 0 1 0;
#X connect 14 0 1 0;
#X connect 15 0 1 0;
#X connect 17 0 1 0;
#X connect 18 0 1 0;
#X connect 19 0 1 0;
#X connect 20 0 6 0;
#X connect 20 0 21 0;
#X connect 20 1 39 0;
#X connect 20 2 37 0;
#X connect 21 0 31 0;
#X connect 21 1 4 0;
#X connect 21 2 40 0;
#X connect 22 0 23 0;
#X connect 22 1 7 0;
#X connect 22 2 42 0;
#X connect 23 0 24 0;
#X connect 23 1 8 0;
#X connect 23 2 43 0;
#X connect 24 0 25 0;
#X connect 24 1 9 0;
#X connect 24 2 44 0;
#X connect 25 0 26 0;
#X connect 25 1 10 0;
#X connect 25 2 45 0;
#X connect 26 1 11 0;
#X connect 26 2 46 0;
#X connect 27 1 16 0;
#X connect 28 1 15 0;
#X connect 29 0 22 0;
#X connect 29 1 18 0;
#X connect 29 2 41 0;
#X connect 30 0 29 0;
#X connect 30 1 19 0;
#X connect 30 2 36 0;
#X connect 31 0 30 0;
#X connect 31 1 17 0;
#X connect 31 2 35 0;
#X connect 32 1 12 0;
#X connect 33 1 14 0;
#X connect 34 1 13 0;
#X connect 35 0 5 1;
#X connect 36 0 5 1;
#X connect 37 0 1 1;
#X connect 38 0 2 0;
#X connect 39 0 5 1;
#X connect 40 0 5 1;
#X connect 41 0 5 1;
#X connect 42 0 5 1;
#X connect 43 0 5 1;
#X connect 44 0 5 1;
#X connect 45 0 5 1;
#X connect 46 0 5 1;
#X restore 1206 638 pd EP_BrasCour;
#N canvas 989 99 450 765 EP_AllumageIdee 0;
#X obj 244 532 send OSC_MESSAGES;
#X obj 124 459 list prepend;
#X obj 81 53 bng 15 250 50 0 empty empty empty 17 7 0 10 -262144 -1
-1;
#X obj 124 482 l2s /;
#X msg 124 142 File;
#X obj 244 499 list;
#X msg 124 119 Zpos;
#X msg 124 336 RenderOrder;
#X msg 124 379 Yscale;
#X msg 124 399 Xscale;
#X msg 124 419 Ypos;
#X msg 124 439 Xpos;
#X msg 124 235 Blue;
#X msg 124 194 Red;
#X msg 124 215 Green;
#X msg 124 315 modeAlpha;
#X msg 124 358 Shape;
#X msg 124 255 Rotate;
#X msg 124 294 Alpha;
#X msg 124 274 Activate;
#X obj 81 72 t b b b;
#X obj 66 125 t b b b;
#X obj 66 319 t b b b;
#X obj 66 362 t b b b;
#X obj 66 382 t b b b;
#X obj 66 402 t b b b;
#X obj 66 422 t b b b;
#X obj 27 341 t b b b;
#X obj 26 298 t b b b;
#X obj 66 277 t b b b;
#X obj 66 257 t b b b;
#X obj 66 238 t b b b;
#X obj 27 218 t b b b;
#X obj 27 198 t b b b;
#X obj 27 177 t b b b;
#X msg 265 274 1;
#X obj 81 32 r EP_AllumageIdee;
#X msg 193 89 /EvilPrince_Bulle;
#X msg 265 294 1;
#X msg 265 119 -3;
#X msg 265 142 /home/woii/2013_Sebkha-ChottGalootFormula_ThingFish/ThingFishVideoDecorum/EvilPrince/data/2013_06_26_EP_ampoule_allumée.png
;
#X msg 265 255 26.5772;
#X msg 265 379 0.7;
#X msg 265 399 0.7;
#X msg 265 419 1.20805;
#X msg 265 336 -2;
#X msg 265 439 -0.805369;
#X connect 1 0 3 0;
#X connect 2 0 20 0;
#X connect 3 0 5 0;
#X connect 4 0 1 0;
#X connect 5 0 0 0;
#X connect 6 0 1 0;
#X connect 7 0 1 0;
#X connect 8 0 1 0;
#X connect 9 0 1 0;
#X connect 10 0 1 0;
#X connect 11 0 1 0;
#X connect 12 0 1 0;
#X connect 13 0 1 0;
#X connect 14 0 1 0;
#X connect 15 0 1 0;
#X connect 17 0 1 0;
#X connect 18 0 1 0;
#X connect 19 0 1 0;
#X connect 20 0 6 0;
#X connect 20 0 21 0;
#X connect 20 1 39 0;
#X connect 20 2 37 0;
#X connect 21 0 31 0;
#X connect 21 1 4 0;
#X connect 21 2 40 0;
#X connect 22 0 23 0;
#X connect 22 1 7 0;
#X connect 22 2 45 0;
#X connect 23 0 24 0;
#X connect 23 1 8 0;
#X connect 23 2 42 0;
#X connect 24 0 25 0;
#X connect 24 1 9 0;
#X connect 24 2 43 0;
#X connect 25 0 26 0;
#X connect 25 1 10 0;
#X connect 25 2 44 0;
#X connect 26 1 11 0;
#X connect 26 2 46 0;
#X connect 27 1 16 0;
#X connect 28 1 15 0;
#X connect 29 0 22 0;
#X connect 29 1 18 0;
#X connect 29 2 38 0;
#X connect 30 0 29 0;
#X connect 30 1 19 0;
#X connect 30 2 35 0;
#X connect 31 0 30 0;
#X connect 31 1 17 0;
#X connect 31 2 41 0;
#X connect 32 1 12 0;
#X connect 33 1 14 0;
#X connect 34 1 13 0;
#X connect 35 0 5 1;
#X connect 36 0 2 0;
#X connect 37 0 1 1;
#X connect 38 0 5 1;
#X connect 39 0 5 1;
#X connect 40 0 5 1;
#X connect 41 0 5 1;
#X connect 42 0 5 1;
#X connect 43 0 5 1;
#X connect 44 0 5 1;
#X connect 45 0 5 1;
#X connect 46 0 5 1;
#X restore 1207 671 pd EP_AllumageIdee;
#X msg 853 631 /EvilPrince_*/Child/Xpos 1;
#X msg 871 661 /EvilPrince_*/ParentName /EvilPrince_Corps;
#X obj 920 747 s OSC_MESSAGES;
#X obj 845 597 bng 15 250 50 0 empty empty empty 17 7 0 10 -262144
-1 -1;
#X obj 906 604 t b b;
#X msg 935 701 /EvilPrince_Corps/Child/Xpos 0;
#X msg 1041 728 /EvilPrince_Corps/ParentName /Dummy;
#X obj 85 526 t b b b b;
#X obj 144 572 s EvilPrinceInitPlace;
#X connect 5 0 8 0;
#X connect 6 0 5 0;
#X connect 7 0 5 0;
#X connect 11 0 37 0;
#X connect 13 0 8 0;
#X connect 15 0 8 0;
#X connect 18 0 8 0;
#X connect 22 0 8 0;
#X connect 23 0 8 0;
#X connect 26 0 6 0;
#X connect 30 0 32 0;
#X connect 31 0 32 0;
#X connect 33 0 34 0;
#X connect 34 0 35 0;
#X connect 34 0 36 0;
#X connect 34 1 30 0;
#X connect 34 1 31 0;
#X connect 36 0 32 0;
#X connect 37 0 13 0;
#X connect 37 0 15 0;
#X connect 37 0 18 0;
#X connect 37 0 22 0;
#X connect 37 0 23 0;
#X connect 37 1 7 0;
#X connect 37 2 38 0;
#X connect 37 3 33 0;
