#N canvas 1 100 1278 796 10;
#X declare -path ./lib/sssad;
#X declare -path ./lib/sssad;
#X obj 148 623 daThingFishHandsMoves;
#X obj 55 11 zac.lumiere /HandJardin;
#X obj 303 17 zac.lumiere /HandCour;
#X obj 152 585 daThingFishHandsOut;
#X obj 355 687 outlet TrigThingFishOut;
#X obj 148 479 inlet HandsOut;
#X obj 381 271 daThingFishHandCourCineticScroll;
#N canvas 812 100 552 563 HandJardinUsualActivate 0;
#X obj 224 562 send OSC_MESSAGES;
#X obj 104 489 list prepend;
#X obj 61 33 bng 15 250 50 0 empty empty empty 17 7 0 10 -262144 -1
-1;
#X msg 173 69 /HandJardin;
#X obj 104 512 l2s /;
#X msg 104 122 File;
#X obj 224 529 list;
#X msg 104 99 Zpos;
#X msg 245 379 0.76;
#X msg 245 399 0;
#X msg 104 316 RenderOrder;
#X msg 104 359 Yscale;
#X msg 104 379 Xscale;
#X msg 104 399 Ypos;
#X msg 104 419 Xpos;
#X msg 104 215 Blue;
#X msg 104 174 Red;
#X msg 104 195 Green;
#X msg 104 295 modeAlpha;
#X msg 104 338 Shape;
#X msg 104 235 Rotate;
#X msg 104 274 Alpha;
#X msg 104 254 Activate;
#X obj 61 52 t b b b;
#X obj 46 105 t b b b;
#X obj 46 299 t b b b;
#X obj 46 342 t b b b;
#X obj 46 362 t b b b;
#X obj 46 382 t b b b;
#X obj 46 402 t b b b;
#X obj 7 321 t b b b;
#X obj 6 278 t b b b;
#X obj 6 257 t b b b;
#X obj 46 237 t b b b;
#X obj 46 218 t b b b;
#X obj 7 198 t b b b;
#X obj 7 178 t b b b;
#X obj 7 157 t b b b;
#X msg 245 235 0;
#X msg 245 419 0.42;
#X msg 245 254 1;
#X obj 61 12 r HJardinUsualActivate;
#X msg 245 99 -3.1;
#X msg 245 122 /home/woii/2013_Sebkha-ChottGalootFormula_ThingFish/ThingFishVideoDecorum/DaThingFish/DaThingFishFace/data/handJardin.png
;
#X msg 245 316 -27;
#X msg 245 359 0.52;
#X obj 46 422 t b b b;
#X msg 104 439 Flip;
#X msg 245 439 0;
#X connect 1 0 4 0;
#X connect 2 0 23 0;
#X connect 3 0 1 1;
#X connect 4 0 6 0;
#X connect 5 0 1 0;
#X connect 6 0 0 0;
#X connect 7 0 1 0;
#X connect 8 0 6 1;
#X connect 9 0 6 1;
#X connect 10 0 1 0;
#X connect 11 0 1 0;
#X connect 12 0 1 0;
#X connect 13 0 1 0;
#X connect 14 0 1 0;
#X connect 15 0 1 0;
#X connect 16 0 1 0;
#X connect 17 0 1 0;
#X connect 18 0 1 0;
#X connect 20 0 1 0;
#X connect 21 0 1 0;
#X connect 22 0 1 0;
#X connect 23 0 7 0;
#X connect 23 0 24 0;
#X connect 23 1 42 0;
#X connect 23 2 3 0;
#X connect 24 0 25 0;
#X connect 24 0 34 0;
#X connect 24 0 33 0;
#X connect 24 1 5 0;
#X connect 24 2 43 0;
#X connect 25 0 26 0;
#X connect 25 1 10 0;
#X connect 25 2 44 0;
#X connect 26 0 27 0;
#X connect 26 1 11 0;
#X connect 26 2 45 0;
#X connect 27 0 28 0;
#X connect 27 1 12 0;
#X connect 27 2 8 0;
#X connect 28 0 29 0;
#X connect 28 1 13 0;
#X connect 28 2 9 0;
#X connect 29 0 46 0;
#X connect 29 1 14 0;
#X connect 29 2 39 0;
#X connect 30 1 19 0;
#X connect 31 1 18 0;
#X connect 32 1 21 0;
#X connect 33 1 22 0;
#X connect 33 2 40 0;
#X connect 34 1 20 0;
#X connect 34 2 38 0;
#X connect 35 1 15 0;
#X connect 36 1 17 0;
#X connect 37 1 16 0;
#X connect 38 0 6 1;
#X connect 39 0 6 1;
#X connect 40 0 6 1;
#X connect 41 0 2 0;
#X connect 42 0 6 1;
#X connect 43 0 6 1;
#X connect 44 0 6 1;
#X connect 45 0 6 1;
#X connect 46 1 47 0;
#X connect 46 2 48 0;
#X connect 47 0 1 0;
#X connect 48 0 6 1;
#X restore 185 329 pd HandJardinUsualActivate;
#X obj 708 22 loadbang;
#X obj 708 51 bng 15 250 50 0 empty empty empty 17 7 0 10 -262144 -1
-1;
#X obj 1062 66 t b b;
#X obj 708 214 send OSC_MESSAGES;
#X msg 708 90 /HandJardin/AddFile /home/woii/2013_Sebkha-ChottGalootFormula_ThingFish/ThingFishVideoDecorum/DaThingFish/DaThingFishFace/data/2013_06_25_TF_Main_tire_rideau_jardin.png
;
#X msg 1089 90 /HandCour/AddFile /home/woii/2013_Sebkha-ChottGalootFormula_ThingFish/ThingFishVideoDecorum/DaThingFish/DaThingFishFace/data/2013_06_25_TF_Main_tire_rideau_cour.png
;
#X msg 1089 158 /HandCour/AddFile /home/woii/2013_Sebkha-ChottGalootFormula_ThingFish/ThingFishVideoDecorum/DaThingFish/DaThingFishFace/data/2013_06_25_TF_Main_defilement.png
;
#N canvas 816 100 552 749 HandJardinPointerActivate 0;
#X obj 224 582 send OSC_MESSAGES;
#X obj 104 509 list prepend;
#X obj 61 33 bng 15 250 50 0 empty empty empty 17 7 0 10 -262144 -1
-1;
#X msg 173 69 /HandJardin;
#X obj 104 532 l2s /;
#X msg 104 122 File;
#X obj 224 549 list;
#X msg 104 99 Zpos;
#X msg 245 399 0;
#X msg 104 316 RenderOrder;
#X msg 104 359 Yscale;
#X msg 104 379 Xscale;
#X msg 104 399 Ypos;
#X msg 104 419 Xpos;
#X msg 104 215 Blue;
#X msg 104 174 Red;
#X msg 104 195 Green;
#X msg 104 295 modeAlpha;
#X msg 104 338 Shape;
#X msg 104 235 Rotate;
#X msg 104 274 Alpha;
#X msg 104 254 Activate;
#X obj 61 52 t b b b;
#X obj 46 105 t b b b;
#X obj 46 299 t b b b;
#X obj 46 342 t b b b;
#X obj 46 362 t b b b;
#X obj 6 382 t b b b;
#X obj 6 402 t b b b;
#X obj 7 321 t b b b;
#X obj 6 278 t b b b;
#X obj 6 257 t b b b;
#X obj 46 237 t b b b;
#X obj 46 218 t b b b;
#X obj 7 198 t b b b;
#X obj 7 178 t b b b;
#X obj 7 157 t b b b;
#X msg 245 235 0;
#X msg 245 419 0.42;
#X msg 245 254 1;
#X msg 245 316 -27;
#X obj 61 12 r HJardinPointerActivate;
#X msg 245 122 /home/woii/2013_Sebkha-ChottGalootFormula_ThingFish/ThingFishVideoDecorum/DaThingFish/DaThingFishFace/data/2013_06_25_TF_Main_pointant_du_doigt.png
;
#X obj 46 422 t b b b;
#X msg 104 439 Flip;
#X msg 245 439 1;
#X msg 245 99 -2.8;
#X msg 245 359 0.6;
#X msg 245 379 1.2;
#X connect 1 0 4 0;
#X connect 2 0 22 0;
#X connect 3 0 1 1;
#X connect 4 0 6 0;
#X connect 5 0 1 0;
#X connect 6 0 0 0;
#X connect 7 0 1 0;
#X connect 8 0 6 1;
#X connect 9 0 1 0;
#X connect 10 0 1 0;
#X connect 11 0 1 0;
#X connect 12 0 1 0;
#X connect 13 0 1 0;
#X connect 14 0 1 0;
#X connect 15 0 1 0;
#X connect 16 0 1 0;
#X connect 17 0 1 0;
#X connect 19 0 1 0;
#X connect 20 0 1 0;
#X connect 21 0 1 0;
#X connect 22 0 7 0;
#X connect 22 0 23 0;
#X connect 22 1 46 0;
#X connect 22 2 3 0;
#X connect 23 0 24 0;
#X connect 23 0 33 0;
#X connect 23 0 32 0;
#X connect 23 1 5 0;
#X connect 23 2 42 0;
#X connect 24 0 25 0;
#X connect 24 1 9 0;
#X connect 24 2 40 0;
#X connect 25 0 26 0;
#X connect 25 1 10 0;
#X connect 25 2 47 0;
#X connect 26 0 43 0;
#X connect 26 1 11 0;
#X connect 26 2 48 0;
#X connect 27 1 12 0;
#X connect 27 2 8 0;
#X connect 28 1 13 0;
#X connect 28 2 38 0;
#X connect 29 1 18 0;
#X connect 30 1 17 0;
#X connect 31 1 20 0;
#X connect 32 1 21 0;
#X connect 32 2 39 0;
#X connect 33 1 19 0;
#X connect 33 2 37 0;
#X connect 34 1 14 0;
#X connect 35 1 16 0;
#X connect 36 1 15 0;
#X connect 37 0 6 1;
#X connect 38 0 6 1;
#X connect 39 0 6 1;
#X connect 40 0 6 1;
#X connect 41 0 2 0;
#X connect 42 0 6 1;
#X connect 43 1 44 0;
#X connect 43 2 45 0;
#X connect 44 0 1 0;
#X connect 45 0 6 1;
#X connect 46 0 6 1;
#X connect 47 0 6 1;
#X connect 48 0 6 1;
#X restore 184 356 pd HandJardinPointerActivate;
#X obj 211 535 s HJardinUsualActivate;
#X obj 149 530 delay 10;
#X obj 87 501 bng 15 250 50 0 empty empty empty 17 7 0 10 -262144 -1
-1;
#X msg 494 475 /HandCour/File /home/woii/2013_Sebkha-ChottGalootFormula_ThingFish/ThingFishVideoDecorum/DaThingFish/DaThingFishFace/data/handCour.png
;
#X obj 489 546 s OSC_MESSAGES;
#N canvas 0 100 1440 800 HandClap 0;
#N canvas 536 348 731 468 HandJardinClappingInit 0;
#X obj 224 582 send OSC_MESSAGES;
#X obj 104 509 list prepend;
#X obj 61 33 bng 15 250 50 0 empty empty empty 17 7 0 10 -262144 -1
-1;
#X msg 173 69 /HandJardin;
#X obj 104 532 l2s /;
#X msg 104 122 File;
#X obj 224 549 list;
#X msg 104 99 Zpos;
#X msg 245 399 0;
#X msg 104 316 RenderOrder;
#X msg 104 359 Yscale;
#X msg 104 379 Xscale;
#X msg 104 399 Ypos;
#X msg 104 419 Xpos;
#X msg 104 215 Blue;
#X msg 104 174 Red;
#X msg 104 195 Green;
#X msg 104 295 modeAlpha;
#X msg 104 338 Shape;
#X msg 104 235 Rotate;
#X msg 104 274 Alpha;
#X msg 104 254 Activate;
#X obj 61 52 t b b b;
#X obj 46 105 t b b b;
#X obj 46 299 t b b b;
#X obj 46 342 t b b b;
#X obj 46 362 t b b b;
#X obj 6 382 t b b b;
#X obj 6 402 t b b b;
#X obj 7 321 t b b b;
#X obj 6 278 t b b b;
#X obj 6 257 t b b b;
#X obj 46 237 t b b b;
#X obj 46 218 t b b b;
#X obj 7 198 t b b b;
#X obj 7 178 t b b b;
#X obj 7 157 t b b b;
#X msg 245 254 1;
#X obj 46 422 t b b b;
#X msg 104 439 Flip;
#X msg 245 99 -2.8;
#X msg 245 316 -22;
#X msg 245 379 0.42;
#X msg 245 359 1.2;
#X obj 61 12 r HandsClapperActivate;
#X msg 245 419 0;
#X msg 245 122 /home/woii/2013_Sebkha-ChottGalootFormula_ThingFish/ThingFishVideoDecorum/DaThingFish/DaThingFishFace/data/2013_06_19_TF_Main_Applaudissant_jardin_exterieur.png
;
#X msg 245 439 0;
#X msg 245 235 30;
#X connect 1 0 4 0;
#X connect 2 0 22 0;
#X connect 3 0 1 1;
#X connect 4 0 6 0;
#X connect 5 0 1 0;
#X connect 6 0 0 0;
#X connect 7 0 1 0;
#X connect 8 0 6 1;
#X connect 9 0 1 0;
#X connect 10 0 1 0;
#X connect 11 0 1 0;
#X connect 12 0 1 0;
#X connect 13 0 1 0;
#X connect 14 0 1 0;
#X connect 15 0 1 0;
#X connect 16 0 1 0;
#X connect 17 0 1 0;
#X connect 19 0 1 0;
#X connect 20 0 1 0;
#X connect 21 0 1 0;
#X connect 22 0 7 0;
#X connect 22 0 23 0;
#X connect 22 1 40 0;
#X connect 22 2 3 0;
#X connect 23 0 24 0;
#X connect 23 0 33 0;
#X connect 23 0 32 0;
#X connect 23 1 5 0;
#X connect 23 2 46 0;
#X connect 24 0 25 0;
#X connect 24 1 9 0;
#X connect 24 2 41 0;
#X connect 25 0 26 0;
#X connect 25 1 10 0;
#X connect 25 2 43 0;
#X connect 26 0 38 0;
#X connect 26 1 11 0;
#X connect 26 2 42 0;
#X connect 27 1 12 0;
#X connect 27 2 8 0;
#X connect 28 1 13 0;
#X connect 28 2 45 0;
#X connect 29 1 18 0;
#X connect 30 1 17 0;
#X connect 31 1 20 0;
#X connect 32 1 21 0;
#X connect 32 2 37 0;
#X connect 33 1 19 0;
#X connect 33 2 48 0;
#X connect 34 1 14 0;
#X connect 35 1 16 0;
#X connect 36 1 15 0;
#X connect 37 0 6 1;
#X connect 38 1 39 0;
#X connect 38 2 47 0;
#X connect 39 0 1 0;
#X connect 40 0 6 1;
#X connect 41 0 6 1;
#X connect 42 0 6 1;
#X connect 43 0 6 1;
#X connect 44 0 2 0;
#X connect 45 0 6 1;
#X connect 46 0 6 1;
#X connect 47 0 6 1;
#X connect 48 0 6 1;
#X restore 1270 9 pd HandJardinClappingInit;
#X obj 17 93 bng 15 250 50 0 empty empty empty 17 7 0 10 -262144 -1
-1;
#N canvas 538 350 731 468 HandCourClappingInit 0;
#X obj 224 582 send OSC_MESSAGES;
#X obj 104 509 list prepend;
#X obj 61 33 bng 15 250 50 0 empty empty empty 17 7 0 10 -262144 -1
-1;
#X obj 104 532 l2s /;
#X msg 104 122 File;
#X obj 224 549 list;
#X msg 104 99 Zpos;
#X msg 245 399 0;
#X msg 104 316 RenderOrder;
#X msg 104 359 Yscale;
#X msg 104 379 Xscale;
#X msg 104 399 Ypos;
#X msg 104 419 Xpos;
#X msg 104 215 Blue;
#X msg 104 174 Red;
#X msg 104 195 Green;
#X msg 104 295 modeAlpha;
#X msg 104 338 Shape;
#X msg 104 235 Rotate;
#X msg 104 274 Alpha;
#X msg 104 254 Activate;
#X obj 61 52 t b b b;
#X obj 46 105 t b b b;
#X obj 46 299 t b b b;
#X obj 46 342 t b b b;
#X obj 46 362 t b b b;
#X obj 6 382 t b b b;
#X obj 6 402 t b b b;
#X obj 7 321 t b b b;
#X obj 6 278 t b b b;
#X obj 6 257 t b b b;
#X obj 46 237 t b b b;
#X obj 46 218 t b b b;
#X obj 7 198 t b b b;
#X obj 7 178 t b b b;
#X obj 7 157 t b b b;
#X msg 245 419 0.42;
#X msg 245 254 1;
#X obj 46 422 t b b b;
#X msg 104 439 Flip;
#X msg 245 99 -2.8;
#X msg 245 316 -22;
#X msg 245 379 0.42;
#X msg 245 359 1.2;
#X obj 61 12 r HandsClapperActivate;
#X msg 173 69 /HandCour;
#X msg 245 439 0;
#X msg 245 122 /home/woii/2013_Sebkha-ChottGalootFormula_ThingFish/ThingFishVideoDecorum/DaThingFish/DaThingFishFace/data/2013_06_19_TF_Main_Applaudissant_cour_exterieur.png
;
#X msg 245 235 -30;
#X connect 1 0 3 0;
#X connect 2 0 21 0;
#X connect 3 0 5 0;
#X connect 4 0 1 0;
#X connect 5 0 0 0;
#X connect 6 0 1 0;
#X connect 7 0 5 1;
#X connect 8 0 1 0;
#X connect 9 0 1 0;
#X connect 10 0 1 0;
#X connect 11 0 1 0;
#X connect 12 0 1 0;
#X connect 13 0 1 0;
#X connect 14 0 1 0;
#X connect 15 0 1 0;
#X connect 16 0 1 0;
#X connect 18 0 1 0;
#X connect 19 0 1 0;
#X connect 20 0 1 0;
#X connect 21 0 6 0;
#X connect 21 0 22 0;
#X connect 21 1 40 0;
#X connect 21 2 45 0;
#X connect 22 0 23 0;
#X connect 22 0 32 0;
#X connect 22 0 31 0;
#X connect 22 1 4 0;
#X connect 22 2 47 0;
#X connect 23 0 24 0;
#X connect 23 1 8 0;
#X connect 23 2 41 0;
#X connect 24 0 25 0;
#X connect 24 1 9 0;
#X connect 24 2 43 0;
#X connect 25 0 38 0;
#X connect 25 1 10 0;
#X connect 25 2 42 0;
#X connect 26 1 11 0;
#X connect 26 2 7 0;
#X connect 27 1 12 0;
#X connect 27 2 36 0;
#X connect 28 1 17 0;
#X connect 29 1 16 0;
#X connect 30 1 19 0;
#X connect 31 1 20 0;
#X connect 31 2 37 0;
#X connect 32 1 18 0;
#X connect 32 2 48 0;
#X connect 33 1 13 0;
#X connect 34 1 15 0;
#X connect 35 1 14 0;
#X connect 36 0 5 1;
#X connect 37 0 5 1;
#X connect 38 1 39 0;
#X connect 38 2 46 0;
#X connect 39 0 1 0;
#X connect 40 0 5 1;
#X connect 41 0 5 1;
#X connect 42 0 5 1;
#X connect 43 0 5 1;
#X connect 44 0 2 0;
#X connect 45 0 1 1;
#X connect 46 0 5 1;
#X connect 47 0 5 1;
#X connect 48 0 5 1;
#X restore 1270 29 pd HandCourClappingInit;
#N canvas 538 350 731 468 HandJardinClappingBack 0;
#X obj 224 582 send OSC_MESSAGES;
#X obj 104 509 list prepend;
#X obj 61 33 bng 15 250 50 0 empty empty empty 17 7 0 10 -262144 -1
-1;
#X msg 173 69 /HandJardin;
#X obj 104 532 l2s /;
#X msg 104 122 File;
#X obj 224 549 list;
#X msg 104 99 Zpos;
#X msg 245 399 0;
#X msg 104 316 RenderOrder;
#X msg 104 359 Yscale;
#X msg 104 379 Xscale;
#X msg 104 399 Ypos;
#X msg 104 419 Xpos;
#X msg 104 215 Blue;
#X msg 104 174 Red;
#X msg 104 195 Green;
#X msg 104 295 modeAlpha;
#X msg 104 338 Shape;
#X msg 104 235 Rotate;
#X msg 104 274 Alpha;
#X msg 104 254 Activate;
#X obj 61 52 t b b b;
#X obj 46 105 t b b b;
#X obj 46 299 t b b b;
#X obj 46 342 t b b b;
#X obj 46 362 t b b b;
#X obj 6 382 t b b b;
#X obj 6 402 t b b b;
#X obj 7 321 t b b b;
#X obj 6 278 t b b b;
#X obj 6 257 t b b b;
#X obj 46 237 t b b b;
#X obj 46 218 t b b b;
#X obj 7 198 t b b b;
#X obj 7 178 t b b b;
#X obj 7 157 t b b b;
#X msg 245 254 1;
#X obj 46 422 t b b b;
#X msg 104 439 Flip;
#X msg 245 99 -2.8;
#X msg 245 419 0;
#X msg 245 122 /home/woii/2013_Sebkha-ChottGalootFormula_ThingFish/ThingFishVideoDecorum/DaThingFish/DaThingFishFace/data/handJardin.png
;
#X msg 245 359 0.52;
#X msg 245 379 0.76;
#X msg 245 316 -27;
#X msg 245 235 0;
#X msg 245 439 0;
#X obj 61 12 r HandsBackFromClapper;
#X connect 1 0 4 0;
#X connect 2 0 22 0;
#X connect 3 0 1 1;
#X connect 4 0 6 0;
#X connect 5 0 1 0;
#X connect 6 0 0 0;
#X connect 7 0 1 0;
#X connect 8 0 6 1;
#X connect 9 0 1 0;
#X connect 10 0 1 0;
#X connect 11 0 1 0;
#X connect 12 0 1 0;
#X connect 13 0 1 0;
#X connect 14 0 1 0;
#X connect 15 0 1 0;
#X connect 16 0 1 0;
#X connect 17 0 1 0;
#X connect 19 0 1 0;
#X connect 20 0 1 0;
#X connect 21 0 1 0;
#X connect 22 0 7 0;
#X connect 22 0 23 0;
#X connect 22 1 40 0;
#X connect 22 2 3 0;
#X connect 23 0 24 0;
#X connect 23 0 33 0;
#X connect 23 0 32 0;
#X connect 23 1 5 0;
#X connect 23 2 42 0;
#X connect 24 0 25 0;
#X connect 24 1 9 0;
#X connect 24 2 45 0;
#X connect 25 0 26 0;
#X connect 25 1 10 0;
#X connect 25 2 43 0;
#X connect 26 0 38 0;
#X connect 26 1 11 0;
#X connect 26 2 44 0;
#X connect 27 1 12 0;
#X connect 27 2 8 0;
#X connect 28 1 13 0;
#X connect 28 2 41 0;
#X connect 29 1 18 0;
#X connect 30 1 17 0;
#X connect 31 1 20 0;
#X connect 32 1 21 0;
#X connect 32 2 37 0;
#X connect 33 1 19 0;
#X connect 33 2 46 0;
#X connect 34 1 14 0;
#X connect 35 1 16 0;
#X connect 36 1 15 0;
#X connect 37 0 6 1;
#X connect 38 1 39 0;
#X connect 38 2 47 0;
#X connect 39 0 1 0;
#X connect 40 0 6 1;
#X connect 41 0 6 1;
#X connect 42 0 6 1;
#X connect 43 0 6 1;
#X connect 44 0 6 1;
#X connect 45 0 6 1;
#X connect 46 0 6 1;
#X connect 47 0 6 1;
#X connect 48 0 2 0;
#X restore 1270 69 pd HandJardinClappingBack;
#N canvas 538 350 731 468 HandCourClappingBack 0;
#X obj 224 582 send OSC_MESSAGES;
#X obj 104 509 list prepend;
#X obj 61 33 bng 15 250 50 0 empty empty empty 17 7 0 10 -262144 -1
-1;
#X obj 104 532 l2s /;
#X msg 104 122 File;
#X obj 224 549 list;
#X msg 104 99 Zpos;
#X msg 245 399 0;
#X msg 104 316 RenderOrder;
#X msg 104 359 Yscale;
#X msg 104 379 Xscale;
#X msg 104 399 Ypos;
#X msg 104 419 Xpos;
#X msg 104 215 Blue;
#X msg 104 174 Red;
#X msg 104 195 Green;
#X msg 104 295 modeAlpha;
#X msg 104 338 Shape;
#X msg 104 235 Rotate;
#X msg 104 274 Alpha;
#X msg 104 254 Activate;
#X obj 61 52 t b b b;
#X obj 46 105 t b b b;
#X obj 46 299 t b b b;
#X obj 46 342 t b b b;
#X obj 46 362 t b b b;
#X obj 6 382 t b b b;
#X obj 6 402 t b b b;
#X obj 7 321 t b b b;
#X obj 6 278 t b b b;
#X obj 6 257 t b b b;
#X obj 46 237 t b b b;
#X obj 46 218 t b b b;
#X obj 7 198 t b b b;
#X obj 7 178 t b b b;
#X obj 7 157 t b b b;
#X msg 245 254 1;
#X obj 46 422 t b b b;
#X msg 104 439 Flip;
#X msg 245 99 -2.8;
#X msg 245 419 0;
#X msg 245 359 0.52;
#X msg 245 379 0.76;
#X msg 245 316 -27;
#X msg 245 235 0;
#X msg 245 439 0;
#X msg 173 69 /HandCour;
#X msg 245 122 /home/woii/2013_Sebkha-ChottGalootFormula_ThingFish/ThingFishVideoDecorum/DaThingFish/DaThingFishFace/data/handCour.png
;
#X obj 61 12 r HandsBackFromClapper;
#X connect 1 0 3 0;
#X connect 2 0 21 0;
#X connect 3 0 5 0;
#X connect 4 0 1 0;
#X connect 5 0 0 0;
#X connect 6 0 1 0;
#X connect 7 0 5 1;
#X connect 8 0 1 0;
#X connect 9 0 1 0;
#X connect 10 0 1 0;
#X connect 11 0 1 0;
#X connect 12 0 1 0;
#X connect 13 0 1 0;
#X connect 14 0 1 0;
#X connect 15 0 1 0;
#X connect 16 0 1 0;
#X connect 18 0 1 0;
#X connect 19 0 1 0;
#X connect 20 0 1 0;
#X connect 21 0 6 0;
#X connect 21 0 22 0;
#X connect 21 1 39 0;
#X connect 21 2 46 0;
#X connect 22 0 23 0;
#X connect 22 0 32 0;
#X connect 22 0 31 0;
#X connect 22 1 4 0;
#X connect 22 2 47 0;
#X connect 23 0 24 0;
#X connect 23 1 8 0;
#X connect 23 2 43 0;
#X connect 24 0 25 0;
#X connect 24 1 9 0;
#X connect 24 2 41 0;
#X connect 25 0 37 0;
#X connect 25 1 10 0;
#X connect 25 2 42 0;
#X connect 26 1 11 0;
#X connect 26 2 7 0;
#X connect 27 1 12 0;
#X connect 27 2 40 0;
#X connect 28 1 17 0;
#X connect 29 1 16 0;
#X connect 30 1 19 0;
#X connect 31 1 20 0;
#X connect 31 2 36 0;
#X connect 32 1 18 0;
#X connect 32 2 44 0;
#X connect 33 1 13 0;
#X connect 34 1 15 0;
#X connect 35 1 14 0;
#X connect 36 0 5 1;
#X connect 37 1 38 0;
#X connect 37 2 45 0;
#X connect 38 0 1 0;
#X connect 39 0 5 1;
#X connect 40 0 5 1;
#X connect 41 0 5 1;
#X connect 42 0 5 1;
#X connect 43 0 5 1;
#X connect 44 0 5 1;
#X connect 45 0 5 1;
#X connect 46 0 1 1;
#X connect 47 0 5 1;
#X connect 48 0 2 0;
#X restore 1270 89 pd HandCourClappingBack;
#X obj 1122 38 s HandsClapperActivate;
#X obj 965 2 s HandsBackFromClapper;
#X obj 1122 -3 bng 15 250 50 0 empty empty empty 17 7 0 10 -262144
-1 -1;
#X obj 974 -26 bng 15 250 50 0 empty empty empty 17 7 0 10 -262144
-1 -1;
#X msg 367 612 /Hand*/Ypos \$1;
#X msg 251 569 /HandJardin/Xpos \$1;
#X msg 221 539 /HandCour/Xpos \$1;
#X msg 35 479 /HandJardin/Rotate \$1;
#X msg 17 519 /HandCour/Rotate \$1;
#X obj 251 134 v /HandJardin/Xpos;
#X obj 367 134 v /HandJardin/Ypos;
#X obj 221 154 v /HandCour/Xpos;
#X obj 35 150 v /HandJardin/Rotate;
#X obj 17 170 v /HandCour/Rotate;
#X obj 35 446 line;
#X obj 17 498 line;
#X obj 251 386 line;
#X obj 221 406 line;
#X obj 367 386 line;
#X msg 35 236 120 75;
#X obj 17 117 t b b;
#X obj 35 629 s OSC_MESSAGES;
#X msg 17 266 -120 75;
#X msg 367 210 4 75;
#X msg 221 327 2 75;
#X msg 251 297 -2 75;
#X obj 482 394 delay 75;
#X msg 482 429 30;
#X msg 482 481 -30;
#X obj 482 517 s HandsClapperActivate;
#X obj 17 62 r TFHandsClappperPosition;
#X obj 33 -29 r TFHandClaps;
#X obj 827 107 r TFHandsClapping;
#X msg 754 370 0 100;
#X msg 827 369 0 100;
#X msg 897 369 4.75 100;
#X obj 827 178 bng 15 250 50 0 empty empty empty 17 7 0 10 -262144
-1 -1;
#X obj 713 193 delay 100;
#X msg 713 429 30 75;
#X msg 713 481 -30 75;
#X obj 1042 139 r TFBackFromClapping;
#X obj 1042 187 bng 15 250 50 0 empty empty empty 17 7 0 10 -262144
-1 -1;
#X msg 1042 429 120;
#X msg 1042 481 -120;
#X obj 1069 518 s HandsBackFromClapper;
#X obj 1042 219 t b b;
#X msg 1119 369 -1.437 75;
#X msg 1119 389 1.437 75;
#X msg 1268 369 2.9 75;
#X msg 1152 429 0 75;
#X obj 37 12 s TFHandsClappperPosition;
#X obj 217 20 s TFHandsClapping;
#X obj 383 27 s TFBackFromClapping;
#X obj 39 -5 bng 15 250 50 0 empty empty empty 17 7 0 10 -262144 -1
-1;
#X obj 201 -18 delay 100;
#X obj 375 -1 delay 180;
#X connect 1 0 25 0;
#X connect 7 0 5 0;
#X connect 8 0 6 0;
#X connect 9 0 26 0;
#X connect 10 0 26 0;
#X connect 11 0 26 0;
#X connect 12 0 26 0;
#X connect 13 0 26 0;
#X connect 14 0 21 0;
#X connect 15 0 23 0;
#X connect 16 0 22 0;
#X connect 17 0 19 0;
#X connect 18 0 20 0;
#X connect 19 0 12 0;
#X connect 20 0 13 0;
#X connect 21 0 10 0;
#X connect 22 0 11 0;
#X connect 23 0 9 0;
#X connect 24 0 19 0;
#X connect 25 0 24 0;
#X connect 25 0 27 0;
#X connect 25 0 28 0;
#X connect 25 0 30 0;
#X connect 25 0 29 0;
#X connect 25 0 31 0;
#X connect 25 1 17 0;
#X connect 25 1 18 0;
#X connect 25 1 15 0;
#X connect 25 1 14 0;
#X connect 25 1 16 0;
#X connect 27 0 20 0;
#X connect 28 0 23 0;
#X connect 29 0 22 0;
#X connect 30 0 21 0;
#X connect 31 0 32 0;
#X connect 31 0 33 0;
#X connect 31 0 34 0;
#X connect 32 0 19 0;
#X connect 33 0 20 0;
#X connect 35 0 1 0;
#X connect 36 0 58 0;
#X connect 37 0 41 0;
#X connect 38 0 19 0;
#X connect 38 0 20 0;
#X connect 39 0 21 0;
#X connect 39 0 22 0;
#X connect 40 0 23 0;
#X connect 41 0 38 0;
#X connect 41 0 39 0;
#X connect 41 0 40 0;
#X connect 41 0 42 0;
#X connect 42 0 28 0;
#X connect 42 0 30 0;
#X connect 42 0 29 0;
#X connect 42 0 43 0;
#X connect 42 0 44 0;
#X connect 43 0 19 0;
#X connect 44 0 20 0;
#X connect 45 0 46 0;
#X connect 46 0 50 0;
#X connect 46 0 51 0;
#X connect 46 0 52 0;
#X connect 46 0 53 0;
#X connect 46 0 54 0;
#X connect 47 0 19 0;
#X connect 48 0 20 0;
#X connect 50 0 47 0;
#X connect 50 0 48 0;
#X connect 50 1 49 0;
#X connect 51 0 21 0;
#X connect 52 0 22 0;
#X connect 53 0 23 0;
#X connect 54 0 19 0;
#X connect 54 0 20 0;
#X connect 58 0 55 0;
#X connect 58 0 59 0;
#X connect 59 0 56 0;
#X connect 59 0 60 0;
#X connect 60 0 57 0;
#X restore 184 386 pd HandClap;
#N canvas 0 100 1440 800 HandJardinPointagePublic 1;
#X obj 972 28 s HandsBackFromClapper;
#X obj 198 -9 bng 15 250 50 0 empty empty empty 17 7 0 10 -262144 -1
-1;
#X obj 696 -23 bng 15 250 50 0 empty empty empty 17 7 0 10 -262144
-1 -1;
#N canvas 534 346 731 468 HandJardinAudiencePointerInit 0;
#X obj 224 582 send OSC_MESSAGES;
#X obj 104 509 list prepend;
#X obj 61 33 bng 15 250 50 0 empty empty empty 17 7 0 10 -262144 -1
-1;
#X msg 173 69 /HandJardin;
#X obj 104 532 l2s /;
#X msg 104 122 File;
#X obj 224 549 list;
#X msg 104 99 Zpos;
#X msg 245 399 0;
#X msg 104 316 RenderOrder;
#X msg 104 359 Yscale;
#X msg 104 379 Xscale;
#X msg 104 399 Ypos;
#X msg 104 419 Xpos;
#X msg 104 215 Blue;
#X msg 104 174 Red;
#X msg 104 195 Green;
#X msg 104 295 modeAlpha;
#X msg 104 338 Shape;
#X msg 104 235 Rotate;
#X msg 104 274 Alpha;
#X msg 104 254 Activate;
#X obj 61 52 t b b b;
#X obj 46 105 t b b b;
#X obj 46 299 t b b b;
#X obj 46 342 t b b b;
#X obj 46 362 t b b b;
#X obj 6 382 t b b b;
#X obj 6 402 t b b b;
#X obj 7 321 t b b b;
#X obj 6 278 t b b b;
#X obj 6 257 t b b b;
#X obj 46 237 t b b b;
#X obj 46 218 t b b b;
#X obj 7 198 t b b b;
#X obj 7 178 t b b b;
#X obj 7 157 t b b b;
#X msg 245 254 1;
#X obj 46 422 t b b b;
#X msg 104 439 Flip;
#X msg 245 99 -2.8;
#X msg 245 316 -22;
#X msg 245 359 1.2;
#X msg 245 419 0;
#X msg 245 439 0;
#X obj 61 12 r HandAudiencePointerActivate;
#X msg 245 122 /home/woii/2013_Sebkha-ChottGalootFormula_ThingFish/ThingFishVideoDecorum/DaThingFish/DaThingFishFace/data/2013_06_19_TF_doigt_vers_public.png
;
#X msg 245 235 0;
#X msg 245 379 1;
#X connect 1 0 4 0;
#X connect 2 0 22 0;
#X connect 3 0 1 1;
#X connect 4 0 6 0;
#X connect 5 0 1 0;
#X connect 6 0 0 0;
#X connect 7 0 1 0;
#X connect 8 0 6 1;
#X connect 9 0 1 0;
#X connect 10 0 1 0;
#X connect 11 0 1 0;
#X connect 12 0 1 0;
#X connect 13 0 1 0;
#X connect 14 0 1 0;
#X connect 15 0 1 0;
#X connect 16 0 1 0;
#X connect 17 0 1 0;
#X connect 19 0 1 0;
#X connect 20 0 1 0;
#X connect 21 0 1 0;
#X connect 22 0 7 0;
#X connect 22 0 23 0;
#X connect 22 1 40 0;
#X connect 22 2 3 0;
#X connect 23 0 24 0;
#X connect 23 0 33 0;
#X connect 23 0 32 0;
#X connect 23 1 5 0;
#X connect 23 2 46 0;
#X connect 24 0 25 0;
#X connect 24 1 9 0;
#X connect 24 2 41 0;
#X connect 25 0 26 0;
#X connect 25 1 10 0;
#X connect 25 2 42 0;
#X connect 26 0 38 0;
#X connect 26 1 11 0;
#X connect 26 2 48 0;
#X connect 27 1 12 0;
#X connect 27 2 8 0;
#X connect 28 1 13 0;
#X connect 28 2 43 0;
#X connect 29 1 18 0;
#X connect 30 1 17 0;
#X connect 31 1 20 0;
#X connect 32 1 21 0;
#X connect 32 2 37 0;
#X connect 33 1 19 0;
#X connect 33 2 47 0;
#X connect 34 1 14 0;
#X connect 35 1 16 0;
#X connect 36 1 15 0;
#X connect 37 0 6 1;
#X connect 38 1 39 0;
#X connect 38 2 44 0;
#X connect 39 0 1 0;
#X connect 40 0 6 1;
#X connect 41 0 6 1;
#X connect 42 0 6 1;
#X connect 43 0 6 1;
#X connect 44 0 6 1;
#X connect 45 0 2 0;
#X connect 46 0 6 1;
#X connect 47 0 6 1;
#X connect 48 0 6 1;
#X restore 1230 9 pd HandJardinAudiencePointerInit;
#N canvas 538 350 731 468 HandJardinAudiencePointerBack 0;
#X obj 224 582 send OSC_MESSAGES;
#X obj 104 509 list prepend;
#X obj 61 33 bng 15 250 50 0 empty empty empty 17 7 0 10 -262144 -1
-1;
#X msg 173 69 /HandJardin;
#X obj 104 532 l2s /;
#X msg 104 122 File;
#X obj 224 549 list;
#X msg 104 99 Zpos;
#X msg 245 399 0;
#X msg 104 316 RenderOrder;
#X msg 104 359 Yscale;
#X msg 104 379 Xscale;
#X msg 104 399 Ypos;
#X msg 104 419 Xpos;
#X msg 104 215 Blue;
#X msg 104 174 Red;
#X msg 104 195 Green;
#X msg 104 295 modeAlpha;
#X msg 104 338 Shape;
#X msg 104 235 Rotate;
#X msg 104 274 Alpha;
#X msg 104 254 Activate;
#X obj 61 52 t b b b;
#X obj 46 105 t b b b;
#X obj 46 299 t b b b;
#X obj 46 342 t b b b;
#X obj 46 362 t b b b;
#X obj 6 382 t b b b;
#X obj 6 402 t b b b;
#X obj 7 321 t b b b;
#X obj 6 278 t b b b;
#X obj 6 257 t b b b;
#X obj 46 237 t b b b;
#X obj 46 218 t b b b;
#X obj 7 198 t b b b;
#X obj 7 178 t b b b;
#X obj 7 157 t b b b;
#X msg 245 254 1;
#X obj 46 422 t b b b;
#X msg 104 439 Flip;
#X msg 245 99 -2.8;
#X msg 245 419 0;
#X msg 245 122 /home/woii/2013_Sebkha-ChottGalootFormula_ThingFish/ThingFishVideoDecorum/DaThingFish/DaThingFishFace/data/handJardin.png
;
#X msg 245 359 0.52;
#X msg 245 379 0.76;
#X msg 245 316 -27;
#X msg 245 235 0;
#X msg 245 439 0;
#X obj 61 12 r HandsBackFromClapper;
#X connect 1 0 4 0;
#X connect 2 0 22 0;
#X connect 3 0 1 1;
#X connect 4 0 6 0;
#X connect 5 0 1 0;
#X connect 6 0 0 0;
#X connect 7 0 1 0;
#X connect 8 0 6 1;
#X connect 9 0 1 0;
#X connect 10 0 1 0;
#X connect 11 0 1 0;
#X connect 12 0 1 0;
#X connect 13 0 1 0;
#X connect 14 0 1 0;
#X connect 15 0 1 0;
#X connect 16 0 1 0;
#X connect 17 0 1 0;
#X connect 19 0 1 0;
#X connect 20 0 1 0;
#X connect 21 0 1 0;
#X connect 22 0 7 0;
#X connect 22 0 23 0;
#X connect 22 1 40 0;
#X connect 22 2 3 0;
#X connect 23 0 24 0;
#X connect 23 0 33 0;
#X connect 23 0 32 0;
#X connect 23 1 5 0;
#X connect 23 2 42 0;
#X connect 24 0 25 0;
#X connect 24 1 9 0;
#X connect 24 2 45 0;
#X connect 25 0 26 0;
#X connect 25 1 10 0;
#X connect 25 2 43 0;
#X connect 26 0 38 0;
#X connect 26 1 11 0;
#X connect 26 2 44 0;
#X connect 27 1 12 0;
#X connect 27 2 8 0;
#X connect 28 1 13 0;
#X connect 28 2 41 0;
#X connect 29 1 18 0;
#X connect 30 1 17 0;
#X connect 31 1 20 0;
#X connect 32 1 21 0;
#X connect 32 2 37 0;
#X connect 33 1 19 0;
#X connect 33 2 46 0;
#X connect 34 1 14 0;
#X connect 35 1 16 0;
#X connect 36 1 15 0;
#X connect 37 0 6 1;
#X connect 38 1 39 0;
#X connect 38 2 47 0;
#X connect 39 0 1 0;
#X connect 40 0 6 1;
#X connect 41 0 6 1;
#X connect 42 0 6 1;
#X connect 43 0 6 1;
#X connect 44 0 6 1;
#X connect 45 0 6 1;
#X connect 46 0 6 1;
#X connect 47 0 6 1;
#X connect 48 0 2 0;
#X restore 1230 69 pd HandJardinAudiencePointerBack;
#X obj 198 32 s HandAudiencePointerActivate;
#X msg 120 145 /HandJardin/Zpos \$1;
#X obj 120 122 line;
#X msg 214 63 -2.8;
#X obj 123 6 t b b;
#X obj 136 200 s OSC_MESSAGES;
#X msg 108 59 -2 300;
#X msg 677 44 -2.8 300;
#X connect 1 0 9 0;
#X connect 2 0 12 0;
#X connect 2 0 0 0;
#X connect 6 0 10 0;
#X connect 7 0 6 0;
#X connect 8 0 7 0;
#X connect 9 0 11 0;
#X connect 9 1 5 0;
#X connect 9 1 8 0;
#X connect 11 0 7 0;
#X connect 12 0 7 0;
#X restore 184 417 pd HandJardinPointagePublic;
#X connect 3 0 0 0;
#X connect 3 1 0 3;
#X connect 3 2 0 4;
#X connect 3 3 0 5;
#X connect 3 4 0 2;
#X connect 3 5 4 0;
#X connect 5 0 16 0;
#X connect 5 0 17 0;
#X connect 5 0 19 0;
#X connect 8 0 9 0;
#X connect 9 0 12 0;
#X connect 9 0 10 0;
#X connect 10 0 14 0;
#X connect 10 1 13 0;
#X connect 12 0 11 0;
#X connect 13 0 11 0;
#X connect 14 0 11 0;
#X connect 17 0 3 0;
#X connect 18 0 17 0;
#X connect 18 0 16 0;
#X connect 18 0 19 0;
#X connect 19 0 20 0;
