#N canvas 1 100 1438 796 10;
#X obj -5 284 send OSC_MESSAGES;
#X obj 167 283 send OSC_MESSAGES;
#X floatatom -5 104 5 0 0 0 - - -;
#X floatatom 167 89 5 0 0 0 - - -;
#X floatatom 80 19 5 0 0 0 - - -;
#X msg -5 165 /ThiFiContourTete/Xscale \$1;
#X msg -5 188 /ThiFiYeuxFront/Xscale \$1;
#X msg -5 210 /ThiFiBecHaut/Xscale \$1;
#X msg -5 233 /ThiFiBecBas/Xscale \$1;
#X msg -5 255 /ThiFiCol/Xscale \$1;
#X msg 167 165 /ThiFiContourTete/Yscale \$1;
#X msg 167 188 /ThiFiYeuxFront/Yscale \$1;
#X msg 167 210 /ThiFiBecHaut/Yscale \$1;
#X msg 167 233 /ThiFiBecBas/Yscale \$1;
#X msg 167 255 /ThiFiCol/Yscale \$1;
#X obj 83 -21 hsl 128 15 0 127 0 0 empty empty empty -2 -8 0 10 -262144
-1 -1 5900 1;
#X obj -2 65 hsl 128 15 0 127 0 0 empty empty empty -2 -8 0 10 -262144
-1 -1 5900 1;
#X obj 170 66 hsl 128 15 0 127 0 0 empty empty empty -2 -8 0 10 -262144
-1 -1 5900 1;
#X obj 8 -45 comment 0 10 helvetica ? 0 0 0 0 Echelle;
#X obj 807 277 send OSC_MESSAGES;
#X obj 979 276 send OSC_MESSAGES;
#X floatatom 807 102 5 0 0 0 - - -;
#X floatatom 979 103 5 0 0 0 - - -;
#X obj 810 58 hsl 128 15 0 127 0 0 empty empty empty -2 -8 0 10 -262144
-1 -1 6400 1;
#X obj 982 59 hsl 128 15 0 127 0 0 empty empty empty -2 -8 0 10 -262144
-1 -1 6400 1;
#X obj 820 -52 comment 0 10 helvetica ? 0 0 0 0 Position;
#X msg 807 158 /ThiFiContourTete/Xpos \$1;
#X msg 807 181 /ThiFiYeuxFront/Xpos \$1;
#X msg 807 203 /ThiFiBecHaut/Xpos \$1;
#X msg 807 226 /ThiFiBecBas/Xpos \$1;
#X msg 807 248 /ThiFiCol/Xpos \$1;
#X msg 979 158 /ThiFiContourTete/Ypos \$1;
#X msg 979 181 /ThiFiYeuxFront/Ypos \$1;
#X msg 979 203 /ThiFiBecHaut/Ypos \$1;
#X msg 979 226 /ThiFiBecBas/Ypos \$1;
#X msg 979 248 /ThiFiCol/Ypos \$1;
#X msg 146 -70 bang;
#X msg 979 8 bang;
#X obj 979 80 - 64;
#X obj 979 129 / 10;
#X obj 807 79 - 64;
#X msg 807 12 bang;
#X msg 905 -26 bang;
#X obj 807 129 / 5;
#X obj 544 35 inlet bang;
#X obj 594 122 delay 5;
#X msg 506 -54 bang;
#X floatatom 641 206 5 0 0 0 - - -;
#X obj 579 199 line;
#X obj -5 136 / 25;
#X obj 167 136 / 25;
#X msg 97 -48 59;
#X obj 62 -76 loadbang;
#X msg 807 35 64;
#X msg 979 32 64;
#X msg 536 90 64;
#X obj 814 416 r TFSpeaks;
#X obj 946 419 r TFMutes;
#X obj 819 482 metro 100;
#X msg 894 445 stop;
#X msg 834 649 /ThiFiBecBas/Ypos \$1;
#X obj 839 516 random 10;
#X obj 911 727 send OSC_MESSAGES;
#X msg 769 449 bang;
#X obj 849 623 -;
#X msg 772 516 bang;
#X obj 849 557 / 50;
#X obj 1020 624 -;
#X msg 992 659 /ThiFiBecHaut/Ypos \$1;
#X msg 994 689 /ThiFiYeuxFront/Ypos \$1;
#X obj 927 543 / 300;
#X obj 1072 630 -;
#X obj 1039 543 / 800;
#X floatatom 878 589 5 0 0 0 - - -;
#X floatatom 1000 571 5 0 0 0 - - -;
#X floatatom 1104 582 5 0 0 0 - - -;
#X msg 1119 515 0;
#X floatatom 667 594 5 0 0 0 - - -;
#X msg 623 661 /ThiFiContourTete/Ypos \$1;
#X msg 624 686 /ThiFiCol/Ypos \$1;
#X obj 700 566 / 1000;
#X obj 706 635 -;
#X obj 682 320 r TFSpeechSpeed;
#X floatatom 677 435 5 0 0 0 - - -;
#X obj 670 398 /;
#X msg 607 350 bang;
#X msg 660 361 1270;
#X msg 606 158 103 2000;
#X obj 904 -47 r ThingFishDown;
#X connect 2 0 49 0;
#X connect 3 0 50 0;
#X connect 4 0 17 0;
#X connect 4 0 16 0;
#X connect 5 0 0 0;
#X connect 6 0 0 0;
#X connect 7 0 0 0;
#X connect 8 0 0 0;
#X connect 9 0 0 0;
#X connect 10 0 1 0;
#X connect 11 0 1 0;
#X connect 12 0 1 0;
#X connect 13 0 1 0;
#X connect 14 0 1 0;
#X connect 15 0 4 0;
#X connect 16 0 2 0;
#X connect 17 0 3 0;
#X connect 21 0 43 0;
#X connect 22 0 39 0;
#X connect 23 0 40 0;
#X connect 24 0 38 0;
#X connect 26 0 19 0;
#X connect 27 0 19 0;
#X connect 28 0 19 0;
#X connect 29 0 19 0;
#X connect 30 0 19 0;
#X connect 31 0 20 0;
#X connect 32 0 20 0;
#X connect 33 0 20 0;
#X connect 34 0 20 0;
#X connect 35 0 20 0;
#X connect 36 0 51 0;
#X connect 37 0 54 0;
#X connect 38 0 22 0;
#X connect 39 0 31 0;
#X connect 39 0 32 0;
#X connect 39 0 33 0;
#X connect 39 0 34 0;
#X connect 39 0 35 0;
#X connect 39 0 64 0;
#X connect 39 0 67 0;
#X connect 39 0 71 0;
#X connect 39 0 81 0;
#X connect 40 0 21 0;
#X connect 41 0 53 0;
#X connect 42 0 37 0;
#X connect 42 0 41 0;
#X connect 43 0 26 0;
#X connect 43 0 27 0;
#X connect 43 0 28 0;
#X connect 43 0 29 0;
#X connect 43 0 30 0;
#X connect 44 0 55 0;
#X connect 44 0 45 0;
#X connect 45 0 87 0;
#X connect 46 0 45 0;
#X connect 46 0 55 0;
#X connect 48 0 24 0;
#X connect 48 0 47 0;
#X connect 49 0 5 0;
#X connect 49 0 6 0;
#X connect 49 0 7 0;
#X connect 49 0 8 0;
#X connect 49 0 9 0;
#X connect 50 0 10 0;
#X connect 50 0 11 0;
#X connect 50 0 12 0;
#X connect 50 0 13 0;
#X connect 50 0 14 0;
#X connect 51 0 15 0;
#X connect 52 0 51 0;
#X connect 53 0 23 0;
#X connect 54 0 24 0;
#X connect 55 0 48 0;
#X connect 56 0 58 0;
#X connect 57 0 59 0;
#X connect 57 0 76 0;
#X connect 57 0 71 0;
#X connect 57 0 67 0;
#X connect 57 0 64 0;
#X connect 57 0 81 0;
#X connect 58 0 61 0;
#X connect 58 0 65 0;
#X connect 59 0 58 0;
#X connect 60 0 62 0;
#X connect 61 0 66 0;
#X connect 61 0 70 0;
#X connect 61 0 72 0;
#X connect 61 0 80 0;
#X connect 63 0 58 0;
#X connect 64 0 60 0;
#X connect 65 0 64 0;
#X connect 65 0 67 0;
#X connect 65 0 71 0;
#X connect 65 0 72 0;
#X connect 65 0 81 0;
#X connect 66 0 73 0;
#X connect 67 0 68 0;
#X connect 68 0 62 0;
#X connect 69 0 62 0;
#X connect 70 0 74 0;
#X connect 71 0 69 0;
#X connect 72 0 75 0;
#X connect 73 0 64 1;
#X connect 74 0 67 1;
#X connect 75 0 71 1;
#X connect 76 0 75 0;
#X connect 76 0 74 0;
#X connect 76 0 73 0;
#X connect 77 0 81 1;
#X connect 78 0 62 0;
#X connect 79 0 62 0;
#X connect 80 0 77 0;
#X connect 81 0 78 0;
#X connect 81 0 79 0;
#X connect 82 0 84 1;
#X connect 82 0 85 0;
#X connect 83 0 58 1;
#X connect 84 0 83 0;
#X connect 85 0 84 0;
#X connect 85 0 86 0;
#X connect 86 0 84 0;
#X connect 87 0 48 0;
#X connect 88 0 42 0;
