#N canvas 0 0 1438 828 10;
#X obj 5 202 send OSC_MESSAGES;
#X obj 177 201 send OSC_MESSAGES;
#X floatatom 5 114 5 0 0 0 - - -;
#X floatatom 177 99 5 0 0 0 - - -;
#X floatatom 90 29 5 0 0 0 - - -;
#X obj 93 -11 hsl 128 15 0 127 0 0 empty empty empty -2 -8 0 10 -262144
-1 -1 3800 1;
#X obj 8 75 hsl 128 15 0 127 0 0 empty empty empty -2 -8 0 10 -262144
-1 -1 3800 1;
#X obj 180 76 hsl 128 15 0 127 0 0 empty empty empty -2 -8 0 10 -262144
-1 -1 2400 1;
#X obj 5 146 / 50;
#X obj 177 146 / 50;
#X obj 18 -35 comment 0 10 helvetica ? 0 0 0 0 Echelle;
#X obj 830 -113 comment 0 10 helvetica ? 0 0 0 0 Position;
#X msg 5 175 /HandJardin/Xscale \$1;
#X obj 345 203 send OSC_MESSAGES;
#X obj 517 202 send OSC_MESSAGES;
#X floatatom 345 115 5 0 0 0 - - -;
#X floatatom 517 100 5 0 0 0 - - -;
#X floatatom 430 30 5 0 0 0 - - -;
#X obj 433 -10 hsl 128 15 0 127 0 0 empty empty empty -2 -8 0 10 -262144
-1 -1 3800 1;
#X obj 348 76 hsl 128 15 0 127 0 0 empty empty empty -2 -8 0 10 -262144
-1 -1 3800 1;
#X obj 520 77 hsl 128 15 0 127 0 0 empty empty empty -2 -8 0 10 -262144
-1 -1 2400 1;
#X obj 345 147 / 50;
#X obj 517 147 / 50;
#X msg 517 176 /HandCour/Yscale \$1;
#X msg 345 176 /HandCour/Xscale \$1;
#X msg 177 175 /HandJardin/Yscale \$1;
#X obj 274 -83 hsl 128 15 0 127 0 0 empty empty empty -2 -8 0 10 -262144
-1 -1 3800 1;
#X obj 707 205 send OSC_MESSAGES;
#X obj 879 204 send OSC_MESSAGES;
#X floatatom 707 117 5 0 0 0 - - -;
#X floatatom 879 115 5 0 0 0 - - -;
#X floatatom 786 -18 5 0 0 0 - - -;
#X obj 789 -80 hsl 128 15 0 127 0 0 empty empty empty -2 -8 0 10 -262144
-1 -1 6400 1;
#X obj 710 78 hsl 128 15 0 127 0 0 empty empty empty -2 -8 0 10 -262144
-1 -1 4963 1;
#X obj 882 79 hsl 128 15 0 127 0 0 empty empty empty -2 -8 0 10 -262144
-1 -1 7837 1;
#X obj 1047 206 send OSC_MESSAGES;
#X obj 1219 205 send OSC_MESSAGES;
#X floatatom 1047 118 5 0 0 0 - - -;
#X floatatom 1219 119 5 0 0 0 - - -;
#X floatatom 1132 33 5 0 0 0 - - -;
#X obj 1135 -7 hsl 128 15 0 127 0 0 empty empty empty -2 -8 0 10 -262144
-1 -1 9300 1;
#X obj 1050 79 hsl 128 15 0 127 0 0 empty empty empty -2 -8 0 10 -262144
-1 -1 9300 1;
#X obj 1222 80 hsl 128 15 0 127 0 0 empty empty empty -2 -8 0 10 -262144
-1 -1 9300 1;
#X msg 707 178 /HandJardin/Xpos \$1;
#X msg 879 178 /HandCour/Xpos \$1;
#X msg 1047 179 /HandJardin/Ypos \$1;
#X msg 1219 179 /HandCour/Ypos \$1;
#X obj 707 96 - 64;
#X obj 879 96 - 64;
#X obj 1047 97 - 64;
#X obj 1219 99 - 64;
#X obj 707 149 / 10;
#X obj 879 149 / 10;
#X obj 1047 150 / 10;
#X obj 1219 150 / 10;
#X obj 458 54 * 0.8125;
#X obj 124 50 * 0.8125;
#X obj 731 49 -;
#X obj 537 -174 hsl 128 15 0 127 0 0 empty empty empty -2 -8 0 10 -262144
-1 -1 0 1;
#X obj 616 -65 * 0.8125;
#X floatatom 715 12 5 0 0 0 - - -;
#X msg 735 -44 bang;
#X obj 648 -34 / 2;
#X obj 846 50 +;
#X obj 778 -602 comment 0 10 helvetica ? 0 0 0 0 Sortie Mains;
#X obj 15 -401 inlet echelle;
#X obj 263 -406 inlet profondeur;
#X obj 484 -398 inlet positionX;
#X obj 680 -402 inlet positionY;
#X obj 98 -155 inlet echelleX;
#X obj 167 -114 inlet echelleY;
#X msg 662 22 14.37;
#X msg 792 -149 64;
#X obj 785 -208 loadbang;
#X connect 2 0 8 0;
#X connect 3 0 9 0;
#X connect 4 0 6 0;
#X connect 4 0 56 0;
#X connect 5 0 4 0;
#X connect 6 0 2 0;
#X connect 7 0 3 0;
#X connect 8 0 12 0;
#X connect 9 0 25 0;
#X connect 12 0 0 0;
#X connect 15 0 21 0;
#X connect 16 0 22 0;
#X connect 17 0 19 0;
#X connect 17 0 55 0;
#X connect 18 0 17 0;
#X connect 19 0 15 0;
#X connect 20 0 16 0;
#X connect 21 0 24 0;
#X connect 22 0 23 0;
#X connect 23 0 14 0;
#X connect 24 0 13 0;
#X connect 25 0 1 0;
#X connect 26 0 5 0;
#X connect 26 0 18 0;
#X connect 29 0 51 0;
#X connect 30 0 52 0;
#X connect 31 0 57 0;
#X connect 31 0 63 0;
#X connect 32 0 31 0;
#X connect 32 0 61 0;
#X connect 33 0 47 0;
#X connect 34 0 48 0;
#X connect 37 0 53 0;
#X connect 38 0 54 0;
#X connect 39 0 42 0;
#X connect 39 0 41 0;
#X connect 40 0 39 0;
#X connect 41 0 49 0;
#X connect 42 0 50 0;
#X connect 43 0 27 0;
#X connect 44 0 28 0;
#X connect 45 0 35 0;
#X connect 46 0 36 0;
#X connect 47 0 29 0;
#X connect 48 0 30 0;
#X connect 49 0 37 0;
#X connect 50 0 38 0;
#X connect 51 0 43 0;
#X connect 52 0 44 0;
#X connect 53 0 45 0;
#X connect 54 0 46 0;
#X connect 55 0 20 0;
#X connect 56 0 7 0;
#X connect 57 0 33 0;
#X connect 59 0 62 0;
#X connect 61 0 60 0;
#X connect 61 0 71 0;
#X connect 62 0 60 0;
#X connect 63 0 34 0;
#X connect 65 0 26 0;
#X connect 66 0 58 0;
#X connect 67 0 32 0;
#X connect 68 0 40 0;
#X connect 69 0 6 0;
#X connect 69 0 19 0;
#X connect 70 0 20 0;
#X connect 70 0 7 0;
#X connect 71 0 57 1;
#X connect 71 0 63 1;
#X connect 72 0 32 0;
#X connect 73 0 72 0;
