#N canvas 0 100 1440 800 10;
#X msg 233 156 1.34;
#X msg 327 176 2.55;
#X obj 393 448 line;
#X obj 481 449 line;
#X msg 411 172 90;
#X obj 574 453 line;
#X msg 293 127 -1.6 150;
#X msg 365 124 0.4 150;
#X msg 450 135 58.5 150;
#X msg 163 58 bang;
#X obj 386 75 delay 5;
#X obj 517 607 send OSC_MESSAGES;
#X obj 533 91 delay 200;
#X msg 738 135 121.5 150;
#X msg 638 188 0.4 75;
#X obj 630 149 delay 75;
#X msg 629 125 0 75;
#X msg 533 133 1.6 150;
#X msg 907 209 1.34 200;
#X obj 827 109 delay 500;
#X obj 163 22 r HandCineticScroll;
#N canvas 867 100 556 796 HCourScrollActivate 0;
#X obj 214 502 send OSC_MESSAGES;
#X obj 94 429 list prepend;
#X obj 51 23 bng 15 250 50 0 empty empty empty 17 7 0 10 -262144 -1
-1;
#X obj 94 452 l2s /;
#X msg 94 112 File;
#X obj 214 469 list;
#X msg 94 89 Zpos;
#X msg 235 306 -19;
#X msg 235 369 0.76;
#X msg 94 306 RenderOrder;
#X msg 94 349 Yscale;
#X msg 94 369 Xscale;
#X msg 94 389 Ypos;
#X msg 94 409 Xpos;
#X msg 94 205 Blue;
#X msg 94 164 Red;
#X msg 94 185 Green;
#X msg 94 285 modeAlpha;
#X msg 94 328 Shape;
#X msg 94 225 Rotate;
#X msg 94 264 Alpha;
#X msg 94 244 Activate;
#X obj 51 42 t b b b;
#X obj 36 95 t b b b;
#X obj 36 289 t b b b;
#X obj 36 332 t b b b;
#X obj 36 352 t b b b;
#X obj 36 372 t b b b;
#X obj 36 392 t b b b;
#X obj -3 311 t b b b;
#X obj -4 268 t b b b;
#X obj -4 247 t b b b;
#X obj 36 227 t b b b;
#X obj 36 208 t b b b;
#X obj -3 188 t b b b;
#X obj -3 168 t b b b;
#X obj -3 147 t b b b;
#X msg 235 244 1;
#X obj 51 2 r HCourScrollActivate;
#X msg 163 59 /HandCour;
#X msg 235 225 90;
#X msg 235 349 0.7;
#X msg 235 389 2.55;
#X msg 235 409 1.34;
#X msg 235 112 /home/woii/2013_Sebkha-ChottGalootFormula_ThingFish/ThingFishVideoDecorum/DaThingFish/DaThingFishFace/data/2013_06_25_TF_Main_defilement.png
;
#X msg 235 89 -2.8;
#X connect 1 0 3 0;
#X connect 2 0 22 0;
#X connect 3 0 5 0;
#X connect 4 0 1 0;
#X connect 5 0 0 0;
#X connect 6 0 1 0;
#X connect 7 0 5 1;
#X connect 8 0 5 1;
#X connect 9 0 1 0;
#X connect 10 0 1 0;
#X connect 11 0 1 0;
#X connect 12 0 1 0;
#X connect 13 0 1 0;
#X connect 14 0 1 0;
#X connect 15 0 1 0;
#X connect 16 0 1 0;
#X connect 17 0 1 0;
#X connect 19 0 1 0;
#X connect 20 0 1 0;
#X connect 21 0 1 0;
#X connect 22 0 6 0;
#X connect 22 0 23 0;
#X connect 22 1 45 0;
#X connect 22 2 39 0;
#X connect 23 0 24 0;
#X connect 23 0 33 0;
#X connect 23 0 32 0;
#X connect 23 1 4 0;
#X connect 23 2 44 0;
#X connect 24 0 25 0;
#X connect 24 1 9 0;
#X connect 24 2 7 0;
#X connect 25 0 26 0;
#X connect 25 1 10 0;
#X connect 25 2 41 0;
#X connect 26 0 27 0;
#X connect 26 1 11 0;
#X connect 26 2 8 0;
#X connect 27 0 28 0;
#X connect 27 1 12 0;
#X connect 27 2 42 0;
#X connect 28 1 13 0;
#X connect 28 2 43 0;
#X connect 29 1 18 0;
#X connect 30 1 17 0;
#X connect 31 1 20 0;
#X connect 32 1 21 0;
#X connect 32 2 37 0;
#X connect 33 1 19 0;
#X connect 33 2 40 0;
#X connect 34 1 14 0;
#X connect 35 1 16 0;
#X connect 36 1 15 0;
#X connect 37 0 5 1;
#X connect 38 0 2 0;
#X connect 39 0 1 1;
#X connect 40 0 5 1;
#X connect 41 0 5 1;
#X connect 42 0 5 1;
#X connect 43 0 5 1;
#X connect 44 0 5 1;
#X connect 45 0 5 1;
#X restore 1158 452 pd HCourScrollActivate;
#N canvas 861 100 556 796 Back2HCourUsualFromScroll 0;
#X obj 214 502 send OSC_MESSAGES;
#X obj 94 429 list prepend;
#X obj 51 23 bng 15 250 50 0 empty empty empty 17 7 0 10 -262144 -1
-1;
#X obj 94 452 l2s /;
#X msg 94 112 File;
#X obj 214 469 list;
#X msg 235 89 -2.8;
#X msg 94 89 Zpos;
#X msg 235 306 -19;
#X msg 94 306 RenderOrder;
#X msg 94 349 Yscale;
#X msg 94 369 Xscale;
#X msg 94 389 Ypos;
#X msg 94 409 Xpos;
#X msg 94 205 Blue;
#X msg 94 164 Red;
#X msg 94 185 Green;
#X msg 94 285 modeAlpha;
#X msg 94 328 Shape;
#X msg 94 225 Rotate;
#X msg 94 264 Alpha;
#X msg 94 244 Activate;
#X obj 51 42 t b b b;
#X obj 36 95 t b b b;
#X obj 36 289 t b b b;
#X obj 36 332 t b b b;
#X obj 36 352 t b b b;
#X obj 36 372 t b b b;
#X obj 36 392 t b b b;
#X obj -3 311 t b b b;
#X obj -4 268 t b b b;
#X obj -4 247 t b b b;
#X obj 36 227 t b b b;
#X obj 36 208 t b b b;
#X obj -3 188 t b b b;
#X obj -3 168 t b b b;
#X obj -3 147 t b b b;
#X msg 235 244 1;
#X msg 235 369 0.76;
#X msg 235 349 0.52;
#X obj 51 2 r Back2HCourUsualFromScroll;
#X msg 163 59 /HandCour;
#X msg 235 112 /home/woii/2013_Sebkha-ChottGalootFormula_ThingFish/ThingFishVideoDecorum/DaThingFish/DaThingFishFace/data/handCour.png
;
#X msg 235 409 1.437;
#X msg 235 389 2.9;
#X msg 235 225 0;
#X connect 1 0 3 0;
#X connect 2 0 22 0;
#X connect 3 0 5 0;
#X connect 4 0 1 0;
#X connect 5 0 0 0;
#X connect 6 0 5 1;
#X connect 7 0 1 0;
#X connect 8 0 5 1;
#X connect 9 0 1 0;
#X connect 10 0 1 0;
#X connect 11 0 1 0;
#X connect 12 0 1 0;
#X connect 13 0 1 0;
#X connect 14 0 1 0;
#X connect 15 0 1 0;
#X connect 16 0 1 0;
#X connect 17 0 1 0;
#X connect 19 0 1 0;
#X connect 20 0 1 0;
#X connect 21 0 1 0;
#X connect 22 0 7 0;
#X connect 22 0 23 0;
#X connect 22 1 6 0;
#X connect 22 2 41 0;
#X connect 23 0 24 0;
#X connect 23 0 33 0;
#X connect 23 0 32 0;
#X connect 23 1 4 0;
#X connect 23 2 42 0;
#X connect 24 0 25 0;
#X connect 24 1 9 0;
#X connect 24 2 8 0;
#X connect 25 0 26 0;
#X connect 25 1 10 0;
#X connect 25 2 39 0;
#X connect 26 0 27 0;
#X connect 26 1 11 0;
#X connect 26 2 38 0;
#X connect 27 0 28 0;
#X connect 27 1 12 0;
#X connect 27 2 44 0;
#X connect 28 1 13 0;
#X connect 28 2 43 0;
#X connect 29 1 18 0;
#X connect 30 1 17 0;
#X connect 31 1 20 0;
#X connect 32 1 21 0;
#X connect 32 2 37 0;
#X connect 33 1 19 0;
#X connect 33 2 45 0;
#X connect 34 1 14 0;
#X connect 35 1 16 0;
#X connect 36 1 15 0;
#X connect 37 0 5 1;
#X connect 38 0 5 1;
#X connect 39 0 5 1;
#X connect 40 0 2 0;
#X connect 41 0 1 1;
#X connect 42 0 5 1;
#X connect 43 0 5 1;
#X connect 44 0 5 1;
#X connect 45 0 5 1;
#X restore 1158 478 pd Back2HCourUsualFromScroll;
#X obj 250 600 s HCourScrollActivate;
#X msg 393 485 /HandCour/Xpos \$1;
#X msg 481 516 /HandCour/Ypos \$1;
#X msg 574 541 /HandCour/Rotate \$1;
#X obj 926 436 s Back2HCourUsualFromScroll;
#X obj 926 387 delay 200;
#X msg 1077 216 90 195;
#X msg 995 214 2.9 200;
#X connect 0 0 2 0;
#X connect 1 0 3 0;
#X connect 2 0 24 0;
#X connect 3 0 25 0;
#X connect 4 0 5 0;
#X connect 5 0 26 0;
#X connect 6 0 2 0;
#X connect 7 0 3 0;
#X connect 8 0 5 0;
#X connect 9 0 10 0;
#X connect 9 0 0 0;
#X connect 9 0 1 0;
#X connect 9 0 4 0;
#X connect 9 0 23 0;
#X connect 10 0 6 0;
#X connect 10 0 7 0;
#X connect 10 0 8 0;
#X connect 10 0 12 0;
#X connect 12 0 13 0;
#X connect 12 0 16 0;
#X connect 12 0 17 0;
#X connect 12 0 15 0;
#X connect 12 0 19 0;
#X connect 13 0 5 0;
#X connect 14 0 3 0;
#X connect 15 0 14 0;
#X connect 16 0 3 0;
#X connect 17 0 2 0;
#X connect 18 0 2 0;
#X connect 19 0 18 0;
#X connect 19 0 30 0;
#X connect 19 0 29 0;
#X connect 19 0 28 0;
#X connect 20 0 9 0;
#X connect 24 0 11 0;
#X connect 25 0 11 0;
#X connect 26 0 11 0;
#X connect 28 0 27 0;
#X connect 29 0 5 0;
#X connect 30 0 3 0;
