#N canvas 67 100 1278 796 10;
#X obj 58 62 inlet bang;
#X obj 44 759 outlet echelle;
#X obj 151 759 outlet profondeur;
#X obj 273 762 outlet positionX;
#X obj 400 765 outlet positionY;
#X obj 79 263 line;
#X obj 126 176 delay 5;
#X obj 269 385 sel 1;
#X obj 274 496 line;
#X obj 392 406 sel 1;
#X obj 404 446 delay 5;
#X obj 376 496 line;
#X obj 517 520 send OSC_MESSAGES;
#X obj 436 628 sel 1;
#X obj 561 745 outlet echelleY;
#X msg 490 668 24 250;
#X msg 442 681 26;
#X obj 495 710 line;
#X obj 585 642 delay 100;
#X obj 687 747 outlet trigThingFish;
#X msg 17 227 64;
#X obj 233 344 > 95;
#X msg 82 156 80;
#X msg 517 400 /HandJardin/Zpos \$1;
#X msg 517 426 /HandCour/Zpos \$1;
#X msg 408 473 93 200;
#X obj 436 595 == 93;
#X msg 39 121 38;
#X msg 279 430 -2.8 200;
#X msg 124 230 105 250;
#X msg 243 171 -3.1;
#X obj 834 41 r TFHandsIn;
#X msg 834 92 26 200;
#X obj 834 147 delay 200;
#X obj 218 100 bng 15 250 50 0 empty empty empty 17 7 0 10 -262144
-1 -1;
#X obj 834 66 bng 15 250 50 0 empty empty empty 17 7 0 10 -262144 -1
-1;
#X obj 786 391 line;
#X msg 787 81 93;
#X obj 368 359 == 105;
#X msg 356 440 105;
#X msg 834 177 105 200;
#X obj 835 207 delay 150;
#X msg 835 246 80 200;
#X msg 947 224 -3.1 100;
#X connect 0 0 34 0;
#X connect 5 0 4 0;
#X connect 5 0 21 0;
#X connect 5 0 38 0;
#X connect 6 0 29 0;
#X connect 7 0 28 0;
#X connect 8 0 23 0;
#X connect 8 0 24 0;
#X connect 9 0 39 0;
#X connect 9 0 10 0;
#X connect 10 0 25 0;
#X connect 11 0 4 0;
#X connect 11 0 26 0;
#X connect 13 0 16 0;
#X connect 13 0 18 0;
#X connect 15 0 17 0;
#X connect 16 0 17 0;
#X connect 17 0 14 0;
#X connect 18 0 15 0;
#X connect 18 0 19 0;
#X connect 20 0 3 0;
#X connect 21 0 7 0;
#X connect 22 0 5 0;
#X connect 23 0 12 0;
#X connect 24 0 12 0;
#X connect 25 0 11 0;
#X connect 26 0 13 0;
#X connect 27 0 1 0;
#X connect 28 0 8 0;
#X connect 29 0 5 0;
#X connect 30 0 24 0;
#X connect 30 0 8 0;
#X connect 30 0 23 0;
#X connect 31 0 35 0;
#X connect 32 0 17 0;
#X connect 32 0 33 0;
#X connect 33 0 40 0;
#X connect 33 0 41 0;
#X connect 34 0 30 0;
#X connect 34 0 6 0;
#X connect 34 0 22 0;
#X connect 34 0 20 0;
#X connect 34 0 27 0;
#X connect 35 0 32 0;
#X connect 35 0 37 0;
#X connect 36 0 4 0;
#X connect 37 0 36 0;
#X connect 38 0 9 0;
#X connect 39 0 11 0;
#X connect 40 0 36 0;
#X connect 41 0 43 0;
#X connect 41 0 42 0;
#X connect 42 0 36 0;
#X connect 43 0 8 0;
