#N canvas 0 0 1438 841 10;
#X declare -path ./lib/sssad;
#X declare -path ./lib/sssad;
#X obj 154 309 daThingFishHandsMoves;
#X obj 55 11 zac.lumiere /HandJardin;
#X obj 303 17 zac.lumiere /HandCour;
#X msg 120 214 bang;
#X obj 158 271 daThingFishHandsOut;
#X connect 3 0 4 0;
#X connect 4 0 0 0;
#X connect 4 1 0 1;
#X connect 4 2 0 2;
#X connect 4 3 0 3;
