#N canvas 0 0 1438 841 10;
#X obj 58 62 inlet bang;
#X obj 44 759 outlet echelle;
#X obj 151 759 outlet profondeur;
#X obj 273 762 outlet positionX;
#X obj 400 765 outlet positionY;
#X msg 124 230 82 250;
#X obj 79 263 line;
#X obj 126 176 delay 5;
#X msg 82 156 63;
#X msg 39 121 30;
#X obj 269 385 sel 1;
#X msg 279 430 32 200;
#X obj 274 496 line;
#X obj 233 344 > 78;
#X obj 368 359 == 82;
#X obj 392 406 sel 1;
#X obj 404 446 delay 5;
#X msg 356 440 82;
#X obj 376 496 line;
#X msg 408 473 72 200;
#X msg 525 432 /HandJardin/RenderOrder -27;
#X msg 524 458 /HandCour/RenderOrder -27;
#X obj 524 519 send OSC_MESSAGES;
#X msg 531 197 /HandJardin/RenderOrder -22;
#X msg 530 223 /HandCour/RenderOrder -22;
#X connect 0 0 8 0;
#X connect 0 0 7 0;
#X connect 0 0 9 0;
#X connect 0 0 23 0;
#X connect 0 0 24 0;
#X connect 5 0 6 0;
#X connect 6 0 4 0;
#X connect 6 0 13 0;
#X connect 6 0 14 0;
#X connect 7 0 5 0;
#X connect 8 0 6 0;
#X connect 9 0 1 0;
#X connect 9 0 12 0;
#X connect 10 0 11 0;
#X connect 11 0 12 0;
#X connect 12 0 1 0;
#X connect 13 0 10 0;
#X connect 14 0 15 0;
#X connect 15 0 17 0;
#X connect 15 0 16 0;
#X connect 15 0 20 0;
#X connect 15 0 21 0;
#X connect 16 0 19 0;
#X connect 17 0 18 0;
#X connect 18 0 4 0;
#X connect 19 0 18 0;
#X connect 20 0 22 0;
#X connect 21 0 22 0;
#X connect 23 0 22 0;
#X connect 24 0 22 0;
