#N canvas 994 219 1438 841 10;
#X declare -path ./lib/sssad;
#X declare -path ./lib/sssad;
#X declare -path ./lib/sssad;
#X declare -path ./lib/sssad;
#X obj 148 623 daThingFishHandsMoves;
#X obj 55 11 zac.lumiere /HandJardin;
#X obj 303 17 zac.lumiere /HandCour;
#X msg 114 528 bang;
#X obj 152 585 daThingFishHandsOut;
#X obj 54 203 zac.lumiere /HandJardinShadow;
#X obj 297 209 zac.lumiere /HandCourShadow;
#X obj 355 687 outlet TrigThingFishOut;
#X connect 3 0 4 0;
#X connect 4 0 0 0;
#X connect 4 1 0 3;
#X connect 4 2 0 4;
#X connect 4 3 0 5;
#X connect 4 4 0 2;
#X connect 4 5 7 0;
