#N canvas 0 0 1438 828 10;
#X obj 5 202 send OSC_MESSAGES;
#X obj 177 201 send OSC_MESSAGES;
#X floatatom 5 114 5 0 0 0 - - -;
#X floatatom 177 99 5 0 0 0 - - -;
#X floatatom 90 29 5 0 0 0 - - -;
#X obj 93 -11 hsl 128 15 0 127 0 0 empty empty empty -2 -8 0 10 -262144
-1 -1 3200 1;
#X obj 8 75 hsl 128 15 0 127 0 0 empty empty empty -2 -8 0 10 -262144
-1 -1 3200 1;
#X obj 180 76 hsl 128 15 0 127 0 0 empty empty empty -2 -8 0 10 -262144
-1 -1 2600 1;
#X obj 5 146 / 50;
#X obj 177 146 / 50;
#X obj 18 -35 comment 0 10 helvetica ? 0 0 0 0 Echelle;
#X obj 830 -113 comment 0 10 helvetica ? 0 0 0 0 Position;
#X msg 5 175 /HandJardin/Xscale \$1;
#X obj 345 203 send OSC_MESSAGES;
#X obj 517 202 send OSC_MESSAGES;
#X floatatom 345 115 5 0 0 0 - - -;
#X floatatom 517 100 5 0 0 0 - - -;
#X floatatom 430 30 5 0 0 0 - - -;
#X obj 433 -10 hsl 128 15 0 127 0 0 empty empty empty -2 -8 0 10 -262144
-1 -1 3200 1;
#X obj 348 76 hsl 128 15 0 127 0 0 empty empty empty -2 -8 0 10 -262144
-1 -1 3200 1;
#X obj 520 77 hsl 128 15 0 127 0 0 empty empty empty -2 -8 0 10 -262144
-1 -1 2600 1;
#X obj 345 147 / 50;
#X obj 517 147 / 50;
#X msg 517 176 /HandCour/Yscale \$1;
#X msg 345 176 /HandCour/Xscale \$1;
#X msg 177 175 /HandJardin/Yscale \$1;
#X obj 274 -83 hsl 128 15 0 127 0 0 empty empty empty -2 -8 0 10 -262144
-1 -1 3200 1;
#X obj 707 205 send OSC_MESSAGES;
#X obj 879 204 send OSC_MESSAGES;
#X floatatom 707 117 5 0 0 0 - - -;
#X floatatom 879 115 5 0 0 0 - - -;
#X floatatom 786 -18 5 0 0 0 - - -;
#X obj 789 -80 hsl 128 15 0 127 0 0 empty empty empty -2 -8 0 10 -262144
-1 -1 6400 1;
#X obj 710 78 hsl 128 15 0 127 0 0 empty empty empty -2 -8 0 10 -262144
-1 -1 5100 1;
#X obj 882 79 hsl 128 15 0 127 0 0 empty empty empty -2 -8 0 10 -262144
-1 -1 7700 1;
#X obj 1047 206 send OSC_MESSAGES;
#X obj 1219 205 send OSC_MESSAGES;
#X floatatom 1047 118 5 0 0 0 - - -;
#X floatatom 1219 119 5 0 0 0 - - -;
#X floatatom 1132 33 5 0 0 0 - - -;
#X obj 1135 -7 hsl 128 15 0 127 0 0 empty empty empty -2 -8 0 10 -262144
-1 -1 7300 1;
#X obj 1050 79 hsl 128 15 0 127 0 0 empty empty empty -2 -8 0 10 -262144
-1 -1 7300 1;
#X obj 1222 80 hsl 128 15 0 127 0 0 empty empty empty -2 -8 0 10 -262144
-1 -1 7300 1;
#X msg 707 178 /HandJardin/Xpos \$1;
#X msg 879 178 /HandCour/Xpos \$1;
#X msg 1047 179 /HandJardin/Ypos \$1;
#X msg 1219 179 /HandCour/Ypos \$1;
#X obj 707 96 - 64;
#X obj 879 96 - 64;
#X obj 1047 97 - 64;
#X obj 1219 99 - 64;
#X obj 707 149 / 10;
#X obj 879 149 / 10;
#X obj 1047 150 / 10;
#X obj 1219 150 / 10;
#X obj 458 54 * 0.8125;
#X obj 124 50 * 0.8125;
#X obj 731 49 -;
#X obj 537 -174 hsl 128 15 0 127 0 0 empty empty empty -2 -8 0 10 -262144
-1 -1 3200 1;
#X obj 616 -65 * 0.8125;
#X floatatom 715 12 5 0 0 0 - - -;
#X msg 735 -44 bang;
#X obj 648 -34 / 2;
#X obj 846 50 +;
#X msg 661 -109 bang;
#X obj 528 -201 comment 0 10 helvetica ? 0 0 0 0 Profondeur;
#X msg 493 -277 bang;
#X floatatom 466 -251 5 0 0 0 - - -;
#X floatatom 643 -247 5 0 0 0 - - -;
#X floatatom 791 -247 5 0 0 0 - - -;
#X msg 907 -197 \$1;
#X obj 933 -542 line;
#X obj 1010 -400 line;
#X obj 1061 -256 send OSC_MESSAGES;
#X obj 1143 -142 line;
#X obj 228 -185 send OSC_MESSAGES;
#X msg 228 -239 /HandJardin/RenderOrder -27;
#X msg 228 -213 /HandCour/RenderOrder -27;
#X obj 1080 -364 < 31;
#X obj 1084 -454 sel 1;
#X obj 1061 -335 sel 1;
#X obj 1140 -334 sel 1;
#X msg 1119 -187 60 1000;
#X obj 778 -602 comment 0 10 helvetica ? 0 0 0 0 Sortie Mains;
#X obj 1220 -172 line;
#X msg 1067 -584 bang;
#X obj 1230 -72 sel 1;
#X floatatom 532 -233 5 0 0 0 - - -;
#X floatatom 1316 -57 5 0 0 0 - - -;
#X obj 1196 -489 > 75;
#X msg 1012 -436 30 350;
#X msg 871 -586 82 200;
#X obj 1128 -363 == 82;
#X msg 1300 -210 30 250;
#X obj 1230 -109 > 27;
#X msg 1061 -310 /HandJardin/RenderOrder -22;
#X msg 1061 -284 /HandCour/RenderOrder -22;
#X obj 1201 -379 line;
#X msg 1184 -350 /HandJardin/Rotate \$1;
#X floatatom 1258 -439 5 0 0 0 - - -;
#X obj 1341 -378 line;
#X floatatom 1398 -437 5 0 0 0 - - -;
#X msg 1324 -349 /HandCour/Rotate \$1;
#X obj 1160 -429 random 70;
#X msg 1193 -404 \$1 250;
#X obj 1322 -482 random 70;
#X obj 1326 -449 -;
#X floatatom 1289 -499 5 0 0 0 - - -;
#X msg 1333 -403 \$1 150;
#X obj 74 -385 inlet echelle;
#X obj 263 -406 inlet profondeur;
#X obj 484 -398 inlet positionX;
#X obj 680 -402 inlet positionY;
#X connect 2 0 8 0;
#X connect 3 0 9 0;
#X connect 4 0 6 0;
#X connect 4 0 56 0;
#X connect 5 0 4 0;
#X connect 6 0 2 0;
#X connect 7 0 3 0;
#X connect 8 0 12 0;
#X connect 9 0 25 0;
#X connect 12 0 0 0;
#X connect 15 0 21 0;
#X connect 16 0 22 0;
#X connect 17 0 19 0;
#X connect 17 0 55 0;
#X connect 18 0 17 0;
#X connect 19 0 15 0;
#X connect 20 0 16 0;
#X connect 21 0 24 0;
#X connect 22 0 23 0;
#X connect 23 0 14 0;
#X connect 24 0 13 0;
#X connect 25 0 1 0;
#X connect 26 0 5 0;
#X connect 26 0 18 0;
#X connect 29 0 51 0;
#X connect 30 0 52 0;
#X connect 31 0 57 0;
#X connect 31 0 63 0;
#X connect 32 0 31 0;
#X connect 32 0 61 0;
#X connect 33 0 47 0;
#X connect 34 0 48 0;
#X connect 37 0 53 0;
#X connect 38 0 54 0;
#X connect 39 0 42 0;
#X connect 39 0 41 0;
#X connect 40 0 39 0;
#X connect 41 0 49 0;
#X connect 42 0 50 0;
#X connect 43 0 27 0;
#X connect 44 0 28 0;
#X connect 45 0 35 0;
#X connect 46 0 36 0;
#X connect 47 0 29 0;
#X connect 48 0 30 0;
#X connect 49 0 37 0;
#X connect 50 0 38 0;
#X connect 51 0 43 0;
#X connect 52 0 44 0;
#X connect 53 0 45 0;
#X connect 54 0 46 0;
#X connect 55 0 20 0;
#X connect 56 0 7 0;
#X connect 57 0 33 0;
#X connect 58 0 26 0;
#X connect 58 0 59 0;
#X connect 58 0 64 0;
#X connect 59 0 62 0;
#X connect 60 0 57 1;
#X connect 60 0 63 1;
#X connect 61 0 60 0;
#X connect 62 0 60 0;
#X connect 63 0 34 0;
#X connect 64 0 31 0;
#X connect 66 0 67 0;
#X connect 66 0 68 0;
#X connect 66 0 69 0;
#X connect 66 0 76 0;
#X connect 66 0 77 0;
#X connect 66 0 87 0;
#X connect 66 0 99 0;
#X connect 66 0 101 0;
#X connect 67 0 58 0;
#X connect 67 0 72 0;
#X connect 68 0 32 0;
#X connect 69 0 70 0;
#X connect 70 0 74 0;
#X connect 70 0 71 0;
#X connect 71 0 89 0;
#X connect 71 0 92 0;
#X connect 72 0 58 0;
#X connect 72 0 78 0;
#X connect 74 0 40 0;
#X connect 76 0 75 0;
#X connect 77 0 75 0;
#X connect 78 0 80 0;
#X connect 79 0 90 0;
#X connect 79 0 103 0;
#X connect 79 0 107 0;
#X connect 79 0 105 0;
#X connect 80 0 95 0;
#X connect 80 0 96 0;
#X connect 81 0 82 0;
#X connect 82 0 74 0;
#X connect 84 0 20 0;
#X connect 84 0 7 0;
#X connect 84 0 94 0;
#X connect 85 0 93 0;
#X connect 86 0 91 0;
#X connect 87 0 84 0;
#X connect 89 0 79 0;
#X connect 90 0 72 0;
#X connect 91 0 71 0;
#X connect 91 0 74 0;
#X connect 92 0 81 0;
#X connect 93 0 84 0;
#X connect 94 0 86 0;
#X connect 94 0 88 0;
#X connect 95 0 73 0;
#X connect 96 0 73 0;
#X connect 97 0 98 0;
#X connect 98 0 73 0;
#X connect 99 0 97 0;
#X connect 100 0 102 0;
#X connect 101 0 100 0;
#X connect 102 0 73 0;
#X connect 103 0 104 0;
#X connect 104 0 97 0;
#X connect 105 0 106 1;
#X connect 106 0 108 0;
#X connect 107 0 106 0;
#X connect 108 0 100 0;
#X connect 109 0 26 0;
#X connect 110 0 58 0;
#X connect 111 0 32 0;
#X connect 112 0 40 0;
