#N canvas 0 100 1440 800 10;
#X msg 233 156 1.34;
#X msg 327 176 2.55;
#X obj 393 448 line;
#X obj 481 449 line;
#X msg 411 172 90;
#X obj 574 453 line;
#X msg 293 127 -1.6 150;
#X msg 365 124 0.4 150;
#X msg 450 135 58.5 150;
#X msg 163 58 bang;
#X obj 386 75 delay 5;
#X msg 287 519 /HandCour/Activate 0;
#X obj 517 607 send OSC_MESSAGES;
#X msg 287 551 /ThiFiHandCineticScroll/Activate 1;
#X msg 393 485 /ThiFiHandCineticScroll/Xpos \$1;
#X msg 481 516 /ThiFiHandCineticScroll/Ypos \$1;
#X msg 574 541 /ThiFiHandCineticScroll/Rotate \$1;
#X obj 533 91 delay 200;
#X msg 738 135 121.5 150;
#X msg 638 188 0.4 75;
#X obj 630 149 delay 75;
#X msg 629 125 0 75;
#X msg 533 133 1.6 150;
#X msg 907 209 1.34 200;
#X msg 995 214 2.55 200;
#X msg 1077 216 90 200;
#X obj 827 109 delay 500;
#X msg 926 496 /HandCour/Activate 1;
#X msg 926 528 /ThiFiHandCineticScroll/Activate 0;
#X obj 926 387 delay 200;
#X connect 0 0 2 0;
#X connect 1 0 3 0;
#X connect 2 0 14 0;
#X connect 3 0 15 0;
#X connect 4 0 5 0;
#X connect 5 0 16 0;
#X connect 6 0 2 0;
#X connect 7 0 3 0;
#X connect 8 0 5 0;
#X connect 9 0 10 0;
#X connect 9 0 0 0;
#X connect 9 0 1 0;
#X connect 9 0 4 0;
#X connect 9 0 11 0;
#X connect 9 0 13 0;
#X connect 10 0 6 0;
#X connect 10 0 7 0;
#X connect 10 0 8 0;
#X connect 10 0 17 0;
#X connect 11 0 12 0;
#X connect 13 0 12 0;
#X connect 14 0 12 0;
#X connect 15 0 12 0;
#X connect 16 0 12 0;
#X connect 17 0 18 0;
#X connect 17 0 21 0;
#X connect 17 0 22 0;
#X connect 17 0 20 0;
#X connect 17 0 26 0;
#X connect 18 0 5 0;
#X connect 19 0 3 0;
#X connect 20 0 19 0;
#X connect 21 0 3 0;
#X connect 22 0 2 0;
#X connect 23 0 2 0;
#X connect 24 0 3 0;
#X connect 25 0 5 0;
#X connect 26 0 23 0;
#X connect 26 0 24 0;
#X connect 26 0 25 0;
#X connect 26 0 29 0;
#X connect 27 0 12 0;
#X connect 28 0 12 0;
#X connect 29 0 27 0;
#X connect 29 0 28 0;
