#N canvas 130 121 1196 733 10;
#X declare -path ./lib/sssad;
#X declare -path ./lib/sssad;
#X declare -path ./lib/sssad;
#X declare -path ./lib/sssad;
#X declare -path ./lib/sssad;
#X declare -path ./lib/sssad;
#X declare -path ./lib/sssad;
#X obj 65 121 daThingFishFaceMain;
#X obj 61 77 daThingFishHands;
#X obj 53 18 r TFOut;
#X msg 177 175 /ThiFiContourTete/Activate \$1;
#X msg 177 198 /ThiFiYeuxFront/Activate \$1;
#X msg 177 220 /ThiFiBecHaut/Activate \$1;
#X msg 177 243 /ThiFiBecBas/Activate \$1;
#X msg 177 265 /ThiFiCol/Activate \$1;
#X msg 177 287 /HandJardin/Activate \$1;
#X msg 177 311 /HandCour/Activate \$1;
#X msg 177 93 1;
#X msg 120 151 0;
#X obj 177 337 send OSC_MESSAGES;
#X obj 478 32 r TFIn;
#X obj 478 76 s TFHandsIn;
#X obj 605 68 delay 200;
#X obj 478 53 bng 15 250 50 0 empty empty empty 17 7 0 10 -262144 -1
-1;
#X obj 605 123 s TFFaceIn;
#X obj 478 134 delay 1500;
#X obj 504 322 r TFPlaysFlute;
#X obj 504 354 bng 15 250 50 0 empty empty empty 17 7 0 10 -262144
-1 -1;
#X obj 531 413 s DaThingFishFaceProfile;
#X obj 504 387 t b b;
#X obj 504 623 s OSC_MESSAGES;
#X msg 658 471 /ThiFiBecBas/Rotate -5;
#X obj 516 516 metro 200;
#X obj 621 596 line;
#X obj 732 532 / 100;
#X msg 745 603 /HandCour/Xpos \$1;
#X obj 526 559 random 100;
#X obj 662 535 - 100;
#X obj 550 592 - 4.6;
#X msg 621 566 -4.6;
#X msg 747 374 stop;
#X obj 743 321 r TFStopsPlayingFlute;
#X obj 796 376 s HandsBackFromPlayingFlute;
#X obj 826 420 s DaThingFishFaceGetsBackStraight;
#X msg 504 448 /ThiFi*/Rotate \$1;
#X msg 459 423 -10;
#X msg 754 430 0 200;
#X obj 585 382 s HandsPlayingFluteActivate;
#X obj 790 349 bng 15 250 50 0 empty empty empty 17 7 0 10 -262144
-1 -1;
#X connect 1 0 0 0;
#X connect 2 0 1 0;
#X connect 2 0 10 0;
#X connect 3 0 12 0;
#X connect 4 0 12 0;
#X connect 5 0 12 0;
#X connect 6 0 12 0;
#X connect 7 0 12 0;
#X connect 8 0 12 0;
#X connect 9 0 12 0;
#X connect 10 0 3 0;
#X connect 10 0 4 0;
#X connect 10 0 5 0;
#X connect 10 0 6 0;
#X connect 10 0 7 0;
#X connect 10 0 8 0;
#X connect 10 0 9 0;
#X connect 11 0 3 0;
#X connect 11 0 4 0;
#X connect 11 0 5 0;
#X connect 11 0 6 0;
#X connect 11 0 7 0;
#X connect 11 0 8 0;
#X connect 11 0 9 0;
#X connect 13 0 16 0;
#X connect 15 0 17 0;
#X connect 16 0 15 0;
#X connect 16 0 14 0;
#X connect 16 0 18 0;
#X connect 18 0 11 0;
#X connect 19 0 20 0;
#X connect 20 0 22 0;
#X connect 22 0 24 0;
#X connect 22 0 25 0;
#X connect 22 0 38 0;
#X connect 22 1 21 0;
#X connect 22 1 32 0;
#X connect 22 1 40 0;
#X connect 24 0 23 0;
#X connect 25 0 29 0;
#X connect 26 0 28 0;
#X connect 27 0 31 0;
#X connect 28 0 23 0;
#X connect 29 0 30 0;
#X connect 30 0 27 0;
#X connect 31 0 26 0;
#X connect 32 0 26 0;
#X connect 33 0 25 0;
#X connect 34 0 41 0;
#X connect 37 0 23 0;
#X connect 38 0 37 0;
#X connect 39 0 37 0;
#X connect 41 0 33 0;
#X connect 41 0 35 0;
#X connect 41 0 36 0;
#X connect 41 0 39 0;
