#N canvas 589 182 723 480 10;
#X declare -path ./lib/sssad;
#X declare -path ./lib/sssad;
#X declare -path ./lib/sssad;
#X declare -path ./lib/sssad;
#X declare -path ./lib/sssad;
#X declare -path ./lib/sssad;
#X declare -path ./lib/sssad;
#X declare -path ./lib/sssad;
#X declare -path ./lib/sssad;
#X obj 65 121 daThingFishFaceMain;
#X obj 61 77 daThingFishHands;
#X obj 53 18 r TFOut;
#X msg 177 175 /ThiFiContourTete/Activate \$1;
#X msg 177 198 /ThiFiYeuxFront/Activate \$1;
#X msg 177 220 /ThiFiBecHaut/Activate \$1;
#X msg 177 243 /ThiFiBecBas/Activate \$1;
#X msg 177 265 /ThiFiCol/Activate \$1;
#X msg 177 287 /HandJardin/Activate \$1;
#X msg 177 311 /HandCour/Activate \$1;
#X msg 177 93 1;
#X msg 120 151 0;
#X obj 177 337 send OSC_MESSAGES;
#X connect 1 0 0 0;
#X connect 2 0 1 0;
#X connect 2 0 10 0;
#X connect 3 0 12 0;
#X connect 4 0 12 0;
#X connect 5 0 12 0;
#X connect 6 0 12 0;
#X connect 7 0 12 0;
#X connect 8 0 12 0;
#X connect 9 0 12 0;
#X connect 10 0 3 0;
#X connect 10 0 4 0;
#X connect 10 0 5 0;
#X connect 10 0 6 0;
#X connect 10 0 7 0;
#X connect 10 0 8 0;
#X connect 10 0 9 0;
#X connect 11 0 3 0;
#X connect 11 0 4 0;
#X connect 11 0 5 0;
#X connect 11 0 6 0;
#X connect 11 0 7 0;
#X connect 11 0 8 0;
#X connect 11 0 9 0;
