#N canvas 0 100 1440 800 10;
#N canvas 568 177 450 300 ArriveeTaureau 0;
#X obj 71 37 r ArriveeTaureau;
#X obj 71 69 bng 15 250 50 0 empty empty empty 17 7 0 10 -262144 -1
-1;
#X obj 77 98 t b b;
#X msg 99 209 /DunjonDoor[1-2]*/Xpos \$1;
#X obj 97 169 line;
#X obj 99 249 s OSC_MESSAGES;
#X msg 35 133 4 500;
#X msg 162 133 10;
#X obj 245 113 s DriveInTaureauInit;
#X obj 271 169 line;
#X msg 273 209 /DunjonDoor[3-4]*/Xpos \$1;
#X msg 209 134 6 500;
#X connect 0 0 1 0;
#X connect 1 0 2 0;
#X connect 2 0 6 0;
#X connect 2 0 11 0;
#X connect 2 1 7 0;
#X connect 2 1 8 0;
#X connect 3 0 5 0;
#X connect 4 0 3 0;
#X connect 6 0 4 0;
#X connect 7 0 4 0;
#X connect 7 0 9 0;
#X connect 9 0 10 0;
#X connect 10 0 5 0;
#X connect 11 0 9 0;
#X restore 44 43 pd ArriveeTaureau;
#N canvas 0 100 1440 800 ArriveeDriveInPeople 1;
#X obj 71 69 bng 15 250 50 0 empty empty empty 17 7 0 10 -262144 -1
-1;
#X obj 71 37 r ArriveeDriveInPeople;
#X obj 665 130 s DriveInPeopleInit;
#X msg 466 336 /Tube/Xpos \$1;
#X msg 199 395 /Assiette_Bush/Xpos \$1;
#X msg 318 367 /Assiette_Gail/Xpos \$1;
#X obj 196 433 s OSC_MESSAGES;
#X obj 206 365 line;
#X msg 182 289 2.5;
#X msg 310 214 4.5;
#X obj 322 288 line;
#X obj 409 305 line;
#X msg 441 212 4.5;
#X msg 224 252 3 1500;
#X msg 333 255 3.5 1500;
#X msg 478 244 3.2 1500;
#X obj 478 130 delay 1000;
#X obj 492 462 delay 800;
#X obj 499 582 / 100;
#X obj 509 621 + 2.5;
#X obj 508 484 bng 15 250 50 0 empty empty empty 17 7 0 10 -262144
-1 -1;
#X obj 579 582 / 100;
#X obj 589 621 + 2.5;
#X obj 655 547 random 200;
#X obj 649 582 / 100;
#X obj 659 621 + 2.5;
#X msg 594 492 stop;
#X obj 637 395 r DriveInPeopleStop;
#X obj 505 516 metro 1500;
#X msg 664 664 \$1 500;
#X msg 504 664 \$1 1500;
#X obj 505 547 random 120;
#X obj 585 547 random 120;
#X msg 593 664 \$1 1200;
#X obj 85 113 t b b;
#X connect 0 0 34 0;
#X connect 1 0 0 0;
#X connect 3 0 6 0;
#X connect 4 0 6 0;
#X connect 5 0 6 0;
#X connect 7 0 4 0;
#X connect 8 0 7 0;
#X connect 9 0 10 0;
#X connect 10 0 5 0;
#X connect 11 0 3 0;
#X connect 12 0 11 0;
#X connect 13 0 7 0;
#X connect 14 0 10 0;
#X connect 15 0 11 0;
#X connect 16 0 15 0;
#X connect 16 0 17 0;
#X connect 17 0 20 0;
#X connect 18 0 19 0;
#X connect 19 0 30 0;
#X connect 20 0 28 0;
#X connect 21 0 22 0;
#X connect 22 0 33 0;
#X connect 23 0 24 0;
#X connect 24 0 25 0;
#X connect 25 0 29 0;
#X connect 26 0 28 0;
#X connect 27 0 26 0;
#X connect 28 0 23 0;
#X connect 28 0 31 0;
#X connect 28 0 32 0;
#X connect 29 0 11 0;
#X connect 30 0 7 0;
#X connect 31 0 18 0;
#X connect 32 0 21 0;
#X connect 33 0 10 0;
#X connect 34 0 13 0;
#X connect 34 0 14 0;
#X connect 34 0 16 0;
#X connect 34 1 2 0;
#X connect 34 1 8 0;
#X connect 34 1 9 0;
#X connect 34 1 12 0;
#X restore 44 23 pd ArriveeDriveInPeople;
#N canvas 562 171 615 353 TaureauABascule 0;
#X obj 71 69 bng 15 250 50 0 empty empty empty 17 7 0 10 -262144 -1
-1;
#X obj 77 98 t b b;
#X obj 99 203 line;
#X obj 99 303 s OSC_MESSAGES;
#X obj 71 37 r TaureauABasculeOn;
#X msg 162 167 0;
#X msg 99 243 /DunjonDoor[1-2]/Rotate \$1;
#X msg 99 263 /DunjonDoor1Cadre/Rotate \$1;
#X obj 285 209 line;
#X msg 348 164 -1.8;
#X msg 285 240 /DunjonDoor[1-2]/Ypos \$1;
#X msg 285 260 /DunjonDoor1Cadre/Ypos \$1;
#X obj 455 200 line;
#X msg 455 240 /DunjonDoor[1-2]/Xpos \$1;
#X msg 455 260 /DunjonDoor1Cadre/Xpos \$1;
#X msg 518 164 4;
#X obj 410 171 + 4;
#X obj 32 143 random 91;
#X obj 31 161 - 45;
#X obj 245 175 - 1.8;
#X msg 219 82 stop;
#X obj 222 44 r TaureaubasculeOff;
#X obj 194 202 / 112.5;
#X msg 254 140 \$1;
#X obj 389 120 / 100;
#X floatatom 249 223 5 0 0 0 - - -;
#X obj 452 137 + 1.8;
#X obj 344 129 - 20;
#X obj 300 104 random 20;
#X obj 32 120 metro 200;
#X msg 31 181 \$1 200;
#X msg 241 198 \$1 200;
#X msg 363 205 \$1 200;
#N canvas 0 100 1440 800 QRNKiffs 0;
#X obj 24 25 r QRNKiffs;
#X obj 204 85 bng 15 250 50 0 empty empty empty 17 7 0 10 -262144 -1
-1;
#X obj 204 697 s OSC_MESSAGES;
#X obj 447 139 metro 400;
#X msg 560 293 set \$1;
#X msg 560 368 400;
#X obj 498 81 r tempoDance;
#X obj 610 416 / 2;
#X obj 697 433 delay 200;
#X msg 660 483 0;
#X msg 697 483 1;
#X obj 660 566 - 1;
#X obj 660 590 mod 2;
#X msg 925 489 50;
#X msg 925 450 set \$1;
#X obj 856 555 line;
#X obj 806 472 t b b;
#X obj 984 489 delay 50;
#X obj 984 518 t b b;
#X msg 984 538 0;
#X obj 809 433 / 4;
#X obj 984 576 delay 50;
#X msg 856 489 0.3;
#X msg 413 80 stop;
#X msg 743 161 0;
#X msg 808 180 1;
#X obj 882 616 spigot;
#X msg 660 525 /DunjonDoor[3-4]*/Flip \$1;
#X msg 660 613 /DunjonDoor4Cadre/Activate \$1;
#X msg 660 633 /DunjonDoor4/Activate \$1;
#X msg 856 680 /DunjonDoor4Cadre/gYpos \$1;
#X obj 111 475 line;
#X msg 111 447 \$1 400;
#X obj 271 226 t b b;
#X msg 338 262 /DunjonDoor[3-4]*/ParentName /Dummy;
#X msg 116 502 /DunjonDoor[3-4]*/gXpos \$1;
#X msg 338 282 /DunjonDoor[3-4]*/Child/[X-Y]pos 1;
#X obj 111 425 / 100;
#X obj 113 405 - 400;
#X obj 113 382 random 400;
#X obj 375 366 delay 200;
#X obj 381 451 line;
#X msg 376 502 /DunjonDoor[3-4]*/gYpos \$1;
#X obj 338 348 / 100;
#X obj 347 398 random 60;
#X msg 341 423 \$1 300;
#X msg 434 398 0 100;
#X obj 406 33 r DriveInQNRstopdrague;
#X obj 726 42 s DriveInQNRGoleInit;
#X connect 0 0 1 0;
#X connect 0 0 48 0;
#X connect 1 0 3 0;
#X connect 1 0 25 0;
#X connect 1 0 33 0;
#X connect 3 0 5 0;
#X connect 3 0 8 0;
#X connect 3 0 9 0;
#X connect 3 0 16 0;
#X connect 3 0 39 0;
#X connect 3 0 46 0;
#X connect 3 0 40 0;
#X connect 4 0 5 0;
#X connect 5 0 7 0;
#X connect 6 0 3 1;
#X connect 6 0 4 0;
#X connect 6 0 24 0;
#X connect 7 0 8 1;
#X connect 7 0 20 0;
#X connect 8 0 10 0;
#X connect 9 0 27 0;
#X connect 9 0 29 0;
#X connect 9 0 11 0;
#X connect 10 0 27 0;
#X connect 10 0 29 0;
#X connect 10 0 11 0;
#X connect 11 0 12 0;
#X connect 12 0 28 0;
#X connect 13 0 15 1;
#X connect 14 0 13 0;
#X connect 15 0 30 0;
#X connect 16 0 22 0;
#X connect 16 0 17 0;
#X connect 16 1 13 0;
#X connect 17 0 18 0;
#X connect 18 0 19 0;
#X connect 18 0 21 0;
#X connect 18 1 13 0;
#X connect 19 0 15 0;
#X connect 20 0 14 0;
#X connect 20 0 17 1;
#X connect 20 0 21 1;
#X connect 21 0 26 0;
#X connect 22 0 15 0;
#X connect 23 0 3 0;
#X connect 23 0 22 0;
#X connect 23 0 10 0;
#X connect 24 0 26 1;
#X connect 25 0 26 1;
#X connect 26 0 16 0;
#X connect 27 0 2 0;
#X connect 28 0 2 0;
#X connect 29 0 2 0;
#X connect 30 0 2 0;
#X connect 31 0 35 0;
#X connect 32 0 31 0;
#X connect 33 0 36 0;
#X connect 33 1 34 0;
#X connect 34 0 2 0;
#X connect 35 0 2 0;
#X connect 36 0 2 0;
#X connect 37 0 32 0;
#X connect 38 0 37 0;
#X connect 39 0 38 0;
#X connect 40 0 44 0;
#X connect 41 0 42 0;
#X connect 42 0 2 0;
#X connect 43 0 45 0;
#X connect 44 0 43 0;
#X connect 45 0 41 0;
#X connect 46 0 41 0;
#X connect 47 0 23 0;
#X restore 508 27 pd QRNKiffs;
#X connect 0 0 1 0;
#X connect 1 0 29 0;
#X connect 1 1 5 0;
#X connect 1 1 9 0;
#X connect 1 1 15 0;
#X connect 2 0 6 0;
#X connect 2 0 7 0;
#X connect 4 0 0 0;
#X connect 5 0 2 0;
#X connect 6 0 3 0;
#X connect 7 0 3 0;
#X connect 8 0 10 0;
#X connect 8 0 11 0;
#X connect 9 0 8 0;
#X connect 10 0 3 0;
#X connect 11 0 3 0;
#X connect 12 0 13 0;
#X connect 12 0 14 0;
#X connect 13 0 3 0;
#X connect 14 0 3 0;
#X connect 15 0 12 0;
#X connect 16 0 32 0;
#X connect 17 0 18 0;
#X connect 18 0 30 0;
#X connect 19 0 31 0;
#X connect 19 0 25 0;
#X connect 20 0 29 0;
#X connect 21 0 20 0;
#X connect 22 0 16 0;
#X connect 22 0 19 0;
#X connect 24 0 26 0;
#X connect 27 0 24 0;
#X connect 28 0 27 0;
#X connect 29 0 17 0;
#X connect 29 0 28 0;
#X connect 30 0 2 0;
#X connect 30 0 22 0;
#X connect 31 0 8 0;
#X connect 32 0 12 0;
#X restore 44 63 pd TaureauABascule;
#N canvas 564 173 615 353 HAABBrasPending 0;
#X obj 71 69 bng 15 250 50 0 empty empty empty 17 7 0 10 -262144 -1
-1;
#X obj 70 272 s OSC_MESSAGES;
#X msg 70 228 /EvilPrince_BrasCour/Rotate \$1;
#X msg 70 173 20 500;
#X obj 70 205 line;
#X obj 261 105 metro 700;
#X obj 144 156 delay 200;
#X msg 142 188 130 200;
#X obj 270 205 line;
#X obj 344 156 delay 200;
#X msg 270 228 /EvilPrince_Aura/Rotate \$1;
#X msg 270 173 -20 500;
#X msg 342 188 -130 200;
#X obj 71 37 r DriveInHarryInit;
#X obj 317 40 r DriveInHarryStops;
#X msg 327 81 stop;
#X connect 0 0 5 0;
#X connect 2 0 1 0;
#X connect 3 0 4 0;
#X connect 4 0 2 0;
#X connect 5 0 7 0;
#X connect 5 0 6 0;
#X connect 5 0 9 0;
#X connect 5 0 12 0;
#X connect 6 0 3 0;
#X connect 7 0 4 0;
#X connect 8 0 10 0;
#X connect 9 0 11 0;
#X connect 10 0 1 0;
#X connect 11 0 8 0;
#X connect 12 0 8 0;
#X connect 13 0 0 0;
#X connect 14 0 15 0;
#X connect 15 0 5 0;
#X restore 44 93 pd HAABBrasPending;
#N canvas 236 320 450 300 TruckLightning 0;
#X obj 31 26 r DriveInInit;
#X obj 38 69 bng 15 250 50 0 empty empty empty 17 7 0 10 -262144 -1
-1;
#X obj 49 111 metro 300;
#X obj 42 153 random 101;
#X obj 59 200 / 100;
#X msg 70 242 /Prison_Prisonniers/Alpha \$1;
#X obj 130 223 line;
#X msg 204 203 \$1 300;
#X obj 85 279 s OSC_MESSAGES;
#X obj 146 31 r TruckLightningStops;
#X msg 143 72 stop;
#X connect 0 0 1 0;
#X connect 1 0 2 0;
#X connect 2 0 3 0;
#X connect 3 0 4 0;
#X connect 4 0 7 0;
#X connect 5 0 8 0;
#X connect 6 0 5 0;
#X connect 7 0 6 0;
#X connect 9 0 10 0;
#X connect 10 0 2 0;
#X restore 48 123 pd TruckLightning;
#N canvas 382 271 733 370 DriveInComesInFromJardin 0;
#X obj 45 29 r DriveInComesInFromJardin;
#X obj 45 61 bng 15 250 50 0 empty empty empty 17 7 0 10 -262144 -1
-1;
#X obj 473 123 s DriveInInit;
#X obj 473 143 s DriveInHarryInit;
#X msg 113 215 -18;
#X msg 247 196 /EvilPrince*/ParentName /CuveGaloot;
#X msg 247 216 /CuveGalootContent*/ParentName /CuveGaloot;
#X msg 247 236 /DjventiloPales*/ParentName /CuveGaloot;
#X msg 247 276 /EvilPrince*/Child/Xpos 1;
#X msg 247 296 /CuveGalootContent*/Child/Xpos 1;
#X msg 247 316 /DjventiloPales*/Child/Xpos 1;
#X obj 45 94 t b b b b;
#X msg 45 302 /CuveGaloot/Xpos \$1;
#X obj 61 262 line;
#X msg 44 201 0 400;
#X obj 52 343 s OSC_MESSAGES;
#X msg 507 196 /EvilPrince*/Activate 1;
#X msg 507 216 /CuveGaloot*/Activate 1;
#X msg 507 236 /DjventiloPales*/Activate 1;
#X msg 507 256 /Prison_*/Activate 1;
#X msg 247 256 /Prison_*/ParentName /CuveGaloot;
#X msg 247 336 /Prison_*/Child/Xpos 1;
#X connect 0 0 1 0;
#X connect 1 0 11 0;
#X connect 4 0 13 0;
#X connect 5 0 15 0;
#X connect 6 0 15 0;
#X connect 7 0 15 0;
#X connect 8 0 15 0;
#X connect 9 0 15 0;
#X connect 10 0 15 0;
#X connect 11 0 14 0;
#X connect 11 0 16 0;
#X connect 11 0 17 0;
#X connect 11 0 18 0;
#X connect 11 0 19 0;
#X connect 11 1 4 0;
#X connect 11 2 5 0;
#X connect 11 2 6 0;
#X connect 11 2 7 0;
#X connect 11 2 8 0;
#X connect 11 2 9 0;
#X connect 11 2 10 0;
#X connect 11 2 20 0;
#X connect 11 2 21 0;
#X connect 11 3 2 0;
#X connect 11 3 3 0;
#X connect 12 0 15 0;
#X connect 13 0 12 0;
#X connect 14 0 13 0;
#X connect 16 0 15 0;
#X connect 17 0 15 0;
#X connect 18 0 15 0;
#X connect 19 0 15 0;
#X connect 20 0 15 0;
#X connect 21 0 15 0;
#X restore 81 235 pd DriveInComesInFromJardin;
