#N canvas 0 100 1440 800 10;
#X obj 68 304 bng 15 250 50 0 empty empty empty 17 7 0 10 -262144 -1
-1;
#N canvas 495 100 850 796 DriveInPlan3Init 0;
#X obj 234 572 send OSC_MESSAGES;
#X obj 114 499 list prepend;
#X obj 71 43 bng 15 250 50 0 empty empty empty 17 7 0 10 -262144 -1
-1;
#X obj 114 522 l2s /;
#X msg 114 132 File;
#X obj 234 539 list;
#X msg 114 109 Zpos;
#X msg 114 326 RenderOrder;
#X msg 114 369 Yscale;
#X msg 114 389 Xscale;
#X msg 114 409 Ypos;
#X msg 114 429 Xpos;
#X msg 114 225 Blue;
#X msg 114 184 Red;
#X msg 114 205 Green;
#X msg 114 305 modeAlpha;
#X msg 114 348 Shape;
#X msg 114 245 Rotate;
#X msg 114 284 Alpha;
#X msg 114 264 Activate;
#X obj 71 62 t b b b;
#X obj 56 115 t b b b;
#X obj 56 309 t b b b;
#X obj 56 352 t b b b;
#X obj 56 372 t b b b;
#X obj 56 392 t b b b;
#X obj 56 412 t b b b;
#X obj 17 331 t b b b;
#X obj 16 288 t b b b;
#X obj 56 267 t b b b;
#X obj 56 247 t b b b;
#X obj 56 228 t b b b;
#X obj 56 208 t b b b;
#X obj 56 188 t b b b;
#X obj 56 167 t b b b;
#X msg 255 245 0;
#X msg 255 284 1;
#X msg 255 184 1;
#X msg 114 449 ParentName;
#X msg 255 449 /Dummy;
#X msg 114 469 g*pos;
#X msg 255 469 0;
#X obj 56 432 t b b b;
#X obj 56 452 t b b b;
#X msg 255 326 -28;
#X msg 255 109 -3.039;
#X msg 255 205 1;
#X msg 255 225 1;
#X obj 71 22 r DriveInInit;
#X msg 183 79 /CuveGaloot;
#X msg 255 132 /home/woii/2013_Sebkha-ChottGalootFormula_ThingFish/ThingFishVideoDecorum/DriveIn/data/Scene9_PLAN3.png
;
#X msg 255 369 2.9;
#X msg 255 409 -0.4;
#X msg 255 389 6.60475;
#X msg 255 429 0;
#X msg 255 264 0;
#X connect 1 0 3 0;
#X connect 2 0 20 0;
#X connect 3 0 5 0;
#X connect 4 0 1 0;
#X connect 5 0 0 0;
#X connect 6 0 1 0;
#X connect 7 0 1 0;
#X connect 8 0 1 0;
#X connect 9 0 1 0;
#X connect 10 0 1 0;
#X connect 11 0 1 0;
#X connect 12 0 1 0;
#X connect 13 0 1 0;
#X connect 14 0 1 0;
#X connect 15 0 1 0;
#X connect 17 0 1 0;
#X connect 18 0 1 0;
#X connect 19 0 1 0;
#X connect 20 0 6 0;
#X connect 20 0 21 0;
#X connect 20 1 45 0;
#X connect 20 2 49 0;
#X connect 21 0 34 0;
#X connect 21 1 4 0;
#X connect 21 2 50 0;
#X connect 22 0 23 0;
#X connect 22 1 7 0;
#X connect 22 2 44 0;
#X connect 23 0 24 0;
#X connect 23 1 8 0;
#X connect 23 2 51 0;
#X connect 24 0 25 0;
#X connect 24 1 9 0;
#X connect 24 2 53 0;
#X connect 25 0 26 0;
#X connect 25 1 10 0;
#X connect 25 2 52 0;
#X connect 26 0 42 0;
#X connect 26 1 11 0;
#X connect 26 2 54 0;
#X connect 27 1 16 0;
#X connect 28 1 15 0;
#X connect 29 0 22 0;
#X connect 29 1 18 0;
#X connect 29 2 36 0;
#X connect 30 0 29 0;
#X connect 30 1 19 0;
#X connect 30 2 55 0;
#X connect 31 0 30 0;
#X connect 31 1 17 0;
#X connect 31 2 35 0;
#X connect 32 0 31 0;
#X connect 32 1 12 0;
#X connect 32 2 47 0;
#X connect 33 0 32 0;
#X connect 33 1 14 0;
#X connect 33 2 46 0;
#X connect 34 0 33 0;
#X connect 34 1 13 0;
#X connect 34 2 37 0;
#X connect 35 0 5 1;
#X connect 36 0 5 1;
#X connect 37 0 5 1;
#X connect 38 0 1 0;
#X connect 39 0 5 1;
#X connect 40 0 1 0;
#X connect 41 0 5 1;
#X connect 42 0 43 0;
#X connect 42 1 38 0;
#X connect 42 2 39 0;
#X connect 43 1 40 0;
#X connect 43 2 41 0;
#X connect 44 0 5 1;
#X connect 45 0 5 1;
#X connect 46 0 5 1;
#X connect 47 0 5 1;
#X connect 48 0 2 0;
#X connect 49 0 1 1;
#X connect 50 0 5 1;
#X connect 51 0 5 1;
#X connect 52 0 5 1;
#X connect 53 0 5 1;
#X connect 54 0 5 1;
#X connect 55 0 5 1;
#X restore 71 41 pd DriveInPlan3Init;
#X obj 68 350 s DriveInInit;
#N canvas 493 100 850 796 DriveInPlan2Init 0;
#X obj 234 572 send OSC_MESSAGES;
#X obj 114 499 list prepend;
#X obj 71 43 bng 15 250 50 0 empty empty empty 17 7 0 10 -262144 -1
-1;
#X obj 114 522 l2s /;
#X msg 114 132 File;
#X obj 234 539 list;
#X msg 114 109 Zpos;
#X msg 114 326 RenderOrder;
#X msg 114 369 Yscale;
#X msg 114 389 Xscale;
#X msg 114 409 Ypos;
#X msg 114 429 Xpos;
#X msg 114 225 Blue;
#X msg 114 184 Red;
#X msg 114 205 Green;
#X msg 114 305 modeAlpha;
#X msg 114 348 Shape;
#X msg 114 245 Rotate;
#X msg 114 284 Alpha;
#X msg 114 264 Activate;
#X obj 71 62 t b b b;
#X obj 56 115 t b b b;
#X obj 56 309 t b b b;
#X obj 56 352 t b b b;
#X obj 56 372 t b b b;
#X obj 56 392 t b b b;
#X obj 56 412 t b b b;
#X obj 17 331 t b b b;
#X obj 16 288 t b b b;
#X obj 56 267 t b b b;
#X obj 56 247 t b b b;
#X obj 56 228 t b b b;
#X obj 56 208 t b b b;
#X obj 56 188 t b b b;
#X obj 56 167 t b b b;
#X msg 255 245 0;
#X msg 255 284 1;
#X msg 255 184 1;
#X msg 114 449 ParentName;
#X msg 255 449 /Dummy;
#X msg 114 469 g*pos;
#X msg 255 469 0;
#X obj 56 432 t b b b;
#X obj 56 452 t b b b;
#X msg 255 205 1;
#X msg 255 225 1;
#X obj 71 22 r DriveInInit;
#X msg 255 369 2.9;
#X msg 255 409 -0.4;
#X msg 255 389 6.60475;
#X msg 183 79 /CuveGalootContent;
#X msg 255 132 /home/woii/2013_Sebkha-ChottGalootFormula_ThingFish/ThingFishVideoDecorum/DriveIn/data/Scene9_PLAN2.png
;
#X msg 255 109 -3.038;
#X msg 255 326 -27;
#X msg 255 429 0;
#X msg 255 264 0;
#X connect 1 0 3 0;
#X connect 2 0 20 0;
#X connect 3 0 5 0;
#X connect 4 0 1 0;
#X connect 5 0 0 0;
#X connect 6 0 1 0;
#X connect 7 0 1 0;
#X connect 8 0 1 0;
#X connect 9 0 1 0;
#X connect 10 0 1 0;
#X connect 11 0 1 0;
#X connect 12 0 1 0;
#X connect 13 0 1 0;
#X connect 14 0 1 0;
#X connect 15 0 1 0;
#X connect 17 0 1 0;
#X connect 18 0 1 0;
#X connect 19 0 1 0;
#X connect 20 0 6 0;
#X connect 20 0 21 0;
#X connect 20 1 52 0;
#X connect 20 2 50 0;
#X connect 21 0 34 0;
#X connect 21 1 4 0;
#X connect 21 2 51 0;
#X connect 22 0 23 0;
#X connect 22 1 7 0;
#X connect 22 2 53 0;
#X connect 23 0 24 0;
#X connect 23 1 8 0;
#X connect 23 2 47 0;
#X connect 24 0 25 0;
#X connect 24 1 9 0;
#X connect 24 2 49 0;
#X connect 25 0 26 0;
#X connect 25 1 10 0;
#X connect 25 2 48 0;
#X connect 26 0 42 0;
#X connect 26 1 11 0;
#X connect 26 2 54 0;
#X connect 27 1 16 0;
#X connect 28 1 15 0;
#X connect 29 0 22 0;
#X connect 29 1 18 0;
#X connect 29 2 36 0;
#X connect 30 0 29 0;
#X connect 30 1 19 0;
#X connect 30 2 55 0;
#X connect 31 0 30 0;
#X connect 31 1 17 0;
#X connect 31 2 35 0;
#X connect 32 0 31 0;
#X connect 32 1 12 0;
#X connect 32 2 45 0;
#X connect 33 0 32 0;
#X connect 33 1 14 0;
#X connect 33 2 44 0;
#X connect 34 0 33 0;
#X connect 34 1 13 0;
#X connect 34 2 37 0;
#X connect 35 0 5 1;
#X connect 36 0 5 1;
#X connect 37 0 5 1;
#X connect 38 0 1 0;
#X connect 39 0 5 1;
#X connect 40 0 1 0;
#X connect 41 0 5 1;
#X connect 42 0 43 0;
#X connect 42 1 38 0;
#X connect 42 2 39 0;
#X connect 43 1 40 0;
#X connect 43 2 41 0;
#X connect 44 0 5 1;
#X connect 45 0 5 1;
#X connect 46 0 2 0;
#X connect 47 0 5 1;
#X connect 48 0 5 1;
#X connect 49 0 5 1;
#X connect 50 0 1 1;
#X connect 51 0 5 1;
#X connect 52 0 5 1;
#X connect 53 0 5 1;
#X connect 54 0 5 1;
#X connect 55 0 5 1;
#X restore 71 61 pd DriveInPlan2Init;
#N canvas 493 100 850 796 DriveInPlan1Init 0;
#X obj 234 572 send OSC_MESSAGES;
#X obj 114 499 list prepend;
#X obj 71 43 bng 15 250 50 0 empty empty empty 17 7 0 10 -262144 -1
-1;
#X obj 114 522 l2s /;
#X msg 114 132 File;
#X obj 234 539 list;
#X msg 114 109 Zpos;
#X msg 114 326 RenderOrder;
#X msg 114 369 Yscale;
#X msg 114 389 Xscale;
#X msg 114 409 Ypos;
#X msg 114 429 Xpos;
#X msg 114 225 Blue;
#X msg 114 184 Red;
#X msg 114 205 Green;
#X msg 114 305 modeAlpha;
#X msg 114 348 Shape;
#X msg 114 245 Rotate;
#X msg 114 284 Alpha;
#X msg 114 264 Activate;
#X obj 71 62 t b b b;
#X obj 56 115 t b b b;
#X obj 56 309 t b b b;
#X obj 56 352 t b b b;
#X obj 56 372 t b b b;
#X obj 56 392 t b b b;
#X obj 56 412 t b b b;
#X obj 17 331 t b b b;
#X obj 16 288 t b b b;
#X obj 56 267 t b b b;
#X obj 56 247 t b b b;
#X obj 56 228 t b b b;
#X obj 56 208 t b b b;
#X obj 56 188 t b b b;
#X obj 56 167 t b b b;
#X msg 255 245 0;
#X msg 255 284 1;
#X msg 255 184 1;
#X msg 114 449 ParentName;
#X msg 255 449 /Dummy;
#X msg 114 469 g*pos;
#X msg 255 469 0;
#X obj 56 432 t b b b;
#X obj 56 452 t b b b;
#X msg 255 205 1;
#X msg 255 225 1;
#X obj 71 22 r DriveInInit;
#X msg 255 369 2.9;
#X msg 255 409 -0.4;
#X msg 255 389 6.60475;
#X msg 183 79 /CuveGalootContent2;
#X msg 255 109 -3.037;
#X msg 255 132 /home/woii/2013_Sebkha-ChottGalootFormula_ThingFish/ThingFishVideoDecorum/DriveIn/data/Scene9_PLAN1.png
;
#X msg 255 326 -26;
#X msg 255 429 0;
#X msg 255 264 0;
#X connect 1 0 3 0;
#X connect 2 0 20 0;
#X connect 3 0 5 0;
#X connect 4 0 1 0;
#X connect 5 0 0 0;
#X connect 6 0 1 0;
#X connect 7 0 1 0;
#X connect 8 0 1 0;
#X connect 9 0 1 0;
#X connect 10 0 1 0;
#X connect 11 0 1 0;
#X connect 12 0 1 0;
#X connect 13 0 1 0;
#X connect 14 0 1 0;
#X connect 15 0 1 0;
#X connect 17 0 1 0;
#X connect 18 0 1 0;
#X connect 19 0 1 0;
#X connect 20 0 6 0;
#X connect 20 0 21 0;
#X connect 20 1 51 0;
#X connect 20 2 50 0;
#X connect 21 0 34 0;
#X connect 21 1 4 0;
#X connect 21 2 52 0;
#X connect 22 0 23 0;
#X connect 22 1 7 0;
#X connect 22 2 53 0;
#X connect 23 0 24 0;
#X connect 23 1 8 0;
#X connect 23 2 47 0;
#X connect 24 0 25 0;
#X connect 24 1 9 0;
#X connect 24 2 49 0;
#X connect 25 0 26 0;
#X connect 25 1 10 0;
#X connect 25 2 48 0;
#X connect 26 0 42 0;
#X connect 26 1 11 0;
#X connect 26 2 54 0;
#X connect 27 1 16 0;
#X connect 28 1 15 0;
#X connect 29 0 22 0;
#X connect 29 1 18 0;
#X connect 29 2 36 0;
#X connect 30 0 29 0;
#X connect 30 1 19 0;
#X connect 30 2 55 0;
#X connect 31 0 30 0;
#X connect 31 1 17 0;
#X connect 31 2 35 0;
#X connect 32 0 31 0;
#X connect 32 1 12 0;
#X connect 32 2 45 0;
#X connect 33 0 32 0;
#X connect 33 1 14 0;
#X connect 33 2 44 0;
#X connect 34 0 33 0;
#X connect 34 1 13 0;
#X connect 34 2 37 0;
#X connect 35 0 5 1;
#X connect 36 0 5 1;
#X connect 37 0 5 1;
#X connect 38 0 1 0;
#X connect 39 0 5 1;
#X connect 40 0 1 0;
#X connect 41 0 5 1;
#X connect 42 0 43 0;
#X connect 42 1 38 0;
#X connect 42 2 39 0;
#X connect 43 1 40 0;
#X connect 43 2 41 0;
#X connect 44 0 5 1;
#X connect 45 0 5 1;
#X connect 46 0 2 0;
#X connect 47 0 5 1;
#X connect 48 0 5 1;
#X connect 49 0 5 1;
#X connect 50 0 1 1;
#X connect 51 0 5 1;
#X connect 52 0 5 1;
#X connect 53 0 5 1;
#X connect 54 0 5 1;
#X connect 55 0 5 1;
#X restore 71 81 pd DriveInPlan1Init;
#N canvas 481 100 850 796 DriveInTruckCabineInit 0;
#X obj 234 572 send OSC_MESSAGES;
#X obj 114 499 list prepend;
#X obj 71 43 bng 15 250 50 0 empty empty empty 17 7 0 10 -262144 -1
-1;
#X obj 114 522 l2s /;
#X msg 114 132 File;
#X obj 234 539 list;
#X msg 114 109 Zpos;
#X msg 114 326 RenderOrder;
#X msg 114 369 Yscale;
#X msg 114 389 Xscale;
#X msg 114 409 Ypos;
#X msg 114 429 Xpos;
#X msg 114 225 Blue;
#X msg 114 184 Red;
#X msg 114 205 Green;
#X msg 114 305 modeAlpha;
#X msg 114 348 Shape;
#X msg 114 245 Rotate;
#X msg 114 284 Alpha;
#X msg 114 264 Activate;
#X obj 71 62 t b b b;
#X obj 56 115 t b b b;
#X obj 56 309 t b b b;
#X obj 56 352 t b b b;
#X obj 56 372 t b b b;
#X obj 56 392 t b b b;
#X obj 56 412 t b b b;
#X obj 17 331 t b b b;
#X obj 16 288 t b b b;
#X obj 56 267 t b b b;
#X obj 56 247 t b b b;
#X obj 56 228 t b b b;
#X obj 56 208 t b b b;
#X obj 56 188 t b b b;
#X obj 56 167 t b b b;
#X msg 255 245 0;
#X msg 255 284 1;
#X msg 255 184 1;
#X msg 114 449 ParentName;
#X msg 255 449 /Dummy;
#X msg 114 469 g*pos;
#X msg 255 469 0;
#X obj 56 432 t b b b;
#X obj 56 452 t b b b;
#X msg 255 205 1;
#X msg 255 225 1;
#X obj 71 22 r DriveInInit;
#X msg 255 369 2.8;
#X msg 255 389 2.8;
#X msg 255 132 /home/woii/2013_Sebkha-ChottGalootFormula_ThingFish/ThingFishVideoDecorum/DriveIn/data/Scene9_Truck_cabine.png
;
#X msg 255 409 -0.5;
#X msg 255 109 -3.037;
#X msg 255 326 -24;
#X msg 255 429 -4.2;
#X msg 183 79 /Prison_Barreaux;
#X msg 255 264 0;
#X connect 1 0 3 0;
#X connect 2 0 20 0;
#X connect 3 0 5 0;
#X connect 4 0 1 0;
#X connect 5 0 0 0;
#X connect 6 0 1 0;
#X connect 7 0 1 0;
#X connect 8 0 1 0;
#X connect 9 0 1 0;
#X connect 10 0 1 0;
#X connect 11 0 1 0;
#X connect 12 0 1 0;
#X connect 13 0 1 0;
#X connect 14 0 1 0;
#X connect 15 0 1 0;
#X connect 17 0 1 0;
#X connect 18 0 1 0;
#X connect 19 0 1 0;
#X connect 20 0 6 0;
#X connect 20 0 21 0;
#X connect 20 1 51 0;
#X connect 20 2 54 0;
#X connect 21 0 34 0;
#X connect 21 1 4 0;
#X connect 21 2 49 0;
#X connect 22 0 23 0;
#X connect 22 1 7 0;
#X connect 22 2 52 0;
#X connect 23 0 24 0;
#X connect 23 1 8 0;
#X connect 23 2 47 0;
#X connect 24 0 25 0;
#X connect 24 1 9 0;
#X connect 24 2 48 0;
#X connect 25 0 26 0;
#X connect 25 1 10 0;
#X connect 25 2 50 0;
#X connect 26 0 42 0;
#X connect 26 1 11 0;
#X connect 26 2 53 0;
#X connect 27 1 16 0;
#X connect 28 1 15 0;
#X connect 29 0 22 0;
#X connect 29 1 18 0;
#X connect 29 2 36 0;
#X connect 30 0 29 0;
#X connect 30 1 19 0;
#X connect 30 2 55 0;
#X connect 31 0 30 0;
#X connect 31 1 17 0;
#X connect 31 2 35 0;
#X connect 32 0 31 0;
#X connect 32 1 12 0;
#X connect 32 2 45 0;
#X connect 33 0 32 0;
#X connect 33 1 14 0;
#X connect 33 2 44 0;
#X connect 34 0 33 0;
#X connect 34 1 13 0;
#X connect 34 2 37 0;
#X connect 35 0 5 1;
#X connect 36 0 5 1;
#X connect 37 0 5 1;
#X connect 38 0 1 0;
#X connect 39 0 5 1;
#X connect 40 0 1 0;
#X connect 41 0 5 1;
#X connect 42 0 43 0;
#X connect 42 1 38 0;
#X connect 42 2 39 0;
#X connect 43 1 40 0;
#X connect 43 2 41 0;
#X connect 44 0 5 1;
#X connect 45 0 5 1;
#X connect 46 0 2 0;
#X connect 47 0 5 1;
#X connect 48 0 5 1;
#X connect 49 0 5 1;
#X connect 50 0 5 1;
#X connect 51 0 5 1;
#X connect 52 0 5 1;
#X connect 53 0 5 1;
#X connect 54 0 1 1;
#X connect 55 0 5 1;
#X restore 71 121 pd DriveInTruckCabineInit;
#N canvas 479 100 850 796 DriveInTruckFeuxInit 0;
#X obj 234 572 send OSC_MESSAGES;
#X obj 114 499 list prepend;
#X obj 71 43 bng 15 250 50 0 empty empty empty 17 7 0 10 -262144 -1
-1;
#X obj 114 522 l2s /;
#X msg 114 132 File;
#X obj 234 539 list;
#X msg 114 109 Zpos;
#X msg 114 326 RenderOrder;
#X msg 114 369 Yscale;
#X msg 114 389 Xscale;
#X msg 114 409 Ypos;
#X msg 114 429 Xpos;
#X msg 114 225 Blue;
#X msg 114 184 Red;
#X msg 114 205 Green;
#X msg 114 305 modeAlpha;
#X msg 114 348 Shape;
#X msg 114 245 Rotate;
#X msg 114 284 Alpha;
#X msg 114 264 Activate;
#X obj 71 62 t b b b;
#X obj 56 115 t b b b;
#X obj 56 309 t b b b;
#X obj 56 352 t b b b;
#X obj 56 372 t b b b;
#X obj 56 392 t b b b;
#X obj 56 412 t b b b;
#X obj 17 331 t b b b;
#X obj 16 288 t b b b;
#X obj 56 267 t b b b;
#X obj 56 247 t b b b;
#X obj 56 228 t b b b;
#X obj 56 208 t b b b;
#X obj 56 188 t b b b;
#X obj 56 167 t b b b;
#X msg 255 245 0;
#X msg 255 284 1;
#X msg 255 184 1;
#X msg 114 449 ParentName;
#X msg 255 449 /Dummy;
#X msg 114 469 g*pos;
#X msg 255 469 0;
#X obj 56 432 t b b b;
#X obj 56 452 t b b b;
#X msg 255 205 1;
#X msg 255 225 1;
#X obj 71 22 r DriveInInit;
#X msg 255 369 2.8;
#X msg 255 389 2.8;
#X msg 255 409 -0.5;
#X msg 255 109 -3.036;
#X msg 255 132 /home/woii/2013_Sebkha-ChottGalootFormula_ThingFish/ThingFishVideoDecorum/DriveIn/data/Scene9_Truck_feux.png
;
#X msg 255 326 -23;
#X msg 255 429 -4.2;
#X msg 183 79 /Prison_Prisonniers;
#X msg 255 264 0;
#X connect 1 0 3 0;
#X connect 2 0 20 0;
#X connect 3 0 5 0;
#X connect 4 0 1 0;
#X connect 5 0 0 0;
#X connect 6 0 1 0;
#X connect 7 0 1 0;
#X connect 8 0 1 0;
#X connect 9 0 1 0;
#X connect 10 0 1 0;
#X connect 11 0 1 0;
#X connect 12 0 1 0;
#X connect 13 0 1 0;
#X connect 14 0 1 0;
#X connect 15 0 1 0;
#X connect 17 0 1 0;
#X connect 18 0 1 0;
#X connect 19 0 1 0;
#X connect 20 0 6 0;
#X connect 20 0 21 0;
#X connect 20 1 50 0;
#X connect 20 2 54 0;
#X connect 21 0 34 0;
#X connect 21 1 4 0;
#X connect 21 2 51 0;
#X connect 22 0 23 0;
#X connect 22 1 7 0;
#X connect 22 2 52 0;
#X connect 23 0 24 0;
#X connect 23 1 8 0;
#X connect 23 2 47 0;
#X connect 24 0 25 0;
#X connect 24 1 9 0;
#X connect 24 2 48 0;
#X connect 25 0 26 0;
#X connect 25 1 10 0;
#X connect 25 2 49 0;
#X connect 26 0 42 0;
#X connect 26 1 11 0;
#X connect 26 2 53 0;
#X connect 27 1 16 0;
#X connect 28 1 15 0;
#X connect 29 0 22 0;
#X connect 29 1 18 0;
#X connect 29 2 36 0;
#X connect 30 0 29 0;
#X connect 30 1 19 0;
#X connect 30 2 55 0;
#X connect 31 0 30 0;
#X connect 31 1 17 0;
#X connect 31 2 35 0;
#X connect 32 0 31 0;
#X connect 32 1 12 0;
#X connect 32 2 45 0;
#X connect 33 0 32 0;
#X connect 33 1 14 0;
#X connect 33 2 44 0;
#X connect 34 0 33 0;
#X connect 34 1 13 0;
#X connect 34 2 37 0;
#X connect 35 0 5 1;
#X connect 36 0 5 1;
#X connect 37 0 5 1;
#X connect 38 0 1 0;
#X connect 39 0 5 1;
#X connect 40 0 1 0;
#X connect 41 0 5 1;
#X connect 42 0 43 0;
#X connect 42 1 38 0;
#X connect 42 2 39 0;
#X connect 43 1 40 0;
#X connect 43 2 41 0;
#X connect 44 0 5 1;
#X connect 45 0 5 1;
#X connect 46 0 2 0;
#X connect 47 0 5 1;
#X connect 48 0 5 1;
#X connect 49 0 5 1;
#X connect 50 0 5 1;
#X connect 51 0 5 1;
#X connect 52 0 5 1;
#X connect 53 0 5 1;
#X connect 54 0 1 1;
#X connect 55 0 5 1;
#X restore 71 141 pd DriveInTruckFeuxInit;
#N canvas 475 100 850 796 DriveInTruckRemorqueInit 1;
#X obj 234 572 send OSC_MESSAGES;
#X obj 114 499 list prepend;
#X obj 71 43 bng 15 250 50 0 empty empty empty 17 7 0 10 -262144 -1
-1;
#X obj 114 522 l2s /;
#X msg 114 132 File;
#X obj 234 539 list;
#X msg 114 109 Zpos;
#X msg 114 326 RenderOrder;
#X msg 114 369 Yscale;
#X msg 114 389 Xscale;
#X msg 114 409 Ypos;
#X msg 114 429 Xpos;
#X msg 114 225 Blue;
#X msg 114 184 Red;
#X msg 114 205 Green;
#X msg 114 305 modeAlpha;
#X msg 114 348 Shape;
#X msg 114 245 Rotate;
#X msg 114 284 Alpha;
#X msg 114 264 Activate;
#X obj 71 62 t b b b;
#X obj 56 115 t b b b;
#X obj 56 309 t b b b;
#X obj 56 352 t b b b;
#X obj 56 372 t b b b;
#X obj 56 392 t b b b;
#X obj 56 412 t b b b;
#X obj 17 331 t b b b;
#X obj 16 288 t b b b;
#X obj 56 267 t b b b;
#X obj 56 247 t b b b;
#X obj 56 228 t b b b;
#X obj 56 208 t b b b;
#X obj 56 188 t b b b;
#X obj 56 167 t b b b;
#X msg 255 245 0;
#X msg 255 284 1;
#X msg 255 184 1;
#X msg 114 449 ParentName;
#X msg 255 449 /Dummy;
#X msg 114 469 g*pos;
#X msg 255 469 0;
#X obj 56 432 t b b b;
#X obj 56 452 t b b b;
#X msg 255 205 1;
#X msg 255 225 1;
#X obj 71 22 r DriveInInit;
#X msg 255 369 2.8;
#X msg 255 389 2.8;
#X msg 255 409 -0.5;
#X msg 255 109 -3.038;
#X msg 255 326 -25;
#X msg 255 132 /home/woii/2013_Sebkha-ChottGalootFormula_ThingFish/ThingFishVideoDecorum/DriveIn/data/Scene9_Truck_remorque.png
;
#X msg 255 429 -4.2;
#X msg 183 79 /DjventiloPales;
#X msg 255 264 0;
#X connect 1 0 3 0;
#X connect 2 0 20 0;
#X connect 3 0 5 0;
#X connect 4 0 1 0;
#X connect 5 0 0 0;
#X connect 6 0 1 0;
#X connect 7 0 1 0;
#X connect 8 0 1 0;
#X connect 9 0 1 0;
#X connect 10 0 1 0;
#X connect 11 0 1 0;
#X connect 12 0 1 0;
#X connect 13 0 1 0;
#X connect 14 0 1 0;
#X connect 15 0 1 0;
#X connect 17 0 1 0;
#X connect 18 0 1 0;
#X connect 19 0 1 0;
#X connect 20 0 6 0;
#X connect 20 0 21 0;
#X connect 20 1 50 0;
#X connect 20 2 54 0;
#X connect 21 0 34 0;
#X connect 21 1 4 0;
#X connect 21 2 52 0;
#X connect 22 0 23 0;
#X connect 22 1 7 0;
#X connect 22 2 51 0;
#X connect 23 0 24 0;
#X connect 23 1 8 0;
#X connect 23 2 47 0;
#X connect 24 0 25 0;
#X connect 24 1 9 0;
#X connect 24 2 48 0;
#X connect 25 0 26 0;
#X connect 25 1 10 0;
#X connect 25 2 49 0;
#X connect 26 0 42 0;
#X connect 26 1 11 0;
#X connect 26 2 53 0;
#X connect 27 1 16 0;
#X connect 28 1 15 0;
#X connect 29 0 22 0;
#X connect 29 1 18 0;
#X connect 29 2 36 0;
#X connect 30 0 29 0;
#X connect 30 1 19 0;
#X connect 30 2 55 0;
#X connect 31 0 30 0;
#X connect 31 1 17 0;
#X connect 31 2 35 0;
#X connect 32 0 31 0;
#X connect 32 1 12 0;
#X connect 32 2 45 0;
#X connect 33 0 32 0;
#X connect 33 1 14 0;
#X connect 33 2 44 0;
#X connect 34 0 33 0;
#X connect 34 1 13 0;
#X connect 34 2 37 0;
#X connect 35 0 5 1;
#X connect 36 0 5 1;
#X connect 37 0 5 1;
#X connect 38 0 1 0;
#X connect 39 0 5 1;
#X connect 40 0 1 0;
#X connect 41 0 5 1;
#X connect 42 0 43 0;
#X connect 42 1 38 0;
#X connect 42 2 39 0;
#X connect 43 1 40 0;
#X connect 43 2 41 0;
#X connect 44 0 5 1;
#X connect 45 0 5 1;
#X connect 46 0 2 0;
#X connect 47 0 5 1;
#X connect 48 0 5 1;
#X connect 49 0 5 1;
#X connect 50 0 5 1;
#X connect 51 0 5 1;
#X connect 52 0 5 1;
#X connect 53 0 5 1;
#X connect 54 0 1 1;
#X connect 55 0 5 1;
#X restore 71 161 pd DriveInTruckRemorqueInit;
#N canvas 475 100 850 796 DriveInVideoChretien1Init 0;
#X obj 234 572 send OSC_MESSAGES;
#X obj 114 499 list prepend;
#X obj 71 43 bng 15 250 50 0 empty empty empty 17 7 0 10 -262144 -1
-1;
#X obj 114 522 l2s /;
#X msg 114 132 File;
#X obj 234 539 list;
#X msg 114 109 Zpos;
#X msg 114 326 RenderOrder;
#X msg 114 369 Yscale;
#X msg 114 389 Xscale;
#X msg 114 409 Ypos;
#X msg 114 429 Xpos;
#X msg 114 225 Blue;
#X msg 114 184 Red;
#X msg 114 205 Green;
#X msg 114 305 modeAlpha;
#X msg 114 348 Shape;
#X msg 114 245 Rotate;
#X msg 114 284 Alpha;
#X msg 114 264 Activate;
#X obj 71 62 t b b b;
#X obj 56 115 t b b b;
#X obj 56 309 t b b b;
#X obj 56 352 t b b b;
#X obj 56 372 t b b b;
#X obj 56 392 t b b b;
#X obj 56 412 t b b b;
#X obj 17 331 t b b b;
#X obj 16 288 t b b b;
#X obj 56 267 t b b b;
#X obj 56 247 t b b b;
#X obj 56 228 t b b b;
#X obj 56 208 t b b b;
#X obj 56 188 t b b b;
#X obj 56 167 t b b b;
#X msg 255 245 0;
#X msg 255 284 1;
#X msg 255 184 1;
#X msg 114 449 ParentName;
#X msg 255 449 /Dummy;
#X msg 114 469 g*pos;
#X msg 255 469 0;
#X obj 56 432 t b b b;
#X obj 56 452 t b b b;
#X msg 255 264 1;
#X msg 255 205 1;
#X msg 255 225 1;
#X msg 255 109 -3.0381;
#X msg 255 132 /home/woii/2013_Sebkha-ChottGalootFormula_ThingFish/ThingFishVideoDecorum/MuddClub/data/2013_07_03_Mudd_Club_Video_Chretien.png
;
#X msg 255 409 -2;
#X msg 255 326 -27;
#X msg 255 369 0.45;
#X msg 255 389 0.15;
#X msg 183 79 /Assiette_Bush;
#X obj 71 22 r DriveInPeopleInit;
#X msg 255 429 2.5;
#X connect 1 0 3 0;
#X connect 2 0 20 0;
#X connect 3 0 5 0;
#X connect 4 0 1 0;
#X connect 5 0 0 0;
#X connect 6 0 1 0;
#X connect 7 0 1 0;
#X connect 8 0 1 0;
#X connect 9 0 1 0;
#X connect 10 0 1 0;
#X connect 11 0 1 0;
#X connect 12 0 1 0;
#X connect 13 0 1 0;
#X connect 14 0 1 0;
#X connect 15 0 1 0;
#X connect 17 0 1 0;
#X connect 18 0 1 0;
#X connect 19 0 1 0;
#X connect 20 0 6 0;
#X connect 20 0 21 0;
#X connect 20 1 47 0;
#X connect 20 2 53 0;
#X connect 21 0 34 0;
#X connect 21 1 4 0;
#X connect 21 2 48 0;
#X connect 22 0 23 0;
#X connect 22 1 7 0;
#X connect 22 2 50 0;
#X connect 23 0 24 0;
#X connect 23 1 8 0;
#X connect 23 2 51 0;
#X connect 24 0 25 0;
#X connect 24 1 9 0;
#X connect 24 2 52 0;
#X connect 25 0 26 0;
#X connect 25 1 10 0;
#X connect 25 2 49 0;
#X connect 26 0 42 0;
#X connect 26 1 11 0;
#X connect 26 2 55 0;
#X connect 27 1 16 0;
#X connect 28 1 15 0;
#X connect 29 0 22 0;
#X connect 29 1 18 0;
#X connect 29 2 36 0;
#X connect 30 0 29 0;
#X connect 30 1 19 0;
#X connect 30 2 44 0;
#X connect 31 0 30 0;
#X connect 31 1 17 0;
#X connect 31 2 35 0;
#X connect 32 0 31 0;
#X connect 32 1 12 0;
#X connect 32 2 46 0;
#X connect 33 0 32 0;
#X connect 33 1 14 0;
#X connect 33 2 45 0;
#X connect 34 0 33 0;
#X connect 34 1 13 0;
#X connect 34 2 37 0;
#X connect 35 0 5 1;
#X connect 36 0 5 1;
#X connect 37 0 5 1;
#X connect 38 0 1 0;
#X connect 39 0 5 1;
#X connect 40 0 1 0;
#X connect 41 0 5 1;
#X connect 42 0 43 0;
#X connect 42 1 38 0;
#X connect 42 2 39 0;
#X connect 43 1 40 0;
#X connect 43 2 41 0;
#X connect 44 0 5 1;
#X connect 45 0 5 1;
#X connect 46 0 5 1;
#X connect 47 0 5 1;
#X connect 48 0 5 1;
#X connect 49 0 5 1;
#X connect 50 0 5 1;
#X connect 51 0 5 1;
#X connect 52 0 5 1;
#X connect 53 0 1 1;
#X connect 54 0 2 0;
#X connect 55 0 5 1;
#X restore 251 81 pd DriveInVideoChretien1Init;
#N canvas 483 100 850 796 DriveInVideoChretien2Init 0;
#X obj 234 572 send OSC_MESSAGES;
#X obj 114 499 list prepend;
#X obj 71 43 bng 15 250 50 0 empty empty empty 17 7 0 10 -262144 -1
-1;
#X obj 114 522 l2s /;
#X msg 114 132 File;
#X obj 234 539 list;
#X msg 114 109 Zpos;
#X msg 114 326 RenderOrder;
#X msg 114 369 Yscale;
#X msg 114 389 Xscale;
#X msg 114 409 Ypos;
#X msg 114 429 Xpos;
#X msg 114 225 Blue;
#X msg 114 184 Red;
#X msg 114 205 Green;
#X msg 114 305 modeAlpha;
#X msg 114 348 Shape;
#X msg 114 245 Rotate;
#X msg 114 284 Alpha;
#X msg 114 264 Activate;
#X obj 71 62 t b b b;
#X obj 56 115 t b b b;
#X obj 56 309 t b b b;
#X obj 56 352 t b b b;
#X obj 56 372 t b b b;
#X obj 56 392 t b b b;
#X obj 56 412 t b b b;
#X obj 17 331 t b b b;
#X obj 16 288 t b b b;
#X obj 56 267 t b b b;
#X obj 56 247 t b b b;
#X obj 56 228 t b b b;
#X obj 56 208 t b b b;
#X obj 56 188 t b b b;
#X obj 56 167 t b b b;
#X msg 255 245 0;
#X msg 255 284 1;
#X msg 255 184 1;
#X msg 114 449 ParentName;
#X msg 255 449 /Dummy;
#X msg 114 469 g*pos;
#X msg 255 469 0;
#X obj 56 432 t b b b;
#X obj 56 452 t b b b;
#X msg 255 264 1;
#X msg 255 205 1;
#X msg 255 225 1;
#X msg 255 132 /home/woii/2013_Sebkha-ChottGalootFormula_ThingFish/ThingFishVideoDecorum/MuddClub/data/2013_07_03_Mudd_Club_Video_Chretien.png
;
#X msg 255 326 -27;
#X msg 255 369 0.45;
#X msg 255 389 0.15;
#X msg 255 109 -3.0382;
#X msg 255 409 -2.2;
#X msg 183 79 /Assiette_Gail;
#X obj 71 22 r DriveInPeopleInit;
#X msg 255 429 4.5;
#X connect 1 0 3 0;
#X connect 2 0 20 0;
#X connect 3 0 5 0;
#X connect 4 0 1 0;
#X connect 5 0 0 0;
#X connect 6 0 1 0;
#X connect 7 0 1 0;
#X connect 8 0 1 0;
#X connect 9 0 1 0;
#X connect 10 0 1 0;
#X connect 11 0 1 0;
#X connect 12 0 1 0;
#X connect 13 0 1 0;
#X connect 14 0 1 0;
#X connect 15 0 1 0;
#X connect 17 0 1 0;
#X connect 18 0 1 0;
#X connect 19 0 1 0;
#X connect 20 0 6 0;
#X connect 20 0 21 0;
#X connect 20 1 51 0;
#X connect 20 2 53 0;
#X connect 21 0 34 0;
#X connect 21 1 4 0;
#X connect 21 2 47 0;
#X connect 22 0 23 0;
#X connect 22 1 7 0;
#X connect 22 2 48 0;
#X connect 23 0 24 0;
#X connect 23 1 8 0;
#X connect 23 2 49 0;
#X connect 24 0 25 0;
#X connect 24 1 9 0;
#X connect 24 2 50 0;
#X connect 25 0 26 0;
#X connect 25 1 10 0;
#X connect 25 2 52 0;
#X connect 26 0 42 0;
#X connect 26 1 11 0;
#X connect 26 2 55 0;
#X connect 27 1 16 0;
#X connect 28 1 15 0;
#X connect 29 0 22 0;
#X connect 29 1 18 0;
#X connect 29 2 36 0;
#X connect 30 0 29 0;
#X connect 30 1 19 0;
#X connect 30 2 44 0;
#X connect 31 0 30 0;
#X connect 31 1 17 0;
#X connect 31 2 35 0;
#X connect 32 0 31 0;
#X connect 32 1 12 0;
#X connect 32 2 46 0;
#X connect 33 0 32 0;
#X connect 33 1 14 0;
#X connect 33 2 45 0;
#X connect 34 0 33 0;
#X connect 34 1 13 0;
#X connect 34 2 37 0;
#X connect 35 0 5 1;
#X connect 36 0 5 1;
#X connect 37 0 5 1;
#X connect 38 0 1 0;
#X connect 39 0 5 1;
#X connect 40 0 1 0;
#X connect 41 0 5 1;
#X connect 42 0 43 0;
#X connect 42 1 38 0;
#X connect 42 2 39 0;
#X connect 43 1 40 0;
#X connect 43 2 41 0;
#X connect 44 0 5 1;
#X connect 45 0 5 1;
#X connect 46 0 5 1;
#X connect 47 0 5 1;
#X connect 48 0 5 1;
#X connect 49 0 5 1;
#X connect 50 0 5 1;
#X connect 51 0 5 1;
#X connect 52 0 5 1;
#X connect 53 0 1 1;
#X connect 54 0 2 0;
#X connect 55 0 5 1;
#X restore 251 101 pd DriveInVideoChretien2Init;
#N canvas 479 100 850 796 DriveInARInit 0;
#X obj 234 572 send OSC_MESSAGES;
#X obj 114 499 list prepend;
#X obj 71 43 bng 15 250 50 0 empty empty empty 17 7 0 10 -262144 -1
-1;
#X obj 114 522 l2s /;
#X msg 114 132 File;
#X obj 234 539 list;
#X msg 114 109 Zpos;
#X msg 114 326 RenderOrder;
#X msg 114 369 Yscale;
#X msg 114 389 Xscale;
#X msg 114 409 Ypos;
#X msg 114 429 Xpos;
#X msg 114 225 Blue;
#X msg 114 184 Red;
#X msg 114 205 Green;
#X msg 114 305 modeAlpha;
#X msg 114 348 Shape;
#X msg 114 245 Rotate;
#X msg 114 284 Alpha;
#X msg 114 264 Activate;
#X obj 71 62 t b b b;
#X obj 56 115 t b b b;
#X obj 56 309 t b b b;
#X obj 56 352 t b b b;
#X obj 56 372 t b b b;
#X obj 56 392 t b b b;
#X obj 56 412 t b b b;
#X obj 17 331 t b b b;
#X obj 16 288 t b b b;
#X obj 56 267 t b b b;
#X obj 56 247 t b b b;
#X obj 56 228 t b b b;
#X obj 56 208 t b b b;
#X obj 56 188 t b b b;
#X obj 56 167 t b b b;
#X msg 255 245 0;
#X msg 255 284 1;
#X msg 255 184 1;
#X msg 114 449 ParentName;
#X msg 255 449 /Dummy;
#X msg 114 469 g*pos;
#X msg 255 469 0;
#X obj 56 432 t b b b;
#X obj 56 452 t b b b;
#X msg 255 264 1;
#X msg 255 205 1;
#X msg 255 225 1;
#X msg 255 326 -27;
#X msg 255 109 -3.03801;
#X msg 255 132 /home/woii/2013_Sebkha-ChottGalootFormula_ThingFish/ThingFishVideoDecorum/DriveIn/data/scene9_AR.png
;
#X msg 255 369 0.5;
#X msg 255 389 0.2;
#X msg 255 409 -2;
#X msg 183 79 /Tube;
#X obj 71 22 r DriveInPeopleInit;
#X msg 255 429 5;
#X connect 1 0 3 0;
#X connect 2 0 20 0;
#X connect 3 0 5 0;
#X connect 4 0 1 0;
#X connect 5 0 0 0;
#X connect 6 0 1 0;
#X connect 7 0 1 0;
#X connect 8 0 1 0;
#X connect 9 0 1 0;
#X connect 10 0 1 0;
#X connect 11 0 1 0;
#X connect 12 0 1 0;
#X connect 13 0 1 0;
#X connect 14 0 1 0;
#X connect 15 0 1 0;
#X connect 17 0 1 0;
#X connect 18 0 1 0;
#X connect 19 0 1 0;
#X connect 20 0 6 0;
#X connect 20 0 21 0;
#X connect 20 1 48 0;
#X connect 20 2 53 0;
#X connect 21 0 34 0;
#X connect 21 1 4 0;
#X connect 21 2 49 0;
#X connect 22 0 23 0;
#X connect 22 1 7 0;
#X connect 22 2 47 0;
#X connect 23 0 24 0;
#X connect 23 1 8 0;
#X connect 23 2 50 0;
#X connect 24 0 25 0;
#X connect 24 1 9 0;
#X connect 24 2 51 0;
#X connect 25 0 26 0;
#X connect 25 1 10 0;
#X connect 25 2 52 0;
#X connect 26 0 42 0;
#X connect 26 1 11 0;
#X connect 26 2 55 0;
#X connect 27 1 16 0;
#X connect 28 1 15 0;
#X connect 29 0 22 0;
#X connect 29 1 18 0;
#X connect 29 2 36 0;
#X connect 30 0 29 0;
#X connect 30 1 19 0;
#X connect 30 2 44 0;
#X connect 31 0 30 0;
#X connect 31 1 17 0;
#X connect 31 2 35 0;
#X connect 32 0 31 0;
#X connect 32 1 12 0;
#X connect 32 2 46 0;
#X connect 33 0 32 0;
#X connect 33 1 14 0;
#X connect 33 2 45 0;
#X connect 34 0 33 0;
#X connect 34 1 13 0;
#X connect 34 2 37 0;
#X connect 35 0 5 1;
#X connect 36 0 5 1;
#X connect 37 0 5 1;
#X connect 38 0 1 0;
#X connect 39 0 5 1;
#X connect 40 0 1 0;
#X connect 41 0 5 1;
#X connect 42 0 43 0;
#X connect 42 1 38 0;
#X connect 42 2 39 0;
#X connect 43 1 40 0;
#X connect 43 2 41 0;
#X connect 44 0 5 1;
#X connect 45 0 5 1;
#X connect 46 0 5 1;
#X connect 47 0 5 1;
#X connect 48 0 5 1;
#X connect 49 0 5 1;
#X connect 50 0 5 1;
#X connect 51 0 5 1;
#X connect 52 0 5 1;
#X connect 53 0 1 1;
#X connect 54 0 2 0;
#X connect 55 0 5 1;
#X restore 251 141 pd DriveInARInit;
#N canvas 469 100 850 796 DriveInTaureauInit 0;
#X obj 234 572 send OSC_MESSAGES;
#X obj 114 499 list prepend;
#X obj 71 43 bng 15 250 50 0 empty empty empty 17 7 0 10 -262144 -1
-1;
#X obj 114 522 l2s /;
#X msg 114 132 File;
#X obj 234 539 list;
#X msg 114 109 Zpos;
#X msg 114 326 RenderOrder;
#X msg 114 369 Yscale;
#X msg 114 389 Xscale;
#X msg 114 409 Ypos;
#X msg 114 429 Xpos;
#X msg 114 225 Blue;
#X msg 114 184 Red;
#X msg 114 205 Green;
#X msg 114 305 modeAlpha;
#X msg 114 348 Shape;
#X msg 114 245 Rotate;
#X msg 114 284 Alpha;
#X msg 114 264 Activate;
#X obj 71 62 t b b b;
#X obj 56 115 t b b b;
#X obj 56 309 t b b b;
#X obj 56 352 t b b b;
#X obj 56 372 t b b b;
#X obj 56 392 t b b b;
#X obj 56 412 t b b b;
#X obj 17 331 t b b b;
#X obj 16 288 t b b b;
#X obj 56 267 t b b b;
#X obj 56 247 t b b b;
#X obj 56 228 t b b b;
#X obj 56 208 t b b b;
#X obj 56 188 t b b b;
#X obj 56 167 t b b b;
#X msg 255 245 0;
#X msg 255 284 1;
#X msg 255 184 1;
#X msg 114 449 ParentName;
#X msg 255 449 /Dummy;
#X msg 114 469 g*pos;
#X msg 255 469 0;
#X obj 56 432 t b b b;
#X obj 56 452 t b b b;
#X msg 255 264 1;
#X msg 255 205 1;
#X msg 255 225 1;
#X msg 183 79 /DunjonDoor2;
#X msg 255 109 -3.03;
#X msg 255 132 /home/woii/2013_Sebkha-ChottGalootFormula_ThingFish/ThingFishVideoDecorum/DriveIn/data/Scene9_Taureau.png
;
#X msg 255 326 -21;
#X obj 71 22 r DriveInTaureauInit;
#X msg 255 369 1.5;
#X msg 255 389 1.5;
#X msg 255 429 10;
#X msg 255 409 -1.8;
#X connect 1 0 3 0;
#X connect 2 0 20 0;
#X connect 3 0 5 0;
#X connect 4 0 1 0;
#X connect 5 0 0 0;
#X connect 6 0 1 0;
#X connect 7 0 1 0;
#X connect 8 0 1 0;
#X connect 9 0 1 0;
#X connect 10 0 1 0;
#X connect 11 0 1 0;
#X connect 12 0 1 0;
#X connect 13 0 1 0;
#X connect 14 0 1 0;
#X connect 15 0 1 0;
#X connect 17 0 1 0;
#X connect 18 0 1 0;
#X connect 19 0 1 0;
#X connect 20 0 6 0;
#X connect 20 0 21 0;
#X connect 20 1 48 0;
#X connect 20 2 47 0;
#X connect 21 0 34 0;
#X connect 21 1 4 0;
#X connect 21 2 49 0;
#X connect 22 0 23 0;
#X connect 22 1 7 0;
#X connect 22 2 50 0;
#X connect 23 0 24 0;
#X connect 23 1 8 0;
#X connect 23 2 52 0;
#X connect 24 0 25 0;
#X connect 24 1 9 0;
#X connect 24 2 53 0;
#X connect 25 0 26 0;
#X connect 25 1 10 0;
#X connect 25 2 55 0;
#X connect 26 0 42 0;
#X connect 26 1 11 0;
#X connect 26 2 54 0;
#X connect 27 1 16 0;
#X connect 28 1 15 0;
#X connect 29 0 22 0;
#X connect 29 1 18 0;
#X connect 29 2 36 0;
#X connect 30 0 29 0;
#X connect 30 1 19 0;
#X connect 30 2 44 0;
#X connect 31 0 30 0;
#X connect 31 1 17 0;
#X connect 31 2 35 0;
#X connect 32 0 31 0;
#X connect 32 1 12 0;
#X connect 32 2 46 0;
#X connect 33 0 32 0;
#X connect 33 1 14 0;
#X connect 33 2 45 0;
#X connect 34 0 33 0;
#X connect 34 1 13 0;
#X connect 34 2 37 0;
#X connect 35 0 5 1;
#X connect 36 0 5 1;
#X connect 37 0 5 1;
#X connect 38 0 1 0;
#X connect 39 0 5 1;
#X connect 40 0 1 0;
#X connect 41 0 5 1;
#X connect 42 0 43 0;
#X connect 42 1 38 0;
#X connect 42 2 39 0;
#X connect 43 1 40 0;
#X connect 43 2 41 0;
#X connect 44 0 5 1;
#X connect 45 0 5 1;
#X connect 46 0 5 1;
#X connect 47 0 1 1;
#X connect 48 0 5 1;
#X connect 49 0 5 1;
#X connect 50 0 5 1;
#X connect 51 0 2 0;
#X connect 52 0 5 1;
#X connect 53 0 5 1;
#X connect 54 0 5 1;
#X connect 55 0 5 1;
#X restore 471 121 pd DriveInTaureauInit;
#N canvas 467 100 850 796 DriveInTaureauPiedInit 0;
#X obj 234 572 send OSC_MESSAGES;
#X obj 114 499 list prepend;
#X obj 71 43 bng 15 250 50 0 empty empty empty 17 7 0 10 -262144 -1
-1;
#X obj 114 522 l2s /;
#X msg 114 132 File;
#X obj 234 539 list;
#X msg 114 109 Zpos;
#X msg 114 326 RenderOrder;
#X msg 114 369 Yscale;
#X msg 114 389 Xscale;
#X msg 114 409 Ypos;
#X msg 114 429 Xpos;
#X msg 114 225 Blue;
#X msg 114 184 Red;
#X msg 114 205 Green;
#X msg 114 305 modeAlpha;
#X msg 114 348 Shape;
#X msg 114 245 Rotate;
#X msg 114 284 Alpha;
#X msg 114 264 Activate;
#X obj 71 62 t b b b;
#X obj 56 115 t b b b;
#X obj 56 309 t b b b;
#X obj 56 352 t b b b;
#X obj 56 372 t b b b;
#X obj 56 392 t b b b;
#X obj 56 412 t b b b;
#X obj 17 331 t b b b;
#X obj 16 288 t b b b;
#X obj 56 267 t b b b;
#X obj 56 247 t b b b;
#X obj 56 228 t b b b;
#X obj 56 208 t b b b;
#X obj 56 188 t b b b;
#X obj 56 167 t b b b;
#X msg 255 245 0;
#X msg 255 284 1;
#X msg 255 184 1;
#X msg 114 449 ParentName;
#X msg 255 449 /Dummy;
#X msg 114 469 g*pos;
#X msg 255 469 0;
#X obj 56 432 t b b b;
#X obj 56 452 t b b b;
#X msg 255 264 1;
#X msg 255 205 1;
#X msg 255 225 1;
#X obj 71 22 r DriveInTaureauInit;
#X msg 255 369 1.5;
#X msg 255 389 1.5;
#X msg 183 79 /DunjonDoor2Cadre;
#X msg 255 326 -22;
#X msg 255 132 /home/woii/2013_Sebkha-ChottGalootFormula_ThingFish/ThingFishVideoDecorum/DriveIn/data/Scene9_Taureau_pied.png
;
#X msg 255 429 10;
#X msg 255 111 -3.0301;
#X msg 255 409 -1.8;
#X connect 1 0 3 0;
#X connect 2 0 20 0;
#X connect 3 0 5 0;
#X connect 4 0 1 0;
#X connect 5 0 0 0;
#X connect 6 0 1 0;
#X connect 7 0 1 0;
#X connect 8 0 1 0;
#X connect 9 0 1 0;
#X connect 10 0 1 0;
#X connect 11 0 1 0;
#X connect 12 0 1 0;
#X connect 13 0 1 0;
#X connect 14 0 1 0;
#X connect 15 0 1 0;
#X connect 17 0 1 0;
#X connect 18 0 1 0;
#X connect 19 0 1 0;
#X connect 20 0 6 0;
#X connect 20 0 21 0;
#X connect 20 1 54 0;
#X connect 20 2 50 0;
#X connect 21 0 34 0;
#X connect 21 1 4 0;
#X connect 21 2 52 0;
#X connect 22 0 23 0;
#X connect 22 1 7 0;
#X connect 22 2 51 0;
#X connect 23 0 24 0;
#X connect 23 1 8 0;
#X connect 23 2 48 0;
#X connect 24 0 25 0;
#X connect 24 1 9 0;
#X connect 24 2 49 0;
#X connect 25 0 26 0;
#X connect 25 1 10 0;
#X connect 25 2 55 0;
#X connect 26 0 42 0;
#X connect 26 1 11 0;
#X connect 26 2 53 0;
#X connect 27 1 16 0;
#X connect 28 1 15 0;
#X connect 29 0 22 0;
#X connect 29 1 18 0;
#X connect 29 2 36 0;
#X connect 30 0 29 0;
#X connect 30 1 19 0;
#X connect 30 2 44 0;
#X connect 31 0 30 0;
#X connect 31 1 17 0;
#X connect 31 2 35 0;
#X connect 32 0 31 0;
#X connect 32 1 12 0;
#X connect 32 2 46 0;
#X connect 33 0 32 0;
#X connect 33 1 14 0;
#X connect 33 2 45 0;
#X connect 34 0 33 0;
#X connect 34 1 13 0;
#X connect 34 2 37 0;
#X connect 35 0 5 1;
#X connect 36 0 5 1;
#X connect 37 0 5 1;
#X connect 38 0 1 0;
#X connect 39 0 5 1;
#X connect 40 0 1 0;
#X connect 41 0 5 1;
#X connect 42 0 43 0;
#X connect 42 1 38 0;
#X connect 42 2 39 0;
#X connect 43 1 40 0;
#X connect 43 2 41 0;
#X connect 44 0 5 1;
#X connect 45 0 5 1;
#X connect 46 0 5 1;
#X connect 47 0 2 0;
#X connect 48 0 5 1;
#X connect 49 0 5 1;
#X connect 50 0 1 1;
#X connect 51 0 5 1;
#X connect 52 0 5 1;
#X connect 53 0 5 1;
#X connect 54 0 5 1;
#X connect 55 0 5 1;
#X restore 471 141 pd DriveInTaureauPiedInit;
#N canvas 467 100 850 796 DriveInOpalTeteInit 0;
#X obj 234 572 send OSC_MESSAGES;
#X obj 114 499 list prepend;
#X obj 71 43 bng 15 250 50 0 empty empty empty 17 7 0 10 -262144 -1
-1;
#X obj 114 522 l2s /;
#X msg 114 132 File;
#X obj 234 539 list;
#X msg 114 109 Zpos;
#X msg 114 326 RenderOrder;
#X msg 114 369 Yscale;
#X msg 114 389 Xscale;
#X msg 114 409 Ypos;
#X msg 114 429 Xpos;
#X msg 114 225 Blue;
#X msg 114 184 Red;
#X msg 114 205 Green;
#X msg 114 305 modeAlpha;
#X msg 114 348 Shape;
#X msg 114 245 Rotate;
#X msg 114 284 Alpha;
#X msg 114 264 Activate;
#X obj 71 62 t b b b;
#X obj 56 115 t b b b;
#X obj 56 309 t b b b;
#X obj 56 352 t b b b;
#X obj 56 372 t b b b;
#X obj 56 392 t b b b;
#X obj 56 412 t b b b;
#X obj 17 331 t b b b;
#X obj 16 288 t b b b;
#X obj 56 267 t b b b;
#X obj 56 247 t b b b;
#X obj 56 228 t b b b;
#X obj 56 208 t b b b;
#X obj 56 188 t b b b;
#X obj 56 167 t b b b;
#X msg 255 245 0;
#X msg 255 284 1;
#X msg 255 184 1;
#X msg 114 449 ParentName;
#X msg 255 449 /Dummy;
#X msg 114 469 g*pos;
#X msg 255 469 0;
#X obj 56 432 t b b b;
#X obj 56 452 t b b b;
#X msg 255 264 1;
#X msg 255 205 1;
#X msg 255 225 1;
#X obj 71 22 r DriveInTaureauInit;
#X msg 255 369 1.5;
#X msg 255 389 1.5;
#X msg 183 79 /DunjonDoor1;
#X msg 255 132 /home/woii/2013_Sebkha-ChottGalootFormula_ThingFish/ThingFishVideoDecorum/DriveIn/data/scene9_opal_tete.png
;
#X msg 255 109 -3.028;
#X msg 255 326 -20;
#X msg 255 429 10;
#X msg 255 409 -1.8;
#X connect 1 0 3 0;
#X connect 2 0 20 0;
#X connect 3 0 5 0;
#X connect 4 0 1 0;
#X connect 5 0 0 0;
#X connect 6 0 1 0;
#X connect 7 0 1 0;
#X connect 8 0 1 0;
#X connect 9 0 1 0;
#X connect 10 0 1 0;
#X connect 11 0 1 0;
#X connect 12 0 1 0;
#X connect 13 0 1 0;
#X connect 14 0 1 0;
#X connect 15 0 1 0;
#X connect 17 0 1 0;
#X connect 18 0 1 0;
#X connect 19 0 1 0;
#X connect 20 0 6 0;
#X connect 20 0 21 0;
#X connect 20 1 52 0;
#X connect 20 2 50 0;
#X connect 21 0 34 0;
#X connect 21 1 4 0;
#X connect 21 2 51 0;
#X connect 22 0 23 0;
#X connect 22 1 7 0;
#X connect 22 2 53 0;
#X connect 23 0 24 0;
#X connect 23 1 8 0;
#X connect 23 2 48 0;
#X connect 24 0 25 0;
#X connect 24 1 9 0;
#X connect 24 2 49 0;
#X connect 25 0 26 0;
#X connect 25 1 10 0;
#X connect 25 2 55 0;
#X connect 26 0 42 0;
#X connect 26 1 11 0;
#X connect 26 2 54 0;
#X connect 27 1 16 0;
#X connect 28 1 15 0;
#X connect 29 0 22 0;
#X connect 29 1 18 0;
#X connect 29 2 36 0;
#X connect 30 0 29 0;
#X connect 30 1 19 0;
#X connect 30 2 44 0;
#X connect 31 0 30 0;
#X connect 31 1 17 0;
#X connect 31 2 35 0;
#X connect 32 0 31 0;
#X connect 32 1 12 0;
#X connect 32 2 46 0;
#X connect 33 0 32 0;
#X connect 33 1 14 0;
#X connect 33 2 45 0;
#X connect 34 0 33 0;
#X connect 34 1 13 0;
#X connect 34 2 37 0;
#X connect 35 0 5 1;
#X connect 36 0 5 1;
#X connect 37 0 5 1;
#X connect 38 0 1 0;
#X connect 39 0 5 1;
#X connect 40 0 1 0;
#X connect 41 0 5 1;
#X connect 42 0 43 0;
#X connect 42 1 38 0;
#X connect 42 2 39 0;
#X connect 43 1 40 0;
#X connect 43 2 41 0;
#X connect 44 0 5 1;
#X connect 45 0 5 1;
#X connect 46 0 5 1;
#X connect 47 0 2 0;
#X connect 48 0 5 1;
#X connect 49 0 5 1;
#X connect 50 0 1 1;
#X connect 51 0 5 1;
#X connect 52 0 5 1;
#X connect 53 0 5 1;
#X connect 54 0 5 1;
#X connect 55 0 5 1;
#X restore 471 81 pd DriveInOpalTeteInit;
#N canvas 469 100 850 796 DriveInOpalCorpsInit 0;
#X obj 234 572 send OSC_MESSAGES;
#X obj 114 499 list prepend;
#X obj 71 43 bng 15 250 50 0 empty empty empty 17 7 0 10 -262144 -1
-1;
#X obj 114 522 l2s /;
#X msg 114 132 File;
#X obj 234 539 list;
#X msg 114 109 Zpos;
#X msg 114 326 RenderOrder;
#X msg 114 369 Yscale;
#X msg 114 389 Xscale;
#X msg 114 409 Ypos;
#X msg 114 429 Xpos;
#X msg 114 225 Blue;
#X msg 114 184 Red;
#X msg 114 205 Green;
#X msg 114 305 modeAlpha;
#X msg 114 348 Shape;
#X msg 114 245 Rotate;
#X msg 114 284 Alpha;
#X msg 114 264 Activate;
#X obj 71 62 t b b b;
#X obj 56 115 t b b b;
#X obj 56 309 t b b b;
#X obj 56 352 t b b b;
#X obj 56 372 t b b b;
#X obj 56 392 t b b b;
#X obj 56 412 t b b b;
#X obj 17 331 t b b b;
#X obj 16 288 t b b b;
#X obj 56 267 t b b b;
#X obj 56 247 t b b b;
#X obj 56 228 t b b b;
#X obj 56 208 t b b b;
#X obj 56 188 t b b b;
#X obj 56 167 t b b b;
#X msg 255 245 0;
#X msg 255 284 1;
#X msg 255 184 1;
#X msg 114 449 ParentName;
#X msg 255 449 /Dummy;
#X msg 114 469 g*pos;
#X msg 255 469 0;
#X obj 56 432 t b b b;
#X obj 56 452 t b b b;
#X msg 255 264 1;
#X msg 255 205 1;
#X msg 255 225 1;
#X msg 255 326 -21;
#X obj 71 22 r DriveInTaureauInit;
#X msg 255 369 1.5;
#X msg 255 389 1.5;
#X msg 255 132 /home/woii/2013_Sebkha-ChottGalootFormula_ThingFish/ThingFishVideoDecorum/DriveIn/data/scene9_opal_corps.png
;
#X msg 183 79 /DunjonDoor1Cadre;
#X msg 255 109 -3.029;
#X msg 255 429 10;
#X msg 255 409 -1.8;
#X connect 1 0 3 0;
#X connect 2 0 20 0;
#X connect 3 0 5 0;
#X connect 4 0 1 0;
#X connect 5 0 0 0;
#X connect 6 0 1 0;
#X connect 7 0 1 0;
#X connect 8 0 1 0;
#X connect 9 0 1 0;
#X connect 10 0 1 0;
#X connect 11 0 1 0;
#X connect 12 0 1 0;
#X connect 13 0 1 0;
#X connect 14 0 1 0;
#X connect 15 0 1 0;
#X connect 17 0 1 0;
#X connect 18 0 1 0;
#X connect 19 0 1 0;
#X connect 20 0 6 0;
#X connect 20 0 21 0;
#X connect 20 1 53 0;
#X connect 20 2 52 0;
#X connect 21 0 34 0;
#X connect 21 1 4 0;
#X connect 21 2 51 0;
#X connect 22 0 23 0;
#X connect 22 1 7 0;
#X connect 22 2 47 0;
#X connect 23 0 24 0;
#X connect 23 1 8 0;
#X connect 23 2 49 0;
#X connect 24 0 25 0;
#X connect 24 1 9 0;
#X connect 24 2 50 0;
#X connect 25 0 26 0;
#X connect 25 1 10 0;
#X connect 25 2 55 0;
#X connect 26 0 42 0;
#X connect 26 1 11 0;
#X connect 26 2 54 0;
#X connect 27 1 16 0;
#X connect 28 1 15 0;
#X connect 29 0 22 0;
#X connect 29 1 18 0;
#X connect 29 2 36 0;
#X connect 30 0 29 0;
#X connect 30 1 19 0;
#X connect 30 2 44 0;
#X connect 31 0 30 0;
#X connect 31 1 17 0;
#X connect 31 2 35 0;
#X connect 32 0 31 0;
#X connect 32 1 12 0;
#X connect 32 2 46 0;
#X connect 33 0 32 0;
#X connect 33 1 14 0;
#X connect 33 2 45 0;
#X connect 34 0 33 0;
#X connect 34 1 13 0;
#X connect 34 2 37 0;
#X connect 35 0 5 1;
#X connect 36 0 5 1;
#X connect 37 0 5 1;
#X connect 38 0 1 0;
#X connect 39 0 5 1;
#X connect 40 0 1 0;
#X connect 41 0 5 1;
#X connect 42 0 43 0;
#X connect 42 1 38 0;
#X connect 42 2 39 0;
#X connect 43 1 40 0;
#X connect 43 2 41 0;
#X connect 44 0 5 1;
#X connect 45 0 5 1;
#X connect 46 0 5 1;
#X connect 47 0 5 1;
#X connect 48 0 2 0;
#X connect 49 0 5 1;
#X connect 50 0 5 1;
#X connect 51 0 5 1;
#X connect 52 0 1 1;
#X connect 53 0 5 1;
#X connect 54 0 5 1;
#X connect 55 0 5 1;
#X restore 471 101 pd DriveInOpalCorpsInit;
#N canvas 521 100 850 796 MuddClubQNRPaupiereInit 0;
#X obj 234 572 send OSC_MESSAGES;
#X obj 114 499 list prepend;
#X obj 71 43 bng 15 250 50 0 empty empty empty 17 7 0 10 -262144 -1
-1;
#X obj 114 522 l2s /;
#X msg 114 132 File;
#X obj 234 539 list;
#X msg 114 109 Zpos;
#X msg 114 326 RenderOrder;
#X msg 114 369 Yscale;
#X msg 114 389 Xscale;
#X msg 114 409 Ypos;
#X msg 114 429 Xpos;
#X msg 114 225 Blue;
#X msg 114 184 Red;
#X msg 114 205 Green;
#X msg 114 305 modeAlpha;
#X msg 114 348 Shape;
#X msg 114 245 Rotate;
#X msg 114 284 Alpha;
#X msg 114 264 Activate;
#X obj 71 62 t b b b;
#X obj 56 115 t b b b;
#X obj 56 309 t b b b;
#X obj 56 352 t b b b;
#X obj 56 372 t b b b;
#X obj 56 392 t b b b;
#X obj 56 412 t b b b;
#X obj 17 331 t b b b;
#X obj 16 288 t b b b;
#X obj 56 267 t b b b;
#X obj 56 247 t b b b;
#X obj 56 228 t b b b;
#X obj 56 208 t b b b;
#X obj 56 188 t b b b;
#X obj 56 167 t b b b;
#X msg 255 245 0;
#X msg 255 284 1;
#X msg 255 225 1;
#X msg 255 184 1;
#X msg 255 205 1;
#X msg 114 449 ParentName;
#X msg 255 449 /Dummy;
#X msg 114 469 g*pos;
#X msg 255 469 0;
#X obj 56 432 t b b b;
#X obj 56 452 t b b b;
#X msg 255 132 /home/woii/2013_Sebkha-ChottGalootFormula_ThingFish/ThingFishVideoDecorum/MuddClub/data/2013_07_03_Mudd_Club_QRdN_Paupières.png
;
#X obj 71 22 r DriveInQNRPaupiereInit;
#X msg 183 79 /DunjonDoor4Cadre;
#X msg 255 369 1.575;
#X msg 255 389 0.4;
#X msg 255 409 -1.8;
#X msg 255 429 6;
#X msg 389 234 /DunjonDoor4Cadre/Flip 1;
#X msg 255 109 -3.03001;
#X msg 255 326 -23;
#X msg 255 264 1;
#X connect 1 0 3 0;
#X connect 2 0 20 0;
#X connect 3 0 5 0;
#X connect 4 0 1 0;
#X connect 5 0 0 0;
#X connect 6 0 1 0;
#X connect 7 0 1 0;
#X connect 8 0 1 0;
#X connect 9 0 1 0;
#X connect 10 0 1 0;
#X connect 11 0 1 0;
#X connect 12 0 1 0;
#X connect 13 0 1 0;
#X connect 14 0 1 0;
#X connect 15 0 1 0;
#X connect 17 0 1 0;
#X connect 18 0 1 0;
#X connect 19 0 1 0;
#X connect 20 0 6 0;
#X connect 20 0 21 0;
#X connect 20 1 54 0;
#X connect 20 2 48 0;
#X connect 20 2 53 0;
#X connect 21 0 34 0;
#X connect 21 1 4 0;
#X connect 21 2 46 0;
#X connect 22 0 23 0;
#X connect 22 1 7 0;
#X connect 22 2 55 0;
#X connect 23 0 24 0;
#X connect 23 1 8 0;
#X connect 23 2 49 0;
#X connect 24 0 25 0;
#X connect 24 1 9 0;
#X connect 24 2 50 0;
#X connect 25 0 26 0;
#X connect 25 1 10 0;
#X connect 25 2 51 0;
#X connect 26 0 44 0;
#X connect 26 1 11 0;
#X connect 26 2 52 0;
#X connect 27 1 16 0;
#X connect 28 1 15 0;
#X connect 29 0 22 0;
#X connect 29 1 18 0;
#X connect 29 2 36 0;
#X connect 30 0 29 0;
#X connect 30 1 19 0;
#X connect 30 2 56 0;
#X connect 31 0 30 0;
#X connect 31 1 17 0;
#X connect 31 2 35 0;
#X connect 32 0 31 0;
#X connect 32 1 12 0;
#X connect 32 2 37 0;
#X connect 33 0 32 0;
#X connect 33 1 14 0;
#X connect 33 2 39 0;
#X connect 34 0 33 0;
#X connect 34 1 13 0;
#X connect 34 2 38 0;
#X connect 35 0 5 1;
#X connect 36 0 5 1;
#X connect 37 0 5 1;
#X connect 38 0 5 1;
#X connect 39 0 5 1;
#X connect 40 0 1 0;
#X connect 41 0 5 1;
#X connect 42 0 1 0;
#X connect 43 0 5 1;
#X connect 44 0 45 0;
#X connect 44 1 40 0;
#X connect 44 2 41 0;
#X connect 45 1 42 0;
#X connect 45 2 43 0;
#X connect 46 0 5 1;
#X connect 47 0 2 0;
#X connect 48 0 1 1;
#X connect 49 0 5 1;
#X connect 50 0 5 1;
#X connect 51 0 5 1;
#X connect 52 0 5 1;
#X connect 53 0 0 0;
#X connect 54 0 5 1;
#X connect 55 0 5 1;
#X connect 56 0 5 1;
#X restore 471 228 pd MuddClubQNRPaupiereInit;
#N canvas 519 100 850 796 DriveInQNRCorpsInit 0;
#X obj 234 572 send OSC_MESSAGES;
#X obj 114 499 list prepend;
#X obj 71 43 bng 15 250 50 0 empty empty empty 17 7 0 10 -262144 -1
-1;
#X obj 114 522 l2s /;
#X msg 114 132 File;
#X obj 234 539 list;
#X msg 114 109 Zpos;
#X msg 114 326 RenderOrder;
#X msg 114 369 Yscale;
#X msg 114 389 Xscale;
#X msg 114 409 Ypos;
#X msg 114 429 Xpos;
#X msg 114 225 Blue;
#X msg 114 184 Red;
#X msg 114 205 Green;
#X msg 114 305 modeAlpha;
#X msg 114 348 Shape;
#X msg 114 245 Rotate;
#X msg 114 284 Alpha;
#X msg 114 264 Activate;
#X obj 71 62 t b b b;
#X obj 56 115 t b b b;
#X obj 56 309 t b b b;
#X obj 56 352 t b b b;
#X obj 56 372 t b b b;
#X obj 56 392 t b b b;
#X obj 56 412 t b b b;
#X obj 17 331 t b b b;
#X obj 16 288 t b b b;
#X obj 56 267 t b b b;
#X obj 56 247 t b b b;
#X obj 56 228 t b b b;
#X obj 56 208 t b b b;
#X obj 56 188 t b b b;
#X obj 56 167 t b b b;
#X msg 255 245 0;
#X msg 255 284 1;
#X msg 255 225 1;
#X msg 255 184 1;
#X msg 255 205 1;
#X msg 114 449 ParentName;
#X msg 255 449 /Dummy;
#X msg 114 469 g*pos;
#X msg 255 469 0;
#X obj 56 432 t b b b;
#X obj 56 452 t b b b;
#X msg 255 264 1;
#X msg 255 132 /home/woii/2013_Sebkha-ChottGalootFormula_ThingFish/ThingFishVideoDecorum/MuddClub/data/2013_07_03_Mudd_Club_QRdN_Corps.png
;
#X msg 183 79 /DunjonDoor3Cadre;
#X obj 71 22 r DriveInTaureauInit;
#X msg 255 369 1.575;
#X msg 255 389 0.6;
#X msg 255 429 6;
#X msg 255 409 -1.8;
#X msg 369 214 /DunjonDoor3Cadre/Flip 1;
#X msg 255 109 -3.0302;
#X msg 255 326 -27;
#X connect 1 0 3 0;
#X connect 2 0 20 0;
#X connect 3 0 5 0;
#X connect 4 0 1 0;
#X connect 5 0 0 0;
#X connect 6 0 1 0;
#X connect 7 0 1 0;
#X connect 8 0 1 0;
#X connect 9 0 1 0;
#X connect 10 0 1 0;
#X connect 11 0 1 0;
#X connect 12 0 1 0;
#X connect 13 0 1 0;
#X connect 14 0 1 0;
#X connect 15 0 1 0;
#X connect 17 0 1 0;
#X connect 18 0 1 0;
#X connect 19 0 1 0;
#X connect 20 0 6 0;
#X connect 20 0 21 0;
#X connect 20 1 55 0;
#X connect 20 2 48 0;
#X connect 20 2 54 0;
#X connect 21 0 34 0;
#X connect 21 1 4 0;
#X connect 21 2 47 0;
#X connect 22 0 23 0;
#X connect 22 1 7 0;
#X connect 22 2 56 0;
#X connect 23 0 24 0;
#X connect 23 1 8 0;
#X connect 23 2 50 0;
#X connect 24 0 25 0;
#X connect 24 1 9 0;
#X connect 24 2 51 0;
#X connect 25 0 26 0;
#X connect 25 1 10 0;
#X connect 25 2 53 0;
#X connect 26 0 44 0;
#X connect 26 1 11 0;
#X connect 26 2 52 0;
#X connect 27 1 16 0;
#X connect 28 1 15 0;
#X connect 29 0 22 0;
#X connect 29 1 18 0;
#X connect 29 2 36 0;
#X connect 30 0 29 0;
#X connect 30 1 19 0;
#X connect 30 2 46 0;
#X connect 31 0 30 0;
#X connect 31 1 17 0;
#X connect 31 2 35 0;
#X connect 32 0 31 0;
#X connect 32 1 12 0;
#X connect 32 2 37 0;
#X connect 33 0 32 0;
#X connect 33 1 14 0;
#X connect 33 2 39 0;
#X connect 34 0 33 0;
#X connect 34 1 13 0;
#X connect 34 2 38 0;
#X connect 35 0 5 1;
#X connect 36 0 5 1;
#X connect 37 0 5 1;
#X connect 38 0 5 1;
#X connect 39 0 5 1;
#X connect 40 0 1 0;
#X connect 41 0 5 1;
#X connect 42 0 1 0;
#X connect 43 0 5 1;
#X connect 44 0 45 0;
#X connect 44 1 40 0;
#X connect 44 2 41 0;
#X connect 45 1 42 0;
#X connect 45 2 43 0;
#X connect 46 0 5 1;
#X connect 47 0 5 1;
#X connect 48 0 1 1;
#X connect 49 0 2 0;
#X connect 50 0 5 1;
#X connect 51 0 5 1;
#X connect 52 0 5 1;
#X connect 53 0 5 1;
#X connect 54 0 0 0;
#X connect 55 0 5 1;
#X connect 56 0 5 1;
#X restore 471 168 pd DriveInQNRCorpsInit;
#N canvas 525 100 850 796 DriveInQNRTeteInit 0;
#X obj 234 572 send OSC_MESSAGES;
#X obj 114 499 list prepend;
#X obj 71 43 bng 15 250 50 0 empty empty empty 17 7 0 10 -262144 -1
-1;
#X obj 114 522 l2s /;
#X msg 114 132 File;
#X obj 234 539 list;
#X msg 114 109 Zpos;
#X msg 114 326 RenderOrder;
#X msg 114 369 Yscale;
#X msg 114 389 Xscale;
#X msg 114 409 Ypos;
#X msg 114 429 Xpos;
#X msg 114 225 Blue;
#X msg 114 184 Red;
#X msg 114 205 Green;
#X msg 114 305 modeAlpha;
#X msg 114 348 Shape;
#X msg 114 245 Rotate;
#X msg 114 284 Alpha;
#X msg 114 264 Activate;
#X obj 71 62 t b b b;
#X obj 56 115 t b b b;
#X obj 56 309 t b b b;
#X obj 56 352 t b b b;
#X obj 56 372 t b b b;
#X obj 56 392 t b b b;
#X obj 56 412 t b b b;
#X obj 17 331 t b b b;
#X obj 16 288 t b b b;
#X obj 56 267 t b b b;
#X obj 56 247 t b b b;
#X obj 56 228 t b b b;
#X obj 56 208 t b b b;
#X obj 56 188 t b b b;
#X obj 56 167 t b b b;
#X msg 255 245 0;
#X msg 255 284 1;
#X msg 255 225 1;
#X msg 255 184 1;
#X msg 255 205 1;
#X msg 114 449 ParentName;
#X msg 255 449 /Dummy;
#X msg 114 469 g*pos;
#X msg 255 469 0;
#X obj 56 432 t b b b;
#X obj 56 452 t b b b;
#X msg 255 264 1;
#X msg 255 132 /home/woii/2013_Sebkha-ChottGalootFormula_ThingFish/ThingFishVideoDecorum/MuddClub/data/2013_07_03_Mudd_Club_QRdN_Banane.png
;
#X msg 183 79 /DunjonDoor3;
#X msg 255 369 1.575;
#X msg 255 389 0.6;
#X msg 255 409 -1.8;
#X msg 255 429 6;
#X msg 255 109 -3.0301;
#X msg 255 326 -26;
#X obj 71 22 r DriveInTaureauInit;
#X msg 379 224 /DunjonDoor3/Flip 1;
#X connect 1 0 3 0;
#X connect 2 0 20 0;
#X connect 3 0 5 0;
#X connect 4 0 1 0;
#X connect 5 0 0 0;
#X connect 6 0 1 0;
#X connect 7 0 1 0;
#X connect 8 0 1 0;
#X connect 9 0 1 0;
#X connect 10 0 1 0;
#X connect 11 0 1 0;
#X connect 12 0 1 0;
#X connect 13 0 1 0;
#X connect 14 0 1 0;
#X connect 15 0 1 0;
#X connect 17 0 1 0;
#X connect 18 0 1 0;
#X connect 19 0 1 0;
#X connect 20 0 6 0;
#X connect 20 0 21 0;
#X connect 20 1 53 0;
#X connect 20 2 48 0;
#X connect 20 2 56 0;
#X connect 21 0 34 0;
#X connect 21 1 4 0;
#X connect 21 2 47 0;
#X connect 22 0 23 0;
#X connect 22 1 7 0;
#X connect 22 2 54 0;
#X connect 23 0 24 0;
#X connect 23 1 8 0;
#X connect 23 2 49 0;
#X connect 24 0 25 0;
#X connect 24 1 9 0;
#X connect 24 2 50 0;
#X connect 25 0 26 0;
#X connect 25 1 10 0;
#X connect 25 2 51 0;
#X connect 26 0 44 0;
#X connect 26 1 11 0;
#X connect 26 2 52 0;
#X connect 27 1 16 0;
#X connect 28 1 15 0;
#X connect 29 0 22 0;
#X connect 29 1 18 0;
#X connect 29 2 36 0;
#X connect 30 0 29 0;
#X connect 30 1 19 0;
#X connect 30 2 46 0;
#X connect 31 0 30 0;
#X connect 31 1 17 0;
#X connect 31 2 35 0;
#X connect 32 0 31 0;
#X connect 32 1 12 0;
#X connect 32 2 37 0;
#X connect 33 0 32 0;
#X connect 33 1 14 0;
#X connect 33 2 39 0;
#X connect 34 0 33 0;
#X connect 34 1 13 0;
#X connect 34 2 38 0;
#X connect 35 0 5 1;
#X connect 36 0 5 1;
#X connect 37 0 5 1;
#X connect 38 0 5 1;
#X connect 39 0 5 1;
#X connect 40 0 1 0;
#X connect 41 0 5 1;
#X connect 42 0 1 0;
#X connect 43 0 5 1;
#X connect 44 0 45 0;
#X connect 44 1 40 0;
#X connect 44 2 41 0;
#X connect 45 1 42 0;
#X connect 45 2 43 0;
#X connect 46 0 5 1;
#X connect 47 0 5 1;
#X connect 48 0 1 1;
#X connect 49 0 5 1;
#X connect 50 0 5 1;
#X connect 51 0 5 1;
#X connect 52 0 5 1;
#X connect 53 0 5 1;
#X connect 54 0 5 1;
#X connect 55 0 2 0;
#X connect 56 0 0 0;
#X restore 471 188 pd DriveInQNRTeteInit;
#N canvas 521 100 850 796 DriveInQNRGoleInit 0;
#X obj 234 572 send OSC_MESSAGES;
#X obj 114 499 list prepend;
#X obj 71 43 bng 15 250 50 0 empty empty empty 17 7 0 10 -262144 -1
-1;
#X obj 114 522 l2s /;
#X msg 114 132 File;
#X obj 234 539 list;
#X msg 114 109 Zpos;
#X msg 114 326 RenderOrder;
#X msg 114 369 Yscale;
#X msg 114 389 Xscale;
#X msg 114 409 Ypos;
#X msg 114 429 Xpos;
#X msg 114 225 Blue;
#X msg 114 184 Red;
#X msg 114 205 Green;
#X msg 114 305 modeAlpha;
#X msg 114 348 Shape;
#X msg 114 245 Rotate;
#X msg 114 284 Alpha;
#X msg 114 264 Activate;
#X obj 71 62 t b b b;
#X obj 56 115 t b b b;
#X obj 56 309 t b b b;
#X obj 56 352 t b b b;
#X obj 56 372 t b b b;
#X obj 56 392 t b b b;
#X obj 56 412 t b b b;
#X obj 17 331 t b b b;
#X obj 16 288 t b b b;
#X obj 56 267 t b b b;
#X obj 56 247 t b b b;
#X obj 56 228 t b b b;
#X obj 56 208 t b b b;
#X obj 56 188 t b b b;
#X obj 56 167 t b b b;
#X msg 255 245 0;
#X msg 255 284 1;
#X msg 255 225 1;
#X msg 255 184 1;
#X msg 255 205 1;
#X msg 114 449 ParentName;
#X msg 255 449 /Dummy;
#X msg 114 469 g*pos;
#X msg 255 469 0;
#X obj 56 432 t b b b;
#X obj 56 452 t b b b;
#X msg 255 264 1;
#X msg 255 132 /home/woii/2013_Sebkha-ChottGalootFormula_ThingFish/ThingFishVideoDecorum/MuddClub/data/2013_07_03_Mudd_Club_QRdN_Tex_Avery.png
;
#X msg 255 109 -3.03005;
#X msg 255 326 -25;
#X msg 255 369 1.575;
#X msg 255 389 0.4;
#X msg 183 79 /DunjonDoor4;
#X obj 71 22 r DriveInQNRGoleInit;
#X msg 255 409 -1.8;
#X msg 255 429 6;
#X msg 379 224 /DunjonDoor4/Flip 1;
#X connect 1 0 3 0;
#X connect 2 0 20 0;
#X connect 3 0 5 0;
#X connect 4 0 1 0;
#X connect 5 0 0 0;
#X connect 6 0 1 0;
#X connect 7 0 1 0;
#X connect 8 0 1 0;
#X connect 9 0 1 0;
#X connect 10 0 1 0;
#X connect 11 0 1 0;
#X connect 12 0 1 0;
#X connect 13 0 1 0;
#X connect 14 0 1 0;
#X connect 15 0 1 0;
#X connect 17 0 1 0;
#X connect 18 0 1 0;
#X connect 19 0 1 0;
#X connect 20 0 6 0;
#X connect 20 0 21 0;
#X connect 20 1 48 0;
#X connect 20 2 52 0;
#X connect 20 2 56 0;
#X connect 21 0 34 0;
#X connect 21 1 4 0;
#X connect 21 2 47 0;
#X connect 22 0 23 0;
#X connect 22 1 7 0;
#X connect 22 2 49 0;
#X connect 23 0 24 0;
#X connect 23 1 8 0;
#X connect 23 2 50 0;
#X connect 24 0 25 0;
#X connect 24 1 9 0;
#X connect 24 2 51 0;
#X connect 25 0 26 0;
#X connect 25 1 10 0;
#X connect 25 2 54 0;
#X connect 26 0 44 0;
#X connect 26 1 11 0;
#X connect 26 2 55 0;
#X connect 27 1 16 0;
#X connect 28 1 15 0;
#X connect 29 0 22 0;
#X connect 29 1 18 0;
#X connect 29 2 36 0;
#X connect 30 0 29 0;
#X connect 30 1 19 0;
#X connect 30 2 46 0;
#X connect 31 0 30 0;
#X connect 31 1 17 0;
#X connect 31 2 35 0;
#X connect 32 0 31 0;
#X connect 32 1 12 0;
#X connect 32 2 37 0;
#X connect 33 0 32 0;
#X connect 33 1 14 0;
#X connect 33 2 39 0;
#X connect 34 0 33 0;
#X connect 34 1 13 0;
#X connect 34 2 38 0;
#X connect 35 0 5 1;
#X connect 36 0 5 1;
#X connect 37 0 5 1;
#X connect 38 0 5 1;
#X connect 39 0 5 1;
#X connect 40 0 1 0;
#X connect 41 0 5 1;
#X connect 42 0 1 0;
#X connect 43 0 5 1;
#X connect 44 0 45 0;
#X connect 44 1 40 0;
#X connect 44 2 41 0;
#X connect 45 1 42 0;
#X connect 45 2 43 0;
#X connect 46 0 5 1;
#X connect 47 0 5 1;
#X connect 48 0 5 1;
#X connect 49 0 5 1;
#X connect 50 0 5 1;
#X connect 51 0 5 1;
#X connect 52 0 1 1;
#X connect 53 0 2 0;
#X connect 54 0 5 1;
#X connect 55 0 5 1;
#X connect 56 0 0 0;
#X restore 471 208 pd DriveInQNRGoleInit;
#X obj 970 80 driveInMoves;
#N canvas 463 100 850 796 HarryTeteInit 0;
#X obj 234 572 send OSC_MESSAGES;
#X obj 114 499 list prepend;
#X obj 71 43 bng 15 250 50 0 empty empty empty 17 7 0 10 -262144 -1
-1;
#X obj 114 522 l2s /;
#X msg 114 132 File;
#X obj 234 539 list;
#X msg 114 109 Zpos;
#X msg 114 326 RenderOrder;
#X msg 114 369 Yscale;
#X msg 114 389 Xscale;
#X msg 114 409 Ypos;
#X msg 114 429 Xpos;
#X msg 114 225 Blue;
#X msg 114 184 Red;
#X msg 114 205 Green;
#X msg 114 305 modeAlpha;
#X msg 114 348 Shape;
#X msg 114 245 Rotate;
#X msg 114 284 Alpha;
#X msg 114 264 Activate;
#X obj 71 62 t b b b;
#X obj 56 115 t b b b;
#X obj 56 309 t b b b;
#X obj 56 352 t b b b;
#X obj 56 372 t b b b;
#X obj 56 392 t b b b;
#X obj 56 412 t b b b;
#X obj 17 331 t b b b;
#X obj 16 288 t b b b;
#X obj 56 267 t b b b;
#X obj 56 247 t b b b;
#X obj 56 228 t b b b;
#X obj 56 208 t b b b;
#X obj 56 188 t b b b;
#X obj 56 167 t b b b;
#X msg 255 245 0;
#X msg 255 284 1;
#X msg 255 184 1;
#X msg 114 449 ParentName;
#X msg 255 449 /Dummy;
#X msg 114 469 g*pos;
#X msg 255 469 0;
#X obj 56 432 t b b b;
#X obj 56 452 t b b b;
#X msg 255 264 1;
#X msg 255 205 1;
#X msg 255 225 1;
#X msg 183 79 /EvilPrince_Tete;
#X msg 255 132 /home/woii/2013_Sebkha-ChottGalootFormula_ThingFish/ThingFishVideoDecorum/HesSoGay/data/haab_bras_tete.png
;
#X msg 255 326 -16;
#X msg 255 369 0.55;
#X msg 255 389 0.55;
#X msg 255 109 -3.02;
#X obj 71 22 r DriveInHarryInit;
#X msg 255 429 -2;
#X msg 255 409 -1.7;
#X connect 1 0 3 0;
#X connect 2 0 20 0;
#X connect 3 0 5 0;
#X connect 4 0 1 0;
#X connect 5 0 0 0;
#X connect 6 0 1 0;
#X connect 7 0 1 0;
#X connect 8 0 1 0;
#X connect 9 0 1 0;
#X connect 10 0 1 0;
#X connect 11 0 1 0;
#X connect 12 0 1 0;
#X connect 13 0 1 0;
#X connect 14 0 1 0;
#X connect 15 0 1 0;
#X connect 17 0 1 0;
#X connect 18 0 1 0;
#X connect 19 0 1 0;
#X connect 20 0 6 0;
#X connect 20 0 21 0;
#X connect 20 1 52 0;
#X connect 20 2 47 0;
#X connect 21 0 34 0;
#X connect 21 1 4 0;
#X connect 21 2 48 0;
#X connect 22 0 23 0;
#X connect 22 1 7 0;
#X connect 22 2 49 0;
#X connect 23 0 24 0;
#X connect 23 1 8 0;
#X connect 23 2 50 0;
#X connect 24 0 25 0;
#X connect 24 1 9 0;
#X connect 24 2 51 0;
#X connect 25 0 26 0;
#X connect 25 1 10 0;
#X connect 25 2 55 0;
#X connect 26 0 42 0;
#X connect 26 1 11 0;
#X connect 26 2 54 0;
#X connect 27 1 16 0;
#X connect 28 1 15 0;
#X connect 29 0 22 0;
#X connect 29 1 18 0;
#X connect 29 2 36 0;
#X connect 30 0 29 0;
#X connect 30 1 19 0;
#X connect 30 2 44 0;
#X connect 31 0 30 0;
#X connect 31 1 17 0;
#X connect 31 2 35 0;
#X connect 32 0 31 0;
#X connect 32 1 12 0;
#X connect 32 2 46 0;
#X connect 33 0 32 0;
#X connect 33 1 14 0;
#X connect 33 2 45 0;
#X connect 34 0 33 0;
#X connect 34 1 13 0;
#X connect 34 2 37 0;
#X connect 35 0 5 1;
#X connect 36 0 5 1;
#X connect 37 0 5 1;
#X connect 38 0 1 0;
#X connect 39 0 5 1;
#X connect 40 0 1 0;
#X connect 41 0 5 1;
#X connect 42 0 43 0;
#X connect 42 1 38 0;
#X connect 42 2 39 0;
#X connect 43 1 40 0;
#X connect 43 2 41 0;
#X connect 44 0 5 1;
#X connect 45 0 5 1;
#X connect 46 0 5 1;
#X connect 47 0 1 1;
#X connect 48 0 5 1;
#X connect 49 0 5 1;
#X connect 50 0 5 1;
#X connect 51 0 5 1;
#X connect 52 0 5 1;
#X connect 53 0 2 0;
#X connect 54 0 5 1;
#X connect 55 0 5 1;
#X restore 471 280 pd HarryTeteInit;
#N canvas 463 100 850 796 HarryCorpsInit 0;
#X obj 234 572 send OSC_MESSAGES;
#X obj 114 499 list prepend;
#X obj 71 43 bng 15 250 50 0 empty empty empty 17 7 0 10 -262144 -1
-1;
#X obj 114 522 l2s /;
#X msg 114 132 File;
#X obj 234 539 list;
#X msg 114 109 Zpos;
#X msg 114 326 RenderOrder;
#X msg 114 369 Yscale;
#X msg 114 389 Xscale;
#X msg 114 409 Ypos;
#X msg 114 429 Xpos;
#X msg 114 225 Blue;
#X msg 114 184 Red;
#X msg 114 205 Green;
#X msg 114 305 modeAlpha;
#X msg 114 348 Shape;
#X msg 114 245 Rotate;
#X msg 114 284 Alpha;
#X msg 114 264 Activate;
#X obj 71 62 t b b b;
#X obj 56 115 t b b b;
#X obj 56 309 t b b b;
#X obj 56 352 t b b b;
#X obj 56 372 t b b b;
#X obj 56 392 t b b b;
#X obj 56 412 t b b b;
#X obj 17 331 t b b b;
#X obj 16 288 t b b b;
#X obj 56 267 t b b b;
#X obj 56 247 t b b b;
#X obj 56 228 t b b b;
#X obj 56 208 t b b b;
#X obj 56 188 t b b b;
#X obj 56 167 t b b b;
#X msg 255 245 0;
#X msg 255 284 1;
#X msg 255 184 1;
#X msg 114 449 ParentName;
#X msg 255 449 /Dummy;
#X msg 114 469 g*pos;
#X msg 255 469 0;
#X obj 56 432 t b b b;
#X obj 56 452 t b b b;
#X msg 255 264 1;
#X msg 255 205 1;
#X msg 255 225 1;
#X msg 255 326 -16;
#X msg 183 79 /EvilPrince_Corps;
#X msg 255 132 /home/woii/2013_Sebkha-ChottGalootFormula_ThingFish/ThingFishVideoDecorum/HesSoGay/data/haab_bras_corps.png
;
#X msg 255 369 0.36;
#X msg 255 389 0.2225;
#X msg 255 109 -3.02;
#X obj 71 22 r DriveInHarryInit;
#X msg 255 409 -2;
#X msg 255 429 -2;
#X connect 1 0 3 0;
#X connect 2 0 20 0;
#X connect 3 0 5 0;
#X connect 4 0 1 0;
#X connect 5 0 0 0;
#X connect 6 0 1 0;
#X connect 7 0 1 0;
#X connect 8 0 1 0;
#X connect 9 0 1 0;
#X connect 10 0 1 0;
#X connect 11 0 1 0;
#X connect 12 0 1 0;
#X connect 13 0 1 0;
#X connect 14 0 1 0;
#X connect 15 0 1 0;
#X connect 17 0 1 0;
#X connect 18 0 1 0;
#X connect 19 0 1 0;
#X connect 20 0 6 0;
#X connect 20 0 21 0;
#X connect 20 1 52 0;
#X connect 20 2 48 0;
#X connect 21 0 34 0;
#X connect 21 1 4 0;
#X connect 21 2 49 0;
#X connect 22 0 23 0;
#X connect 22 1 7 0;
#X connect 22 2 47 0;
#X connect 23 0 24 0;
#X connect 23 1 8 0;
#X connect 23 2 50 0;
#X connect 24 0 25 0;
#X connect 24 1 9 0;
#X connect 24 2 51 0;
#X connect 25 0 26 0;
#X connect 25 1 10 0;
#X connect 25 2 54 0;
#X connect 26 0 42 0;
#X connect 26 1 11 0;
#X connect 26 2 55 0;
#X connect 27 1 16 0;
#X connect 28 1 15 0;
#X connect 29 0 22 0;
#X connect 29 1 18 0;
#X connect 29 2 36 0;
#X connect 30 0 29 0;
#X connect 30 1 19 0;
#X connect 30 2 44 0;
#X connect 31 0 30 0;
#X connect 31 1 17 0;
#X connect 31 2 35 0;
#X connect 32 0 31 0;
#X connect 32 1 12 0;
#X connect 32 2 46 0;
#X connect 33 0 32 0;
#X connect 33 1 14 0;
#X connect 33 2 45 0;
#X connect 34 0 33 0;
#X connect 34 1 13 0;
#X connect 34 2 37 0;
#X connect 35 0 5 1;
#X connect 36 0 5 1;
#X connect 37 0 5 1;
#X connect 38 0 1 0;
#X connect 39 0 5 1;
#X connect 40 0 1 0;
#X connect 41 0 5 1;
#X connect 42 0 43 0;
#X connect 42 1 38 0;
#X connect 42 2 39 0;
#X connect 43 1 40 0;
#X connect 43 2 41 0;
#X connect 44 0 5 1;
#X connect 45 0 5 1;
#X connect 46 0 5 1;
#X connect 47 0 5 1;
#X connect 48 0 1 1;
#X connect 49 0 5 1;
#X connect 50 0 5 1;
#X connect 51 0 5 1;
#X connect 52 0 5 1;
#X connect 53 0 2 0;
#X connect 54 0 5 1;
#X connect 55 0 5 1;
#X restore 471 300 pd HarryCorpsInit;
#N canvas 459 100 850 796 HarryBrasJardinInit 0;
#X obj 234 572 send OSC_MESSAGES;
#X obj 114 499 list prepend;
#X obj 71 43 bng 15 250 50 0 empty empty empty 17 7 0 10 -262144 -1
-1;
#X obj 114 522 l2s /;
#X msg 114 132 File;
#X obj 234 539 list;
#X msg 114 109 Zpos;
#X msg 114 326 RenderOrder;
#X msg 114 369 Yscale;
#X msg 114 389 Xscale;
#X msg 114 409 Ypos;
#X msg 114 429 Xpos;
#X msg 114 225 Blue;
#X msg 114 184 Red;
#X msg 114 205 Green;
#X msg 114 305 modeAlpha;
#X msg 114 348 Shape;
#X msg 114 245 Rotate;
#X msg 114 284 Alpha;
#X msg 114 264 Activate;
#X obj 71 62 t b b b;
#X obj 56 115 t b b b;
#X obj 56 309 t b b b;
#X obj 56 352 t b b b;
#X obj 56 372 t b b b;
#X obj 56 392 t b b b;
#X obj 56 412 t b b b;
#X obj 17 331 t b b b;
#X obj 16 288 t b b b;
#X obj 56 267 t b b b;
#X obj 56 247 t b b b;
#X obj 56 228 t b b b;
#X obj 56 208 t b b b;
#X obj 56 188 t b b b;
#X obj 56 167 t b b b;
#X msg 255 245 0;
#X msg 255 284 1;
#X msg 255 184 1;
#X msg 114 449 ParentName;
#X msg 255 449 /Dummy;
#X msg 114 469 g*pos;
#X msg 255 469 0;
#X obj 56 432 t b b b;
#X obj 56 452 t b b b;
#X msg 255 264 1;
#X msg 255 205 1;
#X msg 255 225 1;
#X msg 255 326 -16;
#X msg 183 79 /EvilPrince_BrasCour;
#X msg 255 109 -3.019;
#X msg 255 132 /home/woii/2013_Sebkha-ChottGalootFormula_ThingFish/ThingFishVideoDecorum/HesSoGay/data/haab_bras_jardin.png
;
#X msg 255 369 0.6;
#X msg 255 389 0.6;
#X obj 71 22 r DriveInHarryInit;
#X msg 254 409 -1.8;
#X msg 255 429 -2.25;
#X connect 1 0 3 0;
#X connect 2 0 20 0;
#X connect 3 0 5 0;
#X connect 4 0 1 0;
#X connect 5 0 0 0;
#X connect 6 0 1 0;
#X connect 7 0 1 0;
#X connect 8 0 1 0;
#X connect 9 0 1 0;
#X connect 10 0 1 0;
#X connect 11 0 1 0;
#X connect 12 0 1 0;
#X connect 13 0 1 0;
#X connect 14 0 1 0;
#X connect 15 0 1 0;
#X connect 17 0 1 0;
#X connect 18 0 1 0;
#X connect 19 0 1 0;
#X connect 20 0 6 0;
#X connect 20 0 21 0;
#X connect 20 1 49 0;
#X connect 20 2 48 0;
#X connect 21 0 34 0;
#X connect 21 1 4 0;
#X connect 21 2 50 0;
#X connect 22 0 23 0;
#X connect 22 1 7 0;
#X connect 22 2 47 0;
#X connect 23 0 24 0;
#X connect 23 1 8 0;
#X connect 23 2 51 0;
#X connect 24 0 25 0;
#X connect 24 1 9 0;
#X connect 24 2 52 0;
#X connect 25 0 26 0;
#X connect 25 1 10 0;
#X connect 25 2 54 0;
#X connect 26 0 42 0;
#X connect 26 1 11 0;
#X connect 26 2 55 0;
#X connect 27 1 16 0;
#X connect 28 1 15 0;
#X connect 29 0 22 0;
#X connect 29 1 18 0;
#X connect 29 2 36 0;
#X connect 30 0 29 0;
#X connect 30 1 19 0;
#X connect 30 2 44 0;
#X connect 31 0 30 0;
#X connect 31 1 17 0;
#X connect 31 2 35 0;
#X connect 32 0 31 0;
#X connect 32 1 12 0;
#X connect 32 2 46 0;
#X connect 33 0 32 0;
#X connect 33 1 14 0;
#X connect 33 2 45 0;
#X connect 34 0 33 0;
#X connect 34 1 13 0;
#X connect 34 2 37 0;
#X connect 35 0 5 1;
#X connect 36 0 5 1;
#X connect 37 0 5 1;
#X connect 38 0 1 0;
#X connect 39 0 5 1;
#X connect 40 0 1 0;
#X connect 41 0 5 1;
#X connect 42 0 43 0;
#X connect 42 1 38 0;
#X connect 42 2 39 0;
#X connect 43 1 40 0;
#X connect 43 2 41 0;
#X connect 44 0 5 1;
#X connect 45 0 5 1;
#X connect 46 0 5 1;
#X connect 47 0 5 1;
#X connect 48 0 1 1;
#X connect 49 0 5 1;
#X connect 50 0 5 1;
#X connect 51 0 5 1;
#X connect 52 0 5 1;
#X connect 53 0 2 0;
#X connect 54 0 5 1;
#X connect 55 0 5 1;
#X restore 471 320 pd HarryBrasJardinInit;
#N canvas 457 100 850 796 HarryBrasCourInit 0;
#X obj 234 572 send OSC_MESSAGES;
#X obj 114 499 list prepend;
#X obj 71 43 bng 15 250 50 0 empty empty empty 17 7 0 10 -262144 -1
-1;
#X obj 114 522 l2s /;
#X msg 114 132 File;
#X obj 234 539 list;
#X msg 114 109 Zpos;
#X msg 114 326 RenderOrder;
#X msg 114 369 Yscale;
#X msg 114 389 Xscale;
#X msg 114 409 Ypos;
#X msg 114 429 Xpos;
#X msg 114 225 Blue;
#X msg 114 184 Red;
#X msg 114 205 Green;
#X msg 114 305 modeAlpha;
#X msg 114 348 Shape;
#X msg 114 245 Rotate;
#X msg 114 284 Alpha;
#X msg 114 264 Activate;
#X obj 71 62 t b b b;
#X obj 56 115 t b b b;
#X obj 56 309 t b b b;
#X obj 56 352 t b b b;
#X obj 56 372 t b b b;
#X obj 56 392 t b b b;
#X obj 56 412 t b b b;
#X obj 17 331 t b b b;
#X obj 16 288 t b b b;
#X obj 56 267 t b b b;
#X obj 56 247 t b b b;
#X obj 56 228 t b b b;
#X obj 56 208 t b b b;
#X obj 56 188 t b b b;
#X obj 56 167 t b b b;
#X msg 255 245 0;
#X msg 255 284 1;
#X msg 255 184 1;
#X msg 114 449 ParentName;
#X msg 255 449 /Dummy;
#X msg 114 469 g*pos;
#X msg 255 469 0;
#X obj 56 432 t b b b;
#X obj 56 452 t b b b;
#X msg 255 264 1;
#X msg 255 205 1;
#X msg 255 225 1;
#X msg 255 326 -16;
#X msg 255 109 -3.019;
#X msg 183 79 /EvilPrince_Aura;
#X msg 255 132 /home/woii/2013_Sebkha-ChottGalootFormula_ThingFish/ThingFishVideoDecorum/HesSoGay/data/haab_bras_cour.png
;
#X msg 255 369 0.6;
#X msg 255 389 0.6;
#X obj 71 22 r DriveInHarryInit;
#X msg 255 409 -1.8;
#X msg 255 429 -1.8;
#X connect 1 0 3 0;
#X connect 2 0 20 0;
#X connect 3 0 5 0;
#X connect 4 0 1 0;
#X connect 5 0 0 0;
#X connect 6 0 1 0;
#X connect 7 0 1 0;
#X connect 8 0 1 0;
#X connect 9 0 1 0;
#X connect 10 0 1 0;
#X connect 11 0 1 0;
#X connect 12 0 1 0;
#X connect 13 0 1 0;
#X connect 14 0 1 0;
#X connect 15 0 1 0;
#X connect 17 0 1 0;
#X connect 18 0 1 0;
#X connect 19 0 1 0;
#X connect 20 0 6 0;
#X connect 20 0 21 0;
#X connect 20 1 48 0;
#X connect 20 2 49 0;
#X connect 21 0 34 0;
#X connect 21 1 4 0;
#X connect 21 2 50 0;
#X connect 22 0 23 0;
#X connect 22 1 7 0;
#X connect 22 2 47 0;
#X connect 23 0 24 0;
#X connect 23 1 8 0;
#X connect 23 2 51 0;
#X connect 24 0 25 0;
#X connect 24 1 9 0;
#X connect 24 2 52 0;
#X connect 25 0 26 0;
#X connect 25 1 10 0;
#X connect 25 2 54 0;
#X connect 26 0 42 0;
#X connect 26 1 11 0;
#X connect 26 2 55 0;
#X connect 27 1 16 0;
#X connect 28 1 15 0;
#X connect 29 0 22 0;
#X connect 29 1 18 0;
#X connect 29 2 36 0;
#X connect 30 0 29 0;
#X connect 30 1 19 0;
#X connect 30 2 44 0;
#X connect 31 0 30 0;
#X connect 31 1 17 0;
#X connect 31 2 35 0;
#X connect 32 0 31 0;
#X connect 32 1 12 0;
#X connect 32 2 46 0;
#X connect 33 0 32 0;
#X connect 33 1 14 0;
#X connect 33 2 45 0;
#X connect 34 0 33 0;
#X connect 34 1 13 0;
#X connect 34 2 37 0;
#X connect 35 0 5 1;
#X connect 36 0 5 1;
#X connect 37 0 5 1;
#X connect 38 0 1 0;
#X connect 39 0 5 1;
#X connect 40 0 1 0;
#X connect 41 0 5 1;
#X connect 42 0 43 0;
#X connect 42 1 38 0;
#X connect 42 2 39 0;
#X connect 43 1 40 0;
#X connect 43 2 41 0;
#X connect 44 0 5 1;
#X connect 45 0 5 1;
#X connect 46 0 5 1;
#X connect 47 0 5 1;
#X connect 48 0 5 1;
#X connect 49 0 1 1;
#X connect 50 0 5 1;
#X connect 51 0 5 1;
#X connect 52 0 5 1;
#X connect 53 0 2 0;
#X connect 54 0 5 1;
#X connect 55 0 5 1;
#X restore 471 340 pd HarryBrasCourInit;
#N canvas 453 100 850 796 HarryJambeJardinInit 0;
#X obj 234 572 send OSC_MESSAGES;
#X obj 114 499 list prepend;
#X obj 71 43 bng 15 250 50 0 empty empty empty 17 7 0 10 -262144 -1
-1;
#X obj 114 522 l2s /;
#X msg 114 132 File;
#X obj 234 539 list;
#X msg 114 109 Zpos;
#X msg 114 326 RenderOrder;
#X msg 114 369 Yscale;
#X msg 114 389 Xscale;
#X msg 114 409 Ypos;
#X msg 114 429 Xpos;
#X msg 114 225 Blue;
#X msg 114 184 Red;
#X msg 114 205 Green;
#X msg 114 305 modeAlpha;
#X msg 114 348 Shape;
#X msg 114 245 Rotate;
#X msg 114 284 Alpha;
#X msg 114 264 Activate;
#X obj 71 62 t b b b;
#X obj 56 115 t b b b;
#X obj 56 309 t b b b;
#X obj 56 352 t b b b;
#X obj 56 372 t b b b;
#X obj 56 392 t b b b;
#X obj 56 412 t b b b;
#X obj 17 331 t b b b;
#X obj 16 288 t b b b;
#X obj 56 267 t b b b;
#X obj 56 247 t b b b;
#X obj 56 228 t b b b;
#X obj 56 208 t b b b;
#X obj 56 188 t b b b;
#X obj 56 167 t b b b;
#X msg 255 284 1;
#X msg 255 184 1;
#X msg 114 449 ParentName;
#X msg 255 449 /Dummy;
#X msg 114 469 g*pos;
#X msg 255 469 0;
#X obj 56 432 t b b b;
#X obj 56 452 t b b b;
#X msg 255 264 1;
#X msg 255 205 1;
#X msg 255 225 1;
#X msg 255 326 -16;
#X msg 183 79 /EvilPrince_Bulle;
#X msg 255 132 /home/woii/2013_Sebkha-ChottGalootFormula_ThingFish/ThingFishVideoDecorum/HesSoGay/data/haab_jambe_jardin.png
;
#X msg 255 109 -3.021;
#X msg 255 369 0.85;
#X msg 255 389 0.85;
#X obj 71 22 r DriveInHarryInit;
#X msg 255 245 20;
#X msg 255 409 -2.25;
#X msg 255 429 -2.15;
#X connect 1 0 3 0;
#X connect 2 0 20 0;
#X connect 3 0 5 0;
#X connect 4 0 1 0;
#X connect 5 0 0 0;
#X connect 6 0 1 0;
#X connect 7 0 1 0;
#X connect 8 0 1 0;
#X connect 9 0 1 0;
#X connect 10 0 1 0;
#X connect 11 0 1 0;
#X connect 12 0 1 0;
#X connect 13 0 1 0;
#X connect 14 0 1 0;
#X connect 15 0 1 0;
#X connect 17 0 1 0;
#X connect 18 0 1 0;
#X connect 19 0 1 0;
#X connect 20 0 6 0;
#X connect 20 0 21 0;
#X connect 20 1 49 0;
#X connect 20 2 47 0;
#X connect 21 0 34 0;
#X connect 21 1 4 0;
#X connect 21 2 48 0;
#X connect 22 0 23 0;
#X connect 22 1 7 0;
#X connect 22 2 46 0;
#X connect 23 0 24 0;
#X connect 23 1 8 0;
#X connect 23 2 50 0;
#X connect 24 0 25 0;
#X connect 24 1 9 0;
#X connect 24 2 51 0;
#X connect 25 0 26 0;
#X connect 25 1 10 0;
#X connect 25 2 54 0;
#X connect 26 0 41 0;
#X connect 26 1 11 0;
#X connect 26 2 55 0;
#X connect 27 1 16 0;
#X connect 28 1 15 0;
#X connect 29 0 22 0;
#X connect 29 1 18 0;
#X connect 29 2 35 0;
#X connect 30 0 29 0;
#X connect 30 1 19 0;
#X connect 30 2 43 0;
#X connect 31 0 30 0;
#X connect 31 1 17 0;
#X connect 31 2 53 0;
#X connect 32 0 31 0;
#X connect 32 1 12 0;
#X connect 32 2 45 0;
#X connect 33 0 32 0;
#X connect 33 1 14 0;
#X connect 33 2 44 0;
#X connect 34 0 33 0;
#X connect 34 1 13 0;
#X connect 34 2 36 0;
#X connect 35 0 5 1;
#X connect 36 0 5 1;
#X connect 37 0 1 0;
#X connect 38 0 5 1;
#X connect 39 0 1 0;
#X connect 40 0 5 1;
#X connect 41 0 42 0;
#X connect 41 1 37 0;
#X connect 41 2 38 0;
#X connect 42 1 39 0;
#X connect 42 2 40 0;
#X connect 43 0 5 1;
#X connect 44 0 5 1;
#X connect 45 0 5 1;
#X connect 46 0 5 1;
#X connect 47 0 1 1;
#X connect 48 0 5 1;
#X connect 49 0 5 1;
#X connect 50 0 5 1;
#X connect 51 0 5 1;
#X connect 52 0 2 0;
#X connect 53 0 5 1;
#X connect 54 0 5 1;
#X connect 55 0 5 1;
#X restore 471 360 pd HarryJambeJardinInit;
#N canvas 457 100 850 796 HarryJambeCourInit 0;
#X obj 234 572 send OSC_MESSAGES;
#X obj 114 499 list prepend;
#X obj 71 43 bng 15 250 50 0 empty empty empty 17 7 0 10 -262144 -1
-1;
#X obj 114 522 l2s /;
#X msg 114 132 File;
#X obj 234 539 list;
#X msg 114 109 Zpos;
#X msg 114 326 RenderOrder;
#X msg 114 369 Yscale;
#X msg 114 389 Xscale;
#X msg 114 409 Ypos;
#X msg 114 429 Xpos;
#X msg 114 225 Blue;
#X msg 114 184 Red;
#X msg 114 205 Green;
#X msg 114 305 modeAlpha;
#X msg 114 348 Shape;
#X msg 114 245 Rotate;
#X msg 114 284 Alpha;
#X msg 114 264 Activate;
#X obj 71 62 t b b b;
#X obj 56 115 t b b b;
#X obj 56 309 t b b b;
#X obj 56 352 t b b b;
#X obj 56 372 t b b b;
#X obj 56 392 t b b b;
#X obj 56 412 t b b b;
#X obj 17 331 t b b b;
#X obj 16 288 t b b b;
#X obj 56 267 t b b b;
#X obj 56 247 t b b b;
#X obj 56 228 t b b b;
#X obj 56 208 t b b b;
#X obj 56 188 t b b b;
#X obj 56 167 t b b b;
#X msg 255 284 1;
#X msg 255 184 1;
#X msg 114 449 ParentName;
#X msg 255 449 /Dummy;
#X msg 114 469 g*pos;
#X msg 255 469 0;
#X obj 56 432 t b b b;
#X obj 56 452 t b b b;
#X msg 255 264 1;
#X msg 255 205 1;
#X msg 255 225 1;
#X msg 255 326 -16;
#X msg 255 109 -3.021;
#X msg 183 79 /EvilPrince_BulleContent;
#X obj 71 22 r DriveInHarryInit;
#X msg 255 369 0.85;
#X msg 255 132 /home/woii/2013_Sebkha-ChottGalootFormula_ThingFish/ThingFishVideoDecorum/HesSoGay/data/haab_jambe_cour.png
;
#X msg 255 389 0.85;
#X msg 255 245 -20;
#X msg 255 409 -2.23;
#X msg 255 429 -1.91;
#X connect 1 0 3 0;
#X connect 2 0 20 0;
#X connect 3 0 5 0;
#X connect 4 0 1 0;
#X connect 5 0 0 0;
#X connect 6 0 1 0;
#X connect 7 0 1 0;
#X connect 8 0 1 0;
#X connect 9 0 1 0;
#X connect 10 0 1 0;
#X connect 11 0 1 0;
#X connect 12 0 1 0;
#X connect 13 0 1 0;
#X connect 14 0 1 0;
#X connect 15 0 1 0;
#X connect 17 0 1 0;
#X connect 18 0 1 0;
#X connect 19 0 1 0;
#X connect 20 0 6 0;
#X connect 20 0 21 0;
#X connect 20 1 47 0;
#X connect 20 2 48 0;
#X connect 21 0 34 0;
#X connect 21 1 4 0;
#X connect 21 2 51 0;
#X connect 22 0 23 0;
#X connect 22 1 7 0;
#X connect 22 2 46 0;
#X connect 23 0 24 0;
#X connect 23 1 8 0;
#X connect 23 2 50 0;
#X connect 24 0 25 0;
#X connect 24 1 9 0;
#X connect 24 2 52 0;
#X connect 25 0 26 0;
#X connect 25 1 10 0;
#X connect 25 2 54 0;
#X connect 26 0 41 0;
#X connect 26 1 11 0;
#X connect 26 2 55 0;
#X connect 27 1 16 0;
#X connect 28 1 15 0;
#X connect 29 0 22 0;
#X connect 29 1 18 0;
#X connect 29 2 35 0;
#X connect 30 0 29 0;
#X connect 30 1 19 0;
#X connect 30 2 43 0;
#X connect 31 0 30 0;
#X connect 31 1 17 0;
#X connect 31 2 53 0;
#X connect 32 0 31 0;
#X connect 32 1 12 0;
#X connect 32 2 45 0;
#X connect 33 0 32 0;
#X connect 33 1 14 0;
#X connect 33 2 44 0;
#X connect 34 0 33 0;
#X connect 34 1 13 0;
#X connect 34 2 36 0;
#X connect 35 0 5 1;
#X connect 36 0 5 1;
#X connect 37 0 1 0;
#X connect 38 0 5 1;
#X connect 39 0 1 0;
#X connect 40 0 5 1;
#X connect 41 0 42 0;
#X connect 41 1 37 0;
#X connect 41 2 38 0;
#X connect 42 1 39 0;
#X connect 42 2 40 0;
#X connect 43 0 5 1;
#X connect 44 0 5 1;
#X connect 45 0 5 1;
#X connect 46 0 5 1;
#X connect 47 0 5 1;
#X connect 48 0 1 1;
#X connect 49 0 2 0;
#X connect 50 0 5 1;
#X connect 51 0 5 1;
#X connect 52 0 5 1;
#X connect 53 0 5 1;
#X connect 54 0 5 1;
#X connect 55 0 5 1;
#X restore 471 380 pd HarryJambeCourInit;
#X obj 68 370 s DriveInHarryInit;
#X connect 0 0 2 0;
#X connect 0 0 26 0;
