#N canvas 1 100 852 678 10;
#N canvas 499 100 850 796 AgreementsInit 0;
#X obj 234 572 send OSC_MESSAGES;
#X obj 114 499 list prepend;
#X obj 71 43 bng 15 250 50 0 empty empty empty 17 7 0 10 -262144 -1
-1;
#X obj 114 522 l2s /;
#X msg 114 132 File;
#X obj 234 539 list;
#X msg 114 109 Zpos;
#X msg 114 326 RenderOrder;
#X msg 114 369 Yscale;
#X msg 114 389 Xscale;
#X msg 114 409 Ypos;
#X msg 114 429 Xpos;
#X msg 114 225 Blue;
#X msg 114 184 Red;
#X msg 114 205 Green;
#X msg 114 305 modeAlpha;
#X msg 114 348 Shape;
#X msg 114 245 Rotate;
#X msg 114 284 Alpha;
#X msg 114 264 Activate;
#X obj 71 62 t b b b;
#X obj 56 115 t b b b;
#X obj 56 309 t b b b;
#X obj 56 352 t b b b;
#X obj 56 372 t b b b;
#X obj 56 392 t b b b;
#X obj 56 412 t b b b;
#X obj 17 331 t b b b;
#X obj 16 288 t b b b;
#X obj 56 267 t b b b;
#X obj 56 247 t b b b;
#X obj 56 228 t b b b;
#X obj 56 208 t b b b;
#X obj 56 188 t b b b;
#X obj 56 167 t b b b;
#X msg 255 245 0;
#X msg 255 284 1;
#X msg 255 184 1;
#X msg 114 449 ParentName;
#X msg 255 449 /Dummy;
#X msg 114 469 g*pos;
#X msg 255 469 0;
#X obj 56 432 t b b b;
#X obj 56 452 t b b b;
#X msg 255 264 1;
#X msg 255 429 0;
#X msg 255 205 1;
#X msg 255 225 1;
#X obj 71 22 r AgreementsInit;
#X msg 183 79 /EvilPrince_*;
#X msg 255 109 -3.03;
#X msg 255 326 -21;
#X msg 255 131 /home/woii/2013_Sebkha-ChottGalootFormula_ThingFish/ThingFishVideoDecorum/BriefcaseBoogie/data/assignementZFT-page001.png
;
#X msg 255 389 3;
#X msg 255 369 4;
#X msg 255 409 12;
#X connect 1 0 3 0;
#X connect 2 0 20 0;
#X connect 3 0 5 0;
#X connect 4 0 1 0;
#X connect 5 0 0 0;
#X connect 6 0 1 0;
#X connect 7 0 1 0;
#X connect 8 0 1 0;
#X connect 9 0 1 0;
#X connect 10 0 1 0;
#X connect 11 0 1 0;
#X connect 12 0 1 0;
#X connect 13 0 1 0;
#X connect 14 0 1 0;
#X connect 15 0 1 0;
#X connect 17 0 1 0;
#X connect 18 0 1 0;
#X connect 19 0 1 0;
#X connect 20 0 6 0;
#X connect 20 0 21 0;
#X connect 20 1 50 0;
#X connect 20 2 49 0;
#X connect 21 0 34 0;
#X connect 21 1 4 0;
#X connect 21 2 52 0;
#X connect 22 0 23 0;
#X connect 22 1 7 0;
#X connect 22 2 51 0;
#X connect 23 0 24 0;
#X connect 23 1 8 0;
#X connect 23 2 54 0;
#X connect 24 0 25 0;
#X connect 24 1 9 0;
#X connect 24 2 53 0;
#X connect 25 0 26 0;
#X connect 25 1 10 0;
#X connect 25 2 55 0;
#X connect 26 0 42 0;
#X connect 26 1 11 0;
#X connect 26 2 45 0;
#X connect 27 1 16 0;
#X connect 28 1 15 0;
#X connect 29 0 22 0;
#X connect 29 1 18 0;
#X connect 29 2 36 0;
#X connect 30 0 29 0;
#X connect 30 1 19 0;
#X connect 30 2 44 0;
#X connect 31 0 30 0;
#X connect 31 1 17 0;
#X connect 31 2 35 0;
#X connect 32 0 31 0;
#X connect 32 1 12 0;
#X connect 32 2 47 0;
#X connect 33 0 32 0;
#X connect 33 1 14 0;
#X connect 33 2 46 0;
#X connect 34 0 33 0;
#X connect 34 1 13 0;
#X connect 34 2 37 0;
#X connect 35 0 5 1;
#X connect 36 0 5 1;
#X connect 37 0 5 1;
#X connect 38 0 1 0;
#X connect 39 0 5 1;
#X connect 40 0 1 0;
#X connect 41 0 5 1;
#X connect 42 0 43 0;
#X connect 42 1 38 0;
#X connect 42 2 39 0;
#X connect 43 1 40 0;
#X connect 43 2 41 0;
#X connect 44 0 5 1;
#X connect 45 0 5 1;
#X connect 46 0 5 1;
#X connect 47 0 5 1;
#X connect 48 0 2 0;
#X connect 49 0 1 1;
#X connect 50 0 5 1;
#X connect 51 0 5 1;
#X connect 52 0 5 1;
#X connect 53 0 5 1;
#X connect 54 0 5 1;
#X connect 55 0 5 1;
#X restore 71 41 pd AgreementsInit;
#N canvas 0 100 1440 800 AgreementsAreFalling 0;
#X obj 36 28 r AgreementsAreFalling;
#X obj 36 58 bng 15 250 50 0 empty empty empty 17 7 0 10 -262144 -1
-1;
#X obj 162 195 * 0.75;
#X obj 166 141 random 41;
#X obj 36 178 / 10;
#X msg 661 141 /EvilPrince_Corps;
#X obj 105 323 l2s /;
#X obj 36 376 list prepend;
#X msg 105 250 Yscale;
#X obj 105 278 list prepend;
#X obj 36 124 t b b b;
#X obj 231 323 l2s /;
#X obj 162 378 list prepend;
#X obj 231 278 list prepend;
#X msg 231 250 Xscale;
#X obj 135 442 s OSC_MESSAGES;
#X obj 273 141 random 160;
#X obj 273 217 - 8;
#X obj 273 189 / 10;
#X obj 342 323 l2s /;
#X obj 273 378 list prepend;
#X obj 342 278 list prepend;
#X msg 342 250 Xpos;
#X msg 527 176 12;
#X obj 532 325 l2s /;
#X obj 463 378 list prepend;
#X obj 532 280 list prepend;
#X obj 463 206 line;
#X msg 532 252 Ypos;
#X obj 463 141 bng 15 250 50 0 empty empty empty 17 7 0 10 -262144
-1 -1;
#X obj 463 159 t b b;
#X msg 837 208 /EvilPrince_Tete;
#X msg 987 208 /EvilPrince_BrasCour;
#X obj 855 133 bng 15 250 50 0 empty empty empty 17 7 0 10 -262144
-1 -1;
#X obj 1005 133 bng 15 250 50 0 empty empty empty 17 7 0 10 -262144
-1 -1;
#X obj 577 358 print;
#X obj 798 124 t b b b;
#X obj 948 124 t b b b;
#X msg 627 176 12;
#X obj 563 206 line;
#X obj 563 141 bng 15 250 50 0 empty empty empty 17 7 0 10 -262144
-1 -1;
#X obj 563 159 t b b;
#X msg 463 181 -12 1200;
#X msg 563 181 -12 1200;
#X obj 36 96 metro 2500;
#X obj 855 113 delay 605;
#X obj 1007 113 delay 605;
#X obj 36 614 s NoMustachInit;
#X msg 1165 186 /CuveGaloot/Alpha \$1;
#X msg 1286 144 1 1200;
#X obj 1286 113 delay 1300;
#X msg 1165 113 0 1200;
#X obj 1165 161 line;
#X obj 1165 247 s OSC_MESSAGES;
#X msg 303 52 stop;
#X obj 303 29 r AgreementsStopFalling;
#X obj 828 470 r NoMustachInit;
#X obj 828 654 s OSC_MESSAGES;
#X obj 828 501 t b b;
#X msg 828 582 /ItalienBras/File /home/woii/2013_Sebkha-ChottGalootFormula_ThingFish/ThingFishVideoDecorum/Italien/data/italien_cache_moustache.png
;
#X msg 855 538 0 100;
#X msg 828 555 /ItalienBras/Rotate \$1;
#X msg 828 402 /ItalienBras/File /home/woii/2013_Sebkha-ChottGalootFormula_ThingFish/ThingFishVideoDecorum/Italien/data/italien_jumelles.png
;
#X connect 0 0 1 0;
#X connect 1 0 44 0;
#X connect 1 0 47 0;
#X connect 2 0 12 0;
#X connect 3 0 4 0;
#X connect 4 0 2 0;
#X connect 4 0 7 0;
#X connect 5 0 9 1;
#X connect 5 0 13 1;
#X connect 5 0 21 1;
#X connect 5 0 26 1;
#X connect 6 0 7 1;
#X connect 7 0 15 0;
#X connect 8 0 9 0;
#X connect 9 0 6 0;
#X connect 10 0 3 0;
#X connect 10 0 16 0;
#X connect 10 0 29 0;
#X connect 10 1 8 0;
#X connect 10 1 14 0;
#X connect 10 1 22 0;
#X connect 10 1 28 0;
#X connect 10 2 5 0;
#X connect 11 0 12 1;
#X connect 12 0 15 0;
#X connect 13 0 11 0;
#X connect 14 0 13 0;
#X connect 16 0 18 0;
#X connect 17 0 20 0;
#X connect 18 0 17 0;
#X connect 19 0 20 1;
#X connect 20 0 15 0;
#X connect 21 0 19 0;
#X connect 22 0 21 0;
#X connect 23 0 27 0;
#X connect 24 0 25 1;
#X connect 24 0 35 0;
#X connect 25 0 15 0;
#X connect 26 0 24 0;
#X connect 27 0 25 0;
#X connect 28 0 26 0;
#X connect 29 0 30 0;
#X connect 30 0 42 0;
#X connect 30 1 23 0;
#X connect 31 0 26 1;
#X connect 31 0 21 1;
#X connect 31 0 13 1;
#X connect 31 0 9 1;
#X connect 32 0 26 1;
#X connect 32 0 21 1;
#X connect 32 0 13 1;
#X connect 32 0 9 1;
#X connect 33 0 36 0;
#X connect 34 0 37 0;
#X connect 36 0 3 0;
#X connect 36 0 16 0;
#X connect 36 0 40 0;
#X connect 36 1 28 0;
#X connect 36 1 22 0;
#X connect 36 1 14 0;
#X connect 36 1 8 0;
#X connect 36 2 31 0;
#X connect 37 0 16 0;
#X connect 37 0 3 0;
#X connect 37 0 29 0;
#X connect 37 1 28 0;
#X connect 37 1 22 0;
#X connect 37 1 14 0;
#X connect 37 1 8 0;
#X connect 37 2 32 0;
#X connect 38 0 39 0;
#X connect 39 0 25 0;
#X connect 40 0 41 0;
#X connect 41 0 43 0;
#X connect 41 1 38 0;
#X connect 42 0 27 0;
#X connect 43 0 39 0;
#X connect 44 0 10 0;
#X connect 44 0 45 0;
#X connect 44 0 51 0;
#X connect 44 0 50 0;
#X connect 45 0 33 0;
#X connect 45 0 46 0;
#X connect 46 0 34 0;
#X connect 48 0 53 0;
#X connect 49 0 52 0;
#X connect 50 0 49 0;
#X connect 51 0 52 0;
#X connect 52 0 48 0;
#X connect 54 0 44 0;
#X connect 54 0 51 0;
#X connect 54 0 62 0;
#X connect 55 0 54 0;
#X connect 56 0 58 0;
#X connect 58 0 59 0;
#X connect 58 1 60 0;
#X connect 59 0 57 0;
#X connect 60 0 61 0;
#X connect 61 0 57 0;
#X connect 62 0 57 0;
#X restore 675 67 pd AgreementsAreFalling;
#N canvas 497 100 850 796 NoMustachInit 0;
#X obj 234 572 send OSC_MESSAGES;
#X obj 114 499 list prepend;
#X obj 71 43 bng 15 250 50 0 empty empty empty 17 7 0 10 -262144 -1
-1;
#X obj 114 522 l2s /;
#X msg 114 132 File;
#X obj 234 539 list;
#X msg 114 109 Zpos;
#X msg 114 326 RenderOrder;
#X msg 114 369 Yscale;
#X msg 114 389 Xscale;
#X msg 114 409 Ypos;
#X msg 114 429 Xpos;
#X msg 114 225 Blue;
#X msg 114 184 Red;
#X msg 114 205 Green;
#X msg 114 305 modeAlpha;
#X msg 114 348 Shape;
#X msg 114 245 Rotate;
#X msg 114 284 Alpha;
#X msg 114 264 Activate;
#X obj 71 62 t b b b;
#X obj 56 115 t b b b;
#X obj 56 309 t b b b;
#X obj 56 352 t b b b;
#X obj 56 372 t b b b;
#X obj 56 392 t b b b;
#X obj 56 412 t b b b;
#X obj 17 331 t b b b;
#X obj 16 288 t b b b;
#X obj 56 267 t b b b;
#X obj 56 247 t b b b;
#X obj 56 228 t b b b;
#X obj 56 208 t b b b;
#X obj 56 188 t b b b;
#X obj 56 167 t b b b;
#X msg 255 245 0;
#X msg 255 184 1;
#X msg 114 449 ParentName;
#X msg 255 449 /Dummy;
#X msg 114 469 g*pos;
#X msg 255 469 0;
#X obj 56 432 t b b b;
#X obj 56 452 t b b b;
#X msg 255 264 1;
#X msg 255 429 0;
#X msg 255 205 1;
#X msg 255 225 1;
#X obj 71 22 r NoMustachInit;
#X msg 183 79 /CuveGaloot;
#X msg 255 109 -3.02;
#X msg 255 326 -20;
#X msg 255 131 /home/woii/2013_Sebkha-ChottGalootFormula_ThingFish/ThingFishVideoDecorum/BriefcaseBoogie/data/moustacheinterdite.png
;
#X msg 255 389 8;
#X msg 255 369 6;
#X msg 255 409 -0.5;
#X msg 255 284 0;
#X connect 1 0 3 0;
#X connect 2 0 20 0;
#X connect 3 0 5 0;
#X connect 4 0 1 0;
#X connect 5 0 0 0;
#X connect 6 0 1 0;
#X connect 7 0 1 0;
#X connect 8 0 1 0;
#X connect 9 0 1 0;
#X connect 10 0 1 0;
#X connect 11 0 1 0;
#X connect 12 0 1 0;
#X connect 13 0 1 0;
#X connect 14 0 1 0;
#X connect 15 0 1 0;
#X connect 17 0 1 0;
#X connect 18 0 1 0;
#X connect 19 0 1 0;
#X connect 20 0 6 0;
#X connect 20 0 21 0;
#X connect 20 1 49 0;
#X connect 20 2 48 0;
#X connect 21 0 34 0;
#X connect 21 1 4 0;
#X connect 21 2 51 0;
#X connect 22 0 23 0;
#X connect 22 1 7 0;
#X connect 22 2 50 0;
#X connect 23 0 24 0;
#X connect 23 1 8 0;
#X connect 23 2 53 0;
#X connect 24 0 25 0;
#X connect 24 1 9 0;
#X connect 24 2 52 0;
#X connect 25 0 26 0;
#X connect 25 1 10 0;
#X connect 25 2 54 0;
#X connect 26 0 41 0;
#X connect 26 1 11 0;
#X connect 26 2 44 0;
#X connect 27 1 16 0;
#X connect 28 1 15 0;
#X connect 29 0 22 0;
#X connect 29 1 18 0;
#X connect 29 2 55 0;
#X connect 30 0 29 0;
#X connect 30 1 19 0;
#X connect 30 2 43 0;
#X connect 31 0 30 0;
#X connect 31 1 17 0;
#X connect 31 2 35 0;
#X connect 32 0 31 0;
#X connect 32 1 12 0;
#X connect 32 2 46 0;
#X connect 33 0 32 0;
#X connect 33 1 14 0;
#X connect 33 2 45 0;
#X connect 34 0 33 0;
#X connect 34 1 13 0;
#X connect 34 2 36 0;
#X connect 35 0 5 1;
#X connect 36 0 5 1;
#X connect 37 0 1 0;
#X connect 38 0 5 1;
#X connect 39 0 1 0;
#X connect 40 0 5 1;
#X connect 41 0 42 0;
#X connect 41 1 37 0;
#X connect 41 2 38 0;
#X connect 42 1 39 0;
#X connect 42 2 40 0;
#X connect 43 0 5 1;
#X connect 44 0 5 1;
#X connect 45 0 5 1;
#X connect 46 0 5 1;
#X connect 47 0 2 0;
#X connect 48 0 1 1;
#X connect 49 0 5 1;
#X connect 50 0 5 1;
#X connect 51 0 5 1;
#X connect 52 0 5 1;
#X connect 53 0 5 1;
#X connect 54 0 5 1;
#X connect 55 0 5 1;
#X restore 71 61 pd NoMustachInit;
#N canvas 489 100 850 796 StyloInit 0;
#X obj 234 572 send OSC_MESSAGES;
#X obj 114 499 list prepend;
#X obj 71 43 bng 15 250 50 0 empty empty empty 17 7 0 10 -262144 -1
-1;
#X obj 114 522 l2s /;
#X msg 114 132 File;
#X obj 234 539 list;
#X msg 114 109 Zpos;
#X msg 114 326 RenderOrder;
#X msg 114 369 Yscale;
#X msg 114 389 Xscale;
#X msg 114 409 Ypos;
#X msg 114 429 Xpos;
#X msg 114 225 Blue;
#X msg 114 184 Red;
#X msg 114 205 Green;
#X msg 114 305 modeAlpha;
#X msg 114 348 Shape;
#X msg 114 245 Rotate;
#X msg 114 284 Alpha;
#X msg 114 264 Activate;
#X obj 71 62 t b b b;
#X obj 56 115 t b b b;
#X obj 56 309 t b b b;
#X obj 56 352 t b b b;
#X obj 56 372 t b b b;
#X obj 56 392 t b b b;
#X obj 56 412 t b b b;
#X obj 17 331 t b b b;
#X obj 16 288 t b b b;
#X obj 56 267 t b b b;
#X obj 56 247 t b b b;
#X obj 56 228 t b b b;
#X obj 56 208 t b b b;
#X obj 56 188 t b b b;
#X obj 56 167 t b b b;
#X msg 255 245 0;
#X msg 255 184 1;
#X msg 114 449 ParentName;
#X msg 255 449 /Dummy;
#X msg 114 469 g*pos;
#X msg 255 469 0;
#X obj 56 432 t b b b;
#X obj 56 452 t b b b;
#X msg 255 264 1;
#X msg 255 205 1;
#X msg 255 225 1;
#X msg 183 79 /DjventiloPales;
#X msg 255 131 /home/woii/2013_Sebkha-ChottGalootFormula_ThingFish/ThingFishVideoDecorum/BriefcaseBoogie/data/2013_07_08_TF_Stylo_Rhonda.png
;
#X msg 255 284 1;
#X msg 255 326 -21;
#X msg 255 369 4;
#X msg 255 389 0.4;
#X msg 255 409 12;
#X obj 71 22 r StyloInit;
#X msg 255 109 -2.7;
#X msg 255 429 -2;
#X connect 1 0 3 0;
#X connect 2 0 20 0;
#X connect 3 0 5 0;
#X connect 4 0 1 0;
#X connect 5 0 0 0;
#X connect 6 0 1 0;
#X connect 7 0 1 0;
#X connect 8 0 1 0;
#X connect 9 0 1 0;
#X connect 10 0 1 0;
#X connect 11 0 1 0;
#X connect 12 0 1 0;
#X connect 13 0 1 0;
#X connect 14 0 1 0;
#X connect 15 0 1 0;
#X connect 17 0 1 0;
#X connect 18 0 1 0;
#X connect 19 0 1 0;
#X connect 20 0 6 0;
#X connect 20 0 21 0;
#X connect 20 1 54 0;
#X connect 20 2 46 0;
#X connect 21 0 34 0;
#X connect 21 1 4 0;
#X connect 21 2 47 0;
#X connect 22 0 23 0;
#X connect 22 1 7 0;
#X connect 22 2 49 0;
#X connect 23 0 24 0;
#X connect 23 1 8 0;
#X connect 23 2 50 0;
#X connect 24 0 25 0;
#X connect 24 1 9 0;
#X connect 24 2 51 0;
#X connect 25 0 26 0;
#X connect 25 1 10 0;
#X connect 25 2 52 0;
#X connect 26 0 41 0;
#X connect 26 1 11 0;
#X connect 26 2 55 0;
#X connect 27 1 16 0;
#X connect 28 1 15 0;
#X connect 29 0 22 0;
#X connect 29 1 18 0;
#X connect 29 2 48 0;
#X connect 30 0 29 0;
#X connect 30 1 19 0;
#X connect 30 2 43 0;
#X connect 31 0 30 0;
#X connect 31 1 17 0;
#X connect 31 2 35 0;
#X connect 32 0 31 0;
#X connect 32 1 12 0;
#X connect 32 2 45 0;
#X connect 33 0 32 0;
#X connect 33 1 14 0;
#X connect 33 2 44 0;
#X connect 34 0 33 0;
#X connect 34 1 13 0;
#X connect 34 2 36 0;
#X connect 35 0 5 1;
#X connect 36 0 5 1;
#X connect 37 0 1 0;
#X connect 38 0 5 1;
#X connect 39 0 1 0;
#X connect 40 0 5 1;
#X connect 41 0 42 0;
#X connect 41 1 37 0;
#X connect 41 2 38 0;
#X connect 42 1 39 0;
#X connect 42 2 40 0;
#X connect 43 0 5 1;
#X connect 44 0 5 1;
#X connect 45 0 5 1;
#X connect 46 0 1 1;
#X connect 47 0 5 1;
#X connect 48 0 5 1;
#X connect 49 0 5 1;
#X connect 50 0 5 1;
#X connect 51 0 5 1;
#X connect 52 0 5 1;
#X connect 53 0 2 0;
#X connect 54 0 5 1;
#X connect 55 0 5 1;
#X restore 71 131 pd StyloInit;
#N canvas 0 100 1440 800 StyloIsFalling 0;
#X obj 24 21 r StyloIsFalling;
#X obj 24 52 bng 15 250 50 0 empty empty empty 17 7 0 10 -262144 -1
-1;
#X obj 1120 132 s StyloInit;
#X obj 628 166 line;
#X msg 647 133 12;
#X obj 52 87 t b b b;
#X msg 624 211 /DjventiloPales/Ypos \$1;
#X obj 634 260 s OSC_MESSAGES;
#X msg 466 118 1 3000;
#X obj 225 380 v /HandJardin/Xpos;
#X obj 273 525 line;
#X obj 413 525 line;
#X obj 365 380 v /HandJardin/Ypos;
#X obj 542 525 line;
#X obj 494 380 v /HandJardin/Zpos;
#X obj 672 525 line;
#X obj 624 380 v /HandJardin/Rotate;
#X msg 77 430 -3 500;
#X obj 77 251 delay 1200;
#X obj 291 683 s OSC_MESSAGES;
#X msg 262 589 /HandJardin/Xpos \$1;
#X msg 392 590 /HandJardin/Ypos \$1;
#X msg 523 589 /HandJardin/Zpos \$1;
#X msg 653 589 /HandJardin/Rotate \$1;
#X msg 73 535 -2.5 75;
#X msg 77 508 90 150;
#X obj 77 469 delay 1650;
#X msg 90 639 -2 50;
#X obj 77 602 delay 100;
#X obj 1085 705 s MachouilleStylo;
#X obj 846 697 delay 300;
#X connect 0 0 1 0;
#X connect 1 0 5 0;
#X connect 3 0 6 0;
#X connect 4 0 3 0;
#X connect 5 1 8 0;
#X connect 5 1 18 0;
#X connect 5 2 2 0;
#X connect 5 2 4 0;
#X connect 5 2 9 0;
#X connect 5 2 12 0;
#X connect 5 2 14 0;
#X connect 5 2 16 0;
#X connect 6 0 7 0;
#X connect 8 0 3 0;
#X connect 9 0 10 0;
#X connect 10 0 20 0;
#X connect 11 0 21 0;
#X connect 12 0 11 0;
#X connect 13 0 22 0;
#X connect 14 0 13 0;
#X connect 15 0 23 0;
#X connect 16 0 15 0;
#X connect 17 0 10 0;
#X connect 18 0 17 0;
#X connect 18 0 26 0;
#X connect 20 0 19 0;
#X connect 21 0 19 0;
#X connect 22 0 19 0;
#X connect 23 0 19 0;
#X connect 24 0 13 0;
#X connect 25 0 15 0;
#X connect 26 0 25 0;
#X connect 26 0 24 0;
#X connect 26 0 28 0;
#X connect 27 0 10 0;
#X connect 28 0 27 0;
#X connect 28 0 30 0;
#X connect 30 0 29 0;
#X restore 674 100 pd StyloIsFalling;
#N canvas 0 100 1440 800 MachouilleStylo 1;
#X obj 37 26 r MachouilleStylo;
#X obj 37 51 bng 15 250 50 0 empty empty empty 17 7 0 10 -262144 -1
-1;
#X obj 150 431 s OSC_MESSAGES;
#X msg 150 89 90 200;
#X obj 150 227 line;
#X obj 150 259 + 90;
#X msg 150 322 /DjventiloPales/Rotate \$1;
#X msg 150 379 /HandJardin/Rotate \$1;
#X obj 37 72 t b b;
#X msg 112 89 0;
#X obj 379 89 delay 205;
#X obj 280 211 line;
#X msg 280 133 1;
#X msg 280 89 5 200;
#X msg 280 262 /DjventiloPales/Ypos \$1;
#X obj 501 192 line;
#X msg 501 237 /DjventiloPales/Xpos \$1;
#X msg 501 89 -3.5 200;
#X msg 320 292 /HandJardin/Ypos \$1;
#X obj 319 240 line;
#X msg 379 194 3.7 100;
#X msg 379 223 3.5 100;
#X obj 319 170 v /HandJardin/Ypos;
#X obj 734 89 delay 700;
#X obj 734 124 metro 1000;
#X obj 835 141 delay 500;
#X msg 734 175 -3 500;
#X obj 734 306 line;
#X msg 734 276 set \$1;
#X msg 734 237 170 500;
#X msg 835 289 190 500;
#X msg 835 175 -3.5 500;
#X msg 898 79 stop;
#X obj 898 41 r TFStopsSniffingStylo;
#X obj 755 429 bng 15 250 50 0 empty empty empty 17 7 0 10 -262144
-1 -1;
#X obj 903 455 s TFIn;
#X obj 755 468 t b b;
#X obj 984 478 s TFStopsSniffingStylo;
#X msg 310 414 /DjventiloPales/Zpos -3.03;
#X msg 782 546 4 100;
#X msg 782 515 8 300;
#X obj 835 415 delay 150;
#X obj 860 507 delay 800;
#X msg 873 545 0 400;
#X connect 0 0 1 0;
#X connect 1 0 8 0;
#X connect 3 0 4 0;
#X connect 4 0 5 0;
#X connect 4 0 6 0;
#X connect 5 0 7 0;
#X connect 5 0 28 0;
#X connect 6 0 2 0;
#X connect 7 0 2 0;
#X connect 8 0 3 0;
#X connect 8 0 13 0;
#X connect 8 0 10 0;
#X connect 8 0 17 0;
#X connect 8 1 9 0;
#X connect 8 1 12 0;
#X connect 8 1 22 0;
#X connect 8 1 23 0;
#X connect 9 0 4 0;
#X connect 10 0 20 0;
#X connect 10 0 21 0;
#X connect 11 0 14 0;
#X connect 12 0 11 0;
#X connect 13 0 11 0;
#X connect 14 0 2 0;
#X connect 15 0 16 0;
#X connect 16 0 2 0;
#X connect 17 0 15 0;
#X connect 18 0 2 0;
#X connect 19 0 18 0;
#X connect 20 0 11 0;
#X connect 21 0 19 0;
#X connect 22 0 19 0;
#X connect 23 0 24 0;
#X connect 24 0 26 0;
#X connect 24 0 25 0;
#X connect 24 0 29 0;
#X connect 25 0 31 0;
#X connect 26 0 15 0;
#X connect 27 0 7 0;
#X connect 28 0 27 0;
#X connect 29 0 27 0;
#X connect 30 0 27 0;
#X connect 31 0 15 0;
#X connect 31 0 30 0;
#X connect 32 0 24 0;
#X connect 33 0 32 0;
#X connect 34 0 36 0;
#X connect 36 1 40 0;
#X connect 36 1 37 0;
#X connect 36 1 39 0;
#X connect 36 1 41 0;
#X connect 36 1 42 0;
#X connect 38 0 2 0;
#X connect 39 0 19 0;
#X connect 40 0 11 0;
#X connect 41 0 35 0;
#X connect 41 0 38 0;
#X connect 42 0 43 0;
#X connect 43 0 11 0;
#X restore 675 126 pd MachouilleStylo;
