#N canvas 0 100 1440 800 10;
#X obj 65 29 mammyNun1;
#X obj 65 49 mammyNun2;
#X obj 65 69 mammyNun3;
#X obj 65 89 mammyNun4;
#X obj 65 109 mammyNun5;
#X obj 251 153 s MNInit;
#X obj 251 89 bng 15 250 50 0 empty empty empty 17 7 0 10 -262144 -1
-1;
#X msg 467 106 /CochonLights/Xpos \$1;
#X msg 467 126 /DunjonDoor1/Xpos \$1;
#X msg 467 146 /DunjonDoor5/Xpos \$1;
#X msg 467 166 /EvilPrince_Bulle/Xpos \$1;
#X msg 467 186 /Zombies_Chien_PatteArriere1/Xpos \$1;
#X obj 401 68 line;
#X msg 401 34 0;
#X obj 251 117 t b b;
#X obj 467 234 s OSC_MESSAGES;
#X obj 857 158 line;
#X msg 897 196 /CochonLights/Ypos \$1;
#X msg 897 216 /DunjonDoor1/Ypos \$1;
#X msg 897 236 /DunjonDoor5/Ypos \$1;
#X msg 897 256 /EvilPrince_Bulle/Ypos \$1;
#X msg 897 276 /Zombies_Chien_PatteArriere1/Ypos \$1;
#X obj 318 85 delay 100;
#X obj 401 129 + 5.5;
#X obj 401 109 - 2.5;
#X obj 401 149 + 3.5;
#X msg 857 124 -1.5;
#X obj 857 259 + 1.5;
#X obj 857 239 + 0.5;
#X obj 857 219 - 0.5;
#X obj 857 199 + 0.5;
#X obj 401 89 - 5.3;
#X obj 251 45 r MNInPlace;
#X connect 6 0 14 0;
#X connect 6 0 22 0;
#X connect 7 0 15 0;
#X connect 8 0 15 0;
#X connect 9 0 15 0;
#X connect 10 0 15 0;
#X connect 11 0 15 0;
#X connect 12 0 23 0;
#X connect 12 0 24 0;
#X connect 12 0 25 0;
#X connect 12 0 31 0;
#X connect 13 0 12 0;
#X connect 14 0 5 0;
#X connect 16 0 27 0;
#X connect 16 0 28 0;
#X connect 16 0 29 0;
#X connect 16 0 30 0;
#X connect 16 0 17 0;
#X connect 17 0 15 0;
#X connect 18 0 15 0;
#X connect 19 0 15 0;
#X connect 20 0 15 0;
#X connect 21 0 15 0;
#X connect 22 0 13 0;
#X connect 22 0 26 0;
#X connect 23 0 9 0;
#X connect 24 0 8 0;
#X connect 25 0 10 0;
#X connect 26 0 16 0;
#X connect 27 0 21 0;
#X connect 28 0 20 0;
#X connect 29 0 19 0;
#X connect 30 0 18 0;
#X connect 31 0 7 0;
#X connect 32 0 6 0;
