#N canvas 0 100 1440 800 10;
#X obj 89 296 bng 15 250 50 0 empty empty empty 17 7 0 10 -262144 -1
-1;
#X obj 89 316 t b b;
#X obj 366 283 hsl 128 15 -8 8 0 0 empty empty empty -2 -8 0 10 -262144
-1 -1 10900 1;
#X obj 363 369 s OSC_MESSAGES;
#X msg 363 253 0;
#N canvas 465 100 850 796 MN3TeteInit 0;
#X obj 234 622 send OSC_MESSAGES;
#X obj 114 549 list prepend;
#X obj 71 43 bng 15 250 50 0 empty empty empty 17 7 0 10 -262144 -1
-1;
#X obj 114 572 l2s /;
#X msg 114 132 File;
#X obj 234 589 list;
#X msg 114 109 Zpos;
#X msg 114 326 RenderOrder;
#X msg 114 369 Yscale;
#X msg 114 389 Xscale;
#X msg 114 409 Ypos;
#X msg 114 429 Xpos;
#X msg 114 225 Blue;
#X msg 114 184 Red;
#X msg 114 205 Green;
#X msg 114 305 modeAlpha;
#X msg 114 348 Shape;
#X msg 114 245 Rotate;
#X msg 114 284 Alpha;
#X msg 114 264 Activate;
#X obj 71 62 t b b b;
#X obj 56 115 t b b b;
#X obj 56 309 t b b b;
#X obj 56 352 t b b b;
#X obj 56 372 t b b b;
#X obj 56 392 t b b b;
#X obj 56 412 t b b b;
#X obj 17 331 t b b b;
#X obj 16 288 t b b b;
#X obj 56 267 t b b b;
#X obj 56 247 t b b b;
#X obj 56 228 t b b b;
#X obj 56 208 t b b b;
#X obj 56 188 t b b b;
#X obj 56 167 t b b b;
#X msg 255 245 0;
#X msg 255 284 1;
#X msg 255 184 1;
#X msg 114 449 ParentName;
#X obj 56 432 t b b b;
#X obj 56 452 t b b b;
#X msg 255 205 1;
#X msg 255 225 1;
#X msg 255 132 /home/woii/2013_Sebkha-ChottGalootFormula_ThingFish/ThingFishVideoDecorum/MammyNuns/data/MN3/mammy_nun_3_tete.png
;
#X msg 255 109 -3.031;
#X msg 255 326 -20;
#X msg 255 264 1;
#X msg 255 369 1;
#X msg 255 389 1;
#X msg 255 409 1;
#X msg 114 489 g*pos;
#X msg 255 489 0;
#X obj 56 472 t b b b;
#X msg 114 469 Child/*pos;
#X msg 255 469 1;
#X msg 183 79 /DunjonDoor4Cadre;
#X obj 71 22 r MN3Init;
#X msg 255 449 /DunjonDoor5;
#X msg 255 429 0.1;
#X connect 1 0 3 0;
#X connect 2 0 20 0;
#X connect 3 0 5 0;
#X connect 4 0 1 0;
#X connect 5 0 0 0;
#X connect 6 0 1 0;
#X connect 7 0 1 0;
#X connect 8 0 1 0;
#X connect 9 0 1 0;
#X connect 10 0 1 0;
#X connect 11 0 1 0;
#X connect 12 0 1 0;
#X connect 13 0 1 0;
#X connect 14 0 1 0;
#X connect 15 0 1 0;
#X connect 17 0 1 0;
#X connect 18 0 1 0;
#X connect 19 0 1 0;
#X connect 20 0 6 0;
#X connect 20 0 21 0;
#X connect 20 1 44 0;
#X connect 20 2 55 0;
#X connect 21 0 34 0;
#X connect 21 1 4 0;
#X connect 21 2 43 0;
#X connect 22 0 23 0;
#X connect 22 1 7 0;
#X connect 22 2 45 0;
#X connect 23 0 24 0;
#X connect 23 1 8 0;
#X connect 23 2 47 0;
#X connect 24 0 25 0;
#X connect 24 1 9 0;
#X connect 24 2 48 0;
#X connect 25 0 26 0;
#X connect 25 1 10 0;
#X connect 25 2 49 0;
#X connect 26 0 39 0;
#X connect 26 1 11 0;
#X connect 26 2 58 0;
#X connect 27 1 16 0;
#X connect 28 1 15 0;
#X connect 29 0 22 0;
#X connect 29 1 18 0;
#X connect 29 2 36 0;
#X connect 30 0 29 0;
#X connect 30 1 19 0;
#X connect 30 2 46 0;
#X connect 31 0 30 0;
#X connect 31 1 17 0;
#X connect 31 2 35 0;
#X connect 32 0 31 0;
#X connect 32 1 12 0;
#X connect 32 2 42 0;
#X connect 33 0 32 0;
#X connect 33 1 14 0;
#X connect 33 2 41 0;
#X connect 34 0 33 0;
#X connect 34 1 13 0;
#X connect 34 2 37 0;
#X connect 35 0 5 1;
#X connect 36 0 5 1;
#X connect 37 0 5 1;
#X connect 38 0 1 0;
#X connect 39 0 40 0;
#X connect 39 1 38 0;
#X connect 39 2 57 0;
#X connect 40 0 52 0;
#X connect 40 1 53 0;
#X connect 40 2 54 0;
#X connect 41 0 5 1;
#X connect 42 0 5 1;
#X connect 43 0 5 1;
#X connect 44 0 5 1;
#X connect 45 0 5 1;
#X connect 46 0 5 1;
#X connect 47 0 5 1;
#X connect 48 0 5 1;
#X connect 49 0 5 1;
#X connect 50 0 1 0;
#X connect 51 0 5 1;
#X connect 52 1 50 0;
#X connect 52 2 51 0;
#X connect 53 0 1 0;
#X connect 54 0 5 1;
#X connect 55 0 1 1;
#X connect 56 0 2 0;
#X connect 57 0 5 1;
#X connect 58 0 5 1;
#X restore 81 51 pd MN3TeteInit;
#N canvas 461 100 850 796 MN3CorpsInit 0;
#X obj 234 622 send OSC_MESSAGES;
#X obj 114 549 list prepend;
#X obj 71 43 bng 15 250 50 0 empty empty empty 17 7 0 10 -262144 -1
-1;
#X obj 114 572 l2s /;
#X msg 114 132 File;
#X obj 234 589 list;
#X msg 114 109 Zpos;
#X msg 114 326 RenderOrder;
#X msg 114 369 Yscale;
#X msg 114 389 Xscale;
#X msg 114 409 Ypos;
#X msg 114 429 Xpos;
#X msg 114 225 Blue;
#X msg 114 184 Red;
#X msg 114 205 Green;
#X msg 114 305 modeAlpha;
#X msg 114 348 Shape;
#X msg 114 245 Rotate;
#X msg 114 284 Alpha;
#X msg 114 264 Activate;
#X obj 71 62 t b b b;
#X obj 56 115 t b b b;
#X obj 56 309 t b b b;
#X obj 56 352 t b b b;
#X obj 56 372 t b b b;
#X obj 56 392 t b b b;
#X obj 56 412 t b b b;
#X obj 17 331 t b b b;
#X obj 16 288 t b b b;
#X obj 56 267 t b b b;
#X obj 56 247 t b b b;
#X obj 56 228 t b b b;
#X obj 56 208 t b b b;
#X obj 56 188 t b b b;
#X obj 56 167 t b b b;
#X msg 255 245 0;
#X msg 255 284 1;
#X msg 255 184 1;
#X msg 114 449 ParentName;
#X msg 114 469 g*pos;
#X msg 255 469 0;
#X obj 56 432 t b b b;
#X obj 56 452 t b b b;
#X msg 255 205 1;
#X msg 255 225 1;
#X msg 255 429 0;
#X msg 255 264 1;
#X msg 255 409 0;
#X msg 183 79 /DunjonDoor5;
#X msg 255 109 -3.0311;
#X msg 255 326 -21;
#X obj 56 472 t b b b;
#X msg 114 489 Child/*pos;
#X msg 255 449 /Dummy;
#X msg 255 489 0;
#X obj 71 22 r MN3EarlyInit;
#X msg 255 132 /home/woii/2013_Sebkha-ChottGalootFormula_ThingFish/ThingFishVideoDecorum/MammyNuns/data/MN3/mammy_nun_3_corps.png
;
#X msg 255 389 0.5876;
#X msg 255 369 1.08461;
#X connect 1 0 3 0;
#X connect 2 0 20 0;
#X connect 3 0 5 0;
#X connect 4 0 1 0;
#X connect 5 0 0 0;
#X connect 6 0 1 0;
#X connect 7 0 1 0;
#X connect 8 0 1 0;
#X connect 9 0 1 0;
#X connect 10 0 1 0;
#X connect 11 0 1 0;
#X connect 12 0 1 0;
#X connect 13 0 1 0;
#X connect 14 0 1 0;
#X connect 15 0 1 0;
#X connect 17 0 1 0;
#X connect 18 0 1 0;
#X connect 19 0 1 0;
#X connect 20 0 6 0;
#X connect 20 0 21 0;
#X connect 20 1 49 0;
#X connect 20 2 48 0;
#X connect 21 0 34 0;
#X connect 21 1 4 0;
#X connect 21 2 56 0;
#X connect 22 0 23 0;
#X connect 22 1 7 0;
#X connect 22 2 50 0;
#X connect 23 0 24 0;
#X connect 23 1 8 0;
#X connect 23 2 58 0;
#X connect 24 0 25 0;
#X connect 24 1 9 0;
#X connect 24 2 57 0;
#X connect 25 0 26 0;
#X connect 25 1 10 0;
#X connect 25 2 47 0;
#X connect 26 0 41 0;
#X connect 26 1 11 0;
#X connect 26 2 45 0;
#X connect 27 1 16 0;
#X connect 28 1 15 0;
#X connect 29 0 22 0;
#X connect 29 1 18 0;
#X connect 29 2 36 0;
#X connect 30 0 29 0;
#X connect 30 1 19 0;
#X connect 30 2 46 0;
#X connect 31 0 30 0;
#X connect 31 1 17 0;
#X connect 31 2 35 0;
#X connect 32 0 31 0;
#X connect 32 1 12 0;
#X connect 32 2 44 0;
#X connect 33 0 32 0;
#X connect 33 1 14 0;
#X connect 33 2 43 0;
#X connect 34 0 33 0;
#X connect 34 1 13 0;
#X connect 34 2 37 0;
#X connect 35 0 5 1;
#X connect 36 0 5 1;
#X connect 37 0 5 1;
#X connect 38 0 1 0;
#X connect 39 0 1 0;
#X connect 40 0 5 1;
#X connect 41 0 42 0;
#X connect 41 1 38 0;
#X connect 41 2 53 0;
#X connect 42 0 51 0;
#X connect 42 1 39 0;
#X connect 42 2 40 0;
#X connect 43 0 5 1;
#X connect 44 0 5 1;
#X connect 45 0 5 1;
#X connect 46 0 5 1;
#X connect 47 0 5 1;
#X connect 48 0 1 1;
#X connect 49 0 5 1;
#X connect 50 0 5 1;
#X connect 51 1 52 0;
#X connect 51 2 54 0;
#X connect 52 0 1 0;
#X connect 53 0 5 1;
#X connect 54 0 5 1;
#X connect 55 0 2 0;
#X connect 56 0 5 1;
#X connect 57 0 5 1;
#X connect 58 0 5 1;
#X restore 81 71 pd MN3CorpsInit;
#N canvas 453 100 850 796 MN3RobeInit 0;
#X obj 234 622 send OSC_MESSAGES;
#X obj 114 549 list prepend;
#X obj 71 43 bng 15 250 50 0 empty empty empty 17 7 0 10 -262144 -1
-1;
#X obj 114 572 l2s /;
#X msg 114 132 File;
#X obj 234 589 list;
#X msg 114 109 Zpos;
#X msg 114 326 RenderOrder;
#X msg 114 369 Yscale;
#X msg 114 389 Xscale;
#X msg 114 409 Ypos;
#X msg 114 429 Xpos;
#X msg 114 225 Blue;
#X msg 114 184 Red;
#X msg 114 205 Green;
#X msg 114 305 modeAlpha;
#X msg 114 348 Shape;
#X msg 114 245 Rotate;
#X msg 114 284 Alpha;
#X msg 114 264 Activate;
#X obj 71 62 t b b b;
#X obj 56 115 t b b b;
#X obj 56 309 t b b b;
#X obj 56 352 t b b b;
#X obj 56 372 t b b b;
#X obj 56 392 t b b b;
#X obj 56 412 t b b b;
#X obj 17 331 t b b b;
#X obj 16 288 t b b b;
#X obj 56 267 t b b b;
#X obj 56 247 t b b b;
#X obj 56 228 t b b b;
#X obj 56 208 t b b b;
#X obj 56 188 t b b b;
#X obj 56 167 t b b b;
#X msg 255 245 0;
#X msg 255 284 1;
#X msg 255 184 1;
#X msg 114 449 ParentName;
#X msg 114 489 g*pos;
#X msg 255 489 0;
#X obj 56 432 t b b b;
#X obj 56 472 t b b b;
#X msg 255 205 1;
#X msg 255 225 1;
#X obj 71 22 r MN3Init;
#X msg 255 132 /home/woii/2013_Sebkha-ChottGalootFormula_ThingFish/ThingFishVideoDecorum/MammyNuns/data/MN3/mammy_nun_3_robe.png
;
#X msg 255 109 -3.03;
#X msg 255 326 -19;
#X obj 56 452 t b b b;
#X msg 114 469 Child/*pos;
#X msg 255 469 1;
#X msg 255 449 /DunjonDoor5;
#X msg 255 264 1;
#X msg 255 389 0.8;
#X msg 255 369 0.69615;
#X msg 183 79 /DunjonDoor5Cadre;
#X msg 255 429 0;
#X msg 255 409 -0.4;
#X connect 1 0 3 0;
#X connect 2 0 20 0;
#X connect 3 0 5 0;
#X connect 4 0 1 0;
#X connect 5 0 0 0;
#X connect 6 0 1 0;
#X connect 7 0 1 0;
#X connect 8 0 1 0;
#X connect 9 0 1 0;
#X connect 10 0 1 0;
#X connect 11 0 1 0;
#X connect 12 0 1 0;
#X connect 13 0 1 0;
#X connect 14 0 1 0;
#X connect 15 0 1 0;
#X connect 17 0 1 0;
#X connect 18 0 1 0;
#X connect 19 0 1 0;
#X connect 20 0 6 0;
#X connect 20 0 21 0;
#X connect 20 1 47 0;
#X connect 20 2 56 0;
#X connect 21 0 34 0;
#X connect 21 1 4 0;
#X connect 21 2 46 0;
#X connect 22 0 23 0;
#X connect 22 1 7 0;
#X connect 22 2 48 0;
#X connect 23 0 24 0;
#X connect 23 1 8 0;
#X connect 23 2 55 0;
#X connect 24 0 25 0;
#X connect 24 1 9 0;
#X connect 24 2 54 0;
#X connect 25 0 26 0;
#X connect 25 1 10 0;
#X connect 25 2 58 0;
#X connect 26 0 41 0;
#X connect 26 1 11 0;
#X connect 26 2 57 0;
#X connect 27 1 16 0;
#X connect 28 1 15 0;
#X connect 29 0 22 0;
#X connect 29 1 18 0;
#X connect 29 2 36 0;
#X connect 30 0 29 0;
#X connect 30 1 19 0;
#X connect 30 2 53 0;
#X connect 31 0 30 0;
#X connect 31 1 17 0;
#X connect 31 2 35 0;
#X connect 32 0 31 0;
#X connect 32 1 12 0;
#X connect 32 2 44 0;
#X connect 33 0 32 0;
#X connect 33 1 14 0;
#X connect 33 2 43 0;
#X connect 34 0 33 0;
#X connect 34 1 13 0;
#X connect 34 2 37 0;
#X connect 35 0 5 1;
#X connect 36 0 5 1;
#X connect 37 0 5 1;
#X connect 38 0 1 0;
#X connect 39 0 1 0;
#X connect 40 0 5 1;
#X connect 41 0 49 0;
#X connect 41 1 38 0;
#X connect 41 2 52 0;
#X connect 42 1 39 0;
#X connect 42 2 40 0;
#X connect 43 0 5 1;
#X connect 44 0 5 1;
#X connect 45 0 2 0;
#X connect 46 0 5 1;
#X connect 47 0 5 1;
#X connect 48 0 5 1;
#X connect 49 0 42 0;
#X connect 49 1 50 0;
#X connect 49 2 51 0;
#X connect 50 0 1 0;
#X connect 51 0 5 1;
#X connect 52 0 5 1;
#X connect 53 0 5 1;
#X connect 54 0 5 1;
#X connect 55 0 5 1;
#X connect 56 0 1 1;
#X connect 57 0 5 1;
#X connect 58 0 5 1;
#X restore 81 91 pd MN3RobeInit;
#N canvas 461 100 850 796 MN3BrasJardinInit 0;
#X obj 234 622 send OSC_MESSAGES;
#X obj 114 549 list prepend;
#X obj 71 43 bng 15 250 50 0 empty empty empty 17 7 0 10 -262144 -1
-1;
#X obj 114 572 l2s /;
#X msg 114 132 File;
#X obj 234 589 list;
#X msg 114 109 Zpos;
#X msg 114 326 RenderOrder;
#X msg 114 369 Yscale;
#X msg 114 389 Xscale;
#X msg 114 409 Ypos;
#X msg 114 429 Xpos;
#X msg 114 225 Blue;
#X msg 114 184 Red;
#X msg 114 205 Green;
#X msg 114 305 modeAlpha;
#X msg 114 348 Shape;
#X msg 114 245 Rotate;
#X msg 114 284 Alpha;
#X msg 114 264 Activate;
#X obj 71 62 t b b b;
#X obj 56 115 t b b b;
#X obj 56 309 t b b b;
#X obj 56 352 t b b b;
#X obj 56 372 t b b b;
#X obj 56 392 t b b b;
#X obj 56 412 t b b b;
#X obj 17 331 t b b b;
#X obj 16 288 t b b b;
#X obj 56 267 t b b b;
#X obj 56 247 t b b b;
#X obj 56 228 t b b b;
#X obj 56 208 t b b b;
#X obj 56 188 t b b b;
#X obj 56 167 t b b b;
#X msg 255 245 0;
#X msg 255 284 1;
#X msg 255 184 1;
#X msg 114 449 ParentName;
#X msg 114 489 g*pos;
#X msg 255 489 0;
#X obj 56 432 t b b b;
#X obj 56 472 t b b b;
#X msg 255 205 1;
#X msg 255 225 1;
#X obj 71 22 r MN3Init;
#X msg 255 264 1;
#X msg 255 109 -3.031;
#X msg 255 326 -20;
#X obj 56 452 t b b b;
#X msg 114 469 Child/*pos;
#X msg 255 469 1;
#X msg 255 449 /DunjonDoor5;
#X msg 183 79 /Prison_Barreaux;
#X msg 255 132 /home/woii/2013_Sebkha-ChottGalootFormula_ThingFish/ThingFishVideoDecorum/MammyNuns/data/MN3/mammy_nun_3_main_devant.png
;
#X msg 255 369 0.17307;
#X msg 255 389 0.31923;
#X msg 255 409 0.5;
#X msg 255 429 -0.7;
#X connect 1 0 3 0;
#X connect 2 0 20 0;
#X connect 3 0 5 0;
#X connect 4 0 1 0;
#X connect 5 0 0 0;
#X connect 6 0 1 0;
#X connect 7 0 1 0;
#X connect 8 0 1 0;
#X connect 9 0 1 0;
#X connect 10 0 1 0;
#X connect 11 0 1 0;
#X connect 12 0 1 0;
#X connect 13 0 1 0;
#X connect 14 0 1 0;
#X connect 15 0 1 0;
#X connect 17 0 1 0;
#X connect 18 0 1 0;
#X connect 19 0 1 0;
#X connect 20 0 6 0;
#X connect 20 0 21 0;
#X connect 20 1 47 0;
#X connect 20 2 53 0;
#X connect 21 0 34 0;
#X connect 21 1 4 0;
#X connect 21 2 54 0;
#X connect 22 0 23 0;
#X connect 22 1 7 0;
#X connect 22 2 48 0;
#X connect 23 0 24 0;
#X connect 23 1 8 0;
#X connect 23 2 55 0;
#X connect 24 0 25 0;
#X connect 24 1 9 0;
#X connect 24 2 56 0;
#X connect 25 0 26 0;
#X connect 25 1 10 0;
#X connect 25 2 57 0;
#X connect 26 0 41 0;
#X connect 26 1 11 0;
#X connect 26 2 58 0;
#X connect 27 1 16 0;
#X connect 28 1 15 0;
#X connect 29 0 22 0;
#X connect 29 1 18 0;
#X connect 29 2 36 0;
#X connect 30 0 29 0;
#X connect 30 1 19 0;
#X connect 30 2 46 0;
#X connect 31 0 30 0;
#X connect 31 1 17 0;
#X connect 31 2 35 0;
#X connect 32 0 31 0;
#X connect 32 1 12 0;
#X connect 32 2 44 0;
#X connect 33 0 32 0;
#X connect 33 1 14 0;
#X connect 33 2 43 0;
#X connect 34 0 33 0;
#X connect 34 1 13 0;
#X connect 34 2 37 0;
#X connect 35 0 5 1;
#X connect 36 0 5 1;
#X connect 37 0 5 1;
#X connect 38 0 1 0;
#X connect 39 0 1 0;
#X connect 40 0 5 1;
#X connect 41 0 49 0;
#X connect 41 1 38 0;
#X connect 41 2 52 0;
#X connect 42 1 39 0;
#X connect 42 2 40 0;
#X connect 43 0 5 1;
#X connect 44 0 5 1;
#X connect 45 0 2 0;
#X connect 46 0 5 1;
#X connect 47 0 5 1;
#X connect 48 0 5 1;
#X connect 49 0 42 0;
#X connect 49 1 50 0;
#X connect 49 2 51 0;
#X connect 50 0 1 0;
#X connect 51 0 5 1;
#X connect 52 0 5 1;
#X connect 53 0 1 1;
#X connect 54 0 5 1;
#X connect 55 0 5 1;
#X connect 56 0 5 1;
#X connect 57 0 5 1;
#X connect 58 0 5 1;
#X restore 81 111 pd MN3BrasJardinInit;
#N canvas 455 100 850 796 MN3BrasCourInit 0;
#X obj 234 642 send OSC_MESSAGES;
#X obj 114 569 list prepend;
#X obj 71 43 bng 15 250 50 0 empty empty empty 17 7 0 10 -262144 -1
-1;
#X obj 114 592 l2s /;
#X msg 114 132 File;
#X obj 234 609 list;
#X msg 114 109 Zpos;
#X msg 114 326 RenderOrder;
#X msg 114 369 Yscale;
#X msg 114 389 Xscale;
#X msg 114 409 Ypos;
#X msg 114 429 Xpos;
#X msg 114 225 Blue;
#X msg 114 184 Red;
#X msg 114 205 Green;
#X msg 114 305 modeAlpha;
#X msg 114 348 Shape;
#X msg 114 245 Rotate;
#X msg 114 284 Alpha;
#X msg 114 264 Activate;
#X obj 71 62 t b b b;
#X obj 56 115 t b b b;
#X obj 56 309 t b b b;
#X obj 56 352 t b b b;
#X obj 56 372 t b b b;
#X obj 56 392 t b b b;
#X obj 56 412 t b b b;
#X obj 17 331 t b b b;
#X obj 16 288 t b b b;
#X obj 56 267 t b b b;
#X obj 56 247 t b b b;
#X obj 56 228 t b b b;
#X obj 56 208 t b b b;
#X obj 56 188 t b b b;
#X obj 56 167 t b b b;
#X msg 255 245 0;
#X msg 255 284 1;
#X msg 255 184 1;
#X msg 114 449 ParentName;
#X msg 114 489 g*pos;
#X msg 255 489 0;
#X obj 56 432 t b b b;
#X obj 56 472 t b b b;
#X msg 255 205 1;
#X msg 255 225 1;
#X obj 71 22 r MN3Init;
#X msg 255 264 1;
#X msg 255 326 -20;
#X obj 56 452 t b b b;
#X msg 114 469 Child/*pos;
#X msg 255 469 1;
#X msg 255 449 /DunjonDoor5;
#X msg 255 132 /home/woii/2013_Sebkha-ChottGalootFormula_ThingFish/ThingFishVideoDecorum/MammyNuns/data/MN3/mammy_nun_3_main_derriere.png
;
#X msg 183 79 /Prison_Prisonniers;
#X msg 255 389 0.29615;
#X msg 255 369 0.23461;
#X msg 255 429 -0.5;
#X msg 255 409 0.3;
#X msg 255 109 -3.0311;
#X connect 1 0 3 0;
#X connect 2 0 20 0;
#X connect 3 0 5 0;
#X connect 4 0 1 0;
#X connect 5 0 0 0;
#X connect 6 0 1 0;
#X connect 7 0 1 0;
#X connect 8 0 1 0;
#X connect 9 0 1 0;
#X connect 10 0 1 0;
#X connect 11 0 1 0;
#X connect 12 0 1 0;
#X connect 13 0 1 0;
#X connect 14 0 1 0;
#X connect 15 0 1 0;
#X connect 17 0 1 0;
#X connect 18 0 1 0;
#X connect 19 0 1 0;
#X connect 20 0 6 0;
#X connect 20 0 21 0;
#X connect 20 1 58 0;
#X connect 20 2 53 0;
#X connect 21 0 34 0;
#X connect 21 1 4 0;
#X connect 21 2 52 0;
#X connect 22 0 23 0;
#X connect 22 1 7 0;
#X connect 22 2 47 0;
#X connect 23 0 24 0;
#X connect 23 1 8 0;
#X connect 23 2 55 0;
#X connect 24 0 25 0;
#X connect 24 1 9 0;
#X connect 24 2 54 0;
#X connect 25 0 26 0;
#X connect 25 1 10 0;
#X connect 25 2 57 0;
#X connect 26 0 41 0;
#X connect 26 1 11 0;
#X connect 26 2 56 0;
#X connect 27 1 16 0;
#X connect 28 1 15 0;
#X connect 29 0 22 0;
#X connect 29 1 18 0;
#X connect 29 2 36 0;
#X connect 30 0 29 0;
#X connect 30 1 19 0;
#X connect 30 2 46 0;
#X connect 31 0 30 0;
#X connect 31 1 17 0;
#X connect 31 2 35 0;
#X connect 32 0 31 0;
#X connect 32 1 12 0;
#X connect 32 2 44 0;
#X connect 33 0 32 0;
#X connect 33 1 14 0;
#X connect 33 2 43 0;
#X connect 34 0 33 0;
#X connect 34 1 13 0;
#X connect 34 2 37 0;
#X connect 35 0 5 1;
#X connect 36 0 5 1;
#X connect 37 0 5 1;
#X connect 38 0 1 0;
#X connect 39 0 1 0;
#X connect 40 0 5 1;
#X connect 41 0 48 0;
#X connect 41 1 38 0;
#X connect 41 2 51 0;
#X connect 42 1 39 0;
#X connect 42 2 40 0;
#X connect 43 0 5 1;
#X connect 44 0 5 1;
#X connect 45 0 2 0;
#X connect 46 0 5 1;
#X connect 47 0 5 1;
#X connect 48 0 42 0;
#X connect 48 1 49 0;
#X connect 48 2 50 0;
#X connect 49 0 1 0;
#X connect 50 0 5 1;
#X connect 51 0 5 1;
#X connect 52 0 5 1;
#X connect 53 0 1 1;
#X connect 54 0 5 1;
#X connect 55 0 5 1;
#X connect 56 0 5 1;
#X connect 57 0 5 1;
#X connect 58 0 5 1;
#X restore 81 131 pd MN3BrasCourInit;
#N canvas 465 100 850 796 MN3PiedJardinInit 0;
#X obj 234 602 send OSC_MESSAGES;
#X obj 114 529 list prepend;
#X obj 71 43 bng 15 250 50 0 empty empty empty 17 7 0 10 -262144 -1
-1;
#X obj 114 552 l2s /;
#X msg 114 132 File;
#X obj 234 569 list;
#X msg 114 109 Zpos;
#X msg 114 326 RenderOrder;
#X msg 114 369 Yscale;
#X msg 114 389 Xscale;
#X msg 114 409 Ypos;
#X msg 114 429 Xpos;
#X msg 114 225 Blue;
#X msg 114 184 Red;
#X msg 114 205 Green;
#X msg 114 305 modeAlpha;
#X msg 114 348 Shape;
#X msg 114 245 Rotate;
#X msg 114 284 Alpha;
#X msg 114 264 Activate;
#X obj 71 62 t b b b;
#X obj 56 115 t b b b;
#X obj 56 309 t b b b;
#X obj 56 352 t b b b;
#X obj 56 372 t b b b;
#X obj 56 392 t b b b;
#X obj 56 412 t b b b;
#X obj 17 331 t b b b;
#X obj 16 288 t b b b;
#X obj 56 267 t b b b;
#X obj 56 247 t b b b;
#X obj 56 228 t b b b;
#X obj 56 208 t b b b;
#X obj 56 188 t b b b;
#X obj 56 167 t b b b;
#X msg 255 245 0;
#X msg 255 284 1;
#X msg 255 184 1;
#X msg 114 449 ParentName;
#X msg 114 489 g*pos;
#X msg 255 489 0;
#X obj 56 432 t b b b;
#X obj 56 472 t b b b;
#X msg 255 205 1;
#X msg 255 225 1;
#X obj 71 22 r MN3Init;
#X msg 255 264 1;
#X msg 255 326 -22;
#X obj 56 452 t b b b;
#X msg 114 469 Child/*pos;
#X msg 255 469 1;
#X msg 255 449 /DunjonDoor5;
#X msg 183 79 /EvilPrince_Tete;
#X msg 255 132 /home/woii/2013_Sebkha-ChottGalootFormula_ThingFish/ThingFishVideoDecorum/MammyNuns/data/MN3/mammy_nun_3_pied_derriere.png
;
#X msg 255 369 0.31923;
#X msg 255 389 0.24615;
#X msg 255 409 -1.1;
#X msg 255 429 0;
#X msg 255 109 -3.03111;
#X connect 1 0 3 0;
#X connect 2 0 20 0;
#X connect 3 0 5 0;
#X connect 4 0 1 0;
#X connect 5 0 0 0;
#X connect 6 0 1 0;
#X connect 7 0 1 0;
#X connect 8 0 1 0;
#X connect 9 0 1 0;
#X connect 10 0 1 0;
#X connect 11 0 1 0;
#X connect 12 0 1 0;
#X connect 13 0 1 0;
#X connect 14 0 1 0;
#X connect 15 0 1 0;
#X connect 17 0 1 0;
#X connect 18 0 1 0;
#X connect 19 0 1 0;
#X connect 20 0 6 0;
#X connect 20 0 21 0;
#X connect 20 1 58 0;
#X connect 20 2 52 0;
#X connect 21 0 34 0;
#X connect 21 1 4 0;
#X connect 21 2 53 0;
#X connect 22 0 23 0;
#X connect 22 1 7 0;
#X connect 22 2 47 0;
#X connect 23 0 24 0;
#X connect 23 1 8 0;
#X connect 23 2 54 0;
#X connect 24 0 25 0;
#X connect 24 1 9 0;
#X connect 24 2 55 0;
#X connect 25 0 26 0;
#X connect 25 1 10 0;
#X connect 25 2 56 0;
#X connect 26 0 41 0;
#X connect 26 1 11 0;
#X connect 26 2 57 0;
#X connect 27 1 16 0;
#X connect 28 1 15 0;
#X connect 29 0 22 0;
#X connect 29 1 18 0;
#X connect 29 2 36 0;
#X connect 30 0 29 0;
#X connect 30 1 19 0;
#X connect 30 2 46 0;
#X connect 31 0 30 0;
#X connect 31 1 17 0;
#X connect 31 2 35 0;
#X connect 32 0 31 0;
#X connect 32 1 12 0;
#X connect 32 2 44 0;
#X connect 33 0 32 0;
#X connect 33 1 14 0;
#X connect 33 2 43 0;
#X connect 34 0 33 0;
#X connect 34 1 13 0;
#X connect 34 2 37 0;
#X connect 35 0 5 1;
#X connect 36 0 5 1;
#X connect 37 0 5 1;
#X connect 38 0 1 0;
#X connect 39 0 1 0;
#X connect 40 0 5 1;
#X connect 41 0 48 0;
#X connect 41 1 38 0;
#X connect 41 2 51 0;
#X connect 42 1 39 0;
#X connect 42 2 40 0;
#X connect 43 0 5 1;
#X connect 44 0 5 1;
#X connect 45 0 2 0;
#X connect 46 0 5 1;
#X connect 47 0 5 1;
#X connect 48 0 42 0;
#X connect 48 1 49 0;
#X connect 48 2 50 0;
#X connect 49 0 1 0;
#X connect 50 0 5 1;
#X connect 51 0 5 1;
#X connect 52 0 1 1;
#X connect 53 0 5 1;
#X connect 54 0 5 1;
#X connect 55 0 5 1;
#X connect 56 0 5 1;
#X connect 57 0 5 1;
#X connect 58 0 5 1;
#X restore 81 151 pd MN3PiedJardinInit;
#N canvas 469 100 850 796 MN3PiedCourInit 0;
#X obj 234 612 send OSC_MESSAGES;
#X obj 114 539 list prepend;
#X obj 71 43 bng 15 250 50 0 empty empty empty 17 7 0 10 -262144 -1
-1;
#X obj 114 562 l2s /;
#X msg 114 132 File;
#X obj 234 579 list;
#X msg 114 109 Zpos;
#X msg 114 326 RenderOrder;
#X msg 114 369 Yscale;
#X msg 114 389 Xscale;
#X msg 114 409 Ypos;
#X msg 114 429 Xpos;
#X msg 114 225 Blue;
#X msg 114 184 Red;
#X msg 114 205 Green;
#X msg 114 305 modeAlpha;
#X msg 114 348 Shape;
#X msg 114 245 Rotate;
#X msg 114 284 Alpha;
#X msg 114 264 Activate;
#X obj 71 62 t b b b;
#X obj 56 115 t b b b;
#X obj 56 309 t b b b;
#X obj 56 352 t b b b;
#X obj 56 372 t b b b;
#X obj 56 392 t b b b;
#X obj 56 412 t b b b;
#X obj 17 331 t b b b;
#X obj 16 288 t b b b;
#X obj 56 267 t b b b;
#X obj 56 247 t b b b;
#X obj 56 228 t b b b;
#X obj 56 208 t b b b;
#X obj 56 188 t b b b;
#X obj 56 167 t b b b;
#X msg 255 245 0;
#X msg 255 284 1;
#X msg 255 184 1;
#X msg 114 449 ParentName;
#X msg 114 489 g*pos;
#X msg 255 489 0;
#X obj 56 432 t b b b;
#X obj 56 472 t b b b;
#X msg 255 205 1;
#X msg 255 225 1;
#X obj 71 22 r MN3Init;
#X msg 255 264 1;
#X msg 255 109 -3.0311;
#X msg 255 326 -22;
#X obj 56 452 t b b b;
#X msg 114 469 Child/*pos;
#X msg 255 469 1;
#X msg 255 449 /DunjonDoor5;
#X msg 183 79 /EvilPrince_Corps;
#X msg 255 132 /home/woii/2013_Sebkha-ChottGalootFormula_ThingFish/ThingFishVideoDecorum/MammyNuns/data/MN3/mammy_nun_3_pied_devant.png
;
#X msg 255 389 0.25;
#X msg 255 369 0.25769;
#X msg 255 429 0.2;
#X msg 255 409 -1.2;
#X connect 1 0 3 0;
#X connect 2 0 20 0;
#X connect 3 0 5 0;
#X connect 4 0 1 0;
#X connect 5 0 0 0;
#X connect 6 0 1 0;
#X connect 7 0 1 0;
#X connect 8 0 1 0;
#X connect 9 0 1 0;
#X connect 10 0 1 0;
#X connect 11 0 1 0;
#X connect 12 0 1 0;
#X connect 13 0 1 0;
#X connect 14 0 1 0;
#X connect 15 0 1 0;
#X connect 17 0 1 0;
#X connect 18 0 1 0;
#X connect 19 0 1 0;
#X connect 20 0 6 0;
#X connect 20 0 21 0;
#X connect 20 1 47 0;
#X connect 20 2 53 0;
#X connect 21 0 34 0;
#X connect 21 1 4 0;
#X connect 21 2 54 0;
#X connect 22 0 23 0;
#X connect 22 1 7 0;
#X connect 22 2 48 0;
#X connect 23 0 24 0;
#X connect 23 1 8 0;
#X connect 23 2 56 0;
#X connect 24 0 25 0;
#X connect 24 1 9 0;
#X connect 24 2 55 0;
#X connect 25 0 26 0;
#X connect 25 1 10 0;
#X connect 25 2 58 0;
#X connect 26 0 41 0;
#X connect 26 1 11 0;
#X connect 26 2 57 0;
#X connect 27 1 16 0;
#X connect 28 1 15 0;
#X connect 29 0 22 0;
#X connect 29 1 18 0;
#X connect 29 2 36 0;
#X connect 30 0 29 0;
#X connect 30 1 19 0;
#X connect 30 2 46 0;
#X connect 31 0 30 0;
#X connect 31 1 17 0;
#X connect 31 2 35 0;
#X connect 32 0 31 0;
#X connect 32 1 12 0;
#X connect 32 2 44 0;
#X connect 33 0 32 0;
#X connect 33 1 14 0;
#X connect 33 2 43 0;
#X connect 34 0 33 0;
#X connect 34 1 13 0;
#X connect 34 2 37 0;
#X connect 35 0 5 1;
#X connect 36 0 5 1;
#X connect 37 0 5 1;
#X connect 38 0 1 0;
#X connect 39 0 1 0;
#X connect 40 0 5 1;
#X connect 41 0 49 0;
#X connect 41 1 38 0;
#X connect 41 2 52 0;
#X connect 42 1 39 0;
#X connect 42 2 40 0;
#X connect 43 0 5 1;
#X connect 44 0 5 1;
#X connect 45 0 2 0;
#X connect 46 0 5 1;
#X connect 47 0 5 1;
#X connect 48 0 5 1;
#X connect 49 0 42 0;
#X connect 49 1 50 0;
#X connect 49 2 51 0;
#X connect 50 0 1 0;
#X connect 51 0 5 1;
#X connect 52 0 5 1;
#X connect 53 0 1 1;
#X connect 54 0 5 1;
#X connect 55 0 5 1;
#X connect 56 0 5 1;
#X connect 57 0 5 1;
#X connect 58 0 5 1;
#X restore 81 171 pd MN3PiedCourInit;
#N canvas 467 100 850 796 MN3UrineInit 0;
#X obj 234 612 send OSC_MESSAGES;
#X obj 114 539 list prepend;
#X obj 71 43 bng 15 250 50 0 empty empty empty 17 7 0 10 -262144 -1
-1;
#X obj 114 562 l2s /;
#X msg 114 132 File;
#X obj 234 579 list;
#X msg 114 109 Zpos;
#X msg 114 326 RenderOrder;
#X msg 114 369 Yscale;
#X msg 114 389 Xscale;
#X msg 114 409 Ypos;
#X msg 114 429 Xpos;
#X msg 114 225 Blue;
#X msg 114 184 Red;
#X msg 114 205 Green;
#X msg 114 305 modeAlpha;
#X msg 114 348 Shape;
#X msg 114 245 Rotate;
#X msg 114 284 Alpha;
#X msg 114 264 Activate;
#X obj 71 62 t b b b;
#X obj 56 115 t b b b;
#X obj 56 309 t b b b;
#X obj 56 352 t b b b;
#X obj 56 372 t b b b;
#X obj 56 392 t b b b;
#X obj 56 412 t b b b;
#X obj 17 331 t b b b;
#X obj 16 288 t b b b;
#X obj 56 267 t b b b;
#X obj 56 247 t b b b;
#X obj 56 228 t b b b;
#X obj 56 208 t b b b;
#X obj 56 188 t b b b;
#X obj 56 167 t b b b;
#X msg 255 284 1;
#X msg 255 184 1;
#X msg 114 449 ParentName;
#X msg 114 489 g*pos;
#X msg 255 489 0;
#X obj 56 432 t b b b;
#X obj 56 472 t b b b;
#X msg 255 205 1;
#X msg 255 225 1;
#X obj 71 22 r MN3Init;
#X obj 56 452 t b b b;
#X msg 114 469 Child/*pos;
#X msg 255 469 1;
#X msg 255 449 /DunjonDoor5;
#X msg 255 109 -3.0305;
#X msg 255 132 /home/woii/2013_Sebkha-ChottGalootFormula_ThingFish/ThingFishVideoDecorum/MammyNuns/data/MN3/mammy_nun_3_pisse.png
;
#X msg 255 326 -21;
#X msg 255 245 0;
#X msg 183 79 /EvilPrince_BrasCour;
#X msg 255 389 0.57307;
#X msg 255 409 -0.8;
#X msg 255 429 -1.1;
#X msg 255 369 0.50076;
#X msg 255 264 0;
#X connect 1 0 3 0;
#X connect 2 0 20 0;
#X connect 3 0 5 0;
#X connect 4 0 1 0;
#X connect 5 0 0 0;
#X connect 6 0 1 0;
#X connect 7 0 1 0;
#X connect 8 0 1 0;
#X connect 9 0 1 0;
#X connect 10 0 1 0;
#X connect 11 0 1 0;
#X connect 12 0 1 0;
#X connect 13 0 1 0;
#X connect 14 0 1 0;
#X connect 15 0 1 0;
#X connect 17 0 1 0;
#X connect 18 0 1 0;
#X connect 19 0 1 0;
#X connect 20 0 6 0;
#X connect 20 0 21 0;
#X connect 20 1 49 0;
#X connect 20 2 53 0;
#X connect 21 0 34 0;
#X connect 21 1 4 0;
#X connect 21 2 50 0;
#X connect 22 0 23 0;
#X connect 22 1 7 0;
#X connect 22 2 51 0;
#X connect 23 0 24 0;
#X connect 23 1 8 0;
#X connect 23 2 57 0;
#X connect 24 0 25 0;
#X connect 24 1 9 0;
#X connect 24 2 54 0;
#X connect 25 0 26 0;
#X connect 25 1 10 0;
#X connect 25 2 55 0;
#X connect 26 0 40 0;
#X connect 26 1 11 0;
#X connect 26 2 56 0;
#X connect 27 1 16 0;
#X connect 28 1 15 0;
#X connect 29 0 22 0;
#X connect 29 1 18 0;
#X connect 29 2 35 0;
#X connect 30 0 29 0;
#X connect 30 1 19 0;
#X connect 30 2 58 0;
#X connect 31 0 30 0;
#X connect 31 1 17 0;
#X connect 31 2 52 0;
#X connect 32 0 31 0;
#X connect 32 1 12 0;
#X connect 32 2 43 0;
#X connect 33 0 32 0;
#X connect 33 1 14 0;
#X connect 33 2 42 0;
#X connect 34 0 33 0;
#X connect 34 1 13 0;
#X connect 34 2 36 0;
#X connect 35 0 5 1;
#X connect 36 0 5 1;
#X connect 37 0 1 0;
#X connect 38 0 1 0;
#X connect 39 0 5 1;
#X connect 40 0 45 0;
#X connect 40 1 37 0;
#X connect 40 2 48 0;
#X connect 41 1 38 0;
#X connect 41 2 39 0;
#X connect 42 0 5 1;
#X connect 43 0 5 1;
#X connect 44 0 2 0;
#X connect 45 0 41 0;
#X connect 45 1 46 0;
#X connect 45 2 47 0;
#X connect 46 0 1 0;
#X connect 47 0 5 1;
#X connect 48 0 5 1;
#X connect 49 0 5 1;
#X connect 50 0 5 1;
#X connect 51 0 5 1;
#X connect 52 0 5 1;
#X connect 53 0 1 1;
#X connect 54 0 5 1;
#X connect 55 0 5 1;
#X connect 56 0 5 1;
#X connect 57 0 5 1;
#X connect 58 0 5 1;
#X restore 81 191 pd MN3UrineInit;
#X obj 116 338 s MN3EarlyInit;
#X obj 89 368 s MN3Init;
#X msg 363 328 /DunjonDoor5/Xpos \$1;
#X connect 0 0 1 0;
#X connect 1 0 14 0;
#X connect 1 1 13 0;
#X connect 2 0 15 0;
#X connect 4 0 2 0;
#X connect 15 0 3 0;
