#N canvas 0 100 1440 800 10;
#X obj 89 296 bng 15 250 50 0 empty empty empty 17 7 0 10 -262144 -1
-1;
#X obj 89 316 t b b;
#X obj 366 283 hsl 128 15 -8 8 0 0 empty empty empty -2 -8 0 10 -262144
-1 -1 10900 1;
#X obj 363 369 s OSC_MESSAGES;
#X msg 363 253 0;
#N canvas 465 100 850 796 MN3TeteInit 0;
#X obj 234 622 send OSC_MESSAGES;
#X obj 114 549 list prepend;
#X obj 71 43 bng 15 250 50 0 empty empty empty 17 7 0 10 -262144 -1
-1;
#X obj 114 572 l2s /;
#X msg 114 132 File;
#X obj 234 589 list;
#X msg 114 109 Zpos;
#X msg 114 326 RenderOrder;
#X msg 114 369 Yscale;
#X msg 114 389 Xscale;
#X msg 114 409 Ypos;
#X msg 114 429 Xpos;
#X msg 114 225 Blue;
#X msg 114 184 Red;
#X msg 114 205 Green;
#X msg 114 305 modeAlpha;
#X msg 114 348 Shape;
#X msg 114 245 Rotate;
#X msg 114 284 Alpha;
#X msg 114 264 Activate;
#X obj 71 62 t b b b;
#X obj 56 115 t b b b;
#X obj 56 309 t b b b;
#X obj 56 352 t b b b;
#X obj 56 372 t b b b;
#X obj 56 392 t b b b;
#X obj 56 412 t b b b;
#X obj 17 331 t b b b;
#X obj 16 288 t b b b;
#X obj 56 267 t b b b;
#X obj 56 247 t b b b;
#X obj 56 228 t b b b;
#X obj 56 208 t b b b;
#X obj 56 188 t b b b;
#X obj 56 167 t b b b;
#X msg 255 245 0;
#X msg 255 284 1;
#X msg 255 184 1;
#X msg 114 449 ParentName;
#X obj 56 432 t b b b;
#X obj 56 452 t b b b;
#X msg 255 205 1;
#X msg 255 225 1;
#X msg 255 132 /home/woii/2013_Sebkha-ChottGalootFormula_ThingFish/ThingFishVideoDecorum/MammyNuns/data/MN3/mammy_nun_3_tete.png
;
#X msg 255 109 -3.031;
#X msg 255 326 -20;
#X msg 255 264 1;
#X msg 255 369 1;
#X msg 255 389 1;
#X msg 255 409 1;
#X msg 114 489 g*pos;
#X msg 255 489 0;
#X obj 56 472 t b b b;
#X msg 114 469 Child/*pos;
#X msg 255 469 1;
#X msg 183 79 /DunjonDoor4Cadre;
#X obj 71 22 r MN3Init;
#X msg 255 449 /DunjonDoor5;
#X msg 255 429 0.1;
#X connect 1 0 3 0;
#X connect 2 0 20 0;
#X connect 3 0 5 0;
#X connect 4 0 1 0;
#X connect 5 0 0 0;
#X connect 6 0 1 0;
#X connect 7 0 1 0;
#X connect 8 0 1 0;
#X connect 9 0 1 0;
#X connect 10 0 1 0;
#X connect 11 0 1 0;
#X connect 12 0 1 0;
#X connect 13 0 1 0;
#X connect 14 0 1 0;
#X connect 15 0 1 0;
#X connect 17 0 1 0;
#X connect 18 0 1 0;
#X connect 19 0 1 0;
#X connect 20 0 6 0;
#X connect 20 0 21 0;
#X connect 20 1 44 0;
#X connect 20 2 55 0;
#X connect 21 0 34 0;
#X connect 21 1 4 0;
#X connect 21 2 43 0;
#X connect 22 0 23 0;
#X connect 22 1 7 0;
#X connect 22 2 45 0;
#X connect 23 0 24 0;
#X connect 23 1 8 0;
#X connect 23 2 47 0;
#X connect 24 0 25 0;
#X connect 24 1 9 0;
#X connect 24 2 48 0;
#X connect 25 0 26 0;
#X connect 25 1 10 0;
#X connect 25 2 49 0;
#X connect 26 0 39 0;
#X connect 26 1 11 0;
#X connect 26 2 58 0;
#X connect 27 1 16 0;
#X connect 28 1 15 0;
#X connect 29 0 22 0;
#X connect 29 1 18 0;
#X connect 29 2 36 0;
#X connect 30 0 29 0;
#X connect 30 1 19 0;
#X connect 30 2 46 0;
#X connect 31 0 30 0;
#X connect 31 1 17 0;
#X connect 31 2 35 0;
#X connect 32 0 31 0;
#X connect 32 1 12 0;
#X connect 32 2 42 0;
#X connect 33 0 32 0;
#X connect 33 1 14 0;
#X connect 33 2 41 0;
#X connect 34 0 33 0;
#X connect 34 1 13 0;
#X connect 34 2 37 0;
#X connect 35 0 5 1;
#X connect 36 0 5 1;
#X connect 37 0 5 1;
#X connect 38 0 1 0;
#X connect 39 0 40 0;
#X connect 39 1 38 0;
#X connect 39 2 57 0;
#X connect 40 0 52 0;
#X connect 40 1 53 0;
#X connect 40 2 54 0;
#X connect 41 0 5 1;
#X connect 42 0 5 1;
#X connect 43 0 5 1;
#X connect 44 0 5 1;
#X connect 45 0 5 1;
#X connect 46 0 5 1;
#X connect 47 0 5 1;
#X connect 48 0 5 1;
#X connect 49 0 5 1;
#X connect 50 0 1 0;
#X connect 51 0 5 1;
#X connect 52 1 50 0;
#X connect 52 2 51 0;
#X connect 53 0 1 0;
#X connect 54 0 5 1;
#X connect 55 0 1 1;
#X connect 56 0 2 0;
#X connect 57 0 5 1;
#X connect 58 0 5 1;
#X restore 81 51 pd MN3TeteInit;
#N canvas 461 100 850 796 MN3CorpsInit 0;
#X obj 234 622 send OSC_MESSAGES;
#X obj 114 549 list prepend;
#X obj 71 43 bng 15 250 50 0 empty empty empty 17 7 0 10 -262144 -1
-1;
#X obj 114 572 l2s /;
#X msg 114 132 File;
#X obj 234 589 list;
#X msg 114 109 Zpos;
#X msg 114 326 RenderOrder;
#X msg 114 369 Yscale;
#X msg 114 389 Xscale;
#X msg 114 409 Ypos;
#X msg 114 429 Xpos;
#X msg 114 225 Blue;
#X msg 114 184 Red;
#X msg 114 205 Green;
#X msg 114 305 modeAlpha;
#X msg 114 348 Shape;
#X msg 114 245 Rotate;
#X msg 114 284 Alpha;
#X msg 114 264 Activate;
#X obj 71 62 t b b b;
#X obj 56 115 t b b b;
#X obj 56 309 t b b b;
#X obj 56 352 t b b b;
#X obj 56 372 t b b b;
#X obj 56 392 t b b b;
#X obj 56 412 t b b b;
#X obj 17 331 t b b b;
#X obj 16 288 t b b b;
#X obj 56 267 t b b b;
#X obj 56 247 t b b b;
#X obj 56 228 t b b b;
#X obj 56 208 t b b b;
#X obj 56 188 t b b b;
#X obj 56 167 t b b b;
#X msg 255 245 0;
#X msg 255 284 1;
#X msg 255 184 1;
#X msg 114 449 ParentName;
#X msg 114 469 g*pos;
#X msg 255 469 0;
#X obj 56 432 t b b b;
#X obj 56 452 t b b b;
#X msg 255 205 1;
#X msg 255 225 1;
#X msg 255 429 0;
#X msg 255 264 1;
#X msg 255 409 0;
#X msg 183 79 /DunjonDoor5;
#X msg 255 109 -3.0311;
#X msg 255 326 -21;
#X obj 56 472 t b b b;
#X msg 114 489 Child/*pos;
#X msg 255 449 /Dummy;
#X msg 255 489 0;
#X obj 71 22 r MN3EarlyInit;
#X msg 255 132 /home/woii/2013_Sebkha-ChottGalootFormula_ThingFish/ThingFishVideoDecorum/MammyNuns/data/MN3/mammy_nun_3_corps.png
;
#X msg 255 389 0.5876;
#X msg 255 369 1.08461;
#X connect 1 0 3 0;
#X connect 2 0 20 0;
#X connect 3 0 5 0;
#X connect 4 0 1 0;
#X connect 5 0 0 0;
#X connect 6 0 1 0;
#X connect 7 0 1 0;
#X connect 8 0 1 0;
#X connect 9 0 1 0;
#X connect 10 0 1 0;
#X connect 11 0 1 0;
#X connect 12 0 1 0;
#X connect 13 0 1 0;
#X connect 14 0 1 0;
#X connect 15 0 1 0;
#X connect 17 0 1 0;
#X connect 18 0 1 0;
#X connect 19 0 1 0;
#X connect 20 0 6 0;
#X connect 20 0 21 0;
#X connect 20 1 49 0;
#X connect 20 2 48 0;
#X connect 21 0 34 0;
#X connect 21 1 4 0;
#X connect 21 2 56 0;
#X connect 22 0 23 0;
#X connect 22 1 7 0;
#X connect 22 2 50 0;
#X connect 23 0 24 0;
#X connect 23 1 8 0;
#X connect 23 2 58 0;
#X connect 24 0 25 0;
#X connect 24 1 9 0;
#X connect 24 2 57 0;
#X connect 25 0 26 0;
#X connect 25 1 10 0;
#X connect 25 2 47 0;
#X connect 26 0 41 0;
#X connect 26 1 11 0;
#X connect 26 2 45 0;
#X connect 27 1 16 0;
#X connect 28 1 15 0;
#X connect 29 0 22 0;
#X connect 29 1 18 0;
#X connect 29 2 36 0;
#X connect 30 0 29 0;
#X connect 30 1 19 0;
#X connect 30 2 46 0;
#X connect 31 0 30 0;
#X connect 31 1 17 0;
#X connect 31 2 35 0;
#X connect 32 0 31 0;
#X connect 32 1 12 0;
#X connect 32 2 44 0;
#X connect 33 0 32 0;
#X connect 33 1 14 0;
#X connect 33 2 43 0;
#X connect 34 0 33 0;
#X connect 34 1 13 0;
#X connect 34 2 37 0;
#X connect 35 0 5 1;
#X connect 36 0 5 1;
#X connect 37 0 5 1;
#X connect 38 0 1 0;
#X connect 39 0 1 0;
#X connect 40 0 5 1;
#X connect 41 0 42 0;
#X connect 41 1 38 0;
#X connect 41 2 53 0;
#X connect 42 0 51 0;
#X connect 42 1 39 0;
#X connect 42 2 40 0;
#X connect 43 0 5 1;
#X connect 44 0 5 1;
#X connect 45 0 5 1;
#X connect 46 0 5 1;
#X connect 47 0 5 1;
#X connect 48 0 1 1;
#X connect 49 0 5 1;
#X connect 50 0 5 1;
#X connect 51 1 52 0;
#X connect 51 2 54 0;
#X connect 52 0 1 0;
#X connect 53 0 5 1;
#X connect 54 0 5 1;
#X connect 55 0 2 0;
#X connect 56 0 5 1;
#X connect 57 0 5 1;
#X connect 58 0 5 1;
#X restore 81 71 pd MN3CorpsInit;
#N canvas 453 100 850 796 MN3RobeInit 0;
#X obj 234 622 send OSC_MESSAGES;
#X obj 114 549 list prepend;
#X obj 71 43 bng 15 250 50 0 empty empty empty 17 7 0 10 -262144 -1
-1;
#X obj 114 572 l2s /;
#X msg 114 132 File;
#X obj 234 589 list;
#X msg 114 109 Zpos;
#X msg 114 326 RenderOrder;
#X msg 114 369 Yscale;
#X msg 114 389 Xscale;
#X msg 114 409 Ypos;
#X msg 114 429 Xpos;
#X msg 114 225 Blue;
#X msg 114 184 Red;
#X msg 114 205 Green;
#X msg 114 305 modeAlpha;
#X msg 114 348 Shape;
#X msg 114 245 Rotate;
#X msg 114 284 Alpha;
#X msg 114 264 Activate;
#X obj 71 62 t b b b;
#X obj 56 115 t b b b;
#X obj 56 309 t b b b;
#X obj 56 352 t b b b;
#X obj 56 372 t b b b;
#X obj 56 392 t b b b;
#X obj 56 412 t b b b;
#X obj 17 331 t b b b;
#X obj 16 288 t b b b;
#X obj 56 267 t b b b;
#X obj 56 247 t b b b;
#X obj 56 228 t b b b;
#X obj 56 208 t b b b;
#X obj 56 188 t b b b;
#X obj 56 167 t b b b;
#X msg 255 245 0;
#X msg 255 284 1;
#X msg 255 184 1;
#X msg 114 449 ParentName;
#X msg 114 489 g*pos;
#X msg 255 489 0;
#X obj 56 432 t b b b;
#X obj 56 472 t b b b;
#X msg 255 205 1;
#X msg 255 225 1;
#X obj 71 22 r MN3Init;
#X msg 255 132 /home/woii/2013_Sebkha-ChottGalootFormula_ThingFish/ThingFishVideoDecorum/MammyNuns/data/MN3/mammy_nun_3_robe.png
;
#X msg 255 109 -3.03;
#X msg 255 326 -19;
#X obj 56 452 t b b b;
#X msg 114 469 Child/*pos;
#X msg 255 469 1;
#X msg 255 449 /DunjonDoor5;
#X msg 255 264 1;
#X msg 255 389 0.8;
#X msg 255 369 0.69615;
#X msg 183 79 /DunjonDoor5Cadre;
#X msg 255 429 0;
#X msg 255 409 -0.4;
#X connect 1 0 3 0;
#X connect 2 0 20 0;
#X connect 3 0 5 0;
#X connect 4 0 1 0;
#X connect 5 0 0 0;
#X connect 6 0 1 0;
#X connect 7 0 1 0;
#X connect 8 0 1 0;
#X connect 9 0 1 0;
#X connect 10 0 1 0;
#X connect 11 0 1 0;
#X connect 12 0 1 0;
#X connect 13 0 1 0;
#X connect 14 0 1 0;
#X connect 15 0 1 0;
#X connect 17 0 1 0;
#X connect 18 0 1 0;
#X connect 19 0 1 0;
#X connect 20 0 6 0;
#X connect 20 0 21 0;
#X connect 20 1 47 0;
#X connect 20 2 56 0;
#X connect 21 0 34 0;
#X connect 21 1 4 0;
#X connect 21 2 46 0;
#X connect 22 0 23 0;
#X connect 22 1 7 0;
#X connect 22 2 48 0;
#X connect 23 0 24 0;
#X connect 23 1 8 0;
#X connect 23 2 55 0;
#X connect 24 0 25 0;
#X connect 24 1 9 0;
#X connect 24 2 54 0;
#X connect 25 0 26 0;
#X connect 25 1 10 0;
#X connect 25 2 58 0;
#X connect 26 0 41 0;
#X connect 26 1 11 0;
#X connect 26 2 57 0;
#X connect 27 1 16 0;
#X connect 28 1 15 0;
#X connect 29 0 22 0;
#X connect 29 1 18 0;
#X connect 29 2 36 0;
#X connect 30 0 29 0;
#X connect 30 1 19 0;
#X connect 30 2 53 0;
#X connect 31 0 30 0;
#X connect 31 1 17 0;
#X connect 31 2 35 0;
#X connect 32 0 31 0;
#X connect 32 1 12 0;
#X connect 32 2 44 0;
#X connect 33 0 32 0;
#X connect 33 1 14 0;
#X connect 33 2 43 0;
#X connect 34 0 33 0;
#X connect 34 1 13 0;
#X connect 34 2 37 0;
#X connect 35 0 5 1;
#X connect 36 0 5 1;
#X connect 37 0 5 1;
#X connect 38 0 1 0;
#X connect 39 0 1 0;
#X connect 40 0 5 1;
#X connect 41 0 49 0;
#X connect 41 1 38 0;
#X connect 41 2 52 0;
#X connect 42 1 39 0;
#X connect 42 2 40 0;
#X connect 43 0 5 1;
#X connect 44 0 5 1;
#X connect 45 0 2 0;
#X connect 46 0 5 1;
#X connect 47 0 5 1;
#X connect 48 0 5 1;
#X connect 49 0 42 0;
#X connect 49 1 50 0;
#X connect 49 2 51 0;
#X connect 50 0 1 0;
#X connect 51 0 5 1;
#X connect 52 0 5 1;
#X connect 53 0 5 1;
#X connect 54 0 5 1;
#X connect 55 0 5 1;
#X connect 56 0 1 1;
#X connect 57 0 5 1;
#X connect 58 0 5 1;
#X restore 81 91 pd MN3RobeInit;
#N canvas 459 100 850 796 MN3BrasJardinInit 0;
#X obj 234 622 send OSC_MESSAGES;
#X obj 114 549 list prepend;
#X obj 71 43 bng 15 250 50 0 empty empty empty 17 7 0 10 -262144 -1
-1;
#X obj 114 572 l2s /;
#X msg 114 132 File;
#X obj 234 589 list;
#X msg 114 109 Zpos;
#X msg 114 326 RenderOrder;
#X msg 114 369 Yscale;
#X msg 114 389 Xscale;
#X msg 114 409 Ypos;
#X msg 114 429 Xpos;
#X msg 114 225 Blue;
#X msg 114 184 Red;
#X msg 114 205 Green;
#X msg 114 305 modeAlpha;
#X msg 114 348 Shape;
#X msg 114 245 Rotate;
#X msg 114 284 Alpha;
#X msg 114 264 Activate;
#X obj 71 62 t b b b;
#X obj 56 115 t b b b;
#X obj 56 309 t b b b;
#X obj 56 352 t b b b;
#X obj 56 372 t b b b;
#X obj 56 392 t b b b;
#X obj 56 412 t b b b;
#X obj 17 331 t b b b;
#X obj 16 288 t b b b;
#X obj 56 267 t b b b;
#X obj 56 247 t b b b;
#X obj 56 228 t b b b;
#X obj 56 208 t b b b;
#X obj 56 188 t b b b;
#X obj 56 167 t b b b;
#X msg 255 245 0;
#X msg 255 284 1;
#X msg 255 184 1;
#X msg 114 449 ParentName;
#X msg 114 489 g*pos;
#X msg 255 489 0;
#X obj 56 432 t b b b;
#X obj 56 472 t b b b;
#X msg 255 205 1;
#X msg 255 225 1;
#X obj 71 22 r MN3Init;
#X msg 255 264 1;
#X msg 255 326 -20;
#X obj 56 452 t b b b;
#X msg 114 469 Child/*pos;
#X msg 255 469 1;
#X msg 255 449 /DunjonDoor5;
#X msg 183 79 /Prison_Barreaux;
#X msg 255 132 /home/woii/2013_Sebkha-ChottGalootFormula_ThingFish/ThingFishVideoDecorum/MammyNuns/data/MN3/mammy_nun_3_main_devant.png
;
#X msg 255 369 0.17307;
#X msg 255 389 0.31923;
#X msg 255 409 0.5;
#X msg 255 429 -0.7;
#X msg 255 109 -3.029;
#X connect 1 0 3 0;
#X connect 2 0 20 0;
#X connect 3 0 5 0;
#X connect 4 0 1 0;
#X connect 5 0 0 0;
#X connect 6 0 1 0;
#X connect 7 0 1 0;
#X connect 8 0 1 0;
#X connect 9 0 1 0;
#X connect 10 0 1 0;
#X connect 11 0 1 0;
#X connect 12 0 1 0;
#X connect 13 0 1 0;
#X connect 14 0 1 0;
#X connect 15 0 1 0;
#X connect 17 0 1 0;
#X connect 18 0 1 0;
#X connect 19 0 1 0;
#X connect 20 0 6 0;
#X connect 20 0 21 0;
#X connect 20 1 58 0;
#X connect 20 2 52 0;
#X connect 21 0 34 0;
#X connect 21 1 4 0;
#X connect 21 2 53 0;
#X connect 22 0 23 0;
#X connect 22 1 7 0;
#X connect 22 2 47 0;
#X connect 23 0 24 0;
#X connect 23 1 8 0;
#X connect 23 2 54 0;
#X connect 24 0 25 0;
#X connect 24 1 9 0;
#X connect 24 2 55 0;
#X connect 25 0 26 0;
#X connect 25 1 10 0;
#X connect 25 2 56 0;
#X connect 26 0 41 0;
#X connect 26 1 11 0;
#X connect 26 2 57 0;
#X connect 27 1 16 0;
#X connect 28 1 15 0;
#X connect 29 0 22 0;
#X connect 29 1 18 0;
#X connect 29 2 36 0;
#X connect 30 0 29 0;
#X connect 30 1 19 0;
#X connect 30 2 46 0;
#X connect 31 0 30 0;
#X connect 31 1 17 0;
#X connect 31 2 35 0;
#X connect 32 0 31 0;
#X connect 32 1 12 0;
#X connect 32 2 44 0;
#X connect 33 0 32 0;
#X connect 33 1 14 0;
#X connect 33 2 43 0;
#X connect 34 0 33 0;
#X connect 34 1 13 0;
#X connect 34 2 37 0;
#X connect 35 0 5 1;
#X connect 36 0 5 1;
#X connect 37 0 5 1;
#X connect 38 0 1 0;
#X connect 39 0 1 0;
#X connect 40 0 5 1;
#X connect 41 0 48 0;
#X connect 41 1 38 0;
#X connect 41 2 51 0;
#X connect 42 1 39 0;
#X connect 42 2 40 0;
#X connect 43 0 5 1;
#X connect 44 0 5 1;
#X connect 45 0 2 0;
#X connect 46 0 5 1;
#X connect 47 0 5 1;
#X connect 48 0 42 0;
#X connect 48 1 49 0;
#X connect 48 2 50 0;
#X connect 49 0 1 0;
#X connect 50 0 5 1;
#X connect 51 0 5 1;
#X connect 52 0 1 1;
#X connect 53 0 5 1;
#X connect 54 0 5 1;
#X connect 55 0 5 1;
#X connect 56 0 5 1;
#X connect 57 0 5 1;
#X connect 58 0 5 1;
#X restore 81 111 pd MN3BrasJardinInit;
#N canvas 455 100 850 796 MN3BrasCourInit 0;
#X obj 234 642 send OSC_MESSAGES;
#X obj 114 569 list prepend;
#X obj 71 43 bng 15 250 50 0 empty empty empty 17 7 0 10 -262144 -1
-1;
#X obj 114 592 l2s /;
#X msg 114 132 File;
#X obj 234 609 list;
#X msg 114 109 Zpos;
#X msg 114 326 RenderOrder;
#X msg 114 369 Yscale;
#X msg 114 389 Xscale;
#X msg 114 409 Ypos;
#X msg 114 429 Xpos;
#X msg 114 225 Blue;
#X msg 114 184 Red;
#X msg 114 205 Green;
#X msg 114 305 modeAlpha;
#X msg 114 348 Shape;
#X msg 114 245 Rotate;
#X msg 114 284 Alpha;
#X msg 114 264 Activate;
#X obj 71 62 t b b b;
#X obj 56 115 t b b b;
#X obj 56 309 t b b b;
#X obj 56 352 t b b b;
#X obj 56 372 t b b b;
#X obj 56 392 t b b b;
#X obj 56 412 t b b b;
#X obj 17 331 t b b b;
#X obj 16 288 t b b b;
#X obj 56 267 t b b b;
#X obj 56 247 t b b b;
#X obj 56 228 t b b b;
#X obj 56 208 t b b b;
#X obj 56 188 t b b b;
#X obj 56 167 t b b b;
#X msg 255 245 0;
#X msg 255 284 1;
#X msg 255 184 1;
#X msg 114 449 ParentName;
#X msg 114 489 g*pos;
#X msg 255 489 0;
#X obj 56 432 t b b b;
#X obj 56 472 t b b b;
#X msg 255 205 1;
#X msg 255 225 1;
#X obj 71 22 r MN3Init;
#X msg 255 264 1;
#X msg 255 326 -20;
#X obj 56 452 t b b b;
#X msg 114 469 Child/*pos;
#X msg 255 469 1;
#X msg 255 449 /DunjonDoor5;
#X msg 255 132 /home/woii/2013_Sebkha-ChottGalootFormula_ThingFish/ThingFishVideoDecorum/MammyNuns/data/MN3/mammy_nun_3_main_derriere.png
;
#X msg 183 79 /Prison_Prisonniers;
#X msg 255 389 0.29615;
#X msg 255 369 0.23461;
#X msg 255 429 -0.5;
#X msg 255 409 0.3;
#X msg 255 109 -3.0311;
#X connect 1 0 3 0;
#X connect 2 0 20 0;
#X connect 3 0 5 0;
#X connect 4 0 1 0;
#X connect 5 0 0 0;
#X connect 6 0 1 0;
#X connect 7 0 1 0;
#X connect 8 0 1 0;
#X connect 9 0 1 0;
#X connect 10 0 1 0;
#X connect 11 0 1 0;
#X connect 12 0 1 0;
#X connect 13 0 1 0;
#X connect 14 0 1 0;
#X connect 15 0 1 0;
#X connect 17 0 1 0;
#X connect 18 0 1 0;
#X connect 19 0 1 0;
#X connect 20 0 6 0;
#X connect 20 0 21 0;
#X connect 20 1 58 0;
#X connect 20 2 53 0;
#X connect 21 0 34 0;
#X connect 21 1 4 0;
#X connect 21 2 52 0;
#X connect 22 0 23 0;
#X connect 22 1 7 0;
#X connect 22 2 47 0;
#X connect 23 0 24 0;
#X connect 23 1 8 0;
#X connect 23 2 55 0;
#X connect 24 0 25 0;
#X connect 24 1 9 0;
#X connect 24 2 54 0;
#X connect 25 0 26 0;
#X connect 25 1 10 0;
#X connect 25 2 57 0;
#X connect 26 0 41 0;
#X connect 26 1 11 0;
#X connect 26 2 56 0;
#X connect 27 1 16 0;
#X connect 28 1 15 0;
#X connect 29 0 22 0;
#X connect 29 1 18 0;
#X connect 29 2 36 0;
#X connect 30 0 29 0;
#X connect 30 1 19 0;
#X connect 30 2 46 0;
#X connect 31 0 30 0;
#X connect 31 1 17 0;
#X connect 31 2 35 0;
#X connect 32 0 31 0;
#X connect 32 1 12 0;
#X connect 32 2 44 0;
#X connect 33 0 32 0;
#X connect 33 1 14 0;
#X connect 33 2 43 0;
#X connect 34 0 33 0;
#X connect 34 1 13 0;
#X connect 34 2 37 0;
#X connect 35 0 5 1;
#X connect 36 0 5 1;
#X connect 37 0 5 1;
#X connect 38 0 1 0;
#X connect 39 0 1 0;
#X connect 40 0 5 1;
#X connect 41 0 48 0;
#X connect 41 1 38 0;
#X connect 41 2 51 0;
#X connect 42 1 39 0;
#X connect 42 2 40 0;
#X connect 43 0 5 1;
#X connect 44 0 5 1;
#X connect 45 0 2 0;
#X connect 46 0 5 1;
#X connect 47 0 5 1;
#X connect 48 0 42 0;
#X connect 48 1 49 0;
#X connect 48 2 50 0;
#X connect 49 0 1 0;
#X connect 50 0 5 1;
#X connect 51 0 5 1;
#X connect 52 0 5 1;
#X connect 53 0 1 1;
#X connect 54 0 5 1;
#X connect 55 0 5 1;
#X connect 56 0 5 1;
#X connect 57 0 5 1;
#X connect 58 0 5 1;
#X restore 81 131 pd MN3BrasCourInit;
#N canvas 465 100 850 796 MN3PiedJardinInit 0;
#X obj 234 602 send OSC_MESSAGES;
#X obj 114 529 list prepend;
#X obj 71 43 bng 15 250 50 0 empty empty empty 17 7 0 10 -262144 -1
-1;
#X obj 114 552 l2s /;
#X msg 114 132 File;
#X obj 234 569 list;
#X msg 114 109 Zpos;
#X msg 114 326 RenderOrder;
#X msg 114 369 Yscale;
#X msg 114 389 Xscale;
#X msg 114 409 Ypos;
#X msg 114 429 Xpos;
#X msg 114 225 Blue;
#X msg 114 184 Red;
#X msg 114 205 Green;
#X msg 114 305 modeAlpha;
#X msg 114 348 Shape;
#X msg 114 245 Rotate;
#X msg 114 284 Alpha;
#X msg 114 264 Activate;
#X obj 71 62 t b b b;
#X obj 56 115 t b b b;
#X obj 56 309 t b b b;
#X obj 56 352 t b b b;
#X obj 56 372 t b b b;
#X obj 56 392 t b b b;
#X obj 56 412 t b b b;
#X obj 17 331 t b b b;
#X obj 16 288 t b b b;
#X obj 56 267 t b b b;
#X obj 56 247 t b b b;
#X obj 56 228 t b b b;
#X obj 56 208 t b b b;
#X obj 56 188 t b b b;
#X obj 56 167 t b b b;
#X msg 255 245 0;
#X msg 255 284 1;
#X msg 255 184 1;
#X msg 114 449 ParentName;
#X msg 114 489 g*pos;
#X msg 255 489 0;
#X obj 56 432 t b b b;
#X obj 56 472 t b b b;
#X msg 255 205 1;
#X msg 255 225 1;
#X obj 71 22 r MN3Init;
#X msg 255 264 1;
#X msg 255 326 -22;
#X obj 56 452 t b b b;
#X msg 114 469 Child/*pos;
#X msg 255 469 1;
#X msg 255 449 /DunjonDoor5;
#X msg 183 79 /EvilPrince_Tete;
#X msg 255 132 /home/woii/2013_Sebkha-ChottGalootFormula_ThingFish/ThingFishVideoDecorum/MammyNuns/data/MN3/mammy_nun_3_pied_derriere.png
;
#X msg 255 369 0.31923;
#X msg 255 389 0.24615;
#X msg 255 409 -1.1;
#X msg 255 429 0;
#X msg 255 109 -3.03111;
#X connect 1 0 3 0;
#X connect 2 0 20 0;
#X connect 3 0 5 0;
#X connect 4 0 1 0;
#X connect 5 0 0 0;
#X connect 6 0 1 0;
#X connect 7 0 1 0;
#X connect 8 0 1 0;
#X connect 9 0 1 0;
#X connect 10 0 1 0;
#X connect 11 0 1 0;
#X connect 12 0 1 0;
#X connect 13 0 1 0;
#X connect 14 0 1 0;
#X connect 15 0 1 0;
#X connect 17 0 1 0;
#X connect 18 0 1 0;
#X connect 19 0 1 0;
#X connect 20 0 6 0;
#X connect 20 0 21 0;
#X connect 20 1 58 0;
#X connect 20 2 52 0;
#X connect 21 0 34 0;
#X connect 21 1 4 0;
#X connect 21 2 53 0;
#X connect 22 0 23 0;
#X connect 22 1 7 0;
#X connect 22 2 47 0;
#X connect 23 0 24 0;
#X connect 23 1 8 0;
#X connect 23 2 54 0;
#X connect 24 0 25 0;
#X connect 24 1 9 0;
#X connect 24 2 55 0;
#X connect 25 0 26 0;
#X connect 25 1 10 0;
#X connect 25 2 56 0;
#X connect 26 0 41 0;
#X connect 26 1 11 0;
#X connect 26 2 57 0;
#X connect 27 1 16 0;
#X connect 28 1 15 0;
#X connect 29 0 22 0;
#X connect 29 1 18 0;
#X connect 29 2 36 0;
#X connect 30 0 29 0;
#X connect 30 1 19 0;
#X connect 30 2 46 0;
#X connect 31 0 30 0;
#X connect 31 1 17 0;
#X connect 31 2 35 0;
#X connect 32 0 31 0;
#X connect 32 1 12 0;
#X connect 32 2 44 0;
#X connect 33 0 32 0;
#X connect 33 1 14 0;
#X connect 33 2 43 0;
#X connect 34 0 33 0;
#X connect 34 1 13 0;
#X connect 34 2 37 0;
#X connect 35 0 5 1;
#X connect 36 0 5 1;
#X connect 37 0 5 1;
#X connect 38 0 1 0;
#X connect 39 0 1 0;
#X connect 40 0 5 1;
#X connect 41 0 48 0;
#X connect 41 1 38 0;
#X connect 41 2 51 0;
#X connect 42 1 39 0;
#X connect 42 2 40 0;
#X connect 43 0 5 1;
#X connect 44 0 5 1;
#X connect 45 0 2 0;
#X connect 46 0 5 1;
#X connect 47 0 5 1;
#X connect 48 0 42 0;
#X connect 48 1 49 0;
#X connect 48 2 50 0;
#X connect 49 0 1 0;
#X connect 50 0 5 1;
#X connect 51 0 5 1;
#X connect 52 0 1 1;
#X connect 53 0 5 1;
#X connect 54 0 5 1;
#X connect 55 0 5 1;
#X connect 56 0 5 1;
#X connect 57 0 5 1;
#X connect 58 0 5 1;
#X restore 81 151 pd MN3PiedJardinInit;
#N canvas 469 100 850 796 MN3PiedCourInit 0;
#X obj 234 612 send OSC_MESSAGES;
#X obj 114 539 list prepend;
#X obj 71 43 bng 15 250 50 0 empty empty empty 17 7 0 10 -262144 -1
-1;
#X obj 114 562 l2s /;
#X msg 114 132 File;
#X obj 234 579 list;
#X msg 114 109 Zpos;
#X msg 114 326 RenderOrder;
#X msg 114 369 Yscale;
#X msg 114 389 Xscale;
#X msg 114 409 Ypos;
#X msg 114 429 Xpos;
#X msg 114 225 Blue;
#X msg 114 184 Red;
#X msg 114 205 Green;
#X msg 114 305 modeAlpha;
#X msg 114 348 Shape;
#X msg 114 245 Rotate;
#X msg 114 284 Alpha;
#X msg 114 264 Activate;
#X obj 71 62 t b b b;
#X obj 56 115 t b b b;
#X obj 56 309 t b b b;
#X obj 56 352 t b b b;
#X obj 56 372 t b b b;
#X obj 56 392 t b b b;
#X obj 56 412 t b b b;
#X obj 17 331 t b b b;
#X obj 16 288 t b b b;
#X obj 56 267 t b b b;
#X obj 56 247 t b b b;
#X obj 56 228 t b b b;
#X obj 56 208 t b b b;
#X obj 56 188 t b b b;
#X obj 56 167 t b b b;
#X msg 255 245 0;
#X msg 255 284 1;
#X msg 255 184 1;
#X msg 114 449 ParentName;
#X msg 114 489 g*pos;
#X msg 255 489 0;
#X obj 56 432 t b b b;
#X obj 56 472 t b b b;
#X msg 255 205 1;
#X msg 255 225 1;
#X obj 71 22 r MN3Init;
#X msg 255 264 1;
#X msg 255 109 -3.0311;
#X msg 255 326 -22;
#X obj 56 452 t b b b;
#X msg 114 469 Child/*pos;
#X msg 255 469 1;
#X msg 255 449 /DunjonDoor5;
#X msg 183 79 /EvilPrince_Corps;
#X msg 255 132 /home/woii/2013_Sebkha-ChottGalootFormula_ThingFish/ThingFishVideoDecorum/MammyNuns/data/MN3/mammy_nun_3_pied_devant.png
;
#X msg 255 389 0.25;
#X msg 255 369 0.25769;
#X msg 255 429 0.2;
#X msg 255 409 -1.2;
#X connect 1 0 3 0;
#X connect 2 0 20 0;
#X connect 3 0 5 0;
#X connect 4 0 1 0;
#X connect 5 0 0 0;
#X connect 6 0 1 0;
#X connect 7 0 1 0;
#X connect 8 0 1 0;
#X connect 9 0 1 0;
#X connect 10 0 1 0;
#X connect 11 0 1 0;
#X connect 12 0 1 0;
#X connect 13 0 1 0;
#X connect 14 0 1 0;
#X connect 15 0 1 0;
#X connect 17 0 1 0;
#X connect 18 0 1 0;
#X connect 19 0 1 0;
#X connect 20 0 6 0;
#X connect 20 0 21 0;
#X connect 20 1 47 0;
#X connect 20 2 53 0;
#X connect 21 0 34 0;
#X connect 21 1 4 0;
#X connect 21 2 54 0;
#X connect 22 0 23 0;
#X connect 22 1 7 0;
#X connect 22 2 48 0;
#X connect 23 0 24 0;
#X connect 23 1 8 0;
#X connect 23 2 56 0;
#X connect 24 0 25 0;
#X connect 24 1 9 0;
#X connect 24 2 55 0;
#X connect 25 0 26 0;
#X connect 25 1 10 0;
#X connect 25 2 58 0;
#X connect 26 0 41 0;
#X connect 26 1 11 0;
#X connect 26 2 57 0;
#X connect 27 1 16 0;
#X connect 28 1 15 0;
#X connect 29 0 22 0;
#X connect 29 1 18 0;
#X connect 29 2 36 0;
#X connect 30 0 29 0;
#X connect 30 1 19 0;
#X connect 30 2 46 0;
#X connect 31 0 30 0;
#X connect 31 1 17 0;
#X connect 31 2 35 0;
#X connect 32 0 31 0;
#X connect 32 1 12 0;
#X connect 32 2 44 0;
#X connect 33 0 32 0;
#X connect 33 1 14 0;
#X connect 33 2 43 0;
#X connect 34 0 33 0;
#X connect 34 1 13 0;
#X connect 34 2 37 0;
#X connect 35 0 5 1;
#X connect 36 0 5 1;
#X connect 37 0 5 1;
#X connect 38 0 1 0;
#X connect 39 0 1 0;
#X connect 40 0 5 1;
#X connect 41 0 49 0;
#X connect 41 1 38 0;
#X connect 41 2 52 0;
#X connect 42 1 39 0;
#X connect 42 2 40 0;
#X connect 43 0 5 1;
#X connect 44 0 5 1;
#X connect 45 0 2 0;
#X connect 46 0 5 1;
#X connect 47 0 5 1;
#X connect 48 0 5 1;
#X connect 49 0 42 0;
#X connect 49 1 50 0;
#X connect 49 2 51 0;
#X connect 50 0 1 0;
#X connect 51 0 5 1;
#X connect 52 0 5 1;
#X connect 53 0 1 1;
#X connect 54 0 5 1;
#X connect 55 0 5 1;
#X connect 56 0 5 1;
#X connect 57 0 5 1;
#X connect 58 0 5 1;
#X restore 81 171 pd MN3PiedCourInit;
#N canvas 467 100 850 796 MN3UrineInit 0;
#X obj 234 612 send OSC_MESSAGES;
#X obj 114 539 list prepend;
#X obj 71 43 bng 15 250 50 0 empty empty empty 17 7 0 10 -262144 -1
-1;
#X obj 114 562 l2s /;
#X msg 114 132 File;
#X obj 234 579 list;
#X msg 114 109 Zpos;
#X msg 114 326 RenderOrder;
#X msg 114 369 Yscale;
#X msg 114 389 Xscale;
#X msg 114 409 Ypos;
#X msg 114 429 Xpos;
#X msg 114 225 Blue;
#X msg 114 184 Red;
#X msg 114 205 Green;
#X msg 114 305 modeAlpha;
#X msg 114 348 Shape;
#X msg 114 245 Rotate;
#X msg 114 284 Alpha;
#X msg 114 264 Activate;
#X obj 71 62 t b b b;
#X obj 56 115 t b b b;
#X obj 56 309 t b b b;
#X obj 56 352 t b b b;
#X obj 56 372 t b b b;
#X obj 56 392 t b b b;
#X obj 56 412 t b b b;
#X obj 17 331 t b b b;
#X obj 16 288 t b b b;
#X obj 56 267 t b b b;
#X obj 56 247 t b b b;
#X obj 56 228 t b b b;
#X obj 56 208 t b b b;
#X obj 56 188 t b b b;
#X obj 56 167 t b b b;
#X msg 255 284 1;
#X msg 255 184 1;
#X msg 114 449 ParentName;
#X msg 114 489 g*pos;
#X msg 255 489 0;
#X obj 56 432 t b b b;
#X obj 56 472 t b b b;
#X msg 255 205 1;
#X msg 255 225 1;
#X obj 71 22 r MN3Init;
#X obj 56 452 t b b b;
#X msg 114 469 Child/*pos;
#X msg 255 469 1;
#X msg 255 449 /DunjonDoor5;
#X msg 255 109 -3.0305;
#X msg 255 132 /home/woii/2013_Sebkha-ChottGalootFormula_ThingFish/ThingFishVideoDecorum/MammyNuns/data/MN3/mammy_nun_3_pisse.png
;
#X msg 255 326 -21;
#X msg 255 245 0;
#X msg 183 79 /EvilPrince_BrasCour;
#X msg 255 389 0.57307;
#X msg 255 409 -0.8;
#X msg 255 429 -1.1;
#X msg 255 369 0.50076;
#X msg 255 264 0;
#X connect 1 0 3 0;
#X connect 2 0 20 0;
#X connect 3 0 5 0;
#X connect 4 0 1 0;
#X connect 5 0 0 0;
#X connect 6 0 1 0;
#X connect 7 0 1 0;
#X connect 8 0 1 0;
#X connect 9 0 1 0;
#X connect 10 0 1 0;
#X connect 11 0 1 0;
#X connect 12 0 1 0;
#X connect 13 0 1 0;
#X connect 14 0 1 0;
#X connect 15 0 1 0;
#X connect 17 0 1 0;
#X connect 18 0 1 0;
#X connect 19 0 1 0;
#X connect 20 0 6 0;
#X connect 20 0 21 0;
#X connect 20 1 49 0;
#X connect 20 2 53 0;
#X connect 21 0 34 0;
#X connect 21 1 4 0;
#X connect 21 2 50 0;
#X connect 22 0 23 0;
#X connect 22 1 7 0;
#X connect 22 2 51 0;
#X connect 23 0 24 0;
#X connect 23 1 8 0;
#X connect 23 2 57 0;
#X connect 24 0 25 0;
#X connect 24 1 9 0;
#X connect 24 2 54 0;
#X connect 25 0 26 0;
#X connect 25 1 10 0;
#X connect 25 2 55 0;
#X connect 26 0 40 0;
#X connect 26 1 11 0;
#X connect 26 2 56 0;
#X connect 27 1 16 0;
#X connect 28 1 15 0;
#X connect 29 0 22 0;
#X connect 29 1 18 0;
#X connect 29 2 35 0;
#X connect 30 0 29 0;
#X connect 30 1 19 0;
#X connect 30 2 58 0;
#X connect 31 0 30 0;
#X connect 31 1 17 0;
#X connect 31 2 52 0;
#X connect 32 0 31 0;
#X connect 32 1 12 0;
#X connect 32 2 43 0;
#X connect 33 0 32 0;
#X connect 33 1 14 0;
#X connect 33 2 42 0;
#X connect 34 0 33 0;
#X connect 34 1 13 0;
#X connect 34 2 36 0;
#X connect 35 0 5 1;
#X connect 36 0 5 1;
#X connect 37 0 1 0;
#X connect 38 0 1 0;
#X connect 39 0 5 1;
#X connect 40 0 45 0;
#X connect 40 1 37 0;
#X connect 40 2 48 0;
#X connect 41 1 38 0;
#X connect 41 2 39 0;
#X connect 42 0 5 1;
#X connect 43 0 5 1;
#X connect 44 0 2 0;
#X connect 45 0 41 0;
#X connect 45 1 46 0;
#X connect 45 2 47 0;
#X connect 46 0 1 0;
#X connect 47 0 5 1;
#X connect 48 0 5 1;
#X connect 49 0 5 1;
#X connect 50 0 5 1;
#X connect 51 0 5 1;
#X connect 52 0 5 1;
#X connect 53 0 1 1;
#X connect 54 0 5 1;
#X connect 55 0 5 1;
#X connect 56 0 5 1;
#X connect 57 0 5 1;
#X connect 58 0 5 1;
#X restore 81 191 pd MN3UrineInit;
#X obj 116 338 s MN3EarlyInit;
#X obj 89 368 s MN3Init;
#X msg 363 328 /DunjonDoor5/Xpos \$1;
#N canvas 668 343 450 300 MN3Moves 0;
#N canvas 0 100 1440 800 MN3Dances 0;
#X obj 23 14 r MNDance;
#X obj 23 45 bng 15 250 50 0 empty empty empty 17 7 0 10 -262144 -1
-1;
#X obj 23 81 metro 500;
#X obj 74 54 r TempoDance;
#X msg 198 64 stop;
#X obj 198 29 r MNStopDancing;
#X obj 23 147 delay 250;
#X obj 74 111 / 2;
#X obj 23 335 line;
#X obj 23 219 + 0.2;
#X msg 23 261 set \$1 100;
#X msg 23 291 -1 100;
#X msg 141 216 set \$1 100;
#X msg 141 318 -1.2 100;
#X obj 141 164 delay 100;
#X obj 94 459 s OSC_MESSAGES;
#X obj 210 333 line;
#X obj 210 222 + 0.2;
#X msg 210 265 set \$1 100;
#X msg 210 300 -0.9 100;
#X msg 385 115 set \$1 100;
#X msg 385 282 -1.1 100;
#X obj 211 133 delay 100;
#X obj 483 147 delay 250;
#X obj 534 111 / 2;
#X obj 483 335 line;
#X obj 483 219 + 0.2;
#X msg 483 261 set \$1 100;
#X msg 483 291 0.3 100;
#X msg 601 216 set \$1 100;
#X msg 601 318 0.1 100;
#X obj 601 164 delay 100;
#X obj 554 459 s OSC_MESSAGES;
#X obj 670 333 line;
#X obj 670 222 + 0.2;
#X msg 670 265 set \$1 100;
#X msg 670 300 0.3 100;
#X msg 845 115 set \$1 100;
#X msg 845 282 0.1 100;
#X obj 671 133 delay 100;
#X obj 23 107 t b b;
#X obj 23 171 t b b;
#X obj 483 173 t b b;
#X msg 574 36 0;
#X msg 574 60 1;
#X obj 541 427 spigot;
#X obj 574 10 r MN3StopHands;
#X obj 210 98 v /EvilPrince_Tete/Ypos;
#X msg 210 378 /EvilPrince_Tete/Ypos \$1;
#X msg 23 382 /EvilPrince_Corps/Ypos \$1;
#X obj 23 199 v /EvilPrince_Corps/Ypos;
#X obj 483 199 v /Prison_Barreaux/Ypos;
#X msg 483 382 /Prison_Barreaux/Ypos \$1;
#X obj 670 98 v /Prison_Prisonniers/Ypos;
#X msg 670 378 /Prison_Prisonniers/Ypos \$1;
#X msg 373 717 \$1 250;
#X obj 373 742 line;
#X obj 594 605 t b b;
#X obj 624 633 random 10;
#X obj 617 677 / 100;
#X obj 688 766 line;
#X msg 761 713 0.97 125;
#X obj 654 695 +;
#X obj 617 653 - 5;
#X msg 671 720 set \$1 125;
#X msg 860 671 set \$1 125;
#X msg 865 710 1 125;
#X obj 1014 674 delay 125;
#X obj 745 641 v /DunjonDoor4Cadre/Yscale;
#X msg 766 758 /DunjonDoor4Cadre/Yscale \$1;
#X msg 373 767 /DunjonDoor5/Rotate \$1;
#X obj 373 616 random 10;
#X obj 373 658 - 5;
#X connect 0 0 1 0;
#X connect 1 0 2 0;
#X connect 1 0 44 0;
#X connect 2 0 6 0;
#X connect 2 0 22 0;
#X connect 2 0 23 0;
#X connect 2 0 39 0;
#X connect 2 0 40 0;
#X connect 2 0 57 0;
#X connect 2 0 71 0;
#X connect 3 0 2 1;
#X connect 3 0 7 0;
#X connect 3 0 24 0;
#X connect 4 0 2 0;
#X connect 5 0 4 0;
#X connect 6 0 14 0;
#X connect 6 0 41 0;
#X connect 7 0 6 1;
#X connect 8 0 49 0;
#X connect 9 0 10 0;
#X connect 10 0 11 0;
#X connect 11 0 8 0;
#X connect 12 0 13 0;
#X connect 13 0 8 0;
#X connect 14 0 13 0;
#X connect 16 0 48 0;
#X connect 17 0 18 0;
#X connect 18 0 19 0;
#X connect 19 0 16 0;
#X connect 20 0 21 0;
#X connect 21 0 16 0;
#X connect 22 0 21 0;
#X connect 23 0 31 0;
#X connect 23 0 42 0;
#X connect 24 0 23 1;
#X connect 25 0 52 0;
#X connect 26 0 27 0;
#X connect 27 0 28 0;
#X connect 28 0 25 0;
#X connect 29 0 30 0;
#X connect 30 0 25 0;
#X connect 31 0 30 0;
#X connect 33 0 54 0;
#X connect 34 0 35 0;
#X connect 35 0 36 0;
#X connect 36 0 33 0;
#X connect 37 0 38 0;
#X connect 38 0 33 0;
#X connect 39 0 38 0;
#X connect 40 0 19 0;
#X connect 40 0 36 0;
#X connect 40 1 47 0;
#X connect 40 1 53 0;
#X connect 41 0 11 0;
#X connect 41 1 50 0;
#X connect 42 0 28 0;
#X connect 42 1 51 0;
#X connect 43 0 45 1;
#X connect 44 0 45 1;
#X connect 45 0 32 0;
#X connect 46 0 43 0;
#X connect 47 0 17 0;
#X connect 47 0 20 0;
#X connect 48 0 15 0;
#X connect 49 0 15 0;
#X connect 50 0 9 0;
#X connect 50 0 12 0;
#X connect 51 0 26 0;
#X connect 51 0 29 0;
#X connect 52 0 45 0;
#X connect 53 0 34 0;
#X connect 53 0 37 0;
#X connect 54 0 45 0;
#X connect 55 0 56 0;
#X connect 56 0 70 0;
#X connect 57 0 58 0;
#X connect 57 0 61 0;
#X connect 57 0 67 0;
#X connect 57 1 68 0;
#X connect 58 0 63 0;
#X connect 59 0 62 0;
#X connect 60 0 69 0;
#X connect 61 0 60 0;
#X connect 62 0 64 0;
#X connect 63 0 59 0;
#X connect 64 0 61 0;
#X connect 65 0 66 0;
#X connect 66 0 60 0;
#X connect 67 0 66 0;
#X connect 68 0 60 0;
#X connect 68 0 62 1;
#X connect 68 0 65 0;
#X connect 69 0 15 0;
#X connect 70 0 15 0;
#X connect 71 0 72 0;
#X connect 72 0 55 0;
#X restore 34 23 pd MN3Dances;
#N canvas 0 100 1440 800 MN3Pees 0;
#X obj 48 36 r MNPee;
#X obj 79 496 s OSC_MESSAGES;
#X obj 79 422 line;
#X obj 309 422 line;
#X obj 48 296 t b b;
#X msg 48 405 0.1 300;
#X obj 665 270 bng 15 250 50 0 empty empty empty 17 7 0 10 -262144
-1 -1;
#X obj 665 450 line;
#X obj 915 446 line;
#X msg 915 315 0;
#X msg 665 383 set \$1 200;
#X msg 665 412 0.57307 200;
#X msg 915 383 set \$1 200;
#X msg 915 409 0.51076 200;
#X obj 665 298 t b b b;
#X obj 1155 446 line;
#X msg 1155 383 set \$1 200;
#X msg 1155 409 -0.8 200;
#X msg 1155 315 -0.5;
#X obj 48 80 delay 100;
#X msg 349 405 0.1 300;
#X obj 1335 446 line;
#X msg 1335 383 set \$1 200;
#X msg 1335 409 -1.1 200;
#X obj 1335 290 + 0.3;
#X msg 1335 315 \$1;
#X obj 1155 290 + 0.65;
#X obj 82 670 line;
#X obj 66 557 bng 15 250 50 0 empty empty empty 17 7 0 10 -262144 -1
-1;
#X obj 72 753 s OSC_MESSAGES;
#X msg 125 623 set \$1 200;
#X msg 136 653 -1 200;
#X obj 251 572 t b b;
#X obj 278 608 delay 200;
#X msg 277 668 0.1 300;
#X obj 372 670 line;
#X msg 415 623 set \$1 200;
#X msg 426 653 40 200;
#X obj 95 279 delay 200;
#X obj 67 255 bng 15 250 50 0 empty empty empty 17 7 0 10 -262144 -1
-1;
#X obj 552 670 line;
#X msg 595 623 set \$1 200;
#X obj 520 613 + 0.3;
#X obj 48 59 bng 15 250 50 0 empty empty empty 17 7 0 10 -262144 -1
-1;
#X obj 47 149 delay 600;
#X obj 877 182 metro 100;
#X msg 975 265 set \$1 50;
#X msg 975 293 0.51076 50;
#X obj 971 161 + 0.01;
#X msg 1040 182 set \$1 50;
#X msg 1114 170 0.52076 50;
#X obj 888 219 delay 50;
#X obj 773 278 delay 210;
#X obj 837 126 r MNStopPeeing;
#X msg 843 154 stop;
#X obj 246 74 s MN3StopHands;
#X obj 48 113 s MN3SoulevageJupe;
#X obj 47 185 s MN3StartsPeeing;
#X obj 48 227 r MN3SoulevageJupe;
#X obj 665 243 r MN3StartsPeeing;
#X msg 82 701 /Prison_*/Ypos \$1;
#X msg 552 701 /Prison*/Xpos \$1;
#X obj 82 589 v /Prison_Barreaux/Ypos;
#X obj 552 589 v /Prison_Barreaux/Xpos;
#X msg 606 653 -0.4 200;
#X obj 79 340 v /DunjonDoor5Cadre/Yscale;
#X msg 79 444 /DunjonDoor5Cadre/Yscale \$1;
#X obj 299 340 v /DunjonDoor5Cadre/Ypos;
#X msg 309 444 /DunjonDoor5Cadre/Ypos \$1;
#X obj 665 346 v /EvilPrince_BrasCour/Xscale;
#X msg 665 479 /EvilPrince_BrasCour/Xscale \$1;
#X msg 665 533 /EvilPrince_BrasCour/Activate 1;
#X obj 915 346 v /EvilPrince_BrasCour/Yscale;
#X msg 915 479 /EvilPrince_BrasCour/Yscale \$1;
#X msg 1026 214 /EvilPrince_BrasCour/Yscale \$1;
#X obj 1155 346 v /EvilPrince_BrasCour/Ypos;
#X msg 1155 479 /EvilPrince_BrasCour/Ypos \$1;
#X obj 1335 346 v /EvilPrince_BrasCour/Xpos;
#X msg 1335 479 /EvilPrince_BrasCour/Xpos \$1;
#X msg 273 642 set \$1 300;
#X obj 110 613 - 1.5;
#X obj 233 632 - 0.4;
#X msg 372 701 /Prison_*/Rotate \$1;
#X obj 372 589 v /Prison_Barreaux/Rotate;
#X obj 400 613 + 40;
#X connect 0 0 43 0;
#X connect 2 0 66 0;
#X connect 3 0 68 0;
#X connect 4 0 20 0;
#X connect 4 0 5 0;
#X connect 4 1 65 0;
#X connect 4 1 67 0;
#X connect 5 0 2 0;
#X connect 6 0 14 0;
#X connect 7 0 70 0;
#X connect 8 0 73 0;
#X connect 9 0 7 0;
#X connect 9 0 8 0;
#X connect 10 0 11 0;
#X connect 11 0 7 0;
#X connect 12 0 13 0;
#X connect 13 0 8 0;
#X connect 14 0 71 0;
#X connect 14 0 11 0;
#X connect 14 0 13 0;
#X connect 14 0 17 0;
#X connect 14 0 23 0;
#X connect 14 1 9 0;
#X connect 14 2 52 0;
#X connect 14 2 69 0;
#X connect 14 2 72 0;
#X connect 14 2 75 0;
#X connect 14 2 77 0;
#X connect 15 0 76 0;
#X connect 16 0 17 0;
#X connect 17 0 15 0;
#X connect 18 0 15 0;
#X connect 19 0 44 0;
#X connect 19 0 56 0;
#X connect 20 0 3 0;
#X connect 21 0 78 0;
#X connect 22 0 23 0;
#X connect 23 0 21 0;
#X connect 24 0 25 0;
#X connect 25 0 21 0;
#X connect 26 0 18 0;
#X connect 27 0 60 0;
#X connect 28 0 32 0;
#X connect 30 0 31 0;
#X connect 31 0 27 0;
#X connect 32 0 31 0;
#X connect 32 0 37 0;
#X connect 32 1 33 0;
#X connect 32 1 62 0;
#X connect 32 1 63 0;
#X connect 32 1 83 0;
#X connect 33 0 34 0;
#X connect 33 0 64 0;
#X connect 34 0 27 0;
#X connect 35 0 82 0;
#X connect 36 0 37 0;
#X connect 37 0 35 0;
#X connect 38 0 4 0;
#X connect 39 0 38 0;
#X connect 39 0 28 0;
#X connect 40 0 61 0;
#X connect 41 0 64 0;
#X connect 42 0 41 0;
#X connect 43 0 19 0;
#X connect 43 0 55 0;
#X connect 44 0 57 0;
#X connect 45 0 51 0;
#X connect 45 0 47 0;
#X connect 46 0 47 0;
#X connect 47 0 74 0;
#X connect 48 0 49 0;
#X connect 49 0 50 0;
#X connect 50 0 74 0;
#X connect 51 0 50 0;
#X connect 52 0 45 0;
#X connect 53 0 54 0;
#X connect 54 0 45 0;
#X connect 58 0 39 0;
#X connect 59 0 6 0;
#X connect 60 0 29 0;
#X connect 61 0 29 0;
#X connect 62 0 27 0;
#X connect 62 0 80 0;
#X connect 62 0 81 0;
#X connect 63 0 40 0;
#X connect 63 0 42 0;
#X connect 64 0 40 0;
#X connect 65 0 2 0;
#X connect 66 0 1 0;
#X connect 67 0 3 0;
#X connect 68 0 1 0;
#X connect 69 0 10 0;
#X connect 70 0 1 0;
#X connect 71 0 1 0;
#X connect 72 0 12 0;
#X connect 72 0 46 0;
#X connect 72 0 48 0;
#X connect 73 0 1 0;
#X connect 74 0 1 0;
#X connect 75 0 16 0;
#X connect 75 0 26 0;
#X connect 76 0 1 0;
#X connect 77 0 22 0;
#X connect 77 0 24 0;
#X connect 78 0 1 0;
#X connect 79 0 34 0;
#X connect 80 0 30 0;
#X connect 81 0 79 0;
#X connect 82 0 29 0;
#X connect 83 0 35 0;
#X connect 83 0 84 0;
#X connect 84 0 36 0;
#X restore 36 66 pd MN3Pees;
#X restore 917 119 pd MN3Moves;
#X obj 89 270 r MNInit;
#X connect 0 0 1 0;
#X connect 1 0 14 0;
#X connect 1 1 13 0;
#X connect 2 0 15 0;
#X connect 4 0 2 0;
#X connect 15 0 3 0;
#X connect 17 0 0 0;
