#N canvas 0 100 1440 800 10;
#X obj 89 296 bng 15 250 50 0 empty empty empty 17 7 0 10 -262144 -1
-1;
#X obj 89 316 t b b;
#X obj 366 283 hsl 128 15 -8 8 0 0 empty empty empty -2 -8 0 10 -262144
-1 -1 0 1;
#X obj 363 369 s OSC_MESSAGES;
#X msg 363 253 0;
#N canvas 467 100 850 796 MN2TeteInit 0;
#X obj 234 622 send OSC_MESSAGES;
#X obj 114 549 list prepend;
#X obj 71 43 bng 15 250 50 0 empty empty empty 17 7 0 10 -262144 -1
-1;
#X obj 114 572 l2s /;
#X msg 114 132 File;
#X obj 234 589 list;
#X msg 114 109 Zpos;
#X msg 114 326 RenderOrder;
#X msg 114 369 Yscale;
#X msg 114 389 Xscale;
#X msg 114 409 Ypos;
#X msg 114 429 Xpos;
#X msg 114 225 Blue;
#X msg 114 184 Red;
#X msg 114 205 Green;
#X msg 114 305 modeAlpha;
#X msg 114 348 Shape;
#X msg 114 245 Rotate;
#X msg 114 284 Alpha;
#X msg 114 264 Activate;
#X obj 71 62 t b b b;
#X obj 56 115 t b b b;
#X obj 56 309 t b b b;
#X obj 56 352 t b b b;
#X obj 56 372 t b b b;
#X obj 56 392 t b b b;
#X obj 56 412 t b b b;
#X obj 17 331 t b b b;
#X obj 16 288 t b b b;
#X obj 56 267 t b b b;
#X obj 56 247 t b b b;
#X obj 56 228 t b b b;
#X obj 56 208 t b b b;
#X obj 56 188 t b b b;
#X obj 56 167 t b b b;
#X msg 255 245 0;
#X msg 255 284 1;
#X msg 255 184 1;
#X msg 114 449 ParentName;
#X obj 56 432 t b b b;
#X obj 56 452 t b b b;
#X msg 255 205 1;
#X msg 255 225 1;
#X msg 255 109 -3.031;
#X msg 255 326 -20;
#X msg 255 264 1;
#X msg 255 369 1;
#X msg 255 389 1;
#X msg 255 409 1;
#X msg 114 489 g*pos;
#X msg 255 489 0;
#X obj 56 472 t b b b;
#X msg 114 469 Child/*pos;
#X msg 255 469 1;
#X msg 255 449 /DunjonDoor1;
#X msg 183 79 /DjventiloPales;
#X msg 255 132 /home/woii/2013_Sebkha-ChottGalootFormula_ThingFish/ThingFishVideoDecorum/MammyNuns/data/MN2/mammy_nun_2_tete.png
;
#X obj 71 22 r MN2Init;
#X msg 255 429 -0.25;
#X connect 1 0 3 0;
#X connect 2 0 20 0;
#X connect 3 0 5 0;
#X connect 4 0 1 0;
#X connect 5 0 0 0;
#X connect 6 0 1 0;
#X connect 7 0 1 0;
#X connect 8 0 1 0;
#X connect 9 0 1 0;
#X connect 10 0 1 0;
#X connect 11 0 1 0;
#X connect 12 0 1 0;
#X connect 13 0 1 0;
#X connect 14 0 1 0;
#X connect 15 0 1 0;
#X connect 17 0 1 0;
#X connect 18 0 1 0;
#X connect 19 0 1 0;
#X connect 20 0 6 0;
#X connect 20 0 21 0;
#X connect 20 1 43 0;
#X connect 20 2 55 0;
#X connect 21 0 34 0;
#X connect 21 1 4 0;
#X connect 21 2 56 0;
#X connect 22 0 23 0;
#X connect 22 1 7 0;
#X connect 22 2 44 0;
#X connect 23 0 24 0;
#X connect 23 1 8 0;
#X connect 23 2 46 0;
#X connect 24 0 25 0;
#X connect 24 1 9 0;
#X connect 24 2 47 0;
#X connect 25 0 26 0;
#X connect 25 1 10 0;
#X connect 25 2 48 0;
#X connect 26 0 39 0;
#X connect 26 1 11 0;
#X connect 26 2 58 0;
#X connect 27 1 16 0;
#X connect 28 1 15 0;
#X connect 29 0 22 0;
#X connect 29 1 18 0;
#X connect 29 2 36 0;
#X connect 30 0 29 0;
#X connect 30 1 19 0;
#X connect 30 2 45 0;
#X connect 31 0 30 0;
#X connect 31 1 17 0;
#X connect 31 2 35 0;
#X connect 32 0 31 0;
#X connect 32 1 12 0;
#X connect 32 2 42 0;
#X connect 33 0 32 0;
#X connect 33 1 14 0;
#X connect 33 2 41 0;
#X connect 34 0 33 0;
#X connect 34 1 13 0;
#X connect 34 2 37 0;
#X connect 35 0 5 1;
#X connect 36 0 5 1;
#X connect 37 0 5 1;
#X connect 38 0 1 0;
#X connect 39 0 40 0;
#X connect 39 1 38 0;
#X connect 39 2 54 0;
#X connect 40 0 51 0;
#X connect 40 1 52 0;
#X connect 40 2 53 0;
#X connect 41 0 5 1;
#X connect 42 0 5 1;
#X connect 43 0 5 1;
#X connect 44 0 5 1;
#X connect 45 0 5 1;
#X connect 46 0 5 1;
#X connect 47 0 5 1;
#X connect 48 0 5 1;
#X connect 49 0 1 0;
#X connect 50 0 5 1;
#X connect 51 1 49 0;
#X connect 51 2 50 0;
#X connect 52 0 1 0;
#X connect 53 0 5 1;
#X connect 54 0 5 1;
#X connect 55 0 1 1;
#X connect 56 0 5 1;
#X connect 57 0 2 0;
#X connect 58 0 5 1;
#X restore 81 51 pd MN2TeteInit;
#N canvas 463 100 850 796 MN2CorpsInit 0;
#X obj 234 622 send OSC_MESSAGES;
#X obj 114 549 list prepend;
#X obj 71 43 bng 15 250 50 0 empty empty empty 17 7 0 10 -262144 -1
-1;
#X obj 114 572 l2s /;
#X msg 114 132 File;
#X obj 234 589 list;
#X msg 114 109 Zpos;
#X msg 114 326 RenderOrder;
#X msg 114 369 Yscale;
#X msg 114 389 Xscale;
#X msg 114 409 Ypos;
#X msg 114 429 Xpos;
#X msg 114 225 Blue;
#X msg 114 184 Red;
#X msg 114 205 Green;
#X msg 114 305 modeAlpha;
#X msg 114 348 Shape;
#X msg 114 245 Rotate;
#X msg 114 284 Alpha;
#X msg 114 264 Activate;
#X obj 71 62 t b b b;
#X obj 56 115 t b b b;
#X obj 56 309 t b b b;
#X obj 56 352 t b b b;
#X obj 56 372 t b b b;
#X obj 56 392 t b b b;
#X obj 56 412 t b b b;
#X obj 17 331 t b b b;
#X obj 16 288 t b b b;
#X obj 56 267 t b b b;
#X obj 56 247 t b b b;
#X obj 56 228 t b b b;
#X obj 56 208 t b b b;
#X obj 56 188 t b b b;
#X obj 56 167 t b b b;
#X msg 255 245 0;
#X msg 255 284 1;
#X msg 255 184 1;
#X msg 114 449 ParentName;
#X msg 114 469 g*pos;
#X msg 255 469 0;
#X obj 56 432 t b b b;
#X obj 56 452 t b b b;
#X msg 255 205 1;
#X msg 255 225 1;
#X msg 255 429 0;
#X msg 255 264 1;
#X msg 255 409 0;
#X msg 255 109 -3.0311;
#X msg 255 326 -21;
#X obj 56 472 t b b b;
#X msg 114 489 Child/*pos;
#X msg 255 449 /Dummy;
#X msg 255 489 0;
#X msg 183 79 /DunjonDoor1;
#X obj 71 22 r MN2EarlyInit;
#X msg 255 132 /home/woii/2013_Sebkha-ChottGalootFormula_ThingFish/ThingFishVideoDecorum/MammyNuns/data/MN2/mammy_nun_2_corps.png
;
#X msg 255 389 0.85769;
#X msg 255 369 1.10769;
#X connect 1 0 3 0;
#X connect 2 0 20 0;
#X connect 3 0 5 0;
#X connect 4 0 1 0;
#X connect 5 0 0 0;
#X connect 6 0 1 0;
#X connect 7 0 1 0;
#X connect 8 0 1 0;
#X connect 9 0 1 0;
#X connect 10 0 1 0;
#X connect 11 0 1 0;
#X connect 12 0 1 0;
#X connect 13 0 1 0;
#X connect 14 0 1 0;
#X connect 15 0 1 0;
#X connect 17 0 1 0;
#X connect 18 0 1 0;
#X connect 19 0 1 0;
#X connect 20 0 6 0;
#X connect 20 0 21 0;
#X connect 20 1 48 0;
#X connect 20 2 54 0;
#X connect 21 0 34 0;
#X connect 21 1 4 0;
#X connect 21 2 56 0;
#X connect 22 0 23 0;
#X connect 22 1 7 0;
#X connect 22 2 49 0;
#X connect 23 0 24 0;
#X connect 23 1 8 0;
#X connect 23 2 58 0;
#X connect 24 0 25 0;
#X connect 24 1 9 0;
#X connect 24 2 57 0;
#X connect 25 0 26 0;
#X connect 25 1 10 0;
#X connect 25 2 47 0;
#X connect 26 0 41 0;
#X connect 26 1 11 0;
#X connect 26 2 45 0;
#X connect 27 1 16 0;
#X connect 28 1 15 0;
#X connect 29 0 22 0;
#X connect 29 1 18 0;
#X connect 29 2 36 0;
#X connect 30 0 29 0;
#X connect 30 1 19 0;
#X connect 30 2 46 0;
#X connect 31 0 30 0;
#X connect 31 1 17 0;
#X connect 31 2 35 0;
#X connect 32 0 31 0;
#X connect 32 1 12 0;
#X connect 32 2 44 0;
#X connect 33 0 32 0;
#X connect 33 1 14 0;
#X connect 33 2 43 0;
#X connect 34 0 33 0;
#X connect 34 1 13 0;
#X connect 34 2 37 0;
#X connect 35 0 5 1;
#X connect 36 0 5 1;
#X connect 37 0 5 1;
#X connect 38 0 1 0;
#X connect 39 0 1 0;
#X connect 40 0 5 1;
#X connect 41 0 42 0;
#X connect 41 1 38 0;
#X connect 41 2 52 0;
#X connect 42 0 50 0;
#X connect 42 1 39 0;
#X connect 42 2 40 0;
#X connect 43 0 5 1;
#X connect 44 0 5 1;
#X connect 45 0 5 1;
#X connect 46 0 5 1;
#X connect 47 0 5 1;
#X connect 48 0 5 1;
#X connect 49 0 5 1;
#X connect 50 1 51 0;
#X connect 50 2 53 0;
#X connect 51 0 1 0;
#X connect 52 0 5 1;
#X connect 53 0 5 1;
#X connect 54 0 1 1;
#X connect 55 0 2 0;
#X connect 56 0 5 1;
#X connect 57 0 5 1;
#X connect 58 0 5 1;
#X restore 81 71 pd MN2CorpsInit;
#N canvas 459 100 850 796 MN2RobeInit 0;
#X obj 234 622 send OSC_MESSAGES;
#X obj 114 549 list prepend;
#X obj 71 43 bng 15 250 50 0 empty empty empty 17 7 0 10 -262144 -1
-1;
#X obj 114 572 l2s /;
#X msg 114 132 File;
#X obj 234 589 list;
#X msg 114 109 Zpos;
#X msg 114 326 RenderOrder;
#X msg 114 369 Yscale;
#X msg 114 389 Xscale;
#X msg 114 409 Ypos;
#X msg 114 429 Xpos;
#X msg 114 225 Blue;
#X msg 114 184 Red;
#X msg 114 205 Green;
#X msg 114 305 modeAlpha;
#X msg 114 348 Shape;
#X msg 114 245 Rotate;
#X msg 114 284 Alpha;
#X msg 114 264 Activate;
#X obj 71 62 t b b b;
#X obj 56 115 t b b b;
#X obj 56 309 t b b b;
#X obj 56 352 t b b b;
#X obj 56 372 t b b b;
#X obj 56 392 t b b b;
#X obj 56 412 t b b b;
#X obj 17 331 t b b b;
#X obj 16 288 t b b b;
#X obj 56 267 t b b b;
#X obj 56 247 t b b b;
#X obj 56 228 t b b b;
#X obj 56 208 t b b b;
#X obj 56 188 t b b b;
#X obj 56 167 t b b b;
#X msg 255 245 0;
#X msg 255 284 1;
#X msg 255 184 1;
#X msg 114 449 ParentName;
#X msg 114 489 g*pos;
#X msg 255 489 0;
#X obj 56 432 t b b b;
#X obj 56 472 t b b b;
#X msg 255 205 1;
#X msg 255 225 1;
#X msg 255 326 -19;
#X obj 56 452 t b b b;
#X msg 114 469 Child/*pos;
#X msg 255 469 1;
#X msg 255 264 1;
#X msg 255 132 /home/woii/2013_Sebkha-ChottGalootFormula_ThingFish/ThingFishVideoDecorum/MammyNuns/data/MN2/mammy_nun_2_robe.png
;
#X msg 183 79 /DunjonDoor1Cadre;
#X msg 255 449 /DunjonDoor1;
#X msg 255 389 0.74615;
#X msg 255 369 0.63846;
#X msg 255 429 -0.1;
#X msg 255 409 -0.4;
#X obj 71 22 r MN2Init;
#X msg 255 109 -3.03;
#X connect 1 0 3 0;
#X connect 2 0 20 0;
#X connect 3 0 5 0;
#X connect 4 0 1 0;
#X connect 5 0 0 0;
#X connect 6 0 1 0;
#X connect 7 0 1 0;
#X connect 8 0 1 0;
#X connect 9 0 1 0;
#X connect 10 0 1 0;
#X connect 11 0 1 0;
#X connect 12 0 1 0;
#X connect 13 0 1 0;
#X connect 14 0 1 0;
#X connect 15 0 1 0;
#X connect 17 0 1 0;
#X connect 18 0 1 0;
#X connect 19 0 1 0;
#X connect 20 0 6 0;
#X connect 20 0 21 0;
#X connect 20 1 58 0;
#X connect 20 2 51 0;
#X connect 21 0 34 0;
#X connect 21 1 4 0;
#X connect 21 2 50 0;
#X connect 22 0 23 0;
#X connect 22 1 7 0;
#X connect 22 2 45 0;
#X connect 23 0 24 0;
#X connect 23 1 8 0;
#X connect 23 2 54 0;
#X connect 24 0 25 0;
#X connect 24 1 9 0;
#X connect 24 2 53 0;
#X connect 25 0 26 0;
#X connect 25 1 10 0;
#X connect 25 2 56 0;
#X connect 26 0 41 0;
#X connect 26 1 11 0;
#X connect 26 2 55 0;
#X connect 27 1 16 0;
#X connect 28 1 15 0;
#X connect 29 0 22 0;
#X connect 29 1 18 0;
#X connect 29 2 36 0;
#X connect 30 0 29 0;
#X connect 30 1 19 0;
#X connect 30 2 49 0;
#X connect 31 0 30 0;
#X connect 31 1 17 0;
#X connect 31 2 35 0;
#X connect 32 0 31 0;
#X connect 32 1 12 0;
#X connect 32 2 44 0;
#X connect 33 0 32 0;
#X connect 33 1 14 0;
#X connect 33 2 43 0;
#X connect 34 0 33 0;
#X connect 34 1 13 0;
#X connect 34 2 37 0;
#X connect 35 0 5 1;
#X connect 36 0 5 1;
#X connect 37 0 5 1;
#X connect 38 0 1 0;
#X connect 39 0 1 0;
#X connect 40 0 5 1;
#X connect 41 0 46 0;
#X connect 41 1 38 0;
#X connect 41 2 52 0;
#X connect 42 1 39 0;
#X connect 42 2 40 0;
#X connect 43 0 5 1;
#X connect 44 0 5 1;
#X connect 45 0 5 1;
#X connect 46 0 42 0;
#X connect 46 1 47 0;
#X connect 46 2 48 0;
#X connect 47 0 1 0;
#X connect 48 0 5 1;
#X connect 49 0 5 1;
#X connect 50 0 5 1;
#X connect 51 0 1 1;
#X connect 52 0 5 1;
#X connect 53 0 5 1;
#X connect 54 0 5 1;
#X connect 55 0 5 1;
#X connect 56 0 5 1;
#X connect 57 0 2 0;
#X connect 58 0 5 1;
#X restore 81 91 pd MN2RobeInit;
#N canvas 459 100 850 796 MN2BrasJardinInit 0;
#X obj 234 622 send OSC_MESSAGES;
#X obj 114 549 list prepend;
#X obj 71 43 bng 15 250 50 0 empty empty empty 17 7 0 10 -262144 -1
-1;
#X obj 114 572 l2s /;
#X msg 114 132 File;
#X obj 234 589 list;
#X msg 114 109 Zpos;
#X msg 114 326 RenderOrder;
#X msg 114 369 Yscale;
#X msg 114 389 Xscale;
#X msg 114 409 Ypos;
#X msg 114 429 Xpos;
#X msg 114 225 Blue;
#X msg 114 184 Red;
#X msg 114 205 Green;
#X msg 114 305 modeAlpha;
#X msg 114 348 Shape;
#X msg 114 245 Rotate;
#X msg 114 284 Alpha;
#X msg 114 264 Activate;
#X obj 71 62 t b b b;
#X obj 56 115 t b b b;
#X obj 56 309 t b b b;
#X obj 56 352 t b b b;
#X obj 56 372 t b b b;
#X obj 56 392 t b b b;
#X obj 56 412 t b b b;
#X obj 17 331 t b b b;
#X obj 16 288 t b b b;
#X obj 56 267 t b b b;
#X obj 56 247 t b b b;
#X obj 56 228 t b b b;
#X obj 56 208 t b b b;
#X obj 56 188 t b b b;
#X obj 56 167 t b b b;
#X msg 255 245 0;
#X msg 255 284 1;
#X msg 255 184 1;
#X msg 114 449 ParentName;
#X msg 114 489 g*pos;
#X msg 255 489 0;
#X obj 56 432 t b b b;
#X obj 56 472 t b b b;
#X msg 255 205 1;
#X msg 255 225 1;
#X msg 255 264 1;
#X msg 255 326 -20;
#X msg 255 369 0.25;
#X msg 255 389 0.21538;
#X msg 255 409 0;
#X obj 56 452 t b b b;
#X msg 114 469 Child/*pos;
#X msg 255 469 1;
#X msg 183 79 /DunjonDoor2;
#X msg 255 132 /home/woii/2013_Sebkha-ChottGalootFormula_ThingFish/ThingFishVideoDecorum/MammyNuns/data/MN2/mammy_nun_2_main_jardin.png
;
#X msg 255 449 /DunjonDoor1;
#X msg 255 429 -0.9;
#X obj 71 22 r MN2Init;
#X msg 255 109 -3.029;
#X connect 1 0 3 0;
#X connect 2 0 20 0;
#X connect 3 0 5 0;
#X connect 4 0 1 0;
#X connect 5 0 0 0;
#X connect 6 0 1 0;
#X connect 7 0 1 0;
#X connect 8 0 1 0;
#X connect 9 0 1 0;
#X connect 10 0 1 0;
#X connect 11 0 1 0;
#X connect 12 0 1 0;
#X connect 13 0 1 0;
#X connect 14 0 1 0;
#X connect 15 0 1 0;
#X connect 17 0 1 0;
#X connect 18 0 1 0;
#X connect 19 0 1 0;
#X connect 20 0 6 0;
#X connect 20 0 21 0;
#X connect 20 1 58 0;
#X connect 20 2 53 0;
#X connect 21 0 34 0;
#X connect 21 1 4 0;
#X connect 21 2 54 0;
#X connect 22 0 23 0;
#X connect 22 1 7 0;
#X connect 22 2 46 0;
#X connect 23 0 24 0;
#X connect 23 1 8 0;
#X connect 23 2 47 0;
#X connect 24 0 25 0;
#X connect 24 1 9 0;
#X connect 24 2 48 0;
#X connect 25 0 26 0;
#X connect 25 1 10 0;
#X connect 25 2 49 0;
#X connect 26 0 41 0;
#X connect 26 1 11 0;
#X connect 26 2 56 0;
#X connect 27 1 16 0;
#X connect 28 1 15 0;
#X connect 29 0 22 0;
#X connect 29 1 18 0;
#X connect 29 2 36 0;
#X connect 30 0 29 0;
#X connect 30 1 19 0;
#X connect 30 2 45 0;
#X connect 31 0 30 0;
#X connect 31 1 17 0;
#X connect 31 2 35 0;
#X connect 32 0 31 0;
#X connect 32 1 12 0;
#X connect 32 2 44 0;
#X connect 33 0 32 0;
#X connect 33 1 14 0;
#X connect 33 2 43 0;
#X connect 34 0 33 0;
#X connect 34 1 13 0;
#X connect 34 2 37 0;
#X connect 35 0 5 1;
#X connect 36 0 5 1;
#X connect 37 0 5 1;
#X connect 38 0 1 0;
#X connect 39 0 1 0;
#X connect 40 0 5 1;
#X connect 41 0 50 0;
#X connect 41 1 38 0;
#X connect 41 2 55 0;
#X connect 42 1 39 0;
#X connect 42 2 40 0;
#X connect 43 0 5 1;
#X connect 44 0 5 1;
#X connect 45 0 5 1;
#X connect 46 0 5 1;
#X connect 47 0 5 1;
#X connect 48 0 5 1;
#X connect 49 0 5 1;
#X connect 50 0 42 0;
#X connect 50 1 51 0;
#X connect 50 2 52 0;
#X connect 51 0 1 0;
#X connect 52 0 5 1;
#X connect 53 0 1 1;
#X connect 54 0 5 1;
#X connect 55 0 5 1;
#X connect 56 0 5 1;
#X connect 57 0 2 0;
#X connect 58 0 5 1;
#X restore 81 111 pd MN2BrasJardinInit;
#N canvas 453 100 850 796 MN2BrasCourInit 0;
#X obj 234 642 send OSC_MESSAGES;
#X obj 114 569 list prepend;
#X obj 71 43 bng 15 250 50 0 empty empty empty 17 7 0 10 -262144 -1
-1;
#X obj 114 592 l2s /;
#X msg 114 132 File;
#X obj 234 609 list;
#X msg 114 109 Zpos;
#X msg 114 326 RenderOrder;
#X msg 114 369 Yscale;
#X msg 114 389 Xscale;
#X msg 114 409 Ypos;
#X msg 114 429 Xpos;
#X msg 114 225 Blue;
#X msg 114 184 Red;
#X msg 114 205 Green;
#X msg 114 305 modeAlpha;
#X msg 114 348 Shape;
#X msg 114 245 Rotate;
#X msg 114 284 Alpha;
#X msg 114 264 Activate;
#X obj 71 62 t b b b;
#X obj 56 115 t b b b;
#X obj 56 309 t b b b;
#X obj 56 352 t b b b;
#X obj 56 372 t b b b;
#X obj 56 392 t b b b;
#X obj 56 412 t b b b;
#X obj 17 331 t b b b;
#X obj 16 288 t b b b;
#X obj 56 267 t b b b;
#X obj 56 247 t b b b;
#X obj 56 228 t b b b;
#X obj 56 208 t b b b;
#X obj 56 188 t b b b;
#X obj 56 167 t b b b;
#X msg 255 245 0;
#X msg 255 284 1;
#X msg 255 184 1;
#X msg 114 449 ParentName;
#X msg 114 489 g*pos;
#X msg 255 489 0;
#X obj 56 432 t b b b;
#X obj 56 472 t b b b;
#X msg 255 205 1;
#X msg 255 225 1;
#X msg 255 264 1;
#X msg 255 326 -20;
#X msg 255 369 0.25;
#X msg 255 389 0.21538;
#X msg 255 409 0;
#X obj 56 452 t b b b;
#X msg 114 469 Child/*pos;
#X msg 255 469 1;
#X msg 183 79 /DunjonDoor2Cadre;
#X obj 71 22 r MN2Init;
#X msg 255 449 /DunjonDoor1;
#X msg 255 132 /home/woii/2013_Sebkha-ChottGalootFormula_ThingFish/ThingFishVideoDecorum/MammyNuns/data/MN2/mammy_nun_2_main_cour.png
;
#X msg 255 429 0.7;
#X msg 255 109 -3.029;
#X connect 1 0 3 0;
#X connect 2 0 20 0;
#X connect 3 0 5 0;
#X connect 4 0 1 0;
#X connect 5 0 0 0;
#X connect 6 0 1 0;
#X connect 7 0 1 0;
#X connect 8 0 1 0;
#X connect 9 0 1 0;
#X connect 10 0 1 0;
#X connect 11 0 1 0;
#X connect 12 0 1 0;
#X connect 13 0 1 0;
#X connect 14 0 1 0;
#X connect 15 0 1 0;
#X connect 17 0 1 0;
#X connect 18 0 1 0;
#X connect 19 0 1 0;
#X connect 20 0 6 0;
#X connect 20 0 21 0;
#X connect 20 1 58 0;
#X connect 20 2 53 0;
#X connect 21 0 34 0;
#X connect 21 1 4 0;
#X connect 21 2 56 0;
#X connect 22 0 23 0;
#X connect 22 1 7 0;
#X connect 22 2 46 0;
#X connect 23 0 24 0;
#X connect 23 1 8 0;
#X connect 23 2 47 0;
#X connect 24 0 25 0;
#X connect 24 1 9 0;
#X connect 24 2 48 0;
#X connect 25 0 26 0;
#X connect 25 1 10 0;
#X connect 25 2 49 0;
#X connect 26 0 41 0;
#X connect 26 1 11 0;
#X connect 26 2 57 0;
#X connect 27 1 16 0;
#X connect 28 1 15 0;
#X connect 29 0 22 0;
#X connect 29 1 18 0;
#X connect 29 2 36 0;
#X connect 30 0 29 0;
#X connect 30 1 19 0;
#X connect 30 2 45 0;
#X connect 31 0 30 0;
#X connect 31 1 17 0;
#X connect 31 2 35 0;
#X connect 32 0 31 0;
#X connect 32 1 12 0;
#X connect 32 2 44 0;
#X connect 33 0 32 0;
#X connect 33 1 14 0;
#X connect 33 2 43 0;
#X connect 34 0 33 0;
#X connect 34 1 13 0;
#X connect 34 2 37 0;
#X connect 35 0 5 1;
#X connect 36 0 5 1;
#X connect 37 0 5 1;
#X connect 38 0 1 0;
#X connect 39 0 1 0;
#X connect 40 0 5 1;
#X connect 41 0 50 0;
#X connect 41 1 38 0;
#X connect 41 2 55 0;
#X connect 42 1 39 0;
#X connect 42 2 40 0;
#X connect 43 0 5 1;
#X connect 44 0 5 1;
#X connect 45 0 5 1;
#X connect 46 0 5 1;
#X connect 47 0 5 1;
#X connect 48 0 5 1;
#X connect 49 0 5 1;
#X connect 50 0 42 0;
#X connect 50 1 51 0;
#X connect 50 2 52 0;
#X connect 51 0 1 0;
#X connect 52 0 5 1;
#X connect 53 0 1 1;
#X connect 54 0 2 0;
#X connect 55 0 5 1;
#X connect 56 0 5 1;
#X connect 57 0 5 1;
#X connect 58 0 5 1;
#X restore 81 131 pd MN2BrasCourInit;
#N canvas 471 100 850 796 MN2PiedJardinInit 0;
#X obj 234 602 send OSC_MESSAGES;
#X obj 114 529 list prepend;
#X obj 71 43 bng 15 250 50 0 empty empty empty 17 7 0 10 -262144 -1
-1;
#X obj 114 552 l2s /;
#X msg 114 132 File;
#X obj 234 569 list;
#X msg 114 109 Zpos;
#X msg 114 326 RenderOrder;
#X msg 114 369 Yscale;
#X msg 114 389 Xscale;
#X msg 114 409 Ypos;
#X msg 114 429 Xpos;
#X msg 114 225 Blue;
#X msg 114 184 Red;
#X msg 114 205 Green;
#X msg 114 305 modeAlpha;
#X msg 114 348 Shape;
#X msg 114 245 Rotate;
#X msg 114 284 Alpha;
#X msg 114 264 Activate;
#X obj 71 62 t b b b;
#X obj 56 115 t b b b;
#X obj 56 309 t b b b;
#X obj 56 352 t b b b;
#X obj 56 372 t b b b;
#X obj 56 392 t b b b;
#X obj 56 412 t b b b;
#X obj 17 331 t b b b;
#X obj 16 288 t b b b;
#X obj 56 267 t b b b;
#X obj 56 247 t b b b;
#X obj 56 228 t b b b;
#X obj 56 208 t b b b;
#X obj 56 188 t b b b;
#X obj 56 167 t b b b;
#X msg 255 245 0;
#X msg 255 284 1;
#X msg 255 184 1;
#X msg 114 449 ParentName;
#X msg 114 489 g*pos;
#X msg 255 489 0;
#X obj 56 432 t b b b;
#X obj 56 472 t b b b;
#X msg 255 205 1;
#X msg 255 225 1;
#X msg 255 264 1;
#X msg 255 109 -3.0311;
#X msg 255 326 -22;
#X obj 56 452 t b b b;
#X msg 114 469 Child/*pos;
#X msg 255 469 1;
#X obj 71 22 r MN2Init;
#X msg 183 79 /DunjonDoor3;
#X msg 255 449 /DunjonDoor1;
#X msg 255 132 /home/woii/2013_Sebkha-ChottGalootFormula_ThingFish/ThingFishVideoDecorum/MammyNuns/data/MN2/mammy_nun_2_pied_jardin.png
;
#X msg 255 369 0.30769;
#X msg 255 389 0.2423;
#X msg 255 429 -0.35;
#X msg 255 409 -1.25;
#X connect 1 0 3 0;
#X connect 2 0 20 0;
#X connect 3 0 5 0;
#X connect 4 0 1 0;
#X connect 5 0 0 0;
#X connect 6 0 1 0;
#X connect 7 0 1 0;
#X connect 8 0 1 0;
#X connect 9 0 1 0;
#X connect 10 0 1 0;
#X connect 11 0 1 0;
#X connect 12 0 1 0;
#X connect 13 0 1 0;
#X connect 14 0 1 0;
#X connect 15 0 1 0;
#X connect 17 0 1 0;
#X connect 18 0 1 0;
#X connect 19 0 1 0;
#X connect 20 0 6 0;
#X connect 20 0 21 0;
#X connect 20 1 46 0;
#X connect 20 2 52 0;
#X connect 21 0 34 0;
#X connect 21 1 4 0;
#X connect 21 2 54 0;
#X connect 22 0 23 0;
#X connect 22 1 7 0;
#X connect 22 2 47 0;
#X connect 23 0 24 0;
#X connect 23 1 8 0;
#X connect 23 2 55 0;
#X connect 24 0 25 0;
#X connect 24 1 9 0;
#X connect 24 2 56 0;
#X connect 25 0 26 0;
#X connect 25 1 10 0;
#X connect 25 2 58 0;
#X connect 26 0 41 0;
#X connect 26 1 11 0;
#X connect 26 2 57 0;
#X connect 27 1 16 0;
#X connect 28 1 15 0;
#X connect 29 0 22 0;
#X connect 29 1 18 0;
#X connect 29 2 36 0;
#X connect 30 0 29 0;
#X connect 30 1 19 0;
#X connect 30 2 45 0;
#X connect 31 0 30 0;
#X connect 31 1 17 0;
#X connect 31 2 35 0;
#X connect 32 0 31 0;
#X connect 32 1 12 0;
#X connect 32 2 44 0;
#X connect 33 0 32 0;
#X connect 33 1 14 0;
#X connect 33 2 43 0;
#X connect 34 0 33 0;
#X connect 34 1 13 0;
#X connect 34 2 37 0;
#X connect 35 0 5 1;
#X connect 36 0 5 1;
#X connect 37 0 5 1;
#X connect 38 0 1 0;
#X connect 39 0 1 0;
#X connect 40 0 5 1;
#X connect 41 0 48 0;
#X connect 41 1 38 0;
#X connect 41 2 53 0;
#X connect 42 1 39 0;
#X connect 42 2 40 0;
#X connect 43 0 5 1;
#X connect 44 0 5 1;
#X connect 45 0 5 1;
#X connect 46 0 5 1;
#X connect 47 0 5 1;
#X connect 48 0 42 0;
#X connect 48 1 49 0;
#X connect 48 2 50 0;
#X connect 49 0 1 0;
#X connect 50 0 5 1;
#X connect 51 0 2 0;
#X connect 52 0 1 1;
#X connect 53 0 5 1;
#X connect 54 0 5 1;
#X connect 55 0 5 1;
#X connect 56 0 5 1;
#X connect 57 0 5 1;
#X connect 58 0 5 1;
#X restore 81 151 pd MN2PiedJardinInit;
#N canvas 467 100 850 796 MN2PiedCourInit 0;
#X obj 234 612 send OSC_MESSAGES;
#X obj 114 539 list prepend;
#X obj 71 43 bng 15 250 50 0 empty empty empty 17 7 0 10 -262144 -1
-1;
#X obj 114 562 l2s /;
#X msg 114 132 File;
#X obj 234 579 list;
#X msg 114 109 Zpos;
#X msg 114 326 RenderOrder;
#X msg 114 369 Yscale;
#X msg 114 389 Xscale;
#X msg 114 409 Ypos;
#X msg 114 429 Xpos;
#X msg 114 225 Blue;
#X msg 114 184 Red;
#X msg 114 205 Green;
#X msg 114 305 modeAlpha;
#X msg 114 348 Shape;
#X msg 114 245 Rotate;
#X msg 114 284 Alpha;
#X msg 114 264 Activate;
#X obj 71 62 t b b b;
#X obj 56 115 t b b b;
#X obj 56 309 t b b b;
#X obj 56 352 t b b b;
#X obj 56 372 t b b b;
#X obj 56 392 t b b b;
#X obj 56 412 t b b b;
#X obj 17 331 t b b b;
#X obj 16 288 t b b b;
#X obj 56 267 t b b b;
#X obj 56 247 t b b b;
#X obj 56 228 t b b b;
#X obj 56 208 t b b b;
#X obj 56 188 t b b b;
#X obj 56 167 t b b b;
#X msg 255 245 0;
#X msg 255 284 1;
#X msg 255 184 1;
#X msg 114 449 ParentName;
#X msg 114 489 g*pos;
#X msg 255 489 0;
#X obj 56 432 t b b b;
#X obj 56 472 t b b b;
#X msg 255 205 1;
#X msg 255 225 1;
#X msg 255 264 1;
#X msg 255 109 -3.0311;
#X msg 255 326 -22;
#X obj 56 452 t b b b;
#X msg 114 469 Child/*pos;
#X msg 255 469 1;
#X obj 71 22 r MN2Init;
#X msg 255 132 /home/woii/2013_Sebkha-ChottGalootFormula_ThingFish/ThingFishVideoDecorum/MammyNuns/data/MN2/mammy_nun_2_pied_cour.png
;
#X msg 255 449 /DunjonDoor1;
#X msg 255 389 0.27307;
#X msg 255 369 0.32692;
#X msg 255 429 0.48;
#X msg 255 409 -1.2;
#X msg 183 79 /DunjonDoor3Cadre;
#X connect 1 0 3 0;
#X connect 2 0 20 0;
#X connect 3 0 5 0;
#X connect 4 0 1 0;
#X connect 5 0 0 0;
#X connect 6 0 1 0;
#X connect 7 0 1 0;
#X connect 8 0 1 0;
#X connect 9 0 1 0;
#X connect 10 0 1 0;
#X connect 11 0 1 0;
#X connect 12 0 1 0;
#X connect 13 0 1 0;
#X connect 14 0 1 0;
#X connect 15 0 1 0;
#X connect 17 0 1 0;
#X connect 18 0 1 0;
#X connect 19 0 1 0;
#X connect 20 0 6 0;
#X connect 20 0 21 0;
#X connect 20 1 46 0;
#X connect 20 2 58 0;
#X connect 21 0 34 0;
#X connect 21 1 4 0;
#X connect 21 2 52 0;
#X connect 22 0 23 0;
#X connect 22 1 7 0;
#X connect 22 2 47 0;
#X connect 23 0 24 0;
#X connect 23 1 8 0;
#X connect 23 2 55 0;
#X connect 24 0 25 0;
#X connect 24 1 9 0;
#X connect 24 2 54 0;
#X connect 25 0 26 0;
#X connect 25 1 10 0;
#X connect 25 2 57 0;
#X connect 26 0 41 0;
#X connect 26 1 11 0;
#X connect 26 2 56 0;
#X connect 27 1 16 0;
#X connect 28 1 15 0;
#X connect 29 0 22 0;
#X connect 29 1 18 0;
#X connect 29 2 36 0;
#X connect 30 0 29 0;
#X connect 30 1 19 0;
#X connect 30 2 45 0;
#X connect 31 0 30 0;
#X connect 31 1 17 0;
#X connect 31 2 35 0;
#X connect 32 0 31 0;
#X connect 32 1 12 0;
#X connect 32 2 44 0;
#X connect 33 0 32 0;
#X connect 33 1 14 0;
#X connect 33 2 43 0;
#X connect 34 0 33 0;
#X connect 34 1 13 0;
#X connect 34 2 37 0;
#X connect 35 0 5 1;
#X connect 36 0 5 1;
#X connect 37 0 5 1;
#X connect 38 0 1 0;
#X connect 39 0 1 0;
#X connect 40 0 5 1;
#X connect 41 0 48 0;
#X connect 41 1 38 0;
#X connect 41 2 53 0;
#X connect 42 1 39 0;
#X connect 42 2 40 0;
#X connect 43 0 5 1;
#X connect 44 0 5 1;
#X connect 45 0 5 1;
#X connect 46 0 5 1;
#X connect 47 0 5 1;
#X connect 48 0 42 0;
#X connect 48 1 49 0;
#X connect 48 2 50 0;
#X connect 49 0 1 0;
#X connect 50 0 5 1;
#X connect 51 0 2 0;
#X connect 52 0 5 1;
#X connect 53 0 5 1;
#X connect 54 0 5 1;
#X connect 55 0 5 1;
#X connect 56 0 5 1;
#X connect 57 0 5 1;
#X connect 58 0 1 1;
#X restore 81 171 pd MN2PiedCourInit;
#N canvas 467 100 850 796 MN2UrineInit 0;
#X obj 234 612 send OSC_MESSAGES;
#X obj 114 539 list prepend;
#X obj 71 43 bng 15 250 50 0 empty empty empty 17 7 0 10 -262144 -1
-1;
#X obj 114 562 l2s /;
#X msg 114 132 File;
#X obj 234 579 list;
#X msg 114 109 Zpos;
#X msg 114 326 RenderOrder;
#X msg 114 369 Yscale;
#X msg 114 389 Xscale;
#X msg 114 409 Ypos;
#X msg 114 429 Xpos;
#X msg 114 225 Blue;
#X msg 114 184 Red;
#X msg 114 205 Green;
#X msg 114 305 modeAlpha;
#X msg 114 348 Shape;
#X msg 114 245 Rotate;
#X msg 114 284 Alpha;
#X msg 114 264 Activate;
#X obj 71 62 t b b b;
#X obj 56 115 t b b b;
#X obj 56 309 t b b b;
#X obj 56 352 t b b b;
#X obj 56 372 t b b b;
#X obj 56 392 t b b b;
#X obj 56 412 t b b b;
#X obj 17 331 t b b b;
#X obj 16 288 t b b b;
#X obj 56 267 t b b b;
#X obj 56 247 t b b b;
#X obj 56 228 t b b b;
#X obj 56 208 t b b b;
#X obj 56 188 t b b b;
#X obj 56 167 t b b b;
#X msg 255 284 1;
#X msg 255 184 1;
#X msg 114 449 ParentName;
#X msg 114 489 g*pos;
#X msg 255 489 0;
#X obj 56 432 t b b b;
#X obj 56 472 t b b b;
#X msg 255 205 1;
#X msg 255 225 1;
#X obj 56 452 t b b b;
#X msg 114 469 Child/*pos;
#X msg 255 469 1;
#X msg 255 109 -3.0305;
#X msg 255 326 -21;
#X msg 255 245 0;
#X msg 183 79 /DunjonDoor4;
#X msg 255 449 /DunjonDoor1;
#X obj 71 22 r MN2Init;
#X msg 255 389 0.39615;
#X msg 255 132 /home/woii/2013_Sebkha-ChottGalootFormula_ThingFish/ThingFishVideoDecorum/MammyNuns/data/MN2/mammy_nun_2_pied_pisse.png
;
#X msg 255 369 0.60384;
#X msg 255 409 -0.95;
#X msg 255 429 -0.85;
#X msg 255 264 0;
#X connect 1 0 3 0;
#X connect 2 0 20 0;
#X connect 3 0 5 0;
#X connect 4 0 1 0;
#X connect 5 0 0 0;
#X connect 6 0 1 0;
#X connect 7 0 1 0;
#X connect 8 0 1 0;
#X connect 9 0 1 0;
#X connect 10 0 1 0;
#X connect 11 0 1 0;
#X connect 12 0 1 0;
#X connect 13 0 1 0;
#X connect 14 0 1 0;
#X connect 15 0 1 0;
#X connect 17 0 1 0;
#X connect 18 0 1 0;
#X connect 19 0 1 0;
#X connect 20 0 6 0;
#X connect 20 0 21 0;
#X connect 20 1 47 0;
#X connect 20 2 50 0;
#X connect 21 0 34 0;
#X connect 21 1 4 0;
#X connect 21 2 54 0;
#X connect 22 0 23 0;
#X connect 22 1 7 0;
#X connect 22 2 48 0;
#X connect 23 0 24 0;
#X connect 23 1 8 0;
#X connect 23 2 55 0;
#X connect 24 0 25 0;
#X connect 24 1 9 0;
#X connect 24 2 53 0;
#X connect 25 0 26 0;
#X connect 25 1 10 0;
#X connect 25 2 56 0;
#X connect 26 0 40 0;
#X connect 26 1 11 0;
#X connect 26 2 57 0;
#X connect 27 1 16 0;
#X connect 28 1 15 0;
#X connect 29 0 22 0;
#X connect 29 1 18 0;
#X connect 29 2 35 0;
#X connect 30 0 29 0;
#X connect 30 1 19 0;
#X connect 30 2 58 0;
#X connect 31 0 30 0;
#X connect 31 1 17 0;
#X connect 31 2 49 0;
#X connect 32 0 31 0;
#X connect 32 1 12 0;
#X connect 32 2 43 0;
#X connect 33 0 32 0;
#X connect 33 1 14 0;
#X connect 33 2 42 0;
#X connect 34 0 33 0;
#X connect 34 1 13 0;
#X connect 34 2 36 0;
#X connect 35 0 5 1;
#X connect 36 0 5 1;
#X connect 37 0 1 0;
#X connect 38 0 1 0;
#X connect 39 0 5 1;
#X connect 40 0 44 0;
#X connect 40 1 37 0;
#X connect 40 2 51 0;
#X connect 41 1 38 0;
#X connect 41 2 39 0;
#X connect 42 0 5 1;
#X connect 43 0 5 1;
#X connect 44 0 41 0;
#X connect 44 1 45 0;
#X connect 44 2 46 0;
#X connect 45 0 1 0;
#X connect 46 0 5 1;
#X connect 47 0 5 1;
#X connect 48 0 5 1;
#X connect 49 0 5 1;
#X connect 50 0 1 1;
#X connect 51 0 5 1;
#X connect 52 0 2 0;
#X connect 53 0 5 1;
#X connect 54 0 5 1;
#X connect 55 0 5 1;
#X connect 56 0 5 1;
#X connect 57 0 5 1;
#X connect 58 0 5 1;
#X restore 81 191 pd MN2UrineInit;
#X obj 116 338 s MN2EarlyInit;
#X obj 89 368 s MN2Init;
#X msg 363 328 /DunjonDoor1/Xpos \$1;
#N canvas 668 343 450 300 MN2Moves 1;
#N canvas 0 100 1440 800 MN2Dances 0;
#X obj 23 14 r MNDance;
#X obj 23 45 bng 15 250 50 0 empty empty empty 17 7 0 10 -262144 -1
-1;
#X obj 23 81 metro 500;
#X obj 74 54 r TempoDance;
#X msg 198 64 stop;
#X obj 198 29 r MNStopDancing;
#X obj 23 137 delay 250;
#X obj 74 111 / 2;
#X obj 23 335 line;
#X obj 23 219 + 0.2;
#X msg 23 261 set \$1 100;
#X msg 23 291 -1.05 100;
#X msg 141 196 set \$1 100;
#X msg 141 318 -1.25 100;
#X obj 141 154 delay 100;
#X obj 94 459 s OSC_MESSAGES;
#X obj 210 333 line;
#X obj 210 222 + 0.2;
#X msg 210 265 set \$1 100;
#X msg 210 300 -1 100;
#X msg 385 115 set \$1 100;
#X msg 385 282 -1.2 100;
#X obj 211 133 delay 100;
#X obj 483 147 delay 250;
#X obj 534 111 / 2;
#X obj 483 335 line;
#X obj 483 219 + 0.2;
#X msg 483 261 set \$1 100;
#X msg 483 291 0.32 100;
#X msg 601 196 set \$1 100;
#X msg 601 318 0.12 100;
#X obj 601 164 delay 100;
#X obj 554 459 s OSC_MESSAGES;
#X obj 210 98 v /DunjonDoor3Cadre/Ypos;
#X msg 210 378 /DunjonDoor3Cadre/Ypos \$1;
#X msg 23 382 /DunjonDoor3/Ypos \$1;
#X obj 23 179 v /DunjonDoor3/Ypos;
#X obj 483 179 v /DunjonDoor2Cadre/Ypos;
#X msg 483 382 /DunjonDoor2*/Ypos \$1;
#X obj 23 114 t b b;
#X obj 23 156 t b b;
#X obj 554 3 r MN2StopHands;
#X obj 521 426 spigot;
#X msg 554 31 0;
#X msg 554 60 1;
#X obj 363 606 random 20;
#X obj 363 648 - 10;
#X msg 363 707 \$1 250;
#X obj 363 732 line;
#X obj 584 595 t b b;
#X obj 614 623 random 10;
#X obj 607 667 / 100;
#X obj 678 756 line;
#X msg 751 703 1.14769 125;
#X obj 644 685 +;
#X obj 607 643 - 5;
#X msg 661 710 set \$1 125;
#X msg 850 661 set \$1 125;
#X msg 855 700 1.10769 125;
#X obj 1004 664 delay 125;
#X msg 363 757 /DjventiloPales/Rotate \$1;
#X obj 735 631 v /DunjonDoor1/Yscale;
#X msg 803 754 /DunjonDoor1/Yscale \$1;
#X connect 0 0 1 0;
#X connect 1 0 2 0;
#X connect 1 0 44 0;
#X connect 2 0 6 0;
#X connect 2 0 22 0;
#X connect 2 0 23 0;
#X connect 2 0 39 0;
#X connect 2 0 45 0;
#X connect 2 0 49 0;
#X connect 3 0 2 1;
#X connect 3 0 7 0;
#X connect 3 0 24 0;
#X connect 4 0 2 0;
#X connect 5 0 4 0;
#X connect 6 0 14 0;
#X connect 6 0 40 0;
#X connect 7 0 6 1;
#X connect 8 0 35 0;
#X connect 9 0 10 0;
#X connect 10 0 11 0;
#X connect 11 0 8 0;
#X connect 12 0 13 0;
#X connect 13 0 8 0;
#X connect 14 0 13 0;
#X connect 16 0 34 0;
#X connect 17 0 18 0;
#X connect 18 0 19 0;
#X connect 19 0 16 0;
#X connect 20 0 21 0;
#X connect 21 0 16 0;
#X connect 22 0 21 0;
#X connect 23 0 31 0;
#X connect 23 0 28 0;
#X connect 23 0 37 0;
#X connect 24 0 23 1;
#X connect 25 0 38 0;
#X connect 26 0 27 0;
#X connect 27 0 28 0;
#X connect 28 0 25 0;
#X connect 29 0 30 0;
#X connect 30 0 25 0;
#X connect 31 0 30 0;
#X connect 33 0 17 0;
#X connect 33 0 20 0;
#X connect 34 0 15 0;
#X connect 35 0 15 0;
#X connect 36 0 9 0;
#X connect 36 0 12 0;
#X connect 37 0 26 0;
#X connect 37 0 29 0;
#X connect 38 0 42 0;
#X connect 39 0 19 0;
#X connect 39 1 33 0;
#X connect 40 0 11 0;
#X connect 40 1 36 0;
#X connect 41 0 43 0;
#X connect 42 0 32 0;
#X connect 43 0 42 1;
#X connect 44 0 42 1;
#X connect 45 0 46 0;
#X connect 46 0 47 0;
#X connect 47 0 48 0;
#X connect 48 0 60 0;
#X connect 49 0 50 0;
#X connect 49 0 53 0;
#X connect 49 0 59 0;
#X connect 49 1 61 0;
#X connect 50 0 55 0;
#X connect 51 0 54 0;
#X connect 52 0 62 0;
#X connect 53 0 52 0;
#X connect 54 0 56 0;
#X connect 55 0 51 0;
#X connect 56 0 53 0;
#X connect 57 0 58 0;
#X connect 58 0 52 0;
#X connect 59 0 58 0;
#X connect 60 0 15 0;
#X connect 61 0 52 0;
#X connect 61 0 54 1;
#X connect 61 0 57 0;
#X connect 62 0 15 0;
#X restore 34 23 pd MN2Dances;
#N canvas 0 100 1440 800 MN2Pees 1;
#X obj 48 36 r MNPee;
#X obj 79 496 s OSC_MESSAGES;
#X obj 79 422 line;
#X obj 309 422 line;
#X obj 48 296 t b b;
#X msg 48 405 0.1 300;
#X obj 665 270 bng 15 250 50 0 empty empty empty 17 7 0 10 -262144
-1 -1;
#X obj 665 450 line;
#X obj 915 446 line;
#X msg 915 315 0;
#X msg 665 383 set \$1 200;
#X msg 665 412 0.07923 200;
#X msg 915 383 set \$1 200;
#X msg 915 409 0.120768 200;
#X obj 665 298 t b b b;
#X obj 1155 446 line;
#X msg 1155 383 set \$1 200;
#X msg 1155 409 -0.59 200;
#X msg 1155 315 -0.5;
#X msg 349 405 0.1 300;
#X obj 1335 446 line;
#X msg 1335 383 set \$1 200;
#X msg 1335 409 -0.61 200;
#X obj 1335 290 + 0.3;
#X msg 1335 315 \$1;
#X obj 1155 290 + 0.65;
#X obj 82 670 line;
#X obj 66 557 bng 15 250 50 0 empty empty empty 17 7 0 10 -262144 -1
-1;
#X obj 72 753 s OSC_MESSAGES;
#X msg 125 623 set \$1 200;
#X msg 136 653 -0.82 200;
#X obj 251 572 t b b;
#X obj 278 608 delay 200;
#X msg 277 668 0.08 300;
#X obj 372 670 line;
#X msg 415 623 set \$1 200;
#X msg 426 653 -36 200;
#X obj 95 279 delay 200;
#X obj 67 255 bng 15 250 50 0 empty empty empty 17 7 0 10 -262144 -1
-1;
#X obj 542 670 line;
#X msg 585 623 set \$1 200;
#X msg 596 653 -0.78 200;
#X obj 672 670 line;
#X msg 715 623 set \$1 200;
#X msg 726 653 -0.58 200;
#X obj 841 572 t b b;
#X obj 868 608 delay 200;
#X msg 867 668 0.12 300;
#X obj 962 670 line;
#X msg 1005 623 set \$1 200;
#X msg 1016 653 36 200;
#X obj 1152 670 line;
#X msg 1195 623 set \$1 200;
#X msg 1206 653 0.58 200;
#X obj 700 613 - 0.6;
#X obj 48 59 bng 15 250 50 0 empty empty empty 17 7 0 10 -262144 -1
-1;
#X obj 47 149 delay 600;
#X obj 877 182 metro 100;
#X msg 975 265 set \$1 50;
#X msg 975 293 0.120768 50;
#X obj 971 161 + 0.01;
#X msg 1040 182 set \$1 50;
#X msg 1114 170 0.130768 50;
#X obj 888 219 delay 50;
#X obj 773 278 delay 210;
#X obj 837 126 r MNStopPeeing;
#X msg 843 154 stop;
#X obj 79 340 v /DunjonDoor1Cadre/Yscale;
#X msg 79 444 /DunjonDoor1Cadre/Yscale \$1;
#X obj 299 340 v /DunjonDoor1Cadre/Ypos;
#X msg 309 444 /DunjonDoor1Cadre/Ypos \$1;
#X msg 665 533 /DunjonDoor4/Activate 1;
#X msg 665 479 /DunjonDoor4/Xscale \$1;
#X msg 915 479 /DunjonDoor4/Yscale \$1;
#X msg 1155 479 /DunjonDoor4/Ypos \$1;
#X msg 1335 479 /DunjonDoor4/Xpos \$1;
#X obj 1335 346 v /DunjonDoor4/Xpos;
#X obj 1155 346 v /DunjonDoor4/Ypos;
#X obj 915 346 v /DunjonDoor4/Yscale;
#X obj 665 346 v /DunjonDoor4/Xscale;
#X msg 1026 214 /DunjonDoor4/Yscale \$1;
#X obj 82 589 v /DunjonDoor2/Ypos;
#X obj 542 589 v /DunjonDoor2/Xpos;
#X msg 542 701 /DunjonDoor2/Xpos \$1;
#X obj 672 589 v /DunjonDoor2Cadre/Ypos;
#X msg 672 701 /DunjonDoor2Cadre/Ypos \$1;
#X msg 1152 701 /DunjonDoor2Cadre/Xpos \$1;
#X obj 1152 589 v /DunjonDoor2Cadre/Xpos;
#X msg 82 701 /DunjonDoor2/Ypos \$1;
#X obj 372 589 v /DunjonDoor2/Rotate;
#X obj 400 613 - 30;
#X msg 372 701 /DunjonDoor2/Rotate \$1;
#X obj 110 613 - 0.8;
#X obj 233 632 + 0.1;
#X obj 570 613 + 0.1;
#X msg 273 642 set \$1 300;
#X obj 962 589 v /DunjonDoor2Cadre/Rotate;
#X obj 990 613 + 30;
#X msg 962 701 /DunjonDoor2Cadre/Rotate \$1;
#X obj 1180 613 - 0.1;
#X obj 235 74 s MN2StopHands;
#X obj 48 80 delay 150;
#X obj 823 632 + 0.1;
#X msg 863 642 set \$1 300;
#X obj 48 113 s MN2SoulevageJupe;
#X obj 48 227 r MN2SoulevageJupe;
#X obj 47 185 s MN2StartsPeeing;
#X obj 665 243 r MN2StartsPeeing;
#X connect 0 0 55 0;
#X connect 2 0 68 0;
#X connect 3 0 70 0;
#X connect 4 0 19 0;
#X connect 4 0 5 0;
#X connect 4 1 67 0;
#X connect 4 1 69 0;
#X connect 5 0 2 0;
#X connect 6 0 14 0;
#X connect 7 0 72 0;
#X connect 8 0 73 0;
#X connect 9 0 7 0;
#X connect 9 0 8 0;
#X connect 10 0 11 0;
#X connect 11 0 7 0;
#X connect 12 0 13 0;
#X connect 13 0 8 0;
#X connect 14 0 71 0;
#X connect 14 0 11 0;
#X connect 14 0 13 0;
#X connect 14 0 17 0;
#X connect 14 0 22 0;
#X connect 14 1 9 0;
#X connect 14 2 64 0;
#X connect 14 2 76 0;
#X connect 14 2 77 0;
#X connect 14 2 78 0;
#X connect 14 2 79 0;
#X connect 15 0 74 0;
#X connect 16 0 17 0;
#X connect 17 0 15 0;
#X connect 18 0 15 0;
#X connect 19 0 3 0;
#X connect 20 0 75 0;
#X connect 21 0 22 0;
#X connect 22 0 20 0;
#X connect 23 0 24 0;
#X connect 24 0 20 0;
#X connect 25 0 18 0;
#X connect 26 0 88 0;
#X connect 27 0 31 0;
#X connect 27 0 45 0;
#X connect 29 0 30 0;
#X connect 30 0 26 0;
#X connect 31 0 30 0;
#X connect 31 0 41 0;
#X connect 31 0 36 0;
#X connect 31 1 32 0;
#X connect 31 1 81 0;
#X connect 31 1 82 0;
#X connect 31 1 89 0;
#X connect 32 0 33 0;
#X connect 33 0 26 0;
#X connect 34 0 91 0;
#X connect 35 0 36 0;
#X connect 36 0 34 0;
#X connect 37 0 4 0;
#X connect 38 0 37 0;
#X connect 38 0 27 0;
#X connect 39 0 83 0;
#X connect 40 0 41 0;
#X connect 41 0 39 0;
#X connect 42 0 85 0;
#X connect 43 0 44 0;
#X connect 44 0 42 0;
#X connect 45 0 44 0;
#X connect 45 0 53 0;
#X connect 45 0 50 0;
#X connect 45 1 46 0;
#X connect 45 1 84 0;
#X connect 45 1 87 0;
#X connect 45 1 96 0;
#X connect 46 0 47 0;
#X connect 47 0 42 0;
#X connect 48 0 98 0;
#X connect 49 0 50 0;
#X connect 50 0 48 0;
#X connect 51 0 86 0;
#X connect 52 0 53 0;
#X connect 53 0 51 0;
#X connect 54 0 43 0;
#X connect 55 0 100 0;
#X connect 55 0 101 0;
#X connect 56 0 106 0;
#X connect 57 0 63 0;
#X connect 57 0 59 0;
#X connect 58 0 59 0;
#X connect 59 0 80 0;
#X connect 60 0 61 0;
#X connect 61 0 62 0;
#X connect 62 0 80 0;
#X connect 63 0 62 0;
#X connect 64 0 57 0;
#X connect 65 0 66 0;
#X connect 66 0 57 0;
#X connect 67 0 2 0;
#X connect 68 0 1 0;
#X connect 69 0 3 0;
#X connect 70 0 1 0;
#X connect 71 0 1 0;
#X connect 72 0 1 0;
#X connect 73 0 1 0;
#X connect 74 0 1 0;
#X connect 75 0 1 0;
#X connect 76 0 21 0;
#X connect 76 0 23 0;
#X connect 77 0 16 0;
#X connect 77 0 25 0;
#X connect 78 0 12 0;
#X connect 78 0 58 0;
#X connect 78 0 60 0;
#X connect 79 0 10 0;
#X connect 80 0 1 0;
#X connect 81 0 26 0;
#X connect 81 0 92 0;
#X connect 81 0 93 0;
#X connect 82 0 39 0;
#X connect 82 0 94 0;
#X connect 83 0 28 0;
#X connect 84 0 42 0;
#X connect 84 0 54 0;
#X connect 84 0 102 0;
#X connect 85 0 28 0;
#X connect 86 0 28 0;
#X connect 87 0 51 0;
#X connect 87 0 99 0;
#X connect 88 0 28 0;
#X connect 89 0 34 0;
#X connect 89 0 90 0;
#X connect 90 0 35 0;
#X connect 91 0 28 0;
#X connect 92 0 29 0;
#X connect 93 0 95 0;
#X connect 94 0 40 0;
#X connect 95 0 33 0;
#X connect 96 0 48 0;
#X connect 96 0 97 0;
#X connect 97 0 49 0;
#X connect 98 0 28 0;
#X connect 99 0 52 0;
#X connect 101 0 56 0;
#X connect 101 0 104 0;
#X connect 102 0 103 0;
#X connect 103 0 47 0;
#X connect 105 0 38 0;
#X connect 107 0 6 0;
#X restore 36 66 pd MN2Pees;
#X restore 917 119 pd MN2Moves;
#X obj 89 266 r MNInit;
#X connect 0 0 1 0;
#X connect 1 0 14 0;
#X connect 1 1 13 0;
#X connect 2 0 15 0;
#X connect 4 0 2 0;
#X connect 15 0 3 0;
#X connect 17 0 0 0;
