#N canvas 0 49 1920 1031 10;
#X declare -path ./lib/sssad;
#X declare -path ./lib/sssad;
#X declare -path ./lib/sssad;
#X declare -path ./lib/sssad;
#X declare -path ./lib/sssad;
#X declare -path ./lib/sssad;
#X declare -path ./lib/sssad;
#X declare -path ./lib/sssad;
#X declare -path ./lib/sssad;
#X declare -path ./lib/sssad;
#X obj 38 27 zac.lumiere /MN1Col;
#X obj 38 213 zac.lumiere /MN1HandCour;
#X obj 38 399 zac.lumiere /MN1HandJardin;
#X obj 38 585 zac.lumiere /MN1Robe;
#X obj 38 771 zac.lumiere /MN1HeadContour;
#X obj 291 27 zac.lumiere /MN1FootCour;
#X obj 291 213 zac.lumiere /MN1FootJardin;
#X obj 291 399 zac.lumiere /MN1HeadBecBas;
#X obj 291 585 zac.lumiere /MN1HeadBecHaut;
#X obj 291 771 zac.lumiere /MN1HeadYeux;
#X obj 1270 83 hsl 128 15 0 127 0 0 empty empty empty -2 -8 0 10 -262144
-1 -1 8400 1;
#X obj 1432 83 hsl 128 15 0 127 0 0 empty empty empty -2 -8 0 10 -262144
-1 -1 12700 1;
#X msg 1267 132 /MN1Col/Xscale \$1;
#X msg 1267 154 /MN1HandCour/Xscale \$1;
#X msg 1267 176 /MN1HandJardin/Xscale \$1;
#X msg 1267 198 /MN1Robe/Xscale \$1;
#X msg 1267 221 /MN1HeadContour/Xscale \$1;
#X msg 1267 244 /MN1FootCour/Xscale \$1;
#X msg 1267 266 /MN1FootJardin/Xscale \$1;
#X msg 1267 289 /MN1HeadBecBas/Xscale \$1;
#X msg 1267 311 /MN1HeadBecHaut/Xscale \$1;
#X msg 1267 333 /MN1HeadYeux/Xscale \$1;
#X obj 1267 104 / 64;
#X obj 1267 368 send OSC_MESSAGES;
#X obj 1429 104 / 64;
#X obj 1429 368 send OSC_MESSAGES;
#X msg 1429 132 /MN1Col/Yscale \$1;
#X msg 1429 154 /MN1HandCour/Yscale \$1;
#X msg 1429 176 /MN1HandJardin/Yscale \$1;
#X msg 1429 198 /MN1Robe/Yscale \$1;
#X msg 1429 221 /MN1HeadContour/Yscale \$1;
#X msg 1429 244 /MN1FootCour/Yscale \$1;
#X msg 1429 266 /MN1FootJardin/Yscale \$1;
#X msg 1429 289 /MN1HeadBecBas/Yscale \$1;
#X msg 1429 311 /MN1HeadBecHaut/Yscale \$1;
#X msg 1429 333 /MN1HeadYeux/Yscale \$1;
#X obj 1598 62 hsl 128 15 0 127 0 0 empty empty empty -2 -8 0 10 -262144
-1 -1 2100 1;
#X obj 1760 62 hsl 128 15 0 127 0 0 empty empty empty -2 -8 0 10 -262144
-1 -1 500 1;
#X obj 1595 368 send OSC_MESSAGES;
#X obj 1757 368 send OSC_MESSAGES;
#X msg 1595 198 /MN1Robe/Xpos \$1;
#X msg 1595 176 /MN1HandJardin/Xpos \$1;
#X msg 1595 154 /MN1HandCour/Xpos \$1;
#X msg 1595 132 /MN1Col/Xpos \$1;
#X msg 1595 221 /MN1HeadContour/Xpos \$1;
#X msg 1595 244 /MN1FootCour/Xpos \$1;
#X msg 1595 266 /MN1FootJardin/Xpos \$1;
#X msg 1595 289 /MN1HeadBecBas/Xpos \$1;
#X msg 1595 311 /MN1HeadBecHaut/Xpos \$1;
#X msg 1595 333 /MN1HeadYeux/Xpos \$1;
#X msg 1757 132 /MN1Col/Ypos \$1;
#X msg 1757 154 /MN1HandCour/Ypos \$1;
#X msg 1757 176 /MN1HandJardin/Ypos \$1;
#X msg 1757 198 /MN1Robe/Ypos \$1;
#X msg 1757 221 /MN1HeadContour/Ypos \$1;
#X msg 1757 244 /MN1FootCour/Ypos \$1;
#X msg 1757 266 /MN1FootJardin/Ypos \$1;
#X msg 1757 289 /MN1HeadBecBas/Ypos \$1;
#X msg 1757 311 /MN1HeadBecHaut/Ypos \$1;
#X msg 1757 333 /MN1HeadYeux/Ypos \$1;
#X obj 1595 82 - 64;
#X obj 1757 83 - 64;
#X obj 1595 104 / 10;
#X obj 1757 104 / 32;
#X msg 1267 60 84;
#X msg 1429 61 127;
#X msg 1757 37 5;
#X obj 1267 20 loadbang;
#X obj 1251 733 send OSC_MESSAGES;
#X msg 1251 497 /MN1Col/Activate \$1;
#X msg 1251 519 /MN1HandCour/Activate \$1;
#X msg 1251 541 /MN1HandJardin/Activate \$1;
#X msg 1251 563 /MN1Robe/Activate \$1;
#X msg 1251 586 /MN1HeadContour/Activate \$1;
#X msg 1251 609 /MN1FootCour/Activate \$1;
#X msg 1251 631 /MN1FootJardin/Activate \$1;
#X msg 1251 654 /MN1HeadBecBas/Activate \$1;
#X msg 1251 676 /MN1HeadBecHaut/Activate \$1;
#X msg 1251 698 /MN1HeadYeux/Activate \$1;
#X msg 1251 461 1;
#X msg 1251 436 0;
#X obj 1508 473 line;
#X msg 1475 456 2.5;
#X obj 1647 455 line;
#X msg 1508 496 /MN1Robe/Yscale \$1;
#X msg 1647 478 /MN1Robe/Ypos \$1;
#X obj 1647 511 send OSC_MESSAGES;
#X msg 1607 438 -1.85;
#X msg 1508 400 bang;
#X msg 1508 430 0.6 500;
#X msg 1647 417 -1.5 500;
#X connect 10 0 22 0;
#X connect 11 0 24 0;
#X connect 12 0 23 0;
#X connect 13 0 23 0;
#X connect 14 0 23 0;
#X connect 15 0 23 0;
#X connect 16 0 23 0;
#X connect 17 0 23 0;
#X connect 18 0 23 0;
#X connect 19 0 23 0;
#X connect 20 0 23 0;
#X connect 21 0 23 0;
#X connect 22 0 12 0;
#X connect 22 0 13 0;
#X connect 22 0 14 0;
#X connect 22 0 15 0;
#X connect 22 0 16 0;
#X connect 22 0 17 0;
#X connect 22 0 18 0;
#X connect 22 0 19 0;
#X connect 22 0 20 0;
#X connect 22 0 21 0;
#X connect 24 0 26 0;
#X connect 24 0 27 0;
#X connect 24 0 28 0;
#X connect 24 0 29 0;
#X connect 24 0 30 0;
#X connect 24 0 31 0;
#X connect 24 0 32 0;
#X connect 24 0 33 0;
#X connect 24 0 34 0;
#X connect 24 0 35 0;
#X connect 26 0 25 0;
#X connect 27 0 25 0;
#X connect 28 0 25 0;
#X connect 29 0 25 0;
#X connect 30 0 25 0;
#X connect 31 0 25 0;
#X connect 32 0 25 0;
#X connect 33 0 25 0;
#X connect 34 0 25 0;
#X connect 35 0 25 0;
#X connect 36 0 60 0;
#X connect 37 0 61 0;
#X connect 40 0 38 0;
#X connect 41 0 38 0;
#X connect 42 0 38 0;
#X connect 43 0 38 0;
#X connect 44 0 38 0;
#X connect 45 0 38 0;
#X connect 46 0 38 0;
#X connect 47 0 38 0;
#X connect 48 0 38 0;
#X connect 49 0 38 0;
#X connect 50 0 39 0;
#X connect 51 0 39 0;
#X connect 52 0 39 0;
#X connect 53 0 39 0;
#X connect 54 0 39 0;
#X connect 55 0 39 0;
#X connect 56 0 39 0;
#X connect 57 0 39 0;
#X connect 58 0 39 0;
#X connect 59 0 39 0;
#X connect 60 0 62 0;
#X connect 61 0 63 0;
#X connect 62 0 43 0;
#X connect 62 0 42 0;
#X connect 62 0 41 0;
#X connect 62 0 40 0;
#X connect 62 0 44 0;
#X connect 62 0 45 0;
#X connect 62 0 46 0;
#X connect 62 0 47 0;
#X connect 62 0 48 0;
#X connect 62 0 49 0;
#X connect 63 0 50 0;
#X connect 63 0 51 0;
#X connect 63 0 52 0;
#X connect 63 0 53 0;
#X connect 63 0 54 0;
#X connect 63 0 55 0;
#X connect 63 0 56 0;
#X connect 63 0 57 0;
#X connect 63 0 58 0;
#X connect 63 0 59 0;
#X connect 64 0 10 0;
#X connect 65 0 11 0;
#X connect 66 0 37 0;
#X connect 67 0 64 0;
#X connect 67 0 65 0;
#X connect 67 0 66 0;
#X connect 69 0 68 0;
#X connect 70 0 68 0;
#X connect 71 0 68 0;
#X connect 72 0 68 0;
#X connect 73 0 68 0;
#X connect 74 0 68 0;
#X connect 75 0 68 0;
#X connect 76 0 68 0;
#X connect 77 0 68 0;
#X connect 78 0 68 0;
#X connect 79 0 69 0;
#X connect 79 0 70 0;
#X connect 79 0 71 0;
#X connect 79 0 72 0;
#X connect 79 0 73 0;
#X connect 79 0 74 0;
#X connect 79 0 75 0;
#X connect 79 0 76 0;
#X connect 79 0 77 0;
#X connect 79 0 78 0;
#X connect 80 0 69 0;
#X connect 80 0 70 0;
#X connect 80 0 71 0;
#X connect 80 0 72 0;
#X connect 80 0 73 0;
#X connect 80 0 74 0;
#X connect 80 0 75 0;
#X connect 80 0 76 0;
#X connect 80 0 77 0;
#X connect 80 0 78 0;
#X connect 81 0 84 0;
#X connect 82 0 81 0;
#X connect 83 0 85 0;
#X connect 84 0 86 0;
#X connect 85 0 86 0;
#X connect 87 0 83 0;
#X connect 88 0 89 0;
#X connect 88 0 90 0;
#X connect 89 0 81 0;
#X connect 90 0 83 0;
