#N canvas 0 100 1440 800 10;
#N canvas 475 100 850 796 MN1TeteInit 0;
#X obj 234 622 send OSC_MESSAGES;
#X obj 114 549 list prepend;
#X obj 71 43 bng 15 250 50 0 empty empty empty 17 7 0 10 -262144 -1
-1;
#X obj 114 572 l2s /;
#X msg 114 132 File;
#X obj 234 589 list;
#X msg 114 109 Zpos;
#X msg 114 326 RenderOrder;
#X msg 114 369 Yscale;
#X msg 114 389 Xscale;
#X msg 114 409 Ypos;
#X msg 114 429 Xpos;
#X msg 114 225 Blue;
#X msg 114 184 Red;
#X msg 114 205 Green;
#X msg 114 305 modeAlpha;
#X msg 114 348 Shape;
#X msg 114 245 Rotate;
#X msg 114 284 Alpha;
#X msg 114 264 Activate;
#X obj 71 62 t b b b;
#X obj 56 115 t b b b;
#X obj 56 309 t b b b;
#X obj 56 352 t b b b;
#X obj 56 372 t b b b;
#X obj 56 392 t b b b;
#X obj 56 412 t b b b;
#X obj 17 331 t b b b;
#X obj 16 288 t b b b;
#X obj 56 267 t b b b;
#X obj 56 247 t b b b;
#X obj 56 228 t b b b;
#X obj 56 208 t b b b;
#X obj 56 188 t b b b;
#X obj 56 167 t b b b;
#X msg 255 245 0;
#X msg 255 284 1;
#X msg 255 184 1;
#X msg 114 449 ParentName;
#X obj 56 432 t b b b;
#X obj 56 452 t b b b;
#X msg 255 205 1;
#X msg 255 225 1;
#X msg 255 429 0;
#X obj 71 22 r MN1Init;
#X msg 183 79 /Cochon;
#X msg 255 132 /home/woii/2013_Sebkha-ChottGalootFormula_ThingFish/ThingFishVideoDecorum/MammyNuns/data/MN1_v2/mammy_nun_1_v2_tete.png
;
#X msg 255 109 -3.031;
#X msg 255 326 -20;
#X msg 255 264 1;
#X msg 255 369 1;
#X msg 255 389 1;
#X msg 255 409 1;
#X msg 255 449 /CochonLights;
#X msg 114 489 g*pos;
#X msg 255 489 0;
#X obj 56 472 t b b b;
#X msg 114 469 Child/*pos;
#X msg 255 469 1;
#X connect 1 0 3 0;
#X connect 2 0 20 0;
#X connect 3 0 5 0;
#X connect 4 0 1 0;
#X connect 5 0 0 0;
#X connect 6 0 1 0;
#X connect 7 0 1 0;
#X connect 8 0 1 0;
#X connect 9 0 1 0;
#X connect 10 0 1 0;
#X connect 11 0 1 0;
#X connect 12 0 1 0;
#X connect 13 0 1 0;
#X connect 14 0 1 0;
#X connect 15 0 1 0;
#X connect 17 0 1 0;
#X connect 18 0 1 0;
#X connect 19 0 1 0;
#X connect 20 0 6 0;
#X connect 20 0 21 0;
#X connect 20 1 47 0;
#X connect 20 2 45 0;
#X connect 21 0 34 0;
#X connect 21 1 4 0;
#X connect 21 2 46 0;
#X connect 22 0 23 0;
#X connect 22 1 7 0;
#X connect 22 2 48 0;
#X connect 23 0 24 0;
#X connect 23 1 8 0;
#X connect 23 2 50 0;
#X connect 24 0 25 0;
#X connect 24 1 9 0;
#X connect 24 2 51 0;
#X connect 25 0 26 0;
#X connect 25 1 10 0;
#X connect 25 2 52 0;
#X connect 26 0 39 0;
#X connect 26 1 11 0;
#X connect 26 2 43 0;
#X connect 27 1 16 0;
#X connect 28 1 15 0;
#X connect 29 0 22 0;
#X connect 29 1 18 0;
#X connect 29 2 36 0;
#X connect 30 0 29 0;
#X connect 30 1 19 0;
#X connect 30 2 49 0;
#X connect 31 0 30 0;
#X connect 31 1 17 0;
#X connect 31 2 35 0;
#X connect 32 0 31 0;
#X connect 32 1 12 0;
#X connect 32 2 42 0;
#X connect 33 0 32 0;
#X connect 33 1 14 0;
#X connect 33 2 41 0;
#X connect 34 0 33 0;
#X connect 34 1 13 0;
#X connect 34 2 37 0;
#X connect 35 0 5 1;
#X connect 36 0 5 1;
#X connect 37 0 5 1;
#X connect 38 0 1 0;
#X connect 39 0 40 0;
#X connect 39 1 38 0;
#X connect 39 2 53 0;
#X connect 40 0 56 0;
#X connect 40 1 57 0;
#X connect 40 2 58 0;
#X connect 41 0 5 1;
#X connect 42 0 5 1;
#X connect 43 0 5 1;
#X connect 44 0 2 0;
#X connect 45 0 1 1;
#X connect 46 0 5 1;
#X connect 47 0 5 1;
#X connect 48 0 5 1;
#X connect 49 0 5 1;
#X connect 50 0 5 1;
#X connect 51 0 5 1;
#X connect 52 0 5 1;
#X connect 53 0 5 1;
#X connect 54 0 1 0;
#X connect 55 0 5 1;
#X connect 56 1 54 0;
#X connect 56 2 55 0;
#X connect 57 0 1 0;
#X connect 58 0 5 1;
#X restore 81 51 pd MN1TeteInit;
#N canvas 469 100 850 796 MN1CorpsInit 0;
#X obj 234 622 send OSC_MESSAGES;
#X obj 114 549 list prepend;
#X obj 71 43 bng 15 250 50 0 empty empty empty 17 7 0 10 -262144 -1
-1;
#X obj 114 572 l2s /;
#X msg 114 132 File;
#X obj 234 589 list;
#X msg 114 109 Zpos;
#X msg 114 326 RenderOrder;
#X msg 114 369 Yscale;
#X msg 114 389 Xscale;
#X msg 114 409 Ypos;
#X msg 114 429 Xpos;
#X msg 114 225 Blue;
#X msg 114 184 Red;
#X msg 114 205 Green;
#X msg 114 305 modeAlpha;
#X msg 114 348 Shape;
#X msg 114 245 Rotate;
#X msg 114 284 Alpha;
#X msg 114 264 Activate;
#X obj 71 62 t b b b;
#X obj 56 115 t b b b;
#X obj 56 309 t b b b;
#X obj 56 352 t b b b;
#X obj 56 372 t b b b;
#X obj 56 392 t b b b;
#X obj 56 412 t b b b;
#X obj 17 331 t b b b;
#X obj 16 288 t b b b;
#X obj 56 267 t b b b;
#X obj 56 247 t b b b;
#X obj 56 228 t b b b;
#X obj 56 208 t b b b;
#X obj 56 188 t b b b;
#X obj 56 167 t b b b;
#X msg 255 245 0;
#X msg 255 284 1;
#X msg 255 184 1;
#X msg 114 449 ParentName;
#X msg 114 469 g*pos;
#X msg 255 469 0;
#X obj 56 432 t b b b;
#X obj 56 452 t b b b;
#X msg 255 205 1;
#X msg 255 225 1;
#X msg 255 429 0;
#X msg 255 264 1;
#X msg 255 409 0;
#X msg 255 132 /home/woii/2013_Sebkha-ChottGalootFormula_ThingFish/ThingFishVideoDecorum/MammyNuns/data/MN1_v2/Mammy_Nun_1_v2_Corps.png
;
#X msg 183 79 /CochonLights;
#X msg 255 109 -3.0311;
#X msg 255 326 -21;
#X msg 255 389 1.1423;
#X msg 255 369 1.92307;
#X obj 56 472 t b b b;
#X msg 114 489 Child/*pos;
#X msg 255 449 /Dummy;
#X msg 255 489 0;
#X obj 71 22 r MN1EarlyInit;
#X connect 1 0 3 0;
#X connect 2 0 20 0;
#X connect 3 0 5 0;
#X connect 4 0 1 0;
#X connect 5 0 0 0;
#X connect 6 0 1 0;
#X connect 7 0 1 0;
#X connect 8 0 1 0;
#X connect 9 0 1 0;
#X connect 10 0 1 0;
#X connect 11 0 1 0;
#X connect 12 0 1 0;
#X connect 13 0 1 0;
#X connect 14 0 1 0;
#X connect 15 0 1 0;
#X connect 17 0 1 0;
#X connect 18 0 1 0;
#X connect 19 0 1 0;
#X connect 20 0 6 0;
#X connect 20 0 21 0;
#X connect 20 1 50 0;
#X connect 20 2 49 0;
#X connect 21 0 34 0;
#X connect 21 1 4 0;
#X connect 21 2 48 0;
#X connect 22 0 23 0;
#X connect 22 1 7 0;
#X connect 22 2 51 0;
#X connect 23 0 24 0;
#X connect 23 1 8 0;
#X connect 23 2 53 0;
#X connect 24 0 25 0;
#X connect 24 1 9 0;
#X connect 24 2 52 0;
#X connect 25 0 26 0;
#X connect 25 1 10 0;
#X connect 25 2 47 0;
#X connect 26 0 41 0;
#X connect 26 1 11 0;
#X connect 26 2 45 0;
#X connect 27 1 16 0;
#X connect 28 1 15 0;
#X connect 29 0 22 0;
#X connect 29 1 18 0;
#X connect 29 2 36 0;
#X connect 30 0 29 0;
#X connect 30 1 19 0;
#X connect 30 2 46 0;
#X connect 31 0 30 0;
#X connect 31 1 17 0;
#X connect 31 2 35 0;
#X connect 32 0 31 0;
#X connect 32 1 12 0;
#X connect 32 2 44 0;
#X connect 33 0 32 0;
#X connect 33 1 14 0;
#X connect 33 2 43 0;
#X connect 34 0 33 0;
#X connect 34 1 13 0;
#X connect 34 2 37 0;
#X connect 35 0 5 1;
#X connect 36 0 5 1;
#X connect 37 0 5 1;
#X connect 38 0 1 0;
#X connect 39 0 1 0;
#X connect 40 0 5 1;
#X connect 41 0 42 0;
#X connect 41 1 38 0;
#X connect 41 2 56 0;
#X connect 42 0 54 0;
#X connect 42 1 39 0;
#X connect 42 2 40 0;
#X connect 43 0 5 1;
#X connect 44 0 5 1;
#X connect 45 0 5 1;
#X connect 46 0 5 1;
#X connect 47 0 5 1;
#X connect 48 0 5 1;
#X connect 49 0 1 1;
#X connect 50 0 5 1;
#X connect 51 0 5 1;
#X connect 52 0 5 1;
#X connect 53 0 5 1;
#X connect 54 1 55 0;
#X connect 54 2 57 0;
#X connect 55 0 1 0;
#X connect 56 0 5 1;
#X connect 57 0 5 1;
#X connect 58 0 2 0;
#X restore 81 71 pd MN1CorpsInit;
#N canvas 473 100 850 796 MN1PiedJardinInit 0;
#X obj 234 602 send OSC_MESSAGES;
#X obj 114 529 list prepend;
#X obj 71 43 bng 15 250 50 0 empty empty empty 17 7 0 10 -262144 -1
-1;
#X obj 114 552 l2s /;
#X msg 114 132 File;
#X obj 234 569 list;
#X msg 114 109 Zpos;
#X msg 114 326 RenderOrder;
#X msg 114 369 Yscale;
#X msg 114 389 Xscale;
#X msg 114 409 Ypos;
#X msg 114 429 Xpos;
#X msg 114 225 Blue;
#X msg 114 184 Red;
#X msg 114 205 Green;
#X msg 114 305 modeAlpha;
#X msg 114 348 Shape;
#X msg 114 245 Rotate;
#X msg 114 284 Alpha;
#X msg 114 264 Activate;
#X obj 71 62 t b b b;
#X obj 56 115 t b b b;
#X obj 56 309 t b b b;
#X obj 56 352 t b b b;
#X obj 56 372 t b b b;
#X obj 56 392 t b b b;
#X obj 56 412 t b b b;
#X obj 17 331 t b b b;
#X obj 16 288 t b b b;
#X obj 56 267 t b b b;
#X obj 56 247 t b b b;
#X obj 56 228 t b b b;
#X obj 56 208 t b b b;
#X obj 56 188 t b b b;
#X obj 56 167 t b b b;
#X msg 255 245 0;
#X msg 255 284 1;
#X msg 255 184 1;
#X msg 114 449 ParentName;
#X msg 114 489 g*pos;
#X msg 255 489 0;
#X obj 56 432 t b b b;
#X obj 56 472 t b b b;
#X msg 255 205 1;
#X msg 255 225 1;
#X obj 71 22 r MN1Init;
#X msg 255 264 1;
#X msg 255 109 -3.0311;
#X msg 183 79 /CuveGaloot;
#X msg 255 326 -22;
#X msg 255 132 /home/woii/2013_Sebkha-ChottGalootFormula_ThingFish/ThingFishVideoDecorum/MammyNuns/data/MN1_v2/mammy_nun_1_v2_pied_jardin.png
;
#X msg 255 369 0.43846;
#X msg 255 389 0.20769;
#X msg 255 409 -1.5;
#X msg 255 429 -0.2;
#X obj 56 452 t b b b;
#X msg 114 469 Child/*pos;
#X msg 255 469 1;
#X msg 255 449 /CochonLights;
#X connect 1 0 3 0;
#X connect 2 0 20 0;
#X connect 3 0 5 0;
#X connect 4 0 1 0;
#X connect 5 0 0 0;
#X connect 6 0 1 0;
#X connect 7 0 1 0;
#X connect 8 0 1 0;
#X connect 9 0 1 0;
#X connect 10 0 1 0;
#X connect 11 0 1 0;
#X connect 12 0 1 0;
#X connect 13 0 1 0;
#X connect 14 0 1 0;
#X connect 15 0 1 0;
#X connect 17 0 1 0;
#X connect 18 0 1 0;
#X connect 19 0 1 0;
#X connect 20 0 6 0;
#X connect 20 0 21 0;
#X connect 20 1 47 0;
#X connect 20 2 48 0;
#X connect 21 0 34 0;
#X connect 21 1 4 0;
#X connect 21 2 50 0;
#X connect 22 0 23 0;
#X connect 22 1 7 0;
#X connect 22 2 49 0;
#X connect 23 0 24 0;
#X connect 23 1 8 0;
#X connect 23 2 51 0;
#X connect 24 0 25 0;
#X connect 24 1 9 0;
#X connect 24 2 52 0;
#X connect 25 0 26 0;
#X connect 25 1 10 0;
#X connect 25 2 53 0;
#X connect 26 0 41 0;
#X connect 26 1 11 0;
#X connect 26 2 54 0;
#X connect 27 1 16 0;
#X connect 28 1 15 0;
#X connect 29 0 22 0;
#X connect 29 1 18 0;
#X connect 29 2 36 0;
#X connect 30 0 29 0;
#X connect 30 1 19 0;
#X connect 30 2 46 0;
#X connect 31 0 30 0;
#X connect 31 1 17 0;
#X connect 31 2 35 0;
#X connect 32 0 31 0;
#X connect 32 1 12 0;
#X connect 32 2 44 0;
#X connect 33 0 32 0;
#X connect 33 1 14 0;
#X connect 33 2 43 0;
#X connect 34 0 33 0;
#X connect 34 1 13 0;
#X connect 34 2 37 0;
#X connect 35 0 5 1;
#X connect 36 0 5 1;
#X connect 37 0 5 1;
#X connect 38 0 1 0;
#X connect 39 0 1 0;
#X connect 40 0 5 1;
#X connect 41 0 55 0;
#X connect 41 1 38 0;
#X connect 41 2 58 0;
#X connect 42 1 39 0;
#X connect 42 2 40 0;
#X connect 43 0 5 1;
#X connect 44 0 5 1;
#X connect 45 0 2 0;
#X connect 46 0 5 1;
#X connect 47 0 5 1;
#X connect 48 0 1 1;
#X connect 49 0 5 1;
#X connect 50 0 5 1;
#X connect 51 0 5 1;
#X connect 52 0 5 1;
#X connect 53 0 5 1;
#X connect 54 0 5 1;
#X connect 55 0 42 0;
#X connect 55 1 56 0;
#X connect 55 2 57 0;
#X connect 56 0 1 0;
#X connect 57 0 5 1;
#X connect 58 0 5 1;
#X restore 81 151 pd MN1PiedJardinInit;
#N canvas 473 100 850 796 MN1PiedCourInit 0;
#X obj 234 612 send OSC_MESSAGES;
#X obj 114 539 list prepend;
#X obj 71 43 bng 15 250 50 0 empty empty empty 17 7 0 10 -262144 -1
-1;
#X obj 114 562 l2s /;
#X msg 114 132 File;
#X obj 234 579 list;
#X msg 114 109 Zpos;
#X msg 114 326 RenderOrder;
#X msg 114 369 Yscale;
#X msg 114 389 Xscale;
#X msg 114 409 Ypos;
#X msg 114 429 Xpos;
#X msg 114 225 Blue;
#X msg 114 184 Red;
#X msg 114 205 Green;
#X msg 114 305 modeAlpha;
#X msg 114 348 Shape;
#X msg 114 245 Rotate;
#X msg 114 284 Alpha;
#X msg 114 264 Activate;
#X obj 71 62 t b b b;
#X obj 56 115 t b b b;
#X obj 56 309 t b b b;
#X obj 56 352 t b b b;
#X obj 56 372 t b b b;
#X obj 56 392 t b b b;
#X obj 56 412 t b b b;
#X obj 17 331 t b b b;
#X obj 16 288 t b b b;
#X obj 56 267 t b b b;
#X obj 56 247 t b b b;
#X obj 56 228 t b b b;
#X obj 56 208 t b b b;
#X obj 56 188 t b b b;
#X obj 56 167 t b b b;
#X msg 255 245 0;
#X msg 255 284 1;
#X msg 255 184 1;
#X msg 114 449 ParentName;
#X msg 114 489 g*pos;
#X msg 255 489 0;
#X obj 56 432 t b b b;
#X obj 56 472 t b b b;
#X msg 255 205 1;
#X msg 255 225 1;
#X obj 71 22 r MN1Init;
#X msg 255 264 1;
#X msg 255 109 -3.0311;
#X msg 255 326 -22;
#X msg 255 409 -1.5;
#X msg 255 132 /home/woii/2013_Sebkha-ChottGalootFormula_ThingFish/ThingFishVideoDecorum/MammyNuns/data/MN1_v2/mammy_nun_1_v2_pied_cour.png
;
#X msg 183 79 /CuveGalootContent;
#X msg 255 369 0.42692;
#X msg 255 389 0.18076;
#X msg 255 429 0.45;
#X obj 56 452 t b b b;
#X msg 114 469 Child/*pos;
#X msg 255 469 1;
#X msg 255 449 /CochonLights;
#X connect 1 0 3 0;
#X connect 2 0 20 0;
#X connect 3 0 5 0;
#X connect 4 0 1 0;
#X connect 5 0 0 0;
#X connect 6 0 1 0;
#X connect 7 0 1 0;
#X connect 8 0 1 0;
#X connect 9 0 1 0;
#X connect 10 0 1 0;
#X connect 11 0 1 0;
#X connect 12 0 1 0;
#X connect 13 0 1 0;
#X connect 14 0 1 0;
#X connect 15 0 1 0;
#X connect 17 0 1 0;
#X connect 18 0 1 0;
#X connect 19 0 1 0;
#X connect 20 0 6 0;
#X connect 20 0 21 0;
#X connect 20 1 47 0;
#X connect 20 2 51 0;
#X connect 21 0 34 0;
#X connect 21 1 4 0;
#X connect 21 2 50 0;
#X connect 22 0 23 0;
#X connect 22 1 7 0;
#X connect 22 2 48 0;
#X connect 23 0 24 0;
#X connect 23 1 8 0;
#X connect 23 2 52 0;
#X connect 24 0 25 0;
#X connect 24 1 9 0;
#X connect 24 2 53 0;
#X connect 25 0 26 0;
#X connect 25 1 10 0;
#X connect 25 2 49 0;
#X connect 26 0 41 0;
#X connect 26 1 11 0;
#X connect 26 2 54 0;
#X connect 27 1 16 0;
#X connect 28 1 15 0;
#X connect 29 0 22 0;
#X connect 29 1 18 0;
#X connect 29 2 36 0;
#X connect 30 0 29 0;
#X connect 30 1 19 0;
#X connect 30 2 46 0;
#X connect 31 0 30 0;
#X connect 31 1 17 0;
#X connect 31 2 35 0;
#X connect 32 0 31 0;
#X connect 32 1 12 0;
#X connect 32 2 44 0;
#X connect 33 0 32 0;
#X connect 33 1 14 0;
#X connect 33 2 43 0;
#X connect 34 0 33 0;
#X connect 34 1 13 0;
#X connect 34 2 37 0;
#X connect 35 0 5 1;
#X connect 36 0 5 1;
#X connect 37 0 5 1;
#X connect 38 0 1 0;
#X connect 39 0 1 0;
#X connect 40 0 5 1;
#X connect 41 0 55 0;
#X connect 41 1 38 0;
#X connect 41 2 58 0;
#X connect 42 1 39 0;
#X connect 42 2 40 0;
#X connect 43 0 5 1;
#X connect 44 0 5 1;
#X connect 45 0 2 0;
#X connect 46 0 5 1;
#X connect 47 0 5 1;
#X connect 48 0 5 1;
#X connect 49 0 5 1;
#X connect 50 0 5 1;
#X connect 51 0 1 1;
#X connect 52 0 5 1;
#X connect 53 0 5 1;
#X connect 54 0 5 1;
#X connect 55 0 42 0;
#X connect 55 1 56 0;
#X connect 55 2 57 0;
#X connect 56 0 1 0;
#X connect 57 0 5 1;
#X connect 58 0 5 1;
#X restore 81 171 pd MN1PiedCourInit;
#N canvas 467 100 850 796 MN1BrasJardinInit 0;
#X obj 234 622 send OSC_MESSAGES;
#X obj 114 549 list prepend;
#X obj 71 43 bng 15 250 50 0 empty empty empty 17 7 0 10 -262144 -1
-1;
#X obj 114 572 l2s /;
#X msg 114 132 File;
#X obj 234 589 list;
#X msg 114 109 Zpos;
#X msg 114 326 RenderOrder;
#X msg 114 369 Yscale;
#X msg 114 389 Xscale;
#X msg 114 409 Ypos;
#X msg 114 429 Xpos;
#X msg 114 225 Blue;
#X msg 114 184 Red;
#X msg 114 205 Green;
#X msg 114 305 modeAlpha;
#X msg 114 348 Shape;
#X msg 114 245 Rotate;
#X msg 114 284 Alpha;
#X msg 114 264 Activate;
#X obj 71 62 t b b b;
#X obj 56 115 t b b b;
#X obj 56 309 t b b b;
#X obj 56 352 t b b b;
#X obj 56 372 t b b b;
#X obj 56 392 t b b b;
#X obj 56 412 t b b b;
#X obj 17 331 t b b b;
#X obj 16 288 t b b b;
#X obj 56 267 t b b b;
#X obj 56 247 t b b b;
#X obj 56 228 t b b b;
#X obj 56 208 t b b b;
#X obj 56 188 t b b b;
#X obj 56 167 t b b b;
#X msg 255 245 0;
#X msg 255 284 1;
#X msg 255 184 1;
#X msg 114 449 ParentName;
#X msg 114 489 g*pos;
#X msg 255 489 0;
#X obj 56 432 t b b b;
#X obj 56 472 t b b b;
#X msg 255 205 1;
#X msg 255 225 1;
#X obj 71 22 r MN1Init;
#X msg 255 264 1;
#X msg 183 79 /Djbebe;
#X msg 255 132 /home/woii/2013_Sebkha-ChottGalootFormula_ThingFish/ThingFishVideoDecorum/MammyNuns/data/MN1_v2/mammy_nun_1_v2_main_jardin.png
;
#X msg 255 109 -3.031;
#X msg 255 326 -20;
#X msg 255 369 0.25;
#X msg 255 389 0.21538;
#X msg 255 409 0;
#X msg 255 429 -1.2;
#X obj 56 452 t b b b;
#X msg 114 469 Child/*pos;
#X msg 255 469 1;
#X msg 255 449 /CochonLights;
#X connect 1 0 3 0;
#X connect 2 0 20 0;
#X connect 3 0 5 0;
#X connect 4 0 1 0;
#X connect 5 0 0 0;
#X connect 6 0 1 0;
#X connect 7 0 1 0;
#X connect 8 0 1 0;
#X connect 9 0 1 0;
#X connect 10 0 1 0;
#X connect 11 0 1 0;
#X connect 12 0 1 0;
#X connect 13 0 1 0;
#X connect 14 0 1 0;
#X connect 15 0 1 0;
#X connect 17 0 1 0;
#X connect 18 0 1 0;
#X connect 19 0 1 0;
#X connect 20 0 6 0;
#X connect 20 0 21 0;
#X connect 20 1 49 0;
#X connect 20 2 47 0;
#X connect 21 0 34 0;
#X connect 21 1 4 0;
#X connect 21 2 48 0;
#X connect 22 0 23 0;
#X connect 22 1 7 0;
#X connect 22 2 50 0;
#X connect 23 0 24 0;
#X connect 23 1 8 0;
#X connect 23 2 51 0;
#X connect 24 0 25 0;
#X connect 24 1 9 0;
#X connect 24 2 52 0;
#X connect 25 0 26 0;
#X connect 25 1 10 0;
#X connect 25 2 53 0;
#X connect 26 0 41 0;
#X connect 26 1 11 0;
#X connect 26 2 54 0;
#X connect 27 1 16 0;
#X connect 28 1 15 0;
#X connect 29 0 22 0;
#X connect 29 1 18 0;
#X connect 29 2 36 0;
#X connect 30 0 29 0;
#X connect 30 1 19 0;
#X connect 30 2 46 0;
#X connect 31 0 30 0;
#X connect 31 1 17 0;
#X connect 31 2 35 0;
#X connect 32 0 31 0;
#X connect 32 1 12 0;
#X connect 32 2 44 0;
#X connect 33 0 32 0;
#X connect 33 1 14 0;
#X connect 33 2 43 0;
#X connect 34 0 33 0;
#X connect 34 1 13 0;
#X connect 34 2 37 0;
#X connect 35 0 5 1;
#X connect 36 0 5 1;
#X connect 37 0 5 1;
#X connect 38 0 1 0;
#X connect 39 0 1 0;
#X connect 40 0 5 1;
#X connect 41 0 55 0;
#X connect 41 1 38 0;
#X connect 41 2 58 0;
#X connect 42 1 39 0;
#X connect 42 2 40 0;
#X connect 43 0 5 1;
#X connect 44 0 5 1;
#X connect 45 0 2 0;
#X connect 46 0 5 1;
#X connect 47 0 1 1;
#X connect 48 0 5 1;
#X connect 49 0 5 1;
#X connect 50 0 5 1;
#X connect 51 0 5 1;
#X connect 52 0 5 1;
#X connect 53 0 5 1;
#X connect 54 0 5 1;
#X connect 55 0 42 0;
#X connect 55 1 56 0;
#X connect 55 2 57 0;
#X connect 56 0 1 0;
#X connect 57 0 5 1;
#X connect 58 0 5 1;
#X restore 81 111 pd MN1BrasJardinInit;
#N canvas 459 100 850 796 MN1BrasCourInit 0;
#X obj 234 642 send OSC_MESSAGES;
#X obj 114 569 list prepend;
#X obj 71 43 bng 15 250 50 0 empty empty empty 17 7 0 10 -262144 -1
-1;
#X obj 114 592 l2s /;
#X msg 114 132 File;
#X obj 234 609 list;
#X msg 114 109 Zpos;
#X msg 114 326 RenderOrder;
#X msg 114 369 Yscale;
#X msg 114 389 Xscale;
#X msg 114 409 Ypos;
#X msg 114 429 Xpos;
#X msg 114 225 Blue;
#X msg 114 184 Red;
#X msg 114 205 Green;
#X msg 114 305 modeAlpha;
#X msg 114 348 Shape;
#X msg 114 245 Rotate;
#X msg 114 284 Alpha;
#X msg 114 264 Activate;
#X obj 71 62 t b b b;
#X obj 56 115 t b b b;
#X obj 56 309 t b b b;
#X obj 56 352 t b b b;
#X obj 56 372 t b b b;
#X obj 56 392 t b b b;
#X obj 56 412 t b b b;
#X obj 17 331 t b b b;
#X obj 16 288 t b b b;
#X obj 56 267 t b b b;
#X obj 56 247 t b b b;
#X obj 56 228 t b b b;
#X obj 56 208 t b b b;
#X obj 56 188 t b b b;
#X obj 56 167 t b b b;
#X msg 255 245 0;
#X msg 255 284 1;
#X msg 255 184 1;
#X msg 114 449 ParentName;
#X msg 114 489 g*pos;
#X msg 255 489 0;
#X obj 56 432 t b b b;
#X obj 56 472 t b b b;
#X msg 255 205 1;
#X msg 255 225 1;
#X obj 71 22 r MN1Init;
#X msg 255 264 1;
#X msg 255 109 -3.031;
#X msg 255 326 -20;
#X msg 255 369 0.25;
#X msg 255 389 0.21538;
#X msg 255 409 0;
#X msg 255 132 /home/woii/2013_Sebkha-ChottGalootFormula_ThingFish/ThingFishVideoDecorum/MammyNuns/data/MN1_v2/mammy_nun_1_v2_main_cour.png
;
#X msg 255 429 1.2;
#X msg 183 79 /Tube;
#X obj 56 452 t b b b;
#X msg 114 469 Child/*pos;
#X msg 255 469 1;
#X msg 255 449 /CochonLights;
#X connect 1 0 3 0;
#X connect 2 0 20 0;
#X connect 3 0 5 0;
#X connect 4 0 1 0;
#X connect 5 0 0 0;
#X connect 6 0 1 0;
#X connect 7 0 1 0;
#X connect 8 0 1 0;
#X connect 9 0 1 0;
#X connect 10 0 1 0;
#X connect 11 0 1 0;
#X connect 12 0 1 0;
#X connect 13 0 1 0;
#X connect 14 0 1 0;
#X connect 15 0 1 0;
#X connect 17 0 1 0;
#X connect 18 0 1 0;
#X connect 19 0 1 0;
#X connect 20 0 6 0;
#X connect 20 0 21 0;
#X connect 20 1 47 0;
#X connect 20 2 54 0;
#X connect 21 0 34 0;
#X connect 21 1 4 0;
#X connect 21 2 52 0;
#X connect 22 0 23 0;
#X connect 22 1 7 0;
#X connect 22 2 48 0;
#X connect 23 0 24 0;
#X connect 23 1 8 0;
#X connect 23 2 49 0;
#X connect 24 0 25 0;
#X connect 24 1 9 0;
#X connect 24 2 50 0;
#X connect 25 0 26 0;
#X connect 25 1 10 0;
#X connect 25 2 51 0;
#X connect 26 0 41 0;
#X connect 26 1 11 0;
#X connect 26 2 53 0;
#X connect 27 1 16 0;
#X connect 28 1 15 0;
#X connect 29 0 22 0;
#X connect 29 1 18 0;
#X connect 29 2 36 0;
#X connect 30 0 29 0;
#X connect 30 1 19 0;
#X connect 30 2 46 0;
#X connect 31 0 30 0;
#X connect 31 1 17 0;
#X connect 31 2 35 0;
#X connect 32 0 31 0;
#X connect 32 1 12 0;
#X connect 32 2 44 0;
#X connect 33 0 32 0;
#X connect 33 1 14 0;
#X connect 33 2 43 0;
#X connect 34 0 33 0;
#X connect 34 1 13 0;
#X connect 34 2 37 0;
#X connect 35 0 5 1;
#X connect 36 0 5 1;
#X connect 37 0 5 1;
#X connect 38 0 1 0;
#X connect 39 0 1 0;
#X connect 40 0 5 1;
#X connect 41 0 55 0;
#X connect 41 1 38 0;
#X connect 41 2 58 0;
#X connect 42 1 39 0;
#X connect 42 2 40 0;
#X connect 43 0 5 1;
#X connect 44 0 5 1;
#X connect 45 0 2 0;
#X connect 46 0 5 1;
#X connect 47 0 5 1;
#X connect 48 0 5 1;
#X connect 49 0 5 1;
#X connect 50 0 5 1;
#X connect 51 0 5 1;
#X connect 52 0 5 1;
#X connect 53 0 5 1;
#X connect 54 0 1 1;
#X connect 55 0 42 0;
#X connect 55 1 56 0;
#X connect 55 2 57 0;
#X connect 56 0 1 0;
#X connect 57 0 5 1;
#X connect 58 0 5 1;
#X restore 81 131 pd MN1BrasCourInit;
#X obj 89 368 s MN1Init;
#X obj 89 296 bng 15 250 50 0 empty empty empty 17 7 0 10 -262144 -1
-1;
#N canvas 465 100 850 796 MN1RobeInit 0;
#X obj 234 622 send OSC_MESSAGES;
#X obj 114 549 list prepend;
#X obj 71 43 bng 15 250 50 0 empty empty empty 17 7 0 10 -262144 -1
-1;
#X obj 114 572 l2s /;
#X msg 114 132 File;
#X obj 234 589 list;
#X msg 114 109 Zpos;
#X msg 114 326 RenderOrder;
#X msg 114 369 Yscale;
#X msg 114 389 Xscale;
#X msg 114 409 Ypos;
#X msg 114 429 Xpos;
#X msg 114 225 Blue;
#X msg 114 184 Red;
#X msg 114 205 Green;
#X msg 114 305 modeAlpha;
#X msg 114 348 Shape;
#X msg 114 245 Rotate;
#X msg 114 284 Alpha;
#X msg 114 264 Activate;
#X obj 71 62 t b b b;
#X obj 56 115 t b b b;
#X obj 56 309 t b b b;
#X obj 56 352 t b b b;
#X obj 56 372 t b b b;
#X obj 56 392 t b b b;
#X obj 56 412 t b b b;
#X obj 17 331 t b b b;
#X obj 16 288 t b b b;
#X obj 56 267 t b b b;
#X obj 56 247 t b b b;
#X obj 56 228 t b b b;
#X obj 56 208 t b b b;
#X obj 56 188 t b b b;
#X obj 56 167 t b b b;
#X msg 255 245 0;
#X msg 255 284 1;
#X msg 255 184 1;
#X msg 114 449 ParentName;
#X msg 114 489 g*pos;
#X msg 255 489 0;
#X obj 56 432 t b b b;
#X obj 56 472 t b b b;
#X msg 255 205 1;
#X msg 255 225 1;
#X obj 71 22 r MN1Init;
#X msg 255 132 /home/woii/2013_Sebkha-ChottGalootFormula_ThingFish/ThingFishVideoDecorum/MammyNuns/data/MN1_v2/mammy_nun_1_v2_robe.png
;
#X msg 183 79 /WashMachine;
#X msg 255 109 -3.03;
#X msg 255 326 -19;
#X msg 255 389 0.81923;
#X msg 255 369 0.7923;
#X msg 255 409 -0.5;
#X msg 255 429 0.15;
#X obj 56 452 t b b b;
#X msg 114 469 Child/*pos;
#X msg 255 469 1;
#X msg 255 449 /CochonLights;
#X msg 255 264 1;
#X connect 1 0 3 0;
#X connect 2 0 20 0;
#X connect 3 0 5 0;
#X connect 4 0 1 0;
#X connect 5 0 0 0;
#X connect 6 0 1 0;
#X connect 7 0 1 0;
#X connect 8 0 1 0;
#X connect 9 0 1 0;
#X connect 10 0 1 0;
#X connect 11 0 1 0;
#X connect 12 0 1 0;
#X connect 13 0 1 0;
#X connect 14 0 1 0;
#X connect 15 0 1 0;
#X connect 17 0 1 0;
#X connect 18 0 1 0;
#X connect 19 0 1 0;
#X connect 20 0 6 0;
#X connect 20 0 21 0;
#X connect 20 1 48 0;
#X connect 20 2 47 0;
#X connect 21 0 34 0;
#X connect 21 1 4 0;
#X connect 21 2 46 0;
#X connect 22 0 23 0;
#X connect 22 1 7 0;
#X connect 22 2 49 0;
#X connect 23 0 24 0;
#X connect 23 1 8 0;
#X connect 23 2 51 0;
#X connect 24 0 25 0;
#X connect 24 1 9 0;
#X connect 24 2 50 0;
#X connect 25 0 26 0;
#X connect 25 1 10 0;
#X connect 25 2 52 0;
#X connect 26 0 41 0;
#X connect 26 1 11 0;
#X connect 26 2 53 0;
#X connect 27 1 16 0;
#X connect 28 1 15 0;
#X connect 29 0 22 0;
#X connect 29 1 18 0;
#X connect 29 2 36 0;
#X connect 30 0 29 0;
#X connect 30 1 19 0;
#X connect 30 2 58 0;
#X connect 31 0 30 0;
#X connect 31 1 17 0;
#X connect 31 2 35 0;
#X connect 32 0 31 0;
#X connect 32 1 12 0;
#X connect 32 2 44 0;
#X connect 33 0 32 0;
#X connect 33 1 14 0;
#X connect 33 2 43 0;
#X connect 34 0 33 0;
#X connect 34 1 13 0;
#X connect 34 2 37 0;
#X connect 35 0 5 1;
#X connect 36 0 5 1;
#X connect 37 0 5 1;
#X connect 38 0 1 0;
#X connect 39 0 1 0;
#X connect 40 0 5 1;
#X connect 41 0 54 0;
#X connect 41 1 38 0;
#X connect 41 2 57 0;
#X connect 42 1 39 0;
#X connect 42 2 40 0;
#X connect 43 0 5 1;
#X connect 44 0 5 1;
#X connect 45 0 2 0;
#X connect 46 0 5 1;
#X connect 47 0 1 1;
#X connect 48 0 5 1;
#X connect 49 0 5 1;
#X connect 50 0 5 1;
#X connect 51 0 5 1;
#X connect 52 0 5 1;
#X connect 53 0 5 1;
#X connect 54 0 42 0;
#X connect 54 1 55 0;
#X connect 54 2 56 0;
#X connect 55 0 1 0;
#X connect 56 0 5 1;
#X connect 57 0 5 1;
#X connect 58 0 5 1;
#X restore 81 91 pd MN1RobeInit;
#X obj 89 316 t b b;
#X obj 116 338 s MN1EarlyInit;
#X obj 366 283 hsl 128 15 -8 8 0 0 empty empty empty -2 -8 0 10 -262144
-1 -1 2200 1;
#X obj 363 369 s OSC_MESSAGES;
#X msg 363 328 /CochonLights/Xpos \$1;
#N canvas 469 100 850 796 MN1UrineInit 0;
#X obj 234 612 send OSC_MESSAGES;
#X obj 114 539 list prepend;
#X obj 71 43 bng 15 250 50 0 empty empty empty 17 7 0 10 -262144 -1
-1;
#X obj 114 562 l2s /;
#X msg 114 132 File;
#X obj 234 579 list;
#X msg 114 109 Zpos;
#X msg 114 326 RenderOrder;
#X msg 114 369 Yscale;
#X msg 114 389 Xscale;
#X msg 114 409 Ypos;
#X msg 114 429 Xpos;
#X msg 114 225 Blue;
#X msg 114 184 Red;
#X msg 114 205 Green;
#X msg 114 305 modeAlpha;
#X msg 114 348 Shape;
#X msg 114 245 Rotate;
#X msg 114 284 Alpha;
#X msg 114 264 Activate;
#X obj 71 62 t b b b;
#X obj 56 115 t b b b;
#X obj 56 309 t b b b;
#X obj 56 352 t b b b;
#X obj 56 372 t b b b;
#X obj 56 392 t b b b;
#X obj 56 412 t b b b;
#X obj 17 331 t b b b;
#X obj 16 288 t b b b;
#X obj 56 267 t b b b;
#X obj 56 247 t b b b;
#X obj 56 228 t b b b;
#X obj 56 208 t b b b;
#X obj 56 188 t b b b;
#X obj 56 167 t b b b;
#X msg 255 284 1;
#X msg 255 184 1;
#X msg 114 449 ParentName;
#X msg 114 489 g*pos;
#X msg 255 489 0;
#X obj 56 432 t b b b;
#X obj 56 472 t b b b;
#X msg 255 205 1;
#X msg 255 225 1;
#X obj 71 22 r MN1Init;
#X obj 56 452 t b b b;
#X msg 114 469 Child/*pos;
#X msg 255 469 1;
#X msg 255 449 /CochonLights;
#X msg 255 109 -3.0305;
#X msg 183 79 /CuveGalootContent2;
#X msg 255 132 /home/woii/2013_Sebkha-ChottGalootFormula_ThingFish/ThingFishVideoDecorum/MammyNuns/data/MN1_v2/mammy_nun_1_v2_pisse.png
;
#X msg 255 389 0.40384;
#X msg 255 326 -21;
#X msg 255 245 0;
#X msg 255 369 0.72769;
#X msg 255 429 -0.7;
#X msg 255 409 -1.15;
#X msg 255 264 0;
#X connect 1 0 3 0;
#X connect 2 0 20 0;
#X connect 3 0 5 0;
#X connect 4 0 1 0;
#X connect 5 0 0 0;
#X connect 6 0 1 0;
#X connect 7 0 1 0;
#X connect 8 0 1 0;
#X connect 9 0 1 0;
#X connect 10 0 1 0;
#X connect 11 0 1 0;
#X connect 12 0 1 0;
#X connect 13 0 1 0;
#X connect 14 0 1 0;
#X connect 15 0 1 0;
#X connect 17 0 1 0;
#X connect 18 0 1 0;
#X connect 19 0 1 0;
#X connect 20 0 6 0;
#X connect 20 0 21 0;
#X connect 20 1 49 0;
#X connect 20 2 50 0;
#X connect 21 0 34 0;
#X connect 21 1 4 0;
#X connect 21 2 51 0;
#X connect 22 0 23 0;
#X connect 22 1 7 0;
#X connect 22 2 53 0;
#X connect 23 0 24 0;
#X connect 23 1 8 0;
#X connect 23 2 55 0;
#X connect 24 0 25 0;
#X connect 24 1 9 0;
#X connect 24 2 52 0;
#X connect 25 0 26 0;
#X connect 25 1 10 0;
#X connect 25 2 57 0;
#X connect 26 0 40 0;
#X connect 26 1 11 0;
#X connect 26 2 56 0;
#X connect 27 1 16 0;
#X connect 28 1 15 0;
#X connect 29 0 22 0;
#X connect 29 1 18 0;
#X connect 29 2 35 0;
#X connect 30 0 29 0;
#X connect 30 1 19 0;
#X connect 30 2 58 0;
#X connect 31 0 30 0;
#X connect 31 1 17 0;
#X connect 31 2 54 0;
#X connect 32 0 31 0;
#X connect 32 1 12 0;
#X connect 32 2 43 0;
#X connect 33 0 32 0;
#X connect 33 1 14 0;
#X connect 33 2 42 0;
#X connect 34 0 33 0;
#X connect 34 1 13 0;
#X connect 34 2 36 0;
#X connect 35 0 5 1;
#X connect 36 0 5 1;
#X connect 37 0 1 0;
#X connect 38 0 1 0;
#X connect 39 0 5 1;
#X connect 40 0 45 0;
#X connect 40 1 37 0;
#X connect 40 2 48 0;
#X connect 41 1 38 0;
#X connect 41 2 39 0;
#X connect 42 0 5 1;
#X connect 43 0 5 1;
#X connect 44 0 2 0;
#X connect 45 0 41 0;
#X connect 45 1 46 0;
#X connect 45 2 47 0;
#X connect 46 0 1 0;
#X connect 47 0 5 1;
#X connect 48 0 5 1;
#X connect 49 0 5 1;
#X connect 50 0 1 1;
#X connect 51 0 5 1;
#X connect 52 0 5 1;
#X connect 53 0 5 1;
#X connect 54 0 5 1;
#X connect 55 0 5 1;
#X connect 56 0 5 1;
#X connect 57 0 5 1;
#X connect 58 0 5 1;
#X restore 81 191 pd MN1UrineInit;
#X msg 363 253 0;
#N canvas 668 343 450 300 MN1Moves 1;
#N canvas 0 100 1440 800 MN1Dances 0;
#X obj 23 14 r MNDance;
#X obj 23 45 bng 15 250 50 0 empty empty empty 17 7 0 10 -262144 -1
-1;
#X obj 23 81 metro 500;
#X obj 74 54 r TempoDance;
#X msg 198 64 stop;
#X obj 198 29 r MNStopDancing;
#X obj 23 147 delay 250;
#X obj 74 111 / 2;
#X msg 23 382 /CuveGaloot/Ypos \$1;
#X obj 23 335 line;
#X obj 23 199 v /CuveGaloot/Ypos;
#X obj 23 219 + 0.2;
#X msg 23 261 set \$1 100;
#X msg 23 291 -1.3 100;
#X msg 141 216 set \$1 100;
#X msg 141 318 -1.5 100;
#X obj 141 164 delay 100;
#X obj 94 459 s OSC_MESSAGES;
#X obj 210 333 line;
#X obj 210 222 + 0.2;
#X msg 210 265 set \$1 100;
#X msg 210 300 -1.3 100;
#X msg 385 115 set \$1 100;
#X msg 385 282 -1.5 100;
#X obj 211 133 delay 100;
#X obj 210 98 v /CuveGalootContent/Ypos;
#X msg 210 378 /CuveGalootContent/Ypos \$1;
#X obj 483 147 delay 250;
#X obj 534 111 / 2;
#X obj 483 335 line;
#X obj 483 219 + 0.2;
#X msg 483 261 set \$1 100;
#X msg 483 291 0.2 100;
#X msg 601 216 set \$1 100;
#X msg 601 318 0 100;
#X obj 601 164 delay 100;
#X obj 554 459 s OSC_MESSAGES;
#X obj 670 333 line;
#X obj 670 222 + 0.2;
#X msg 670 265 set \$1 100;
#X msg 670 300 0.2 100;
#X msg 845 115 set \$1 100;
#X msg 845 282 0 100;
#X obj 671 133 delay 100;
#X obj 483 199 v /Tube/Ypos;
#X msg 483 382 /Tube/Ypos \$1;
#X msg 670 378 /Djbebe/Ypos \$1;
#X obj 670 98 v /Djbebe/Ypos;
#X obj 23 107 t b b;
#X obj 23 171 t b b;
#X obj 483 173 t b b;
#X obj 574 10 r MN1StopHands;
#X msg 574 36 0;
#X msg 574 60 1;
#X obj 541 427 spigot;
#X obj 353 596 random 20;
#X obj 353 638 - 10;
#X msg 353 697 \$1 250;
#X obj 353 722 line;
#X obj 574 585 t b b;
#X obj 604 613 random 10;
#X obj 597 657 / 100;
#X obj 668 746 line;
#X msg 741 693 1.95307 125;
#X obj 634 675 +;
#X obj 597 633 - 5;
#X msg 651 700 set \$1 125;
#X msg 840 651 set \$1 125;
#X msg 845 690 1.92307 125;
#X obj 994 654 delay 125;
#X msg 353 747 /Cochon/Rotate \$1;
#X obj 725 621 v /CochonLights/Yscale;
#X msg 746 738 /CochonLights/Yscale \$1;
#X connect 0 0 1 0;
#X connect 1 0 2 0;
#X connect 1 0 53 0;
#X connect 2 0 6 0;
#X connect 2 0 24 0;
#X connect 2 0 27 0;
#X connect 2 0 43 0;
#X connect 2 0 48 0;
#X connect 2 0 59 0;
#X connect 3 0 2 1;
#X connect 3 0 7 0;
#X connect 3 0 28 0;
#X connect 4 0 2 0;
#X connect 5 0 4 0;
#X connect 6 0 16 0;
#X connect 6 0 49 0;
#X connect 7 0 6 1;
#X connect 8 0 17 0;
#X connect 9 0 8 0;
#X connect 10 0 11 0;
#X connect 10 0 14 0;
#X connect 11 0 12 0;
#X connect 12 0 13 0;
#X connect 13 0 9 0;
#X connect 14 0 15 0;
#X connect 15 0 9 0;
#X connect 16 0 15 0;
#X connect 18 0 26 0;
#X connect 19 0 20 0;
#X connect 20 0 21 0;
#X connect 21 0 18 0;
#X connect 22 0 23 0;
#X connect 23 0 18 0;
#X connect 24 0 23 0;
#X connect 25 0 19 0;
#X connect 25 0 22 0;
#X connect 26 0 17 0;
#X connect 27 0 35 0;
#X connect 27 0 50 0;
#X connect 28 0 27 1;
#X connect 29 0 45 0;
#X connect 30 0 31 0;
#X connect 31 0 32 0;
#X connect 32 0 29 0;
#X connect 33 0 34 0;
#X connect 34 0 29 0;
#X connect 35 0 34 0;
#X connect 37 0 46 0;
#X connect 38 0 39 0;
#X connect 39 0 40 0;
#X connect 40 0 37 0;
#X connect 41 0 42 0;
#X connect 42 0 37 0;
#X connect 43 0 42 0;
#X connect 44 0 30 0;
#X connect 44 0 33 0;
#X connect 45 0 54 0;
#X connect 46 0 54 0;
#X connect 47 0 38 0;
#X connect 47 0 41 0;
#X connect 48 0 21 0;
#X connect 48 0 40 0;
#X connect 48 0 55 0;
#X connect 48 1 25 0;
#X connect 48 1 47 0;
#X connect 49 0 13 0;
#X connect 49 1 10 0;
#X connect 50 0 32 0;
#X connect 50 1 44 0;
#X connect 51 0 52 0;
#X connect 52 0 54 1;
#X connect 53 0 54 1;
#X connect 54 0 36 0;
#X connect 55 0 56 0;
#X connect 56 0 57 0;
#X connect 57 0 58 0;
#X connect 58 0 70 0;
#X connect 59 0 60 0;
#X connect 59 0 63 0;
#X connect 59 0 69 0;
#X connect 59 1 71 0;
#X connect 60 0 65 0;
#X connect 61 0 64 0;
#X connect 62 0 72 0;
#X connect 63 0 62 0;
#X connect 64 0 66 0;
#X connect 65 0 61 0;
#X connect 66 0 63 0;
#X connect 67 0 68 0;
#X connect 68 0 62 0;
#X connect 69 0 68 0;
#X connect 70 0 17 0;
#X connect 71 0 62 0;
#X connect 71 0 64 1;
#X connect 71 0 67 0;
#X connect 72 0 17 0;
#X restore 34 23 pd MN1Dances;
#N canvas 0 100 1440 800 MN1Pees 1;
#X obj 48 36 r MNPee;
#X obj 79 496 s OSC_MESSAGES;
#X obj 79 422 line;
#X obj 309 422 line;
#X obj 48 296 t b b;
#X msg 48 405 0.1 300;
#X obj 665 270 bng 15 250 50 0 empty empty empty 17 7 0 10 -262144
-1 -1;
#X obj 665 450 line;
#X obj 915 446 line;
#X msg 915 315 0;
#X msg 665 383 set \$1 200;
#X msg 665 412 0.40384 200;
#X msg 915 383 set \$1 200;
#X msg 915 409 0.72769 200;
#X obj 665 298 t b b b;
#X obj 1155 446 line;
#X msg 1155 383 set \$1 200;
#X msg 1155 409 -1.15 200;
#X msg 1155 315 -0.5;
#X obj 48 113 s MN1SoulevageJupe;
#X obj 47 185 s MN1StartsPeeing;
#X obj 48 227 r MN1SoulevageJupe;
#X obj 665 243 r MN1StartsPeeing;
#X obj 79 340 v /WashMachine/Yscale;
#X obj 299 340 v /WashMachine/Ypos;
#X msg 309 444 /WashMachine/Ypos \$1;
#X msg 79 444 /WashMachine/Yscale \$1;
#X msg 665 479 /CuveGalootContent2/Xscale \$1;
#X msg 915 479 /CuveGalootContent2/Yscale \$1;
#X msg 665 533 /CuveGalootContent2/Activate 1;
#X obj 665 346 v /CuveGalootContent2/Xscale;
#X obj 915 346 v /CuveGalootContent2/Yscale;
#X obj 1155 346 v /CuveGalootContent2/Ypos;
#X msg 1155 479 /CuveGalootContent2/Ypos \$1;
#X obj 48 80 delay 100;
#X msg 349 405 0.1 300;
#X obj 1335 446 line;
#X msg 1335 383 set \$1 200;
#X msg 1335 409 -0.7 200;
#X obj 1335 346 v /CuveGalootContent2/Xpos;
#X msg 1335 479 /CuveGalootContent2/Xpos \$1;
#X obj 1335 290 + 0.3;
#X msg 1335 315 \$1;
#X obj 1155 290 + 0.65;
#X obj 82 589 v /Djbebe/Ypos;
#X msg 82 701 /Djbebe/Ypos \$1;
#X obj 82 670 line;
#X obj 66 557 bng 15 250 50 0 empty empty empty 17 7 0 10 -262144 -1
-1;
#X obj 72 753 s OSC_MESSAGES;
#X msg 125 623 set \$1 200;
#X msg 136 653 -0.72 200;
#X obj 251 572 t b b;
#X obj 278 608 delay 200;
#X msg 273 642 set \$1 200;
#X msg 277 668 0.08 200;
#X obj 372 670 line;
#X msg 415 623 set \$1 200;
#X msg 426 653 0.15 200;
#X msg 372 701 /Djbebe/Yscale \$1;
#X obj 372 589 v /Djbebe/Yscale;
#X obj 400 613 - 0.1;
#X obj 95 279 delay 200;
#X obj 67 255 bng 15 250 50 0 empty empty empty 17 7 0 10 -262144 -1
-1;
#X obj 492 670 line;
#X msg 535 623 set \$1 200;
#X msg 546 653 -0.84 200;
#X msg 492 701 /Djbebe/Xpos \$1;
#X obj 492 589 v /Djbebe/Xpos;
#X obj 520 613 + 0.3;
#X obj 233 632 + 0.2;
#X obj 110 613 - 0.6;
#X obj 622 670 line;
#X msg 665 623 set \$1 200;
#X msg 676 653 -0.56 200;
#X obj 791 572 t b b;
#X obj 818 608 delay 200;
#X msg 813 642 set \$1 200;
#X msg 817 668 0.24 200;
#X obj 912 670 line;
#X msg 955 623 set \$1 200;
#X msg 966 653 0.15 200;
#X obj 940 613 - 0.1;
#X obj 1032 670 line;
#X msg 1075 623 set \$1 200;
#X msg 1086 653 0.84 200;
#X obj 773 632 + 0.2;
#X obj 650 613 - 0.6;
#X obj 622 589 v /Tube/Ypos;
#X obj 912 589 v /Tube/Yscale;
#X obj 1032 589 v /Tube/Xpos;
#X msg 622 701 /Tube/Ypos \$1;
#X msg 912 701 /Tube/Yscale \$1;
#X msg 1032 701 /Tube/Xpos \$1;
#X obj 1060 613 - 0.3;
#X obj 48 59 bng 15 250 50 0 empty empty empty 17 7 0 10 -262144 -1
-1;
#X obj 47 149 delay 600;
#X obj 877 182 metro 100;
#X msg 1026 214 /CuveGalootContent2/Yscale \$1;
#X msg 975 265 set \$1 50;
#X msg 975 293 0.72769 50;
#X obj 971 161 + 0.01;
#X msg 1040 182 set \$1 50;
#X msg 1114 170 0.73769 50;
#X obj 888 219 delay 50;
#X obj 773 278 delay 210;
#X obj 837 126 r MNStopPeeing;
#X msg 843 154 stop;
#X obj 246 74 s MN1StopHands;
#X connect 0 0 94 0;
#X connect 2 0 26 0;
#X connect 3 0 25 0;
#X connect 4 0 35 0;
#X connect 4 0 5 0;
#X connect 4 1 23 0;
#X connect 4 1 24 0;
#X connect 5 0 2 0;
#X connect 6 0 14 0;
#X connect 7 0 27 0;
#X connect 8 0 28 0;
#X connect 8 0 100 0;
#X connect 9 0 7 0;
#X connect 9 0 8 0;
#X connect 10 0 11 0;
#X connect 11 0 7 0;
#X connect 12 0 13 0;
#X connect 13 0 8 0;
#X connect 14 0 29 0;
#X connect 14 0 11 0;
#X connect 14 0 13 0;
#X connect 14 0 17 0;
#X connect 14 0 38 0;
#X connect 14 1 9 0;
#X connect 14 2 30 0;
#X connect 14 2 31 0;
#X connect 14 2 32 0;
#X connect 14 2 39 0;
#X connect 14 2 104 0;
#X connect 15 0 33 0;
#X connect 16 0 17 0;
#X connect 17 0 15 0;
#X connect 18 0 15 0;
#X connect 21 0 62 0;
#X connect 22 0 6 0;
#X connect 23 0 2 0;
#X connect 24 0 3 0;
#X connect 25 0 1 0;
#X connect 26 0 1 0;
#X connect 27 0 1 0;
#X connect 28 0 1 0;
#X connect 29 0 1 0;
#X connect 30 0 10 0;
#X connect 31 0 12 0;
#X connect 31 0 98 0;
#X connect 32 0 16 0;
#X connect 32 0 43 0;
#X connect 33 0 1 0;
#X connect 34 0 19 0;
#X connect 34 0 95 0;
#X connect 35 0 3 0;
#X connect 36 0 40 0;
#X connect 37 0 38 0;
#X connect 38 0 36 0;
#X connect 39 0 37 0;
#X connect 39 0 41 0;
#X connect 40 0 1 0;
#X connect 41 0 42 0;
#X connect 42 0 36 0;
#X connect 43 0 18 0;
#X connect 44 0 46 0;
#X connect 44 0 69 0;
#X connect 44 0 70 0;
#X connect 45 0 48 0;
#X connect 46 0 45 0;
#X connect 47 0 51 0;
#X connect 47 0 74 0;
#X connect 49 0 50 0;
#X connect 50 0 46 0;
#X connect 51 0 50 0;
#X connect 51 0 65 0;
#X connect 51 1 44 0;
#X connect 51 1 52 0;
#X connect 51 1 59 0;
#X connect 51 1 67 0;
#X connect 52 0 54 0;
#X connect 52 0 57 0;
#X connect 53 0 54 0;
#X connect 54 0 46 0;
#X connect 55 0 58 0;
#X connect 56 0 57 0;
#X connect 57 0 55 0;
#X connect 58 0 48 0;
#X connect 59 0 55 0;
#X connect 59 0 60 0;
#X connect 60 0 56 0;
#X connect 61 0 4 0;
#X connect 62 0 61 0;
#X connect 62 0 47 0;
#X connect 63 0 66 0;
#X connect 64 0 65 0;
#X connect 65 0 63 0;
#X connect 66 0 48 0;
#X connect 67 0 63 0;
#X connect 67 0 68 0;
#X connect 68 0 64 0;
#X connect 69 0 53 0;
#X connect 70 0 49 0;
#X connect 71 0 90 0;
#X connect 72 0 73 0;
#X connect 73 0 71 0;
#X connect 74 0 73 0;
#X connect 74 0 84 0;
#X connect 74 1 75 0;
#X connect 74 1 87 0;
#X connect 74 1 88 0;
#X connect 74 1 89 0;
#X connect 75 0 77 0;
#X connect 75 0 80 0;
#X connect 76 0 77 0;
#X connect 77 0 71 0;
#X connect 78 0 91 0;
#X connect 79 0 80 0;
#X connect 80 0 78 0;
#X connect 81 0 79 0;
#X connect 82 0 92 0;
#X connect 83 0 84 0;
#X connect 84 0 82 0;
#X connect 85 0 76 0;
#X connect 86 0 72 0;
#X connect 87 0 71 0;
#X connect 87 0 85 0;
#X connect 87 0 86 0;
#X connect 88 0 78 0;
#X connect 88 0 81 0;
#X connect 89 0 82 0;
#X connect 89 0 93 0;
#X connect 90 0 48 0;
#X connect 91 0 48 0;
#X connect 92 0 48 0;
#X connect 93 0 83 0;
#X connect 94 0 34 0;
#X connect 94 0 107 0;
#X connect 95 0 20 0;
#X connect 96 0 103 0;
#X connect 96 0 99 0;
#X connect 97 0 1 0;
#X connect 98 0 99 0;
#X connect 99 0 97 0;
#X connect 100 0 101 0;
#X connect 101 0 102 0;
#X connect 102 0 97 0;
#X connect 103 0 102 0;
#X connect 104 0 96 0;
#X connect 105 0 106 0;
#X connect 106 0 96 0;
#X restore 36 66 pd MN1Pees;
#X restore 907 109 pd MN1Moves;
#X obj 89 266 r MNInit;
#X connect 7 0 9 0;
#X connect 9 0 6 0;
#X connect 9 1 10 0;
#X connect 11 0 13 0;
#X connect 13 0 12 0;
#X connect 15 0 11 0;
#X connect 17 0 7 0;
