#N canvas 0 100 1440 800 10;
#N canvas 473 100 850 796 MN5TeteInit 0;
#X obj 234 622 send OSC_MESSAGES;
#X obj 114 549 list prepend;
#X obj 71 43 bng 15 250 50 0 empty empty empty 17 7 0 10 -262144 -1
-1;
#X obj 114 572 l2s /;
#X msg 114 132 File;
#X obj 234 589 list;
#X msg 114 109 Zpos;
#X msg 114 326 RenderOrder;
#X msg 114 369 Yscale;
#X msg 114 389 Xscale;
#X msg 114 409 Ypos;
#X msg 114 429 Xpos;
#X msg 114 225 Blue;
#X msg 114 184 Red;
#X msg 114 205 Green;
#X msg 114 305 modeAlpha;
#X msg 114 348 Shape;
#X msg 114 245 Rotate;
#X msg 114 284 Alpha;
#X msg 114 264 Activate;
#X obj 71 62 t b b b;
#X obj 56 115 t b b b;
#X obj 56 309 t b b b;
#X obj 56 352 t b b b;
#X obj 56 372 t b b b;
#X obj 56 392 t b b b;
#X obj 56 412 t b b b;
#X obj 17 331 t b b b;
#X obj 16 288 t b b b;
#X obj 56 267 t b b b;
#X obj 56 247 t b b b;
#X obj 56 228 t b b b;
#X obj 56 208 t b b b;
#X obj 56 188 t b b b;
#X obj 56 167 t b b b;
#X msg 255 245 0;
#X msg 255 284 1;
#X msg 255 184 1;
#X msg 114 449 ParentName;
#X obj 56 432 t b b b;
#X obj 56 452 t b b b;
#X msg 255 205 1;
#X msg 255 225 1;
#X obj 71 22 r MN5Init;
#X msg 255 132 /home/woii/2013_Sebkha-ChottGalootFormula_ThingFish/ThingFishVideoDecorum/MammyNuns/data/MN5/mammy_nun_5_tete.png
;
#X msg 255 109 -3.031;
#X msg 255 326 -20;
#X msg 255 264 1;
#X msg 255 409 1;
#X msg 255 449 /Zombies_Chien_PatteArriere1;
#X msg 114 489 g*pos;
#X msg 255 489 0;
#X obj 56 472 t b b b;
#X msg 114 469 Child/*pos;
#X msg 255 469 1;
#X msg 183 79 /Zombies_Annie_BrasFond;
#X msg 255 369 1.1;
#X msg 255 389 1.1;
#X msg 255 429 0.05;
#X connect 1 0 3 0;
#X connect 2 0 20 0;
#X connect 3 0 5 0;
#X connect 4 0 1 0;
#X connect 5 0 0 0;
#X connect 6 0 1 0;
#X connect 7 0 1 0;
#X connect 8 0 1 0;
#X connect 9 0 1 0;
#X connect 10 0 1 0;
#X connect 11 0 1 0;
#X connect 12 0 1 0;
#X connect 13 0 1 0;
#X connect 14 0 1 0;
#X connect 15 0 1 0;
#X connect 17 0 1 0;
#X connect 18 0 1 0;
#X connect 19 0 1 0;
#X connect 20 0 6 0;
#X connect 20 0 21 0;
#X connect 20 1 45 0;
#X connect 20 2 55 0;
#X connect 21 0 34 0;
#X connect 21 1 4 0;
#X connect 21 2 44 0;
#X connect 22 0 23 0;
#X connect 22 1 7 0;
#X connect 22 2 46 0;
#X connect 23 0 24 0;
#X connect 23 1 8 0;
#X connect 23 2 56 0;
#X connect 24 0 25 0;
#X connect 24 1 9 0;
#X connect 24 2 57 0;
#X connect 25 0 26 0;
#X connect 25 1 10 0;
#X connect 25 2 48 0;
#X connect 26 0 39 0;
#X connect 26 1 11 0;
#X connect 26 2 58 0;
#X connect 27 1 16 0;
#X connect 28 1 15 0;
#X connect 29 0 22 0;
#X connect 29 1 18 0;
#X connect 29 2 36 0;
#X connect 30 0 29 0;
#X connect 30 1 19 0;
#X connect 30 2 47 0;
#X connect 31 0 30 0;
#X connect 31 1 17 0;
#X connect 31 2 35 0;
#X connect 32 0 31 0;
#X connect 32 1 12 0;
#X connect 32 2 42 0;
#X connect 33 0 32 0;
#X connect 33 1 14 0;
#X connect 33 2 41 0;
#X connect 34 0 33 0;
#X connect 34 1 13 0;
#X connect 34 2 37 0;
#X connect 35 0 5 1;
#X connect 36 0 5 1;
#X connect 37 0 5 1;
#X connect 38 0 1 0;
#X connect 39 0 40 0;
#X connect 39 1 38 0;
#X connect 39 2 49 0;
#X connect 40 0 52 0;
#X connect 40 1 53 0;
#X connect 40 2 54 0;
#X connect 41 0 5 1;
#X connect 42 0 5 1;
#X connect 43 0 2 0;
#X connect 44 0 5 1;
#X connect 45 0 5 1;
#X connect 46 0 5 1;
#X connect 47 0 5 1;
#X connect 48 0 5 1;
#X connect 49 0 5 1;
#X connect 50 0 1 0;
#X connect 51 0 5 1;
#X connect 52 1 50 0;
#X connect 52 2 51 0;
#X connect 53 0 1 0;
#X connect 54 0 5 1;
#X connect 55 0 1 1;
#X connect 56 0 5 1;
#X connect 57 0 5 1;
#X connect 58 0 5 1;
#X restore 81 51 pd MN5TeteInit;
#N canvas 467 100 850 796 MN5CorpsInit 0;
#X obj 234 622 send OSC_MESSAGES;
#X obj 114 549 list prepend;
#X obj 71 43 bng 15 250 50 0 empty empty empty 17 7 0 10 -262144 -1
-1;
#X obj 114 572 l2s /;
#X msg 114 132 File;
#X obj 234 589 list;
#X msg 114 109 Zpos;
#X msg 114 326 RenderOrder;
#X msg 114 369 Yscale;
#X msg 114 389 Xscale;
#X msg 114 409 Ypos;
#X msg 114 429 Xpos;
#X msg 114 225 Blue;
#X msg 114 184 Red;
#X msg 114 205 Green;
#X msg 114 305 modeAlpha;
#X msg 114 348 Shape;
#X msg 114 245 Rotate;
#X msg 114 284 Alpha;
#X msg 114 264 Activate;
#X obj 71 62 t b b b;
#X obj 56 115 t b b b;
#X obj 56 309 t b b b;
#X obj 56 352 t b b b;
#X obj 56 372 t b b b;
#X obj 56 392 t b b b;
#X obj 56 412 t b b b;
#X obj 17 331 t b b b;
#X obj 16 288 t b b b;
#X obj 56 267 t b b b;
#X obj 56 247 t b b b;
#X obj 56 228 t b b b;
#X obj 56 208 t b b b;
#X obj 56 188 t b b b;
#X obj 56 167 t b b b;
#X msg 255 245 0;
#X msg 255 284 1;
#X msg 255 184 1;
#X msg 114 449 ParentName;
#X msg 114 469 g*pos;
#X msg 255 469 0;
#X obj 56 432 t b b b;
#X obj 56 452 t b b b;
#X msg 255 205 1;
#X msg 255 225 1;
#X msg 255 429 0;
#X msg 255 264 1;
#X msg 255 409 0;
#X msg 183 79 /Zombies_Chien_PatteArriere1;
#X msg 255 109 -3.0311;
#X msg 255 326 -21;
#X obj 56 472 t b b b;
#X msg 114 489 Child/*pos;
#X msg 255 449 /Dummy;
#X msg 255 489 0;
#X obj 71 22 r MN5EarlyInit;
#X msg 255 132 /home/woii/2013_Sebkha-ChottGalootFormula_ThingFish/ThingFishVideoDecorum/MammyNuns/data/MN5/mammy_nun_5_corps.png
;
#X msg 255 389 0.75;
#X msg 255 369 1.0876;
#X connect 1 0 3 0;
#X connect 2 0 20 0;
#X connect 3 0 5 0;
#X connect 4 0 1 0;
#X connect 5 0 0 0;
#X connect 6 0 1 0;
#X connect 7 0 1 0;
#X connect 8 0 1 0;
#X connect 9 0 1 0;
#X connect 10 0 1 0;
#X connect 11 0 1 0;
#X connect 12 0 1 0;
#X connect 13 0 1 0;
#X connect 14 0 1 0;
#X connect 15 0 1 0;
#X connect 17 0 1 0;
#X connect 18 0 1 0;
#X connect 19 0 1 0;
#X connect 20 0 6 0;
#X connect 20 0 21 0;
#X connect 20 1 49 0;
#X connect 20 2 48 0;
#X connect 21 0 34 0;
#X connect 21 1 4 0;
#X connect 21 2 56 0;
#X connect 22 0 23 0;
#X connect 22 1 7 0;
#X connect 22 2 50 0;
#X connect 23 0 24 0;
#X connect 23 1 8 0;
#X connect 23 2 58 0;
#X connect 24 0 25 0;
#X connect 24 1 9 0;
#X connect 24 2 57 0;
#X connect 25 0 26 0;
#X connect 25 1 10 0;
#X connect 25 2 47 0;
#X connect 26 0 41 0;
#X connect 26 1 11 0;
#X connect 26 2 45 0;
#X connect 27 1 16 0;
#X connect 28 1 15 0;
#X connect 29 0 22 0;
#X connect 29 1 18 0;
#X connect 29 2 36 0;
#X connect 30 0 29 0;
#X connect 30 1 19 0;
#X connect 30 2 46 0;
#X connect 31 0 30 0;
#X connect 31 1 17 0;
#X connect 31 2 35 0;
#X connect 32 0 31 0;
#X connect 32 1 12 0;
#X connect 32 2 44 0;
#X connect 33 0 32 0;
#X connect 33 1 14 0;
#X connect 33 2 43 0;
#X connect 34 0 33 0;
#X connect 34 1 13 0;
#X connect 34 2 37 0;
#X connect 35 0 5 1;
#X connect 36 0 5 1;
#X connect 37 0 5 1;
#X connect 38 0 1 0;
#X connect 39 0 1 0;
#X connect 40 0 5 1;
#X connect 41 0 42 0;
#X connect 41 1 38 0;
#X connect 41 2 53 0;
#X connect 42 0 51 0;
#X connect 42 1 39 0;
#X connect 42 2 40 0;
#X connect 43 0 5 1;
#X connect 44 0 5 1;
#X connect 45 0 5 1;
#X connect 46 0 5 1;
#X connect 47 0 5 1;
#X connect 48 0 1 1;
#X connect 49 0 5 1;
#X connect 50 0 5 1;
#X connect 51 1 52 0;
#X connect 51 2 54 0;
#X connect 52 0 1 0;
#X connect 53 0 5 1;
#X connect 54 0 5 1;
#X connect 55 0 2 0;
#X connect 56 0 5 1;
#X connect 57 0 5 1;
#X connect 58 0 5 1;
#X restore 81 71 pd MN5CorpsInit;
#X obj 89 368 s MN5Init;
#X obj 89 296 bng 15 250 50 0 empty empty empty 17 7 0 10 -262144 -1
-1;
#N canvas 459 100 850 796 MN5RobeInit 0;
#X obj 234 622 send OSC_MESSAGES;
#X obj 114 549 list prepend;
#X obj 71 43 bng 15 250 50 0 empty empty empty 17 7 0 10 -262144 -1
-1;
#X obj 114 572 l2s /;
#X msg 114 132 File;
#X obj 234 589 list;
#X msg 114 109 Zpos;
#X msg 114 326 RenderOrder;
#X msg 114 369 Yscale;
#X msg 114 389 Xscale;
#X msg 114 409 Ypos;
#X msg 114 429 Xpos;
#X msg 114 225 Blue;
#X msg 114 184 Red;
#X msg 114 205 Green;
#X msg 114 305 modeAlpha;
#X msg 114 348 Shape;
#X msg 114 245 Rotate;
#X msg 114 284 Alpha;
#X msg 114 264 Activate;
#X obj 71 62 t b b b;
#X obj 56 115 t b b b;
#X obj 56 309 t b b b;
#X obj 56 352 t b b b;
#X obj 56 372 t b b b;
#X obj 56 392 t b b b;
#X obj 56 412 t b b b;
#X obj 17 331 t b b b;
#X obj 16 288 t b b b;
#X obj 56 267 t b b b;
#X obj 56 247 t b b b;
#X obj 56 228 t b b b;
#X obj 56 208 t b b b;
#X obj 56 188 t b b b;
#X obj 56 167 t b b b;
#X msg 255 245 0;
#X msg 255 284 1;
#X msg 255 184 1;
#X msg 114 449 ParentName;
#X msg 114 489 g*pos;
#X msg 255 489 0;
#X obj 56 432 t b b b;
#X obj 56 472 t b b b;
#X msg 255 205 1;
#X msg 255 225 1;
#X obj 71 22 r MN5Init;
#X msg 255 132 /home/woii/2013_Sebkha-ChottGalootFormula_ThingFish/ThingFishVideoDecorum/MammyNuns/data/MN5/mammy_nun_5_robe.png
;
#X msg 255 109 -3.03;
#X msg 255 326 -19;
#X msg 255 389 0.81923;
#X msg 255 369 0.7923;
#X msg 255 409 -0.5;
#X msg 255 429 0.15;
#X obj 56 452 t b b b;
#X msg 114 469 Child/*pos;
#X msg 255 469 1;
#X msg 255 449 /Zombies_Chien_PatteArriere1;
#X msg 183 79 /Zombies_Chien_PatteAvant1;
#X msg 255 264 1;
#X connect 1 0 3 0;
#X connect 2 0 20 0;
#X connect 3 0 5 0;
#X connect 4 0 1 0;
#X connect 5 0 0 0;
#X connect 6 0 1 0;
#X connect 7 0 1 0;
#X connect 8 0 1 0;
#X connect 9 0 1 0;
#X connect 10 0 1 0;
#X connect 11 0 1 0;
#X connect 12 0 1 0;
#X connect 13 0 1 0;
#X connect 14 0 1 0;
#X connect 15 0 1 0;
#X connect 17 0 1 0;
#X connect 18 0 1 0;
#X connect 19 0 1 0;
#X connect 20 0 6 0;
#X connect 20 0 21 0;
#X connect 20 1 47 0;
#X connect 20 2 57 0;
#X connect 21 0 34 0;
#X connect 21 1 4 0;
#X connect 21 2 46 0;
#X connect 22 0 23 0;
#X connect 22 1 7 0;
#X connect 22 2 48 0;
#X connect 23 0 24 0;
#X connect 23 1 8 0;
#X connect 23 2 50 0;
#X connect 24 0 25 0;
#X connect 24 1 9 0;
#X connect 24 2 49 0;
#X connect 25 0 26 0;
#X connect 25 1 10 0;
#X connect 25 2 51 0;
#X connect 26 0 41 0;
#X connect 26 1 11 0;
#X connect 26 2 52 0;
#X connect 27 1 16 0;
#X connect 28 1 15 0;
#X connect 29 0 22 0;
#X connect 29 1 18 0;
#X connect 29 2 36 0;
#X connect 30 0 29 0;
#X connect 30 1 19 0;
#X connect 30 2 58 0;
#X connect 31 0 30 0;
#X connect 31 1 17 0;
#X connect 31 2 35 0;
#X connect 32 0 31 0;
#X connect 32 1 12 0;
#X connect 32 2 44 0;
#X connect 33 0 32 0;
#X connect 33 1 14 0;
#X connect 33 2 43 0;
#X connect 34 0 33 0;
#X connect 34 1 13 0;
#X connect 34 2 37 0;
#X connect 35 0 5 1;
#X connect 36 0 5 1;
#X connect 37 0 5 1;
#X connect 38 0 1 0;
#X connect 39 0 1 0;
#X connect 40 0 5 1;
#X connect 41 0 53 0;
#X connect 41 1 38 0;
#X connect 41 2 56 0;
#X connect 42 1 39 0;
#X connect 42 2 40 0;
#X connect 43 0 5 1;
#X connect 44 0 5 1;
#X connect 45 0 2 0;
#X connect 46 0 5 1;
#X connect 47 0 5 1;
#X connect 48 0 5 1;
#X connect 49 0 5 1;
#X connect 50 0 5 1;
#X connect 51 0 5 1;
#X connect 52 0 5 1;
#X connect 53 0 42 0;
#X connect 53 1 54 0;
#X connect 53 2 55 0;
#X connect 54 0 1 0;
#X connect 55 0 5 1;
#X connect 56 0 5 1;
#X connect 57 0 1 1;
#X connect 58 0 5 1;
#X restore 81 91 pd MN5RobeInit;
#X obj 89 316 t b b;
#X obj 116 338 s MN5EarlyInit;
#X obj 366 283 hsl 128 15 -8 8 0 0 empty empty empty -2 -8 0 10 -262144
-1 -1 6350 1;
#X obj 363 369 s OSC_MESSAGES;
#X msg 363 328 /Zombies_Chien_PatteArriere1/Xpos \$1;
#N canvas 469 100 850 796 MN5UrineInit 0;
#X obj 234 612 send OSC_MESSAGES;
#X obj 114 539 list prepend;
#X obj 71 43 bng 15 250 50 0 empty empty empty 17 7 0 10 -262144 -1
-1;
#X obj 114 562 l2s /;
#X msg 114 132 File;
#X obj 234 579 list;
#X msg 114 109 Zpos;
#X msg 114 326 RenderOrder;
#X msg 114 369 Yscale;
#X msg 114 389 Xscale;
#X msg 114 409 Ypos;
#X msg 114 429 Xpos;
#X msg 114 225 Blue;
#X msg 114 184 Red;
#X msg 114 205 Green;
#X msg 114 305 modeAlpha;
#X msg 114 348 Shape;
#X msg 114 245 Rotate;
#X msg 114 284 Alpha;
#X msg 114 264 Activate;
#X obj 71 62 t b b b;
#X obj 56 115 t b b b;
#X obj 56 309 t b b b;
#X obj 56 352 t b b b;
#X obj 56 372 t b b b;
#X obj 56 392 t b b b;
#X obj 56 412 t b b b;
#X obj 17 331 t b b b;
#X obj 16 288 t b b b;
#X obj 56 267 t b b b;
#X obj 56 247 t b b b;
#X obj 56 228 t b b b;
#X obj 56 208 t b b b;
#X obj 56 188 t b b b;
#X obj 56 167 t b b b;
#X msg 255 284 1;
#X msg 255 184 1;
#X msg 114 449 ParentName;
#X msg 114 489 g*pos;
#X msg 255 489 0;
#X obj 56 432 t b b b;
#X obj 56 472 t b b b;
#X msg 255 205 1;
#X msg 255 225 1;
#X obj 71 22 r MN5Init;
#X obj 56 452 t b b b;
#X msg 114 469 Child/*pos;
#X msg 255 469 1;
#X msg 255 449 /Zombies_Chien_PatteArriere1;
#X msg 255 109 -3.0305;
#X msg 255 132 /home/woii/2013_Sebkha-ChottGalootFormula_ThingFish/ThingFishVideoDecorum/MammyNuns/data/MN5/mammy_nun_5_pisse.png
;
#X msg 255 326 -21;
#X msg 255 245 0;
#X msg 255 409 -1.15;
#X msg 183 79 /Zombies_HelloDolly_BrasFond;
#X msg 255 389 0.30384;
#X msg 255 429 0.85;
#X msg 255 369 0.6569;
#X msg 255 264 0;
#X connect 1 0 3 0;
#X connect 2 0 20 0;
#X connect 3 0 5 0;
#X connect 4 0 1 0;
#X connect 5 0 0 0;
#X connect 6 0 1 0;
#X connect 7 0 1 0;
#X connect 8 0 1 0;
#X connect 9 0 1 0;
#X connect 10 0 1 0;
#X connect 11 0 1 0;
#X connect 12 0 1 0;
#X connect 13 0 1 0;
#X connect 14 0 1 0;
#X connect 15 0 1 0;
#X connect 17 0 1 0;
#X connect 18 0 1 0;
#X connect 19 0 1 0;
#X connect 20 0 6 0;
#X connect 20 0 21 0;
#X connect 20 1 49 0;
#X connect 20 2 54 0;
#X connect 21 0 34 0;
#X connect 21 1 4 0;
#X connect 21 2 50 0;
#X connect 22 0 23 0;
#X connect 22 1 7 0;
#X connect 22 2 51 0;
#X connect 23 0 24 0;
#X connect 23 1 8 0;
#X connect 23 2 57 0;
#X connect 24 0 25 0;
#X connect 24 1 9 0;
#X connect 24 2 55 0;
#X connect 25 0 26 0;
#X connect 25 1 10 0;
#X connect 25 2 53 0;
#X connect 26 0 40 0;
#X connect 26 1 11 0;
#X connect 26 2 56 0;
#X connect 27 1 16 0;
#X connect 28 1 15 0;
#X connect 29 0 22 0;
#X connect 29 1 18 0;
#X connect 29 2 35 0;
#X connect 30 0 29 0;
#X connect 30 1 19 0;
#X connect 30 2 58 0;
#X connect 31 0 30 0;
#X connect 31 1 17 0;
#X connect 31 2 52 0;
#X connect 32 0 31 0;
#X connect 32 1 12 0;
#X connect 32 2 43 0;
#X connect 33 0 32 0;
#X connect 33 1 14 0;
#X connect 33 2 42 0;
#X connect 34 0 33 0;
#X connect 34 1 13 0;
#X connect 34 2 36 0;
#X connect 35 0 5 1;
#X connect 36 0 5 1;
#X connect 37 0 1 0;
#X connect 38 0 1 0;
#X connect 39 0 5 1;
#X connect 40 0 45 0;
#X connect 40 1 37 0;
#X connect 40 2 48 0;
#X connect 41 1 38 0;
#X connect 41 2 39 0;
#X connect 42 0 5 1;
#X connect 43 0 5 1;
#X connect 44 0 2 0;
#X connect 45 0 41 0;
#X connect 45 1 46 0;
#X connect 45 2 47 0;
#X connect 46 0 1 0;
#X connect 47 0 5 1;
#X connect 48 0 5 1;
#X connect 49 0 5 1;
#X connect 50 0 5 1;
#X connect 51 0 5 1;
#X connect 52 0 5 1;
#X connect 53 0 5 1;
#X connect 54 0 1 1;
#X connect 55 0 5 1;
#X connect 56 0 5 1;
#X connect 57 0 5 1;
#X connect 58 0 5 1;
#X restore 81 191 pd MN5UrineInit;
#X msg 363 253 0;
#N canvas 455 100 850 796 MN5BrasInit 0;
#X obj 234 642 send OSC_MESSAGES;
#X obj 114 569 list prepend;
#X obj 71 43 bng 15 250 50 0 empty empty empty 17 7 0 10 -262144 -1
-1;
#X obj 114 592 l2s /;
#X msg 114 132 File;
#X obj 234 609 list;
#X msg 114 109 Zpos;
#X msg 114 326 RenderOrder;
#X msg 114 369 Yscale;
#X msg 114 389 Xscale;
#X msg 114 409 Ypos;
#X msg 114 429 Xpos;
#X msg 114 225 Blue;
#X msg 114 184 Red;
#X msg 114 205 Green;
#X msg 114 305 modeAlpha;
#X msg 114 348 Shape;
#X msg 114 245 Rotate;
#X msg 114 284 Alpha;
#X msg 114 264 Activate;
#X obj 71 62 t b b b;
#X obj 56 115 t b b b;
#X obj 56 309 t b b b;
#X obj 56 352 t b b b;
#X obj 56 372 t b b b;
#X obj 56 392 t b b b;
#X obj 56 412 t b b b;
#X obj 17 331 t b b b;
#X obj 16 288 t b b b;
#X obj 56 267 t b b b;
#X obj 56 247 t b b b;
#X obj 56 228 t b b b;
#X obj 56 208 t b b b;
#X obj 56 188 t b b b;
#X obj 56 167 t b b b;
#X msg 255 245 0;
#X msg 255 284 1;
#X msg 255 184 1;
#X msg 114 449 ParentName;
#X msg 114 489 g*pos;
#X msg 255 489 0;
#X obj 56 432 t b b b;
#X obj 56 472 t b b b;
#X msg 255 205 1;
#X msg 255 225 1;
#X obj 71 22 r MN5Init;
#X msg 255 264 1;
#X msg 255 109 -3.031;
#X msg 255 326 -20;
#X msg 255 132 /home/woii/2013_Sebkha-ChottGalootFormula_ThingFish/ThingFishVideoDecorum/MammyNuns/data/MN5/mammy_nun_5_main_cour.png
;
#X obj 56 452 t b b b;
#X msg 114 469 Child/*pos;
#X msg 255 469 1;
#X msg 255 449 /Zombies_Chien_PatteArriere1;
#X msg 255 369 0.3;
#X msg 255 409 0.5;
#X msg 255 429 0.85;
#X msg 255 389 0.17538;
#X msg 183 79 /Zombies_HelloDolly_Robe;
#X connect 1 0 3 0;
#X connect 2 0 20 0;
#X connect 3 0 5 0;
#X connect 4 0 1 0;
#X connect 5 0 0 0;
#X connect 6 0 1 0;
#X connect 7 0 1 0;
#X connect 8 0 1 0;
#X connect 9 0 1 0;
#X connect 10 0 1 0;
#X connect 11 0 1 0;
#X connect 12 0 1 0;
#X connect 13 0 1 0;
#X connect 14 0 1 0;
#X connect 15 0 1 0;
#X connect 17 0 1 0;
#X connect 18 0 1 0;
#X connect 19 0 1 0;
#X connect 20 0 6 0;
#X connect 20 0 21 0;
#X connect 20 1 47 0;
#X connect 20 2 58 0;
#X connect 21 0 34 0;
#X connect 21 1 4 0;
#X connect 21 2 49 0;
#X connect 22 0 23 0;
#X connect 22 1 7 0;
#X connect 22 2 48 0;
#X connect 23 0 24 0;
#X connect 23 1 8 0;
#X connect 23 2 54 0;
#X connect 24 0 25 0;
#X connect 24 1 9 0;
#X connect 24 2 57 0;
#X connect 25 0 26 0;
#X connect 25 1 10 0;
#X connect 25 2 55 0;
#X connect 26 0 41 0;
#X connect 26 1 11 0;
#X connect 26 2 56 0;
#X connect 27 1 16 0;
#X connect 28 1 15 0;
#X connect 29 0 22 0;
#X connect 29 1 18 0;
#X connect 29 2 36 0;
#X connect 30 0 29 0;
#X connect 30 1 19 0;
#X connect 30 2 46 0;
#X connect 31 0 30 0;
#X connect 31 1 17 0;
#X connect 31 2 35 0;
#X connect 32 0 31 0;
#X connect 32 1 12 0;
#X connect 32 2 44 0;
#X connect 33 0 32 0;
#X connect 33 1 14 0;
#X connect 33 2 43 0;
#X connect 34 0 33 0;
#X connect 34 1 13 0;
#X connect 34 2 37 0;
#X connect 35 0 5 1;
#X connect 36 0 5 1;
#X connect 37 0 5 1;
#X connect 38 0 1 0;
#X connect 39 0 1 0;
#X connect 40 0 5 1;
#X connect 41 0 50 0;
#X connect 41 1 38 0;
#X connect 41 2 53 0;
#X connect 42 1 39 0;
#X connect 42 2 40 0;
#X connect 43 0 5 1;
#X connect 44 0 5 1;
#X connect 45 0 2 0;
#X connect 46 0 5 1;
#X connect 47 0 5 1;
#X connect 48 0 5 1;
#X connect 49 0 5 1;
#X connect 50 0 42 0;
#X connect 50 1 51 0;
#X connect 50 2 52 0;
#X connect 51 0 1 0;
#X connect 52 0 5 1;
#X connect 53 0 5 1;
#X connect 54 0 5 1;
#X connect 55 0 5 1;
#X connect 56 0 5 1;
#X connect 57 0 5 1;
#X connect 58 0 1 1;
#X restore 81 131 pd MN5BrasInit;
#N canvas 469 100 850 796 MN5PiedInit 0;
#X obj 234 602 send OSC_MESSAGES;
#X obj 114 529 list prepend;
#X obj 71 43 bng 15 250 50 0 empty empty empty 17 7 0 10 -262144 -1
-1;
#X obj 114 552 l2s /;
#X msg 114 132 File;
#X obj 234 569 list;
#X msg 114 109 Zpos;
#X msg 114 326 RenderOrder;
#X msg 114 369 Yscale;
#X msg 114 389 Xscale;
#X msg 114 409 Ypos;
#X msg 114 429 Xpos;
#X msg 114 225 Blue;
#X msg 114 184 Red;
#X msg 114 205 Green;
#X msg 114 305 modeAlpha;
#X msg 114 348 Shape;
#X msg 114 245 Rotate;
#X msg 114 284 Alpha;
#X msg 114 264 Activate;
#X obj 71 62 t b b b;
#X obj 56 115 t b b b;
#X obj 56 309 t b b b;
#X obj 56 352 t b b b;
#X obj 56 372 t b b b;
#X obj 56 392 t b b b;
#X obj 56 412 t b b b;
#X obj 17 331 t b b b;
#X obj 16 288 t b b b;
#X obj 56 267 t b b b;
#X obj 56 247 t b b b;
#X obj 56 228 t b b b;
#X obj 56 208 t b b b;
#X obj 56 188 t b b b;
#X obj 56 167 t b b b;
#X msg 255 245 0;
#X msg 255 284 1;
#X msg 255 184 1;
#X msg 114 449 ParentName;
#X msg 114 489 g*pos;
#X msg 255 489 0;
#X obj 56 432 t b b b;
#X obj 56 472 t b b b;
#X msg 255 205 1;
#X msg 255 225 1;
#X obj 71 22 r MN5Init;
#X msg 255 264 1;
#X msg 255 109 -3.0311;
#X msg 255 326 -22;
#X msg 255 132 /home/woii/2013_Sebkha-ChottGalootFormula_ThingFish/ThingFishVideoDecorum/MammyNuns/data/MN5/mammy_nun_5_pied_jardin.png
;
#X msg 255 369 0.43846;
#X msg 255 389 0.20769;
#X obj 56 452 t b b b;
#X msg 114 469 Child/*pos;
#X msg 255 469 1;
#X msg 255 449 /Zombies_Chien_PatteArriere1;
#X msg 255 429 0.05;
#X msg 255 409 -1.4;
#X msg 183 79 /Zombies_HelloDolly_Bras;
#X connect 1 0 3 0;
#X connect 2 0 20 0;
#X connect 3 0 5 0;
#X connect 4 0 1 0;
#X connect 5 0 0 0;
#X connect 6 0 1 0;
#X connect 7 0 1 0;
#X connect 8 0 1 0;
#X connect 9 0 1 0;
#X connect 10 0 1 0;
#X connect 11 0 1 0;
#X connect 12 0 1 0;
#X connect 13 0 1 0;
#X connect 14 0 1 0;
#X connect 15 0 1 0;
#X connect 17 0 1 0;
#X connect 18 0 1 0;
#X connect 19 0 1 0;
#X connect 20 0 6 0;
#X connect 20 0 21 0;
#X connect 20 1 47 0;
#X connect 20 2 58 0;
#X connect 21 0 34 0;
#X connect 21 1 4 0;
#X connect 21 2 49 0;
#X connect 22 0 23 0;
#X connect 22 1 7 0;
#X connect 22 2 48 0;
#X connect 23 0 24 0;
#X connect 23 1 8 0;
#X connect 23 2 50 0;
#X connect 24 0 25 0;
#X connect 24 1 9 0;
#X connect 24 2 51 0;
#X connect 25 0 26 0;
#X connect 25 1 10 0;
#X connect 25 2 57 0;
#X connect 26 0 41 0;
#X connect 26 1 11 0;
#X connect 26 2 56 0;
#X connect 27 1 16 0;
#X connect 28 1 15 0;
#X connect 29 0 22 0;
#X connect 29 1 18 0;
#X connect 29 2 36 0;
#X connect 30 0 29 0;
#X connect 30 1 19 0;
#X connect 30 2 46 0;
#X connect 31 0 30 0;
#X connect 31 1 17 0;
#X connect 31 2 35 0;
#X connect 32 0 31 0;
#X connect 32 1 12 0;
#X connect 32 2 44 0;
#X connect 33 0 32 0;
#X connect 33 1 14 0;
#X connect 33 2 43 0;
#X connect 34 0 33 0;
#X connect 34 1 13 0;
#X connect 34 2 37 0;
#X connect 35 0 5 1;
#X connect 36 0 5 1;
#X connect 37 0 5 1;
#X connect 38 0 1 0;
#X connect 39 0 1 0;
#X connect 40 0 5 1;
#X connect 41 0 52 0;
#X connect 41 1 38 0;
#X connect 41 2 55 0;
#X connect 42 1 39 0;
#X connect 42 2 40 0;
#X connect 43 0 5 1;
#X connect 44 0 5 1;
#X connect 45 0 2 0;
#X connect 46 0 5 1;
#X connect 47 0 5 1;
#X connect 48 0 5 1;
#X connect 49 0 5 1;
#X connect 50 0 5 1;
#X connect 51 0 5 1;
#X connect 52 0 42 0;
#X connect 52 1 53 0;
#X connect 52 2 54 0;
#X connect 53 0 1 0;
#X connect 54 0 5 1;
#X connect 55 0 5 1;
#X connect 56 0 5 1;
#X connect 57 0 5 1;
#X connect 58 0 1 1;
#X restore 81 151 pd MN5PiedInit;
#N canvas 674 349 450 300 MN5Moves 0;
#N canvas 0 100 1440 800 MN5Dances 0;
#X obj 23 14 r MNDance;
#X obj 23 45 bng 15 250 50 0 empty empty empty 17 7 0 10 -262144 -1
-1;
#X obj 23 81 metro 500;
#X obj 74 54 r TempoDance;
#X msg 198 64 stop;
#X obj 198 29 r MNStopDancing;
#X obj 23 147 delay 250;
#X obj 74 111 / 2;
#X obj 23 196 s MN5Init;
#X obj 146 98 s MN5AltInit;
#X obj 182 324 random 20;
#X obj 182 366 - 10;
#X msg 182 425 \$1 250;
#X obj 182 450 line;
#X obj 403 313 t b b;
#X obj 433 341 random 10;
#X obj 426 385 / 100;
#X obj 497 474 line;
#X msg 570 421 1.0476 125;
#X obj 463 403 +;
#X obj 426 361 - 5;
#X msg 480 428 set \$1 125;
#X msg 669 379 set \$1 125;
#X msg 674 418 1.0876 125;
#X obj 823 382 delay 125;
#X msg 182 475 /Zombies_Annie_BrasFond/Rotate \$1;
#X obj 554 349 v /Zombies_Chien_PatteArriere1/Yscale;
#X msg 575 466 /Zombies_Chien_PatteArriere1/Yscale \$1;
#X obj 255 552 s OSC_MESSAGES;
#X obj 298 47 r MN5StopsDancing;
#X connect 0 0 1 0;
#X connect 1 0 2 0;
#X connect 2 0 9 0;
#X connect 2 0 6 0;
#X connect 2 0 14 0;
#X connect 2 0 10 0;
#X connect 3 0 2 1;
#X connect 3 0 7 0;
#X connect 4 0 2 0;
#X connect 5 0 4 0;
#X connect 6 0 8 0;
#X connect 7 0 6 1;
#X connect 10 0 11 0;
#X connect 11 0 12 0;
#X connect 12 0 13 0;
#X connect 13 0 25 0;
#X connect 14 0 15 0;
#X connect 14 0 18 0;
#X connect 14 0 24 0;
#X connect 14 1 26 0;
#X connect 15 0 20 0;
#X connect 16 0 19 0;
#X connect 17 0 27 0;
#X connect 18 0 17 0;
#X connect 19 0 21 0;
#X connect 20 0 16 0;
#X connect 21 0 18 0;
#X connect 22 0 23 0;
#X connect 23 0 17 0;
#X connect 24 0 23 0;
#X connect 25 0 28 0;
#X connect 26 0 17 0;
#X connect 26 0 19 1;
#X connect 26 0 22 0;
#X connect 27 0 28 0;
#X connect 29 0 4 0;
#X restore 34 23 pd MN5Dances;
#N canvas 0 100 1440 800 MN5Pees 0;
#X obj 48 36 r MNPee;
#X obj 48 269 bng 15 250 50 0 empty empty empty 17 7 0 10 -262144 -1
-1;
#X msg 79 444 /Zombies_Chien_PatteAvant1/Yscale \$1;
#X msg 309 444 /Zombies_Chien_PatteAvant1/Ypos \$1;
#X obj 79 496 s OSC_MESSAGES;
#X obj 79 422 line;
#X obj 309 422 line;
#X obj 79 340 v /Zombies_Chien_PatteAvant1/Yscale;
#X obj 299 340 v /Zombies_Chien_PatteAvant1/Ypos;
#X obj 48 296 t b b;
#X msg 48 405 0.1 300;
#X msg 349 405 0.05 300;
#X obj 48 237 r MN5SoulevageJupe;
#X obj 665 243 r MN5StartsPeeing;
#X obj 665 270 bng 15 250 50 0 empty empty empty 17 7 0 10 -262144
-1 -1;
#X obj 665 346 v /Zombies_HelloDolly_BrasFond/Xscale;
#X obj 915 346 v /Zombies_HelloDolly_BrasFond/Yscale;
#X obj 665 450 line;
#X obj 915 446 line;
#X msg 665 479 /Zombies_HelloDolly_BrasFond/Xscale \$1;
#X msg 915 479 /Zombies_HelloDolly_BrasFond/Yscale \$1;
#X msg 915 315 0;
#X msg 665 533 /Zombies_HelloDolly_BrasFond/Activate 1;
#X msg 665 383 set \$1 200;
#X msg 665 412 0.30384 200;
#X msg 915 383 set \$1 200;
#X msg 915 409 0.6569 200;
#X obj 665 298 t b b b;
#X obj 1155 446 line;
#X msg 1155 383 set \$1 200;
#X msg 1155 409 -1.15 200;
#X obj 1155 346 v /Zombies_HelloDolly_BrasFond/Ypos;
#X msg 1155 479 /Zombies_HelloDolly_BrasFond/Ypos \$1;
#X obj 48 83 s MN5SoulevageJupe;
#X obj 47 119 delay 300;
#X obj 47 155 s MN5StartsPeeing;
#X obj 1155 291 + 0.65;
#X msg 1395 383 set \$1 200;
#X msg 1395 409 0.85 200;
#X obj 1395 346 v /Zombies_HelloDolly_BrasFond/Xpos;
#X msg 1395 479 /Zombies_HelloDolly_BrasFond/Xpos \$1;
#X msg 1395 315 \$1;
#X msg 1155 315 \$1;
#X floatatom 1443 325 5 0 0 0 - - -;
#X obj 1395 446 line;
#X floatatom 1440 461 5 0 0 0 - - -;
#X obj 1395 283 - 0.3;
#X obj 887 192 metro 100;
#X msg 985 275 set \$1 50;
#X msg 985 303 0.6569 50;
#X obj 981 171 + 0.01;
#X msg 1050 192 set \$1 50;
#X msg 1124 180 0.6669 50;
#X obj 898 229 delay 50;
#X obj 783 288 delay 210;
#X obj 847 136 r MNStopPeeing;
#X msg 853 164 stop;
#X msg 1036 224 /Zombies_HelloDolly_BrasFond/Yscale \$1;
#X obj 210 74 s MN5StopsDancing;
#X obj 48 57 t b b;
#X connect 0 0 59 0;
#X connect 1 0 9 0;
#X connect 2 0 4 0;
#X connect 3 0 4 0;
#X connect 5 0 2 0;
#X connect 6 0 3 0;
#X connect 7 0 5 0;
#X connect 8 0 6 0;
#X connect 9 0 11 0;
#X connect 9 0 10 0;
#X connect 9 1 8 0;
#X connect 9 1 7 0;
#X connect 10 0 5 0;
#X connect 11 0 6 0;
#X connect 12 0 1 0;
#X connect 13 0 14 0;
#X connect 14 0 27 0;
#X connect 15 0 23 0;
#X connect 16 0 25 0;
#X connect 16 0 48 0;
#X connect 16 0 50 0;
#X connect 17 0 19 0;
#X connect 18 0 20 0;
#X connect 19 0 4 0;
#X connect 20 0 4 0;
#X connect 21 0 17 0;
#X connect 21 0 18 0;
#X connect 22 0 4 0;
#X connect 23 0 24 0;
#X connect 24 0 17 0;
#X connect 25 0 26 0;
#X connect 26 0 18 0;
#X connect 27 0 22 0;
#X connect 27 0 24 0;
#X connect 27 0 26 0;
#X connect 27 0 30 0;
#X connect 27 0 38 0;
#X connect 27 1 21 0;
#X connect 27 2 15 0;
#X connect 27 2 16 0;
#X connect 27 2 31 0;
#X connect 27 2 39 0;
#X connect 27 2 54 0;
#X connect 28 0 32 0;
#X connect 29 0 30 0;
#X connect 30 0 28 0;
#X connect 31 0 29 0;
#X connect 31 0 36 0;
#X connect 32 0 4 0;
#X connect 34 0 35 0;
#X connect 36 0 42 0;
#X connect 37 0 38 0;
#X connect 38 0 44 0;
#X connect 39 0 37 0;
#X connect 39 0 46 0;
#X connect 40 0 4 0;
#X connect 41 0 43 0;
#X connect 41 0 44 0;
#X connect 42 0 28 0;
#X connect 44 0 40 0;
#X connect 44 0 45 0;
#X connect 46 0 41 0;
#X connect 47 0 53 0;
#X connect 47 0 49 0;
#X connect 48 0 49 0;
#X connect 49 0 57 0;
#X connect 50 0 51 0;
#X connect 51 0 52 0;
#X connect 52 0 57 0;
#X connect 53 0 52 0;
#X connect 54 0 47 0;
#X connect 55 0 56 0;
#X connect 56 0 47 0;
#X connect 57 0 4 0;
#X connect 59 0 33 0;
#X connect 59 0 34 0;
#X connect 59 1 58 0;
#X restore 36 66 pd MN5Pees;
#X restore 897 99 pd MN5Moves;
#N canvas 453 100 850 796 MN5BrasAltInit 0;
#X obj 234 642 send OSC_MESSAGES;
#X obj 114 569 list prepend;
#X obj 71 43 bng 15 250 50 0 empty empty empty 17 7 0 10 -262144 -1
-1;
#X obj 114 592 l2s /;
#X msg 114 132 File;
#X obj 234 609 list;
#X msg 114 109 Zpos;
#X msg 114 326 RenderOrder;
#X msg 114 369 Yscale;
#X msg 114 389 Xscale;
#X msg 114 409 Ypos;
#X msg 114 429 Xpos;
#X msg 114 225 Blue;
#X msg 114 184 Red;
#X msg 114 205 Green;
#X msg 114 305 modeAlpha;
#X msg 114 348 Shape;
#X msg 114 245 Rotate;
#X msg 114 284 Alpha;
#X msg 114 264 Activate;
#X obj 71 62 t b b b;
#X obj 56 115 t b b b;
#X obj 56 309 t b b b;
#X obj 56 352 t b b b;
#X obj 56 372 t b b b;
#X obj 56 392 t b b b;
#X obj 56 412 t b b b;
#X obj 17 331 t b b b;
#X obj 16 288 t b b b;
#X obj 56 267 t b b b;
#X obj 56 247 t b b b;
#X obj 56 228 t b b b;
#X obj 56 208 t b b b;
#X obj 56 188 t b b b;
#X obj 56 167 t b b b;
#X msg 255 245 0;
#X msg 255 284 1;
#X msg 255 184 1;
#X msg 114 449 ParentName;
#X msg 114 489 g*pos;
#X msg 255 489 0;
#X obj 56 432 t b b b;
#X obj 56 472 t b b b;
#X msg 255 205 1;
#X msg 255 225 1;
#X msg 255 264 1;
#X msg 255 109 -3.031;
#X msg 255 326 -20;
#X obj 56 452 t b b b;
#X msg 114 469 Child/*pos;
#X msg 255 469 1;
#X msg 255 449 /Zombies_Chien_PatteArriere1;
#X msg 255 369 0.3;
#X msg 255 409 0.5;
#X msg 183 79 /Zombies_HelloDolly_Robe;
#X msg 255 132 /home/woii/2013_Sebkha-ChottGalootFormula_ThingFish/ThingFishVideoDecorum/MammyNuns/data/MN5/mammy_nun_5_main_jardin.png
;
#X msg 255 389 0.25538;
#X msg 255 429 -0.85;
#X obj 71 22 r MN5AltInit;
#X connect 1 0 3 0;
#X connect 2 0 20 0;
#X connect 3 0 5 0;
#X connect 4 0 1 0;
#X connect 5 0 0 0;
#X connect 6 0 1 0;
#X connect 7 0 1 0;
#X connect 8 0 1 0;
#X connect 9 0 1 0;
#X connect 10 0 1 0;
#X connect 11 0 1 0;
#X connect 12 0 1 0;
#X connect 13 0 1 0;
#X connect 14 0 1 0;
#X connect 15 0 1 0;
#X connect 17 0 1 0;
#X connect 18 0 1 0;
#X connect 19 0 1 0;
#X connect 20 0 6 0;
#X connect 20 0 21 0;
#X connect 20 1 46 0;
#X connect 20 2 54 0;
#X connect 21 0 34 0;
#X connect 21 1 4 0;
#X connect 21 2 55 0;
#X connect 22 0 23 0;
#X connect 22 1 7 0;
#X connect 22 2 47 0;
#X connect 23 0 24 0;
#X connect 23 1 8 0;
#X connect 23 2 52 0;
#X connect 24 0 25 0;
#X connect 24 1 9 0;
#X connect 24 2 56 0;
#X connect 25 0 26 0;
#X connect 25 1 10 0;
#X connect 25 2 53 0;
#X connect 26 0 41 0;
#X connect 26 1 11 0;
#X connect 26 2 57 0;
#X connect 27 1 16 0;
#X connect 28 1 15 0;
#X connect 29 0 22 0;
#X connect 29 1 18 0;
#X connect 29 2 36 0;
#X connect 30 0 29 0;
#X connect 30 1 19 0;
#X connect 30 2 45 0;
#X connect 31 0 30 0;
#X connect 31 1 17 0;
#X connect 31 2 35 0;
#X connect 32 0 31 0;
#X connect 32 1 12 0;
#X connect 32 2 44 0;
#X connect 33 0 32 0;
#X connect 33 1 14 0;
#X connect 33 2 43 0;
#X connect 34 0 33 0;
#X connect 34 1 13 0;
#X connect 34 2 37 0;
#X connect 35 0 5 1;
#X connect 36 0 5 1;
#X connect 37 0 5 1;
#X connect 38 0 1 0;
#X connect 39 0 1 0;
#X connect 40 0 5 1;
#X connect 41 0 48 0;
#X connect 41 1 38 0;
#X connect 41 2 51 0;
#X connect 42 1 39 0;
#X connect 42 2 40 0;
#X connect 43 0 5 1;
#X connect 44 0 5 1;
#X connect 45 0 5 1;
#X connect 46 0 5 1;
#X connect 47 0 5 1;
#X connect 48 0 42 0;
#X connect 48 1 49 0;
#X connect 48 2 50 0;
#X connect 49 0 1 0;
#X connect 50 0 5 1;
#X connect 51 0 5 1;
#X connect 52 0 5 1;
#X connect 53 0 5 1;
#X connect 54 0 1 1;
#X connect 55 0 5 1;
#X connect 56 0 5 1;
#X connect 57 0 5 1;
#X connect 58 0 2 0;
#X restore 181 131 pd MN5BrasAltInit;
#N canvas 467 100 850 796 MN5PiedAltInit 0;
#X obj 234 602 send OSC_MESSAGES;
#X obj 114 529 list prepend;
#X obj 71 43 bng 15 250 50 0 empty empty empty 17 7 0 10 -262144 -1
-1;
#X obj 114 552 l2s /;
#X msg 114 132 File;
#X obj 234 569 list;
#X msg 114 109 Zpos;
#X msg 114 326 RenderOrder;
#X msg 114 369 Yscale;
#X msg 114 389 Xscale;
#X msg 114 409 Ypos;
#X msg 114 429 Xpos;
#X msg 114 225 Blue;
#X msg 114 184 Red;
#X msg 114 205 Green;
#X msg 114 305 modeAlpha;
#X msg 114 348 Shape;
#X msg 114 245 Rotate;
#X msg 114 284 Alpha;
#X msg 114 264 Activate;
#X obj 71 62 t b b b;
#X obj 56 115 t b b b;
#X obj 56 309 t b b b;
#X obj 56 352 t b b b;
#X obj 56 372 t b b b;
#X obj 56 392 t b b b;
#X obj 56 412 t b b b;
#X obj 17 331 t b b b;
#X obj 16 288 t b b b;
#X obj 56 267 t b b b;
#X obj 56 247 t b b b;
#X obj 56 228 t b b b;
#X obj 56 208 t b b b;
#X obj 56 188 t b b b;
#X obj 56 167 t b b b;
#X msg 255 245 0;
#X msg 255 284 1;
#X msg 255 184 1;
#X msg 114 449 ParentName;
#X msg 114 489 g*pos;
#X msg 255 489 0;
#X obj 56 432 t b b b;
#X obj 56 472 t b b b;
#X msg 255 205 1;
#X msg 255 225 1;
#X msg 255 264 1;
#X msg 255 109 -3.0311;
#X msg 255 326 -22;
#X msg 255 369 0.43846;
#X msg 255 389 0.20769;
#X obj 56 452 t b b b;
#X msg 114 469 Child/*pos;
#X msg 255 469 1;
#X msg 255 449 /Zombies_Chien_PatteArriere1;
#X msg 255 409 -1.4;
#X msg 183 79 /Zombies_HelloDolly_Bras;
#X msg 255 132 /home/woii/2013_Sebkha-ChottGalootFormula_ThingFish/ThingFishVideoDecorum/MammyNuns/data/MN5/mammy_nun_5_pied_cour.png
;
#X obj 71 22 r MN5AltInit;
#X msg 255 429 0.55;
#X connect 1 0 3 0;
#X connect 2 0 20 0;
#X connect 3 0 5 0;
#X connect 4 0 1 0;
#X connect 5 0 0 0;
#X connect 6 0 1 0;
#X connect 7 0 1 0;
#X connect 8 0 1 0;
#X connect 9 0 1 0;
#X connect 10 0 1 0;
#X connect 11 0 1 0;
#X connect 12 0 1 0;
#X connect 13 0 1 0;
#X connect 14 0 1 0;
#X connect 15 0 1 0;
#X connect 17 0 1 0;
#X connect 18 0 1 0;
#X connect 19 0 1 0;
#X connect 20 0 6 0;
#X connect 20 0 21 0;
#X connect 20 1 46 0;
#X connect 20 2 55 0;
#X connect 21 0 34 0;
#X connect 21 1 4 0;
#X connect 21 2 56 0;
#X connect 22 0 23 0;
#X connect 22 1 7 0;
#X connect 22 2 47 0;
#X connect 23 0 24 0;
#X connect 23 1 8 0;
#X connect 23 2 48 0;
#X connect 24 0 25 0;
#X connect 24 1 9 0;
#X connect 24 2 49 0;
#X connect 25 0 26 0;
#X connect 25 1 10 0;
#X connect 25 2 54 0;
#X connect 26 0 41 0;
#X connect 26 1 11 0;
#X connect 26 2 58 0;
#X connect 27 1 16 0;
#X connect 28 1 15 0;
#X connect 29 0 22 0;
#X connect 29 1 18 0;
#X connect 29 2 36 0;
#X connect 30 0 29 0;
#X connect 30 1 19 0;
#X connect 30 2 45 0;
#X connect 31 0 30 0;
#X connect 31 1 17 0;
#X connect 31 2 35 0;
#X connect 32 0 31 0;
#X connect 32 1 12 0;
#X connect 32 2 44 0;
#X connect 33 0 32 0;
#X connect 33 1 14 0;
#X connect 33 2 43 0;
#X connect 34 0 33 0;
#X connect 34 1 13 0;
#X connect 34 2 37 0;
#X connect 35 0 5 1;
#X connect 36 0 5 1;
#X connect 37 0 5 1;
#X connect 38 0 1 0;
#X connect 39 0 1 0;
#X connect 40 0 5 1;
#X connect 41 0 50 0;
#X connect 41 1 38 0;
#X connect 41 2 53 0;
#X connect 42 1 39 0;
#X connect 42 2 40 0;
#X connect 43 0 5 1;
#X connect 44 0 5 1;
#X connect 45 0 5 1;
#X connect 46 0 5 1;
#X connect 47 0 5 1;
#X connect 48 0 5 1;
#X connect 49 0 5 1;
#X connect 50 0 42 0;
#X connect 50 1 51 0;
#X connect 50 2 52 0;
#X connect 51 0 1 0;
#X connect 52 0 5 1;
#X connect 53 0 5 1;
#X connect 54 0 5 1;
#X connect 55 0 1 1;
#X connect 56 0 5 1;
#X connect 57 0 2 0;
#X connect 58 0 5 1;
#X restore 181 151 pd MN5PiedAltInit;
#X obj 89 272 r MNInit;
#X connect 3 0 5 0;
#X connect 5 0 2 0;
#X connect 5 1 6 0;
#X connect 7 0 9 0;
#X connect 9 0 8 0;
#X connect 11 0 7 0;
#X connect 17 0 3 0;
