#N canvas 419 240 1079 656 10;
#X obj 57 36 r tapisRolls;
#X obj 253 146 t b b;
#X obj 265 225 line;
#X msg 264 256 /TapisRoulant_Roulement/Rotate \$1;
#X obj 54 60 bng 15 250 50 0 empty empty empty 17 7 0 10 -262144 -1
-1;
#X msg 330 95 stop;
#X obj 254 281 send OSC_MESSAGES;
#X msg 216 203 0;
#X obj 270 124 metro 1500;
#X msg 286 176 360 1500;
#X obj 66 118 metro 150;
#X obj 61 167 random 10;
#X obj 18 94 t b b;
#X obj 41 264 +;
#X obj 68 212 - 5;
#X msg 48 298 /TapisRoulant_Rouleau/Ypos \$1;
#X obj 9 192 value /TapisRoulant_Rouleau/Ypos;
#X obj 76 233 / 500;
#X obj 576 33 r TapisRoulantComesInFromCour;
#X msg 696 132 /TapisRoulant_*/Child/Xpos 1;
#X msg 889 132 /TapisRoulant/Parent/Xpos 1;
#X msg 896 189 /Assiettes/Parent/Xpos 1;
#X msg 697 161 /TapisRoulant_*/Activate 1;
#X msg 623 311 /TapisRoulant/Xpos \$1;
#X msg 702 390 /Assiettes/Xpos \$1;
#X obj 702 473 send OSC_MESSAGES;
#X obj 622 62 bng 15 250 50 0 empty empty empty 17 7 0 10 -262144 -1
-1;
#X obj 623 278 line;
#X msg 635 238 0 200;
#X obj 663 84 t b b b b;
#X msg 598 221 18;
#X msg 705 218 /Assiette_*/Activate 1;
#X msg 703 189 /Assiette_*/Child/Xpos 1;
#X msg 772 273 11.2 200;
#X msg 725 258 29.2;
#X obj 716 351 line;
#X obj 54 429 r assiettesScrollingToJardin;
#X obj 54 455 bng 15 250 50 0 empty empty empty 17 7 0 10 -262144 -1
-1;
#X obj 18 535 s tapisRolls;
#X obj 19 617 s tapisStopsRolling;
#X obj 192 38 r tapisStopsRolling;
#X msg 386 598 /EvilPrince_BrasCourFiole/Rotate \$1;
#X obj 408 531 line;
#X msg 340 497 0;
#X msg 289 520 90 200;
#X msg 318 595 0 200;
#X obj 282 547 delay 300;
#X obj 273 457 bng 15 250 50 0 empty empty empty 17 7 0 10 -262144
-1 -1;
#X obj 273 476 t b b;
#X msg 84 509 0 10000;
#X obj 18 571 delay 10000;
#X obj 63 476 delay 400;
#X obj 333 421 delay 900;
#X obj 396 454 delay 2500;
#X obj 444 483 delay 4000;
#X msg 205 666 /Assiette_DSKContenu/File /home/woii/2013_Sebkha-ChottGalootFormula_ThingFish/ThingFishVideoDecorum/Prison/data/2013_06_28_Prison2_assiette_purée_galoot0.png
;
#X obj 197 628 delay 250;
#X msg 593 519 /Assiette_LagardeContenu/File /home/woii/2013_Sebkha-ChottGalootFormula_ThingFish/ThingFishVideoDecorum/Prison/data/2013_06_28_Prison2_assiette_purée_galoot0.png
;
#X msg 622 588 /Assiette_BushContenu/File /home/woii/2013_Sebkha-ChottGalootFormula_ThingFish/ThingFishVideoDecorum/Prison/data/2013_06_28_Prison2_assiette_purée_galoot0.png
;
#X msg 632 598 /Assiette_GailContenu/File /home/woii/2013_Sebkha-ChottGalootFormula_ThingFish/ThingFishVideoDecorum/Prison/data/2013_06_28_Prison2_assiette_purée_galoot0.png
;
#X obj 532 460 delay 250;
#X obj 515 516 delay 250;
#X obj 459 545 delay 250;
#X connect 0 0 4 0;
#X connect 1 0 9 0;
#X connect 1 1 7 0;
#X connect 2 0 3 0;
#X connect 3 0 6 0;
#X connect 4 0 8 0;
#X connect 4 0 12 0;
#X connect 5 0 8 0;
#X connect 5 0 10 0;
#X connect 7 0 2 0;
#X connect 8 0 1 0;
#X connect 9 0 2 0;
#X connect 10 0 11 0;
#X connect 11 0 14 0;
#X connect 12 0 10 0;
#X connect 12 1 16 0;
#X connect 13 0 15 0;
#X connect 14 0 17 0;
#X connect 15 0 6 0;
#X connect 16 0 13 1;
#X connect 17 0 13 0;
#X connect 18 0 26 0;
#X connect 19 0 25 0;
#X connect 20 0 25 0;
#X connect 21 0 25 0;
#X connect 22 0 25 0;
#X connect 23 0 25 0;
#X connect 24 0 25 0;
#X connect 26 0 29 0;
#X connect 27 0 23 0;
#X connect 28 0 27 0;
#X connect 29 0 28 0;
#X connect 29 0 33 0;
#X connect 29 1 22 0;
#X connect 29 1 31 0;
#X connect 29 2 30 0;
#X connect 29 2 34 0;
#X connect 29 3 19 0;
#X connect 29 3 20 0;
#X connect 29 3 32 0;
#X connect 29 3 21 0;
#X connect 30 0 27 0;
#X connect 31 0 25 0;
#X connect 32 0 25 0;
#X connect 33 0 35 0;
#X connect 34 0 35 0;
#X connect 35 0 24 0;
#X connect 36 0 37 0;
#X connect 37 0 47 0;
#X connect 37 0 51 0;
#X connect 37 0 53 0;
#X connect 37 0 54 0;
#X connect 37 0 56 0;
#X connect 40 0 5 0;
#X connect 41 0 25 0;
#X connect 42 0 41 0;
#X connect 43 0 42 0;
#X connect 44 0 42 0;
#X connect 45 0 42 0;
#X connect 46 0 45 0;
#X connect 47 0 48 0;
#X connect 48 0 44 0;
#X connect 48 0 46 0;
#X connect 48 1 43 0;
#X connect 49 0 35 0;
#X connect 50 0 39 0;
#X connect 51 0 49 0;
#X connect 51 0 38 0;
#X connect 51 0 50 0;
#X connect 51 0 52 0;
#X connect 52 0 47 0;
#X connect 52 0 60 0;
#X connect 53 0 47 0;
#X connect 53 0 61 0;
#X connect 54 0 47 0;
#X connect 54 0 62 0;
#X connect 55 0 25 0;
#X connect 56 0 55 0;
#X connect 57 0 25 0;
#X connect 58 0 25 0;
#X connect 59 0 25 0;
#X connect 60 0 57 0;
#X connect 61 0 58 0;
#X connect 62 0 59 0;
