#N canvas 0 100 1440 800 10;
#X msg 25 36 0;
#X msg 79 36 1;
#X obj 34 142 send OSC_MESSAGES;
#X msg 34 77 /Prison_Musiciens*/Activate \$1;
#X obj 91 314 line;
#X floatatom 137 260 5 0 0 0 - - -;
#X msg 91 358 /Prison_Musiciens_SaxHaut/Ypos \$1;
#X obj 91 413 send OSC_MESSAGES;
#X obj 12 247 + 10;
#X msg 12 277 \$1 100;
#X obj 684 68 delay 100;
#X msg 206 297 \$1 80;
#X obj 206 276 +;
#X msg 206 251 0;
#X obj 625 9 bng 15 250 50 0 empty empty empty 17 7 0 10 -262144 -1
-1;
#X obj 91 197 value /Prison_Musiciens_SaxHaut/Ypos;
#X msg 773 7 stop;
#X obj 370 314 line;
#X obj 370 413 send OSC_MESSAGES;
#X msg 593 297 4.33;
#X msg 633 297 48.3;
#X obj 410 314 line;
#X obj 678 280 loadbang;
#X msg 479 271 4.33 80;
#X msg 538 271 48.3 80;
#X msg 370 358 /Prison_Musiciens_GCBras/Xpos \$1;
#X msg 410 378 /Prison_Musiciens_GCBras/Rotate \$1;
#X msg 370 271 4.08 100;
#X msg 432 271 0 100;
#X obj 684 24 metro 500;
#X obj 538 331 sel 0;
#X obj 479 331 sel 4.08;
#X connect 0 0 3 0;
#X connect 1 0 3 0;
#X connect 3 0 2 0;
#X connect 4 0 6 0;
#X connect 5 0 4 0;
#X connect 5 0 12 1;
#X connect 6 0 7 0;
#X connect 8 0 9 0;
#X connect 9 0 4 0;
#X connect 10 0 13 0;
#X connect 11 0 4 0;
#X connect 12 0 11 0;
#X connect 13 0 12 0;
#X connect 14 0 29 0;
#X connect 15 0 4 0;
#X connect 15 0 5 0;
#X connect 15 0 8 0;
#X connect 16 0 5 0;
#X connect 16 0 20 0;
#X connect 16 0 19 0;
#X connect 16 0 29 0;
#X connect 17 0 25 0;
#X connect 17 0 31 0;
#X connect 19 0 17 0;
#X connect 20 0 21 0;
#X connect 21 0 26 0;
#X connect 21 0 30 0;
#X connect 22 0 19 0;
#X connect 22 0 20 0;
#X connect 23 0 17 0;
#X connect 24 0 21 0;
#X connect 25 0 18 0;
#X connect 26 0 18 0;
#X connect 27 0 17 0;
#X connect 28 0 21 0;
#X connect 29 0 15 0;
#X connect 29 0 27 0;
#X connect 29 0 28 0;
#X connect 29 0 10 0;
#X connect 30 0 24 0;
#X connect 31 0 23 0;
