#N canvas 569 226 535 424 10;
#X obj 46 35 r prisonComesInFromJardin;
#X obj 86 106 bng 15 250 50 0 empty empty empty 17 7 0 10 -262144 -1
-1;
#X msg 53 193 -18;
#X obj 67 217 line;
#X obj 67 277 send OSC_MESSAGES;
#X msg 67 244 /PrisonContainer/Xpos \$1;
#X msg 94 189 0 400;
#X obj 184 183 s prisonActivate;
#X msg 329 153 /Prison_*/Child/Xpos 1;
#X msg 339 187 /PrisonContainer/Parent/Xpos 1;
#X obj 107 143 t b b b;
#X connect 0 0 1 0;
#X connect 1 0 10 0;
#X connect 2 0 3 0;
#X connect 3 0 5 0;
#X connect 5 0 4 0;
#X connect 6 0 3 0;
#X connect 8 0 4 0;
#X connect 9 0 4 0;
#X connect 10 0 6 0;
#X connect 10 1 2 0;
#X connect 10 1 7 0;
#X connect 10 2 8 0;
#X connect 10 2 9 0;
