#N canvas 866 403 1054 677 10;
#X obj 107 35 r prisonComesInFromJardin;
#X obj 107 99 bng 15 250 50 0 empty empty empty 17 7 0 10 -262144 -1
-1;
#X msg 53 193 -18;
#X obj 67 217 line;
#X obj 67 277 send OSC_MESSAGES;
#X msg 94 189 0 400;
#X obj 184 183 s prisonActivate;
#X msg 329 153 /Prison_*/Child/Xpos 1;
#X msg 779 107 /PrisonContainer/Parent/Xpos 1;
#X obj 107 136 t b b b;
#X obj 658 39 r prisonGetsOutToCour;
#X obj 658 78 bng 15 250 50 0 empty empty empty 17 7 0 10 -262144 -1
-1;
#X msg 693 200 18 400;
#X obj 746 279 s prisonDeActivate;
#X msg 658 200 0;
#X obj 658 136 t b b;
#X obj 658 235 delay 400;
#X obj 719 252 t b b;
#X obj 844 179 line;
#X msg 844 260 /PrisonPrisonniersMalades/Xpos \$1;
#X msg 844 153 14.8 400;
#X msg 685 162 -3.2;
#X msg 289 243 -3.2;
#X msg 350 238 /PrisonPrisonniersMalades/Activate 0;
#X obj 340 212 s /DummyScrollFromJardin;
#X msg 334 181 /Prison*/ParentName /DummyScrollFromJardin;
#X msg 67 244 /DummyScrollFromJardin/Xpos \$1;
#X connect 0 0 1 0;
#X connect 1 0 9 0;
#X connect 2 0 3 0;
#X connect 3 0 26 0;
#X connect 5 0 3 0;
#X connect 7 0 4 0;
#X connect 9 0 5 0;
#X connect 9 1 2 0;
#X connect 9 1 6 0;
#X connect 9 1 22 0;
#X connect 9 2 7 0;
#X connect 9 2 23 0;
#X connect 9 2 24 0;
#X connect 9 2 25 0;
#X connect 10 0 11 0;
#X connect 11 0 15 0;
#X connect 12 0 3 0;
#X connect 14 0 3 0;
#X connect 15 0 12 0;
#X connect 15 0 16 0;
#X connect 15 0 20 0;
#X connect 15 1 7 0;
#X connect 15 1 8 0;
#X connect 15 1 21 0;
#X connect 16 0 17 0;
#X connect 17 0 14 0;
#X connect 17 1 13 0;
#X connect 18 0 19 0;
#X connect 19 0 4 0;
#X connect 20 0 18 0;
#X connect 21 0 18 0;
#X connect 22 0 19 0;
#X connect 23 0 4 0;
#X connect 25 0 4 0;
#X connect 26 0 4 0;
