#N canvas 0 48 1920 1031 10;
#X obj 57 6 r tapisRolls;
#X obj 270 110 t b b;
#X obj 270 212 line;
#X obj 57 30 bng 15 250 50 0 empty empty empty 17 7 0 10 -262144 -1
-1;
#X msg 330 35 stop;
#X obj 254 275 send OSC_MESSAGES;
#X msg 240 195 0;
#X obj 270 78 metro 1500;
#X msg 270 169 360 1500;
#X obj 66 72 metro 150;
#X obj 66 101 random 10;
#X obj 18 54 t b b;
#X obj 30 213 +;
#X obj 66 175 - 5;
#X obj 45 142 value /TapisRoulant_Rouleau/Ypos;
#X obj 66 196 / 500;
#X msg 673 106 /TapisRoulant_*/Child/Xpos 1;
#X msg 838 80 /TapisRoulant/Parent/Xpos 1;
#X msg 1010 80 /Assiettes/Parent/Xpos 1;
#X msg 639 169 /TapisRoulant_*/Activate 1;
#X msg 701 336 /Assiettes/Xpos \$1;
#X obj 1282 297 send OSC_MESSAGES;
#X obj 622 42 bng 15 250 50 0 empty empty empty 17 7 0 10 -262144 -1
-1;
#X obj 610 278 line;
#X msg 585 221 18;
#X msg 639 196 /Assiette_*/Activate 1;
#X msg 674 140 /Assiette_*/Child/Xpos 1;
#X msg 656 277 29.2;
#X obj 701 294 line;
#X obj 54 317 r assiettesScrollingToJardin;
#X obj 54 343 bng 15 250 50 0 empty empty empty 17 7 0 10 -262144 -1
-1;
#X obj 90 399 s tapisRolls;
#X obj 54 466 s tapisStopsRolling;
#X obj 330 12 r tapisStopsRolling;
#X obj 408 474 line;
#X msg 408 454 0;
#X msg 273 457 90 200;
#X msg 273 514 0 200;
#X obj 273 485 delay 300;
#X obj 273 418 bng 15 250 50 0 empty empty empty 17 7 0 10 -262144
-1 -1;
#X obj 273 437 t b b;
#X msg 54 277 0 10000;
#X obj 54 420 delay 10000;
#X obj 54 371 delay 400;
#X obj 341 358 delay 2500;
#X obj 409 358 delay 4000;
#X obj 207 387 delay 250;
#X obj 273 387 delay 250;
#X obj 341 386 delay 250;
#X obj 409 386 delay 250;
#X obj 54 521 t b b;
#X obj 54 598 line;
#X msg 81 581 -1.68;
#X msg 54 639 /Assiette_DSK/Ypos \$1;
#X msg 97 660 /Assiette_DSKContenu/Ypos \$1;
#X msg 54 552 -0.08 400;
#X obj 97 615 + 0.21;
#X obj 54 497 bng 15 250 50 0 empty empty empty 17 7 0 10 -262144 -1
-1;
#X obj 336 598 line;
#X obj 387 615 + 0.21;
#X msg 336 637 /Assiette_Lagarde/Ypos \$1;
#X msg 387 658 /Assiette_LagardeContenu/Ypos \$1;
#X msg 336 538 -0.88 400;
#X obj 604 598 line;
#X obj 658 615 + 0.21;
#X msg 604 639 /Assiette_Bush/Ypos \$1;
#X msg 658 663 /Assiette_BushContenu/Ypos \$1;
#X msg 604 538 -0.48 400;
#X obj 856 598 line;
#X obj 907 615 + 0.21;
#X msg 856 639 /Assiette_Gail/Ypos \$1;
#X msg 907 664 /Assiette_GailContenu/Ypos \$1;
#X msg 856 538 -0.08 400;
#X msg 1281 528 /home/woii/2013_Sebkha-ChottGalootFormula_ThingFish/ThingFishVideoDecorum/Prison/data/2013_06_28_Prison2_assiette_purée_galoot0.png
;
#X msg 1390 644 /home/woii/2013_Sebkha-ChottGalootFormula_ThingFish/ThingFishVideoDecorum/Prison/data/2013_06_28_Prison2_assiette_purée_galoot1.png
;
#X msg 1351 358 /Assiette_DSKContenu/File;
#X obj 1282 507 list prepend;
#X obj 273 358 delay 1300;
#X msg 1351 378 /Assiette_LagardeContenu/File;
#X msg 1351 398 /Assiette_BushContenu/File;
#X msg 1351 418 /Assiette_GailContenu/File;
#X obj 297 404 t b b;
#X obj 365 404 t b b;
#X obj 433 404 t b b;
#X obj 54 727 delay 600;
#X obj 1251 744 t b b b b b b b b;
#X obj 1261 778 t b b b b b b b b;
#X msg 1409 692 /home/woii/2013_Sebkha-ChottGalootFormula_ThingFish/ThingFishVideoDecorum/Prison/data/2013_06_28_Prison2_assiette_purée_galoot2.png
;
#X obj 1151 761 delay 500;
#X obj 1261 812 t b b b b b b b b;
#X obj 1151 795 delay 500;
#X msg 1429 749 /home/woii/2013_Sebkha-ChottGalootFormula_ThingFish/ThingFishVideoDecorum/Prison/data/2013_06_28_Prison2_assiette_purée_galoot3.png
;
#X obj 1261 845 t b b b b b b b b;
#X obj 1151 828 delay 500;
#X msg 1442 804 /home/woii/2013_Sebkha-ChottGalootFormula_ThingFish/ThingFishVideoDecorum/Prison/data/2013_06_28_Prison2_assiette_purée_galoot4.png
;
#X obj 52 862 delay 500;
#X msg 337 879 -1.68 500;
#X msg 52 841 /PrisonPrisonniersMalades/Activate 1;
#X obj 622 9 r tapisRoulantComesInFromCour;
#X obj 1250 16 r tapisRoulantGetsOutToCour;
#X obj 1250 43 bng 15 250 50 0 empty empty empty 17 7 0 10 -262144
-1 -1;
#X obj 1250 88 t b b;
#X msg 1250 116 18 400;
#X obj 52 802 t b b;
#X msg 109 819 /PrisonPrisonniersMalades/Alpha 1;
#X msg 1377 209 /home/woii/2013_Sebkha-ChottGalootFormula_ThingFish/ThingFishVideoDecorum/Prison/data/2013_06_28_Prison2_assiette_purée.png
;
#X obj 1267 147 t b b b b b b b b;
#X msg 408 494 /EvilPrince_BrasCour/Rotate \$1;
#X msg 270 250 /DunjonDoor5Cadre/Rotate \$1;
#X msg 30 258 /DunjonDoor/Ypos \$1;
#X obj 944 4 s TapisRoulantActivate;
#X obj 940 36 s TapisRoulantAssiettesActivate;
#X msg 926 206 /EvilPrince_BullPotieum/Child/Xpos 1;
#X msg 924 173 /EvilPrince_BulleContent/Child/Xpos 1;
#X msg 876 236 /DunjonDoor5*/Activate 1;
#X msg 879 267 /EvilPrince_BulleContent/Activate 1;
#X msg 610 314 /TapisRoulant/Xpos \$1;
#X msg 622 238 0.1 200;
#X msg 804 340 /EvilPrince_BulleContent/Xpos \$1;
#X msg 881 300 /EvilPrince_BullePotieum/Activate 1;
#X msg 772 277 5.74497 200;
#X msg 1159 223 /Assiette_*/Child/Xpos 1;
#X msg 921 142 /DunjonDoor5Cadre/Child/Xpos 1;
#X msg 598 346 /DunjonDoor5/Xpos \$1;
#X msg 1042 328 /Assiette_*/Activate 1;
#X msg 1535 9 /Assiette_*/ParentName /EvilPrince_BulleContent;
#X msg 1535 29 /EvilPrince_BullePotium/ParentName /EvilPrince_BulleContent
;
#X msg 1535 49 /DunjonDoor5Cadre/ParentName /DunjonDoor5;
#X obj 622 63 t b b b b b b;
#X connect 0 0 3 0;
#X connect 1 0 8 0;
#X connect 1 1 6 0;
#X connect 2 0 108 0;
#X connect 3 0 7 0;
#X connect 3 0 11 0;
#X connect 4 0 7 0;
#X connect 4 0 9 0;
#X connect 6 0 2 0;
#X connect 7 0 1 0;
#X connect 8 0 2 0;
#X connect 9 0 10 0;
#X connect 10 0 13 0;
#X connect 11 0 9 0;
#X connect 11 1 14 0;
#X connect 12 0 109 0;
#X connect 13 0 15 0;
#X connect 14 0 12 1;
#X connect 15 0 12 0;
#X connect 22 0 106 0;
#X connect 22 0 128 0;
#X connect 23 0 116 0;
#X connect 23 0 123 0;
#X connect 24 0 23 0;
#X connect 27 0 28 0;
#X connect 28 0 20 0;
#X connect 28 0 118 0;
#X connect 29 0 30 0;
#X connect 30 0 39 0;
#X connect 30 0 43 0;
#X connect 30 0 44 0;
#X connect 30 0 45 0;
#X connect 30 0 46 0;
#X connect 30 0 75 0;
#X connect 30 0 77 0;
#X connect 33 0 4 0;
#X connect 34 0 107 0;
#X connect 35 0 34 0;
#X connect 36 0 34 0;
#X connect 37 0 34 0;
#X connect 38 0 37 0;
#X connect 39 0 40 0;
#X connect 40 0 36 0;
#X connect 40 0 38 0;
#X connect 40 1 35 0;
#X connect 41 0 28 0;
#X connect 42 0 32 0;
#X connect 42 0 57 0;
#X connect 43 0 41 0;
#X connect 43 0 31 0;
#X connect 43 0 42 0;
#X connect 44 0 39 0;
#X connect 44 0 48 0;
#X connect 45 0 39 0;
#X connect 45 0 49 0;
#X connect 46 0 73 0;
#X connect 47 0 81 0;
#X connect 48 0 82 0;
#X connect 49 0 83 0;
#X connect 50 0 55 0;
#X connect 50 0 62 0;
#X connect 50 0 67 0;
#X connect 50 0 72 0;
#X connect 50 0 84 0;
#X connect 50 1 52 0;
#X connect 51 0 53 0;
#X connect 51 0 56 0;
#X connect 52 0 51 0;
#X connect 52 0 58 0;
#X connect 52 0 63 0;
#X connect 52 0 68 0;
#X connect 53 0 21 0;
#X connect 54 0 21 0;
#X connect 55 0 51 0;
#X connect 56 0 54 0;
#X connect 57 0 50 0;
#X connect 58 0 60 0;
#X connect 58 0 59 0;
#X connect 59 0 61 0;
#X connect 60 0 21 0;
#X connect 61 0 21 0;
#X connect 62 0 58 0;
#X connect 63 0 65 0;
#X connect 63 0 64 0;
#X connect 64 0 66 0;
#X connect 65 0 21 0;
#X connect 66 0 21 0;
#X connect 67 0 63 0;
#X connect 68 0 70 0;
#X connect 68 0 69 0;
#X connect 69 0 71 0;
#X connect 70 0 21 0;
#X connect 71 0 21 0;
#X connect 72 0 68 0;
#X connect 73 0 76 0;
#X connect 74 0 76 0;
#X connect 75 0 76 1;
#X connect 76 0 21 0;
#X connect 77 0 39 0;
#X connect 77 0 47 0;
#X connect 78 0 76 1;
#X connect 79 0 76 1;
#X connect 80 0 76 1;
#X connect 81 0 73 0;
#X connect 81 1 78 0;
#X connect 82 0 73 0;
#X connect 82 1 79 0;
#X connect 83 0 73 0;
#X connect 83 1 80 0;
#X connect 84 0 85 0;
#X connect 85 0 74 0;
#X connect 85 0 88 0;
#X connect 85 1 80 0;
#X connect 85 2 74 0;
#X connect 85 3 79 0;
#X connect 85 4 74 0;
#X connect 85 5 78 0;
#X connect 85 6 74 0;
#X connect 85 7 75 0;
#X connect 86 0 87 0;
#X connect 86 0 90 0;
#X connect 86 1 80 0;
#X connect 86 2 87 0;
#X connect 86 3 79 0;
#X connect 86 4 87 0;
#X connect 86 5 78 0;
#X connect 86 6 87 0;
#X connect 86 7 75 0;
#X connect 87 0 76 0;
#X connect 88 0 86 0;
#X connect 89 0 91 0;
#X connect 89 0 93 0;
#X connect 89 1 80 0;
#X connect 89 2 91 0;
#X connect 89 3 79 0;
#X connect 89 4 91 0;
#X connect 89 5 78 0;
#X connect 89 6 91 0;
#X connect 89 7 75 0;
#X connect 90 0 89 0;
#X connect 91 0 76 0;
#X connect 92 0 94 0;
#X connect 92 0 95 0;
#X connect 92 1 80 0;
#X connect 92 2 94 0;
#X connect 92 3 79 0;
#X connect 92 4 94 0;
#X connect 92 5 78 0;
#X connect 92 6 94 0;
#X connect 92 7 75 0;
#X connect 93 0 92 0;
#X connect 94 0 76 0;
#X connect 95 0 96 0;
#X connect 95 0 103 0;
#X connect 96 0 51 0;
#X connect 96 0 58 0;
#X connect 96 0 63 0;
#X connect 96 0 68 0;
#X connect 97 0 21 0;
#X connect 98 0 22 0;
#X connect 99 0 100 0;
#X connect 100 0 101 0;
#X connect 101 0 102 0;
#X connect 101 1 16 0;
#X connect 101 1 26 0;
#X connect 102 0 23 0;
#X connect 102 0 28 0;
#X connect 103 0 97 0;
#X connect 103 1 104 0;
#X connect 104 0 21 0;
#X connect 105 0 76 0;
#X connect 106 0 80 0;
#X connect 106 1 105 0;
#X connect 106 2 79 0;
#X connect 106 3 105 0;
#X connect 106 4 78 0;
#X connect 106 5 105 0;
#X connect 106 6 75 0;
#X connect 106 7 105 0;
#X connect 107 0 21 0;
#X connect 108 0 5 0;
#X connect 109 0 5 0;
#X connect 112 0 21 0;
#X connect 113 0 21 0;
#X connect 114 0 21 0;
#X connect 115 0 21 0;
#X connect 117 0 23 0;
#X connect 118 0 21 0;
#X connect 119 0 21 0;
#X connect 120 0 28 0;
#X connect 121 0 21 0;
#X connect 122 0 21 0;
#X connect 123 0 21 0;
#X connect 124 0 21 0;
#X connect 125 0 21 0;
#X connect 126 0 21 0;
#X connect 127 0 21 0;
#X connect 128 0 117 0;
#X connect 128 0 120 0;
#X connect 128 1 19 0;
#X connect 128 1 25 0;
#X connect 128 1 114 0;
#X connect 128 1 115 0;
#X connect 128 1 119 0;
#X connect 128 1 124 0;
#X connect 128 2 24 0;
#X connect 128 2 27 0;
#X connect 128 3 16 0;
#X connect 128 3 17 0;
#X connect 128 3 26 0;
#X connect 128 3 18 0;
#X connect 128 3 122 0;
#X connect 128 3 113 0;
#X connect 128 3 112 0;
#X connect 128 3 121 0;
#X connect 128 4 125 0;
#X connect 128 4 126 0;
#X connect 128 4 127 0;
#X connect 128 5 110 0;
#X connect 128 5 111 0;
