#N canvas 0 100 1440 800 10;
#X declare -path ./lib/sssad;
#X declare -path ./lib/sssad;
#X declare -path ./lib/sssad;
#X declare -path ./lib/sssad;
#X declare -path ./lib/sssad;
#X declare -path ./lib/sssad;
#X declare -path ./lib/sssad;
#X declare -path ./lib/sssad;
#X declare -path ./lib/sssad;
#X declare -path ./lib/sssad;
#X declare -path ./lib/sssad;
#X declare -path ./lib/sssad;
#X obj 31 22 zac.lumiere /TapisRoulant_Rouleau /TapisRoulant;
#X obj 445 33 zac.lumiere /TapisRoulant;
#X obj 44 231 zac.lumiere /TapisRoulant_Roulement /TapisRoulant;
#X obj 129 446 prisonRouleauAssiettesMove;
#X obj 112 502 zac.lumiere /Assiettes;
#X obj 444 328 zac.lumiere /Assiette_DSK /Assiettes;
#X obj 447 504 zac.lumiere /Assiette_DSKContenu /Assiettes;
#X obj 890 682 send OSC_MESSAGES;
#X msg 729 714 /AssietteDSKContenu/File /home/orl/2013_Sebkha-ChottGalootFormula_ThingFish/ThingFishVideoDecorum/Prison/data/2013_06_28_Prison2_assiette_purée_galoot0.png
;
#X obj 704 328 zac.lumiere /Assiette_Lagarde /Assiettes;
#X obj 707 504 zac.lumiere /Assiette_LagardeContenu /Assiettes;
#X obj 964 328 zac.lumiere /Assiette_Bush /Assiettes;
#X obj 967 504 zac.lumiere /Assiette_BushContenu /Assiettes;
#X obj 1224 328 zac.lumiere /Assiette_Gail /Assiettes;
#X obj 1227 504 zac.lumiere /Assiette_GailContenu /Assiettes;
#X msg 891 91 0;
#X msg 1027 95 1;
#X msg 891 143 /Assiette_*/Activate \$1;
#X obj 891 187 send OSC_MESSAGES;
#X msg 1174 87 0;
#X msg 1310 91 1;
#X obj 1174 183 send OSC_MESSAGES;
#X msg 1174 139 /TapisRoulant_*/Activate \$1;
#X obj 1174 52 r tapisRoulantDeActivate;
#X obj 1310 52 r tapisRoulantActivate;
#X obj 1027 56 r assiettesActivate;
#X obj 891 56 r assiettesDeActivate;
#X connect 8 0 7 0;
#X connect 15 0 17 0;
#X connect 16 0 17 0;
#X connect 17 0 18 0;
#X connect 19 0 22 0;
#X connect 20 0 22 0;
#X connect 22 0 21 0;
#X connect 23 0 19 0;
#X connect 24 0 20 0;
#X connect 25 0 16 0;
#X connect 26 0 15 0;
