#N canvas 872 225 505 368 10;
#X obj 57 36 r tapisRolls;
#X obj 192 38 r tapisStopRolling;
#X obj 253 146 t b b;
#X obj 265 225 line;
#X msg 264 256 /TapisRoulant_Roulement/Rotate \$1;
#X obj 54 60 bng 15 250 50 0 empty empty empty 17 7 0 10 -262144 -1
-1;
#X msg 330 95 stop;
#X obj 254 281 send OSC_MESSAGES;
#X msg 216 203 0;
#X obj 270 124 metro 1500;
#X msg 286 176 360 1500;
#X obj 66 118 metro 150;
#X obj 61 167 random 10;
#X obj 18 94 t b b;
#X obj 41 264 +;
#X obj 68 212 - 5;
#X msg 48 298 /TapisRoulant_Rouleau/Ypos \$1;
#X obj 9 192 value /TapisRoulant_Rouleau/Ypos;
#X obj 76 233 / 500;
#X connect 0 0 5 0;
#X connect 1 0 6 0;
#X connect 2 0 10 0;
#X connect 2 1 8 0;
#X connect 3 0 4 0;
#X connect 4 0 7 0;
#X connect 5 0 9 0;
#X connect 5 0 13 0;
#X connect 6 0 9 0;
#X connect 6 0 11 0;
#X connect 8 0 3 0;
#X connect 9 0 2 0;
#X connect 10 0 3 0;
#X connect 11 0 12 0;
#X connect 12 0 15 0;
#X connect 13 0 11 0;
#X connect 13 1 17 0;
#X connect 14 0 16 0;
#X connect 15 0 18 0;
#X connect 16 0 7 0;
#X connect 17 0 14 1;
#X connect 18 0 14 0;
