#N canvas 0 100 1440 800 10;
#X obj 57 6 r tapisRolls;
#X obj 270 110 t b b;
#X obj 270 212 line;
#X obj 57 30 bng 15 250 50 0 empty empty empty 17 7 0 10 -262144 -1
-1;
#X msg 330 35 stop;
#X obj 254 275 send OSC_MESSAGES;
#X msg 240 195 0;
#X obj 270 78 metro 1500;
#X msg 270 169 360 1500;
#X obj 66 72 metro 150;
#X obj 66 101 random 10;
#X obj 18 54 t b b;
#X obj 30 213 +;
#X obj 66 175 - 5;
#X obj 45 142 value /TapisRoulant_Rouleau/Ypos;
#X obj 66 196 / 500;
#X obj 922 358 send OSC_MESSAGES;
#X obj 622 42 bng 15 250 50 0 empty empty empty 17 7 0 10 -262144 -1
-1;
#X obj 610 278 line;
#X msg 585 230 18;
#X msg 652 277 29.2;
#X obj 701 294 line;
#X obj 54 317 r assiettesScrollingToJardin;
#X obj 54 343 bng 15 250 50 0 empty empty empty 17 7 0 10 -262144 -1
-1;
#X obj 90 399 s tapisRolls;
#X obj 54 466 s tapisStopsRolling;
#X obj 330 12 r tapisStopsRolling;
#X obj 408 474 line;
#X msg 408 454 0;
#X msg 273 457 90 200;
#X msg 273 514 0 200;
#X obj 273 485 delay 300;
#X obj 273 418 bng 15 250 50 0 empty empty empty 17 7 0 10 -262144
-1 -1;
#X obj 273 437 t b b;
#X obj 54 420 delay 10000;
#X obj 54 371 delay 400;
#X obj 341 358 delay 2500;
#X obj 409 358 delay 4000;
#X obj 207 387 delay 250;
#X obj 273 387 delay 250;
#X obj 341 386 delay 250;
#X obj 409 386 delay 250;
#X obj 54 521 t b b;
#X obj 54 598 line;
#X msg 54 552 -0.08 400;
#X obj 54 497 bng 15 250 50 0 empty empty empty 17 7 0 10 -262144 -1
-1;
#X obj 336 598 line;
#X obj 604 598 line;
#X obj 856 598 line;
#X msg 856 639 /Assiette_Gail/Ypos \$1;
#X msg 1281 528 /home/woii/2013_Sebkha-ChottGalootFormula_ThingFish/ThingFishVideoDecorum/Prison/data/2013_06_28_Prison2_assiette_purée_galoot0.png
;
#X msg 1390 644 /home/woii/2013_Sebkha-ChottGalootFormula_ThingFish/ThingFishVideoDecorum/Prison/data/2013_06_28_Prison2_assiette_purée_galoot1.png
;
#X obj 1282 507 list prepend;
#X obj 273 358 delay 1300;
#X obj 297 404 t b b;
#X obj 365 404 t b b;
#X obj 433 404 t b b;
#X obj 54 727 delay 600;
#X obj 1251 744 t b b b b b b b b;
#X obj 1261 778 t b b b b b b b b;
#X msg 1409 692 /home/woii/2013_Sebkha-ChottGalootFormula_ThingFish/ThingFishVideoDecorum/Prison/data/2013_06_28_Prison2_assiette_purée_galoot2.png
;
#X obj 1151 761 delay 500;
#X obj 1261 812 t b b b b b b b b;
#X obj 1151 795 delay 500;
#X msg 1429 749 /home/woii/2013_Sebkha-ChottGalootFormula_ThingFish/ThingFishVideoDecorum/Prison/data/2013_06_28_Prison2_assiette_purée_galoot3.png
;
#X obj 1261 845 t b b b b b b b b;
#X obj 1151 828 delay 500;
#X msg 1442 804 /home/woii/2013_Sebkha-ChottGalootFormula_ThingFish/ThingFishVideoDecorum/Prison/data/2013_06_28_Prison2_assiette_purée_galoot4.png
;
#X obj 52 862 delay 500;
#X msg 52 841 /PrisonPrisonniersMalades/Activate 1;
#X obj 622 9 r tapisRoulantComesInFromCour;
#X obj 1250 16 r tapisRoulantGetsOutToCour;
#X obj 1250 43 bng 15 250 50 0 empty empty empty 17 7 0 10 -262144
-1 -1;
#X obj 1250 88 t b b;
#X msg 1250 116 18 400;
#X obj 52 802 t b b;
#X msg 109 819 /PrisonPrisonniersMalades/Alpha 1;
#X msg 408 494 /EvilPrince_BrasCour/Rotate \$1;
#X msg 270 250 /DunjonDoor5Cadre/Rotate \$1;
#X msg 30 258 /DunjonDoor/Ypos \$1;
#X obj 944 4 s TapisRoulantActivate;
#X obj 940 36 s TapisRoulantAssiettesActivate;
#X msg 922 102 /EvilPrince_BulleContent/Child/Xpos 1;
#X msg 637 176 /DunjonDoor5*/Activate 1;
#X msg 637 196 /EvilPrince_BulleContent/Activate 1;
#X msg 622 247 0.1 200;
#X msg 922 312 /EvilPrince_BulleContent/Xpos \$1;
#X msg 622 105 5.74497 200;
#X msg 922 143 /Assiette_*/Child/Xpos 1;
#X msg 922 81 /DunjonDoor5Cadre/Child/Xpos 1;
#X msg 610 341 /DunjonDoor5/Xpos \$1;
#X msg 637 156 /Assiette_*/Activate 1;
#X msg 922 163 /Assiette_*/ParentName /EvilPrince_BulleContent;
#X msg 922 183 /EvilPrince_BullePotium/ParentName /EvilPrince_BulleContent
;
#X msg 922 203 /DunjonDoor5Cadre/ParentName /DunjonDoor5;
#X obj 622 63 t b b b b b b;
#X msg 54 277 -5.45503 10000;
#X msg 1351 358 /EvilPrince_BulleContent/File;
#X msg 1351 378 /EvilPrince_BullePotium/File;
#X msg 1351 398 /Assiette_Bush/File;
#X msg 1351 418 /Assiette_Gail/File;
#X msg 54 639 /EvilPrince_BulleContent/Ypos \$1;
#X msg 336 637 /EvilPrince_BullePotium/Ypos \$1;
#X msg 604 639 /Assiette_Bush/Ypos \$1;
#X obj 1407 143 delay 405;
#X obj 1407 171 t b b b;
#X msg 1446 267 /Assiette_*/Activate 0;
#X msg 1446 287 /DunjonDoor5*/Activate 0;
#X msg 1446 307 /EvilPrince_BulleContent/Activate 0;
#X msg 1426 199 0;
#X msg 1506 187 /Assiette_*/ParentName /Dummy;
#X msg 1506 207 /DunjonDoor5*/ParentName /Dummy;
#X msg 1446 327 /EvilPrince_BullePotium/Activate 0;
#X msg 637 216 /EvilPrince_BullePotium/Activate 1;
#X msg 1506 227 /EvilPrince_BulleContent/ParentName /Dummy;
#X msg 1506 247 /EvilPrince_BullePotium/ParentName /Dummy;
#X msg 922 123 /EvilPrince_BullPotium/Child/Xpos 1;
#X msg 81 581 -1.6;
#X msg 336 538 -0.8 400;
#X msg 604 538 -0.4 400;
#X msg 856 538 0 400;
#X msg 337 879 -1.6 500;
#X connect 0 0 3 0;
#X connect 1 0 8 0;
#X connect 1 1 6 0;
#X connect 2 0 78 0;
#X connect 3 0 7 0;
#X connect 3 0 11 0;
#X connect 4 0 7 0;
#X connect 4 0 9 0;
#X connect 6 0 2 0;
#X connect 7 0 1 0;
#X connect 8 0 2 0;
#X connect 9 0 10 0;
#X connect 10 0 13 0;
#X connect 11 0 9 0;
#X connect 11 1 14 0;
#X connect 12 0 79 0;
#X connect 13 0 15 0;
#X connect 14 0 12 1;
#X connect 15 0 12 0;
#X connect 17 0 95 0;
#X connect 18 0 90 0;
#X connect 19 0 18 0;
#X connect 20 0 21 0;
#X connect 21 0 86 0;
#X connect 22 0 23 0;
#X connect 23 0 32 0;
#X connect 23 0 35 0;
#X connect 23 0 36 0;
#X connect 23 0 37 0;
#X connect 23 0 38 0;
#X connect 23 0 97 0;
#X connect 23 0 53 0;
#X connect 26 0 4 0;
#X connect 27 0 77 0;
#X connect 28 0 27 0;
#X connect 29 0 27 0;
#X connect 30 0 27 0;
#X connect 31 0 30 0;
#X connect 32 0 33 0;
#X connect 33 0 29 0;
#X connect 33 0 31 0;
#X connect 33 1 28 0;
#X connect 34 0 25 0;
#X connect 34 0 45 0;
#X connect 35 0 96 0;
#X connect 35 0 24 0;
#X connect 35 0 34 0;
#X connect 36 0 32 0;
#X connect 36 0 40 0;
#X connect 37 0 32 0;
#X connect 37 0 41 0;
#X connect 38 0 50 0;
#X connect 39 0 54 0;
#X connect 40 0 55 0;
#X connect 41 0 56 0;
#X connect 42 0 44 0;
#X connect 42 0 118 0;
#X connect 42 0 119 0;
#X connect 42 0 120 0;
#X connect 42 0 57 0;
#X connect 42 1 117 0;
#X connect 43 0 101 0;
#X connect 44 0 43 0;
#X connect 45 0 42 0;
#X connect 46 0 102 0;
#X connect 47 0 103 0;
#X connect 48 0 49 0;
#X connect 49 0 16 0;
#X connect 50 0 52 0;
#X connect 51 0 52 0;
#X connect 52 0 16 0;
#X connect 53 0 32 0;
#X connect 53 0 39 0;
#X connect 54 0 50 0;
#X connect 54 1 98 0;
#X connect 55 0 50 0;
#X connect 55 1 99 0;
#X connect 56 0 50 0;
#X connect 56 1 100 0;
#X connect 57 0 58 0;
#X connect 58 0 51 0;
#X connect 58 0 61 0;
#X connect 58 1 100 0;
#X connect 58 2 51 0;
#X connect 58 3 99 0;
#X connect 58 4 51 0;
#X connect 58 5 98 0;
#X connect 58 6 51 0;
#X connect 58 7 97 0;
#X connect 59 0 60 0;
#X connect 59 0 63 0;
#X connect 59 1 100 0;
#X connect 59 2 60 0;
#X connect 59 3 99 0;
#X connect 59 4 60 0;
#X connect 59 5 98 0;
#X connect 59 6 60 0;
#X connect 59 7 97 0;
#X connect 60 0 52 0;
#X connect 61 0 59 0;
#X connect 62 0 64 0;
#X connect 62 0 66 0;
#X connect 62 1 100 0;
#X connect 62 2 64 0;
#X connect 62 3 99 0;
#X connect 62 4 64 0;
#X connect 62 5 98 0;
#X connect 62 6 64 0;
#X connect 62 7 97 0;
#X connect 63 0 62 0;
#X connect 64 0 52 0;
#X connect 65 0 67 0;
#X connect 65 0 68 0;
#X connect 65 1 100 0;
#X connect 65 2 67 0;
#X connect 65 3 99 0;
#X connect 65 4 67 0;
#X connect 65 5 98 0;
#X connect 65 6 67 0;
#X connect 65 7 97 0;
#X connect 66 0 65 0;
#X connect 67 0 52 0;
#X connect 68 0 121 0;
#X connect 68 0 75 0;
#X connect 69 0 16 0;
#X connect 70 0 17 0;
#X connect 71 0 72 0;
#X connect 72 0 73 0;
#X connect 73 0 74 0;
#X connect 73 1 104 0;
#X connect 74 0 18 0;
#X connect 74 0 21 0;
#X connect 75 0 69 0;
#X connect 75 1 76 0;
#X connect 76 0 16 0;
#X connect 77 0 16 0;
#X connect 78 0 5 0;
#X connect 79 0 5 0;
#X connect 82 0 16 0;
#X connect 83 0 16 0;
#X connect 84 0 16 0;
#X connect 85 0 18 0;
#X connect 86 0 16 0;
#X connect 87 0 21 0;
#X connect 88 0 16 0;
#X connect 89 0 16 0;
#X connect 90 0 16 0;
#X connect 91 0 16 0;
#X connect 92 0 16 0;
#X connect 93 0 16 0;
#X connect 94 0 16 0;
#X connect 95 0 85 0;
#X connect 95 0 87 0;
#X connect 95 1 83 0;
#X connect 95 1 84 0;
#X connect 95 1 113 0;
#X connect 95 1 91 0;
#X connect 95 2 19 0;
#X connect 95 2 20 0;
#X connect 95 3 89 0;
#X connect 95 3 82 0;
#X connect 95 3 116 0;
#X connect 95 3 88 0;
#X connect 95 4 92 0;
#X connect 95 4 93 0;
#X connect 95 4 94 0;
#X connect 95 5 80 0;
#X connect 95 5 81 0;
#X connect 96 0 21 0;
#X connect 97 0 52 1;
#X connect 98 0 52 1;
#X connect 99 0 52 1;
#X connect 100 0 52 1;
#X connect 101 0 16 0;
#X connect 102 0 16 0;
#X connect 103 0 16 0;
#X connect 104 0 105 0;
#X connect 105 0 110 0;
#X connect 105 0 111 0;
#X connect 105 0 114 0;
#X connect 105 0 115 0;
#X connect 105 1 109 0;
#X connect 105 2 106 0;
#X connect 105 2 107 0;
#X connect 105 2 108 0;
#X connect 105 2 112 0;
#X connect 106 0 16 0;
#X connect 107 0 16 0;
#X connect 108 0 16 0;
#X connect 109 0 21 0;
#X connect 109 0 18 0;
#X connect 110 0 16 0;
#X connect 111 0 16 0;
#X connect 112 0 16 0;
#X connect 113 0 16 0;
#X connect 114 0 16 0;
#X connect 115 0 16 0;
#X connect 116 0 16 0;
#X connect 117 0 43 0;
#X connect 117 0 46 0;
#X connect 117 0 47 0;
#X connect 117 0 48 0;
#X connect 118 0 46 0;
#X connect 119 0 47 0;
#X connect 120 0 48 0;
#X connect 121 0 43 0;
#X connect 121 0 46 0;
#X connect 121 0 47 0;
#X connect 121 0 48 0;
