#N canvas 260 315 1079 656 10;
#X obj 57 36 r tapisRolls;
#X obj 192 38 r tapisStopRolling;
#X obj 253 146 t b b;
#X obj 265 225 line;
#X msg 264 256 /TapisRoulant_Roulement/Rotate \$1;
#X obj 54 60 bng 15 250 50 0 empty empty empty 17 7 0 10 -262144 -1
-1;
#X msg 330 95 stop;
#X obj 254 281 send OSC_MESSAGES;
#X msg 216 203 0;
#X obj 270 124 metro 1500;
#X msg 286 176 360 1500;
#X obj 66 118 metro 150;
#X obj 61 167 random 10;
#X obj 18 94 t b b;
#X obj 41 264 +;
#X obj 68 212 - 5;
#X msg 48 298 /TapisRoulant_Rouleau/Ypos \$1;
#X obj 9 192 value /TapisRoulant_Rouleau/Ypos;
#X obj 76 233 / 500;
#X obj 576 33 r TapisRoulantComesInFromCour;
#X msg 696 132 /TapisRoulant_*/Child/Xpos 1;
#X msg 889 132 /TapisRoulant/Parent/Xpos 1;
#X msg 896 189 /Assiettes/Parent/Xpos 1;
#X msg 697 161 /TapisRoulant_*/Activate 1;
#X msg 623 311 /TapisRoulant/Xpos \$1;
#X msg 702 390 /Assiettes/Xpos \$1;
#X obj 702 473 send OSC_MESSAGES;
#X obj 622 62 bng 15 250 50 0 empty empty empty 17 7 0 10 -262144 -1
-1;
#X obj 623 278 line;
#X msg 635 238 0 200;
#X obj 663 84 t b b b b;
#X msg 598 221 18;
#X msg 705 218 /Assiette_*/Activate 1;
#X msg 703 189 /Assiette_*/Child/Xpos 1;
#X connect 0 0 5 0;
#X connect 1 0 6 0;
#X connect 2 0 10 0;
#X connect 2 1 8 0;
#X connect 3 0 4 0;
#X connect 4 0 7 0;
#X connect 5 0 9 0;
#X connect 5 0 13 0;
#X connect 6 0 9 0;
#X connect 6 0 11 0;
#X connect 8 0 3 0;
#X connect 9 0 2 0;
#X connect 10 0 3 0;
#X connect 11 0 12 0;
#X connect 12 0 15 0;
#X connect 13 0 11 0;
#X connect 13 1 17 0;
#X connect 14 0 16 0;
#X connect 15 0 18 0;
#X connect 16 0 7 0;
#X connect 17 0 14 1;
#X connect 18 0 14 0;
#X connect 19 0 27 0;
#X connect 20 0 26 0;
#X connect 21 0 26 0;
#X connect 22 0 26 0;
#X connect 23 0 26 0;
#X connect 24 0 26 0;
#X connect 25 0 26 0;
#X connect 27 0 30 0;
#X connect 28 0 24 0;
#X connect 28 0 25 0;
#X connect 29 0 28 0;
#X connect 30 0 29 0;
#X connect 30 1 23 0;
#X connect 30 1 32 0;
#X connect 30 2 31 0;
#X connect 30 3 20 0;
#X connect 30 3 21 0;
#X connect 30 3 33 0;
#X connect 30 3 22 0;
#X connect 31 0 28 0;
#X connect 32 0 26 0;
#X connect 33 0 26 0;
