#N canvas 0 97 1440 800 10;
#X msg 25 36 0;
#X msg 79 36 1;
#X obj 34 142 send OSC_MESSAGES;
#X msg 34 77 /Prison_Musiciens*/Activate \$1;
#X obj 91 314 line;
#X floatatom 137 260 5 0 0 0 - - -;
#X msg 91 358 /Prison_Musiciens_SaxHaut/Ypos \$1;
#X obj 91 413 send OSC_MESSAGES;
#X msg 12 277 \$1 100;
#X obj 684 73 delay 100;
#X msg 206 297 \$1 80;
#X obj 206 276 +;
#X msg 206 251 0;
#X obj 684 -105 bng 15 250 50 0 empty empty empty 17 7 0 10 -262144
-1 -1;
#X obj 91 197 value /Prison_Musiciens_SaxHaut/Ypos;
#X msg 773 7 stop;
#X obj 370 314 line;
#X obj 370 413 send OSC_MESSAGES;
#X msg 593 297 4.33;
#X msg 633 297 48.3;
#X obj 410 314 line;
#X obj 678 280 loadbang;
#X msg 479 271 4.33 80;
#X msg 538 271 48.3 80;
#X msg 370 358 /Prison_Musiciens_GCBras/Xpos \$1;
#X msg 410 378 /Prison_Musiciens_GCBras/Rotate \$1;
#X msg 370 271 4.08 100;
#X msg 432 271 0 100;
#X obj 684 24 metro 500;
#X obj 12 247 + 0.1;
#X floatatom 735 -24 5 0 0 0 - - -;
#X msg 735 -56 set 500;
#X obj 684 -73 t b b;
#X obj 817 -39 hsl 128 15 200 800 0 0 empty empty empty -2 -8 0 10
-262144 -1 -1 6350 1;
#X obj 804 54 / 2;
#X msg 871 277 347;
#X obj 753 311 line;
#X msg 753 343 /Prison_Musiciens_BanjoBras/Rotate \$1;
#X obj 911 260 loadbang;
#X obj 753 379 send OSC_MESSAGES;
#X obj 814 111 delay 100;
#X msg 753 277 360 80;
#X msg 814 277 347 100;
#X obj 753 73 delay 250;
#X obj 993 311 line;
#X obj 1151 260 loadbang;
#X obj 993 383 send OSC_MESSAGES;
#X obj 1055 322 line;
#X obj 1213 281 loadbang;
#X msg 1055 362 /Prison_Musiciens_CymbalesCour/Xpos \$1;
#X msg 993 343 /Prison_Musiciens_CymbalesJardin/Xpos \$1;
#X msg 1111 277 0.77;
#X msg 1173 298 1.57;
#X msg 1054 277 0.77 100;
#X msg 1116 298 1.57 100;
#X msg 993 277 1.03 80;
#X msg 1055 298 1.35 80;
#X obj 773 410 metro 250;
#X obj 299 651 send OSC_MESSAGES;
#X msg 108 626 /Prison_Musiciens_BanjoTete/Rotate \$1;
#X obj 108 581 mod 360;
#X obj 108 515 random 3;
#X obj 108 538 - 2;
#X msg 108 602 \$1 80;
#X msg 805 470 0 80;
#X obj 799 436 delay 80;
#X obj 108 560 * 5;
#X obj 358 581 mod 360;
#X obj 358 515 random 3;
#X obj 358 538 - 2;
#X msg 358 602 \$1 80;
#X obj 358 560 * 5;
#X msg 358 626 /Prison_Musiciens_GCTete/Rotate \$1;
#X obj 588 581 mod 360;
#X obj 588 515 random 3;
#X obj 588 538 - 2;
#X msg 588 602 \$1 80;
#X obj 588 560 * 5;
#X obj 838 581 mod 360;
#X obj 838 515 random 3;
#X obj 838 538 - 2;
#X msg 838 602 \$1 80;
#X obj 838 560 * 5;
#X msg 588 626 /Prison_Musiciens_CymbalesTete/Rotate \$1;
#X msg 838 626 /Prison_Musiciens_CymbalumTete/Rotate \$1;
#X msg 1100 602 \$1 80;
#X obj 1100 560 * 5;
#X obj 1100 515 random 2;
#X msg 1100 626 /Prison_Musiciens_SaxHaut/Rotate \$1;
#X obj 746 -102 r musiciansArePlaying;
#X obj 988 -93 r musiciansArentPlaying;
#X connect 0 0 3 0;
#X connect 1 0 3 0;
#X connect 3 0 2 0;
#X connect 4 0 6 0;
#X connect 5 0 4 0;
#X connect 5 0 11 1;
#X connect 6 0 7 0;
#X connect 8 0 4 0;
#X connect 9 0 12 0;
#X connect 9 0 22 0;
#X connect 9 0 23 0;
#X connect 10 0 4 0;
#X connect 11 0 10 0;
#X connect 12 0 11 0;
#X connect 13 0 32 0;
#X connect 14 0 4 0;
#X connect 14 0 5 0;
#X connect 14 0 29 0;
#X connect 15 0 5 0;
#X connect 15 0 19 0;
#X connect 15 0 18 0;
#X connect 15 0 28 0;
#X connect 15 0 35 0;
#X connect 15 0 51 0;
#X connect 15 0 52 0;
#X connect 15 0 57 0;
#X connect 16 0 24 0;
#X connect 18 0 16 0;
#X connect 19 0 20 0;
#X connect 20 0 25 0;
#X connect 21 0 18 0;
#X connect 21 0 19 0;
#X connect 22 0 16 0;
#X connect 23 0 20 0;
#X connect 24 0 17 0;
#X connect 25 0 17 0;
#X connect 26 0 16 0;
#X connect 27 0 20 0;
#X connect 28 0 14 0;
#X connect 28 0 9 0;
#X connect 28 0 26 0;
#X connect 28 0 27 0;
#X connect 28 0 35 0;
#X connect 28 0 43 0;
#X connect 29 0 8 0;
#X connect 30 0 28 1;
#X connect 30 0 34 0;
#X connect 31 0 30 0;
#X connect 31 0 33 0;
#X connect 32 0 28 0;
#X connect 32 0 57 0;
#X connect 32 1 31 0;
#X connect 33 0 30 0;
#X connect 34 0 43 1;
#X connect 34 0 57 1;
#X connect 35 0 36 0;
#X connect 36 0 37 0;
#X connect 37 0 39 0;
#X connect 38 0 35 0;
#X connect 40 0 42 0;
#X connect 40 0 53 0;
#X connect 40 0 54 0;
#X connect 41 0 36 0;
#X connect 42 0 36 0;
#X connect 43 0 41 0;
#X connect 43 0 40 0;
#X connect 43 0 55 0;
#X connect 43 0 56 0;
#X connect 44 0 50 0;
#X connect 45 0 51 0;
#X connect 47 0 49 0;
#X connect 48 0 52 0;
#X connect 49 0 46 0;
#X connect 50 0 46 0;
#X connect 51 0 44 0;
#X connect 52 0 47 0;
#X connect 53 0 44 0;
#X connect 54 0 47 0;
#X connect 55 0 44 0;
#X connect 56 0 47 0;
#X connect 57 0 61 0;
#X connect 57 0 65 0;
#X connect 57 0 68 0;
#X connect 57 0 74 0;
#X connect 57 0 79 0;
#X connect 57 0 87 0;
#X connect 59 0 58 0;
#X connect 60 0 63 0;
#X connect 61 0 62 0;
#X connect 62 0 66 0;
#X connect 63 0 59 0;
#X connect 64 0 59 0;
#X connect 64 0 72 0;
#X connect 64 0 88 0;
#X connect 64 0 83 0;
#X connect 64 0 84 0;
#X connect 65 0 64 0;
#X connect 66 0 60 0;
#X connect 67 0 70 0;
#X connect 68 0 69 0;
#X connect 69 0 71 0;
#X connect 70 0 72 0;
#X connect 71 0 67 0;
#X connect 72 0 58 0;
#X connect 73 0 76 0;
#X connect 74 0 75 0;
#X connect 75 0 77 0;
#X connect 76 0 83 0;
#X connect 77 0 73 0;
#X connect 78 0 81 0;
#X connect 79 0 80 0;
#X connect 80 0 82 0;
#X connect 81 0 84 0;
#X connect 82 0 78 0;
#X connect 83 0 58 0;
#X connect 84 0 58 0;
#X connect 85 0 88 0;
#X connect 86 0 85 0;
#X connect 87 0 86 0;
#X connect 88 0 58 0;
#X connect 89 0 32 0;
#X connect 90 0 15 0;
