#N canvas 177 275 1425 796 10;
#X declare -path ./lib/sssad;
#X declare -path ./lib/sssad;
#X declare -path ./lib/sssad;
#X declare -path ./lib/sssad;
#X declare -path ./lib/sssad;
#X declare -path ./lib/sssad;
#X declare -path ./lib/sssad;
#X declare -path ./lib/sssad;
#X declare -path ./lib/sssad;
#X declare -path ./lib/sssad;
#X declare -path ./lib/sssad;
#X declare -path ./lib/sssad;
#X declare -path ./lib/sssad;
#X declare -path ./lib/sssad;
#X declare -path ./lib/sssad;
#X declare -path ./lib/sssad;
#X declare -path ./lib/sssad;
#X declare -path ./lib/sssad;
#X declare -path ./lib/sssad;
#X declare -path ./lib/sssad;
#X declare -path ./lib/sssad;
#X declare -path ./lib/sssad;
#X declare -path ./lib/sssad;
#X declare -path ./lib/sssad;
#X declare -path ./lib/sssad;
#X declare -path ./lib/sssad;
#X declare -path ./lib/sssad;
#X declare -path ./lib/sssad;
#X declare -path ./lib/sssad;
#X declare -path ./lib/sssad;
#X declare -path ./lib/sssad;
#X declare -path ./lib/sssad;
#X obj 234 497 zac.lumiere /Prison_Barreaux /PrisonContainer;
#X obj 119 310 zac.lumiere /Prison_Prisonniers /PrisonContainer;
#X obj 414 228 zac.lumiere /Prison_ScenePrison /PrisonContainer;
#X obj 959 49 prisonMusiciens;
#X obj 137 165 send OSC_MESSAGES;
#X msg 155 133 /Prison_*/Activate \$1;
#X msg 147 102 0;
#X msg 192 104 1;
#X obj 433 71 s musiciansArePlaying;
#X obj 447 44 bng 15 250 50 0 empty empty empty 17 7 0 10 -262144 -1
-1;
#X obj 627 72 s musiciansArentPlaying;
#X obj 584 69 bng 15 250 50 0 empty empty empty 17 7 0 10 -262144 -1
-1;
#X obj 899 223 zac.lumiere /PrisonContainer;
#X obj 205 61 r prisonActivate;
#X obj 926 110 prisonMoves;
#X obj 814 167 prisonRouleauAssiettes;
#X connect 5 0 4 0;
#X connect 6 0 5 0;
#X connect 7 0 5 0;
#X connect 9 0 8 0;
#X connect 11 0 10 0;
#X connect 13 0 7 0;
