#N canvas 3 48 1440 800 10;
#X declare -path ./lib/sssad;
#X declare -path ./lib/sssad;
#X declare -path ./lib/sssad;
#X declare -path ./lib/sssad;
#X declare -path ./lib/sssad;
#X declare -path ./lib/sssad;
#X declare -path ./lib/sssad;
#X declare -path ./lib/sssad;
#X declare -path ./lib/sssad;
#X declare -path ./lib/sssad;
#X declare -path ./lib/sssad;
#X declare -path ./lib/sssad;
#X obj 31 22 zac.lumiere /TapisRoulant_Rouleau /TapisRoulant;
#X obj 405 33 zac.lumiere /TapisRoulant;
#X obj 44 231 zac.lumiere /TapisRoulant_Roulement /TapisRoulant;
#X obj 129 446 prisonRouleauAssiettesMove;
#X obj 112 502 zac.lumiere /Assiettes;
#X obj 444 328 zac.lumiere /Assiette_DSK /Assiettes;
#X obj 447 504 zac.lumiere /Assiette_DSKContenu /Assiettes;
#X obj 890 682 send OSC_MESSAGES;
#X msg 729 714 /AssietteDSKContenu/File /home/orl/2013_Sebkha-ChottGalootFormula_ThingFish/ThingFishVideoDecorum/Prison/data/2013_06_28_Prison2_assiette_purée_galoot0.png
;
#X obj 704 328 zac.lumiere /Assiette_Lagarde /Assiettes;
#X obj 707 504 zac.lumiere /Assiette_LagardeContenu /Assiettes;
#X obj 964 328 zac.lumiere /Assiette_Bush /Assiettes;
#X obj 967 504 zac.lumiere /Assiette_BushContenu /Assiettes;
#X obj 1224 328 zac.lumiere /Assiette_Gail /Assiettes;
#X obj 1227 504 zac.lumiere /Assiette_GailContenu /Assiettes;
#X msg 911 87 0;
#X msg 1047 91 1;
#X msg 911 139 /Assiette_*/Activate \$1;
#X obj 911 183 send OSC_MESSAGES;
#X msg 1174 87 0;
#X msg 1310 91 1;
#X obj 1174 183 send OSC_MESSAGES;
#X msg 1174 139 /TapisRoulant_*/Activate \$1;
#X obj 1174 52 r tapisRoulantDeActivate;
#X obj 1310 52 r tapisRoulantActivate;
#X obj 1047 52 r assiettesActivate;
#X obj 911 52 r assiettesDeActivate;
#N canvas 88 176 850 819 TapisRoulantRouleauActivate 0;
#X obj 234 522 send OSC_MESSAGES;
#X obj 114 449 list prepend;
#X obj 71 43 bng 15 250 50 0 empty empty empty 17 7 0 10 -262144 -1
-1;
#X obj 114 472 l2s /;
#X msg 114 132 File;
#X obj 234 489 list;
#X msg 114 109 Zpos;
#X msg 114 326 RenderOrder;
#X msg 114 369 Yscale;
#X msg 114 389 Xscale;
#X msg 114 409 Ypos;
#X msg 114 429 Xpos;
#X msg 114 225 Blue;
#X msg 114 184 Red;
#X msg 114 205 Green;
#X msg 114 305 modeAlpha;
#X msg 114 348 Shape;
#X msg 114 245 Rotate;
#X msg 114 284 Alpha;
#X msg 114 264 Activate;
#X obj 71 62 t b b b;
#X obj 56 115 t b b b;
#X obj 56 309 t b b b;
#X obj 56 352 t b b b;
#X obj 56 372 t b b b;
#X obj 56 392 t b b b;
#X obj 56 412 t b b b;
#X obj 17 331 t b b b;
#X obj 16 288 t b b b;
#X obj 56 267 t b b b;
#X obj 56 247 t b b b;
#X obj 56 228 t b b b;
#X obj 56 208 t b b b;
#X obj 56 188 t b b b;
#X obj 56 167 t b b b;
#X msg 255 245 0;
#X msg 255 284 1;
#X obj 71 22 r TapisRoulantRouleauActivate;
#X msg 183 79 /DunjonDoor5;
#X msg 255 109 -3.01001;
#X msg 255 132 /home/woii/2013_Sebkha-ChottGalootFormula_ThingFish/ThingFishVideoDecorum/Prison/data/2013_06_28_Prison2_Tapis-Roulant.png
;
#X msg 255 225 1;
#X msg 255 184 1;
#X msg 255 205 0.51;
#X msg 255 369 0.2;
#X msg 255 389 6.5;
#X msg 255 264 1;
#X msg 255 409 -2.02;
#X msg 255 429 0;
#X msg 255 326 -22;
#X connect 1 0 3 0;
#X connect 2 0 20 0;
#X connect 3 0 5 0;
#X connect 4 0 1 0;
#X connect 5 0 0 0;
#X connect 6 0 1 0;
#X connect 7 0 1 0;
#X connect 8 0 1 0;
#X connect 9 0 1 0;
#X connect 10 0 1 0;
#X connect 11 0 1 0;
#X connect 12 0 1 0;
#X connect 13 0 1 0;
#X connect 14 0 1 0;
#X connect 15 0 1 0;
#X connect 17 0 1 0;
#X connect 18 0 1 0;
#X connect 19 0 1 0;
#X connect 20 0 6 0;
#X connect 20 0 21 0;
#X connect 20 1 39 0;
#X connect 20 2 38 0;
#X connect 21 0 34 0;
#X connect 21 1 4 0;
#X connect 21 2 40 0;
#X connect 22 0 23 0;
#X connect 22 1 7 0;
#X connect 22 2 49 0;
#X connect 23 0 24 0;
#X connect 23 1 8 0;
#X connect 23 2 44 0;
#X connect 24 0 25 0;
#X connect 24 1 9 0;
#X connect 24 2 45 0;
#X connect 25 0 26 0;
#X connect 25 1 10 0;
#X connect 25 2 47 0;
#X connect 26 1 11 0;
#X connect 26 2 48 0;
#X connect 27 1 16 0;
#X connect 28 1 15 0;
#X connect 29 0 22 0;
#X connect 29 1 18 0;
#X connect 29 2 36 0;
#X connect 30 0 29 0;
#X connect 30 1 19 0;
#X connect 30 2 46 0;
#X connect 31 0 30 0;
#X connect 31 1 17 0;
#X connect 31 2 35 0;
#X connect 32 0 31 0;
#X connect 32 1 12 0;
#X connect 32 2 41 0;
#X connect 33 0 32 0;
#X connect 33 1 14 0;
#X connect 33 2 43 0;
#X connect 34 0 33 0;
#X connect 34 1 13 0;
#X connect 34 2 42 0;
#X connect 35 0 5 1;
#X connect 36 0 5 1;
#X connect 37 0 2 0;
#X connect 38 0 1 1;
#X connect 39 0 5 1;
#X connect 40 0 5 1;
#X connect 41 0 5 1;
#X connect 42 0 5 1;
#X connect 43 0 5 1;
#X connect 44 0 5 1;
#X connect 45 0 5 1;
#X connect 46 0 5 1;
#X connect 47 0 5 1;
#X connect 48 0 5 1;
#X connect 49 0 5 1;
#X restore 667 39 pd TapisRoulantRouleauActivate;
#N canvas 88 172 850 819 TapisRoulantRoulementActivate 0;
#X obj 234 522 send OSC_MESSAGES;
#X obj 114 449 list prepend;
#X obj 71 43 bng 15 250 50 0 empty empty empty 17 7 0 10 -262144 -1
-1;
#X obj 114 472 l2s /;
#X msg 114 132 File;
#X obj 234 489 list;
#X msg 114 109 Zpos;
#X msg 114 326 RenderOrder;
#X msg 114 369 Yscale;
#X msg 114 389 Xscale;
#X msg 114 409 Ypos;
#X msg 114 429 Xpos;
#X msg 114 225 Blue;
#X msg 114 184 Red;
#X msg 114 205 Green;
#X msg 114 305 modeAlpha;
#X msg 114 348 Shape;
#X msg 114 245 Rotate;
#X msg 114 284 Alpha;
#X msg 114 264 Activate;
#X obj 71 62 t b b b;
#X obj 56 115 t b b b;
#X obj 56 309 t b b b;
#X obj 56 352 t b b b;
#X obj 56 372 t b b b;
#X obj 56 392 t b b b;
#X obj 56 412 t b b b;
#X obj 17 331 t b b b;
#X obj 16 288 t b b b;
#X obj 56 267 t b b b;
#X obj 56 247 t b b b;
#X obj 56 228 t b b b;
#X obj 56 208 t b b b;
#X obj 56 188 t b b b;
#X obj 56 167 t b b b;
#X msg 255 284 1;
#X msg 255 225 1;
#X msg 255 184 1;
#X msg 255 205 0.51;
#X msg 255 369 0.2;
#X msg 255 264 1;
#X obj 71 22 r TapisRoulantRoulementActivate;
#X msg 183 79 /DunjonDoor5Cadre;
#X msg 255 132 /home/woii/2013_Sebkha-ChottGalootFormula_ThingFish/ThingFishVideoDecorum/Prison/data/2013_06_28_Prison2_Tapis-Roulant_roulement.png
;
#X msg 255 245 360;
#X msg 255 389 0.2;
#X msg 255 409 -1.95436;
#X msg 255 429 6.21;
#X msg 255 109 -3.01001;
#X msg 255 326 -21;
#X connect 1 0 3 0;
#X connect 2 0 20 0;
#X connect 3 0 5 0;
#X connect 4 0 1 0;
#X connect 5 0 0 0;
#X connect 6 0 1 0;
#X connect 7 0 1 0;
#X connect 8 0 1 0;
#X connect 9 0 1 0;
#X connect 10 0 1 0;
#X connect 11 0 1 0;
#X connect 12 0 1 0;
#X connect 13 0 1 0;
#X connect 14 0 1 0;
#X connect 15 0 1 0;
#X connect 17 0 1 0;
#X connect 18 0 1 0;
#X connect 19 0 1 0;
#X connect 20 0 6 0;
#X connect 20 0 21 0;
#X connect 20 1 48 0;
#X connect 20 2 42 0;
#X connect 21 0 34 0;
#X connect 21 1 4 0;
#X connect 21 2 43 0;
#X connect 22 0 23 0;
#X connect 22 1 7 0;
#X connect 22 2 49 0;
#X connect 23 0 24 0;
#X connect 23 1 8 0;
#X connect 23 2 39 0;
#X connect 24 0 25 0;
#X connect 24 1 9 0;
#X connect 24 2 45 0;
#X connect 25 0 26 0;
#X connect 25 1 10 0;
#X connect 25 2 46 0;
#X connect 26 1 11 0;
#X connect 26 2 47 0;
#X connect 27 1 16 0;
#X connect 28 1 15 0;
#X connect 29 0 22 0;
#X connect 29 1 18 0;
#X connect 29 2 35 0;
#X connect 30 0 29 0;
#X connect 30 1 19 0;
#X connect 30 2 40 0;
#X connect 31 0 30 0;
#X connect 31 1 17 0;
#X connect 31 2 44 0;
#X connect 32 0 31 0;
#X connect 32 1 12 0;
#X connect 32 2 36 0;
#X connect 33 0 32 0;
#X connect 33 1 14 0;
#X connect 33 2 38 0;
#X connect 34 0 33 0;
#X connect 34 1 13 0;
#X connect 34 2 37 0;
#X connect 35 0 5 1;
#X connect 36 0 5 1;
#X connect 37 0 5 1;
#X connect 38 0 5 1;
#X connect 39 0 5 1;
#X connect 40 0 5 1;
#X connect 41 0 2 0;
#X connect 42 0 1 1;
#X connect 43 0 5 1;
#X connect 44 0 5 1;
#X connect 45 0 5 1;
#X connect 46 0 5 1;
#X connect 47 0 5 1;
#X connect 48 0 5 1;
#X connect 49 0 5 1;
#X restore 667 59 pd TapisRoulantRoulementActivate;
#N canvas 88 173 850 819 TapisRoulantAssietteDSKActivate 0;
#X obj 234 522 send OSC_MESSAGES;
#X obj 114 449 list prepend;
#X obj 71 43 bng 15 250 50 0 empty empty empty 17 7 0 10 -262144 -1
-1;
#X obj 114 472 l2s /;
#X msg 114 132 File;
#X obj 234 489 list;
#X msg 114 109 Zpos;
#X msg 114 326 RenderOrder;
#X msg 114 369 Yscale;
#X msg 114 389 Xscale;
#X msg 114 409 Ypos;
#X msg 114 429 Xpos;
#X msg 114 225 Blue;
#X msg 114 184 Red;
#X msg 114 205 Green;
#X msg 114 305 modeAlpha;
#X msg 114 348 Shape;
#X msg 114 245 Rotate;
#X msg 114 284 Alpha;
#X msg 114 264 Activate;
#X obj 71 62 t b b b;
#X obj 56 115 t b b b;
#X obj 56 309 t b b b;
#X obj 56 352 t b b b;
#X obj 56 372 t b b b;
#X obj 56 392 t b b b;
#X obj 56 412 t b b b;
#X obj 17 331 t b b b;
#X obj 16 288 t b b b;
#X obj 56 267 t b b b;
#X obj 56 247 t b b b;
#X obj 56 228 t b b b;
#X obj 56 208 t b b b;
#X obj 56 188 t b b b;
#X obj 56 167 t b b b;
#X msg 255 245 0;
#X msg 255 284 1;
#X msg 255 225 1;
#X msg 255 184 1;
#X msg 255 264 1;
#X msg 255 326 -21;
#X msg 255 205 1;
#X msg 255 369 0.15;
#X msg 255 132 /home/woii/2013_Sebkha-ChottGalootFormula_ThingFish/ThingFishVideoDecorum/Prison/data/2013_06_28_Prison2_assiette.png
;
#X msg 255 389 0.5;
#X msg 255 409 -1.68;
#X msg 255 109 -3.01001;
#X msg 183 79 /EvilPrince_BulleContent;
#X msg 255 429 0;
#X obj 71 22 r TapisRoulantAssiettesActivate;
#X connect 1 0 3 0;
#X connect 2 0 20 0;
#X connect 3 0 5 0;
#X connect 4 0 1 0;
#X connect 5 0 0 0;
#X connect 6 0 1 0;
#X connect 7 0 1 0;
#X connect 8 0 1 0;
#X connect 9 0 1 0;
#X connect 10 0 1 0;
#X connect 11 0 1 0;
#X connect 12 0 1 0;
#X connect 13 0 1 0;
#X connect 14 0 1 0;
#X connect 15 0 1 0;
#X connect 17 0 1 0;
#X connect 18 0 1 0;
#X connect 19 0 1 0;
#X connect 20 0 6 0;
#X connect 20 0 21 0;
#X connect 20 1 46 0;
#X connect 20 2 47 0;
#X connect 21 0 34 0;
#X connect 21 1 4 0;
#X connect 21 2 43 0;
#X connect 22 0 23 0;
#X connect 22 1 7 0;
#X connect 22 2 40 0;
#X connect 23 0 24 0;
#X connect 23 1 8 0;
#X connect 23 2 42 0;
#X connect 24 0 25 0;
#X connect 24 1 9 0;
#X connect 24 2 44 0;
#X connect 25 0 26 0;
#X connect 25 1 10 0;
#X connect 25 2 45 0;
#X connect 26 1 11 0;
#X connect 26 2 48 0;
#X connect 27 1 16 0;
#X connect 28 1 15 0;
#X connect 29 0 22 0;
#X connect 29 1 18 0;
#X connect 29 2 36 0;
#X connect 30 0 29 0;
#X connect 30 1 19 0;
#X connect 30 2 39 0;
#X connect 31 0 30 0;
#X connect 31 1 17 0;
#X connect 31 2 35 0;
#X connect 32 0 31 0;
#X connect 32 1 12 0;
#X connect 32 2 37 0;
#X connect 33 0 32 0;
#X connect 33 1 14 0;
#X connect 33 2 41 0;
#X connect 34 0 33 0;
#X connect 34 1 13 0;
#X connect 34 2 38 0;
#X connect 35 0 5 1;
#X connect 36 0 5 1;
#X connect 37 0 5 1;
#X connect 38 0 5 1;
#X connect 39 0 5 1;
#X connect 40 0 5 1;
#X connect 41 0 5 1;
#X connect 42 0 5 1;
#X connect 43 0 5 1;
#X connect 44 0 5 1;
#X connect 45 0 5 1;
#X connect 46 0 5 1;
#X connect 47 0 1 1;
#X connect 48 0 5 1;
#X connect 49 0 2 0;
#X restore 667 89 pd TapisRoulantAssietteDSKActivate;
#N canvas 88 173 850 819 TapisRoulantAssietteLagardeActivate 0;
#X obj 234 522 send OSC_MESSAGES;
#X obj 114 449 list prepend;
#X obj 71 43 bng 15 250 50 0 empty empty empty 17 7 0 10 -262144 -1
-1;
#X obj 114 472 l2s /;
#X msg 114 132 File;
#X obj 234 489 list;
#X msg 114 109 Zpos;
#X msg 114 326 RenderOrder;
#X msg 114 369 Yscale;
#X msg 114 389 Xscale;
#X msg 114 409 Ypos;
#X msg 114 429 Xpos;
#X msg 114 225 Blue;
#X msg 114 184 Red;
#X msg 114 205 Green;
#X msg 114 305 modeAlpha;
#X msg 114 348 Shape;
#X msg 114 245 Rotate;
#X msg 114 284 Alpha;
#X msg 114 264 Activate;
#X obj 71 62 t b b b;
#X obj 56 115 t b b b;
#X obj 56 309 t b b b;
#X obj 56 352 t b b b;
#X obj 56 372 t b b b;
#X obj 56 392 t b b b;
#X obj 56 412 t b b b;
#X obj 17 331 t b b b;
#X obj 16 288 t b b b;
#X obj 56 267 t b b b;
#X obj 56 247 t b b b;
#X obj 56 228 t b b b;
#X obj 56 208 t b b b;
#X obj 56 188 t b b b;
#X obj 56 167 t b b b;
#X msg 255 245 0;
#X msg 255 284 1;
#X msg 255 225 1;
#X msg 255 184 1;
#X msg 255 264 1;
#X msg 255 326 -21;
#X msg 255 205 1;
#X msg 255 369 0.15;
#X msg 255 389 0.5;
#X msg 255 409 -1.68;
#X msg 255 109 -3.01001;
#X msg 183 79 /EvilPrince_BullePotium;
#X msg 255 132 /home/woii/2013_Sebkha-ChottGalootFormula_ThingFish/ThingFishVideoDecorum/Prison/data/2013_06_28_Prison2_assiette.png
;
#X msg 255 429 1.31003;
#X obj 71 22 r TapisRoulantAssiettesActivate;
#X connect 1 0 3 0;
#X connect 2 0 20 0;
#X connect 3 0 5 0;
#X connect 4 0 1 0;
#X connect 5 0 0 0;
#X connect 6 0 1 0;
#X connect 7 0 1 0;
#X connect 8 0 1 0;
#X connect 9 0 1 0;
#X connect 10 0 1 0;
#X connect 11 0 1 0;
#X connect 12 0 1 0;
#X connect 13 0 1 0;
#X connect 14 0 1 0;
#X connect 15 0 1 0;
#X connect 17 0 1 0;
#X connect 18 0 1 0;
#X connect 19 0 1 0;
#X connect 20 0 6 0;
#X connect 20 0 21 0;
#X connect 20 1 45 0;
#X connect 20 2 46 0;
#X connect 21 0 34 0;
#X connect 21 1 4 0;
#X connect 21 2 47 0;
#X connect 22 0 23 0;
#X connect 22 1 7 0;
#X connect 22 2 40 0;
#X connect 23 0 24 0;
#X connect 23 1 8 0;
#X connect 23 2 42 0;
#X connect 24 0 25 0;
#X connect 24 1 9 0;
#X connect 24 2 43 0;
#X connect 25 0 26 0;
#X connect 25 1 10 0;
#X connect 25 2 44 0;
#X connect 26 1 11 0;
#X connect 26 2 48 0;
#X connect 27 1 16 0;
#X connect 28 1 15 0;
#X connect 29 0 22 0;
#X connect 29 1 18 0;
#X connect 29 2 36 0;
#X connect 30 0 29 0;
#X connect 30 1 19 0;
#X connect 30 2 39 0;
#X connect 31 0 30 0;
#X connect 31 1 17 0;
#X connect 31 2 35 0;
#X connect 32 0 31 0;
#X connect 32 1 12 0;
#X connect 32 2 37 0;
#X connect 33 0 32 0;
#X connect 33 1 14 0;
#X connect 33 2 41 0;
#X connect 34 0 33 0;
#X connect 34 1 13 0;
#X connect 34 2 38 0;
#X connect 35 0 5 1;
#X connect 36 0 5 1;
#X connect 37 0 5 1;
#X connect 38 0 5 1;
#X connect 39 0 5 1;
#X connect 40 0 5 1;
#X connect 41 0 5 1;
#X connect 42 0 5 1;
#X connect 43 0 5 1;
#X connect 44 0 5 1;
#X connect 45 0 5 1;
#X connect 46 0 1 1;
#X connect 47 0 5 1;
#X connect 48 0 5 1;
#X connect 49 0 2 0;
#X restore 667 109 pd TapisRoulantAssietteLagardeActivate;
#N canvas 88 173 850 819 TapisRoulantAssietteLagardeActivate 0;
#X obj 234 522 send OSC_MESSAGES;
#X obj 114 449 list prepend;
#X obj 71 43 bng 15 250 50 0 empty empty empty 17 7 0 10 -262144 -1
-1;
#X obj 114 472 l2s /;
#X msg 114 132 File;
#X obj 234 489 list;
#X msg 114 109 Zpos;
#X msg 114 326 RenderOrder;
#X msg 114 369 Yscale;
#X msg 114 389 Xscale;
#X msg 114 409 Ypos;
#X msg 114 429 Xpos;
#X msg 114 225 Blue;
#X msg 114 184 Red;
#X msg 114 205 Green;
#X msg 114 305 modeAlpha;
#X msg 114 348 Shape;
#X msg 114 245 Rotate;
#X msg 114 284 Alpha;
#X msg 114 264 Activate;
#X obj 71 62 t b b b;
#X obj 56 115 t b b b;
#X obj 56 309 t b b b;
#X obj 56 352 t b b b;
#X obj 56 372 t b b b;
#X obj 56 392 t b b b;
#X obj 56 412 t b b b;
#X obj 17 331 t b b b;
#X obj 16 288 t b b b;
#X obj 56 267 t b b b;
#X obj 56 247 t b b b;
#X obj 56 228 t b b b;
#X obj 56 208 t b b b;
#X obj 56 188 t b b b;
#X obj 56 167 t b b b;
#X msg 255 245 0;
#X msg 255 284 1;
#X msg 255 225 1;
#X msg 255 184 1;
#X msg 255 264 1;
#X msg 255 326 -21;
#X msg 255 205 1;
#X msg 255 369 0.15;
#X msg 255 389 0.5;
#X msg 255 409 -1.68;
#X msg 255 109 -3.01001;
#X msg 255 132 /home/woii/2013_Sebkha-ChottGalootFormula_ThingFish/ThingFishVideoDecorum/Prison/data/2013_06_28_Prison2_assiette.png
;
#X obj 71 22 r TapisRoulantAssiettesActivate;
#X msg 183 79 /Assiette_Gail;
#X msg 255 429 4.42953;
#X connect 1 0 3 0;
#X connect 2 0 20 0;
#X connect 3 0 5 0;
#X connect 4 0 1 0;
#X connect 5 0 0 0;
#X connect 6 0 1 0;
#X connect 7 0 1 0;
#X connect 8 0 1 0;
#X connect 9 0 1 0;
#X connect 10 0 1 0;
#X connect 11 0 1 0;
#X connect 12 0 1 0;
#X connect 13 0 1 0;
#X connect 14 0 1 0;
#X connect 15 0 1 0;
#X connect 17 0 1 0;
#X connect 18 0 1 0;
#X connect 19 0 1 0;
#X connect 20 0 6 0;
#X connect 20 0 21 0;
#X connect 20 1 45 0;
#X connect 20 2 48 0;
#X connect 21 0 34 0;
#X connect 21 1 4 0;
#X connect 21 2 46 0;
#X connect 22 0 23 0;
#X connect 22 1 7 0;
#X connect 22 2 40 0;
#X connect 23 0 24 0;
#X connect 23 1 8 0;
#X connect 23 2 42 0;
#X connect 24 0 25 0;
#X connect 24 1 9 0;
#X connect 24 2 43 0;
#X connect 25 0 26 0;
#X connect 25 1 10 0;
#X connect 25 2 44 0;
#X connect 26 1 11 0;
#X connect 26 2 49 0;
#X connect 27 1 16 0;
#X connect 28 1 15 0;
#X connect 29 0 22 0;
#X connect 29 1 18 0;
#X connect 29 2 36 0;
#X connect 30 0 29 0;
#X connect 30 1 19 0;
#X connect 30 2 39 0;
#X connect 31 0 30 0;
#X connect 31 1 17 0;
#X connect 31 2 35 0;
#X connect 32 0 31 0;
#X connect 32 1 12 0;
#X connect 32 2 37 0;
#X connect 33 0 32 0;
#X connect 33 1 14 0;
#X connect 33 2 41 0;
#X connect 34 0 33 0;
#X connect 34 1 13 0;
#X connect 34 2 38 0;
#X connect 35 0 5 1;
#X connect 36 0 5 1;
#X connect 37 0 5 1;
#X connect 38 0 5 1;
#X connect 39 0 5 1;
#X connect 40 0 5 1;
#X connect 41 0 5 1;
#X connect 42 0 5 1;
#X connect 43 0 5 1;
#X connect 44 0 5 1;
#X connect 45 0 5 1;
#X connect 46 0 5 1;
#X connect 47 0 2 0;
#X connect 48 0 1 1;
#X connect 49 0 5 1;
#X restore 667 149 pd TapisRoulantAssietteLagardeActivate;
#N canvas 88 172 850 819 TapisRoulantAssietteBushActivate 0;
#X obj 234 522 send OSC_MESSAGES;
#X obj 114 449 list prepend;
#X obj 71 43 bng 15 250 50 0 empty empty empty 17 7 0 10 -262144 -1
-1;
#X obj 114 472 l2s /;
#X msg 114 132 File;
#X obj 234 489 list;
#X msg 114 109 Zpos;
#X msg 114 326 RenderOrder;
#X msg 114 369 Yscale;
#X msg 114 389 Xscale;
#X msg 114 409 Ypos;
#X msg 114 429 Xpos;
#X msg 114 225 Blue;
#X msg 114 184 Red;
#X msg 114 205 Green;
#X msg 114 305 modeAlpha;
#X msg 114 348 Shape;
#X msg 114 245 Rotate;
#X msg 114 284 Alpha;
#X msg 114 264 Activate;
#X obj 71 62 t b b b;
#X obj 56 115 t b b b;
#X obj 56 309 t b b b;
#X obj 56 352 t b b b;
#X obj 56 372 t b b b;
#X obj 56 392 t b b b;
#X obj 56 412 t b b b;
#X obj 17 331 t b b b;
#X obj 16 288 t b b b;
#X obj 56 267 t b b b;
#X obj 56 247 t b b b;
#X obj 56 228 t b b b;
#X obj 56 208 t b b b;
#X obj 56 188 t b b b;
#X obj 56 167 t b b b;
#X msg 255 245 0;
#X msg 255 284 1;
#X msg 255 225 1;
#X msg 255 184 1;
#X msg 255 264 1;
#X msg 255 326 -21;
#X msg 255 205 1;
#X msg 255 369 0.15;
#X msg 255 132 /home/woii/2013_Sebkha-ChottGalootFormula_ThingFish/ThingFishVideoDecorum/Prison/data/2013_06_28_Prison2_assiette.png
;
#X msg 255 389 0.5;
#X msg 255 409 -1.68;
#X msg 255 109 -3.01001;
#X obj 71 22 r TapisRoulantAssiettesActivate;
#X msg 183 79 /Assiette_Bush;
#X msg 255 429 2.84295;
#X connect 1 0 3 0;
#X connect 2 0 20 0;
#X connect 3 0 5 0;
#X connect 4 0 1 0;
#X connect 5 0 0 0;
#X connect 6 0 1 0;
#X connect 7 0 1 0;
#X connect 8 0 1 0;
#X connect 9 0 1 0;
#X connect 10 0 1 0;
#X connect 11 0 1 0;
#X connect 12 0 1 0;
#X connect 13 0 1 0;
#X connect 14 0 1 0;
#X connect 15 0 1 0;
#X connect 17 0 1 0;
#X connect 18 0 1 0;
#X connect 19 0 1 0;
#X connect 20 0 6 0;
#X connect 20 0 21 0;
#X connect 20 1 46 0;
#X connect 20 2 48 0;
#X connect 21 0 34 0;
#X connect 21 1 4 0;
#X connect 21 2 43 0;
#X connect 22 0 23 0;
#X connect 22 1 7 0;
#X connect 22 2 40 0;
#X connect 23 0 24 0;
#X connect 23 1 8 0;
#X connect 23 2 42 0;
#X connect 24 0 25 0;
#X connect 24 1 9 0;
#X connect 24 2 44 0;
#X connect 25 0 26 0;
#X connect 25 1 10 0;
#X connect 25 2 45 0;
#X connect 26 1 11 0;
#X connect 26 2 49 0;
#X connect 27 1 16 0;
#X connect 28 1 15 0;
#X connect 29 0 22 0;
#X connect 29 1 18 0;
#X connect 29 2 36 0;
#X connect 30 0 29 0;
#X connect 30 1 19 0;
#X connect 30 2 39 0;
#X connect 31 0 30 0;
#X connect 31 1 17 0;
#X connect 31 2 35 0;
#X connect 32 0 31 0;
#X connect 32 1 12 0;
#X connect 32 2 37 0;
#X connect 33 0 32 0;
#X connect 33 1 14 0;
#X connect 33 2 41 0;
#X connect 34 0 33 0;
#X connect 34 1 13 0;
#X connect 34 2 38 0;
#X connect 35 0 5 1;
#X connect 36 0 5 1;
#X connect 37 0 5 1;
#X connect 38 0 5 1;
#X connect 39 0 5 1;
#X connect 40 0 5 1;
#X connect 41 0 5 1;
#X connect 42 0 5 1;
#X connect 43 0 5 1;
#X connect 44 0 5 1;
#X connect 45 0 5 1;
#X connect 46 0 5 1;
#X connect 47 0 2 0;
#X connect 48 0 1 1;
#X connect 49 0 5 1;
#X restore 667 129 pd TapisRoulantAssietteBushActivate;
#X connect 8 0 7 0;
#X connect 15 0 17 0;
#X connect 16 0 17 0;
#X connect 17 0 18 0;
#X connect 19 0 22 0;
#X connect 20 0 22 0;
#X connect 22 0 21 0;
#X connect 23 0 19 0;
#X connect 24 0 20 0;
#X connect 25 0 16 0;
#X connect 26 0 15 0;
