#N canvas 493 371 525 370 10;
#N canvas 521 100 850 796 MorphoStade1Init 0;
#X obj 234 572 send OSC_MESSAGES;
#X obj 114 499 list prepend;
#X obj 71 43 bng 15 250 50 0 empty empty empty 17 7 0 10 -262144 -1
-1;
#X obj 114 522 l2s /;
#X msg 114 132 File;
#X obj 234 539 list;
#X msg 114 109 Zpos;
#X msg 114 326 RenderOrder;
#X msg 114 369 Yscale;
#X msg 114 389 Xscale;
#X msg 114 409 Ypos;
#X msg 114 429 Xpos;
#X msg 114 225 Blue;
#X msg 114 184 Red;
#X msg 114 205 Green;
#X msg 114 305 modeAlpha;
#X msg 114 348 Shape;
#X msg 114 245 Rotate;
#X msg 114 284 Alpha;
#X msg 114 264 Activate;
#X obj 71 62 t b b b;
#X obj 56 115 t b b b;
#X obj 56 309 t b b b;
#X obj 56 352 t b b b;
#X obj 56 372 t b b b;
#X obj 56 392 t b b b;
#X obj 56 412 t b b b;
#X obj 17 331 t b b b;
#X obj 16 288 t b b b;
#X obj 56 267 t b b b;
#X obj 56 247 t b b b;
#X obj 56 228 t b b b;
#X obj 56 208 t b b b;
#X obj 56 188 t b b b;
#X obj 56 167 t b b b;
#X msg 255 245 0;
#X msg 255 284 1;
#X msg 255 225 1;
#X msg 255 184 1;
#X msg 255 205 1;
#X msg 114 449 ParentName;
#X msg 255 449 /Dummy;
#X msg 114 469 g*pos;
#X msg 255 469 0;
#X obj 56 432 t b b b;
#X obj 56 452 t b b b;
#X msg 255 264 1;
#X msg 255 109 -3.036;
#X msg 255 326 -21;
#X obj 71 22 r MorphoInit;
#X msg 183 79 /DunjonDoor1;
#X msg 255 132 /home/woii/2013_Sebkha-ChottGalootFormula_ThingFish/ThingFishVideoDecorum/Morpho/data/morpho_stade1.png
;
#X msg 255 389 6;
#X msg 255 369 2.97;
#X msg 255 409 -0.5;
#X msg 255 429 -18;
#X connect 1 0 3 0;
#X connect 2 0 20 0;
#X connect 3 0 5 0;
#X connect 4 0 1 0;
#X connect 5 0 0 0;
#X connect 6 0 1 0;
#X connect 7 0 1 0;
#X connect 8 0 1 0;
#X connect 9 0 1 0;
#X connect 10 0 1 0;
#X connect 11 0 1 0;
#X connect 12 0 1 0;
#X connect 13 0 1 0;
#X connect 14 0 1 0;
#X connect 15 0 1 0;
#X connect 17 0 1 0;
#X connect 18 0 1 0;
#X connect 19 0 1 0;
#X connect 20 0 6 0;
#X connect 20 0 21 0;
#X connect 20 1 47 0;
#X connect 20 2 50 0;
#X connect 21 0 34 0;
#X connect 21 1 4 0;
#X connect 21 2 51 0;
#X connect 22 0 23 0;
#X connect 22 1 7 0;
#X connect 22 2 48 0;
#X connect 23 0 24 0;
#X connect 23 1 8 0;
#X connect 23 2 53 0;
#X connect 24 0 25 0;
#X connect 24 1 9 0;
#X connect 24 2 52 0;
#X connect 25 0 26 0;
#X connect 25 1 10 0;
#X connect 25 2 54 0;
#X connect 26 0 44 0;
#X connect 26 1 11 0;
#X connect 26 2 55 0;
#X connect 27 1 16 0;
#X connect 28 1 15 0;
#X connect 29 0 22 0;
#X connect 29 1 18 0;
#X connect 29 2 36 0;
#X connect 30 0 29 0;
#X connect 30 1 19 0;
#X connect 30 2 46 0;
#X connect 31 0 30 0;
#X connect 31 1 17 0;
#X connect 31 2 35 0;
#X connect 32 0 31 0;
#X connect 32 1 12 0;
#X connect 32 2 37 0;
#X connect 33 0 32 0;
#X connect 33 1 14 0;
#X connect 33 2 39 0;
#X connect 34 0 33 0;
#X connect 34 1 13 0;
#X connect 34 2 38 0;
#X connect 35 0 5 1;
#X connect 36 0 5 1;
#X connect 37 0 5 1;
#X connect 38 0 5 1;
#X connect 39 0 5 1;
#X connect 40 0 1 0;
#X connect 41 0 5 1;
#X connect 42 0 1 0;
#X connect 43 0 5 1;
#X connect 44 0 45 0;
#X connect 44 1 40 0;
#X connect 44 2 41 0;
#X connect 45 1 42 0;
#X connect 45 2 43 0;
#X connect 46 0 5 1;
#X connect 47 0 5 1;
#X connect 48 0 5 1;
#X connect 49 0 2 0;
#X connect 50 0 1 1;
#X connect 51 0 5 1;
#X connect 52 0 5 1;
#X connect 53 0 5 1;
#X connect 54 0 5 1;
#X connect 55 0 5 1;
#X restore 385 14 pd MorphoStade1Init;
#X obj 62 57 bng 15 250 50 0 empty empty empty 17 7 0 10 -262144 -1
-1;
#X obj 62 88 s MorphoInit;
#N canvas 517 100 850 796 MorphoStade2Init 0;
#X obj 234 572 send OSC_MESSAGES;
#X obj 114 499 list prepend;
#X obj 71 43 bng 15 250 50 0 empty empty empty 17 7 0 10 -262144 -1
-1;
#X obj 114 522 l2s /;
#X msg 114 132 File;
#X obj 234 539 list;
#X msg 114 109 Zpos;
#X msg 114 326 RenderOrder;
#X msg 114 369 Yscale;
#X msg 114 389 Xscale;
#X msg 114 409 Ypos;
#X msg 114 429 Xpos;
#X msg 114 225 Blue;
#X msg 114 184 Red;
#X msg 114 205 Green;
#X msg 114 305 modeAlpha;
#X msg 114 348 Shape;
#X msg 114 245 Rotate;
#X msg 114 284 Alpha;
#X msg 114 264 Activate;
#X obj 71 62 t b b b;
#X obj 56 115 t b b b;
#X obj 56 309 t b b b;
#X obj 56 352 t b b b;
#X obj 56 372 t b b b;
#X obj 56 392 t b b b;
#X obj 56 412 t b b b;
#X obj 17 331 t b b b;
#X obj 16 288 t b b b;
#X obj 56 267 t b b b;
#X obj 56 247 t b b b;
#X obj 56 228 t b b b;
#X obj 56 208 t b b b;
#X obj 56 188 t b b b;
#X obj 56 167 t b b b;
#X msg 255 245 0;
#X msg 255 225 1;
#X msg 255 184 1;
#X msg 255 205 1;
#X msg 114 449 ParentName;
#X msg 255 449 /Dummy;
#X msg 114 469 g*pos;
#X msg 255 469 0;
#X obj 56 432 t b b b;
#X obj 56 452 t b b b;
#X obj 71 22 r MorphoInit;
#X msg 255 389 6;
#X msg 255 369 2.97;
#X msg 255 409 -0.5;
#X msg 255 132 /home/woii/2013_Sebkha-ChottGalootFormula_ThingFish/ThingFishVideoDecorum/Morpho/data/morpho_stade2.png
;
#X msg 255 326 -20;
#X msg 255 109 -3.035;
#X msg 255 264 1;
#X msg 255 284 0;
#X msg 183 79 /DunjonDoor1Cadre;
#X msg 255 429 -18;
#X connect 1 0 3 0;
#X connect 2 0 20 0;
#X connect 3 0 5 0;
#X connect 4 0 1 0;
#X connect 5 0 0 0;
#X connect 6 0 1 0;
#X connect 7 0 1 0;
#X connect 8 0 1 0;
#X connect 9 0 1 0;
#X connect 10 0 1 0;
#X connect 11 0 1 0;
#X connect 12 0 1 0;
#X connect 13 0 1 0;
#X connect 14 0 1 0;
#X connect 15 0 1 0;
#X connect 17 0 1 0;
#X connect 18 0 1 0;
#X connect 19 0 1 0;
#X connect 20 0 6 0;
#X connect 20 0 21 0;
#X connect 20 1 51 0;
#X connect 20 2 54 0;
#X connect 21 0 34 0;
#X connect 21 1 4 0;
#X connect 21 2 49 0;
#X connect 22 0 23 0;
#X connect 22 1 7 0;
#X connect 22 2 50 0;
#X connect 23 0 24 0;
#X connect 23 1 8 0;
#X connect 23 2 47 0;
#X connect 24 0 25 0;
#X connect 24 1 9 0;
#X connect 24 2 46 0;
#X connect 25 0 26 0;
#X connect 25 1 10 0;
#X connect 25 2 48 0;
#X connect 26 0 43 0;
#X connect 26 1 11 0;
#X connect 26 2 55 0;
#X connect 27 1 16 0;
#X connect 28 1 15 0;
#X connect 29 0 22 0;
#X connect 29 1 18 0;
#X connect 29 2 53 0;
#X connect 30 0 29 0;
#X connect 30 1 19 0;
#X connect 30 2 52 0;
#X connect 31 0 30 0;
#X connect 31 1 17 0;
#X connect 31 2 35 0;
#X connect 32 0 31 0;
#X connect 32 1 12 0;
#X connect 32 2 36 0;
#X connect 33 0 32 0;
#X connect 33 1 14 0;
#X connect 33 2 38 0;
#X connect 34 0 33 0;
#X connect 34 1 13 0;
#X connect 34 2 37 0;
#X connect 35 0 5 1;
#X connect 36 0 5 1;
#X connect 37 0 5 1;
#X connect 38 0 5 1;
#X connect 39 0 1 0;
#X connect 40 0 5 1;
#X connect 41 0 1 0;
#X connect 42 0 5 1;
#X connect 43 0 44 0;
#X connect 43 1 39 0;
#X connect 43 2 40 0;
#X connect 44 1 41 0;
#X connect 44 2 42 0;
#X connect 45 0 2 0;
#X connect 46 0 5 1;
#X connect 47 0 5 1;
#X connect 48 0 5 1;
#X connect 49 0 5 1;
#X connect 50 0 5 1;
#X connect 51 0 5 1;
#X connect 52 0 5 1;
#X connect 53 0 5 1;
#X connect 54 0 1 1;
#X connect 55 0 5 1;
#X restore 385 34 pd MorphoStade2Init;
#N canvas 515 100 850 796 MorphoStade3Init 0;
#X obj 234 572 send OSC_MESSAGES;
#X obj 114 499 list prepend;
#X obj 71 43 bng 15 250 50 0 empty empty empty 17 7 0 10 -262144 -1
-1;
#X obj 114 522 l2s /;
#X msg 114 132 File;
#X obj 234 539 list;
#X msg 114 109 Zpos;
#X msg 114 326 RenderOrder;
#X msg 114 369 Yscale;
#X msg 114 389 Xscale;
#X msg 114 409 Ypos;
#X msg 114 429 Xpos;
#X msg 114 225 Blue;
#X msg 114 184 Red;
#X msg 114 205 Green;
#X msg 114 305 modeAlpha;
#X msg 114 348 Shape;
#X msg 114 245 Rotate;
#X msg 114 284 Alpha;
#X msg 114 264 Activate;
#X obj 71 62 t b b b;
#X obj 56 115 t b b b;
#X obj 56 309 t b b b;
#X obj 56 352 t b b b;
#X obj 56 372 t b b b;
#X obj 56 392 t b b b;
#X obj 56 412 t b b b;
#X obj 17 331 t b b b;
#X obj 16 288 t b b b;
#X obj 56 267 t b b b;
#X obj 56 247 t b b b;
#X obj 56 228 t b b b;
#X obj 56 208 t b b b;
#X obj 56 188 t b b b;
#X obj 56 167 t b b b;
#X msg 255 245 0;
#X msg 255 225 1;
#X msg 255 184 1;
#X msg 255 205 1;
#X msg 114 449 ParentName;
#X msg 255 449 /Dummy;
#X msg 114 469 g*pos;
#X msg 255 469 0;
#X obj 56 432 t b b b;
#X obj 56 452 t b b b;
#X obj 71 22 r MorphoInit;
#X msg 255 389 6;
#X msg 255 369 2.97;
#X msg 255 409 -0.5;
#X msg 255 264 1;
#X msg 183 79 /DunjonDoor2;
#X msg 255 132 /home/woii/2013_Sebkha-ChottGalootFormula_ThingFish/ThingFishVideoDecorum/Morpho/data/morpho_stade3.png
;
#X msg 255 109 -3.034;
#X msg 255 326 -19;
#X msg 255 284 0;
#X msg 255 429 -18;
#X connect 1 0 3 0;
#X connect 2 0 20 0;
#X connect 3 0 5 0;
#X connect 4 0 1 0;
#X connect 5 0 0 0;
#X connect 6 0 1 0;
#X connect 7 0 1 0;
#X connect 8 0 1 0;
#X connect 9 0 1 0;
#X connect 10 0 1 0;
#X connect 11 0 1 0;
#X connect 12 0 1 0;
#X connect 13 0 1 0;
#X connect 14 0 1 0;
#X connect 15 0 1 0;
#X connect 17 0 1 0;
#X connect 18 0 1 0;
#X connect 19 0 1 0;
#X connect 20 0 6 0;
#X connect 20 0 21 0;
#X connect 20 1 52 0;
#X connect 20 2 50 0;
#X connect 21 0 34 0;
#X connect 21 1 4 0;
#X connect 21 2 51 0;
#X connect 22 0 23 0;
#X connect 22 1 7 0;
#X connect 22 2 53 0;
#X connect 23 0 24 0;
#X connect 23 1 8 0;
#X connect 23 2 47 0;
#X connect 24 0 25 0;
#X connect 24 1 9 0;
#X connect 24 2 46 0;
#X connect 25 0 26 0;
#X connect 25 1 10 0;
#X connect 25 2 48 0;
#X connect 26 0 43 0;
#X connect 26 1 11 0;
#X connect 26 2 55 0;
#X connect 27 1 16 0;
#X connect 28 1 15 0;
#X connect 29 0 22 0;
#X connect 29 1 18 0;
#X connect 29 2 54 0;
#X connect 30 0 29 0;
#X connect 30 1 19 0;
#X connect 30 2 49 0;
#X connect 31 0 30 0;
#X connect 31 1 17 0;
#X connect 31 2 35 0;
#X connect 32 0 31 0;
#X connect 32 1 12 0;
#X connect 32 2 36 0;
#X connect 33 0 32 0;
#X connect 33 1 14 0;
#X connect 33 2 38 0;
#X connect 34 0 33 0;
#X connect 34 1 13 0;
#X connect 34 2 37 0;
#X connect 35 0 5 1;
#X connect 36 0 5 1;
#X connect 37 0 5 1;
#X connect 38 0 5 1;
#X connect 39 0 1 0;
#X connect 40 0 5 1;
#X connect 41 0 1 0;
#X connect 42 0 5 1;
#X connect 43 0 44 0;
#X connect 43 1 39 0;
#X connect 43 2 40 0;
#X connect 44 1 41 0;
#X connect 44 2 42 0;
#X connect 45 0 2 0;
#X connect 46 0 5 1;
#X connect 47 0 5 1;
#X connect 48 0 5 1;
#X connect 49 0 5 1;
#X connect 50 0 1 1;
#X connect 51 0 5 1;
#X connect 52 0 5 1;
#X connect 53 0 5 1;
#X connect 54 0 5 1;
#X connect 55 0 5 1;
#X restore 385 54 pd MorphoStade3Init;
#N canvas 513 100 850 796 MorphoStade4Init 0;
#X obj 234 572 send OSC_MESSAGES;
#X obj 114 499 list prepend;
#X obj 71 43 bng 15 250 50 0 empty empty empty 17 7 0 10 -262144 -1
-1;
#X obj 114 522 l2s /;
#X msg 114 132 File;
#X obj 234 539 list;
#X msg 114 109 Zpos;
#X msg 114 326 RenderOrder;
#X msg 114 369 Yscale;
#X msg 114 389 Xscale;
#X msg 114 409 Ypos;
#X msg 114 429 Xpos;
#X msg 114 225 Blue;
#X msg 114 184 Red;
#X msg 114 205 Green;
#X msg 114 305 modeAlpha;
#X msg 114 348 Shape;
#X msg 114 245 Rotate;
#X msg 114 284 Alpha;
#X msg 114 264 Activate;
#X obj 71 62 t b b b;
#X obj 56 115 t b b b;
#X obj 56 309 t b b b;
#X obj 56 352 t b b b;
#X obj 56 372 t b b b;
#X obj 56 392 t b b b;
#X obj 56 412 t b b b;
#X obj 17 331 t b b b;
#X obj 16 288 t b b b;
#X obj 56 267 t b b b;
#X obj 56 247 t b b b;
#X obj 56 228 t b b b;
#X obj 56 208 t b b b;
#X obj 56 188 t b b b;
#X obj 56 167 t b b b;
#X msg 255 245 0;
#X msg 255 225 1;
#X msg 255 184 1;
#X msg 255 205 1;
#X msg 114 449 ParentName;
#X msg 255 449 /Dummy;
#X msg 114 469 g*pos;
#X msg 255 469 0;
#X obj 56 432 t b b b;
#X obj 56 452 t b b b;
#X obj 71 22 r MorphoInit;
#X msg 255 389 6;
#X msg 255 369 2.97;
#X msg 255 409 -0.5;
#X msg 255 264 1;
#X msg 183 79 /DunjonDoor2Cadre;
#X msg 255 109 -3.033;
#X msg 255 132 /home/woii/2013_Sebkha-ChottGalootFormula_ThingFish/ThingFishVideoDecorum/Morpho/data/morpho_stade4.png
;
#X msg 255 326 -18;
#X msg 255 284 0;
#X msg 255 429 -18;
#X connect 1 0 3 0;
#X connect 2 0 20 0;
#X connect 3 0 5 0;
#X connect 4 0 1 0;
#X connect 5 0 0 0;
#X connect 6 0 1 0;
#X connect 7 0 1 0;
#X connect 8 0 1 0;
#X connect 9 0 1 0;
#X connect 10 0 1 0;
#X connect 11 0 1 0;
#X connect 12 0 1 0;
#X connect 13 0 1 0;
#X connect 14 0 1 0;
#X connect 15 0 1 0;
#X connect 17 0 1 0;
#X connect 18 0 1 0;
#X connect 19 0 1 0;
#X connect 20 0 6 0;
#X connect 20 0 21 0;
#X connect 20 1 51 0;
#X connect 20 2 50 0;
#X connect 21 0 34 0;
#X connect 21 1 4 0;
#X connect 21 2 52 0;
#X connect 22 0 23 0;
#X connect 22 1 7 0;
#X connect 22 2 53 0;
#X connect 23 0 24 0;
#X connect 23 1 8 0;
#X connect 23 2 47 0;
#X connect 24 0 25 0;
#X connect 24 1 9 0;
#X connect 24 2 46 0;
#X connect 25 0 26 0;
#X connect 25 1 10 0;
#X connect 25 2 48 0;
#X connect 26 0 43 0;
#X connect 26 1 11 0;
#X connect 26 2 55 0;
#X connect 27 1 16 0;
#X connect 28 1 15 0;
#X connect 29 0 22 0;
#X connect 29 1 18 0;
#X connect 29 2 54 0;
#X connect 30 0 29 0;
#X connect 30 1 19 0;
#X connect 30 2 49 0;
#X connect 31 0 30 0;
#X connect 31 1 17 0;
#X connect 31 2 35 0;
#X connect 32 0 31 0;
#X connect 32 1 12 0;
#X connect 32 2 36 0;
#X connect 33 0 32 0;
#X connect 33 1 14 0;
#X connect 33 2 38 0;
#X connect 34 0 33 0;
#X connect 34 1 13 0;
#X connect 34 2 37 0;
#X connect 35 0 5 1;
#X connect 36 0 5 1;
#X connect 37 0 5 1;
#X connect 38 0 5 1;
#X connect 39 0 1 0;
#X connect 40 0 5 1;
#X connect 41 0 1 0;
#X connect 42 0 5 1;
#X connect 43 0 44 0;
#X connect 43 1 39 0;
#X connect 43 2 40 0;
#X connect 44 1 41 0;
#X connect 44 2 42 0;
#X connect 45 0 2 0;
#X connect 46 0 5 1;
#X connect 47 0 5 1;
#X connect 48 0 5 1;
#X connect 49 0 5 1;
#X connect 50 0 1 1;
#X connect 51 0 5 1;
#X connect 52 0 5 1;
#X connect 53 0 5 1;
#X connect 54 0 5 1;
#X connect 55 0 5 1;
#X restore 385 74 pd MorphoStade4Init;
#N canvas 0 100 1440 800 Morphings 1;
#X obj 28 282 s OSC_MESSAGES;
#X obj 28 165 line;
#X obj 74 165 line;
#X obj 28 55 t b b;
#X obj 324 218 line;
#X obj 278 55 t b b;
#X obj 28 37 bng 15 250 50 0 empty empty empty 17 7 0 10 -262144 -1
-1;
#X obj 534 218 line;
#X obj 488 55 t b b;
#X obj 277 38 bng 15 250 50 0 empty empty empty 17 7 0 10 -262144 -1
-1;
#X obj 488 37 bng 15 250 50 0 empty empty empty 17 7 0 10 -262144 -1
-1;
#X msg 28 201 /DunjonDoor1/Alpha \$1;
#X msg 74 225 /DunjonDoor1Cadre/Alpha \$1;
#X msg 324 265 /DunjonDoor2/Alpha \$1;
#X msg 534 265 /DunjonDoor2Cadre/Alpha \$1;
#X msg 74 95 1 500;
#X msg 324 150 1 500;
#X msg 534 150 1 500;
#X msg 28 95 0 1000;
#X msg 278 148 0 1000;
#X msg 488 201 0 1000;
#X msg 28 72 1;
#X msg 74 72 0;
#X msg 324 72 0;
#X msg 534 72 0;
#X obj 488 17 r MorphoMammyNun;
#X obj 278 19 r MorphoMeanAndUgly;
#X obj 28 18 r MorphoUgly;
#X connect 1 0 11 0;
#X connect 2 0 12 0;
#X connect 3 0 18 0;
#X connect 3 0 15 0;
#X connect 3 1 21 0;
#X connect 3 1 22 0;
#X connect 4 0 13 0;
#X connect 5 0 19 0;
#X connect 5 0 16 0;
#X connect 5 1 23 0;
#X connect 6 0 3 0;
#X connect 7 0 14 0;
#X connect 8 0 20 0;
#X connect 8 0 17 0;
#X connect 8 1 24 0;
#X connect 9 0 5 0;
#X connect 10 0 8 0;
#X connect 11 0 0 0;
#X connect 12 0 0 0;
#X connect 13 0 0 0;
#X connect 14 0 0 0;
#X connect 15 0 2 0;
#X connect 16 0 4 0;
#X connect 17 0 7 0;
#X connect 18 0 1 0;
#X connect 19 0 2 0;
#X connect 20 0 4 0;
#X connect 21 0 1 0;
#X connect 22 0 2 0;
#X connect 23 0 4 0;
#X connect 24 0 7 0;
#X connect 25 0 10 0;
#X connect 26 0 9 0;
#X connect 27 0 6 0;
#X restore 71 161 pd Morphings;
#X obj 267 143 r MorphoComesInFromJardin;
#X obj 267 364 s OSC_MESSAGES;
#X obj 267 217 t b b;
#X obj 373 234 s MorphoInit;
#X msg 267 342 /DunjonDoor[1-2]*/Xpos \$1;
#X obj 267 316 line;
#X msg 267 263 0 400;
#X obj 267 180 bng 15 250 50 0 empty empty empty 17 7 0 10 -262144
-1 -1;
#X msg 294 299 -18;
#X connect 1 0 2 0;
#X connect 7 0 14 0;
#X connect 9 0 13 0;
#X connect 9 1 10 0;
#X connect 9 1 15 0;
#X connect 11 0 8 0;
#X connect 12 0 11 0;
#X connect 13 0 12 0;
#X connect 14 0 9 0;
#X connect 15 0 12 0;
