#N canvas 406 100 670 555 10;
#N canvas 0 100 1440 800 MonteePremieresBullesVides 0;
#X obj 48 81 bng 15 250 50 0 empty empty empty 17 7 0 10 -262144 -1
-1;
#X obj 93 305 line;
#X obj 93 372 s OSC_MESSAGES;
#X msg 93 228 0;
#X obj 273 305 line;
#X obj 273 372 s OSC_MESSAGES;
#X msg 273 239 -1.3;
#X obj 212 130 t b b;
#X obj 412 305 line;
#X obj 412 372 s OSC_MESSAGES;
#X msg 412 228 -2.2;
#X msg 455 228 10 5000;
#X msg 133 228 1 4000;
#X obj 320 147 metro 300;
#X obj 305 218 / 100;
#X obj 212 185 delay 5000;
#X msg 212 220 stop;
#X msg 305 259 set \$1;
#X msg 305 288 0.3;
#X msg 347 288 300;
#X obj 320 169 t b b;
#X obj 305 193 random 51;
#X obj 48 52 r MonteePremieresBullesVides;
#X obj 93 625 line;
#X obj 93 692 s OSC_MESSAGES;
#X msg 93 548 0;
#X obj 273 625 line;
#X obj 273 692 s OSC_MESSAGES;
#X msg 273 559 -1.3;
#X obj 412 625 line;
#X obj 412 692 s OSC_MESSAGES;
#X msg 412 548 -2.2;
#X msg 455 548 10 5000;
#X msg 133 548 1 4000;
#X obj 320 467 metro 300;
#X obj 305 538 / 100;
#X obj 212 505 delay 5000;
#X msg 212 540 stop;
#X msg 305 579 set \$1;
#X msg 305 608 0.21;
#X msg 347 608 300;
#X obj 320 489 t b b;
#X obj 305 513 random 51;
#X msg 93 655 /DunjonDoor5/*scale \$1;
#X msg 273 655 /DunjonDoor5/Xpos \$1;
#X msg 412 655 /DunjonDoor5/Ypos \$1;
#X obj 212 450 t b b;
#X obj 212 416 spigot;
#X obj 132 113 spigot;
#X msg 165 145 0;
#X msg 165 180 1;
#X obj 238 69 r StopMonteePremieresBullesVides;
#X msg 238 94 stop;
#X obj 74 96 t b b;
#X obj 212 272 delay 2500;
#X obj 132 467 delay 2500;
#X obj 468 435 bng 15 250 50 0 empty empty empty 17 7 0 10 -262144
-1 -1;
#X obj 468 408 r MonteeSecondesBullesVides;
#X msg 412 335 /DunjonDoor4/Ypos \$1;
#X msg 273 335 /DunjonDoor4/Xpos \$1;
#X msg 93 335 /DunjonDoor4/*scale \$1;
#X connect 0 0 53 0;
#X connect 1 0 60 0;
#X connect 3 0 1 0;
#X connect 4 0 59 0;
#X connect 6 0 4 0;
#X connect 7 0 12 0;
#X connect 7 0 17 0;
#X connect 7 0 11 0;
#X connect 7 0 13 0;
#X connect 7 0 15 0;
#X connect 7 0 54 0;
#X connect 7 1 6 0;
#X connect 7 1 3 0;
#X connect 7 1 10 0;
#X connect 8 0 58 0;
#X connect 10 0 8 0;
#X connect 11 0 8 0;
#X connect 12 0 1 0;
#X connect 13 0 20 0;
#X connect 14 0 17 0;
#X connect 15 0 16 0;
#X connect 15 0 54 0;
#X connect 16 0 13 0;
#X connect 17 0 18 0;
#X connect 18 0 4 0;
#X connect 19 0 4 1;
#X connect 20 0 21 0;
#X connect 20 1 19 0;
#X connect 21 0 14 0;
#X connect 21 0 18 0;
#X connect 22 0 0 0;
#X connect 23 0 43 0;
#X connect 25 0 23 0;
#X connect 26 0 44 0;
#X connect 28 0 26 0;
#X connect 29 0 45 0;
#X connect 31 0 29 0;
#X connect 32 0 29 0;
#X connect 33 0 23 0;
#X connect 34 0 41 0;
#X connect 35 0 38 0;
#X connect 36 0 37 0;
#X connect 37 0 34 0;
#X connect 38 0 39 0;
#X connect 39 0 26 0;
#X connect 40 0 26 1;
#X connect 41 0 42 0;
#X connect 41 1 40 0;
#X connect 42 0 35 0;
#X connect 42 0 39 0;
#X connect 43 0 24 0;
#X connect 44 0 27 0;
#X connect 45 0 30 0;
#X connect 46 0 36 0;
#X connect 46 0 34 0;
#X connect 46 0 32 0;
#X connect 46 0 33 0;
#X connect 46 0 55 0;
#X connect 46 1 31 0;
#X connect 46 1 25 0;
#X connect 46 1 28 0;
#X connect 47 0 46 0;
#X connect 48 0 7 0;
#X connect 49 0 48 1;
#X connect 49 0 47 1;
#X connect 50 0 48 1;
#X connect 50 0 47 1;
#X connect 51 0 52 0;
#X connect 52 0 49 0;
#X connect 53 0 48 0;
#X connect 53 1 50 0;
#X connect 54 0 47 0;
#X connect 55 0 48 0;
#X connect 56 0 46 0;
#X connect 56 0 50 0;
#X connect 57 0 56 0;
#X connect 58 0 9 0;
#X connect 59 0 5 0;
#X connect 60 0 2 0;
#X restore 51 20 pd MonteePremieresBullesVides;
#N canvas 0 100 1440 800 MonteeBulleEtron 0;
#X obj 48 81 bng 15 250 50 0 empty empty empty 17 7 0 10 -262144 -1
-1;
#X obj 93 305 line;
#X obj 93 373 s OSC_MESSAGES;
#X msg 93 228 0;
#X obj 273 305 line;
#X obj 273 372 s OSC_MESSAGES;
#X msg 273 239 -1.3;
#X obj 212 130 t b b;
#X obj 412 305 line;
#X obj 412 372 s OSC_MESSAGES;
#X msg 412 228 -2.2;
#X msg 133 228 1 4000;
#X obj 320 147 metro 300;
#X obj 305 218 / 100;
#X msg 212 220 stop;
#X msg 305 259 set \$1;
#X msg 305 288 0.47;
#X msg 347 288 300;
#X obj 320 169 t b b;
#X obj 305 193 random 51;
#X obj 48 52 r MonteeBulleEtron;
#X obj 245 96 s StopMonteePremieresBullesVides;
#X obj 7 322 / 1.8;
#X msg 7 354 /DunjonDoor1Cadre/*scale \$1;
#X msg 93 335 /DunjonDoor1/*scale \$1;
#X msg 273 335 /DunjonDoor1*/Xpos \$1;
#X msg 412 335 /DunjonDoor1*/Ypos \$1;
#X msg 455 228 1 2500;
#X obj 212 180 delay 10000;
#X obj 522 186 delay 7000;
#X msg 522 227 10 1500;
#X obj 212 272 delay 9000;
#X obj 212 400 s MonteeSecondesBullesVides;
#X connect 0 0 21 0;
#X connect 0 0 7 0;
#X connect 1 0 24 0;
#X connect 1 0 22 0;
#X connect 3 0 1 0;
#X connect 4 0 25 0;
#X connect 6 0 4 0;
#X connect 7 0 11 0;
#X connect 7 0 15 0;
#X connect 7 0 27 0;
#X connect 7 0 12 0;
#X connect 7 0 28 0;
#X connect 7 0 29 0;
#X connect 7 0 31 0;
#X connect 7 1 6 0;
#X connect 7 1 3 0;
#X connect 7 1 10 0;
#X connect 8 0 26 0;
#X connect 10 0 8 0;
#X connect 11 0 1 0;
#X connect 12 0 18 0;
#X connect 13 0 15 0;
#X connect 14 0 12 0;
#X connect 15 0 16 0;
#X connect 16 0 4 0;
#X connect 17 0 4 1;
#X connect 18 0 19 0;
#X connect 18 1 17 0;
#X connect 19 0 13 0;
#X connect 19 0 16 0;
#X connect 20 0 0 0;
#X connect 22 0 23 0;
#X connect 23 0 2 0;
#X connect 24 0 2 0;
#X connect 25 0 5 0;
#X connect 26 0 9 0;
#X connect 27 0 8 0;
#X connect 28 0 14 0;
#X connect 28 0 31 0;
#X connect 29 0 30 0;
#X connect 30 0 8 0;
#X connect 31 0 32 0;
#X restore 51 40 pd MonteeBulleEtron;
#N canvas 0 100 1440 800 MonteeBullesGlacePhallusTetine 0;
#X obj 48 81 bng 15 250 50 0 empty empty empty 17 7 0 10 -262144 -1
-1;
#X obj 43 425 line;
#X obj 43 493 s OSC_MESSAGES;
#X msg 43 348 0;
#X obj 193 425 line;
#X obj 193 492 s OSC_MESSAGES;
#X msg 193 359 -1.3;
#X obj 132 250 t b b;
#X obj 332 425 line;
#X obj 332 492 s OSC_MESSAGES;
#X msg 332 348 -2.2;
#X msg 83 348 1 4000;
#X obj 240 267 metro 300;
#X obj 225 338 / 100;
#X msg 132 340 stop;
#X msg 225 379 set \$1;
#X msg 225 408 2.35;
#X msg 267 408 300;
#X obj 240 289 t b b;
#X obj 7 442 / 1.8;
#X msg 371 348 1 2500;
#X msg 420 348 10 1500;
#X msg 43 455 /DunjonDoor2/*scale \$1;
#X msg 7 474 /DunjonDoor2Cadre/*scale \$1;
#X msg 193 455 /DunjonDoor2*/Xpos \$1;
#X msg 332 455 /DunjonDoor2*/Ypos \$1;
#X obj 245 96 s StopMonteePremieresBullesVides;
#X obj 225 313 random 51;
#X obj 225 358 + 2;
#X msg 241 230 0;
#X msg 132 563 2 2000;
#X obj 132 593 line;
#X obj 513 425 line;
#X obj 513 493 s OSC_MESSAGES;
#X msg 513 348 0;
#X obj 663 425 line;
#X obj 663 492 s OSC_MESSAGES;
#X msg 663 359 -1.3;
#X obj 602 250 t b b;
#X obj 802 425 line;
#X obj 802 492 s OSC_MESSAGES;
#X msg 802 348 -2.2;
#X obj 710 267 metro 300;
#X obj 695 338 / 100;
#X msg 602 340 stop;
#X msg 695 379 set \$1;
#X msg 695 408 0.05;
#X msg 737 408 300;
#X obj 710 289 t b b;
#X msg 841 348 1 2500;
#X msg 890 348 10 1500;
#X obj 695 313 random 51;
#X obj 695 358 + 2;
#X msg 711 230 0;
#X obj 602 593 line;
#X msg 513 455 /DunjonDoor3/*scale \$1;
#X msg 477 474 /DunjonDoor3Cadre/*scale \$1;
#X msg 663 455 /DunjonDoor3*/Xpos \$1;
#X msg 802 455 /DunjonDoor3*/Ypos \$1;
#X msg 602 563 0 2000;
#X obj 419 203 delay 2000;
#X obj 983 425 line;
#X obj 983 493 s OSC_MESSAGES;
#X msg 983 348 0;
#X obj 1133 425 line;
#X obj 1133 492 s OSC_MESSAGES;
#X msg 1133 359 -1.3;
#X obj 1072 250 t b b;
#X obj 1272 425 line;
#X obj 1272 492 s OSC_MESSAGES;
#X msg 1272 348 -2.2;
#X msg 1023 348 1 4000;
#X obj 1180 267 metro 300;
#X obj 1165 338 / 100;
#X msg 1072 340 stop;
#X msg 1165 379 set \$1;
#X msg 1165 408 -1.91;
#X msg 1207 408 300;
#X obj 1180 289 t b b;
#X msg 1311 348 1 2500;
#X msg 1360 348 10 1500;
#X obj 1165 313 random 51;
#X obj 1165 358 + 2;
#X msg 1181 230 0;
#X obj 1072 593 line;
#X obj 947 442 / 2.3;
#X obj 889 203 delay 4000;
#X msg 983 455 /DunjonDoor4/*scale \$1;
#X msg 947 474 /DunjonDoor4Cadre/*scale \$1;
#X msg 1133 455 /DunjonDoor4*/Xpos \$1;
#X msg 1272 455 /DunjonDoor4*/Ypos \$1;
#X msg 1072 563 -2 2000;
#X obj 639 96 delay 6000;
#X obj 1043 172 s OSC_MESSAGES;
#X obj 763 79 t b b;
#X msg 763 57 stop;
#X obj 847 96 random 3;
#X obj 847 123 + 2;
#X msg 1042 96 /DunjonDoor[2-4]/Green 1;
#X msg 1043 140 /DunjonDoor\$1/Green 0;
#X msg 553 348 1 4000;
#X obj 477 442 / 1.8;
#X obj 825 74 s MonteePremieresBullesVides;
#X obj 48 52 r MonteeBullesGlacePhallusTetine;
#X obj 1184 80 s MonteeTroisiemesBullesVides;
#X obj 1184 47 delay 2000;
#X obj 763 113 metro 100;
#X obj 132 300 delay 11000;
#X obj 890 307 delay 7000;
#X obj 1360 307 delay 5000;
#X obj 420 307 delay 9000;
#X obj 1072 300 delay 7000;
#X obj 602 300 delay 9000;
#X obj 639 40 delay 5000;
#X connect 0 0 26 0;
#X connect 0 0 7 0;
#X connect 0 0 60 0;
#X connect 0 0 86 0;
#X connect 0 0 92 0;
#X connect 0 0 98 0;
#X connect 1 0 22 0;
#X connect 1 0 19 0;
#X connect 3 0 1 0;
#X connect 4 0 24 0;
#X connect 6 0 4 0;
#X connect 7 0 11 0;
#X connect 7 0 15 0;
#X connect 7 0 20 0;
#X connect 7 0 12 0;
#X connect 7 0 30 0;
#X connect 7 0 107 0;
#X connect 7 0 110 0;
#X connect 7 1 6 0;
#X connect 7 1 3 0;
#X connect 7 1 10 0;
#X connect 7 1 29 0;
#X connect 8 0 25 0;
#X connect 10 0 8 0;
#X connect 11 0 1 0;
#X connect 12 0 18 0;
#X connect 13 0 28 0;
#X connect 14 0 12 0;
#X connect 15 0 16 0;
#X connect 16 0 4 0;
#X connect 17 0 4 1;
#X connect 18 0 27 0;
#X connect 18 1 17 0;
#X connect 19 0 23 0;
#X connect 20 0 8 0;
#X connect 21 0 8 0;
#X connect 22 0 2 0;
#X connect 23 0 2 0;
#X connect 24 0 5 0;
#X connect 25 0 9 0;
#X connect 27 0 13 0;
#X connect 27 0 16 0;
#X connect 28 0 15 0;
#X connect 29 0 28 1;
#X connect 30 0 31 0;
#X connect 31 0 28 1;
#X connect 32 0 55 0;
#X connect 32 0 101 0;
#X connect 34 0 32 0;
#X connect 35 0 57 0;
#X connect 37 0 35 0;
#X connect 38 0 100 0;
#X connect 38 0 45 0;
#X connect 38 0 49 0;
#X connect 38 0 42 0;
#X connect 38 0 59 0;
#X connect 38 0 108 0;
#X connect 38 0 112 0;
#X connect 38 1 37 0;
#X connect 38 1 34 0;
#X connect 38 1 41 0;
#X connect 38 1 53 0;
#X connect 39 0 58 0;
#X connect 41 0 39 0;
#X connect 42 0 48 0;
#X connect 43 0 52 0;
#X connect 44 0 42 0;
#X connect 45 0 46 0;
#X connect 46 0 35 0;
#X connect 47 0 35 1;
#X connect 48 0 51 0;
#X connect 48 1 47 0;
#X connect 49 0 39 0;
#X connect 50 0 39 0;
#X connect 51 0 43 0;
#X connect 51 0 46 0;
#X connect 52 0 45 0;
#X connect 53 0 52 1;
#X connect 54 0 52 1;
#X connect 55 0 33 0;
#X connect 56 0 33 0;
#X connect 57 0 36 0;
#X connect 58 0 40 0;
#X connect 59 0 54 0;
#X connect 60 0 38 0;
#X connect 61 0 87 0;
#X connect 61 0 85 0;
#X connect 63 0 61 0;
#X connect 64 0 89 0;
#X connect 66 0 64 0;
#X connect 67 0 71 0;
#X connect 67 0 75 0;
#X connect 67 0 79 0;
#X connect 67 0 72 0;
#X connect 67 0 91 0;
#X connect 67 0 109 0;
#X connect 67 0 111 0;
#X connect 67 1 66 0;
#X connect 67 1 63 0;
#X connect 67 1 70 0;
#X connect 67 1 83 0;
#X connect 68 0 90 0;
#X connect 70 0 68 0;
#X connect 71 0 61 0;
#X connect 72 0 78 0;
#X connect 73 0 82 0;
#X connect 74 0 72 0;
#X connect 75 0 76 0;
#X connect 76 0 64 0;
#X connect 77 0 64 1;
#X connect 78 0 81 0;
#X connect 78 1 77 0;
#X connect 79 0 68 0;
#X connect 80 0 68 0;
#X connect 81 0 73 0;
#X connect 81 0 76 0;
#X connect 82 0 75 0;
#X connect 83 0 82 1;
#X connect 84 0 82 1;
#X connect 85 0 88 0;
#X connect 86 0 67 0;
#X connect 87 0 62 0;
#X connect 88 0 62 0;
#X connect 89 0 65 0;
#X connect 90 0 69 0;
#X connect 91 0 84 0;
#X connect 92 0 106 0;
#X connect 92 0 113 0;
#X connect 94 0 96 0;
#X connect 94 1 98 0;
#X connect 95 0 102 0;
#X connect 95 0 106 0;
#X connect 96 0 97 0;
#X connect 97 0 99 0;
#X connect 98 0 93 0;
#X connect 99 0 93 0;
#X connect 100 0 32 0;
#X connect 101 0 56 0;
#X connect 103 0 0 0;
#X connect 105 0 26 0;
#X connect 105 0 104 0;
#X connect 106 0 94 0;
#X connect 107 0 14 0;
#X connect 108 0 50 0;
#X connect 109 0 80 0;
#X connect 110 0 21 0;
#X connect 111 0 74 0;
#X connect 112 0 44 0;
#X connect 113 0 95 0;
#X connect 113 0 105 0;
#X restore 51 60 pd MonteeBullesGlacePhallusTetine;
#N canvas 0 100 1440 800 MonteeBulleVolvo 0;
#X obj 129 90 bng 15 250 50 0 empty empty empty 17 7 0 10 -262144 -1
-1;
#X obj 174 314 line;
#X obj 174 382 s OSC_MESSAGES;
#X msg 174 237 0;
#X obj 354 314 line;
#X obj 354 381 s OSC_MESSAGES;
#X msg 354 248 -1.3;
#X obj 293 139 t b b;
#X obj 493 314 line;
#X obj 493 381 s OSC_MESSAGES;
#X msg 493 237 -2.2;
#X obj 401 156 metro 300;
#X obj 386 227 / 100;
#X msg 293 229 stop;
#X msg 386 268 set \$1;
#X msg 386 297 0.07;
#X msg 428 297 300;
#X obj 401 178 t b b;
#X obj 386 202 random 51;
#X msg 536 237 1 2500;
#X obj 293 189 delay 10000;
#X msg 603 236 10 1500;
#X obj 293 599 s MonteeSecondesBullesVides;
#X obj 129 61 r MonteeBulleVolvo;
#X msg 354 344 /DunjonDoor5*/Xpos \$1;
#X msg 493 344 /DunjonDoor5*/Ypos \$1;
#X obj 362 573 s OSC_MESSAGES;
#X msg 362 471 /DunjonDoor5/Alpha \$1;
#X msg 362 539 /DunjonDoor5Cadre/Alpha \$1;
#X obj 293 522 line;
#X obj 293 454 line;
#X msg 129 437 1;
#X msg 129 505 0;
#X obj 293 565 delay 9000;
#X obj 603 195 delay 9000;
#X msg 293 494 1 300;
#X obj 715 168 s OSC_MESSAGES;
#X msg 715 105 /DunjonDoor5/File /home/woii/2013_Sebkha-ChottGalootFormula_ThingFish/ThingFishVideoDecorum/Nativite/data/bulle_volvo_colorisee.png
;
#X msg 1105 105 /DunjonDoor5/Flip 0;
#X msg 174 344 /DunjonDoor5*/*scale \$1;
#X obj 293 281 delay 4000;
#X obj 715 645 s OSC_MESSAGES;
#X msg 715 582 /DunjonDoor5/File /home/woii/2013_Sebkha-ChottGalootFormula_ThingFish/ThingFishVideoDecorum/Nativite/data/bulle.png
;
#X msg 214 237 2 4000;
#X obj 326 105 s StopMonteeTroisiemesBullesVides;
#X connect 0 0 7 0;
#X connect 0 0 31 0;
#X connect 0 0 32 0;
#X connect 0 0 37 0;
#X connect 0 0 38 0;
#X connect 0 0 44 0;
#X connect 1 0 39 0;
#X connect 3 0 1 0;
#X connect 4 0 24 0;
#X connect 6 0 4 0;
#X connect 7 0 43 0;
#X connect 7 0 14 0;
#X connect 7 0 19 0;
#X connect 7 0 11 0;
#X connect 7 0 20 0;
#X connect 7 0 34 0;
#X connect 7 0 40 0;
#X connect 7 1 6 0;
#X connect 7 1 3 0;
#X connect 7 1 10 0;
#X connect 8 0 25 0;
#X connect 10 0 8 0;
#X connect 11 0 17 0;
#X connect 12 0 14 0;
#X connect 13 0 11 0;
#X connect 14 0 15 0;
#X connect 15 0 4 0;
#X connect 16 0 4 1;
#X connect 17 0 18 0;
#X connect 17 1 16 0;
#X connect 18 0 12 0;
#X connect 18 0 15 0;
#X connect 19 0 8 0;
#X connect 20 0 13 0;
#X connect 20 0 40 0;
#X connect 21 0 8 0;
#X connect 23 0 0 0;
#X connect 24 0 5 0;
#X connect 25 0 9 0;
#X connect 27 0 26 0;
#X connect 28 0 26 0;
#X connect 29 0 28 0;
#X connect 30 0 27 0;
#X connect 31 0 30 0;
#X connect 32 0 29 0;
#X connect 33 0 22 0;
#X connect 33 0 42 0;
#X connect 34 0 21 0;
#X connect 35 0 29 0;
#X connect 37 0 36 0;
#X connect 38 0 36 0;
#X connect 39 0 2 0;
#X connect 40 0 35 0;
#X connect 40 0 33 0;
#X connect 42 0 41 0;
#X connect 43 0 1 0;
#X restore 51 80 pd MonteeBulleVolvo;
#X obj 61 210 s MonteeBulleEtron;
#X obj 61 230 s MonteeBullesGlacePhallusTetine;
#X obj 61 280 s MonteeBulleVolvo;
#X obj 61 184 s MonteePremieresBullesVides;
#X obj 46 168 bng 15 250 50 0 empty empty empty 17 7 0 10 -262144 -1
-1;
#X obj 31 205 bng 15 250 50 0 empty empty empty 17 7 0 10 -262144 -1
-1;
#X obj 25 232 bng 15 250 50 0 empty empty empty 17 7 0 10 -262144 -1
-1;
#X obj 20 289 bng 15 250 50 0 empty empty empty 17 7 0 10 -262144 -1
-1;
#N canvas 0 100 1440 800 MonteeTroisiemesBullesVides 0;
#X obj 48 81 bng 15 250 50 0 empty empty empty 17 7 0 10 -262144 -1
-1;
#X obj 93 305 line;
#X obj 93 372 s OSC_MESSAGES;
#X msg 93 228 0;
#X obj 273 305 line;
#X obj 273 372 s OSC_MESSAGES;
#X msg 273 239 -1.3;
#X obj 212 130 t b b;
#X obj 412 305 line;
#X obj 412 372 s OSC_MESSAGES;
#X msg 412 228 -2.2;
#X msg 455 228 10 5000;
#X msg 133 228 1 4000;
#X obj 320 147 metro 300;
#X obj 305 218 / 100;
#X obj 212 185 delay 5000;
#X msg 212 220 stop;
#X msg 305 259 set \$1;
#X msg 305 288 0.28;
#X msg 347 288 300;
#X obj 320 169 t b b;
#X obj 305 193 random 51;
#X obj 93 625 line;
#X obj 93 692 s OSC_MESSAGES;
#X msg 93 548 0;
#X obj 273 625 line;
#X obj 273 692 s OSC_MESSAGES;
#X msg 273 559 -1.3;
#X obj 412 625 line;
#X obj 412 692 s OSC_MESSAGES;
#X msg 412 548 -2.2;
#X msg 455 548 10 5000;
#X msg 133 548 1 4000;
#X obj 320 467 metro 300;
#X obj 305 538 / 100;
#X obj 212 505 delay 5000;
#X msg 212 540 stop;
#X msg 305 579 set \$1;
#X msg 305 608 0.29;
#X msg 347 608 300;
#X obj 320 489 t b b;
#X obj 305 513 random 51;
#X obj 212 450 t b b;
#X obj 212 416 spigot;
#X obj 132 113 spigot;
#X msg 165 145 0;
#X msg 165 180 1;
#X msg 238 94 stop;
#X obj 74 96 t b b;
#X obj 212 272 delay 2500;
#X obj 132 467 delay 2500;
#X msg 93 335 /DunjonDoor4/*scale \$1;
#X msg 273 335 /DunjonDoor4/Xpos \$1;
#X msg 412 335 /DunjonDoor4/Ypos \$1;
#X obj 48 52 r MonteeTroisiemesBullesVides;
#X msg 93 655 /DunjonDoor2/*scale \$1;
#X msg 273 655 /DunjonDoor2/Xpos \$1;
#X msg 412 655 /DunjonDoor2/Ypos \$1;
#X msg 598 96 /DunjonDoor2/Green 1;
#X obj 598 133 s OSC_MESSAGES;
#X obj 238 69 r StopMonteeTroisiemesBullesVides;
#X connect 0 0 48 0;
#X connect 0 0 58 0;
#X connect 1 0 51 0;
#X connect 3 0 1 0;
#X connect 4 0 52 0;
#X connect 6 0 4 0;
#X connect 7 0 12 0;
#X connect 7 0 17 0;
#X connect 7 0 11 0;
#X connect 7 0 13 0;
#X connect 7 0 15 0;
#X connect 7 0 49 0;
#X connect 7 1 6 0;
#X connect 7 1 3 0;
#X connect 7 1 10 0;
#X connect 8 0 53 0;
#X connect 10 0 8 0;
#X connect 11 0 8 0;
#X connect 12 0 1 0;
#X connect 13 0 20 0;
#X connect 14 0 17 0;
#X connect 15 0 16 0;
#X connect 15 0 49 0;
#X connect 16 0 13 0;
#X connect 17 0 18 0;
#X connect 18 0 4 0;
#X connect 19 0 4 1;
#X connect 20 0 21 0;
#X connect 20 1 19 0;
#X connect 21 0 14 0;
#X connect 21 0 18 0;
#X connect 22 0 55 0;
#X connect 24 0 22 0;
#X connect 25 0 56 0;
#X connect 27 0 25 0;
#X connect 28 0 57 0;
#X connect 30 0 28 0;
#X connect 31 0 28 0;
#X connect 32 0 22 0;
#X connect 33 0 40 0;
#X connect 34 0 37 0;
#X connect 35 0 36 0;
#X connect 36 0 33 0;
#X connect 37 0 38 0;
#X connect 38 0 25 0;
#X connect 39 0 25 1;
#X connect 40 0 41 0;
#X connect 40 1 39 0;
#X connect 41 0 34 0;
#X connect 41 0 38 0;
#X connect 42 0 35 0;
#X connect 42 0 33 0;
#X connect 42 0 31 0;
#X connect 42 0 32 0;
#X connect 42 0 50 0;
#X connect 42 1 30 0;
#X connect 42 1 24 0;
#X connect 42 1 27 0;
#X connect 43 0 42 0;
#X connect 44 0 7 0;
#X connect 45 0 44 1;
#X connect 45 0 43 1;
#X connect 46 0 44 1;
#X connect 46 0 43 1;
#X connect 47 0 45 0;
#X connect 48 0 44 0;
#X connect 48 1 46 0;
#X connect 49 0 43 0;
#X connect 50 0 44 0;
#X connect 51 0 2 0;
#X connect 52 0 5 0;
#X connect 53 0 9 0;
#X connect 54 0 0 0;
#X connect 55 0 23 0;
#X connect 56 0 26 0;
#X connect 57 0 29 0;
#X connect 58 0 59 0;
#X connect 60 0 47 0;
#X restore 241 20 pd MonteeTroisiemesBullesVides;
#X obj 367 139 bng 15 250 50 0 empty empty empty 17 7 0 10 -262144
-1 -1;
#X obj 367 161 s StopMonteePremieresBullesVides;
#X obj 367 181 s StopMonteeTroisiemesBullesVides;
#N canvas 768 451 450 300 GirafeMoves 0;
#X obj 49 30 r GirafeMoves;
#X obj 49 60 bng 15 250 50 0 empty empty empty 17 7 0 10 -262144 -1
-1;
#X msg 49 244 /Tube/Xpos \$1;
#X obj 49 168 / 100;
#X obj 49 272 s OSC_MESSAGES;
#X obj 49 118 random 140;
#X obj 49 222 line;
#X obj 186 48 r GirafeStopsMoving;
#X msg 186 73 stop;
#X obj 49 90 metro 1500;
#X msg 49 196 \$1 500;
#X obj 49 144 - 180;
#X msg 159 255 /Tube/Rotate \$1;
#X msg 159 178 \$1 700;
#X obj 159 207 line;
#X obj 159 232 mod 360;
#X floatatom 223 171 5 0 0 0 - - -;
#X obj 159 154 + 230;
#X obj 159 130 - 20;
#X obj 159 107 random 70;
#X connect 0 0 1 0;
#X connect 1 0 9 0;
#X connect 2 0 4 0;
#X connect 3 0 10 0;
#X connect 5 0 11 0;
#X connect 6 0 2 0;
#X connect 7 0 8 0;
#X connect 8 0 9 0;
#X connect 9 0 5 0;
#X connect 9 0 19 0;
#X connect 10 0 6 0;
#X connect 11 0 3 0;
#X connect 12 0 4 0;
#X connect 13 0 14 0;
#X connect 14 0 15 0;
#X connect 15 0 12 0;
#X connect 17 0 13 0;
#X connect 17 0 16 0;
#X connect 18 0 17 0;
#X connect 19 0 18 0;
#X restore 84 396 pd GirafeMoves;
#N canvas 387 100 827 624 CGBMoves 0;
#X obj 30 34 r CGBMoves;
#X obj 30 69 bng 15 250 50 0 empty empty empty 17 7 0 10 -262144 -1
-1;
#X obj 100 34 r CGBStopsMoving;
#X msg 100 67 stop;
#X obj 51 149 random 2;
#X obj 51 188 + 3;
#X msg 51 230 /Assiette_Bush/ShapeIndex \$1;
#X obj 51 268 s OSC_MESSAGES;
#X obj 51 101 metro 75;
#X msg 257 188 -3.029;
#X obj 269 118 random 100;
#X obj 257 308 line;
#X obj 202 84 t b b;
#X obj 323 191 spigot;
#X msg 323 291 \$1 150;
#X obj 386 191 sel 0;
#X msg 386 228 -3.029 150;
#X msg 257 345 /Assiette_Bush/Zpos \$1;
#X floatatom 413 335 5 0 0 0 - - -;
#X floatatom 392 287 5 0 0 0 - - -;
#X obj 323 263 - 3.029;
#X obj 325 157 > 75;
#X obj 323 230 / 200;
#X msg 257 365 /Assiette_Gail/Zpos \$1;
#X msg 504 251 /Assiette_Gail/Alpha \$1;
#X obj 504 222 line;
#X floatatom 622 152 5 0 0 0 - - -;
#X obj 423 118 random 100;
#X obj 504 135 < 30;
#X msg 504 190 \$1 400;
#X obj 423 84 metro 2000;
#X floatatom 560 223 5 0 0 0 - - -;
#X connect 0 0 1 0;
#X connect 1 0 12 0;
#X connect 1 0 30 0;
#X connect 2 0 3 0;
#X connect 3 0 8 0;
#X connect 3 0 30 0;
#X connect 4 0 5 0;
#X connect 5 0 6 0;
#X connect 6 0 7 0;
#X connect 8 0 4 0;
#X connect 8 0 10 0;
#X connect 9 0 11 0;
#X connect 10 0 13 0;
#X connect 10 0 21 0;
#X connect 11 0 17 0;
#X connect 11 0 18 0;
#X connect 11 0 23 0;
#X connect 12 0 8 0;
#X connect 12 1 9 0;
#X connect 13 0 22 0;
#X connect 14 0 11 0;
#X connect 15 0 16 0;
#X connect 16 0 11 0;
#X connect 17 0 7 0;
#X connect 20 0 14 0;
#X connect 21 0 13 1;
#X connect 21 0 15 0;
#X connect 22 0 19 0;
#X connect 22 0 20 0;
#X connect 23 0 7 0;
#X connect 24 0 7 0;
#X connect 25 0 24 0;
#X connect 25 0 31 0;
#X connect 27 0 26 0;
#X connect 27 0 28 0;
#X connect 28 0 29 0;
#X connect 29 0 25 0;
#X connect 30 0 27 0;
#X restore 88 448 pd CGBMoves;
#N canvas 0 100 1440 800 MonteeBullesClochettes 0;
#X obj 48 81 bng 15 250 50 0 empty empty empty 17 7 0 10 -262144 -1
-1;
#X obj 93 305 line;
#X obj 93 372 s OSC_MESSAGES;
#X msg 93 228 0;
#X obj 273 305 line;
#X obj 273 372 s OSC_MESSAGES;
#X msg 273 239 -1.3;
#X obj 212 130 t b b;
#X obj 412 305 line;
#X obj 412 372 s OSC_MESSAGES;
#X msg 412 228 -2.2;
#X msg 455 228 10 5000;
#X msg 133 228 1 4000;
#X obj 320 147 metro 300;
#X obj 305 218 / 100;
#X obj 212 185 delay 5000;
#X msg 212 220 stop;
#X msg 305 259 set \$1;
#X msg 305 288 0.46;
#X msg 347 288 300;
#X obj 320 169 t b b;
#X obj 305 193 random 51;
#X obj 93 625 line;
#X obj 93 692 s OSC_MESSAGES;
#X msg 93 548 0;
#X obj 273 625 line;
#X obj 273 692 s OSC_MESSAGES;
#X msg 273 559 -1.3;
#X obj 412 625 line;
#X obj 412 692 s OSC_MESSAGES;
#X msg 412 548 -2.2;
#X msg 455 548 10 5000;
#X msg 133 548 1 4000;
#X obj 320 467 metro 300;
#X obj 305 538 / 100;
#X obj 212 505 delay 5000;
#X msg 212 540 stop;
#X msg 305 579 set \$1;
#X msg 305 608 0.16;
#X msg 347 608 300;
#X obj 320 489 t b b;
#X obj 305 513 random 51;
#X obj 212 450 t b b;
#X obj 212 416 spigot;
#X obj 132 113 spigot;
#X msg 165 145 0;
#X msg 165 180 1;
#X msg 238 94 stop;
#X obj 74 96 t b b;
#X obj 212 272 delay 2500;
#X obj 132 467 delay 2500;
#X obj 48 52 r MonteeBullesClochettes;
#X obj 238 69 r StopMonteeBullesClochettes;
#X obj 804 96 s StopMonteePremieresBullesVides;
#X obj 521 96 s StopMonteeTroisiemesBullesVides;
#X obj 634 299 s OSC_MESSAGES;
#X msg 634 216 /DunjonDoor5Cadre/File /home/woii/2013_Sebkha-ChottGalootFormula_ThingFish/ThingFishVideoDecorum/Nativite/data/cloche_colorisee.png
;
#X msg 634 166 /DunjonDoor1Cadre/File /home/woii/2013_Sebkha-ChottGalootFormula_ThingFish/ThingFishVideoDecorum/Nativite/data/cloche_colorisee.png
;
#X msg 273 655 /DunjonDoor5*/Xpos \$1;
#X msg 412 655 /DunjonDoor5*/Ypos \$1;
#X msg 412 335 /DunjonDoor1*/Ypos \$1;
#X msg 273 335 /DunjonDoor1*/Xpos \$1;
#X msg 93 655 /DunjonDoor5/*scale \$1;
#X obj 49 642 / 2;
#X msg 49 673 /DunjonDoor5Cadre/*scale \$1;
#X obj 49 322 / 2;
#X msg 93 335 /DunjonDoor1/*scale \$1;
#X msg 49 353 /DunjonDoor1Cadre/*scale \$1;
#X obj 616 535 metro 40;
#X obj 616 637 line;
#X obj 616 703 s OSC_MESSAGES;
#X obj 616 565 random 20;
#X obj 616 591 - 10;
#X msg 616 615 \$1 40;
#X msg 616 682 /DunjonDoor5Cadre/Rotate \$1;
#X msg 616 662 /DunjonDoor1Cadre/Rotate \$1;
#X connect 0 0 48 0;
#X connect 0 0 53 0;
#X connect 0 0 54 0;
#X connect 0 0 57 0;
#X connect 0 0 56 0;
#X connect 0 0 68 0;
#X connect 1 0 66 0;
#X connect 1 0 65 0;
#X connect 3 0 1 0;
#X connect 4 0 61 0;
#X connect 6 0 4 0;
#X connect 7 0 12 0;
#X connect 7 0 17 0;
#X connect 7 0 11 0;
#X connect 7 0 13 0;
#X connect 7 0 15 0;
#X connect 7 0 49 0;
#X connect 7 1 6 0;
#X connect 7 1 3 0;
#X connect 7 1 10 0;
#X connect 8 0 60 0;
#X connect 10 0 8 0;
#X connect 11 0 8 0;
#X connect 12 0 1 0;
#X connect 13 0 20 0;
#X connect 14 0 17 0;
#X connect 15 0 16 0;
#X connect 15 0 49 0;
#X connect 16 0 13 0;
#X connect 17 0 18 0;
#X connect 18 0 4 0;
#X connect 19 0 4 1;
#X connect 20 0 21 0;
#X connect 20 1 19 0;
#X connect 21 0 14 0;
#X connect 21 0 18 0;
#X connect 22 0 62 0;
#X connect 22 0 63 0;
#X connect 24 0 22 0;
#X connect 25 0 58 0;
#X connect 27 0 25 0;
#X connect 28 0 59 0;
#X connect 30 0 28 0;
#X connect 31 0 28 0;
#X connect 32 0 22 0;
#X connect 33 0 40 0;
#X connect 34 0 37 0;
#X connect 35 0 36 0;
#X connect 36 0 33 0;
#X connect 37 0 38 0;
#X connect 38 0 25 0;
#X connect 39 0 25 1;
#X connect 40 0 41 0;
#X connect 40 1 39 0;
#X connect 41 0 34 0;
#X connect 41 0 38 0;
#X connect 42 0 35 0;
#X connect 42 0 33 0;
#X connect 42 0 31 0;
#X connect 42 0 32 0;
#X connect 42 0 50 0;
#X connect 42 1 30 0;
#X connect 42 1 24 0;
#X connect 42 1 27 0;
#X connect 43 0 42 0;
#X connect 44 0 7 0;
#X connect 45 0 44 1;
#X connect 45 0 43 1;
#X connect 46 0 44 1;
#X connect 46 0 43 1;
#X connect 47 0 45 0;
#X connect 47 0 68 0;
#X connect 48 0 44 0;
#X connect 48 1 46 0;
#X connect 49 0 43 0;
#X connect 50 0 44 0;
#X connect 51 0 0 0;
#X connect 52 0 47 0;
#X connect 56 0 55 0;
#X connect 57 0 55 0;
#X connect 58 0 26 0;
#X connect 59 0 29 0;
#X connect 60 0 9 0;
#X connect 61 0 5 0;
#X connect 62 0 23 0;
#X connect 63 0 64 0;
#X connect 64 0 23 0;
#X connect 65 0 67 0;
#X connect 66 0 2 0;
#X connect 67 0 2 0;
#X connect 68 0 71 0;
#X connect 69 0 75 0;
#X connect 69 0 74 0;
#X connect 71 0 72 0;
#X connect 72 0 73 0;
#X connect 73 0 69 0;
#X connect 74 0 70 0;
#X connect 75 0 70 0;
#X restore 51 100 pd MonteeBullesClochettes;
#X obj 30 319 bng 15 250 50 0 empty empty empty 17 7 0 10 -262144 -1
-1;
#X obj 71 310 s MonteeBullesClochettes;
#N canvas 0 100 1440 800 NativiteGetsOutToCour 0;
#X obj 45 61 bng 15 250 50 0 empty empty empty 17 7 0 10 -262144 -1
-1;
#X obj 45 94 t b b b b;
#X obj 62 233 line;
#X obj 248 757 s OSC_MESSAGES;
#X obj 45 29 r NativiteGetsOutToCour;
#X msg 248 131 /WashMachine/ParentName /Cochon;
#X msg 248 151 /Djbebe/ParentName /Cochon;
#X msg 248 171 /Tube/ParentName /Cochon;
#X msg 248 191 /Assiette_*/ParentName /Cochon;
#X msg 62 201 18 400;
#X msg 62 292 /Cochon/Xpos \$1;
#X msg 248 254 /WashMachine/Child/Xpos 1;
#X msg 248 274 /Djbebe/Child/Xpos 1;
#X msg 248 294 /Assiette_*/Child/Xpos 1;
#X msg 248 314 /Tube/Child/Xpos 1;
#X msg 488 244 /WashMachine/ParentName /Dummy;
#X msg 488 264 /Djbebe/ParentName /Dummy;
#X msg 488 284 /Tube/ParentName /Dummy;
#X msg 488 304 /Assiette_*/ParentName /Dummy;
#X msg 471 633 /WashMachine/Child/Xpos 0;
#X msg 471 653 /Djbebe/Child/Xpos 0;
#X msg 471 673 /Assiette_*/Child/Xpos 0;
#X msg 471 693 /Tube/Child/Xpos 0;
#X obj 471 111 delay 400;
#X msg 248 111 /CochonLights/ParentName /Cochon;
#X msg 248 234 /CochonLights/Child/Xpos 1;
#X msg 488 224 /CochonLights/ParentName /Dummy;
#X msg 471 613 /CochonLights/Child/Xpos 0;
#X msg 505 740 /Cochon/Xpos 0;
#X obj 471 142 t b b b b;
#X obj 986 21 r NativiteComesInFromJardinWithoutCGB;
#X obj 1212 166 s NativiteWoCGBInit;
#X msg 764 199 /Cochon*/Activate \$1;
#X msg 764 219 /WashMachine/Activate \$1;
#X msg 764 239 /Djbebe/Activate \$1;
#X msg 764 259 /Tube/Activate \$1;
#X msg 764 279 /Assiette_*/Activate \$1;
#X msg 764 159 0;
#X msg 764 134 1;
#X msg 684 111 -18;
#X obj 986 94 t b b b b;
#X msg 763 111 0 400;
#X obj 986 61 bng 15 250 50 0 empty empty empty 17 7 0 10 -262144 -1
-1;
#X obj 986 210 delay 400;
#X obj 1035 297 s GirafeMoves;
#X obj 835 556 s GirafeStopsMoving;
#X obj 674 581 s CGBStopsMoving;
#X connect 0 0 1 0;
#X connect 1 0 23 0;
#X connect 1 1 9 0;
#X connect 1 2 24 0;
#X connect 1 2 5 0;
#X connect 1 2 6 0;
#X connect 1 2 25 0;
#X connect 1 2 11 0;
#X connect 1 2 12 0;
#X connect 1 2 7 0;
#X connect 1 2 13 0;
#X connect 1 2 14 0;
#X connect 1 2 8 0;
#X connect 1 3 45 0;
#X connect 1 3 46 0;
#X connect 2 0 10 0;
#X connect 4 0 0 0;
#X connect 5 0 3 0;
#X connect 6 0 3 0;
#X connect 7 0 3 0;
#X connect 8 0 3 0;
#X connect 9 0 2 0;
#X connect 10 0 3 0;
#X connect 11 0 3 0;
#X connect 12 0 3 0;
#X connect 13 0 3 0;
#X connect 14 0 3 0;
#X connect 15 0 3 0;
#X connect 17 0 3 0;
#X connect 18 0 3 0;
#X connect 19 0 3 0;
#X connect 20 0 3 0;
#X connect 21 0 3 0;
#X connect 22 0 3 0;
#X connect 23 0 29 0;
#X connect 24 0 3 0;
#X connect 25 0 3 0;
#X connect 26 0 3 0;
#X connect 27 0 3 0;
#X connect 28 0 3 0;
#X connect 29 0 27 0;
#X connect 29 0 19 0;
#X connect 29 0 20 0;
#X connect 29 0 21 0;
#X connect 29 0 22 0;
#X connect 29 1 26 0;
#X connect 29 1 15 0;
#X connect 29 1 16 0;
#X connect 29 1 17 0;
#X connect 29 1 18 0;
#X connect 29 2 28 0;
#X connect 29 3 37 0;
#X connect 30 0 42 0;
#X connect 32 0 3 0;
#X connect 33 0 3 0;
#X connect 34 0 3 0;
#X connect 35 0 3 0;
#X connect 36 0 3 0;
#X connect 37 0 32 0;
#X connect 37 0 33 0;
#X connect 37 0 34 0;
#X connect 37 0 35 0;
#X connect 37 0 36 0;
#X connect 38 0 32 0;
#X connect 38 0 33 0;
#X connect 38 0 34 0;
#X connect 38 0 35 0;
#X connect 39 0 2 0;
#X connect 40 0 41 0;
#X connect 40 0 38 0;
#X connect 40 0 43 0;
#X connect 40 1 39 0;
#X connect 40 2 24 0;
#X connect 40 2 25 0;
#X connect 40 2 11 0;
#X connect 40 2 12 0;
#X connect 40 2 13 0;
#X connect 40 2 14 0;
#X connect 40 2 5 0;
#X connect 40 2 6 0;
#X connect 40 2 7 0;
#X connect 40 3 31 0;
#X connect 41 0 2 0;
#X connect 42 0 40 0;
#X connect 43 0 44 0;
#X restore 50 125 pd NativiteGetsOutToCour;
#N canvas 0 100 1440 800 ItalianPlacement 1;
#X obj 15 417 s OSC_MESSAGES;
#X msg 15 192 italien_buste_tete;
#X obj 15 273 symbol;
#X msg 15 301 /Italien2/File /home/woii/2013_Sebkha-ChottGalootFormula_ThingFish/ThingFishVideoDecorum/Italien/data/\$1.png
;
#X msg 492 261 /Italien*/Ypos \$1;
#X obj 492 211 line;
#X obj 722 174 s italianStopsMoving;
#X obj 722 60 bng 15 250 50 0 empty empty empty 17 7 0 10 -262144 -1
-1;
#X obj 372 211 line;
#X msg 372 261 /Italien*/Xpos \$1;
#X msg 232 261 /Italien*/Zpos \$1;
#X msg 232 146 -3.0331;
#X msg 410 375 /Italien*/Xscale \$1;
#X msg 410 326 /Italien*/Yscale \$1;
#X obj 410 304 line;
#X obj 427 60 bng 15 250 50 0 empty empty empty 17 7 0 10 -262144 -1
-1;
#X msg 492 145 -0.8 400;
#X msg 410 145 1.2 400;
#X msg 372 168 2.7 400;
#X obj 232 98 delay 400;
#X obj 615 60 bng 15 250 50 0 empty empty empty 17 7 0 10 -262144 -1
-1;
#X msg 663 194 4.45;
#X msg 575 194 7.8;
#X msg 615 287 1.5;
#X obj 410 349 * 0.90803;
#X obj 132 115 delay 300;
#X obj 132 192 delay 75;
#X obj 132 231 s italianMovesIntoNativite;
#X msg 132 144 5.6 75;
#X obj 27 9 r ItalianGoesIntoNativite;
#X obj 27 43 t b b b;
#N canvas 209 217 1014 464 ItalianMovesIntoNativite 0;
#X msg 257 139 stop;
#X msg 152 435 /ItalienBras/Rotate \$1;
#X obj 152 333 line;
#X obj 152 509 s OSC_MESSAGES;
#X obj 152 245 random 61;
#X msg 152 284 \$1 400;
#X obj 92 121 bng 15 250 50 0 empty empty empty 17 7 0 10 -262144 -1
-1;
#X obj 474 467 line;
#X obj 537 216 random 100;
#X obj 479 167 metro 200;
#X obj 564 279 / 10000;
#X msg 474 492 /ItalienBras/Ypos \$1;
#X msg 474 512 /Italien1/Ypos \$1;
#X obj 614 279 / 100000;
#X obj 604 449 line;
#X msg 594 512 /Italien2/Ypos \$1;
#X obj 92 81 r italianMovesIntoNativite;
#X obj 257 80 r italianStopsMovingIntoNativite;
#X obj 92 156 metro 4000;
#X obj 507 380 - 0.8;
#X obj 622 391 - 0.8;
#X connect 0 0 9 0;
#X connect 0 0 18 1;
#X connect 1 0 3 0;
#X connect 2 0 1 0;
#X connect 4 0 5 0;
#X connect 5 0 2 0;
#X connect 6 0 9 0;
#X connect 6 0 18 0;
#X connect 7 0 11 0;
#X connect 7 0 12 0;
#X connect 8 0 10 0;
#X connect 8 0 13 0;
#X connect 9 0 8 0;
#X connect 10 0 19 0;
#X connect 11 0 3 0;
#X connect 12 0 3 0;
#X connect 13 0 20 0;
#X connect 14 0 15 0;
#X connect 15 0 3 0;
#X connect 16 0 6 0;
#X connect 17 0 0 0;
#X connect 18 0 4 0;
#X connect 19 0 7 0;
#X connect 20 0 14 0;
#X restore 27 759 pd ItalianMovesIntoNativite;
#X msg 1128 704 /HandJardin/Rotate \$1;
#X msg 1128 534 /HandJardin/Ypos \$1;
#X msg 1128 477 4 300;
#X obj 1128 643 s OSC_MESSAGES;
#X msg 1128 586 /HandJardin/Xpos \$1;
#X obj 1128 376 bng 15 250 50 0 empty empty empty 17 7 0 10 -262144
-1 -1;
#X obj 1128 677 line;
#X obj 1128 507 line;
#X obj 1128 559 line;
#X obj 1257 660 v /HandJardin/Rotate;
#X obj 1257 490 v /HandJardin/Ypos;
#X obj 1257 542 v /HandJardin/Xpos;
#X msg 1128 404 90 300;
#X obj 1257 376 bng 15 250 50 0 empty empty empty 17 7 0 10 -262144
-1 -1;
#X obj 965 506 s HJardinPointerActivate;
#X msg 965 660 0;
#X msg 1128 449 1.5 300;
#X obj 794 420 bng 15 250 50 0 empty empty empty 17 7 0 10 -262144
-1 -1;
#X msg 794 490 2 400;
#X msg 794 542 0 400;
#X msg 794 660 45 400;
#X msg 606 660 30 75;
#X obj 694 435 delay 600;
#X obj 606 452 delay 100;
#X msg 694 660 90 100;
#X obj 794 599 s ItalianGoesIntoNativite;
#X obj 965 427 delay 300;
#X connect 1 0 2 0;
#X connect 2 0 3 0;
#X connect 3 0 0 0;
#X connect 4 0 0 0;
#X connect 5 0 4 0;
#X connect 7 0 6 0;
#X connect 8 0 9 0;
#X connect 9 0 0 0;
#X connect 10 0 0 0;
#X connect 11 0 10 0;
#X connect 12 0 0 0;
#X connect 13 0 0 0;
#X connect 14 0 13 0;
#X connect 14 0 24 0;
#X connect 15 0 18 0;
#X connect 15 0 17 0;
#X connect 15 0 16 0;
#X connect 15 0 19 0;
#X connect 16 0 5 0;
#X connect 17 0 14 0;
#X connect 18 0 8 0;
#X connect 19 0 11 0;
#X connect 19 0 25 0;
#X connect 20 0 21 0;
#X connect 20 0 23 0;
#X connect 20 0 22 0;
#X connect 21 0 5 0;
#X connect 22 0 8 0;
#X connect 23 0 14 0;
#X connect 24 0 12 0;
#X connect 25 0 28 0;
#X connect 25 0 1 0;
#X connect 25 0 26 0;
#X connect 26 0 27 0;
#X connect 28 0 8 0;
#X connect 29 0 30 0;
#X connect 30 0 15 0;
#X connect 30 1 20 0;
#X connect 30 2 7 0;
#X connect 32 0 35 0;
#X connect 33 0 35 0;
#X connect 34 0 39 0;
#X connect 36 0 35 0;
#X connect 37 0 34 0;
#X connect 37 0 48 0;
#X connect 37 0 44 0;
#X connect 37 0 58 0;
#X connect 38 0 32 0;
#X connect 39 0 33 0;
#X connect 40 0 36 0;
#X connect 41 0 38 0;
#X connect 42 0 39 0;
#X connect 43 0 40 0;
#X connect 44 0 38 0;
#X connect 45 0 43 0;
#X connect 45 0 42 0;
#X connect 45 0 41 0;
#X connect 47 0 38 0;
#X connect 48 0 40 0;
#X connect 49 0 50 0;
#X connect 49 0 51 0;
#X connect 49 0 52 0;
#X connect 49 0 54 0;
#X connect 49 0 57 0;
#X connect 50 0 39 0;
#X connect 51 0 40 0;
#X connect 52 0 38 0;
#X connect 53 0 38 0;
#X connect 54 0 56 0;
#X connect 54 0 55 0;
#X connect 55 0 53 0;
#X connect 56 0 38 0;
#X connect 58 0 47 0;
#X connect 58 0 46 0;
#X restore 460 334 pd ItalianPlacement;
#X connect 8 0 7 0;
#X connect 9 0 4 0;
#X connect 10 0 5 0;
#X connect 11 0 6 0;
#X connect 13 0 14 0;
#X connect 13 0 15 0;
#X connect 19 0 20 0;
