#N canvas 0 100 1440 800 10;
#X obj 58 294 bng 15 250 50 0 empty empty empty 17 7 0 10 -262144 -1
-1;
#X obj 58 340 s NativiteInit;
#N canvas 513 100 850 796 NativiteFondInit 0;
#X obj 234 572 send OSC_MESSAGES;
#X obj 114 499 list prepend;
#X obj 71 43 bng 15 250 50 0 empty empty empty 17 7 0 10 -262144 -1
-1;
#X obj 114 522 l2s /;
#X msg 114 132 File;
#X obj 234 539 list;
#X msg 114 109 Zpos;
#X msg 114 326 RenderOrder;
#X msg 114 369 Yscale;
#X msg 114 389 Xscale;
#X msg 114 409 Ypos;
#X msg 114 429 Xpos;
#X msg 114 225 Blue;
#X msg 114 184 Red;
#X msg 114 205 Green;
#X msg 114 305 modeAlpha;
#X msg 114 348 Shape;
#X msg 114 245 Rotate;
#X msg 114 284 Alpha;
#X msg 114 264 Activate;
#X obj 71 62 t b b b;
#X obj 56 115 t b b b;
#X obj 56 309 t b b b;
#X obj 56 352 t b b b;
#X obj 56 372 t b b b;
#X obj 56 392 t b b b;
#X obj 56 412 t b b b;
#X obj 17 331 t b b b;
#X obj 16 288 t b b b;
#X obj 56 267 t b b b;
#X obj 56 247 t b b b;
#X obj 56 228 t b b b;
#X obj 56 208 t b b b;
#X obj 56 188 t b b b;
#X obj 56 167 t b b b;
#X msg 255 245 0;
#X msg 255 284 1;
#X msg 255 184 1;
#X msg 114 449 ParentName;
#X msg 255 449 /Dummy;
#X msg 114 469 g*pos;
#X msg 255 469 0;
#X obj 56 432 t b b b;
#X obj 56 452 t b b b;
#X msg 255 326 -28;
#X msg 255 109 -3.039;
#X msg 255 264 1;
#X msg 255 429 0;
#X msg 183 79 /Cochon;
#X msg 255 132 /home/woii/2013_Sebkha-ChottGalootFormula_ThingFish/ThingFishVideoDecorum/Nativite/data/2013_07_05_Scene8_PLAN2.png
;
#X msg 255 205 1;
#X msg 255 225 1;
#X msg 255 389 6.5;
#X msg 255 369 3.1525;
#X msg 255 409 -0.5;
#X obj 71 22 r NativiteInit;
#X connect 1 0 3 0;
#X connect 2 0 20 0;
#X connect 3 0 5 0;
#X connect 4 0 1 0;
#X connect 5 0 0 0;
#X connect 6 0 1 0;
#X connect 7 0 1 0;
#X connect 8 0 1 0;
#X connect 9 0 1 0;
#X connect 10 0 1 0;
#X connect 11 0 1 0;
#X connect 12 0 1 0;
#X connect 13 0 1 0;
#X connect 14 0 1 0;
#X connect 15 0 1 0;
#X connect 17 0 1 0;
#X connect 18 0 1 0;
#X connect 19 0 1 0;
#X connect 20 0 6 0;
#X connect 20 0 21 0;
#X connect 20 1 45 0;
#X connect 20 2 48 0;
#X connect 21 0 34 0;
#X connect 21 1 4 0;
#X connect 21 2 49 0;
#X connect 22 0 23 0;
#X connect 22 1 7 0;
#X connect 22 2 44 0;
#X connect 23 0 24 0;
#X connect 23 1 8 0;
#X connect 23 2 53 0;
#X connect 24 0 25 0;
#X connect 24 1 9 0;
#X connect 24 2 52 0;
#X connect 25 0 26 0;
#X connect 25 1 10 0;
#X connect 25 2 54 0;
#X connect 26 0 42 0;
#X connect 26 1 11 0;
#X connect 26 2 47 0;
#X connect 27 1 16 0;
#X connect 28 1 15 0;
#X connect 29 0 22 0;
#X connect 29 1 18 0;
#X connect 29 2 36 0;
#X connect 30 0 29 0;
#X connect 30 1 19 0;
#X connect 30 2 46 0;
#X connect 31 0 30 0;
#X connect 31 1 17 0;
#X connect 31 2 35 0;
#X connect 32 0 31 0;
#X connect 32 1 12 0;
#X connect 32 2 51 0;
#X connect 33 0 32 0;
#X connect 33 1 14 0;
#X connect 33 2 50 0;
#X connect 34 0 33 0;
#X connect 34 1 13 0;
#X connect 34 2 37 0;
#X connect 35 0 5 1;
#X connect 36 0 5 1;
#X connect 37 0 5 1;
#X connect 38 0 1 0;
#X connect 39 0 5 1;
#X connect 40 0 1 0;
#X connect 41 0 5 1;
#X connect 42 0 43 0;
#X connect 42 1 38 0;
#X connect 42 2 39 0;
#X connect 43 1 40 0;
#X connect 43 2 41 0;
#X connect 44 0 5 1;
#X connect 45 0 5 1;
#X connect 46 0 5 1;
#X connect 47 0 5 1;
#X connect 48 0 1 1;
#X connect 49 0 5 1;
#X connect 50 0 5 1;
#X connect 51 0 5 1;
#X connect 52 0 5 1;
#X connect 53 0 5 1;
#X connect 54 0 5 1;
#X connect 55 0 2 0;
#X restore 61 31 pd NativiteFondInit;
#N canvas 515 100 850 796 NativiteFondDevantZappaInit 0;
#X obj 234 572 send OSC_MESSAGES;
#X obj 114 499 list prepend;
#X obj 71 43 bng 15 250 50 0 empty empty empty 17 7 0 10 -262144 -1
-1;
#X obj 114 522 l2s /;
#X msg 114 132 File;
#X obj 234 539 list;
#X msg 114 109 Zpos;
#X msg 114 326 RenderOrder;
#X msg 114 369 Yscale;
#X msg 114 389 Xscale;
#X msg 114 409 Ypos;
#X msg 114 429 Xpos;
#X msg 114 225 Blue;
#X msg 114 184 Red;
#X msg 114 205 Green;
#X msg 114 305 modeAlpha;
#X msg 114 348 Shape;
#X msg 114 245 Rotate;
#X msg 114 284 Alpha;
#X msg 114 264 Activate;
#X obj 71 62 t b b b;
#X obj 56 115 t b b b;
#X obj 56 309 t b b b;
#X obj 56 352 t b b b;
#X obj 56 372 t b b b;
#X obj 56 392 t b b b;
#X obj 56 412 t b b b;
#X obj 17 331 t b b b;
#X obj 16 288 t b b b;
#X obj 56 267 t b b b;
#X obj 56 247 t b b b;
#X obj 56 228 t b b b;
#X obj 56 208 t b b b;
#X obj 56 188 t b b b;
#X obj 56 167 t b b b;
#X msg 255 245 0;
#X msg 255 284 1;
#X msg 255 184 1;
#X msg 114 449 ParentName;
#X msg 255 449 /Dummy;
#X msg 114 469 g*pos;
#X msg 255 469 0;
#X obj 56 432 t b b b;
#X obj 56 452 t b b b;
#X msg 255 264 1;
#X msg 255 429 0;
#X msg 255 205 1;
#X msg 255 225 1;
#X msg 255 389 6.5;
#X msg 255 369 3.1525;
#X msg 255 409 -0.5;
#X msg 183 79 /CochonLights;
#X msg 255 132 /home/woii/2013_Sebkha-ChottGalootFormula_ThingFish/ThingFishVideoDecorum/Nativite/data/2013_07_05_Scene8_PLAN1.png
;
#X msg 255 109 -3.033;
#X msg 255 326 -23;
#X obj 71 22 r NativiteInit;
#X connect 1 0 3 0;
#X connect 2 0 20 0;
#X connect 3 0 5 0;
#X connect 4 0 1 0;
#X connect 5 0 0 0;
#X connect 6 0 1 0;
#X connect 7 0 1 0;
#X connect 8 0 1 0;
#X connect 9 0 1 0;
#X connect 10 0 1 0;
#X connect 11 0 1 0;
#X connect 12 0 1 0;
#X connect 13 0 1 0;
#X connect 14 0 1 0;
#X connect 15 0 1 0;
#X connect 17 0 1 0;
#X connect 18 0 1 0;
#X connect 19 0 1 0;
#X connect 20 0 6 0;
#X connect 20 0 21 0;
#X connect 20 1 53 0;
#X connect 20 2 51 0;
#X connect 21 0 34 0;
#X connect 21 1 4 0;
#X connect 21 2 52 0;
#X connect 22 0 23 0;
#X connect 22 1 7 0;
#X connect 22 2 54 0;
#X connect 23 0 24 0;
#X connect 23 1 8 0;
#X connect 23 2 49 0;
#X connect 24 0 25 0;
#X connect 24 1 9 0;
#X connect 24 2 48 0;
#X connect 25 0 26 0;
#X connect 25 1 10 0;
#X connect 25 2 50 0;
#X connect 26 0 42 0;
#X connect 26 1 11 0;
#X connect 26 2 45 0;
#X connect 27 1 16 0;
#X connect 28 1 15 0;
#X connect 29 0 22 0;
#X connect 29 1 18 0;
#X connect 29 2 36 0;
#X connect 30 0 29 0;
#X connect 30 1 19 0;
#X connect 30 2 44 0;
#X connect 31 0 30 0;
#X connect 31 1 17 0;
#X connect 31 2 35 0;
#X connect 32 0 31 0;
#X connect 32 1 12 0;
#X connect 32 2 47 0;
#X connect 33 0 32 0;
#X connect 33 1 14 0;
#X connect 33 2 46 0;
#X connect 34 0 33 0;
#X connect 34 1 13 0;
#X connect 34 2 37 0;
#X connect 35 0 5 1;
#X connect 36 0 5 1;
#X connect 37 0 5 1;
#X connect 38 0 1 0;
#X connect 39 0 5 1;
#X connect 40 0 1 0;
#X connect 41 0 5 1;
#X connect 42 0 43 0;
#X connect 42 1 38 0;
#X connect 42 2 39 0;
#X connect 43 1 40 0;
#X connect 43 2 41 0;
#X connect 44 0 5 1;
#X connect 45 0 5 1;
#X connect 46 0 5 1;
#X connect 47 0 5 1;
#X connect 48 0 5 1;
#X connect 49 0 5 1;
#X connect 50 0 5 1;
#X connect 51 0 1 1;
#X connect 52 0 5 1;
#X connect 53 0 5 1;
#X connect 54 0 5 1;
#X connect 55 0 2 0;
#X restore 61 51 pd NativiteFondDevantZappaInit;
#N canvas 513 100 850 796 NativiteLampionsInit 0;
#X obj 234 572 send OSC_MESSAGES;
#X obj 114 499 list prepend;
#X obj 71 43 bng 15 250 50 0 empty empty empty 17 7 0 10 -262144 -1
-1;
#X obj 114 522 l2s /;
#X msg 114 132 File;
#X obj 234 539 list;
#X msg 114 109 Zpos;
#X msg 114 326 RenderOrder;
#X msg 114 369 Yscale;
#X msg 114 389 Xscale;
#X msg 114 409 Ypos;
#X msg 114 429 Xpos;
#X msg 114 225 Blue;
#X msg 114 184 Red;
#X msg 114 205 Green;
#X msg 114 305 modeAlpha;
#X msg 114 348 Shape;
#X msg 114 245 Rotate;
#X msg 114 284 Alpha;
#X msg 114 264 Activate;
#X obj 71 62 t b b b;
#X obj 56 115 t b b b;
#X obj 56 309 t b b b;
#X obj 56 352 t b b b;
#X obj 56 372 t b b b;
#X obj 56 392 t b b b;
#X obj 56 412 t b b b;
#X obj 17 331 t b b b;
#X obj 16 288 t b b b;
#X obj 56 267 t b b b;
#X obj 56 247 t b b b;
#X obj 56 228 t b b b;
#X obj 56 208 t b b b;
#X obj 56 188 t b b b;
#X obj 56 167 t b b b;
#X msg 255 245 0;
#X msg 255 284 1;
#X msg 255 184 1;
#X msg 114 449 ParentName;
#X msg 255 449 /Dummy;
#X msg 114 469 g*pos;
#X msg 255 469 0;
#X obj 56 432 t b b b;
#X obj 56 452 t b b b;
#X msg 255 264 1;
#X msg 255 205 1;
#X msg 255 225 1;
#X obj 71 22 r NativiteInit;
#X msg 183 79 /WashMachine;
#X msg 255 109 -3.032;
#X msg 255 132 /home/woii/2013_Sebkha-ChottGalootFormula_ThingFish/ThingFishVideoDecorum/Nativite/data/2013_07_05_Creche2_lampions.png
;
#X msg 255 369 1.5;
#X msg 255 389 3;
#X msg 255 429 -1.4;
#X msg 255 409 -1.6;
#X msg 255 326 -22;
#X connect 1 0 3 0;
#X connect 2 0 20 0;
#X connect 3 0 5 0;
#X connect 4 0 1 0;
#X connect 5 0 0 0;
#X connect 6 0 1 0;
#X connect 7 0 1 0;
#X connect 8 0 1 0;
#X connect 9 0 1 0;
#X connect 10 0 1 0;
#X connect 11 0 1 0;
#X connect 12 0 1 0;
#X connect 13 0 1 0;
#X connect 14 0 1 0;
#X connect 15 0 1 0;
#X connect 17 0 1 0;
#X connect 18 0 1 0;
#X connect 19 0 1 0;
#X connect 20 0 6 0;
#X connect 20 0 21 0;
#X connect 20 1 49 0;
#X connect 20 2 48 0;
#X connect 21 0 34 0;
#X connect 21 1 4 0;
#X connect 21 2 50 0;
#X connect 22 0 23 0;
#X connect 22 1 7 0;
#X connect 22 2 55 0;
#X connect 23 0 24 0;
#X connect 23 1 8 0;
#X connect 23 2 51 0;
#X connect 24 0 25 0;
#X connect 24 1 9 0;
#X connect 24 2 52 0;
#X connect 25 0 26 0;
#X connect 25 1 10 0;
#X connect 25 2 54 0;
#X connect 26 0 42 0;
#X connect 26 1 11 0;
#X connect 26 2 53 0;
#X connect 27 1 16 0;
#X connect 28 1 15 0;
#X connect 29 0 22 0;
#X connect 29 1 18 0;
#X connect 29 2 36 0;
#X connect 30 0 29 0;
#X connect 30 1 19 0;
#X connect 30 2 44 0;
#X connect 31 0 30 0;
#X connect 31 1 17 0;
#X connect 31 2 35 0;
#X connect 32 0 31 0;
#X connect 32 1 12 0;
#X connect 32 2 46 0;
#X connect 33 0 32 0;
#X connect 33 1 14 0;
#X connect 33 2 45 0;
#X connect 34 0 33 0;
#X connect 34 1 13 0;
#X connect 34 2 37 0;
#X connect 35 0 5 1;
#X connect 36 0 5 1;
#X connect 37 0 5 1;
#X connect 38 0 1 0;
#X connect 39 0 5 1;
#X connect 40 0 1 0;
#X connect 41 0 5 1;
#X connect 42 0 43 0;
#X connect 42 1 38 0;
#X connect 42 2 39 0;
#X connect 43 1 40 0;
#X connect 43 2 41 0;
#X connect 44 0 5 1;
#X connect 45 0 5 1;
#X connect 46 0 5 1;
#X connect 47 0 2 0;
#X connect 48 0 1 1;
#X connect 49 0 5 1;
#X connect 50 0 5 1;
#X connect 51 0 5 1;
#X connect 52 0 5 1;
#X connect 53 0 5 1;
#X connect 54 0 5 1;
#X connect 55 0 5 1;
#X restore 61 71 pd NativiteLampionsInit;
#N canvas 511 100 850 796 NativiteLuneInit 0;
#X obj 234 572 send OSC_MESSAGES;
#X obj 114 499 list prepend;
#X obj 71 43 bng 15 250 50 0 empty empty empty 17 7 0 10 -262144 -1
-1;
#X obj 114 522 l2s /;
#X msg 114 132 File;
#X obj 234 539 list;
#X msg 114 109 Zpos;
#X msg 114 326 RenderOrder;
#X msg 114 369 Yscale;
#X msg 114 389 Xscale;
#X msg 114 409 Ypos;
#X msg 114 429 Xpos;
#X msg 114 225 Blue;
#X msg 114 184 Red;
#X msg 114 205 Green;
#X msg 114 305 modeAlpha;
#X msg 114 348 Shape;
#X msg 114 245 Rotate;
#X msg 114 284 Alpha;
#X msg 114 264 Activate;
#X obj 71 62 t b b b;
#X obj 56 115 t b b b;
#X obj 56 309 t b b b;
#X obj 56 352 t b b b;
#X obj 56 372 t b b b;
#X obj 56 392 t b b b;
#X obj 56 412 t b b b;
#X obj 17 331 t b b b;
#X obj 16 288 t b b b;
#X obj 56 267 t b b b;
#X obj 56 247 t b b b;
#X obj 56 228 t b b b;
#X obj 56 208 t b b b;
#X obj 56 188 t b b b;
#X obj 56 167 t b b b;
#X msg 255 245 0;
#X msg 255 284 1;
#X msg 255 184 1;
#X msg 114 449 ParentName;
#X msg 255 449 /Dummy;
#X msg 114 469 g*pos;
#X msg 255 469 0;
#X obj 56 432 t b b b;
#X obj 56 452 t b b b;
#X msg 255 264 1;
#X msg 255 205 1;
#X msg 255 225 1;
#X obj 71 22 r NativiteInit;
#X msg 255 109 -3.032;
#X msg 255 369 1.5;
#X msg 255 326 -22;
#X msg 255 132 /home/woii/2013_Sebkha-ChottGalootFormula_ThingFish/ThingFishVideoDecorum/Nativite/data/2013_07_05_Scene8_Lune.png
;
#X msg 183 79 /Djbebe;
#X msg 255 429 2;
#X msg 255 389 1.5;
#X msg 255 409 1.95;
#X connect 1 0 3 0;
#X connect 2 0 20 0;
#X connect 3 0 5 0;
#X connect 4 0 1 0;
#X connect 5 0 0 0;
#X connect 6 0 1 0;
#X connect 7 0 1 0;
#X connect 8 0 1 0;
#X connect 9 0 1 0;
#X connect 10 0 1 0;
#X connect 11 0 1 0;
#X connect 12 0 1 0;
#X connect 13 0 1 0;
#X connect 14 0 1 0;
#X connect 15 0 1 0;
#X connect 17 0 1 0;
#X connect 18 0 1 0;
#X connect 19 0 1 0;
#X connect 20 0 6 0;
#X connect 20 0 21 0;
#X connect 20 1 48 0;
#X connect 20 2 52 0;
#X connect 21 0 34 0;
#X connect 21 1 4 0;
#X connect 21 2 51 0;
#X connect 22 0 23 0;
#X connect 22 1 7 0;
#X connect 22 2 50 0;
#X connect 23 0 24 0;
#X connect 23 1 8 0;
#X connect 23 2 49 0;
#X connect 24 0 25 0;
#X connect 24 1 9 0;
#X connect 24 2 54 0;
#X connect 25 0 26 0;
#X connect 25 1 10 0;
#X connect 25 2 55 0;
#X connect 26 0 42 0;
#X connect 26 1 11 0;
#X connect 26 2 53 0;
#X connect 27 1 16 0;
#X connect 28 1 15 0;
#X connect 29 0 22 0;
#X connect 29 1 18 0;
#X connect 29 2 36 0;
#X connect 30 0 29 0;
#X connect 30 1 19 0;
#X connect 30 2 44 0;
#X connect 31 0 30 0;
#X connect 31 1 17 0;
#X connect 31 2 35 0;
#X connect 32 0 31 0;
#X connect 32 1 12 0;
#X connect 32 2 46 0;
#X connect 33 0 32 0;
#X connect 33 1 14 0;
#X connect 33 2 45 0;
#X connect 34 0 33 0;
#X connect 34 1 13 0;
#X connect 34 2 37 0;
#X connect 35 0 5 1;
#X connect 36 0 5 1;
#X connect 37 0 5 1;
#X connect 38 0 1 0;
#X connect 39 0 5 1;
#X connect 40 0 1 0;
#X connect 41 0 5 1;
#X connect 42 0 43 0;
#X connect 42 1 38 0;
#X connect 42 2 39 0;
#X connect 43 1 40 0;
#X connect 43 2 41 0;
#X connect 44 0 5 1;
#X connect 45 0 5 1;
#X connect 46 0 5 1;
#X connect 47 0 2 0;
#X connect 48 0 5 1;
#X connect 49 0 5 1;
#X connect 50 0 5 1;
#X connect 51 0 5 1;
#X connect 52 0 1 1;
#X connect 53 0 5 1;
#X connect 54 0 5 1;
#X connect 55 0 5 1;
#X restore 61 91 pd NativiteLuneInit;
#N canvas 499 100 850 796 NativiteCGBInit 0;
#X obj 234 572 send OSC_MESSAGES;
#X obj 114 499 list prepend;
#X obj 71 43 bng 15 250 50 0 empty empty empty 17 7 0 10 -262144 -1
-1;
#X obj 114 522 l2s /;
#X msg 114 132 File;
#X obj 234 539 list;
#X msg 114 109 Zpos;
#X msg 114 326 RenderOrder;
#X msg 114 369 Yscale;
#X msg 114 389 Xscale;
#X msg 114 409 Ypos;
#X msg 114 429 Xpos;
#X msg 114 225 Blue;
#X msg 114 184 Red;
#X msg 114 205 Green;
#X msg 114 305 modeAlpha;
#X msg 114 348 Shape;
#X msg 114 245 Rotate;
#X msg 114 284 Alpha;
#X msg 114 264 Activate;
#X obj 71 62 t b b b;
#X obj 56 115 t b b b;
#X obj 56 309 t b b b;
#X obj 56 352 t b b b;
#X obj 56 372 t b b b;
#X obj 56 392 t b b b;
#X obj 56 412 t b b b;
#X obj 17 331 t b b b;
#X obj 16 288 t b b b;
#X obj 56 267 t b b b;
#X obj 56 247 t b b b;
#X obj 56 228 t b b b;
#X obj 56 208 t b b b;
#X obj 56 188 t b b b;
#X obj 56 167 t b b b;
#X msg 255 284 1;
#X msg 255 184 1;
#X msg 114 449 ParentName;
#X msg 255 449 /Dummy;
#X msg 114 469 g*pos;
#X msg 255 469 0;
#X obj 56 432 t b b b;
#X obj 56 452 t b b b;
#X msg 255 264 1;
#X msg 255 205 1;
#X msg 255 225 1;
#X obj 71 22 r NativiteInit;
#X msg 255 109 -3.029;
#X msg 255 326 -19;
#X msg 255 132 /home/woii/2013_Sebkha-ChottGalootFormula_ThingFish/ThingFishVideoDecorum/Nativite/data/CGB_tete.png
;
#X msg 255 409 -1.9;
#X msg 255 429 -1.37;
#X msg 183 79 /Assiette_Bush;
#X msg 255 245 0;
#X msg 255 369 0.57552;
#X msg 255 389 0.41783;
#X connect 1 0 3 0;
#X connect 2 0 20 0;
#X connect 3 0 5 0;
#X connect 4 0 1 0;
#X connect 5 0 0 0;
#X connect 6 0 1 0;
#X connect 7 0 1 0;
#X connect 8 0 1 0;
#X connect 9 0 1 0;
#X connect 10 0 1 0;
#X connect 11 0 1 0;
#X connect 12 0 1 0;
#X connect 13 0 1 0;
#X connect 14 0 1 0;
#X connect 15 0 1 0;
#X connect 17 0 1 0;
#X connect 18 0 1 0;
#X connect 19 0 1 0;
#X connect 20 0 6 0;
#X connect 20 0 21 0;
#X connect 20 1 47 0;
#X connect 20 2 52 0;
#X connect 21 0 34 0;
#X connect 21 1 4 0;
#X connect 21 2 49 0;
#X connect 22 0 23 0;
#X connect 22 1 7 0;
#X connect 22 2 48 0;
#X connect 23 0 24 0;
#X connect 23 1 8 0;
#X connect 23 2 54 0;
#X connect 24 0 25 0;
#X connect 24 1 9 0;
#X connect 24 2 55 0;
#X connect 25 0 26 0;
#X connect 25 1 10 0;
#X connect 25 2 50 0;
#X connect 26 0 41 0;
#X connect 26 1 11 0;
#X connect 26 2 51 0;
#X connect 27 1 16 0;
#X connect 28 1 15 0;
#X connect 29 0 22 0;
#X connect 29 1 18 0;
#X connect 29 2 35 0;
#X connect 30 0 29 0;
#X connect 30 1 19 0;
#X connect 30 2 43 0;
#X connect 31 0 30 0;
#X connect 31 1 17 0;
#X connect 31 2 53 0;
#X connect 32 0 31 0;
#X connect 32 1 12 0;
#X connect 32 2 45 0;
#X connect 33 0 32 0;
#X connect 33 1 14 0;
#X connect 33 2 44 0;
#X connect 34 0 33 0;
#X connect 34 1 13 0;
#X connect 34 2 36 0;
#X connect 35 0 5 1;
#X connect 36 0 5 1;
#X connect 37 0 1 0;
#X connect 38 0 5 1;
#X connect 39 0 1 0;
#X connect 40 0 5 1;
#X connect 41 0 42 0;
#X connect 41 1 37 0;
#X connect 41 2 38 0;
#X connect 42 1 39 0;
#X connect 42 2 40 0;
#X connect 43 0 5 1;
#X connect 44 0 5 1;
#X connect 45 0 5 1;
#X connect 46 0 2 0;
#X connect 47 0 5 1;
#X connect 48 0 5 1;
#X connect 49 0 5 1;
#X connect 50 0 5 1;
#X connect 51 0 5 1;
#X connect 52 0 1 1;
#X connect 53 0 5 1;
#X connect 54 0 5 1;
#X connect 55 0 5 1;
#X restore 61 151 pd NativiteCGBInit;
#N canvas 493 100 850 796 NativiteCGBKKKInit 0;
#X obj 234 572 send OSC_MESSAGES;
#X obj 114 499 list prepend;
#X obj 71 43 bng 15 250 50 0 empty empty empty 17 7 0 10 -262144 -1
-1;
#X obj 114 522 l2s /;
#X msg 114 132 File;
#X obj 234 539 list;
#X msg 114 109 Zpos;
#X msg 114 326 RenderOrder;
#X msg 114 369 Yscale;
#X msg 114 389 Xscale;
#X msg 114 409 Ypos;
#X msg 114 429 Xpos;
#X msg 114 225 Blue;
#X msg 114 184 Red;
#X msg 114 205 Green;
#X msg 114 305 modeAlpha;
#X msg 114 348 Shape;
#X msg 114 245 Rotate;
#X msg 114 284 Alpha;
#X msg 114 264 Activate;
#X obj 71 62 t b b b;
#X obj 56 115 t b b b;
#X obj 56 309 t b b b;
#X obj 56 352 t b b b;
#X obj 56 372 t b b b;
#X obj 56 392 t b b b;
#X obj 56 412 t b b b;
#X obj 17 331 t b b b;
#X obj 16 288 t b b b;
#X obj 56 267 t b b b;
#X obj 56 247 t b b b;
#X obj 56 228 t b b b;
#X obj 56 208 t b b b;
#X obj 56 188 t b b b;
#X obj 56 167 t b b b;
#X msg 255 245 0;
#X msg 255 284 1;
#X msg 255 184 1;
#X msg 114 449 ParentName;
#X msg 255 449 /Dummy;
#X msg 114 469 g*pos;
#X msg 255 469 0;
#X obj 56 432 t b b b;
#X obj 56 452 t b b b;
#X msg 255 205 1;
#X obj 71 22 r NativiteInit;
#X msg 255 429 -1.37;
#X msg 255 132 /home/woii/2013_Sebkha-ChottGalootFormula_ThingFish/ThingFishVideoDecorum/Nativite/data/CGB_tete_KKK.png
;
#X msg 255 109 -3.0285;
#X msg 255 326 -18;
#X msg 183 79 /Assiette_Gail;
#X msg 255 225 1;
#X msg 255 369 1.3;
#X msg 255 389 1.3;
#X msg 255 409 -2.1;
#X msg 255 264 0;
#X connect 1 0 3 0;
#X connect 2 0 20 0;
#X connect 3 0 5 0;
#X connect 4 0 1 0;
#X connect 5 0 0 0;
#X connect 6 0 1 0;
#X connect 7 0 1 0;
#X connect 8 0 1 0;
#X connect 9 0 1 0;
#X connect 10 0 1 0;
#X connect 11 0 1 0;
#X connect 12 0 1 0;
#X connect 13 0 1 0;
#X connect 14 0 1 0;
#X connect 15 0 1 0;
#X connect 17 0 1 0;
#X connect 18 0 1 0;
#X connect 19 0 1 0;
#X connect 20 0 6 0;
#X connect 20 0 21 0;
#X connect 20 1 48 0;
#X connect 20 2 50 0;
#X connect 21 0 34 0;
#X connect 21 1 4 0;
#X connect 21 2 47 0;
#X connect 22 0 23 0;
#X connect 22 1 7 0;
#X connect 22 2 49 0;
#X connect 23 0 24 0;
#X connect 23 1 8 0;
#X connect 23 2 52 0;
#X connect 24 0 25 0;
#X connect 24 1 9 0;
#X connect 24 2 53 0;
#X connect 25 0 26 0;
#X connect 25 1 10 0;
#X connect 25 2 54 0;
#X connect 26 0 42 0;
#X connect 26 1 11 0;
#X connect 26 2 46 0;
#X connect 27 1 16 0;
#X connect 28 1 15 0;
#X connect 29 0 22 0;
#X connect 29 1 18 0;
#X connect 29 2 36 0;
#X connect 30 0 29 0;
#X connect 30 1 19 0;
#X connect 30 2 55 0;
#X connect 31 0 30 0;
#X connect 31 1 17 0;
#X connect 31 2 35 0;
#X connect 32 0 31 0;
#X connect 32 1 12 0;
#X connect 32 2 51 0;
#X connect 33 0 32 0;
#X connect 33 1 14 0;
#X connect 33 2 44 0;
#X connect 34 0 33 0;
#X connect 34 1 13 0;
#X connect 34 2 37 0;
#X connect 35 0 5 1;
#X connect 36 0 5 1;
#X connect 37 0 5 1;
#X connect 38 0 1 0;
#X connect 39 0 5 1;
#X connect 40 0 1 0;
#X connect 41 0 5 1;
#X connect 42 0 43 0;
#X connect 42 1 38 0;
#X connect 42 2 39 0;
#X connect 43 1 40 0;
#X connect 43 2 41 0;
#X connect 44 0 5 1;
#X connect 45 0 2 0;
#X connect 46 0 5 1;
#X connect 47 0 5 1;
#X connect 48 0 5 1;
#X connect 49 0 5 1;
#X connect 50 0 1 1;
#X connect 51 0 5 1;
#X connect 52 0 5 1;
#X connect 53 0 5 1;
#X connect 54 0 5 1;
#X connect 55 0 5 1;
#X restore 61 171 pd NativiteCGBKKKInit;
#N canvas 509 100 850 796 NativiteGirafeInit 0;
#X obj 234 572 send OSC_MESSAGES;
#X obj 114 499 list prepend;
#X obj 71 43 bng 15 250 50 0 empty empty empty 17 7 0 10 -262144 -1
-1;
#X obj 114 522 l2s /;
#X msg 114 132 File;
#X obj 234 539 list;
#X msg 114 109 Zpos;
#X msg 114 326 RenderOrder;
#X msg 114 369 Yscale;
#X msg 114 389 Xscale;
#X msg 114 409 Ypos;
#X msg 114 429 Xpos;
#X msg 114 225 Blue;
#X msg 114 184 Red;
#X msg 114 205 Green;
#X msg 114 305 modeAlpha;
#X msg 114 348 Shape;
#X msg 114 245 Rotate;
#X msg 114 284 Alpha;
#X msg 114 264 Activate;
#X obj 71 62 t b b b;
#X obj 56 115 t b b b;
#X obj 56 309 t b b b;
#X obj 56 352 t b b b;
#X obj 56 372 t b b b;
#X obj 56 392 t b b b;
#X obj 56 412 t b b b;
#X obj 17 331 t b b b;
#X obj 16 288 t b b b;
#X obj 56 267 t b b b;
#X obj 56 247 t b b b;
#X obj 56 228 t b b b;
#X obj 56 208 t b b b;
#X obj 56 188 t b b b;
#X obj 56 167 t b b b;
#X msg 255 284 1;
#X msg 255 184 1;
#X msg 114 449 ParentName;
#X msg 255 449 /Dummy;
#X msg 114 469 g*pos;
#X msg 255 469 0;
#X obj 56 432 t b b b;
#X obj 56 452 t b b b;
#X msg 255 264 1;
#X msg 255 205 1;
#X obj 71 22 r NativiteInit;
#X msg 255 326 -22;
#X msg 183 79 /Tube;
#X msg 255 109 -3.038;
#X msg 255 132 /home/woii/2013_Sebkha-ChottGalootFormula_ThingFish/ThingFishVideoDecorum/Nativite/data/girafe.png
;
#X msg 255 369 0.5;
#X msg 255 389 0.5;
#X msg 255 225 0;
#X msg 255 409 -0.95;
#X msg 255 245 210;
#X msg 255 429 -0.7;
#X connect 1 0 3 0;
#X connect 2 0 20 0;
#X connect 3 0 5 0;
#X connect 4 0 1 0;
#X connect 5 0 0 0;
#X connect 6 0 1 0;
#X connect 7 0 1 0;
#X connect 8 0 1 0;
#X connect 9 0 1 0;
#X connect 10 0 1 0;
#X connect 11 0 1 0;
#X connect 12 0 1 0;
#X connect 13 0 1 0;
#X connect 14 0 1 0;
#X connect 15 0 1 0;
#X connect 17 0 1 0;
#X connect 18 0 1 0;
#X connect 19 0 1 0;
#X connect 20 0 6 0;
#X connect 20 0 21 0;
#X connect 20 1 48 0;
#X connect 20 2 47 0;
#X connect 21 0 34 0;
#X connect 21 1 4 0;
#X connect 21 2 49 0;
#X connect 22 0 23 0;
#X connect 22 1 7 0;
#X connect 22 2 46 0;
#X connect 23 0 24 0;
#X connect 23 1 8 0;
#X connect 23 2 50 0;
#X connect 24 0 25 0;
#X connect 24 1 9 0;
#X connect 24 2 51 0;
#X connect 25 0 26 0;
#X connect 25 1 10 0;
#X connect 25 2 53 0;
#X connect 26 0 41 0;
#X connect 26 1 11 0;
#X connect 26 2 55 0;
#X connect 27 1 16 0;
#X connect 28 1 15 0;
#X connect 29 0 22 0;
#X connect 29 1 18 0;
#X connect 29 2 35 0;
#X connect 30 0 29 0;
#X connect 30 1 19 0;
#X connect 30 2 43 0;
#X connect 31 0 30 0;
#X connect 31 1 17 0;
#X connect 31 2 54 0;
#X connect 32 0 31 0;
#X connect 32 1 12 0;
#X connect 32 2 52 0;
#X connect 33 0 32 0;
#X connect 33 1 14 0;
#X connect 33 2 44 0;
#X connect 34 0 33 0;
#X connect 34 1 13 0;
#X connect 34 2 36 0;
#X connect 35 0 5 1;
#X connect 36 0 5 1;
#X connect 37 0 1 0;
#X connect 38 0 5 1;
#X connect 39 0 1 0;
#X connect 40 0 5 1;
#X connect 41 0 42 0;
#X connect 41 1 37 0;
#X connect 41 2 38 0;
#X connect 42 1 39 0;
#X connect 42 2 40 0;
#X connect 43 0 5 1;
#X connect 44 0 5 1;
#X connect 45 0 2 0;
#X connect 46 0 5 1;
#X connect 47 0 1 1;
#X connect 48 0 5 1;
#X connect 49 0 5 1;
#X connect 50 0 5 1;
#X connect 51 0 5 1;
#X connect 52 0 5 1;
#X connect 53 0 5 1;
#X connect 54 0 5 1;
#X connect 55 0 5 1;
#X restore 61 111 pd NativiteGirafeInit;
#N canvas 499 100 850 796 NativiteBulleInit 0;
#X obj 234 613 send OSC_MESSAGES;
#X obj 114 540 list prepend;
#X obj 71 43 bng 15 250 50 0 empty empty empty 17 7 0 10 -262144 -1
-1;
#X obj 114 563 l2s /;
#X msg 114 132 File;
#X obj 234 580 list;
#X msg 114 109 Zpos;
#X msg 114 326 RenderOrder;
#X msg 114 369 Yscale;
#X msg 114 389 Xscale;
#X msg 114 409 Ypos;
#X msg 114 429 Xpos;
#X msg 114 225 Blue;
#X msg 114 184 Red;
#X msg 114 205 Green;
#X msg 114 305 modeAlpha;
#X msg 114 348 Shape;
#X msg 114 245 Rotate;
#X msg 114 284 Alpha;
#X msg 114 264 Activate;
#X obj 71 62 t b b b;
#X obj 56 115 t b b b;
#X obj 56 309 t b b b;
#X obj 56 352 t b b b;
#X obj 56 372 t b b b;
#X obj 56 392 t b b b;
#X obj 56 412 t b b b;
#X obj 17 331 t b b b;
#X obj 16 288 t b b b;
#X obj 56 267 t b b b;
#X obj 56 247 t b b b;
#X obj 56 228 t b b b;
#X obj 56 208 t b b b;
#X obj 56 188 t b b b;
#X obj 56 167 t b b b;
#X msg 255 284 1;
#X msg 255 184 1;
#X msg 114 449 ParentName;
#X msg 255 449 /Dummy;
#X msg 114 469 g*pos;
#X msg 255 469 0;
#X obj 56 432 t b b b;
#X obj 56 452 t b b b;
#X msg 255 205 1;
#X obj 71 22 r NativiteInit;
#X msg 255 245 0;
#X msg 255 326 -15;
#X msg 255 109 -3.019;
#X msg 255 132 /home/woii/2013_Sebkha-ChottGalootFormula_ThingFish/ThingFishVideoDecorum/Nativite/data/bulle.png
;
#X msg 255 264 1;
#X msg 255 225 1;
#X msg 255 429 -1.3;
#X msg 255 409 -2.2;
#X obj 56 472 t b b b;
#X msg 114 489 Flip;
#X msg 255 489 1;
#X msg 255 389 0;
#X msg 255 369 0;
#X msg 183 79 /DunjonDoor[1-4];
#X connect 1 0 3 0;
#X connect 2 0 20 0;
#X connect 3 0 5 0;
#X connect 4 0 1 0;
#X connect 5 0 0 0;
#X connect 6 0 1 0;
#X connect 7 0 1 0;
#X connect 8 0 1 0;
#X connect 9 0 1 0;
#X connect 10 0 1 0;
#X connect 11 0 1 0;
#X connect 12 0 1 0;
#X connect 13 0 1 0;
#X connect 14 0 1 0;
#X connect 15 0 1 0;
#X connect 17 0 1 0;
#X connect 18 0 1 0;
#X connect 19 0 1 0;
#X connect 20 0 6 0;
#X connect 20 0 21 0;
#X connect 20 1 47 0;
#X connect 20 2 58 0;
#X connect 21 0 34 0;
#X connect 21 1 4 0;
#X connect 21 2 48 0;
#X connect 22 0 23 0;
#X connect 22 1 7 0;
#X connect 22 2 46 0;
#X connect 23 0 24 0;
#X connect 23 1 8 0;
#X connect 23 2 57 0;
#X connect 24 0 25 0;
#X connect 24 1 9 0;
#X connect 24 2 56 0;
#X connect 25 0 26 0;
#X connect 25 1 10 0;
#X connect 25 2 52 0;
#X connect 26 0 41 0;
#X connect 26 1 11 0;
#X connect 26 2 51 0;
#X connect 27 1 16 0;
#X connect 28 1 15 0;
#X connect 29 0 22 0;
#X connect 29 1 18 0;
#X connect 29 2 35 0;
#X connect 30 0 29 0;
#X connect 30 1 19 0;
#X connect 30 2 49 0;
#X connect 31 0 30 0;
#X connect 31 1 17 0;
#X connect 31 2 45 0;
#X connect 32 0 31 0;
#X connect 32 1 12 0;
#X connect 32 2 50 0;
#X connect 33 0 32 0;
#X connect 33 1 14 0;
#X connect 33 2 43 0;
#X connect 34 0 33 0;
#X connect 34 1 13 0;
#X connect 34 2 36 0;
#X connect 35 0 5 1;
#X connect 36 0 5 1;
#X connect 37 0 1 0;
#X connect 38 0 5 1;
#X connect 39 0 1 0;
#X connect 40 0 5 1;
#X connect 41 0 42 0;
#X connect 41 1 37 0;
#X connect 41 2 38 0;
#X connect 42 0 53 0;
#X connect 42 1 39 0;
#X connect 42 2 40 0;
#X connect 43 0 5 1;
#X connect 44 0 2 0;
#X connect 45 0 5 1;
#X connect 46 0 5 1;
#X connect 47 0 5 1;
#X connect 48 0 5 1;
#X connect 49 0 5 1;
#X connect 50 0 5 1;
#X connect 51 0 5 1;
#X connect 52 0 5 1;
#X connect 53 1 54 0;
#X connect 53 2 55 0;
#X connect 54 0 1 0;
#X connect 55 0 5 1;
#X connect 56 0 5 1;
#X connect 57 0 5 1;
#X connect 58 0 1 1;
#X restore 291 31 pd NativiteBulleInit;
#N canvas 501 100 850 796 NativiteBulleEtronsInit 0;
#X obj 234 572 send OSC_MESSAGES;
#X obj 114 499 list prepend;
#X obj 71 43 bng 15 250 50 0 empty empty empty 17 7 0 10 -262144 -1
-1;
#X obj 114 522 l2s /;
#X msg 114 132 File;
#X obj 234 539 list;
#X msg 114 109 Zpos;
#X msg 114 326 RenderOrder;
#X msg 114 369 Yscale;
#X msg 114 389 Xscale;
#X msg 114 409 Ypos;
#X msg 114 429 Xpos;
#X msg 114 225 Blue;
#X msg 114 184 Red;
#X msg 114 205 Green;
#X msg 114 305 modeAlpha;
#X msg 114 348 Shape;
#X msg 114 245 Rotate;
#X msg 114 284 Alpha;
#X msg 114 264 Activate;
#X obj 71 62 t b b b;
#X obj 56 115 t b b b;
#X obj 56 309 t b b b;
#X obj 56 352 t b b b;
#X obj 56 372 t b b b;
#X obj 56 392 t b b b;
#X obj 56 412 t b b b;
#X obj 17 331 t b b b;
#X obj 16 288 t b b b;
#X obj 56 267 t b b b;
#X obj 56 247 t b b b;
#X obj 56 228 t b b b;
#X obj 56 208 t b b b;
#X obj 56 188 t b b b;
#X obj 56 167 t b b b;
#X msg 255 284 1;
#X msg 255 184 1;
#X msg 114 449 ParentName;
#X msg 255 449 /Dummy;
#X msg 114 469 g*pos;
#X msg 255 469 0;
#X obj 56 432 t b b b;
#X obj 56 452 t b b b;
#X msg 255 205 1;
#X obj 71 22 r NativiteInit;
#X msg 255 245 0;
#X msg 255 264 1;
#X msg 255 225 1;
#X msg 255 429 -1.3;
#X msg 255 409 -2.2;
#X msg 255 369 0;
#X msg 255 389 0;
#X msg 183 79 /DunjonDoor1Cadre;
#X msg 255 109 -3.018;
#X msg 255 326 -14;
#X msg 255 132 /home/woii/2013_Sebkha-ChottGalootFormula_ThingFish/ThingFishVideoDecorum/Nativite/data/etron.png
;
#X connect 1 0 3 0;
#X connect 2 0 20 0;
#X connect 3 0 5 0;
#X connect 4 0 1 0;
#X connect 5 0 0 0;
#X connect 6 0 1 0;
#X connect 7 0 1 0;
#X connect 8 0 1 0;
#X connect 9 0 1 0;
#X connect 10 0 1 0;
#X connect 11 0 1 0;
#X connect 12 0 1 0;
#X connect 13 0 1 0;
#X connect 14 0 1 0;
#X connect 15 0 1 0;
#X connect 17 0 1 0;
#X connect 18 0 1 0;
#X connect 19 0 1 0;
#X connect 20 0 6 0;
#X connect 20 0 21 0;
#X connect 20 1 53 0;
#X connect 20 2 52 0;
#X connect 21 0 34 0;
#X connect 21 1 4 0;
#X connect 21 2 55 0;
#X connect 22 0 23 0;
#X connect 22 1 7 0;
#X connect 22 2 54 0;
#X connect 23 0 24 0;
#X connect 23 1 8 0;
#X connect 23 2 50 0;
#X connect 24 0 25 0;
#X connect 24 1 9 0;
#X connect 24 2 51 0;
#X connect 25 0 26 0;
#X connect 25 1 10 0;
#X connect 25 2 49 0;
#X connect 26 0 41 0;
#X connect 26 1 11 0;
#X connect 26 2 48 0;
#X connect 27 1 16 0;
#X connect 28 1 15 0;
#X connect 29 0 22 0;
#X connect 29 1 18 0;
#X connect 29 2 35 0;
#X connect 30 0 29 0;
#X connect 30 1 19 0;
#X connect 30 2 46 0;
#X connect 31 0 30 0;
#X connect 31 1 17 0;
#X connect 31 2 45 0;
#X connect 32 0 31 0;
#X connect 32 1 12 0;
#X connect 32 2 47 0;
#X connect 33 0 32 0;
#X connect 33 1 14 0;
#X connect 33 2 43 0;
#X connect 34 0 33 0;
#X connect 34 1 13 0;
#X connect 34 2 36 0;
#X connect 35 0 5 1;
#X connect 36 0 5 1;
#X connect 37 0 1 0;
#X connect 38 0 5 1;
#X connect 39 0 1 0;
#X connect 40 0 5 1;
#X connect 41 0 42 0;
#X connect 41 1 37 0;
#X connect 41 2 38 0;
#X connect 42 1 39 0;
#X connect 42 2 40 0;
#X connect 43 0 5 1;
#X connect 44 0 2 0;
#X connect 45 0 5 1;
#X connect 46 0 5 1;
#X connect 47 0 5 1;
#X connect 48 0 5 1;
#X connect 49 0 5 1;
#X connect 50 0 5 1;
#X connect 51 0 5 1;
#X connect 52 0 1 1;
#X connect 53 0 5 1;
#X connect 54 0 5 1;
#X connect 55 0 5 1;
#X restore 291 51 pd NativiteBulleEtronsInit;
#N canvas 503 100 850 796 NativiteBullePhallusInit 0;
#X obj 234 572 send OSC_MESSAGES;
#X obj 114 499 list prepend;
#X obj 71 43 bng 15 250 50 0 empty empty empty 17 7 0 10 -262144 -1
-1;
#X obj 114 522 l2s /;
#X msg 114 132 File;
#X obj 234 539 list;
#X msg 114 109 Zpos;
#X msg 114 326 RenderOrder;
#X msg 114 369 Yscale;
#X msg 114 389 Xscale;
#X msg 114 409 Ypos;
#X msg 114 429 Xpos;
#X msg 114 225 Blue;
#X msg 114 184 Red;
#X msg 114 205 Green;
#X msg 114 305 modeAlpha;
#X msg 114 348 Shape;
#X msg 114 245 Rotate;
#X msg 114 284 Alpha;
#X msg 114 264 Activate;
#X obj 71 62 t b b b;
#X obj 56 115 t b b b;
#X obj 56 309 t b b b;
#X obj 56 352 t b b b;
#X obj 56 372 t b b b;
#X obj 56 392 t b b b;
#X obj 56 412 t b b b;
#X obj 17 331 t b b b;
#X obj 16 288 t b b b;
#X obj 56 267 t b b b;
#X obj 56 247 t b b b;
#X obj 56 228 t b b b;
#X obj 56 208 t b b b;
#X obj 56 188 t b b b;
#X obj 56 167 t b b b;
#X msg 255 284 1;
#X msg 255 184 1;
#X msg 114 449 ParentName;
#X msg 255 449 /Dummy;
#X msg 114 469 g*pos;
#X msg 255 469 0;
#X obj 56 432 t b b b;
#X obj 56 452 t b b b;
#X msg 255 205 1;
#X obj 71 22 r NativiteInit;
#X msg 255 245 0;
#X msg 255 264 1;
#X msg 255 225 1;
#X msg 255 429 -1.3;
#X msg 255 409 -2.2;
#X msg 255 369 0;
#X msg 255 389 0;
#X msg 255 109 -3.018;
#X msg 255 326 -14;
#X msg 183 79 /DunjonDoor2Cadre;
#X msg 255 132 /home/woii/2013_Sebkha-ChottGalootFormula_ThingFish/ThingFishVideoDecorum/Nativite/data/phallus_colorisee.png
;
#X connect 1 0 3 0;
#X connect 2 0 20 0;
#X connect 3 0 5 0;
#X connect 4 0 1 0;
#X connect 5 0 0 0;
#X connect 6 0 1 0;
#X connect 7 0 1 0;
#X connect 8 0 1 0;
#X connect 9 0 1 0;
#X connect 10 0 1 0;
#X connect 11 0 1 0;
#X connect 12 0 1 0;
#X connect 13 0 1 0;
#X connect 14 0 1 0;
#X connect 15 0 1 0;
#X connect 17 0 1 0;
#X connect 18 0 1 0;
#X connect 19 0 1 0;
#X connect 20 0 6 0;
#X connect 20 0 21 0;
#X connect 20 1 52 0;
#X connect 20 2 54 0;
#X connect 21 0 34 0;
#X connect 21 1 4 0;
#X connect 21 2 55 0;
#X connect 22 0 23 0;
#X connect 22 1 7 0;
#X connect 22 2 53 0;
#X connect 23 0 24 0;
#X connect 23 1 8 0;
#X connect 23 2 50 0;
#X connect 24 0 25 0;
#X connect 24 1 9 0;
#X connect 24 2 51 0;
#X connect 25 0 26 0;
#X connect 25 1 10 0;
#X connect 25 2 49 0;
#X connect 26 0 41 0;
#X connect 26 1 11 0;
#X connect 26 2 48 0;
#X connect 27 1 16 0;
#X connect 28 1 15 0;
#X connect 29 0 22 0;
#X connect 29 1 18 0;
#X connect 29 2 35 0;
#X connect 30 0 29 0;
#X connect 30 1 19 0;
#X connect 30 2 46 0;
#X connect 31 0 30 0;
#X connect 31 1 17 0;
#X connect 31 2 45 0;
#X connect 32 0 31 0;
#X connect 32 1 12 0;
#X connect 32 2 47 0;
#X connect 33 0 32 0;
#X connect 33 1 14 0;
#X connect 33 2 43 0;
#X connect 34 0 33 0;
#X connect 34 1 13 0;
#X connect 34 2 36 0;
#X connect 35 0 5 1;
#X connect 36 0 5 1;
#X connect 37 0 1 0;
#X connect 38 0 5 1;
#X connect 39 0 1 0;
#X connect 40 0 5 1;
#X connect 41 0 42 0;
#X connect 41 1 37 0;
#X connect 41 2 38 0;
#X connect 42 1 39 0;
#X connect 42 2 40 0;
#X connect 43 0 5 1;
#X connect 44 0 2 0;
#X connect 45 0 5 1;
#X connect 46 0 5 1;
#X connect 47 0 5 1;
#X connect 48 0 5 1;
#X connect 49 0 5 1;
#X connect 50 0 5 1;
#X connect 51 0 5 1;
#X connect 52 0 5 1;
#X connect 53 0 5 1;
#X connect 54 0 1 1;
#X connect 55 0 5 1;
#X restore 291 71 pd NativiteBullePhallusInit;
#N canvas 499 100 850 796 NativiteBulleGlaceInit 0;
#X obj 234 572 send OSC_MESSAGES;
#X obj 114 499 list prepend;
#X obj 71 43 bng 15 250 50 0 empty empty empty 17 7 0 10 -262144 -1
-1;
#X obj 114 522 l2s /;
#X msg 114 132 File;
#X obj 234 539 list;
#X msg 114 109 Zpos;
#X msg 114 326 RenderOrder;
#X msg 114 369 Yscale;
#X msg 114 389 Xscale;
#X msg 114 409 Ypos;
#X msg 114 429 Xpos;
#X msg 114 225 Blue;
#X msg 114 184 Red;
#X msg 114 205 Green;
#X msg 114 305 modeAlpha;
#X msg 114 348 Shape;
#X msg 114 245 Rotate;
#X msg 114 284 Alpha;
#X msg 114 264 Activate;
#X obj 71 62 t b b b;
#X obj 56 115 t b b b;
#X obj 56 309 t b b b;
#X obj 56 352 t b b b;
#X obj 56 372 t b b b;
#X obj 56 392 t b b b;
#X obj 56 412 t b b b;
#X obj 17 331 t b b b;
#X obj 16 288 t b b b;
#X obj 56 267 t b b b;
#X obj 56 247 t b b b;
#X obj 56 228 t b b b;
#X obj 56 208 t b b b;
#X obj 56 188 t b b b;
#X obj 56 167 t b b b;
#X msg 255 284 1;
#X msg 255 184 1;
#X msg 114 449 ParentName;
#X msg 255 449 /Dummy;
#X msg 114 469 g*pos;
#X msg 255 469 0;
#X obj 56 432 t b b b;
#X obj 56 452 t b b b;
#X msg 255 205 1;
#X obj 71 22 r NativiteInit;
#X msg 255 245 0;
#X msg 255 264 1;
#X msg 255 225 1;
#X msg 255 429 -1.3;
#X msg 255 409 -2.2;
#X msg 255 369 0;
#X msg 255 389 0;
#X msg 255 109 -3.018;
#X msg 255 326 -14;
#X msg 183 79 /DunjonDoor3Cadre;
#X msg 255 132 /home/woii/2013_Sebkha-ChottGalootFormula_ThingFish/ThingFishVideoDecorum/Nativite/data/glace_colorisee.png
;
#X connect 1 0 3 0;
#X connect 2 0 20 0;
#X connect 3 0 5 0;
#X connect 4 0 1 0;
#X connect 5 0 0 0;
#X connect 6 0 1 0;
#X connect 7 0 1 0;
#X connect 8 0 1 0;
#X connect 9 0 1 0;
#X connect 10 0 1 0;
#X connect 11 0 1 0;
#X connect 12 0 1 0;
#X connect 13 0 1 0;
#X connect 14 0 1 0;
#X connect 15 0 1 0;
#X connect 17 0 1 0;
#X connect 18 0 1 0;
#X connect 19 0 1 0;
#X connect 20 0 6 0;
#X connect 20 0 21 0;
#X connect 20 1 52 0;
#X connect 20 2 54 0;
#X connect 21 0 34 0;
#X connect 21 1 4 0;
#X connect 21 2 55 0;
#X connect 22 0 23 0;
#X connect 22 1 7 0;
#X connect 22 2 53 0;
#X connect 23 0 24 0;
#X connect 23 1 8 0;
#X connect 23 2 50 0;
#X connect 24 0 25 0;
#X connect 24 1 9 0;
#X connect 24 2 51 0;
#X connect 25 0 26 0;
#X connect 25 1 10 0;
#X connect 25 2 49 0;
#X connect 26 0 41 0;
#X connect 26 1 11 0;
#X connect 26 2 48 0;
#X connect 27 1 16 0;
#X connect 28 1 15 0;
#X connect 29 0 22 0;
#X connect 29 1 18 0;
#X connect 29 2 35 0;
#X connect 30 0 29 0;
#X connect 30 1 19 0;
#X connect 30 2 46 0;
#X connect 31 0 30 0;
#X connect 31 1 17 0;
#X connect 31 2 45 0;
#X connect 32 0 31 0;
#X connect 32 1 12 0;
#X connect 32 2 47 0;
#X connect 33 0 32 0;
#X connect 33 1 14 0;
#X connect 33 2 43 0;
#X connect 34 0 33 0;
#X connect 34 1 13 0;
#X connect 34 2 36 0;
#X connect 35 0 5 1;
#X connect 36 0 5 1;
#X connect 37 0 1 0;
#X connect 38 0 5 1;
#X connect 39 0 1 0;
#X connect 40 0 5 1;
#X connect 41 0 42 0;
#X connect 41 1 37 0;
#X connect 41 2 38 0;
#X connect 42 1 39 0;
#X connect 42 2 40 0;
#X connect 43 0 5 1;
#X connect 44 0 2 0;
#X connect 45 0 5 1;
#X connect 46 0 5 1;
#X connect 47 0 5 1;
#X connect 48 0 5 1;
#X connect 49 0 5 1;
#X connect 50 0 5 1;
#X connect 51 0 5 1;
#X connect 52 0 5 1;
#X connect 53 0 5 1;
#X connect 54 0 1 1;
#X connect 55 0 5 1;
#X restore 291 91 pd NativiteBulleGlaceInit;
#N canvas 493 100 850 796 NativiteBulleTetineInit 0;
#X obj 234 572 send OSC_MESSAGES;
#X obj 114 499 list prepend;
#X obj 71 43 bng 15 250 50 0 empty empty empty 17 7 0 10 -262144 -1
-1;
#X obj 114 522 l2s /;
#X msg 114 132 File;
#X obj 234 539 list;
#X msg 114 109 Zpos;
#X msg 114 326 RenderOrder;
#X msg 114 369 Yscale;
#X msg 114 389 Xscale;
#X msg 114 409 Ypos;
#X msg 114 429 Xpos;
#X msg 114 225 Blue;
#X msg 114 184 Red;
#X msg 114 205 Green;
#X msg 114 305 modeAlpha;
#X msg 114 348 Shape;
#X msg 114 245 Rotate;
#X msg 114 284 Alpha;
#X msg 114 264 Activate;
#X obj 71 62 t b b b;
#X obj 56 115 t b b b;
#X obj 56 309 t b b b;
#X obj 56 352 t b b b;
#X obj 56 372 t b b b;
#X obj 56 392 t b b b;
#X obj 56 412 t b b b;
#X obj 17 331 t b b b;
#X obj 16 288 t b b b;
#X obj 56 267 t b b b;
#X obj 56 247 t b b b;
#X obj 56 228 t b b b;
#X obj 56 208 t b b b;
#X obj 56 188 t b b b;
#X obj 56 167 t b b b;
#X msg 255 284 1;
#X msg 255 184 1;
#X msg 114 449 ParentName;
#X msg 255 449 /Dummy;
#X msg 114 469 g*pos;
#X msg 255 469 0;
#X obj 56 432 t b b b;
#X obj 56 452 t b b b;
#X msg 255 205 1;
#X obj 71 22 r NativiteInit;
#X msg 255 245 0;
#X msg 255 264 1;
#X msg 255 225 1;
#X msg 255 429 -1.3;
#X msg 255 409 -2.2;
#X msg 255 369 0;
#X msg 255 389 0;
#X msg 255 109 -3.018;
#X msg 255 326 -14;
#X msg 255 132 /home/woii/2013_Sebkha-ChottGalootFormula_ThingFish/ThingFishVideoDecorum/Nativite/data/tetine_colorisee.png
;
#X msg 183 79 /DunjonDoor4Cadre;
#X connect 1 0 3 0;
#X connect 2 0 20 0;
#X connect 3 0 5 0;
#X connect 4 0 1 0;
#X connect 5 0 0 0;
#X connect 6 0 1 0;
#X connect 7 0 1 0;
#X connect 8 0 1 0;
#X connect 9 0 1 0;
#X connect 10 0 1 0;
#X connect 11 0 1 0;
#X connect 12 0 1 0;
#X connect 13 0 1 0;
#X connect 14 0 1 0;
#X connect 15 0 1 0;
#X connect 17 0 1 0;
#X connect 18 0 1 0;
#X connect 19 0 1 0;
#X connect 20 0 6 0;
#X connect 20 0 21 0;
#X connect 20 1 52 0;
#X connect 20 2 55 0;
#X connect 21 0 34 0;
#X connect 21 1 4 0;
#X connect 21 2 54 0;
#X connect 22 0 23 0;
#X connect 22 1 7 0;
#X connect 22 2 53 0;
#X connect 23 0 24 0;
#X connect 23 1 8 0;
#X connect 23 2 50 0;
#X connect 24 0 25 0;
#X connect 24 1 9 0;
#X connect 24 2 51 0;
#X connect 25 0 26 0;
#X connect 25 1 10 0;
#X connect 25 2 49 0;
#X connect 26 0 41 0;
#X connect 26 1 11 0;
#X connect 26 2 48 0;
#X connect 27 1 16 0;
#X connect 28 1 15 0;
#X connect 29 0 22 0;
#X connect 29 1 18 0;
#X connect 29 2 35 0;
#X connect 30 0 29 0;
#X connect 30 1 19 0;
#X connect 30 2 46 0;
#X connect 31 0 30 0;
#X connect 31 1 17 0;
#X connect 31 2 45 0;
#X connect 32 0 31 0;
#X connect 32 1 12 0;
#X connect 32 2 47 0;
#X connect 33 0 32 0;
#X connect 33 1 14 0;
#X connect 33 2 43 0;
#X connect 34 0 33 0;
#X connect 34 1 13 0;
#X connect 34 2 36 0;
#X connect 35 0 5 1;
#X connect 36 0 5 1;
#X connect 37 0 1 0;
#X connect 38 0 5 1;
#X connect 39 0 1 0;
#X connect 40 0 5 1;
#X connect 41 0 42 0;
#X connect 41 1 37 0;
#X connect 41 2 38 0;
#X connect 42 1 39 0;
#X connect 42 2 40 0;
#X connect 43 0 5 1;
#X connect 44 0 2 0;
#X connect 45 0 5 1;
#X connect 46 0 5 1;
#X connect 47 0 5 1;
#X connect 48 0 5 1;
#X connect 49 0 5 1;
#X connect 50 0 5 1;
#X connect 51 0 5 1;
#X connect 52 0 5 1;
#X connect 53 0 5 1;
#X connect 54 0 5 1;
#X connect 55 0 1 1;
#X restore 291 111 pd NativiteBulleTetineInit;
#X obj 1106 29 nativiteMoves;
#N canvas 491 100 850 796 NativiteVolvoInit 0;
#X obj 234 572 send OSC_MESSAGES;
#X obj 114 499 list prepend;
#X obj 71 43 bng 15 250 50 0 empty empty empty 17 7 0 10 -262144 -1
-1;
#X obj 114 522 l2s /;
#X msg 114 132 File;
#X obj 234 539 list;
#X msg 114 109 Zpos;
#X msg 114 326 RenderOrder;
#X msg 114 369 Yscale;
#X msg 114 389 Xscale;
#X msg 114 409 Ypos;
#X msg 114 429 Xpos;
#X msg 114 225 Blue;
#X msg 114 184 Red;
#X msg 114 205 Green;
#X msg 114 305 modeAlpha;
#X msg 114 348 Shape;
#X msg 114 245 Rotate;
#X msg 114 284 Alpha;
#X msg 114 264 Activate;
#X obj 71 62 t b b b;
#X obj 56 115 t b b b;
#X obj 56 309 t b b b;
#X obj 56 352 t b b b;
#X obj 56 372 t b b b;
#X obj 56 392 t b b b;
#X obj 56 412 t b b b;
#X obj 17 331 t b b b;
#X obj 16 288 t b b b;
#X obj 56 267 t b b b;
#X obj 56 247 t b b b;
#X obj 56 228 t b b b;
#X obj 56 208 t b b b;
#X obj 56 188 t b b b;
#X obj 56 167 t b b b;
#X msg 255 284 1;
#X msg 255 184 1;
#X msg 114 449 ParentName;
#X msg 255 449 /Dummy;
#X msg 114 469 g*pos;
#X msg 255 469 0;
#X obj 56 432 t b b b;
#X obj 56 452 t b b b;
#X msg 255 205 1;
#X obj 71 22 r NativiteInit;
#X msg 255 245 0;
#X msg 255 264 1;
#X msg 255 225 1;
#X msg 255 429 -1.3;
#X msg 255 409 -2.2;
#X msg 255 369 0;
#X msg 255 389 0;
#X msg 255 109 -3.018;
#X msg 255 326 -14;
#X msg 183 79 /DunjonDoor5Cadre;
#X msg 255 132 /home/woii/2013_Sebkha-ChottGalootFormula_ThingFish/ThingFishVideoDecorum/Nativite/data/volvo_colorisee.png
;
#X connect 1 0 3 0;
#X connect 2 0 20 0;
#X connect 3 0 5 0;
#X connect 4 0 1 0;
#X connect 5 0 0 0;
#X connect 6 0 1 0;
#X connect 7 0 1 0;
#X connect 8 0 1 0;
#X connect 9 0 1 0;
#X connect 10 0 1 0;
#X connect 11 0 1 0;
#X connect 12 0 1 0;
#X connect 13 0 1 0;
#X connect 14 0 1 0;
#X connect 15 0 1 0;
#X connect 17 0 1 0;
#X connect 18 0 1 0;
#X connect 19 0 1 0;
#X connect 20 0 6 0;
#X connect 20 0 21 0;
#X connect 20 1 52 0;
#X connect 20 2 54 0;
#X connect 21 0 34 0;
#X connect 21 1 4 0;
#X connect 21 2 55 0;
#X connect 22 0 23 0;
#X connect 22 1 7 0;
#X connect 22 2 53 0;
#X connect 23 0 24 0;
#X connect 23 1 8 0;
#X connect 23 2 50 0;
#X connect 24 0 25 0;
#X connect 24 1 9 0;
#X connect 24 2 51 0;
#X connect 25 0 26 0;
#X connect 25 1 10 0;
#X connect 25 2 49 0;
#X connect 26 0 41 0;
#X connect 26 1 11 0;
#X connect 26 2 48 0;
#X connect 27 1 16 0;
#X connect 28 1 15 0;
#X connect 29 0 22 0;
#X connect 29 1 18 0;
#X connect 29 2 35 0;
#X connect 30 0 29 0;
#X connect 30 1 19 0;
#X connect 30 2 46 0;
#X connect 31 0 30 0;
#X connect 31 1 17 0;
#X connect 31 2 45 0;
#X connect 32 0 31 0;
#X connect 32 1 12 0;
#X connect 32 2 47 0;
#X connect 33 0 32 0;
#X connect 33 1 14 0;
#X connect 33 2 43 0;
#X connect 34 0 33 0;
#X connect 34 1 13 0;
#X connect 34 2 36 0;
#X connect 35 0 5 1;
#X connect 36 0 5 1;
#X connect 37 0 1 0;
#X connect 38 0 5 1;
#X connect 39 0 1 0;
#X connect 40 0 5 1;
#X connect 41 0 42 0;
#X connect 41 1 37 0;
#X connect 41 2 38 0;
#X connect 42 1 39 0;
#X connect 42 2 40 0;
#X connect 43 0 5 1;
#X connect 44 0 2 0;
#X connect 45 0 5 1;
#X connect 46 0 5 1;
#X connect 47 0 5 1;
#X connect 48 0 5 1;
#X connect 49 0 5 1;
#X connect 50 0 5 1;
#X connect 51 0 5 1;
#X connect 52 0 5 1;
#X connect 53 0 5 1;
#X connect 54 0 1 1;
#X connect 55 0 5 1;
#X restore 291 131 pd NativiteVolvoInit;
#N canvas 499 100 850 796 NativiteBulle5Init 1;
#X obj 234 613 send OSC_MESSAGES;
#X obj 114 540 list prepend;
#X obj 71 43 bng 15 250 50 0 empty empty empty 17 7 0 10 -262144 -1
-1;
#X obj 114 563 l2s /;
#X msg 114 132 File;
#X obj 234 580 list;
#X msg 114 109 Zpos;
#X msg 114 326 RenderOrder;
#X msg 114 369 Yscale;
#X msg 114 389 Xscale;
#X msg 114 409 Ypos;
#X msg 114 429 Xpos;
#X msg 114 225 Blue;
#X msg 114 184 Red;
#X msg 114 205 Green;
#X msg 114 305 modeAlpha;
#X msg 114 348 Shape;
#X msg 114 245 Rotate;
#X msg 114 284 Alpha;
#X msg 114 264 Activate;
#X obj 71 62 t b b b;
#X obj 56 115 t b b b;
#X obj 56 309 t b b b;
#X obj 56 352 t b b b;
#X obj 56 372 t b b b;
#X obj 56 392 t b b b;
#X obj 56 412 t b b b;
#X obj 17 331 t b b b;
#X obj 16 288 t b b b;
#X obj 56 267 t b b b;
#X obj 56 247 t b b b;
#X obj 56 228 t b b b;
#X obj 56 208 t b b b;
#X obj 56 188 t b b b;
#X obj 56 167 t b b b;
#X msg 255 284 1;
#X msg 255 184 1;
#X msg 114 449 ParentName;
#X msg 255 449 /Dummy;
#X msg 114 469 g*pos;
#X msg 255 469 0;
#X obj 56 432 t b b b;
#X obj 56 452 t b b b;
#X msg 255 205 1;
#X obj 71 22 r NativiteInit;
#X msg 255 245 0;
#X msg 183 79 /DunjonDoor[1-5];
#X msg 255 326 -15;
#X msg 255 109 -3.019;
#X msg 255 264 1;
#X msg 255 225 1;
#X msg 255 429 -1.3;
#X msg 255 409 -2.2;
#X obj 56 472 t b b b;
#X msg 114 489 Flip;
#X msg 255 489 1;
#X msg 255 389 0;
#X msg 255 369 0;
#X msg 255 132 /home/woii/2013_Sebkha-ChottGalootFormula_ThingFish/ThingFishVideoDecorum/Nativite/data/bulle.png
;
#X connect 1 0 3 0;
#X connect 2 0 20 0;
#X connect 3 0 5 0;
#X connect 4 0 1 0;
#X connect 5 0 0 0;
#X connect 6 0 1 0;
#X connect 7 0 1 0;
#X connect 8 0 1 0;
#X connect 9 0 1 0;
#X connect 10 0 1 0;
#X connect 11 0 1 0;
#X connect 12 0 1 0;
#X connect 13 0 1 0;
#X connect 14 0 1 0;
#X connect 15 0 1 0;
#X connect 17 0 1 0;
#X connect 18 0 1 0;
#X connect 19 0 1 0;
#X connect 20 0 6 0;
#X connect 20 0 21 0;
#X connect 20 1 48 0;
#X connect 20 2 46 0;
#X connect 21 0 34 0;
#X connect 21 1 4 0;
#X connect 21 2 58 0;
#X connect 22 0 23 0;
#X connect 22 1 7 0;
#X connect 22 2 47 0;
#X connect 23 0 24 0;
#X connect 23 1 8 0;
#X connect 23 2 57 0;
#X connect 24 0 25 0;
#X connect 24 1 9 0;
#X connect 24 2 56 0;
#X connect 25 0 26 0;
#X connect 25 1 10 0;
#X connect 25 2 52 0;
#X connect 26 0 41 0;
#X connect 26 1 11 0;
#X connect 26 2 51 0;
#X connect 27 1 16 0;
#X connect 28 1 15 0;
#X connect 29 0 22 0;
#X connect 29 1 18 0;
#X connect 29 2 35 0;
#X connect 30 0 29 0;
#X connect 30 1 19 0;
#X connect 30 2 49 0;
#X connect 31 0 30 0;
#X connect 31 1 17 0;
#X connect 31 2 45 0;
#X connect 32 0 31 0;
#X connect 32 1 12 0;
#X connect 32 2 50 0;
#X connect 33 0 32 0;
#X connect 33 1 14 0;
#X connect 33 2 43 0;
#X connect 34 0 33 0;
#X connect 34 1 13 0;
#X connect 34 2 36 0;
#X connect 35 0 5 1;
#X connect 36 0 5 1;
#X connect 37 0 1 0;
#X connect 38 0 5 1;
#X connect 39 0 1 0;
#X connect 40 0 5 1;
#X connect 41 0 42 0;
#X connect 41 1 37 0;
#X connect 41 2 38 0;
#X connect 42 0 53 0;
#X connect 42 1 39 0;
#X connect 42 2 40 0;
#X connect 43 0 5 1;
#X connect 44 0 2 0;
#X connect 45 0 5 1;
#X connect 46 0 1 1;
#X connect 47 0 5 1;
#X connect 48 0 5 1;
#X connect 49 0 5 1;
#X connect 50 0 5 1;
#X connect 51 0 5 1;
#X connect 52 0 5 1;
#X connect 53 1 54 0;
#X connect 53 2 55 0;
#X connect 54 0 1 0;
#X connect 55 0 5 1;
#X connect 56 0 5 1;
#X connect 57 0 5 1;
#X connect 58 0 5 1;
#X restore 431 31 pd NativiteBulle5Init;
#X connect 0 0 1 0;
